mtllib CornellBox-Sphere.mtl

## Object leftSphere

v 0.0650242 0.427896 0.0947125
vn 0.697866 -0.70661 0.11698
v 0.107967 0.496841 0.0407643
vn 0.76936 -0.636729 0.0515857
v 0.101891 0.485407 0.135976
vn 0.749112 -0.640461 0.169235
v 0.04266 0.438511 0.0157389
vn 0.694806 -0.718915 0.0201516
v 0.0565951 0.503594 -0.0338432
vn 0.745539 -0.664918 -0.0453318
v 0.10951 0.585386 -0.000483464
vn 0.826833 -0.562447 -0.000655844
v 0.0211309 0.443704 0.179153
vn 0.66553 -0.710439 0.228794
v 0.128964 0.562197 0.101884
vn 0.813585 -0.566313 0.131791
v -0.0290326 0.403822 0.0766484
vn 0.616758 -0.780727 0.100375
v -0.0428771 0.45329 -0.0316372
vn 0.640821 -0.766409 -0.0443508
v -0.0786172 0.430004 0.161921
vn 0.579537 -0.783929 0.222694
v 0.0741017 0.546127 0.207845
vn 0.754618 -0.596586 0.273199
v -0.13381 0.432329 0.0591554
vn 0.540009 -0.837126 0.0872346
v -0.0439088 0.503418 0.242292
vn 0.636588 -0.693103 0.338178
v 0.000160158 0.569697 -0.0958834
vn 0.750181 -0.645404 -0.143814
v 0.117055 0.669188 0.127555
vn 0.867061 -0.464844 0.179235
v -0.164256 0.47936 0.187828
vn 0.518639 -0.804256 0.290146
v -0.141891 0.500374 -0.0620234
vn 0.579623 -0.808678 -0.100389
v -0.126938 0.576176 0.277839
vn 0.592837 -0.673503 0.441517
v 0.0824491 0.682435 -0.0388939
vn 0.876476 -0.477875 -0.0585279
v 0.0105894 0.617984 0.264474
vn 0.739608 -0.553365 0.383101
v -0.123384 0.605389 -0.133074
vn 0.67075 -0.702798 -0.237003
v -0.0131454 0.691441 -0.124081
vn 0.825732 -0.523333 -0.210448
v 0.0410363 0.794992 -0.057964
vn 0.930461 -0.352569 -0.0996852
v 0.0939764 0.763979 0.0438519
vn 0.927141 -0.368407 0.0684487
v 0.0444909 0.721859 0.232654
vn 0.832317 -0.425171 0.355639
v 0.0796286 0.779871 0.144216
vn 0.910546 -0.345804 0.226551
v 0.0112569 0.8288 0.223284
vn 0.876091 -0.293369 0.382621
v -0.0699057 0.713239 0.299567
vn 0.719876 -0.47997 0.501405
v -0.242296 0.570448 -0.0771107
vn 0.508466 -0.847534 -0.152145
v -0.249335 0.553327 0.207733
vn 0.45351 -0.808131 0.375836
v -0.246659 0.499704 0.0605538
vn 0.449152 -0.886982 0.107357
v -0.0510746 0.804435 -0.137572
vn 0.882615 -0.384492 -0.270475
v 0.0476255 0.874814 0.0767618
vn 0.965877 -0.220797 0.135389
v -0.324189 0.58011 0.00835787
vn 0.386153 -0.922252 0.0183573
v -0.22949 0.679879 -0.150779
vn 0.607332 -0.718715 -0.338521
v -0.115689 0.711186 -0.161879
vn 0.75762 -0.569361 -0.319125
v -0.21736 0.652962 0.288752
vn 0.530647 -0.651551 0.542121
v -0.325461 0.573992 0.116538
vn 0.367529 -0.897053 0.245396
v -0.00726834 0.902377 -0.0562005
vn 0.97485 -0.193143 -0.11119
v -0.175558 0.793488 -0.178291
vn 0.76536 -0.487164 -0.420589
v -0.18035 0.762279 0.316383
vn 0.628355 -0.467302 0.621932
v -0.0166646 0.979557 0.0559337
vn 0.992495 -0.0419781 0.114856
v -0.404732 0.659122 0.0639224
vn 0.26488 -0.947761 0.177727
v -0.340314 0.660358 -0.0801742
vn 0.416091 -0.885 -0.208909
v -0.0248452 0.938482 0.186698
vn 0.924047 -0.119636 0.363077
v -0.300733 0.743313 0.288587
vn 0.458505 -0.590627 0.664028
v -0.0923272 0.84733 0.289956
vn 0.779417 -0.291884 0.554357
v -0.335794 0.644727 0.211028
vn 0.369292 -0.798991 0.474591
v -0.109538 0.9045 -0.145177
vn 0.913609 -0.223453 -0.339688
v -0.322241 0.793852 -0.160018
vn 0.562966 -0.652874 -0.50678
v -0.0756585 1.00285 -0.059716
vn 0.990221 0.00665654 -0.13935
v -0.414687 0.749148 0.206085
vn 0.254156 -0.747312 0.613946
v -0.426182 0.74644 -0.0563646
vn 0.273365 -0.938991 -0.208731
v -0.0882617 1.04428 0.154793
vn 0.93133 0.100151 0.350134
v -0.141338 0.977188 0.265009
vn 0.803221 -0.0510864 0.593486
v -0.227907 0.866007 0.315429
vn 0.621801 -0.306206 0.720834
v -0.22005 0.892281 -0.18049
vn 0.799687 -0.307702 -0.515577
v -0.085268 1.06454 0.0367828
vn 0.984335 0.15318 0.0873011
v -0.184727 1.00129 -0.144993
vn 0.90852 0.00371105 -0.417826
v -0.488681 0.788586 0.0599315
vn 0.051441 -0.960816 0.272372
v -0.365904 0.856955 0.285129
vn 0.387518 -0.413381 0.823982
v -0.154964 1.09988 -0.0489137
vn 0.951783 0.275506 -0.134929
v -0.282293 0.97874 0.298441
vn 0.588364 -0.0574566 0.806552
v -0.202471 1.0901 0.224108
vn 0.776372 0.235097 0.584787
v -0.158248 1.13719 0.0907797
vn 0.901044 0.361709 0.239345
v -0.312434 0.948183 -0.175874
vn 0.7151 -0.197554 -0.670526
v -0.261188 1.09337 -0.127416
vn 0.83405 0.326092 -0.445
v -0.350366 1.09018 0.260554
vn 0.47699 0.287452 0.830573
v -0.409526 0.96628 0.272479
vn 0.312971 -0.116645 0.942573
v -0.386263 1.03948 -0.151991
vn 0.586584 0.203606 -0.783878
v -0.479456 0.873467 0.201713
vn 0.0859567 -0.529426 0.84399
v -0.541572 0.908794 0.0788817
vn -0.325926 -0.715059 0.618436
v -0.36383 1.17273 -0.0973844
vn 0.566087 0.718084 -0.404848
v -0.240364 1.18715 -0.0130574
vn 0.81055 0.584249 -0.0407635
v -0.271759 1.18999 0.158677
vn 0.677871 0.564269 0.471266
v -0.506394 1.02892 0.206318
vn -0.0306773 0.138731 0.989855
v -0.465709 0.896426 -0.10146
vn 0.230158 -0.695183 -0.68099
v -0.420624 1.1915 0.193458
vn 0.279942 0.675365 0.682286
v -0.485129 1.07273 -0.104138
vn 0.116284 0.568693 -0.814289
v -0.546011 0.987933 -0.0259217
vn -0.849354 -0.222761 -0.478514
v -0.569809 1.02728 0.0828065
vn -0.625031 0.244262 0.741399
v -0.357176 1.25496 0.0439277
vn 0.483303 0.862742 0.148647
v -0.487281 1.21096 -0.0409701
vn 0.0590815 0.979944 -0.190315
v -0.564073 1.09448 -0.00605046
vn -0.560497 0.826464 -0.0529283
v -0.553846 1.14629 0.120837
vn -0.273009 0.741693 0.612664
v -0.467755 1.25245 0.0980043
vn 0.118237 0.925678 0.35936
v -0.0310581 0.59811 0.0830393
vn 0.752533 -0.644932 0.133257
v -0.17187 0.762197 0.0668341
vn 0.798925 -0.578999 0.162726
v -0.421237 1.10215 0.0678241
vn 0.540466 0.700927 0.465402
v -0.319085 0.965899 -0.0635396
vn 0.928925 -0.175097 -0.326251
v -0.415696 1.01077 -0.0317262
vn 0.929303 0.11869 -0.349728
v -0.304815 1.05408 0.169551
vn 0.73895 0.20473 0.641903
v -0.421963 0.958096 0.0771505
vn 0.664346 -0.356736 0.656798
v -0.283927 1.04427 0.0375436
vn 0.965762 0.197853 0.167805
v -0.157599 0.966103 0.0715205
vn 0.97431 -0.0964532 0.203513
v -0.337906 0.851295 0.0603403
vn 0.710636 -0.651934 0.264537
v -0.25401 0.966264 0.166488
vn 0.822864 -0.11285 0.556921
v -0.350388 1.08115 -0.0527263
vn 0.839646 0.455447 -0.295909
v -0.219363 0.910007 -0.05654
vn 0.935184 -0.299888 -0.188412
g leftSphere
usemtl leftSphere

s 1
f 75//75 76//76 66//66
f 77//77 82//82 73//73
f 46//46 43//43 55//55
f 72//72 77//77 73//73
f 43//43 59//59 55//55
f 77//77 86//86 82//82
f 53//53 44//44 49//49
f 8//8 12//12 3//3
f 3//3 12//12 7//7
f 2//2 8//8 3//3
f 74//74 84//84 83//83
f 74//74 68//68 71//71
f 79//79 87//87 86//86
f 2//2 4//4 5//5
f 38//38 47//47 49//49
f 76//76 83//83 79//79
f 50//50 58//58 60//60
f 46//46 34//34 43//43
f 30//30 22//22 18//18
f 75//75 66//66 63//63
f 20//20 25//25 16//16
f 6//6 15//15 20//20
f 52//52 50//50 60//60
f 2//2 3//3 1//1
f 36//36 45//45 51//51
f 66//66 55//55 59//59
f 16//16 26//26 21//21
f 16//16 25//25 27//27
f 50//50 52//52 40//40
f 13//13 10//10 9//9
f 24//24 25//25 20//20
f 44//44 39//39 49//49
f 14//14 19//19 17//17
f 24//24 23//23 33//33
f 31//31 19//19 38//38
f 22//22 15//15 18//18
f 43//43 34//34 40//40
f 31//31 39//39 32//32
f 16//16 8//8 6//6
f 21//21 26//26 29//29
f 57//57 56//56 64//64
f 47//47 62//62 53//53
f 3//3 7//7 1//1
f 29//29 48//48 42//42
f 30//30 45//45 36//36
f 76//76 69//69 65//65
f 28//28 34//34 46//46
f 17//17 11//11 14//14
f 46//46 56//56 48//48
f 84//84 80//80 85//85
f 43//43 52//52 59//59
f 77//77 69//69 79//79
f 56//56 55//55 65//65
f 67//67 51//51 78//78
f 75//75 83//83 76//76
f 17//17 32//32 13//13
f 48//48 28//28 46//46
f 6//6 8//8 2//2
f 79//79 69//69 76//76
f 44//44 45//45 35//35
f 5//5 6//6 2//2
f 16//16 12//12 8//8
f 58//58 41//41 51//51
f 21//21 12//12 16//16
f 48//48 56//56 57//57
f 58//58 51//51 67//67
f 23//23 15//15 22//22
f 27//27 34//34 28//28
f 73//73 81//81 78//78
f 14//14 12//12 21//21
f 10//10 15//15 5//5
f 80//80 84//84 74//74
f 29//29 19//19 21//21
f 70//70 77//77 72//72
f 24//24 34//34 25//25
f 28//28 26//26 27//27
f 49//49 39//39 31//31
f 40//40 33//33 50//50
f 83//83 84//84 87//87
f 5//5 15//15 6//6
f 17//17 19//19 31//31
f 38//38 29//29 42//42
f 49//49 47//47 53//53
f 68//68 67//67 71//71
f 9//9 11//11 13//13
f 42//42 47//47 38//38
f 65//65 66//66 76//76
f 1//1 4//4 2//2
f 85//85 81//81 82//82
f 68//68 60//60 67//67
f 16//16 6//6 20//20
f 79//79 86//86 77//77
f 13//13 11//11 17//17
f 86//86 85//85 82//82
f 39//39 44//44 35//35
f 64//64 56//56 65//65
f 78//78 61//61 73//73
f 79//79 83//83 87//87
f 54//54 61//61 78//78
f 87//87 84//84 86//86
f 73//73 61//61 72//72
f 84//84 85//85 86//86
f 48//48 57//57 42//42
f 59//59 63//63 66//66
f 25//25 34//34 27//27
f 14//14 11//11 7//7
f 28//28 48//48 29//29
f 29//29 26//26 28//28
f 51//51 54//54 78//78
f 70//70 62//62 64//64
f 20//20 23//23 24//24
f 54//54 45//45 44//44
f 32//32 30//30 18//18
f 74//74 75//75 68//68
f 71//71 80//80 74//74
f 65//65 55//55 66//66
f 74//74 83//83 75//75
f 56//56 46//46 55//55
f 53//53 72//72 61//61
f 71//71 78//78 80//80
f 62//62 47//47 57//57
f 71//71 67//67 78//78
f 58//58 67//67 60//60
f 80//80 81//81 85//85
f 13//13 18//18 10//10
f 59//59 52//52 63//63
f 21//21 19//19 14//14
f 44//44 53//53 61//61
f 9//9 4//4 1//1
f 77//77 70//70 69//69
f 37//37 23//23 22//22
f 1//1 7//7 9//9
f 5//5 4//4 10//10
f 62//62 57//57 64//64
f 80//80 78//78 81//81
f 33//33 23//23 37//37
f 40//40 34//34 24//24
f 32//32 18//18 13//13
f 50//50 41//41 58//58
f 75//75 63//63 68//68
f 37//37 41//41 33//33
f 10//10 4//4 9//9
f 7//7 11//11 9//9
f 63//63 52//52 60//60
f 57//57 47//47 42//42
f 49//49 31//31 38//38
f 35//35 32//32 39//39
f 31//31 32//32 17//17
f 73//73 82//82 81//81
f 30//30 32//32 35//35
f 20//20 15//15 23//23
f 27//27 26//26 16//16
f 35//35 45//45 30//30
f 36//36 37//37 22//22
f 7//7 12//12 14//14
f 36//36 41//41 37//37
f 18//18 15//15 10//10
f 70//70 64//64 69//69
f 33//33 41//41 50//50
f 54//54 44//44 61//61
f 24//24 33//33 40//40
f 51//51 45//45 54//54
f 40//40 52//52 43//43
f 38//38 19//19 29//29
f 51//51 41//41 36//36
f 72//72 62//62 70//70
f 22//22 30//30 36//36
f 53//53 62//62 72//72
f 69//69 64//64 65//65
f 63//63 60//60 68//68

## Object rightSphere

v -0.5875 0.25 0
vn 0 0 0
v -0.3375 0.25 0
vn 1 0 0
v -0.363893 0.361804 0
vn 0.894427 0.447214 0
v -0.356335 0.298578 0.0818727
vn 0.924658 0.194311 0.327491
v -0.365269 0.304668 -0.100621
vn 0.888925 0.218673 -0.402486
v -0.403472 0.399769 -0.078758
vn 0.736112 0.599077 -0.315032
v -0.432693 0.446087 0.00919147
vn 0.61923 0.784348 0.0367659
v -0.363941 0.188416 0.0934285
vn 0.894236 -0.246334 0.373714
v -0.410629 0.387968 0.110368
vn 0.707486 0.551874 0.441473
v -0.367473 0.191604 -0.103335
vn 0.880107 -0.233582 -0.413341
v -0.358458 0.149801 -8.75488e-05
vn 0.916168 -0.400795 -0.000350195
v -0.421135 0.251713 -0.186601
vn 0.665458 0.00685229 -0.746404
v -0.444167 0.364414 -0.169897
vn 0.573332 0.457656 -0.67959
v -0.485119 0.455304 -0.0993403
vn 0.409525 0.821214 -0.397361
v -0.409409 0.274129 0.173785
vn 0.712366 0.096514 0.69514
v -0.527304 0.492563 -0.00629535
vn 0.240784 0.970252 -0.0251814
v -0.442748 0.137095 -0.169703
vn 0.579009 -0.45162 -0.678813
v -0.436004 0.146356 0.169726
vn 0.605982 -0.414577 0.678905
v -0.511892 0.464419 0.103961
vn 0.302433 0.857675 0.415846
v -0.414726 0.0800885 0.061474
vn 0.691098 -0.679646 0.245896
v -0.500173 0.374247 0.198587
vn 0.349309 0.496986 0.794347
v -0.413442 0.0814998 -0.0617362
vn 0.696233 -0.674001 -0.246945
v -0.596483 0.483348 -0.0892645
vn -0.035932 0.933391 -0.357058
v -0.502895 0.196054 -0.22898
vn 0.338418 -0.215782 -0.915921
v -0.54919 0.415044 -0.183828
vn 0.153241 0.660177 -0.735312
v -0.518203 0.302872 -0.234313
vn 0.277186 0.211488 -0.937252
v -0.506754 0.236186 0.236198
vn 0.322982 -0.0552575 0.944791
v -0.533178 0.122009 0.207768
vn 0.21729 -0.511964 0.83107
v -0.500781 0.048265 -0.119511
vn 0.346876 -0.80694 -0.478043
v -0.627208 0.494429 0.0343175
vn -0.158833 0.977716 0.13727
v -0.514707 0.0432995 0.120316
vn 0.291174 -0.826802 0.481264
v -0.556411 0.102098 -0.199144
vn 0.124357 -0.591609 -0.796576
v -0.652097 0.431072 -0.159813
vn -0.258388 0.724289 -0.639251
v -0.502034 0.0151782 -0.0073646
vn 0.341866 -0.939287 -0.0294584
v -0.606661 0.322435 0.238508
vn -0.0766425 0.289742 0.954031
v -0.709291 0.458556 -0.0645855
vn -0.487165 0.834224 -0.258342
v -0.620815 0.440442 0.158499
vn -0.133259 0.761769 0.633996
v -0.609796 0.20734 -0.245322
vn -0.0891821 -0.170641 -0.981289
v -0.615078 0.185665 0.240001
vn -0.11031 -0.257341 0.960004
v -0.604107 0.0208233 -0.0985003
vn -0.0664263 -0.916707 -0.394001
v -0.738032 0.440036 0.0610438
vn -0.602127 0.760145 0.244175
v -0.625648 0.0683658 0.167492
vn -0.152591 -0.726537 0.66997
v -0.639455 0.335107 -0.229254
vn -0.207822 0.340429 -0.917016
v -0.70028 0.256923 0.223008
vn -0.451122 0.0276906 0.892033
v -0.798255 0.376885 -0.044525
vn -0.843022 0.507538 -0.1781
v -0.728947 0.364011 0.171739
vn -0.565787 0.456045 0.686955
v -0.682286 0.105617 -0.180746
vn -0.379144 -0.577531 -0.722985
v -0.618059 0.00569375 0.0433655
vn -0.122236 -0.977225 0.173462
v -0.740168 0.370642 -0.156965
vn -0.610673 0.482569 -0.627859
v -0.725921 0.239512 -0.207917
vn -0.553685 -0.0419533 -0.831669
v -0.716083 0.147342 0.188223
vn -0.514331 -0.410633 0.752891
v -0.811335 0.338188 0.0679763
vn -0.89534 0.352752 0.271905
v -0.726307 0.0495782 -0.0553525
vn -0.555226 -0.801687 -0.22141
v -0.728081 0.0603012 0.082167
vn -0.562323 -0.758795 0.328668
v -0.781603 0.249774 0.157556
vn -0.776413 -0.000904782 0.630224
v -0.790415 0.161365 -0.116058
vn -0.811658 -0.354539 -0.464234
v -0.800165 0.278246 -0.128358
vn -0.85066 0.112984 -0.513432
v -0.788956 0.146983 0.106315
vn -0.805824 -0.412069 0.42526
v -0.835034 0.250792 -0.035022
vn -0.990134 0.00316965 -0.140088
v -0.805951 0.128435 0.00096488
vn -0.873805 -0.486261 0.00385952
v -0.827736 0.222041 0.063286
vn -0.960943 -0.111836 0.253144
g rightSphere
usemtl rightSphere

s 1
f 160//160 161//161 159//159
f 159//159 161//161 152//152
f 156//156 160//160 159//159
f 134//134 120//120 131//131
f 153//153 156//156 147//147
f 155//155 158//158 151//151
f 139//139 128//128 127//127
f 116//116 123//123 130//130
f 112//112 117//117 124//124
f 150//150 149//149 143//143
f 126//126 112//112 124//124
f 139//139 127//127 135//135
f 152//152 155//155 146//146
f 120//120 111//111 108//108
f 110//110 105//105 102//102
f 132//132 117//117 129//129
f 138//138 126//126 124//124
f 106//106 105//105 113//113
f 127//127 128//128 118//118
f 137//137 130//130 141//141
f 121//121 115//115 109//109
f 141//141 152//152 146//146
f 131//131 120//120 118//118
f 128//128 139//139 142//142
f 149//149 145//145 136//136
f 122//122 117//117 110//110
f 123//123 116//116 114//114
f 153//153 147//147 140//140
f 129//129 134//134 140//140
f 132//132 129//129 140//140
f 108//108 115//115 118//118
f 148//148 153//153 140//140
f 115//115 127//127 118//118
f 103//103 106//106 107//107
f 160//160 156//156 153//153
f 126//126 125//125 113//113
f 121//121 109//109 119//119
f 136//136 145//145 141//141
f 111//111 122//122 110//110
f 117//117 112//112 110//110
f 134//134 122//122 120//120
f 131//131 128//128 142//142
f 148//148 131//131 142//142
f 128//128 131//131 118//118
f 156//156 159//159 157//157
f 150//150 138//138 147//147
f 133//133 149//149 136//136
f 158//158 154//154 151//151
f 106//106 114//114 107//107
f 148//148 134//134 131//131
f 123//123 114//114 125//125
f 154//154 142//142 151//151
f 160//160 154//154 158//158
f 121//121 127//127 115//115
f 108//108 111//111 102//102
f 109//109 103//103 107//107
f 127//127 121//121 135//135
f 142//142 139//139 151//151
f 104//104 115//115 108//108
f 161//161 160//160 158//158
f 154//154 148//148 142//142
f 138//138 143//143 126//126
f 145//145 149//149 157//157
f 105//105 112//112 113//113
f 156//156 150//150 147//147
f 112//112 105//105 110//110
f 135//135 137//137 146//146
f 123//123 136//136 130//130
f 145//145 159//159 152//152
f 144//144 139//139 135//135
f 149//149 150//150 157//157
f 114//114 116//116 107//107
f 144//144 155//155 151//151
f 123//123 133//133 136//136
f 116//116 119//119 107//107
f 161//161 155//155 152//152
f 149//149 133//133 143//143
f 109//109 104//104 103//103
f 138//138 150//150 143//143
f 133//133 123//123 125//125
f 148//148 154//154 153//153
f 134//134 148//148 140//140
f 132//132 138//138 124//124
f 104//104 108//108 102//102
f 122//122 134//134 129//129
f 137//137 119//119 130//130
f 111//111 110//110 102//102
f 125//125 114//114 113//113
f 144//144 135//135 146//146
f 139//139 144//144 151//151
f 138//138 132//132 147//147
f 103//103 104//104 102//102
f 130//130 136//136 141//141
f 141//141 145//145 152//152
f 137//137 121//121 119//119
f 154//154 160//160 153//153
f 122//122 111//111 120//120
f 112//112 126//126 113//113
f 150//150 156//156 157//157
f 117//117 122//122 129//129
f 115//115 104//104 109//109
f 119//119 109//109 107//107
f 105//105 106//106 103//103
f 119//119 116//116 130//130
f 147//147 132//132 140//140
f 121//121 137//137 135//135
f 105//105 103//103 102//102
f 143//143 133//133 125//125
f 159//159 145//145 157//157
f 114//114 106//106 113//113
f 120//120 108//108 118//118
f 137//137 141//141 146//146
f 155//155 144//144 146//146
f 126//126 143//143 125//125
f 155//155 161//161 158//158
f 117//117 132//132 124//124


## Object floor
v   1.0000 0.0000 -1.0400
v  -0.9900 0.0000 -1.0400
v  -1.0100 0.0000  0.9900
v   1.0000 0.0000  0.9900
# 4 vertices

vn 0.0000 1.0000 -0.0000
# 1 vertex normals

g floor
usemtl floor

s 1
f 162//162 163//162 164//162 
f 164//162 165//162 162//162 
# 2 faces

## Object ceiling 
v   1.0000 1.5900 -1.0400
v   1.0000 1.5900  0.9900
v  -1.0200 1.5900  0.9900
v  -1.0200 1.5900 -1.0400
# 4 vertices

vn 0.0000 -1.0000 -0.0000
# 1 vertex normals

g ceiling
usemtl ceiling

s 1
f 166//163 167//163 168//163 
f 168//163 169//163 166//163 
# 2 faces

## Object backwall 
v   1.0000 1.5900 -1.0400
v  -1.0200 1.5900 -1.0400
v  -0.9900 0.0000 -1.0400
v   1.0000 0.0000 -1.0400
# 4 vertices

vn 0.0000 0.0000 1.0000
# 1 vertex normals

g backWall
usemtl backWall

s 1
f 170//164 171//164 172//164 
f 172//164 173//164 170//164 
# 2 faces

## Object rightwall 
v  1.0000 1.5900 0.9900
v  1.0000 1.5900 -1.0400
v  1.0000 0.0000 -1.0400
v  1.0000 0.0000 0.9900
# 4 vertices

vn -1.0000 0.0000 -0.0000
# 1 vertex normals

g rightWall
usemtl rightWall

s 1
f 174//165 175//165 176//165 
f 176//165 177//165 174//165 
# 2 faces

## Object leftWall 
v  -1.0200 1.5900 -1.0400
v  -1.0200 1.5900 0.9900
v  -1.0100 0.0000 0.9900
v  -0.9900 0.0000 -1.0400
# 4 vertices

vn 0.9999 0.0135 0.0057
vn 1.0000 0.0063 -0.0000
vn 0.9999 0.0116 0.0042
vn 0.9998 0.0189 0.0098
# 4 vertex normals

g leftWall
usemtl leftWall

s 1
f 178//166 179//167 180//168 
f 180//168 181//169 178//166 
# 2 faces

## Object light
v  0.2300 1.5800 -0.2200
v  0.2300 1.5800 0.1600
v  -0.2400 1.5800 0.1600
v  -0.2400 1.5800 -0.2200
# 4 vertices

vn 0.0000 -1.0000 -0.0000
# 1 vertex normals

g light
usemtl light

s 1
f 182//170 183//170 184//170 
f 184//170 185//170 182//170 
# 2 faces
