mtllib CornellBox-Sphere.mtl

## Object leftSphere

v 6.97374e-06 0.713676 -6.03727e-07
vn 0.86779 -0.496931 -1.0478e-06
v -0.0344408 0.804873 -2.13546e-07
vn 0.922271 -0.386545 -4.23034e-07
v -0.0238016 0.741101 0.0711294
vn 0.871083 -0.473588 0.130113
v -0.0254988 0.748306 -0.0708167
vn 0.875833 -0.464576 -0.130713
v -0.0731608 0.815158 -0.0815885
vn 0.903852 -0.391412 -0.172768
v -0.107976 0.868862 -0.001146
vn 0.948343 -0.317234 -0.00277228
v -0.033936 0.641961 0.0552714
vn 0.789528 -0.60653 0.0936316
v -0.0728809 0.813596 0.0831433
vn 0.902272 -0.393772 0.175637
v -0.0353347 0.648744 -0.0656265
vn 0.792707 -0.599234 -0.111957
v -0.0894447 0.72342 -0.142366
vn 0.797051 -0.536953 -0.276389
v -0.0812013 0.577375 -0.00870415
vn 0.703809 -0.710239 -0.0146277
v -0.0855747 0.707985 0.139763
vn 0.788054 -0.555283 0.265767
v -0.12039 0.600235 -0.116652
vn 0.673674 -0.709442 -0.207016
v -0.116846 0.587727 0.0996892
vn 0.670331 -0.721276 0.174407
v -0.162791 0.841023 -0.133642
vn 0.851463 -0.401422 -0.337449
v -0.165828 0.8385 0.137867
vn 0.844019 -0.4079 0.34821
v -0.169763 0.526132 -0.00816183
vn 0.571696 -0.820344 -0.0141295
v -0.187413 0.694713 -0.194209
vn 0.653742 -0.638475 -0.406167
v -0.221872 0.543044 0.118556
vn 0.507605 -0.833978 0.216374
v -0.204545 0.915157 -0.00956615
vn 0.96069 -0.275874 -0.031105
v -0.17753 0.664082 0.184525
vn 0.643811 -0.670661 0.368403
v -0.266288 0.794478 -0.205751
vn 0.626426 -0.550869 -0.551483
v -0.271271 0.901939 -0.11834
vn 0.830031 -0.355851 -0.42944
v -0.320873 0.947157 -0.00253959
vn 0.959047 -0.282921 -0.013597
v -0.26042 0.912355 0.0932261
vn 0.882078 -0.322687 0.343237
v -0.244834 0.75203 0.211573
vn 0.616404 -0.599021 0.511097
v -0.276685 0.85252 0.175414
vn 0.697894 -0.460897 0.548195
v -0.351832 0.78213 0.228835
vn 0.424575 -0.624307 0.655727
v -0.299658 0.630636 0.213539
vn 0.425044 -0.783639 0.453043
v -0.304236 0.666563 -0.225199
vn 0.437502 -0.745182 -0.503285
v -0.277961 0.489849 -0.00213388
vn 0.399076 -0.91691 -0.00383528
v -0.241134 0.553426 -0.14168
vn 0.483618 -0.834298 -0.26469
v -0.385596 0.933676 -0.104228
vn 0.679456 -0.393901 -0.619017
v -0.375673 0.911067 0.140436
vn 0.59894 -0.428431 0.676549
v -0.354219 0.566034 -0.188223
vn 0.294518 -0.876732 -0.380263
v -0.389553 0.765275 -0.23833
vn 0.313527 -0.666318 -0.676551
v -0.349084 0.86246 -0.186255
vn 0.546053 -0.497655 -0.673918
v -0.335952 0.508195 0.116182
vn 0.308766 -0.925659 0.218675
v -0.343989 0.500082 -0.103105
vn 0.292293 -0.936616 -0.193172
v -0.435869 0.96114 0.016623
vn 0.834968 -0.505952 0.216428
v -0.451136 0.867463 -0.19561
vn 0.202517 -0.549305 -0.81071
v -0.402717 0.566526 0.196245
vn 0.200307 -0.892527 0.40407
v -0.499086 0.926021 0.131993
vn 0.00603938 -0.48891 0.872313
v -0.462005 0.51646 -0.150593
vn 0.0748123 -0.952092 -0.296519
v -0.434012 0.641087 -0.23705
vn 0.151639 -0.824781 -0.54474
v -0.464095 0.827706 0.221807
vn 0.126808 -0.608495 0.78336
v -0.458279 0.49332 0.112179
vn 0.0801361 -0.973217 0.21547
v -0.423063 0.680571 0.244881
vn 0.187752 -0.779511 0.597588
v -0.402804 0.472377 -0.00421559
vn 0.181161 -0.983422 -0.00785733
v -0.500986 0.942769 -0.10017
vn -0.00854462 -0.496064 -0.868244
v -0.535676 0.757509 -0.245671
vn -0.102805 -0.698763 -0.707928
v -0.557286 0.961268 0.0193625
vn -0.797736 -0.539366 0.269633
v -0.527367 0.492609 -0.0049755
vn -0.053856 -0.998501 -0.00979135
v -0.553173 0.606546 -0.22428
vn -0.116607 -0.86284 -0.491843
v -0.587524 0.849776 0.20514
vn -0.325483 -0.558648 0.762871
v -0.558695 0.719936 0.248223
vn -0.154947 -0.73933 0.655272
v -0.515582 0.581585 0.212305
vn -0.0331925 -0.891279 0.452239
v -0.556722 0.882685 -0.182146
vn -0.253268 -0.523825 -0.813303
v -0.608069 0.928132 0.116628
vn -0.619351 -0.411881 0.6684
v -0.62269 0.935187 -0.0984997
vn -0.721009 -0.380887 -0.578853
v -0.618411 0.516337 -0.140834
vn -0.228823 -0.934651 -0.272154
v -0.590773 0.504287 0.123373
vn -0.174955 -0.955431 0.237787
v -0.680996 0.944989 0.0282463
vn -0.946292 -0.287614 0.147679
v -0.640906 0.605778 0.214479
vn -0.299552 -0.838075 0.455959
v -0.687637 0.753786 0.228286
vn -0.487831 -0.640126 0.593515
v -0.706249 0.881038 0.154503
vn -0.726654 -0.419126 0.544342
v -0.655175 0.842241 -0.199993
vn -0.52025 -0.528915 -0.670513
v -0.740559 0.915164 -0.0864054
vn -0.893219 -0.315004 -0.320831
v -0.773074 0.633489 0.193488
vn -0.550193 -0.738451 0.389843
v -0.707173 0.52895 0.132611
vn -0.389857 -0.886419 0.249547
v -0.771031 0.819357 -0.181635
vn -0.72675 -0.48438 -0.487042
v -0.675332 0.484048 0.00939015
vn -0.321704 -0.946684 0.0172293
v -0.74771 0.52389 -0.105345
vn -0.452906 -0.870505 -0.192609
v -0.863188 0.865623 -0.0802401
vn -0.918357 -0.339786 -0.202895
v -0.799214 0.907757 0.0496088
vn -0.943847 -0.290972 0.156487
v -0.811929 0.791153 0.179381
vn -0.749747 -0.50198 0.431156
v -0.819243 0.530255 0.0581076
vn -0.55917 -0.822782 0.101778
v -0.700424 0.671236 -0.225238
vn -0.449301 -0.737006 -0.504927
v -0.899946 0.672567 0.144297
vn -0.745267 -0.610145 0.268886
v -0.855 0.740277 -0.17404
vn -0.750458 -0.549045 -0.367915
v -0.819856 0.615754 -0.165376
vn -0.607404 -0.729681 -0.314048
v -0.861748 0.556622 -0.0716092
vn -0.627281 -0.76883 -0.124172
v -0.920207 0.829827 0.0697657
vn -0.916095 -0.370995 0.152096
v -0.965174 0.768753 -0.0732895
vn -0.886676 -0.440784 -0.139698
v -0.916279 0.641899 -0.118437
vn -0.741053 -0.637485 -0.210839
v -0.947115 0.602293 0.0107422
vn -0.747064 -0.66451 0.0179486
v -0.981574 0.723923 0.0664638
vn -0.861397 -0.493823 0.118885
v -0.194436 0.729878 0.00993651
vn 0.748999 -0.662123 0.0243564
v -0.410339 0.714845 -0.0026513
vn 0.299941 -0.953917 -0.00886929
v -0.834972 0.7005 0.00735488
vn -0.745375 -0.666444 0.016366
v -0.669083 0.781182 -0.104626
vn -0.571877 -0.740091 -0.353867
v -0.761375 0.718084 -0.105421
vn -0.655681 -0.70721 -0.264456
v -0.721509 0.698682 0.125406
vn -0.561573 -0.763908 0.317931
v -0.718085 0.628584 -0.0365991
vn -0.504521 -0.859238 -0.0846687
v -0.70795 0.782833 0.0219176
vn -0.689782 -0.720358 0.0727019
v -0.568427 0.813492 0.0783934
vn -0.320394 -0.873279 0.367058
v -0.582433 0.648243 -0.0513657
vn -0.225892 -0.963929 -0.140759
v -0.620568 0.694267 0.113832
vn -0.346656 -0.879041 0.327287
v -0.780211 0.806498 -0.0692414
vn -0.806365 -0.556841 -0.199256
v -0.564811 0.819589 -0.0737639
vn -0.315535 -0.878334 -0.35912
g leftSphere
usemtl leftSphere

s 1
f 75//75 76//76 66//66
f 77//77 82//82 73//73
f 46//46 43//43 55//55
f 72//72 77//77 73//73
f 43//43 59//59 55//55
f 77//77 86//86 82//82
f 53//53 44//44 49//49
f 8//8 12//12 3//3
f 3//3 12//12 7//7
f 2//2 8//8 3//3
f 74//74 84//84 83//83
f 74//74 68//68 71//71
f 79//79 87//87 86//86
f 2//2 4//4 5//5
f 38//38 47//47 49//49
f 76//76 83//83 79//79
f 50//50 58//58 60//60
f 46//46 34//34 43//43
f 30//30 22//22 18//18
f 75//75 66//66 63//63
f 20//20 25//25 16//16
f 6//6 15//15 20//20
f 52//52 50//50 60//60
f 2//2 3//3 1//1
f 36//36 45//45 51//51
f 66//66 55//55 59//59
f 16//16 26//26 21//21
f 16//16 25//25 27//27
f 50//50 52//52 40//40
f 13//13 10//10 9//9
f 24//24 25//25 20//20
f 44//44 39//39 49//49
f 14//14 19//19 17//17
f 24//24 23//23 33//33
f 31//31 19//19 38//38
f 22//22 15//15 18//18
f 43//43 34//34 40//40
f 31//31 39//39 32//32
f 16//16 8//8 6//6
f 21//21 26//26 29//29
f 57//57 56//56 64//64
f 47//47 62//62 53//53
f 3//3 7//7 1//1
f 29//29 48//48 42//42
f 30//30 45//45 36//36
f 76//76 69//69 65//65
f 28//28 34//34 46//46
f 17//17 11//11 14//14
f 46//46 56//56 48//48
f 84//84 80//80 85//85
f 43//43 52//52 59//59
f 77//77 69//69 79//79
f 56//56 55//55 65//65
f 67//67 51//51 78//78
f 75//75 83//83 76//76
f 17//17 32//32 13//13
f 48//48 28//28 46//46
f 6//6 8//8 2//2
f 79//79 69//69 76//76
f 44//44 45//45 35//35
f 5//5 6//6 2//2
f 16//16 12//12 8//8
f 58//58 41//41 51//51
f 21//21 12//12 16//16
f 48//48 56//56 57//57
f 58//58 51//51 67//67
f 23//23 15//15 22//22
f 27//27 34//34 28//28
f 73//73 81//81 78//78
f 14//14 12//12 21//21
f 10//10 15//15 5//5
f 80//80 84//84 74//74
f 29//29 19//19 21//21
f 70//70 77//77 72//72
f 24//24 34//34 25//25
f 28//28 26//26 27//27
f 49//49 39//39 31//31
f 40//40 33//33 50//50
f 83//83 84//84 87//87
f 5//5 15//15 6//6
f 17//17 19//19 31//31
f 38//38 29//29 42//42
f 49//49 47//47 53//53
f 68//68 67//67 71//71
f 9//9 11//11 13//13
f 42//42 47//47 38//38
f 65//65 66//66 76//76
f 1//1 4//4 2//2
f 85//85 81//81 82//82
f 68//68 60//60 67//67
f 16//16 6//6 20//20
f 79//79 86//86 77//77
f 13//13 11//11 17//17
f 86//86 85//85 82//82
f 39//39 44//44 35//35
f 64//64 56//56 65//65
f 78//78 61//61 73//73
f 79//79 83//83 87//87
f 54//54 61//61 78//78
f 87//87 84//84 86//86
f 73//73 61//61 72//72
f 84//84 85//85 86//86
f 48//48 57//57 42//42
f 59//59 63//63 66//66
f 25//25 34//34 27//27
f 14//14 11//11 7//7
f 28//28 48//48 29//29
f 29//29 26//26 28//28
f 51//51 54//54 78//78
f 70//70 62//62 64//64
f 20//20 23//23 24//24
f 54//54 45//45 44//44
f 32//32 30//30 18//18
f 74//74 75//75 68//68
f 71//71 80//80 74//74
f 65//65 55//55 66//66
f 74//74 83//83 75//75
f 56//56 46//46 55//55
f 53//53 72//72 61//61
f 71//71 78//78 80//80
f 62//62 47//47 57//57
f 71//71 67//67 78//78
f 58//58 67//67 60//60
f 80//80 81//81 85//85
f 13//13 18//18 10//10
f 59//59 52//52 63//63
f 21//21 19//19 14//14
f 44//44 53//53 61//61
f 9//9 4//4 1//1
f 77//77 70//70 69//69
f 37//37 23//23 22//22
f 1//1 7//7 9//9
f 5//5 4//4 10//10
f 62//62 57//57 64//64
f 80//80 78//78 81//81
f 33//33 23//23 37//37
f 40//40 34//34 24//24
f 32//32 18//18 13//13
f 50//50 41//41 58//58
f 75//75 63//63 68//68
f 37//37 41//41 33//33
f 10//10 4//4 9//9
f 7//7 11//11 9//9
f 63//63 52//52 60//60
f 57//57 47//47 42//42
f 49//49 31//31 38//38
f 35//35 32//32 39//39
f 31//31 32//32 17//17
f 73//73 82//82 81//81
f 30//30 32//32 35//35
f 20//20 15//15 23//23
f 27//27 26//26 16//16
f 35//35 45//45 30//30
f 36//36 37//37 22//22
f 7//7 12//12 14//14
f 36//36 41//41 37//37
f 18//18 15//15 10//10
f 70//70 64//64 69//69
f 33//33 41//41 50//50
f 54//54 44//44 61//61
f 24//24 33//33 40//40
f 51//51 45//45 54//54
f 40//40 52//52 43//43
f 38//38 19//19 29//29
f 51//51 41//41 36//36
f 72//72 62//62 70//70
f 22//22 30//30 36//36
f 53//53 62//62 72//72
f 69//69 64//64 65//65
f 63//63 60//60 68//68

## Object rightSphere

v -0.5875 0.25 0
vn 0 0 0
v -0.3375 0.25 0
vn 1 0 0
v -0.363893 0.361804 0
vn 0.894427 0.447214 0
v -0.356335 0.298578 0.0818727
vn 0.924658 0.194311 0.327491
v -0.365269 0.304668 -0.100621
vn 0.888925 0.218673 -0.402486
v -0.403472 0.399769 -0.078758
vn 0.736112 0.599077 -0.315032
v -0.432693 0.446087 0.00919147
vn 0.61923 0.784348 0.0367659
v -0.363941 0.188416 0.0934285
vn 0.894236 -0.246334 0.373714
v -0.410629 0.387968 0.110368
vn 0.707486 0.551874 0.441473
v -0.367473 0.191604 -0.103335
vn 0.880107 -0.233582 -0.413341
v -0.358458 0.149801 -8.75488e-05
vn 0.916168 -0.400795 -0.000350195
v -0.421135 0.251713 -0.186601
vn 0.665458 0.00685229 -0.746404
v -0.444167 0.364414 -0.169897
vn 0.573332 0.457656 -0.67959
v -0.485119 0.455304 -0.0993403
vn 0.409525 0.821214 -0.397361
v -0.409409 0.274129 0.173785
vn 0.712366 0.096514 0.69514
v -0.527304 0.492563 -0.00629535
vn 0.240784 0.970252 -0.0251814
v -0.442748 0.137095 -0.169703
vn 0.579009 -0.45162 -0.678813
v -0.436004 0.146356 0.169726
vn 0.605982 -0.414577 0.678905
v -0.511892 0.464419 0.103961
vn 0.302433 0.857675 0.415846
v -0.414726 0.0800885 0.061474
vn 0.691098 -0.679646 0.245896
v -0.500173 0.374247 0.198587
vn 0.349309 0.496986 0.794347
v -0.413442 0.0814998 -0.0617362
vn 0.696233 -0.674001 -0.246945
v -0.596483 0.483348 -0.0892645
vn -0.035932 0.933391 -0.357058
v -0.502895 0.196054 -0.22898
vn 0.338418 -0.215782 -0.915921
v -0.54919 0.415044 -0.183828
vn 0.153241 0.660177 -0.735312
v -0.518203 0.302872 -0.234313
vn 0.277186 0.211488 -0.937252
v -0.506754 0.236186 0.236198
vn 0.322982 -0.0552575 0.944791
v -0.533178 0.122009 0.207768
vn 0.21729 -0.511964 0.83107
v -0.500781 0.048265 -0.119511
vn 0.346876 -0.80694 -0.478043
v -0.627208 0.494429 0.0343175
vn -0.158833 0.977716 0.13727
v -0.514707 0.0432995 0.120316
vn 0.291174 -0.826802 0.481264
v -0.556411 0.102098 -0.199144
vn 0.124357 -0.591609 -0.796576
v -0.652097 0.431072 -0.159813
vn -0.258388 0.724289 -0.639251
v -0.502034 0.0151782 -0.0073646
vn 0.341866 -0.939287 -0.0294584
v -0.606661 0.322435 0.238508
vn -0.0766425 0.289742 0.954031
v -0.709291 0.458556 -0.0645855
vn -0.487165 0.834224 -0.258342
v -0.620815 0.440442 0.158499
vn -0.133259 0.761769 0.633996
v -0.609796 0.20734 -0.245322
vn -0.0891821 -0.170641 -0.981289
v -0.615078 0.185665 0.240001
vn -0.11031 -0.257341 0.960004
v -0.604107 0.0208233 -0.0985003
vn -0.0664263 -0.916707 -0.394001
v -0.738032 0.440036 0.0610438
vn -0.602127 0.760145 0.244175
v -0.625648 0.0683658 0.167492
vn -0.152591 -0.726537 0.66997
v -0.639455 0.335107 -0.229254
vn -0.207822 0.340429 -0.917016
v -0.70028 0.256923 0.223008
vn -0.451122 0.0276906 0.892033
v -0.798255 0.376885 -0.044525
vn -0.843022 0.507538 -0.1781
v -0.728947 0.364011 0.171739
vn -0.565787 0.456045 0.686955
v -0.682286 0.105617 -0.180746
vn -0.379144 -0.577531 -0.722985
v -0.618059 0.00569375 0.0433655
vn -0.122236 -0.977225 0.173462
v -0.740168 0.370642 -0.156965
vn -0.610673 0.482569 -0.627859
v -0.725921 0.239512 -0.207917
vn -0.553685 -0.0419533 -0.831669
v -0.716083 0.147342 0.188223
vn -0.514331 -0.410633 0.752891
v -0.811335 0.338188 0.0679763
vn -0.89534 0.352752 0.271905
v -0.726307 0.0495782 -0.0553525
vn -0.555226 -0.801687 -0.22141
v -0.728081 0.0603012 0.082167
vn -0.562323 -0.758795 0.328668
v -0.781603 0.249774 0.157556
vn -0.776413 -0.000904782 0.630224
v -0.790415 0.161365 -0.116058
vn -0.811658 -0.354539 -0.464234
v -0.800165 0.278246 -0.128358
vn -0.85066 0.112984 -0.513432
v -0.788956 0.146983 0.106315
vn -0.805824 -0.412069 0.42526
v -0.835034 0.250792 -0.035022
vn -0.990134 0.00316965 -0.140088
v -0.805951 0.128435 0.00096488
vn -0.873805 -0.486261 0.00385952
v -0.827736 0.222041 0.063286
vn -0.960943 -0.111836 0.253144
g rightSphere
usemtl rightSphere

s 1
f 160//160 161//161 159//159
f 159//159 161//161 152//152
f 156//156 160//160 159//159
f 134//134 120//120 131//131
f 153//153 156//156 147//147
f 155//155 158//158 151//151
f 139//139 128//128 127//127
f 116//116 123//123 130//130
f 112//112 117//117 124//124
f 150//150 149//149 143//143
f 126//126 112//112 124//124
f 139//139 127//127 135//135
f 152//152 155//155 146//146
f 120//120 111//111 108//108
f 110//110 105//105 102//102
f 132//132 117//117 129//129
f 138//138 126//126 124//124
f 106//106 105//105 113//113
f 127//127 128//128 118//118
f 137//137 130//130 141//141
f 121//121 115//115 109//109
f 141//141 152//152 146//146
f 131//131 120//120 118//118
f 128//128 139//139 142//142
f 149//149 145//145 136//136
f 122//122 117//117 110//110
f 123//123 116//116 114//114
f 153//153 147//147 140//140
f 129//129 134//134 140//140
f 132//132 129//129 140//140
f 108//108 115//115 118//118
f 148//148 153//153 140//140
f 115//115 127//127 118//118
f 103//103 106//106 107//107
f 160//160 156//156 153//153
f 126//126 125//125 113//113
f 121//121 109//109 119//119
f 136//136 145//145 141//141
f 111//111 122//122 110//110
f 117//117 112//112 110//110
f 134//134 122//122 120//120
f 131//131 128//128 142//142
f 148//148 131//131 142//142
f 128//128 131//131 118//118
f 156//156 159//159 157//157
f 150//150 138//138 147//147
f 133//133 149//149 136//136
f 158//158 154//154 151//151
f 106//106 114//114 107//107
f 148//148 134//134 131//131
f 123//123 114//114 125//125
f 154//154 142//142 151//151
f 160//160 154//154 158//158
f 121//121 127//127 115//115
f 108//108 111//111 102//102
f 109//109 103//103 107//107
f 127//127 121//121 135//135
f 142//142 139//139 151//151
f 104//104 115//115 108//108
f 161//161 160//160 158//158
f 154//154 148//148 142//142
f 138//138 143//143 126//126
f 145//145 149//149 157//157
f 105//105 112//112 113//113
f 156//156 150//150 147//147
f 112//112 105//105 110//110
f 135//135 137//137 146//146
f 123//123 136//136 130//130
f 145//145 159//159 152//152
f 144//144 139//139 135//135
f 149//149 150//150 157//157
f 114//114 116//116 107//107
f 144//144 155//155 151//151
f 123//123 133//133 136//136
f 116//116 119//119 107//107
f 161//161 155//155 152//152
f 149//149 133//133 143//143
f 109//109 104//104 103//103
f 138//138 150//150 143//143
f 133//133 123//123 125//125
f 148//148 154//154 153//153
f 134//134 148//148 140//140
f 132//132 138//138 124//124
f 104//104 108//108 102//102
f 122//122 134//134 129//129
f 137//137 119//119 130//130
f 111//111 110//110 102//102
f 125//125 114//114 113//113
f 144//144 135//135 146//146
f 139//139 144//144 151//151
f 138//138 132//132 147//147
f 103//103 104//104 102//102
f 130//130 136//136 141//141
f 141//141 145//145 152//152
f 137//137 121//121 119//119
f 154//154 160//160 153//153
f 122//122 111//111 120//120
f 112//112 126//126 113//113
f 150//150 156//156 157//157
f 117//117 122//122 129//129
f 115//115 104//104 109//109
f 119//119 109//109 107//107
f 105//105 106//106 103//103
f 119//119 116//116 130//130
f 147//147 132//132 140//140
f 121//121 137//137 135//135
f 105//105 103//103 102//102
f 143//143 133//133 125//125
f 159//159 145//145 157//157
f 114//114 106//106 113//113
f 120//120 108//108 118//118
f 137//137 141//141 146//146
f 155//155 144//144 146//146
f 126//126 143//143 125//125
f 155//155 161//161 158//158
f 117//117 132//132 124//124


## Object floor
v   1.0000 0.0000 -1.0400
v  -0.9900 0.0000 -1.0400
v  -1.0100 0.0000  0.9900
v   1.0000 0.0000  0.9900
# 4 vertices

vn 0.0000 1.0000 -0.0000
# 1 vertex normals

g floor
usemtl floor

s 1
f 162//162 163//162 164//162 
f 164//162 165//162 162//162 
# 2 faces

## Object ceiling 
v   1.0000 1.5900 -1.0400
v   1.0000 1.5900  0.9900
v  -1.0200 1.5900  0.9900
v  -1.0200 1.5900 -1.0400
# 4 vertices

vn 0.0000 -1.0000 -0.0000
# 1 vertex normals

g ceiling
usemtl ceiling

s 1
f 166//163 167//163 168//163 
f 168//163 169//163 166//163 
# 2 faces

## Object backwall 
v   1.0000 1.5900 -1.0400
v  -1.0200 1.5900 -1.0400
v  -0.9900 0.0000 -1.0400
v   1.0000 0.0000 -1.0400
# 4 vertices

vn 0.0000 0.0000 1.0000
# 1 vertex normals

g backWall
usemtl backWall

s 1
f 170//164 171//164 172//164 
f 172//164 173//164 170//164 
# 2 faces

## Object rightwall 
v  1.0000 1.5900 0.9900
v  1.0000 1.5900 -1.0400
v  1.0000 0.0000 -1.0400
v  1.0000 0.0000 0.9900
# 4 vertices

vn -1.0000 0.0000 -0.0000
# 1 vertex normals

g rightWall
usemtl rightWall

s 1
f 174//165 175//165 176//165 
f 176//165 177//165 174//165 
# 2 faces

## Object leftWall 
v  -1.0200 1.5900 -1.0400
v  -1.0200 1.5900 0.9900
v  -1.0100 0.0000 0.9900
v  -0.9900 0.0000 -1.0400
# 4 vertices

vn 0.9999 0.0135 0.0057
vn 1.0000 0.0063 -0.0000
vn 0.9999 0.0116 0.0042
vn 0.9998 0.0189 0.0098
# 4 vertex normals

g leftWall
usemtl leftWall

s 1
f 178//166 179//167 180//168 
f 180//168 181//169 178//166 
# 2 faces

## Object light
v  0.2300 1.5800 -0.2200
v  0.2300 1.5800 0.1600
v  -0.2400 1.5800 0.1600
v  -0.2400 1.5800 -0.2200
# 4 vertices

vn 0.0000 -1.0000 -0.0000
# 1 vertex normals

g light
usemtl light

s 1
f 182//170 183//170 184//170 
f 184//170 185//170 182//170 
# 2 faces
