mtllib CornellBox-Sphere.mtl

## Object leftSphere

v 7.69496e-05 0.696803 -2.60316e-06
vn 0.855107 -0.518452 -4.45128e-06
v -0.0343525 0.788039 -1.01597e-06
vn 0.910143 -0.414294 -1.9858e-06
v -0.0237189 0.724241 0.0711554
vn 0.858269 -0.496924 0.128224
v -0.0254306 0.731447 -0.0708393
vn 0.86306 -0.488395 -0.12883
v -0.0730842 0.798324 -0.081615
vn 0.890973 -0.420897 -0.17033
v -0.107876 0.852061 -0.0011456
vn 0.935624 -0.352988 -0.00273344
v -0.033854 0.625087 0.055288
vn 0.775932 -0.624068 0.0920306
v -0.0727852 0.796771 0.0831794
vn 0.889387 -0.423089 0.173165
v -0.0352562 0.631879 -0.0656393
vn 0.779122 -0.617139 -0.110041
v -0.0893616 0.706575 -0.142392
vn 0.78306 -0.559542 -0.271531
v -0.0810638 0.560526 -0.00870467
vn 0.68992 -0.723743 -0.0143352
v -0.0854789 0.69113 0.13981
vn 0.774062 -0.576773 0.261076
v -0.120202 0.583412 -0.116684
vn 0.659738 -0.723645 -0.202689
v -0.116693 0.570873 0.0997227
vn 0.656383 -0.734847 0.170767
v -0.162693 0.824207 -0.133687
vn 0.836623 -0.43602 -0.331584
v -0.165707 0.821701 0.137928
vn 0.829109 -0.442215 0.342088
v -0.169489 0.509373 -0.00817452
vn 0.558651 -0.829288 -0.0138171
v -0.187223 0.677954 -0.194289
vn 0.639398 -0.658346 -0.397178
v -0.221548 0.526316 0.118613
vn 0.495358 -0.842672 0.211009
v -0.204407 0.898408 -0.00957351
vn 0.945261 -0.324876 -0.0306146
v -0.177356 0.647256 0.184616
vn 0.629604 -0.688341 0.360257
v -0.266135 0.777745 -0.205895
vn 0.611043 -0.580708 -0.537963
v -0.271112 0.885254 -0.118474
vn 0.81131 -0.406728 -0.419939
v -0.320685 0.93064 -0.00252171
vn 0.932579 -0.360729 -0.0131149
v -0.260266 0.895648 0.0933053
vn 0.863562 -0.375894 0.336101
v -0.244653 0.735278 0.21172
vn 0.601683 -0.623774 0.498883
v -0.276523 0.835794 0.175551
vn 0.680891 -0.500303 0.534869
v -0.351635 0.765492 0.229124
vn 0.412279 -0.651652 0.636691
v -0.299305 0.613998 0.213819
vn 0.414006 -0.796271 0.44108
v -0.303834 0.650178 -0.225409
vn 0.426381 -0.760365 -0.489943
v -0.277478 0.473747 -0.0022066
vn 0.389453 -0.921038 -0.00386194
v -0.240628 0.536893 -0.141814
vn 0.472091 -0.842914 -0.258119
v -0.385483 0.917156 -0.104329
vn 0.651869 -0.471573 -0.593874
v -0.37551 0.894555 0.140661
vn 0.577917 -0.489505 0.652991
v -0.353131 0.550577 -0.189142
vn 0.288407 -0.882536 -0.371419
v -0.389269 0.748912 -0.238484
vn 0.304569 -0.690623 -0.655956
v -0.348945 0.845846 -0.186382
vn 0.52971 -0.540576 -0.653594
v -0.335459 0.492315 0.116447
vn 0.301225 -0.929418 0.213179
v -0.343355 0.485016 -0.103824
vn 0.285744 -0.939405 -0.189389
v -0.435821 0.944659 0.0166813
vn 0.74307 -0.640738 0.193137
v -0.451048 0.850844 -0.195725
vn 0.195104 -0.594477 -0.780084
v -0.402047 0.55075 0.196926
vn 0.195827 -0.898141 0.393695
v -0.499094 0.909349 0.132144
vn 0.00565287 -0.565683 0.824603
v -0.460942 0.503977 -0.152113
vn 0.075069 -0.953357 -0.292361
v -0.433617 0.625634 -0.237842
vn 0.148021 -0.834763 -0.53034
v -0.464021 0.811084 0.222011
vn 0.122492 -0.64318 0.755854
v -0.457872 0.480171 0.112124
vn 0.0789735 -0.974466 0.210186
v -0.422681 0.664417 0.245385
vn 0.18285 -0.793609 0.580302
v -0.402663 0.460001 -0.00480495
vn 0.177388 -0.984102 -0.00875661
v -0.500946 0.926238 -0.100257
vn -0.00759679 -0.5926 -0.805461
v -0.535561 0.741373 -0.246269
vn -0.0990874 -0.720634 -0.686199
v -0.557352 0.94454 0.0194304
vn -0.698447 -0.675409 0.23663
v -0.523103 0.491508 -0.00520399
vn -0.0453857 -0.998917 -0.0102231
v -0.553446 0.591203 -0.224733
vn -0.113824 -0.870616 -0.478614
v -0.587387 0.833136 0.205432
vn -0.313534 -0.59869 0.737067
v -0.558848 0.703737 0.248517
vn -0.150451 -0.757422 0.635356
v -0.515006 0.566746 0.213661
vn -0.0310488 -0.896437 0.442082
v -0.556721 0.86636 -0.182411
vn -0.243299 -0.573237 -0.782435
v -0.608076 0.911458 0.116801
vn -0.59348 -0.486211 0.641389
v -0.62273 0.918798 -0.0985888
vn -0.69287 -0.458421 -0.55658
v -0.616947 0.501653 -0.139897
vn -0.220381 -0.939112 -0.263629
v -0.589434 0.49251 0.123434
vn -0.16878 -0.957732 0.232943
v -0.681022 0.928097 0.0283489
vn -0.919679 -0.365304 0.144026
v -0.641053 0.59027 0.215222
vn -0.291532 -0.84684 0.444827
v -0.687906 0.737415 0.228527
vn -0.475014 -0.663796 0.5777
v -0.706358 0.864396 0.154621
vn -0.708304 -0.465447 0.530721
v -0.655427 0.825863 -0.200325
vn -0.505307 -0.566133 -0.651274
v -0.740825 0.898657 -0.0864668
vn -0.875042 -0.368231 -0.314179
v -0.773381 0.617002 0.193778
vn -0.537204 -0.752607 0.380782
v -0.707077 0.514998 0.134126
vn -0.380553 -0.891304 0.246488
v -0.771341 0.802662 -0.181881
vn -0.710988 -0.517078 -0.476577
v -0.676379 0.483491 0.0090774
vn -0.323116 -0.946213 0.0166293
v -0.74752 0.507797 -0.105344
vn -0.441278 -0.877498 -0.187807
v -0.863315 0.848811 -0.0802449
vn -0.904634 -0.376452 -0.199805
v -0.799394 0.891042 0.0496516
vn -0.928498 -0.337906 0.153982
v -0.812055 0.774365 0.179452
vn -0.734517 -0.531101 0.422394
v -0.819523 0.513597 0.0582543
vn -0.546312 -0.831639 0.0996016
v -0.700791 0.654249 -0.225648
vn -0.437352 -0.753098 -0.491494
v -0.900058 0.655697 0.144317
vn -0.731112 -0.629218 0.263742
v -0.855195 0.723463 -0.174116
vn -0.735924 -0.572954 -0.360749
v -0.820096 0.5988 -0.165592
vn -0.593541 -0.743928 -0.307051
v -0.861718 0.539507 -0.0716006
vn -0.613152 -0.780586 -0.121371
v -0.920291 0.812986 0.069788
vn -0.9033 -0.401935 0.14999
v -0.965264 0.751891 -0.0733053
vn -0.873973 -0.466058 -0.1377
v -0.916344 0.624966 -0.118451
vn -0.726942 -0.654815 -0.206816
v -0.947143 0.585366 0.0107463
vn -0.733146 -0.679843 0.0176199
v -0.981644 0.707043 0.0664801
vn -0.84849 -0.51609 0.117115
v -0.194206 0.713128 0.00997993
vn 0.729105 -0.683988 0.0237951
v -0.409695 0.699096 -0.00247322
vn 0.287437 -0.957767 -0.00787218
v -0.835233 0.683684 0.00732165
vn -0.727238 -0.686201 0.0158832
v -0.669542 0.765261 -0.104954
vn -0.550468 -0.762146 -0.340762
v -0.76183 0.701759 -0.105761
vn -0.637495 -0.726149 -0.257503
v -0.721762 0.6824 0.125591
vn -0.544587 -0.779938 0.308417
v -0.719216 0.613975 -0.0371531
vn -0.49209 -0.86654 -0.0834002
v -0.708329 0.766481 0.0220027
vn -0.664074 -0.74437 0.0701362
v -0.568205 0.797049 0.0786443
vn -0.299025 -0.889777 0.344792
v -0.58287 0.635022 -0.0519278
vn -0.219319 -0.965926 -0.137429
v -0.620972 0.678877 0.113972
vn -0.334562 -0.888097 0.315202
v -0.780451 0.789847 -0.0692847
vn -0.785059 -0.588275 -0.193947
v -0.564727 0.803726 -0.0739105
vn -0.294899 -0.894228 -0.336737
g leftSphere
usemtl leftSphere

s 1
f 75//75 76//76 66//66
f 77//77 82//82 73//73
f 46//46 43//43 55//55
f 72//72 77//77 73//73
f 43//43 59//59 55//55
f 77//77 86//86 82//82
f 53//53 44//44 49//49
f 8//8 12//12 3//3
f 3//3 12//12 7//7
f 2//2 8//8 3//3
f 74//74 84//84 83//83
f 74//74 68//68 71//71
f 79//79 87//87 86//86
f 2//2 4//4 5//5
f 38//38 47//47 49//49
f 76//76 83//83 79//79
f 50//50 58//58 60//60
f 46//46 34//34 43//43
f 30//30 22//22 18//18
f 75//75 66//66 63//63
f 20//20 25//25 16//16
f 6//6 15//15 20//20
f 52//52 50//50 60//60
f 2//2 3//3 1//1
f 36//36 45//45 51//51
f 66//66 55//55 59//59
f 16//16 26//26 21//21
f 16//16 25//25 27//27
f 50//50 52//52 40//40
f 13//13 10//10 9//9
f 24//24 25//25 20//20
f 44//44 39//39 49//49
f 14//14 19//19 17//17
f 24//24 23//23 33//33
f 31//31 19//19 38//38
f 22//22 15//15 18//18
f 43//43 34//34 40//40
f 31//31 39//39 32//32
f 16//16 8//8 6//6
f 21//21 26//26 29//29
f 57//57 56//56 64//64
f 47//47 62//62 53//53
f 3//3 7//7 1//1
f 29//29 48//48 42//42
f 30//30 45//45 36//36
f 76//76 69//69 65//65
f 28//28 34//34 46//46
f 17//17 11//11 14//14
f 46//46 56//56 48//48
f 84//84 80//80 85//85
f 43//43 52//52 59//59
f 77//77 69//69 79//79
f 56//56 55//55 65//65
f 67//67 51//51 78//78
f 75//75 83//83 76//76
f 17//17 32//32 13//13
f 48//48 28//28 46//46
f 6//6 8//8 2//2
f 79//79 69//69 76//76
f 44//44 45//45 35//35
f 5//5 6//6 2//2
f 16//16 12//12 8//8
f 58//58 41//41 51//51
f 21//21 12//12 16//16
f 48//48 56//56 57//57
f 58//58 51//51 67//67
f 23//23 15//15 22//22
f 27//27 34//34 28//28
f 73//73 81//81 78//78
f 14//14 12//12 21//21
f 10//10 15//15 5//5
f 80//80 84//84 74//74
f 29//29 19//19 21//21
f 70//70 77//77 72//72
f 24//24 34//34 25//25
f 28//28 26//26 27//27
f 49//49 39//39 31//31
f 40//40 33//33 50//50
f 83//83 84//84 87//87
f 5//5 15//15 6//6
f 17//17 19//19 31//31
f 38//38 29//29 42//42
f 49//49 47//47 53//53
f 68//68 67//67 71//71
f 9//9 11//11 13//13
f 42//42 47//47 38//38
f 65//65 66//66 76//76
f 1//1 4//4 2//2
f 85//85 81//81 82//82
f 68//68 60//60 67//67
f 16//16 6//6 20//20
f 79//79 86//86 77//77
f 13//13 11//11 17//17
f 86//86 85//85 82//82
f 39//39 44//44 35//35
f 64//64 56//56 65//65
f 78//78 61//61 73//73
f 79//79 83//83 87//87
f 54//54 61//61 78//78
f 87//87 84//84 86//86
f 73//73 61//61 72//72
f 84//84 85//85 86//86
f 48//48 57//57 42//42
f 59//59 63//63 66//66
f 25//25 34//34 27//27
f 14//14 11//11 7//7
f 28//28 48//48 29//29
f 29//29 26//26 28//28
f 51//51 54//54 78//78
f 70//70 62//62 64//64
f 20//20 23//23 24//24
f 54//54 45//45 44//44
f 32//32 30//30 18//18
f 74//74 75//75 68//68
f 71//71 80//80 74//74
f 65//65 55//55 66//66
f 74//74 83//83 75//75
f 56//56 46//46 55//55
f 53//53 72//72 61//61
f 71//71 78//78 80//80
f 62//62 47//47 57//57
f 71//71 67//67 78//78
f 58//58 67//67 60//60
f 80//80 81//81 85//85
f 13//13 18//18 10//10
f 59//59 52//52 63//63
f 21//21 19//19 14//14
f 44//44 53//53 61//61
f 9//9 4//4 1//1
f 77//77 70//70 69//69
f 37//37 23//23 22//22
f 1//1 7//7 9//9
f 5//5 4//4 10//10
f 62//62 57//57 64//64
f 80//80 78//78 81//81
f 33//33 23//23 37//37
f 40//40 34//34 24//24
f 32//32 18//18 13//13
f 50//50 41//41 58//58
f 75//75 63//63 68//68
f 37//37 41//41 33//33
f 10//10 4//4 9//9
f 7//7 11//11 9//9
f 63//63 52//52 60//60
f 57//57 47//47 42//42
f 49//49 31//31 38//38
f 35//35 32//32 39//39
f 31//31 32//32 17//17
f 73//73 82//82 81//81
f 30//30 32//32 35//35
f 20//20 15//15 23//23
f 27//27 26//26 16//16
f 35//35 45//45 30//30
f 36//36 37//37 22//22
f 7//7 12//12 14//14
f 36//36 41//41 37//37
f 18//18 15//15 10//10
f 70//70 64//64 69//69
f 33//33 41//41 50//50
f 54//54 44//44 61//61
f 24//24 33//33 40//40
f 51//51 45//45 54//54
f 40//40 52//52 43//43
f 38//38 19//19 29//29
f 51//51 41//41 36//36
f 72//72 62//62 70//70
f 22//22 30//30 36//36
f 53//53 62//62 72//72
f 69//69 64//64 65//65
f 63//63 60//60 68//68

## Object rightSphere

v -0.5875 0.25 0
vn 0 0 0
v -0.3375 0.25 0
vn 1 0 0
v -0.363893 0.361804 0
vn 0.894427 0.447214 0
v -0.356335 0.298578 0.0818727
vn 0.924658 0.194311 0.327491
v -0.365269 0.304668 -0.100621
vn 0.888925 0.218673 -0.402486
v -0.403472 0.399769 -0.078758
vn 0.736112 0.599077 -0.315032
v -0.432693 0.446087 0.00919147
vn 0.61923 0.784348 0.0367659
v -0.363941 0.188416 0.0934285
vn 0.894236 -0.246334 0.373714
v -0.410629 0.387968 0.110368
vn 0.707486 0.551874 0.441473
v -0.367473 0.191604 -0.103335
vn 0.880107 -0.233582 -0.413341
v -0.358458 0.149801 -8.75488e-05
vn 0.916168 -0.400795 -0.000350195
v -0.421135 0.251713 -0.186601
vn 0.665458 0.00685229 -0.746404
v -0.444167 0.364414 -0.169897
vn 0.573332 0.457656 -0.67959
v -0.485119 0.455304 -0.0993403
vn 0.409525 0.821214 -0.397361
v -0.409409 0.274129 0.173785
vn 0.712366 0.096514 0.69514
v -0.527304 0.492563 -0.00629535
vn 0.240784 0.970252 -0.0251814
v -0.442748 0.137095 -0.169703
vn 0.579009 -0.45162 -0.678813
v -0.436004 0.146356 0.169726
vn 0.605982 -0.414577 0.678905
v -0.511892 0.464419 0.103961
vn 0.302433 0.857675 0.415846
v -0.414726 0.0800885 0.061474
vn 0.691098 -0.679646 0.245896
v -0.500173 0.374247 0.198587
vn 0.349309 0.496986 0.794347
v -0.413442 0.0814998 -0.0617362
vn 0.696233 -0.674001 -0.246945
v -0.596483 0.483348 -0.0892645
vn -0.035932 0.933391 -0.357058
v -0.502895 0.196054 -0.22898
vn 0.338418 -0.215782 -0.915921
v -0.54919 0.415044 -0.183828
vn 0.153241 0.660177 -0.735312
v -0.518203 0.302872 -0.234313
vn 0.277186 0.211488 -0.937252
v -0.506754 0.236186 0.236198
vn 0.322982 -0.0552575 0.944791
v -0.533178 0.122009 0.207768
vn 0.21729 -0.511964 0.83107
v -0.500781 0.048265 -0.119511
vn 0.346876 -0.80694 -0.478043
v -0.627208 0.494429 0.0343175
vn -0.158833 0.977716 0.13727
v -0.514707 0.0432995 0.120316
vn 0.291174 -0.826802 0.481264
v -0.556411 0.102098 -0.199144
vn 0.124357 -0.591609 -0.796576
v -0.652097 0.431072 -0.159813
vn -0.258388 0.724289 -0.639251
v -0.502034 0.0151782 -0.0073646
vn 0.341866 -0.939287 -0.0294584
v -0.606661 0.322435 0.238508
vn -0.0766425 0.289742 0.954031
v -0.709291 0.458556 -0.0645855
vn -0.487165 0.834224 -0.258342
v -0.620815 0.440442 0.158499
vn -0.133259 0.761769 0.633996
v -0.609796 0.20734 -0.245322
vn -0.0891821 -0.170641 -0.981289
v -0.615078 0.185665 0.240001
vn -0.11031 -0.257341 0.960004
v -0.604107 0.0208233 -0.0985003
vn -0.0664263 -0.916707 -0.394001
v -0.738032 0.440036 0.0610438
vn -0.602127 0.760145 0.244175
v -0.625648 0.0683658 0.167492
vn -0.152591 -0.726537 0.66997
v -0.639455 0.335107 -0.229254
vn -0.207822 0.340429 -0.917016
v -0.70028 0.256923 0.223008
vn -0.451122 0.0276906 0.892033
v -0.798255 0.376885 -0.044525
vn -0.843022 0.507538 -0.1781
v -0.728947 0.364011 0.171739
vn -0.565787 0.456045 0.686955
v -0.682286 0.105617 -0.180746
vn -0.379144 -0.577531 -0.722985
v -0.618059 0.00569375 0.0433655
vn -0.122236 -0.977225 0.173462
v -0.740168 0.370642 -0.156965
vn -0.610673 0.482569 -0.627859
v -0.725921 0.239512 -0.207917
vn -0.553685 -0.0419533 -0.831669
v -0.716083 0.147342 0.188223
vn -0.514331 -0.410633 0.752891
v -0.811335 0.338188 0.0679763
vn -0.89534 0.352752 0.271905
v -0.726307 0.0495782 -0.0553525
vn -0.555226 -0.801687 -0.22141
v -0.728081 0.0603012 0.082167
vn -0.562323 -0.758795 0.328668
v -0.781603 0.249774 0.157556
vn -0.776413 -0.000904782 0.630224
v -0.790415 0.161365 -0.116058
vn -0.811658 -0.354539 -0.464234
v -0.800165 0.278246 -0.128358
vn -0.85066 0.112984 -0.513432
v -0.788956 0.146983 0.106315
vn -0.805824 -0.412069 0.42526
v -0.835034 0.250792 -0.035022
vn -0.990134 0.00316965 -0.140088
v -0.805951 0.128435 0.00096488
vn -0.873805 -0.486261 0.00385952
v -0.827736 0.222041 0.063286
vn -0.960943 -0.111836 0.253144
g rightSphere
usemtl rightSphere

s 1
f 160//160 161//161 159//159
f 159//159 161//161 152//152
f 156//156 160//160 159//159
f 134//134 120//120 131//131
f 153//153 156//156 147//147
f 155//155 158//158 151//151
f 139//139 128//128 127//127
f 116//116 123//123 130//130
f 112//112 117//117 124//124
f 150//150 149//149 143//143
f 126//126 112//112 124//124
f 139//139 127//127 135//135
f 152//152 155//155 146//146
f 120//120 111//111 108//108
f 110//110 105//105 102//102
f 132//132 117//117 129//129
f 138//138 126//126 124//124
f 106//106 105//105 113//113
f 127//127 128//128 118//118
f 137//137 130//130 141//141
f 121//121 115//115 109//109
f 141//141 152//152 146//146
f 131//131 120//120 118//118
f 128//128 139//139 142//142
f 149//149 145//145 136//136
f 122//122 117//117 110//110
f 123//123 116//116 114//114
f 153//153 147//147 140//140
f 129//129 134//134 140//140
f 132//132 129//129 140//140
f 108//108 115//115 118//118
f 148//148 153//153 140//140
f 115//115 127//127 118//118
f 103//103 106//106 107//107
f 160//160 156//156 153//153
f 126//126 125//125 113//113
f 121//121 109//109 119//119
f 136//136 145//145 141//141
f 111//111 122//122 110//110
f 117//117 112//112 110//110
f 134//134 122//122 120//120
f 131//131 128//128 142//142
f 148//148 131//131 142//142
f 128//128 131//131 118//118
f 156//156 159//159 157//157
f 150//150 138//138 147//147
f 133//133 149//149 136//136
f 158//158 154//154 151//151
f 106//106 114//114 107//107
f 148//148 134//134 131//131
f 123//123 114//114 125//125
f 154//154 142//142 151//151
f 160//160 154//154 158//158
f 121//121 127//127 115//115
f 108//108 111//111 102//102
f 109//109 103//103 107//107
f 127//127 121//121 135//135
f 142//142 139//139 151//151
f 104//104 115//115 108//108
f 161//161 160//160 158//158
f 154//154 148//148 142//142
f 138//138 143//143 126//126
f 145//145 149//149 157//157
f 105//105 112//112 113//113
f 156//156 150//150 147//147
f 112//112 105//105 110//110
f 135//135 137//137 146//146
f 123//123 136//136 130//130
f 145//145 159//159 152//152
f 144//144 139//139 135//135
f 149//149 150//150 157//157
f 114//114 116//116 107//107
f 144//144 155//155 151//151
f 123//123 133//133 136//136
f 116//116 119//119 107//107
f 161//161 155//155 152//152
f 149//149 133//133 143//143
f 109//109 104//104 103//103
f 138//138 150//150 143//143
f 133//133 123//123 125//125
f 148//148 154//154 153//153
f 134//134 148//148 140//140
f 132//132 138//138 124//124
f 104//104 108//108 102//102
f 122//122 134//134 129//129
f 137//137 119//119 130//130
f 111//111 110//110 102//102
f 125//125 114//114 113//113
f 144//144 135//135 146//146
f 139//139 144//144 151//151
f 138//138 132//132 147//147
f 103//103 104//104 102//102
f 130//130 136//136 141//141
f 141//141 145//145 152//152
f 137//137 121//121 119//119
f 154//154 160//160 153//153
f 122//122 111//111 120//120
f 112//112 126//126 113//113
f 150//150 156//156 157//157
f 117//117 122//122 129//129
f 115//115 104//104 109//109
f 119//119 109//109 107//107
f 105//105 106//106 103//103
f 119//119 116//116 130//130
f 147//147 132//132 140//140
f 121//121 137//137 135//135
f 105//105 103//103 102//102
f 143//143 133//133 125//125
f 159//159 145//145 157//157
f 114//114 106//106 113//113
f 120//120 108//108 118//118
f 137//137 141//141 146//146
f 155//155 144//144 146//146
f 126//126 143//143 125//125
f 155//155 161//161 158//158
f 117//117 132//132 124//124


## Object floor
v   1.0000 0.0000 -1.0400
v  -0.9900 0.0000 -1.0400
v  -1.0100 0.0000  0.9900
v   1.0000 0.0000  0.9900
# 4 vertices

vn 0.0000 1.0000 -0.0000
# 1 vertex normals

g floor
usemtl floor

s 1
f 162//162 163//162 164//162 
f 164//162 165//162 162//162 
# 2 faces

## Object ceiling 
v   1.0000 1.5900 -1.0400
v   1.0000 1.5900  0.9900
v  -1.0200 1.5900  0.9900
v  -1.0200 1.5900 -1.0400
# 4 vertices

vn 0.0000 -1.0000 -0.0000
# 1 vertex normals

g ceiling
usemtl ceiling

s 1
f 166//163 167//163 168//163 
f 168//163 169//163 166//163 
# 2 faces

## Object backwall 
v   1.0000 1.5900 -1.0400
v  -1.0200 1.5900 -1.0400
v  -0.9900 0.0000 -1.0400
v   1.0000 0.0000 -1.0400
# 4 vertices

vn 0.0000 0.0000 1.0000
# 1 vertex normals

g backWall
usemtl backWall

s 1
f 170//164 171//164 172//164 
f 172//164 173//164 170//164 
# 2 faces

## Object rightwall 
v  1.0000 1.5900 0.9900
v  1.0000 1.5900 -1.0400
v  1.0000 0.0000 -1.0400
v  1.0000 0.0000 0.9900
# 4 vertices

vn -1.0000 0.0000 -0.0000
# 1 vertex normals

g rightWall
usemtl rightWall

s 1
f 174//165 175//165 176//165 
f 176//165 177//165 174//165 
# 2 faces

## Object leftWall 
v  -1.0200 1.5900 -1.0400
v  -1.0200 1.5900 0.9900
v  -1.0100 0.0000 0.9900
v  -0.9900 0.0000 -1.0400
# 4 vertices

vn 0.9999 0.0135 0.0057
vn 1.0000 0.0063 -0.0000
vn 0.9999 0.0116 0.0042
vn 0.9998 0.0189 0.0098
# 4 vertex normals

g leftWall
usemtl leftWall

s 1
f 178//166 179//167 180//168 
f 180//168 181//169 178//166 
# 2 faces

## Object light
v  0.2300 1.5800 -0.2200
v  0.2300 1.5800 0.1600
v  -0.2400 1.5800 0.1600
v  -0.2400 1.5800 -0.2200
# 4 vertices

vn 0.0000 -1.0000 -0.0000
# 1 vertex normals

g light
usemtl light

s 1
f 182//170 183//170 184//170 
f 184//170 185//170 182//170 
# 2 faces
