mtllib CornellBox-Sphere.mtl

## Object leftSphere

v 0.0790464 0.477683 0.0539339
vn 0.740775 -0.668201 0.0689977
v 0.110743 0.561102 0.0142723
vn 0.811916 -0.583466 0.0189734
v 0.101275 0.534062 0.105886
vn 0.782898 -0.606681 0.13787
v 0.0597652 0.495748 -0.0240297
vn 0.742611 -0.668964 -0.031879
v 0.0635212 0.568902 -0.0624319
vn 0.791185 -0.605262 -0.0876546
v 0.0970503 0.65332 -0.0132675
vn 0.864626 -0.502049 -0.0192135
v 0.0274321 0.471946 0.136156
vn 0.695216 -0.696036 0.179469
v 0.114508 0.618985 0.0858193
vn 0.843966 -0.523287 0.117864
v -0.00772095 0.439265 0.0258703
vn 0.659349 -0.751038 0.0346502
v -0.0243478 0.500367 -0.0749308
vn 0.685479 -0.72004 -0.107985
v -0.0672682 0.443254 0.110487
vn 0.606285 -0.780036 0.154799
v 0.0575669 0.576999 0.183211
vn 0.770708 -0.584701 0.253247
v -0.11534 0.449686 0.00561106
vn 0.572883 -0.819594 0.00835668
v -0.0519528 0.509546 0.202459
vn 0.645169 -0.706233 0.291533
v -0.00107491 0.630416 -0.118986
vn 0.78919 -0.5846 -0.188209
v 0.0797058 0.71674 0.125408
vn 0.881971 -0.430956 0.190798
v -0.162856 0.472656 0.137598
vn 0.526088 -0.82288 0.214711
v -0.128899 0.530713 -0.105837
vn 0.61079 -0.772393 -0.174195
v -0.149309 0.562327 0.242269
vn 0.574027 -0.716404 0.396558
v 0.0536973 0.747117 -0.04028
vn 0.907636 -0.414533 -0.0660281
v -0.0221378 0.628439 0.243805
vn 0.732275 -0.569379 0.373606
v -0.1273 0.645241 -0.160874
vn 0.691324 -0.658046 -0.298407
v -0.0367377 0.748253 -0.131728
vn 0.852443 -0.463236 -0.242391
v -0.00829127 0.849559 -0.0493587
vn 0.95187 -0.291229 -0.0955506
v 0.0435822 0.81653 0.052382
vn 0.943561 -0.318472 0.0909258
v -0.00813946 0.740968 0.228534
vn 0.818345 -0.430972 0.38023
v 0.019953 0.815836 0.151625
vn 0.908907 -0.321929 0.265048
v -0.0614465 0.841132 0.22883
vn 0.844104 -0.305781 0.440439
v -0.121912 0.703901 0.284591
vn 0.677302 -0.530429 0.509812
v -0.240558 0.580853 -0.118804
vn 0.511661 -0.826624 -0.2343
v -0.262107 0.526803 0.161365
vn 0.429668 -0.85466 0.291447
v -0.23917 0.493853 0.00856071
vn 0.458026 -0.888812 0.0150329
v -0.0959865 0.849072 -0.136747
vn 0.892957 -0.333584 -0.302241
v -0.0258785 0.911155 0.0927679
vn 0.965205 -0.180868 0.188855
v -0.328699 0.562681 -0.037032
vn 0.363596 -0.928235 -0.0786025
v -0.247101 0.695801 -0.177479
vn 0.583278 -0.701594 -0.409332
v -0.139879 0.750561 -0.17626
vn 0.762642 -0.528247 -0.373272
v -0.254056 0.620088 0.25614
vn 0.472943 -0.730561 0.49255
v -0.335546 0.54411 0.0692786
vn 0.335915 -0.931202 0.141509
v -0.0764889 0.941793 -0.0432264
vn 0.985661 -0.135469 -0.100603
v -0.215063 0.817556 -0.188855
vn 0.735359 -0.470846 -0.487392
v -0.240928 0.731243 0.297931
vn 0.542435 -0.562711 0.623795
v -0.107464 1.00219 0.0728646
vn 0.98319 0.00548102 0.182505
v -0.428151 0.618304 0.023121
vn 0.184659 -0.981004 0.0594237
v -0.356723 0.645774 -0.115647
vn 0.358891 -0.887289 -0.289681
v -0.115487 0.946551 0.198125
vn 0.882225 -0.122632 0.454578
v -0.354215 0.695375 0.260325
vn 0.341895 -0.714409 0.610514
v -0.170279 0.833616 0.286535
vn 0.705373 -0.355945 0.612986
v -0.36543 0.600935 0.171072
vn 0.296042 -0.877909 0.376344
v -0.172732 0.932793 -0.140671
vn 0.902798 -0.185395 -0.388053
v -0.361355 0.785726 -0.181146
vn 0.442998 -0.684649 -0.578799
v -0.162241 1.02482 -0.0450953
vn 0.988585 0.0726488 -0.131989
v -0.464247 0.690476 0.172024
vn 0.100454 -0.869657 0.483328
v -0.459901 0.711234 -0.0896625
vn 0.131467 -0.946733 -0.293962
v -0.194232 1.04113 0.169181
vn 0.868996 0.116881 0.480816
v -0.241523 0.955149 0.267687
vn 0.689631 -0.119666 0.714205
v -0.307815 0.82592 0.302771
vn 0.482108 -0.436691 0.759521
v -0.276892 0.902588 -0.186208
vn 0.727932 -0.317824 -0.607539
v -0.187339 1.07377 0.0545139
vn 0.95956 0.226393 0.167304
v -0.262625 1.01072 -0.138582
vn 0.862943 0.0389625 -0.503797
v -0.536275 0.731995 0.0240686
vn -0.133599 -0.987063 0.0886447
v -0.441096 0.797041 0.263048
vn 0.174568 -0.601492 0.779573
v -0.255608 1.10432 -0.0331938
vn 0.912623 0.389558 -0.123954
v -0.38176 0.930267 0.290741
vn 0.367756 -0.216886 0.904277
v -0.318556 1.06014 0.23244
vn 0.602916 0.199836 0.772371
v -0.274116 1.12641 0.107811
vn 0.805568 0.450813 0.384485
v -0.376695 0.938894 -0.184903
vn 0.534961 -0.265108 -0.802206
v -0.352764 1.08526 -0.121718
vn 0.703823 0.407547 -0.58184
v -0.466627 1.0321 0.256933
vn 0.12783 0.122972 0.984143
v -0.503805 0.89976 0.254362
vn -0.0139163 -0.366605 0.930273
v -0.46486 1.0135 -0.161641
vn 0.211729 0.0813213 -0.973939
v -0.551 0.804099 0.170992
vn -0.192463 -0.739294 0.645292
v -0.610625 0.841077 0.0459889
vn -0.555845 -0.798524 0.231075
v -0.46855 1.14334 -0.096099
vn 0.17929 0.817141 -0.547846
v -0.356771 1.17137 0.000459887
vn 0.641287 0.767299 0.00205907
v -0.399482 1.15249 0.169279
vn 0.40365 0.612355 0.679771
v -0.606933 0.951205 0.18392
vn -0.489908 -0.223554 0.842623
v -0.524164 0.855732 -0.126985
vn -0.124745 -0.744776 -0.655552
v -0.549024 1.12577 0.192073
vn -0.208824 0.535744 0.818151
v -0.57071 1.0269 -0.120666
vn -0.496486 0.18889 -0.847244
v -0.622707 0.927545 -0.0537689
vn -0.805648 -0.475713 -0.353026
v -0.660912 0.95205 0.0549906
vn -0.910754 -0.271393 0.311244
v -0.487687 1.21254 0.0524437
vn 0.0561568 0.969348 0.239186
v -0.600661 1.15668 -0.0477951
vn -0.523547 0.814925 -0.248586
v -0.659962 1.02766 -0.0281304
vn -0.97091 0.167872 -0.170741
v -0.668328 1.06782 0.10432
vn -0.804151 0.323994 0.498367
v -0.599474 1.18726 0.0971537
vn -0.426484 0.802876 0.416535
v -0.0483019 0.62585 0.0591967
vn 0.766224 -0.634679 0.100416
v -0.218938 0.760206 0.052201
vn 0.753265 -0.642666 0.139902
v -0.526971 1.05073 0.0593081
vn -0.326638 0.614332 0.718264
v -0.394014 0.944824 -0.0723336
vn 0.758796 -0.395024 -0.517866
v -0.498148 0.970896 -0.0462293
vn 0.0338849 -0.532467 -0.845772
v -0.410137 1.0132 0.167021
vn 0.472665 0.0694105 0.878505
v -0.501962 0.909129 0.0582011
vn -0.0181752 -0.841948 0.539252
v -0.379314 1.01994 0.0365853
vn 0.945249 0.156193 0.286546
v -0.244212 0.96103 0.0744464
vn 0.950049 -0.144741 0.276509
v -0.399789 0.818319 0.041583
vn 0.473564 -0.858558 0.196507
v -0.345097 0.935287 0.16115
vn 0.66566 -0.278089 0.692505
v -0.44394 1.05214 -0.0565523
vn 0.58899 0.547784 -0.594157
v -0.287249 0.906827 -0.061002
vn 0.885959 -0.388001 -0.25403
g leftSphere
usemtl leftSphere

s 1
f 75//75 76//76 66//66
f 77//77 82//82 73//73
f 46//46 43//43 55//55
f 72//72 77//77 73//73
f 43//43 59//59 55//55
f 77//77 86//86 82//82
f 53//53 44//44 49//49
f 8//8 12//12 3//3
f 3//3 12//12 7//7
f 2//2 8//8 3//3
f 74//74 84//84 83//83
f 74//74 68//68 71//71
f 79//79 87//87 86//86
f 2//2 4//4 5//5
f 38//38 47//47 49//49
f 76//76 83//83 79//79
f 50//50 58//58 60//60
f 46//46 34//34 43//43
f 30//30 22//22 18//18
f 75//75 66//66 63//63
f 20//20 25//25 16//16
f 6//6 15//15 20//20
f 52//52 50//50 60//60
f 2//2 3//3 1//1
f 36//36 45//45 51//51
f 66//66 55//55 59//59
f 16//16 26//26 21//21
f 16//16 25//25 27//27
f 50//50 52//52 40//40
f 13//13 10//10 9//9
f 24//24 25//25 20//20
f 44//44 39//39 49//49
f 14//14 19//19 17//17
f 24//24 23//23 33//33
f 31//31 19//19 38//38
f 22//22 15//15 18//18
f 43//43 34//34 40//40
f 31//31 39//39 32//32
f 16//16 8//8 6//6
f 21//21 26//26 29//29
f 57//57 56//56 64//64
f 47//47 62//62 53//53
f 3//3 7//7 1//1
f 29//29 48//48 42//42
f 30//30 45//45 36//36
f 76//76 69//69 65//65
f 28//28 34//34 46//46
f 17//17 11//11 14//14
f 46//46 56//56 48//48
f 84//84 80//80 85//85
f 43//43 52//52 59//59
f 77//77 69//69 79//79
f 56//56 55//55 65//65
f 67//67 51//51 78//78
f 75//75 83//83 76//76
f 17//17 32//32 13//13
f 48//48 28//28 46//46
f 6//6 8//8 2//2
f 79//79 69//69 76//76
f 44//44 45//45 35//35
f 5//5 6//6 2//2
f 16//16 12//12 8//8
f 58//58 41//41 51//51
f 21//21 12//12 16//16
f 48//48 56//56 57//57
f 58//58 51//51 67//67
f 23//23 15//15 22//22
f 27//27 34//34 28//28
f 73//73 81//81 78//78
f 14//14 12//12 21//21
f 10//10 15//15 5//5
f 80//80 84//84 74//74
f 29//29 19//19 21//21
f 70//70 77//77 72//72
f 24//24 34//34 25//25
f 28//28 26//26 27//27
f 49//49 39//39 31//31
f 40//40 33//33 50//50
f 83//83 84//84 87//87
f 5//5 15//15 6//6
f 17//17 19//19 31//31
f 38//38 29//29 42//42
f 49//49 47//47 53//53
f 68//68 67//67 71//71
f 9//9 11//11 13//13
f 42//42 47//47 38//38
f 65//65 66//66 76//76
f 1//1 4//4 2//2
f 85//85 81//81 82//82
f 68//68 60//60 67//67
f 16//16 6//6 20//20
f 79//79 86//86 77//77
f 13//13 11//11 17//17
f 86//86 85//85 82//82
f 39//39 44//44 35//35
f 64//64 56//56 65//65
f 78//78 61//61 73//73
f 79//79 83//83 87//87
f 54//54 61//61 78//78
f 87//87 84//84 86//86
f 73//73 61//61 72//72
f 84//84 85//85 86//86
f 48//48 57//57 42//42
f 59//59 63//63 66//66
f 25//25 34//34 27//27
f 14//14 11//11 7//7
f 28//28 48//48 29//29
f 29//29 26//26 28//28
f 51//51 54//54 78//78
f 70//70 62//62 64//64
f 20//20 23//23 24//24
f 54//54 45//45 44//44
f 32//32 30//30 18//18
f 74//74 75//75 68//68
f 71//71 80//80 74//74
f 65//65 55//55 66//66
f 74//74 83//83 75//75
f 56//56 46//46 55//55
f 53//53 72//72 61//61
f 71//71 78//78 80//80
f 62//62 47//47 57//57
f 71//71 67//67 78//78
f 58//58 67//67 60//60
f 80//80 81//81 85//85
f 13//13 18//18 10//10
f 59//59 52//52 63//63
f 21//21 19//19 14//14
f 44//44 53//53 61//61
f 9//9 4//4 1//1
f 77//77 70//70 69//69
f 37//37 23//23 22//22
f 1//1 7//7 9//9
f 5//5 4//4 10//10
f 62//62 57//57 64//64
f 80//80 78//78 81//81
f 33//33 23//23 37//37
f 40//40 34//34 24//24
f 32//32 18//18 13//13
f 50//50 41//41 58//58
f 75//75 63//63 68//68
f 37//37 41//41 33//33
f 10//10 4//4 9//9
f 7//7 11//11 9//9
f 63//63 52//52 60//60
f 57//57 47//47 42//42
f 49//49 31//31 38//38
f 35//35 32//32 39//39
f 31//31 32//32 17//17
f 73//73 82//82 81//81
f 30//30 32//32 35//35
f 20//20 15//15 23//23
f 27//27 26//26 16//16
f 35//35 45//45 30//30
f 36//36 37//37 22//22
f 7//7 12//12 14//14
f 36//36 41//41 37//37
f 18//18 15//15 10//10
f 70//70 64//64 69//69
f 33//33 41//41 50//50
f 54//54 44//44 61//61
f 24//24 33//33 40//40
f 51//51 45//45 54//54
f 40//40 52//52 43//43
f 38//38 19//19 29//29
f 51//51 41//41 36//36
f 72//72 62//62 70//70
f 22//22 30//30 36//36
f 53//53 62//62 72//72
f 69//69 64//64 65//65
f 63//63 60//60 68//68

## Object rightSphere

v -0.5875 0.25 0
vn 0 0 0
v -0.3375 0.25 0
vn 1 0 0
v -0.363893 0.361804 0
vn 0.894427 0.447214 0
v -0.356335 0.298578 0.0818727
vn 0.924658 0.194311 0.327491
v -0.365269 0.304668 -0.100621
vn 0.888925 0.218673 -0.402486
v -0.403472 0.399769 -0.078758
vn 0.736112 0.599077 -0.315032
v -0.432693 0.446087 0.00919147
vn 0.61923 0.784348 0.0367659
v -0.363941 0.188416 0.0934285
vn 0.894236 -0.246334 0.373714
v -0.410629 0.387968 0.110368
vn 0.707486 0.551874 0.441473
v -0.367473 0.191604 -0.103335
vn 0.880107 -0.233582 -0.413341
v -0.358458 0.149801 -8.75488e-05
vn 0.916168 -0.400795 -0.000350195
v -0.421135 0.251713 -0.186601
vn 0.665458 0.00685229 -0.746404
v -0.444167 0.364414 -0.169897
vn 0.573332 0.457656 -0.67959
v -0.485119 0.455304 -0.0993403
vn 0.409525 0.821214 -0.397361
v -0.409409 0.274129 0.173785
vn 0.712366 0.096514 0.69514
v -0.527304 0.492563 -0.00629535
vn 0.240784 0.970252 -0.0251814
v -0.442748 0.137095 -0.169703
vn 0.579009 -0.45162 -0.678813
v -0.436004 0.146356 0.169726
vn 0.605982 -0.414577 0.678905
v -0.511892 0.464419 0.103961
vn 0.302433 0.857675 0.415846
v -0.414726 0.0800885 0.061474
vn 0.691098 -0.679646 0.245896
v -0.500173 0.374247 0.198587
vn 0.349309 0.496986 0.794347
v -0.413442 0.0814998 -0.0617362
vn 0.696233 -0.674001 -0.246945
v -0.596483 0.483348 -0.0892645
vn -0.035932 0.933391 -0.357058
v -0.502895 0.196054 -0.22898
vn 0.338418 -0.215782 -0.915921
v -0.54919 0.415044 -0.183828
vn 0.153241 0.660177 -0.735312
v -0.518203 0.302872 -0.234313
vn 0.277186 0.211488 -0.937252
v -0.506754 0.236186 0.236198
vn 0.322982 -0.0552575 0.944791
v -0.533178 0.122009 0.207768
vn 0.21729 -0.511964 0.83107
v -0.500781 0.048265 -0.119511
vn 0.346876 -0.80694 -0.478043
v -0.627208 0.494429 0.0343175
vn -0.158833 0.977716 0.13727
v -0.514707 0.0432995 0.120316
vn 0.291174 -0.826802 0.481264
v -0.556411 0.102098 -0.199144
vn 0.124357 -0.591609 -0.796576
v -0.652097 0.431072 -0.159813
vn -0.258388 0.724289 -0.639251
v -0.502034 0.0151782 -0.0073646
vn 0.341866 -0.939287 -0.0294584
v -0.606661 0.322435 0.238508
vn -0.0766425 0.289742 0.954031
v -0.709291 0.458556 -0.0645855
vn -0.487165 0.834224 -0.258342
v -0.620815 0.440442 0.158499
vn -0.133259 0.761769 0.633996
v -0.609796 0.20734 -0.245322
vn -0.0891821 -0.170641 -0.981289
v -0.615078 0.185665 0.240001
vn -0.11031 -0.257341 0.960004
v -0.604107 0.0208233 -0.0985003
vn -0.0664263 -0.916707 -0.394001
v -0.738032 0.440036 0.0610438
vn -0.602127 0.760145 0.244175
v -0.625648 0.0683658 0.167492
vn -0.152591 -0.726537 0.66997
v -0.639455 0.335107 -0.229254
vn -0.207822 0.340429 -0.917016
v -0.70028 0.256923 0.223008
vn -0.451122 0.0276906 0.892033
v -0.798255 0.376885 -0.044525
vn -0.843022 0.507538 -0.1781
v -0.728947 0.364011 0.171739
vn -0.565787 0.456045 0.686955
v -0.682286 0.105617 -0.180746
vn -0.379144 -0.577531 -0.722985
v -0.618059 0.00569375 0.0433655
vn -0.122236 -0.977225 0.173462
v -0.740168 0.370642 -0.156965
vn -0.610673 0.482569 -0.627859
v -0.725921 0.239512 -0.207917
vn -0.553685 -0.0419533 -0.831669
v -0.716083 0.147342 0.188223
vn -0.514331 -0.410633 0.752891
v -0.811335 0.338188 0.0679763
vn -0.89534 0.352752 0.271905
v -0.726307 0.0495782 -0.0553525
vn -0.555226 -0.801687 -0.22141
v -0.728081 0.0603012 0.082167
vn -0.562323 -0.758795 0.328668
v -0.781603 0.249774 0.157556
vn -0.776413 -0.000904782 0.630224
v -0.790415 0.161365 -0.116058
vn -0.811658 -0.354539 -0.464234
v -0.800165 0.278246 -0.128358
vn -0.85066 0.112984 -0.513432
v -0.788956 0.146983 0.106315
vn -0.805824 -0.412069 0.42526
v -0.835034 0.250792 -0.035022
vn -0.990134 0.00316965 -0.140088
v -0.805951 0.128435 0.00096488
vn -0.873805 -0.486261 0.00385952
v -0.827736 0.222041 0.063286
vn -0.960943 -0.111836 0.253144
g rightSphere
usemtl rightSphere

s 1
f 160//160 161//161 159//159
f 159//159 161//161 152//152
f 156//156 160//160 159//159
f 134//134 120//120 131//131
f 153//153 156//156 147//147
f 155//155 158//158 151//151
f 139//139 128//128 127//127
f 116//116 123//123 130//130
f 112//112 117//117 124//124
f 150//150 149//149 143//143
f 126//126 112//112 124//124
f 139//139 127//127 135//135
f 152//152 155//155 146//146
f 120//120 111//111 108//108
f 110//110 105//105 102//102
f 132//132 117//117 129//129
f 138//138 126//126 124//124
f 106//106 105//105 113//113
f 127//127 128//128 118//118
f 137//137 130//130 141//141
f 121//121 115//115 109//109
f 141//141 152//152 146//146
f 131//131 120//120 118//118
f 128//128 139//139 142//142
f 149//149 145//145 136//136
f 122//122 117//117 110//110
f 123//123 116//116 114//114
f 153//153 147//147 140//140
f 129//129 134//134 140//140
f 132//132 129//129 140//140
f 108//108 115//115 118//118
f 148//148 153//153 140//140
f 115//115 127//127 118//118
f 103//103 106//106 107//107
f 160//160 156//156 153//153
f 126//126 125//125 113//113
f 121//121 109//109 119//119
f 136//136 145//145 141//141
f 111//111 122//122 110//110
f 117//117 112//112 110//110
f 134//134 122//122 120//120
f 131//131 128//128 142//142
f 148//148 131//131 142//142
f 128//128 131//131 118//118
f 156//156 159//159 157//157
f 150//150 138//138 147//147
f 133//133 149//149 136//136
f 158//158 154//154 151//151
f 106//106 114//114 107//107
f 148//148 134//134 131//131
f 123//123 114//114 125//125
f 154//154 142//142 151//151
f 160//160 154//154 158//158
f 121//121 127//127 115//115
f 108//108 111//111 102//102
f 109//109 103//103 107//107
f 127//127 121//121 135//135
f 142//142 139//139 151//151
f 104//104 115//115 108//108
f 161//161 160//160 158//158
f 154//154 148//148 142//142
f 138//138 143//143 126//126
f 145//145 149//149 157//157
f 105//105 112//112 113//113
f 156//156 150//150 147//147
f 112//112 105//105 110//110
f 135//135 137//137 146//146
f 123//123 136//136 130//130
f 145//145 159//159 152//152
f 144//144 139//139 135//135
f 149//149 150//150 157//157
f 114//114 116//116 107//107
f 144//144 155//155 151//151
f 123//123 133//133 136//136
f 116//116 119//119 107//107
f 161//161 155//155 152//152
f 149//149 133//133 143//143
f 109//109 104//104 103//103
f 138//138 150//150 143//143
f 133//133 123//123 125//125
f 148//148 154//154 153//153
f 134//134 148//148 140//140
f 132//132 138//138 124//124
f 104//104 108//108 102//102
f 122//122 134//134 129//129
f 137//137 119//119 130//130
f 111//111 110//110 102//102
f 125//125 114//114 113//113
f 144//144 135//135 146//146
f 139//139 144//144 151//151
f 138//138 132//132 147//147
f 103//103 104//104 102//102
f 130//130 136//136 141//141
f 141//141 145//145 152//152
f 137//137 121//121 119//119
f 154//154 160//160 153//153
f 122//122 111//111 120//120
f 112//112 126//126 113//113
f 150//150 156//156 157//157
f 117//117 122//122 129//129
f 115//115 104//104 109//109
f 119//119 109//109 107//107
f 105//105 106//106 103//103
f 119//119 116//116 130//130
f 147//147 132//132 140//140
f 121//121 137//137 135//135
f 105//105 103//103 102//102
f 143//143 133//133 125//125
f 159//159 145//145 157//157
f 114//114 106//106 113//113
f 120//120 108//108 118//118
f 137//137 141//141 146//146
f 155//155 144//144 146//146
f 126//126 143//143 125//125
f 155//155 161//161 158//158
f 117//117 132//132 124//124


## Object floor
v   1.0000 0.0000 -1.0400
v  -0.9900 0.0000 -1.0400
v  -1.0100 0.0000  0.9900
v   1.0000 0.0000  0.9900
# 4 vertices

vn 0.0000 1.0000 -0.0000
# 1 vertex normals

g floor
usemtl floor

s 1
f 162//162 163//162 164//162 
f 164//162 165//162 162//162 
# 2 faces

## Object ceiling 
v   1.0000 1.5900 -1.0400
v   1.0000 1.5900  0.9900
v  -1.0200 1.5900  0.9900
v  -1.0200 1.5900 -1.0400
# 4 vertices

vn 0.0000 -1.0000 -0.0000
# 1 vertex normals

g ceiling
usemtl ceiling

s 1
f 166//163 167//163 168//163 
f 168//163 169//163 166//163 
# 2 faces

## Object backwall 
v   1.0000 1.5900 -1.0400
v  -1.0200 1.5900 -1.0400
v  -0.9900 0.0000 -1.0400
v   1.0000 0.0000 -1.0400
# 4 vertices

vn 0.0000 0.0000 1.0000
# 1 vertex normals

g backWall
usemtl backWall

s 1
f 170//164 171//164 172//164 
f 172//164 173//164 170//164 
# 2 faces

## Object rightwall 
v  1.0000 1.5900 0.9900
v  1.0000 1.5900 -1.0400
v  1.0000 0.0000 -1.0400
v  1.0000 0.0000 0.9900
# 4 vertices

vn -1.0000 0.0000 -0.0000
# 1 vertex normals

g rightWall
usemtl rightWall

s 1
f 174//165 175//165 176//165 
f 176//165 177//165 174//165 
# 2 faces

## Object leftWall 
v  -1.0200 1.5900 -1.0400
v  -1.0200 1.5900 0.9900
v  -1.0100 0.0000 0.9900
v  -0.9900 0.0000 -1.0400
# 4 vertices

vn 0.9999 0.0135 0.0057
vn 1.0000 0.0063 -0.0000
vn 0.9999 0.0116 0.0042
vn 0.9998 0.0189 0.0098
# 4 vertex normals

g leftWall
usemtl leftWall

s 1
f 178//166 179//167 180//168 
f 180//168 181//169 178//166 
# 2 faces

## Object light
v  0.2300 1.5800 -0.2200
v  0.2300 1.5800 0.1600
v  -0.2400 1.5800 0.1600
v  -0.2400 1.5800 -0.2200
# 4 vertices

vn 0.0000 -1.0000 -0.0000
# 1 vertex normals

g light
usemtl light

s 1
f 182//170 183//170 184//170 
f 184//170 185//170 182//170 
# 2 faces
