mtllib CornellBox-Sphere.mtl

## Object leftSphere

v 0.0384537 0.332111 0.138726
vn 0.619587 -0.768525 0.159629
v 0.0882396 0.381294 0.0709695
vn 0.68667 -0.722234 0.0828448
v 0.0942922 0.381605 0.166852
vn 0.680164 -0.70775 0.190961
v 0.00736207 0.340166 0.0624236
vn 0.607851 -0.790522 0.0747872
v 0.0291814 0.393591 0.00330593
vn 0.657495 -0.753448 0.00410753
v 0.105239 0.461201 0.0187391
vn 0.746714 -0.664744 0.0231194
v 0.0130974 0.367637 0.225468
vn 0.607232 -0.748378 0.266832
v 0.133777 0.444516 0.119734
vn 0.744553 -0.652576 0.140662
v -0.0607242 0.332422 0.136213
vn 0.541871 -0.823494 0.168026
v -0.0786256 0.37264 0.0247384
vn 0.55727 -0.829687 0.0327167
v -0.0888771 0.380129 0.222993
vn 0.529441 -0.798265 0.287169
v 0.0938323 0.454265 0.232898
vn 0.707392 -0.650097 0.277435
v -0.157122 0.38729 0.128267
vn 0.480393 -0.858444 0.17971
v -0.0245258 0.449201 0.287874
vn 0.607624 -0.703885 0.367884
v -0.017882 0.465242 -0.0592094
vn 0.667353 -0.740218 -0.0819583
v 0.15285 0.552326 0.132945
vn 0.813335 -0.557722 0.165625
v -0.154529 0.454558 0.252464
vn 0.498335 -0.78679 0.364175
v -0.166241 0.442652 0.00084568
vn 0.51376 -0.857933 0.00130177
v -0.079479 0.546129 0.323944
vn 0.602112 -0.649863 0.463831
v 0.0985056 0.556779 -0.0275579
vn 0.803083 -0.594719 -0.0369775
v 0.0603433 0.546056 0.287289
vn 0.721847 -0.584781 0.370092
v -0.131492 0.530512 -0.0852107
vn 0.611235 -0.778727 -0.141337
v -0.00273305 0.582042 -0.100345
vn 0.756539 -0.635879 -0.152665
v 0.0853786 0.672817 -0.0547234
vn 0.870013 -0.486273 -0.0813322
v 0.14279 0.640241 0.0422618
vn 0.871191 -0.487591 0.0572786
v 0.113761 0.63334 0.23872
vn 0.814284 -0.486452 0.316712
v 0.148256 0.670059 0.140475
vn 0.87504 -0.445366 0.189618
v 0.108071 0.744597 0.220714
vn 0.874316 -0.367231 0.317354
v 0.0135909 0.66415 0.320826
vn 0.741691 -0.485011 0.463314
v -0.245465 0.537419 -0.0110312
vn 0.481981 -0.875932 -0.0208885
v -0.213351 0.552291 0.273122
vn 0.479613 -0.749093 0.45698
v -0.247604 0.484938 0.13406
vn 0.428489 -0.874414 0.227592
v -0.0100451 0.697806 -0.123617
vn 0.832157 -0.513257 -0.209955
v 0.132313 0.762173 0.0666253
vn 0.931464 -0.350345 0.0981462
v -0.308114 0.579678 0.0815945
vn 0.408964 -0.895827 0.173902
v -0.214272 0.629387 -0.0996668
vn 0.597177 -0.774589 -0.208305
v -0.0997466 0.625289 -0.127871
vn 0.710937 -0.665569 -0.227126
v -0.145374 0.647283 0.335869
vn 0.588614 -0.585447 0.557482
v -0.294862 0.585484 0.188968
vn 0.410593 -0.829673 0.378229
v 0.0689203 0.787659 -0.0617028
vn 0.932073 -0.347882 -0.101089
v -0.135736 0.71772 -0.14859
vn 0.752301 -0.582983 -0.306877
v -0.0786594 0.745067 0.34368
vn 0.701616 -0.424514 0.572296
v 0.0958706 0.876613 0.0389176
vn 0.97723 -0.202356 0.063825
v -0.355945 0.686078 0.132913
vn 0.389245 -0.848238 0.359138
v -0.314311 0.650958 -0.0150449
vn 0.469328 -0.882205 -0.038026
v 0.0954207 0.855361 0.17437
vn 0.934632 -0.22704 0.273708
v -0.203478 0.759322 0.331249
vn 0.586538 -0.476075 0.655229
v 0.0229914 0.79881 0.296218
vn 0.825127 -0.317419 0.467345
v -0.273005 0.666679 0.272976
vn 0.466132 -0.68447 0.560554
v -0.0388411 0.807528 -0.138689
vn 0.889235 -0.371137 -0.267428
v -0.271304 0.762177 -0.11624
vn 0.653755 -0.679846 -0.332287
v 0.0310483 0.901084 -0.0717922
vn 0.974522 -0.181521 -0.131745
v -0.32285 0.791185 0.259231
vn 0.469798 -0.553775 0.687476
v -0.369428 0.760873 0.00173514
vn 0.479234 -0.877664 0.00636845
v 0.0584062 0.969142 0.135112
vn 0.970554 -0.0536345 0.234836
v 0.00435948 0.934174 0.25767
vn 0.884562 -0.115447 0.45191
v -0.0993497 0.858922 0.332499
vn 0.742736 -0.261534 0.616395
v -0.150065 0.823045 -0.161575
vn 0.825093 -0.417233 -0.380969
v 0.0519202 0.973599 0.0160538
vn 0.998437 -0.04776 0.0290416
v -0.0805964 0.920306 -0.145227
vn 0.930078 -0.17673 -0.322058
v -0.402038 0.834678 0.11321
vn 0.439225 -0.741238 0.507591
v -0.238314 0.888116 0.316054
vn 0.615285 -0.263065 0.743116
v -0.0135733 1.01718 -0.0668638
vn 0.990078 0.0349721 -0.136095
v -0.126534 0.981148 0.302744
vn 0.776227 -0.0391831 0.629235
v -0.0299062 1.05439 0.206776
vn 0.910272 0.105314 0.400393
v 0.00927234 1.06994 0.0655042
vn 0.982755 0.13496 0.126405
v -0.219469 0.903047 -0.158717
vn 0.833466 -0.28805 -0.471552
v -0.122843 1.03243 -0.136586
vn 0.937185 0.0805773 -0.339398
v -0.167774 1.10285 0.253586
vn 0.771874 0.238944 0.589166
v -0.255048 1.00439 0.288134
vn 0.647663 0.0116142 0.761839
v -0.258929 1.01453 -0.145686
vn 0.854718 0.0515031 -0.516532
v -0.353789 0.929397 0.237717
vn 0.507898 -0.245255 0.825766
v -0.417896 0.967045 0.113011
vn 0.572065 -0.229614 0.787412
v -0.193122 1.14203 -0.113164
vn 0.860604 0.398305 -0.317355
v -0.0646986 1.12984 -0.037631
vn 0.955007 0.284859 -0.0825585
v -0.0766553 1.16181 0.133656
vn 0.895945 0.342449 0.282863
v -0.339179 1.08549 0.216915
vn 0.567791 0.301846 0.765835
v -0.370303 0.909129 -0.0667688
vn 0.754654 -0.528739 -0.388501
v -0.214794 1.21233 0.175874
vn 0.718973 0.535266 0.44336
v -0.337722 1.08203 -0.0990798
vn 0.783666 0.396146 -0.478472
v -0.411996 1.03002 -0.00466821
vn 0.945248 0.322479 -0.0501412
v -0.413238 1.08837 0.0977864
vn 0.549841 0.560037 0.619704
v -0.150431 1.23627 0.0156117
vn 0.827937 0.559601 0.0369756
v -0.294175 1.22229 -0.0572799
vn 0.667582 0.720984 -0.185785
v -0.397533 1.13922 -0.00145928
vn 0.592736 0.805353 -0.00844141
v -0.361558 1.2015 0.116536
vn 0.511171 0.744012 0.43029
v -0.251382 1.27338 0.0745781
vn 0.659512 0.725193 0.197834
v -0.0139138 0.518739 0.117101
vn 0.700435 -0.693482 0.168738
v -0.107299 0.714323 0.0994523
vn 0.792218 -0.576313 0.200631
v -0.253045 1.11381 0.0638669
vn 0.884143 0.407442 0.228654
v -0.20781 0.936327 -0.0503571
vn 0.963505 -0.209963 -0.166054
v -0.282641 1.01229 -0.020678
vn 0.993932 0.0562053 -0.0945558
v -0.144184 1.04425 0.165974
vn 0.900553 0.111996 0.420072
v -0.291071 0.978333 0.0961988
vn 0.904336 -0.0937826 0.41639
v -0.141868 1.01343 0.0352027
vn 0.994511 0.0372937 0.0977559
v -0.0401377 0.904894 0.0713874
vn 0.968153 -0.200227 0.150293
v -0.242076 0.848999 0.0925561
vn 0.824359 -0.48262 0.295822
v -0.119787 0.945047 0.172945
vn 0.902481 -0.130437 0.410505
v -0.202964 1.0569 -0.0559349
vn 0.965763 0.185006 -0.181863
v -0.129028 0.854318 -0.0413122
vn 0.925839 -0.363581 -0.103103
g leftSphere
usemtl leftSphere

s 1
f 75//75 76//76 66//66
f 77//77 82//82 73//73
f 46//46 43//43 55//55
f 72//72 77//77 73//73
f 43//43 59//59 55//55
f 77//77 86//86 82//82
f 53//53 44//44 49//49
f 8//8 12//12 3//3
f 3//3 12//12 7//7
f 2//2 8//8 3//3
f 74//74 84//84 83//83
f 74//74 68//68 71//71
f 79//79 87//87 86//86
f 2//2 4//4 5//5
f 38//38 47//47 49//49
f 76//76 83//83 79//79
f 50//50 58//58 60//60
f 46//46 34//34 43//43
f 30//30 22//22 18//18
f 75//75 66//66 63//63
f 20//20 25//25 16//16
f 6//6 15//15 20//20
f 52//52 50//50 60//60
f 2//2 3//3 1//1
f 36//36 45//45 51//51
f 66//66 55//55 59//59
f 16//16 26//26 21//21
f 16//16 25//25 27//27
f 50//50 52//52 40//40
f 13//13 10//10 9//9
f 24//24 25//25 20//20
f 44//44 39//39 49//49
f 14//14 19//19 17//17
f 24//24 23//23 33//33
f 31//31 19//19 38//38
f 22//22 15//15 18//18
f 43//43 34//34 40//40
f 31//31 39//39 32//32
f 16//16 8//8 6//6
f 21//21 26//26 29//29
f 57//57 56//56 64//64
f 47//47 62//62 53//53
f 3//3 7//7 1//1
f 29//29 48//48 42//42
f 30//30 45//45 36//36
f 76//76 69//69 65//65
f 28//28 34//34 46//46
f 17//17 11//11 14//14
f 46//46 56//56 48//48
f 84//84 80//80 85//85
f 43//43 52//52 59//59
f 77//77 69//69 79//79
f 56//56 55//55 65//65
f 67//67 51//51 78//78
f 75//75 83//83 76//76
f 17//17 32//32 13//13
f 48//48 28//28 46//46
f 6//6 8//8 2//2
f 79//79 69//69 76//76
f 44//44 45//45 35//35
f 5//5 6//6 2//2
f 16//16 12//12 8//8
f 58//58 41//41 51//51
f 21//21 12//12 16//16
f 48//48 56//56 57//57
f 58//58 51//51 67//67
f 23//23 15//15 22//22
f 27//27 34//34 28//28
f 73//73 81//81 78//78
f 14//14 12//12 21//21
f 10//10 15//15 5//5
f 80//80 84//84 74//74
f 29//29 19//19 21//21
f 70//70 77//77 72//72
f 24//24 34//34 25//25
f 28//28 26//26 27//27
f 49//49 39//39 31//31
f 40//40 33//33 50//50
f 83//83 84//84 87//87
f 5//5 15//15 6//6
f 17//17 19//19 31//31
f 38//38 29//29 42//42
f 49//49 47//47 53//53
f 68//68 67//67 71//71
f 9//9 11//11 13//13
f 42//42 47//47 38//38
f 65//65 66//66 76//76
f 1//1 4//4 2//2
f 85//85 81//81 82//82
f 68//68 60//60 67//67
f 16//16 6//6 20//20
f 79//79 86//86 77//77
f 13//13 11//11 17//17
f 86//86 85//85 82//82
f 39//39 44//44 35//35
f 64//64 56//56 65//65
f 78//78 61//61 73//73
f 79//79 83//83 87//87
f 54//54 61//61 78//78
f 87//87 84//84 86//86
f 73//73 61//61 72//72
f 84//84 85//85 86//86
f 48//48 57//57 42//42
f 59//59 63//63 66//66
f 25//25 34//34 27//27
f 14//14 11//11 7//7
f 28//28 48//48 29//29
f 29//29 26//26 28//28
f 51//51 54//54 78//78
f 70//70 62//62 64//64
f 20//20 23//23 24//24
f 54//54 45//45 44//44
f 32//32 30//30 18//18
f 74//74 75//75 68//68
f 71//71 80//80 74//74
f 65//65 55//55 66//66
f 74//74 83//83 75//75
f 56//56 46//46 55//55
f 53//53 72//72 61//61
f 71//71 78//78 80//80
f 62//62 47//47 57//57
f 71//71 67//67 78//78
f 58//58 67//67 60//60
f 80//80 81//81 85//85
f 13//13 18//18 10//10
f 59//59 52//52 63//63
f 21//21 19//19 14//14
f 44//44 53//53 61//61
f 9//9 4//4 1//1
f 77//77 70//70 69//69
f 37//37 23//23 22//22
f 1//1 7//7 9//9
f 5//5 4//4 10//10
f 62//62 57//57 64//64
f 80//80 78//78 81//81
f 33//33 23//23 37//37
f 40//40 34//34 24//24
f 32//32 18//18 13//13
f 50//50 41//41 58//58
f 75//75 63//63 68//68
f 37//37 41//41 33//33
f 10//10 4//4 9//9
f 7//7 11//11 9//9
f 63//63 52//52 60//60
f 57//57 47//47 42//42
f 49//49 31//31 38//38
f 35//35 32//32 39//39
f 31//31 32//32 17//17
f 73//73 82//82 81//81
f 30//30 32//32 35//35
f 20//20 15//15 23//23
f 27//27 26//26 16//16
f 35//35 45//45 30//30
f 36//36 37//37 22//22
f 7//7 12//12 14//14
f 36//36 41//41 37//37
f 18//18 15//15 10//10
f 70//70 64//64 69//69
f 33//33 41//41 50//50
f 54//54 44//44 61//61
f 24//24 33//33 40//40
f 51//51 45//45 54//54
f 40//40 52//52 43//43
f 38//38 19//19 29//29
f 51//51 41//41 36//36
f 72//72 62//62 70//70
f 22//22 30//30 36//36
f 53//53 62//62 72//72
f 69//69 64//64 65//65
f 63//63 60//60 68//68

## Object rightSphere

v -0.5875 0.25 0
vn 0 0 0
v -0.3375 0.25 0
vn 1 0 0
v -0.363893 0.361804 0
vn 0.894427 0.447214 0
v -0.356335 0.298578 0.0818727
vn 0.924658 0.194311 0.327491
v -0.365269 0.304668 -0.100621
vn 0.888925 0.218673 -0.402486
v -0.403472 0.399769 -0.078758
vn 0.736112 0.599077 -0.315032
v -0.432693 0.446087 0.00919147
vn 0.61923 0.784348 0.0367659
v -0.363941 0.188416 0.0934285
vn 0.894236 -0.246334 0.373714
v -0.410629 0.387968 0.110368
vn 0.707486 0.551874 0.441473
v -0.367473 0.191604 -0.103335
vn 0.880107 -0.233582 -0.413341
v -0.358458 0.149801 -8.75488e-05
vn 0.916168 -0.400795 -0.000350195
v -0.421135 0.251713 -0.186601
vn 0.665458 0.00685229 -0.746404
v -0.444167 0.364414 -0.169897
vn 0.573332 0.457656 -0.67959
v -0.485119 0.455304 -0.0993403
vn 0.409525 0.821214 -0.397361
v -0.409409 0.274129 0.173785
vn 0.712366 0.096514 0.69514
v -0.527304 0.492563 -0.00629535
vn 0.240784 0.970252 -0.0251814
v -0.442748 0.137095 -0.169703
vn 0.579009 -0.45162 -0.678813
v -0.436004 0.146356 0.169726
vn 0.605982 -0.414577 0.678905
v -0.511892 0.464419 0.103961
vn 0.302433 0.857675 0.415846
v -0.414726 0.0800885 0.061474
vn 0.691098 -0.679646 0.245896
v -0.500173 0.374247 0.198587
vn 0.349309 0.496986 0.794347
v -0.413442 0.0814998 -0.0617362
vn 0.696233 -0.674001 -0.246945
v -0.596483 0.483348 -0.0892645
vn -0.035932 0.933391 -0.357058
v -0.502895 0.196054 -0.22898
vn 0.338418 -0.215782 -0.915921
v -0.54919 0.415044 -0.183828
vn 0.153241 0.660177 -0.735312
v -0.518203 0.302872 -0.234313
vn 0.277186 0.211488 -0.937252
v -0.506754 0.236186 0.236198
vn 0.322982 -0.0552575 0.944791
v -0.533178 0.122009 0.207768
vn 0.21729 -0.511964 0.83107
v -0.500781 0.048265 -0.119511
vn 0.346876 -0.80694 -0.478043
v -0.627208 0.494429 0.0343175
vn -0.158833 0.977716 0.13727
v -0.514707 0.0432995 0.120316
vn 0.291174 -0.826802 0.481264
v -0.556411 0.102098 -0.199144
vn 0.124357 -0.591609 -0.796576
v -0.652097 0.431072 -0.159813
vn -0.258388 0.724289 -0.639251
v -0.502034 0.0151782 -0.0073646
vn 0.341866 -0.939287 -0.0294584
v -0.606661 0.322435 0.238508
vn -0.0766425 0.289742 0.954031
v -0.709291 0.458556 -0.0645855
vn -0.487165 0.834224 -0.258342
v -0.620815 0.440442 0.158499
vn -0.133259 0.761769 0.633996
v -0.609796 0.20734 -0.245322
vn -0.0891821 -0.170641 -0.981289
v -0.615078 0.185665 0.240001
vn -0.11031 -0.257341 0.960004
v -0.604107 0.0208233 -0.0985003
vn -0.0664263 -0.916707 -0.394001
v -0.738032 0.440036 0.0610438
vn -0.602127 0.760145 0.244175
v -0.625648 0.0683658 0.167492
vn -0.152591 -0.726537 0.66997
v -0.639455 0.335107 -0.229254
vn -0.207822 0.340429 -0.917016
v -0.70028 0.256923 0.223008
vn -0.451122 0.0276906 0.892033
v -0.798255 0.376885 -0.044525
vn -0.843022 0.507538 -0.1781
v -0.728947 0.364011 0.171739
vn -0.565787 0.456045 0.686955
v -0.682286 0.105617 -0.180746
vn -0.379144 -0.577531 -0.722985
v -0.618059 0.00569375 0.0433655
vn -0.122236 -0.977225 0.173462
v -0.740168 0.370642 -0.156965
vn -0.610673 0.482569 -0.627859
v -0.725921 0.239512 -0.207917
vn -0.553685 -0.0419533 -0.831669
v -0.716083 0.147342 0.188223
vn -0.514331 -0.410633 0.752891
v -0.811335 0.338188 0.0679763
vn -0.89534 0.352752 0.271905
v -0.726307 0.0495782 -0.0553525
vn -0.555226 -0.801687 -0.22141
v -0.728081 0.0603012 0.082167
vn -0.562323 -0.758795 0.328668
v -0.781603 0.249774 0.157556
vn -0.776413 -0.000904782 0.630224
v -0.790415 0.161365 -0.116058
vn -0.811658 -0.354539 -0.464234
v -0.800165 0.278246 -0.128358
vn -0.85066 0.112984 -0.513432
v -0.788956 0.146983 0.106315
vn -0.805824 -0.412069 0.42526
v -0.835034 0.250792 -0.035022
vn -0.990134 0.00316965 -0.140088
v -0.805951 0.128435 0.00096488
vn -0.873805 -0.486261 0.00385952
v -0.827736 0.222041 0.063286
vn -0.960943 -0.111836 0.253144
g rightSphere
usemtl rightSphere

s 1
f 160//160 161//161 159//159
f 159//159 161//161 152//152
f 156//156 160//160 159//159
f 134//134 120//120 131//131
f 153//153 156//156 147//147
f 155//155 158//158 151//151
f 139//139 128//128 127//127
f 116//116 123//123 130//130
f 112//112 117//117 124//124
f 150//150 149//149 143//143
f 126//126 112//112 124//124
f 139//139 127//127 135//135
f 152//152 155//155 146//146
f 120//120 111//111 108//108
f 110//110 105//105 102//102
f 132//132 117//117 129//129
f 138//138 126//126 124//124
f 106//106 105//105 113//113
f 127//127 128//128 118//118
f 137//137 130//130 141//141
f 121//121 115//115 109//109
f 141//141 152//152 146//146
f 131//131 120//120 118//118
f 128//128 139//139 142//142
f 149//149 145//145 136//136
f 122//122 117//117 110//110
f 123//123 116//116 114//114
f 153//153 147//147 140//140
f 129//129 134//134 140//140
f 132//132 129//129 140//140
f 108//108 115//115 118//118
f 148//148 153//153 140//140
f 115//115 127//127 118//118
f 103//103 106//106 107//107
f 160//160 156//156 153//153
f 126//126 125//125 113//113
f 121//121 109//109 119//119
f 136//136 145//145 141//141
f 111//111 122//122 110//110
f 117//117 112//112 110//110
f 134//134 122//122 120//120
f 131//131 128//128 142//142
f 148//148 131//131 142//142
f 128//128 131//131 118//118
f 156//156 159//159 157//157
f 150//150 138//138 147//147
f 133//133 149//149 136//136
f 158//158 154//154 151//151
f 106//106 114//114 107//107
f 148//148 134//134 131//131
f 123//123 114//114 125//125
f 154//154 142//142 151//151
f 160//160 154//154 158//158
f 121//121 127//127 115//115
f 108//108 111//111 102//102
f 109//109 103//103 107//107
f 127//127 121//121 135//135
f 142//142 139//139 151//151
f 104//104 115//115 108//108
f 161//161 160//160 158//158
f 154//154 148//148 142//142
f 138//138 143//143 126//126
f 145//145 149//149 157//157
f 105//105 112//112 113//113
f 156//156 150//150 147//147
f 112//112 105//105 110//110
f 135//135 137//137 146//146
f 123//123 136//136 130//130
f 145//145 159//159 152//152
f 144//144 139//139 135//135
f 149//149 150//150 157//157
f 114//114 116//116 107//107
f 144//144 155//155 151//151
f 123//123 133//133 136//136
f 116//116 119//119 107//107
f 161//161 155//155 152//152
f 149//149 133//133 143//143
f 109//109 104//104 103//103
f 138//138 150//150 143//143
f 133//133 123//123 125//125
f 148//148 154//154 153//153
f 134//134 148//148 140//140
f 132//132 138//138 124//124
f 104//104 108//108 102//102
f 122//122 134//134 129//129
f 137//137 119//119 130//130
f 111//111 110//110 102//102
f 125//125 114//114 113//113
f 144//144 135//135 146//146
f 139//139 144//144 151//151
f 138//138 132//132 147//147
f 103//103 104//104 102//102
f 130//130 136//136 141//141
f 141//141 145//145 152//152
f 137//137 121//121 119//119
f 154//154 160//160 153//153
f 122//122 111//111 120//120
f 112//112 126//126 113//113
f 150//150 156//156 157//157
f 117//117 122//122 129//129
f 115//115 104//104 109//109
f 119//119 109//109 107//107
f 105//105 106//106 103//103
f 119//119 116//116 130//130
f 147//147 132//132 140//140
f 121//121 137//137 135//135
f 105//105 103//103 102//102
f 143//143 133//133 125//125
f 159//159 145//145 157//157
f 114//114 106//106 113//113
f 120//120 108//108 118//118
f 137//137 141//141 146//146
f 155//155 144//144 146//146
f 126//126 143//143 125//125
f 155//155 161//161 158//158
f 117//117 132//132 124//124


## Object floor
v   1.0000 0.0000 -1.0400
v  -0.9900 0.0000 -1.0400
v  -1.0100 0.0000  0.9900
v   1.0000 0.0000  0.9900
# 4 vertices

vn 0.0000 1.0000 -0.0000
# 1 vertex normals

g floor
usemtl floor

s 1
f 162//162 163//162 164//162 
f 164//162 165//162 162//162 
# 2 faces

## Object ceiling 
v   1.0000 1.5900 -1.0400
v   1.0000 1.5900  0.9900
v  -1.0200 1.5900  0.9900
v  -1.0200 1.5900 -1.0400
# 4 vertices

vn 0.0000 -1.0000 -0.0000
# 1 vertex normals

g ceiling
usemtl ceiling

s 1
f 166//163 167//163 168//163 
f 168//163 169//163 166//163 
# 2 faces

## Object backwall 
v   1.0000 1.5900 -1.0400
v  -1.0200 1.5900 -1.0400
v  -0.9900 0.0000 -1.0400
v   1.0000 0.0000 -1.0400
# 4 vertices

vn 0.0000 0.0000 1.0000
# 1 vertex normals

g backWall
usemtl backWall

s 1
f 170//164 171//164 172//164 
f 172//164 173//164 170//164 
# 2 faces

## Object rightwall 
v  1.0000 1.5900 0.9900
v  1.0000 1.5900 -1.0400
v  1.0000 0.0000 -1.0400
v  1.0000 0.0000 0.9900
# 4 vertices

vn -1.0000 0.0000 -0.0000
# 1 vertex normals

g rightWall
usemtl rightWall

s 1
f 174//165 175//165 176//165 
f 176//165 177//165 174//165 
# 2 faces

## Object leftWall 
v  -1.0200 1.5900 -1.0400
v  -1.0200 1.5900 0.9900
v  -1.0100 0.0000 0.9900
v  -0.9900 0.0000 -1.0400
# 4 vertices

vn 0.9999 0.0135 0.0057
vn 1.0000 0.0063 -0.0000
vn 0.9999 0.0116 0.0042
vn 0.9998 0.0189 0.0098
# 4 vertex normals

g leftWall
usemtl leftWall

s 1
f 178//166 179//167 180//168 
f 180//168 181//169 178//166 
# 2 faces

## Object light
v  0.2300 1.5800 -0.2200
v  0.2300 1.5800 0.1600
v  -0.2400 1.5800 0.1600
v  -0.2400 1.5800 -0.2200
# 4 vertices

vn 0.0000 -1.0000 -0.0000
# 1 vertex normals

g light
usemtl light

s 1
f 182//170 183//170 184//170 
f 184//170 185//170 182//170 
# 2 faces
