mtllib CornellBox-Sphere.mtl

## Object leftSphere

v 0.0569632 0.416941 0.103431
vn 0.685126 -0.717227 0.127232
v 0.104841 0.483588 0.0504999
vn 0.758984 -0.648018 0.0633698
v 0.095938 0.472832 0.145342
vn 0.736809 -0.651783 0.179699
v 0.0371649 0.428357 0.0241333
vn 0.684465 -0.728397 0.0307511
v 0.0555363 0.492076 -0.0251827
vn 0.737613 -0.674396 -0.0334362
v 0.111905 0.571613 0.0085081
vn 0.819145 -0.573473 0.0113896
v 0.0124828 0.435233 0.186927
vn 0.652676 -0.719264 0.238062
v 0.127968 0.548631 0.1115
vn 0.803695 -0.577677 0.142702
v -0.0371643 0.397563 0.083557
vn 0.605581 -0.788238 0.109327
v -0.0463901 0.446875 -0.0244946
vn 0.633748 -0.772783 -0.0342218
v -0.0863671 0.426407 0.168307
vn 0.569013 -0.789061 0.231531
v 0.0709376 0.535499 0.216225
vn 0.744254 -0.605507 0.281863
v -0.139056 0.430617 0.0651544
vn 0.532924 -0.840677 0.0961986
v -0.0485201 0.498777 0.249314
vn 0.627773 -0.696939 0.346666
v 0.00279278 0.558967 -0.0887017
vn 0.745243 -0.653702 -0.131474
v 0.121535 0.657366 0.135028
vn 0.860314 -0.474265 0.186903
v -0.168203 0.479521 0.194027
vn 0.512809 -0.804425 0.299879
v -0.143039 0.49704 -0.0556828
vn 0.576426 -0.812187 -0.0899174
v -0.125382 0.57586 0.284747
vn 0.591353 -0.669525 0.449486
v 0.089415 0.668529 -0.0329317
vn 0.870591 -0.489596 -0.0486415
v 0.0127591 0.611852 0.271111
vn 0.734704 -0.556156 0.38846
v -0.120206 0.598293 -0.127728
vn 0.669376 -0.707996 -0.225116
v -0.00603083 0.678794 -0.119655
vn 0.821577 -0.534234 -0.199012
v 0.0516972 0.781001 -0.0561501
vn 0.925319 -0.367309 -0.0941762
v 0.103385 0.751039 0.0473612
vn 0.92198 -0.380415 0.0723685
v 0.0516782 0.714749 0.237291
vn 0.82978 -0.429046 0.356909
v 0.0893247 0.769834 0.147129
vn 0.907269 -0.354342 0.226506
v 0.0237004 0.822418 0.224321
vn 0.877579 -0.29758 0.375901
v -0.0620089 0.711005 0.304653
vn 0.721842 -0.476286 0.502091
v -0.241209 0.569317 -0.0716475
vn 0.509895 -0.848575 -0.141167
v -0.248489 0.556228 0.214275
vn 0.454593 -0.802092 0.38729
v -0.248077 0.501307 0.0666681
vn 0.447722 -0.886288 0.118484
v -0.0406519 0.791348 -0.136021
vn 0.879084 -0.399311 -0.260312
v 0.0611606 0.863467 0.0757388
vn 0.963405 -0.234401 0.130029
v -0.322822 0.582656 0.0156218
vn 0.390548 -0.919939 0.0344346
v -0.224751 0.675715 -0.145736
vn 0.612176 -0.721236 -0.324128
v -0.108774 0.70156 -0.157898
vn 0.757053 -0.577505 -0.305545
v -0.210934 0.655729 0.295513
vn 0.537329 -0.639946 0.549314
v -0.323644 0.578275 0.124269
vn 0.372291 -0.89027 0.262335
v 0.00621724 0.888877 -0.058717
vn 0.970535 -0.213048 -0.112574
v -0.166269 0.78482 -0.175983
vn 0.768369 -0.495421 -0.405176
v -0.167357 0.764857 0.321202
vn 0.641224 -0.453277 0.61917
v 0.00124395 0.969179 0.0492242
vn 0.993354 -0.0610797 0.0975514
v -0.39968 0.665093 0.0732604
vn 0.280848 -0.937582 0.205095
v -0.336946 0.661225 -0.0730608
vn 0.425722 -0.884518 -0.190757
v -0.00570902 0.93218 0.181721
vn 0.930893 -0.127726 0.342233
v -0.287564 0.749863 0.295784
vn 0.480844 -0.56618 0.669499
v -0.0755185 0.846067 0.291002
vn 0.790204 -0.286558 0.541721
v -0.329444 0.650999 0.219472
vn 0.382274 -0.782233 0.491913
v -0.0963039 0.892879 -0.147094
vn 0.911666 -0.24191 -0.332181
v -0.31379 0.791415 -0.155679
vn 0.581856 -0.651772 -0.486454
v -0.0589333 0.99177 -0.065812
vn 0.988882 -0.018452 -0.147552
v -0.401924 0.758737 0.215119
vn 0.290344 -0.714237 0.636841
v -0.418781 0.750866 -0.0485701
vn 0.304758 -0.93483 -0.18225
v -0.0641623 1.03808 0.146987
vn 0.944332 0.0825185 0.318477
v -0.116737 0.976139 0.261068
vn 0.825385 -0.0513864 0.562227
v -0.207148 0.870844 0.318187
vn 0.648884 -0.286177 0.705019
v -0.208239 0.884891 -0.180431
vn 0.806321 -0.318118 -0.498646
v -0.0642802 1.05566 0.0290464
vn 0.989778 0.126437 0.0659817
v -0.169615 0.993451 -0.147765
vn 0.912709 -0.0180932 -0.408209
v -0.476979 0.798444 0.0695005
vn 0.107355 -0.939912 0.3241
v -0.345318 0.865872 0.291451
vn 0.434286 -0.376581 0.81828
v -0.135059 1.09239 -0.0541837
vn 0.959531 0.242907 -0.142464
v -0.25521 0.984225 0.298955
vn 0.633007 -0.0407925 0.773071
v -0.172585 1.08903 0.219304
vn 0.810419 0.220378 0.542821
v -0.132195 1.13143 0.0838012
vn 0.920731 0.32901 0.209781
v -0.299578 0.944221 -0.175
vn 0.737239 -0.205178 -0.643724
v -0.243392 1.08833 -0.129706
vn 0.853118 0.293662 -0.431222
v -0.318674 1.09644 0.261601
vn 0.545197 0.289975 0.786559
v -0.383148 0.976733 0.277504
vn 0.386925 -0.0770413 0.918887
v -0.37077 1.03864 -0.150448
vn 0.639562 0.191247 -0.744571
v -0.459411 0.886263 0.210132
vn 0.167475 -0.469286 0.867019
v -0.52396 0.921279 0.0878475
vn -0.199057 -0.654007 0.729829
v -0.34223 1.17176 -0.0987511
vn 0.622939 0.678173 -0.389908
v -0.216328 1.18266 -0.0176848
vn 0.839622 0.540643 -0.0523441
v -0.240073 1.18941 0.154884
vn 0.728154 0.530596 0.433889
v -0.480249 1.04172 0.212732
vn 0.0907328 0.191656 0.977259
v -0.453965 0.900803 -0.0950781
vn 0.31768 -0.684538 -0.656115
v -0.386845 1.19864 0.194819
vn 0.376735 0.661332 0.648622
v -0.467552 1.07756 -0.100174
vn 0.248113 0.593048 -0.765986
v -0.529159 0.998149 -0.0182546
vn -0.846382 -0.0537372 -0.529858
v -0.548172 1.04112 0.0909892
vn -0.434526 0.370887 0.82075
v -0.327011 1.25618 0.0419381
vn 0.554544 0.821223 0.13444
v -0.461282 1.21689 -0.0389339
vn 0.173059 0.969416 -0.174022
v -0.542293 1.10604 0.000782515
vn -0.370441 0.928831 0.00685393
v -0.524981 1.16031 0.127227
vn -0.121162 0.777524 0.617071
v -0.434551 1.26042 0.099627
vn 0.228523 0.90927 0.347859
v -0.0286349 0.592425 0.0897609
vn 0.748709 -0.647385 0.142575
v -0.163165 0.75899 0.0707862
vn 0.801638 -0.573583 0.168465
v -0.397347 1.10726 0.0702487
vn 0.624991 0.653039 0.4277
v -0.303949 0.964054 -0.06277
vn 0.938181 -0.172017 -0.300379
v -0.398262 1.014 -0.0287111
vn 0.954082 0.131273 -0.269248
v -0.27882 1.05634 0.169359
vn 0.778218 0.19823 0.595887
v -0.402732 0.964529 0.0818524
vn 0.736983 -0.268755 0.620183
v -0.263842 1.04277 0.0362561
vn 0.972953 0.176211 0.149373
v -0.139836 0.960884 0.0679634
vn 0.977109 -0.106119 0.184382
v -0.324184 0.85339 0.0647932
vn 0.738983 -0.616228 0.272336
v -0.232531 0.966749 0.16602
vn 0.844933 -0.105039 0.524456
v -0.331221 1.08075 -0.052701
vn 0.868295 0.415399 -0.271123
v -0.205804 0.904921 -0.0573435
vn 0.935586 -0.302364 -0.182361
g leftSphere
usemtl leftSphere

s 1
f 75//75 76//76 66//66
f 77//77 82//82 73//73
f 46//46 43//43 55//55
f 72//72 77//77 73//73
f 43//43 59//59 55//55
f 77//77 86//86 82//82
f 53//53 44//44 49//49
f 8//8 12//12 3//3
f 3//3 12//12 7//7
f 2//2 8//8 3//3
f 74//74 84//84 83//83
f 74//74 68//68 71//71
f 79//79 87//87 86//86
f 2//2 4//4 5//5
f 38//38 47//47 49//49
f 76//76 83//83 79//79
f 50//50 58//58 60//60
f 46//46 34//34 43//43
f 30//30 22//22 18//18
f 75//75 66//66 63//63
f 20//20 25//25 16//16
f 6//6 15//15 20//20
f 52//52 50//50 60//60
f 2//2 3//3 1//1
f 36//36 45//45 51//51
f 66//66 55//55 59//59
f 16//16 26//26 21//21
f 16//16 25//25 27//27
f 50//50 52//52 40//40
f 13//13 10//10 9//9
f 24//24 25//25 20//20
f 44//44 39//39 49//49
f 14//14 19//19 17//17
f 24//24 23//23 33//33
f 31//31 19//19 38//38
f 22//22 15//15 18//18
f 43//43 34//34 40//40
f 31//31 39//39 32//32
f 16//16 8//8 6//6
f 21//21 26//26 29//29
f 57//57 56//56 64//64
f 47//47 62//62 53//53
f 3//3 7//7 1//1
f 29//29 48//48 42//42
f 30//30 45//45 36//36
f 76//76 69//69 65//65
f 28//28 34//34 46//46
f 17//17 11//11 14//14
f 46//46 56//56 48//48
f 84//84 80//80 85//85
f 43//43 52//52 59//59
f 77//77 69//69 79//79
f 56//56 55//55 65//65
f 67//67 51//51 78//78
f 75//75 83//83 76//76
f 17//17 32//32 13//13
f 48//48 28//28 46//46
f 6//6 8//8 2//2
f 79//79 69//69 76//76
f 44//44 45//45 35//35
f 5//5 6//6 2//2
f 16//16 12//12 8//8
f 58//58 41//41 51//51
f 21//21 12//12 16//16
f 48//48 56//56 57//57
f 58//58 51//51 67//67
f 23//23 15//15 22//22
f 27//27 34//34 28//28
f 73//73 81//81 78//78
f 14//14 12//12 21//21
f 10//10 15//15 5//5
f 80//80 84//84 74//74
f 29//29 19//19 21//21
f 70//70 77//77 72//72
f 24//24 34//34 25//25
f 28//28 26//26 27//27
f 49//49 39//39 31//31
f 40//40 33//33 50//50
f 83//83 84//84 87//87
f 5//5 15//15 6//6
f 17//17 19//19 31//31
f 38//38 29//29 42//42
f 49//49 47//47 53//53
f 68//68 67//67 71//71
f 9//9 11//11 13//13
f 42//42 47//47 38//38
f 65//65 66//66 76//76
f 1//1 4//4 2//2
f 85//85 81//81 82//82
f 68//68 60//60 67//67
f 16//16 6//6 20//20
f 79//79 86//86 77//77
f 13//13 11//11 17//17
f 86//86 85//85 82//82
f 39//39 44//44 35//35
f 64//64 56//56 65//65
f 78//78 61//61 73//73
f 79//79 83//83 87//87
f 54//54 61//61 78//78
f 87//87 84//84 86//86
f 73//73 61//61 72//72
f 84//84 85//85 86//86
f 48//48 57//57 42//42
f 59//59 63//63 66//66
f 25//25 34//34 27//27
f 14//14 11//11 7//7
f 28//28 48//48 29//29
f 29//29 26//26 28//28
f 51//51 54//54 78//78
f 70//70 62//62 64//64
f 20//20 23//23 24//24
f 54//54 45//45 44//44
f 32//32 30//30 18//18
f 74//74 75//75 68//68
f 71//71 80//80 74//74
f 65//65 55//55 66//66
f 74//74 83//83 75//75
f 56//56 46//46 55//55
f 53//53 72//72 61//61
f 71//71 78//78 80//80
f 62//62 47//47 57//57
f 71//71 67//67 78//78
f 58//58 67//67 60//60
f 80//80 81//81 85//85
f 13//13 18//18 10//10
f 59//59 52//52 63//63
f 21//21 19//19 14//14
f 44//44 53//53 61//61
f 9//9 4//4 1//1
f 77//77 70//70 69//69
f 37//37 23//23 22//22
f 1//1 7//7 9//9
f 5//5 4//4 10//10
f 62//62 57//57 64//64
f 80//80 78//78 81//81
f 33//33 23//23 37//37
f 40//40 34//34 24//24
f 32//32 18//18 13//13
f 50//50 41//41 58//58
f 75//75 63//63 68//68
f 37//37 41//41 33//33
f 10//10 4//4 9//9
f 7//7 11//11 9//9
f 63//63 52//52 60//60
f 57//57 47//47 42//42
f 49//49 31//31 38//38
f 35//35 32//32 39//39
f 31//31 32//32 17//17
f 73//73 82//82 81//81
f 30//30 32//32 35//35
f 20//20 15//15 23//23
f 27//27 26//26 16//16
f 35//35 45//45 30//30
f 36//36 37//37 22//22
f 7//7 12//12 14//14
f 36//36 41//41 37//37
f 18//18 15//15 10//10
f 70//70 64//64 69//69
f 33//33 41//41 50//50
f 54//54 44//44 61//61
f 24//24 33//33 40//40
f 51//51 45//45 54//54
f 40//40 52//52 43//43
f 38//38 19//19 29//29
f 51//51 41//41 36//36
f 72//72 62//62 70//70
f 22//22 30//30 36//36
f 53//53 62//62 72//72
f 69//69 64//64 65//65
f 63//63 60//60 68//68

## Object rightSphere

v -0.5875 0.25 0
vn 0 0 0
v -0.3375 0.25 0
vn 1 0 0
v -0.363893 0.361804 0
vn 0.894427 0.447214 0
v -0.356335 0.298578 0.0818727
vn 0.924658 0.194311 0.327491
v -0.365269 0.304668 -0.100621
vn 0.888925 0.218673 -0.402486
v -0.403472 0.399769 -0.078758
vn 0.736112 0.599077 -0.315032
v -0.432693 0.446087 0.00919147
vn 0.61923 0.784348 0.0367659
v -0.363941 0.188416 0.0934285
vn 0.894236 -0.246334 0.373714
v -0.410629 0.387968 0.110368
vn 0.707486 0.551874 0.441473
v -0.367473 0.191604 -0.103335
vn 0.880107 -0.233582 -0.413341
v -0.358458 0.149801 -8.75488e-05
vn 0.916168 -0.400795 -0.000350195
v -0.421135 0.251713 -0.186601
vn 0.665458 0.00685229 -0.746404
v -0.444167 0.364414 -0.169897
vn 0.573332 0.457656 -0.67959
v -0.485119 0.455304 -0.0993403
vn 0.409525 0.821214 -0.397361
v -0.409409 0.274129 0.173785
vn 0.712366 0.096514 0.69514
v -0.527304 0.492563 -0.00629535
vn 0.240784 0.970252 -0.0251814
v -0.442748 0.137095 -0.169703
vn 0.579009 -0.45162 -0.678813
v -0.436004 0.146356 0.169726
vn 0.605982 -0.414577 0.678905
v -0.511892 0.464419 0.103961
vn 0.302433 0.857675 0.415846
v -0.414726 0.0800885 0.061474
vn 0.691098 -0.679646 0.245896
v -0.500173 0.374247 0.198587
vn 0.349309 0.496986 0.794347
v -0.413442 0.0814998 -0.0617362
vn 0.696233 -0.674001 -0.246945
v -0.596483 0.483348 -0.0892645
vn -0.035932 0.933391 -0.357058
v -0.502895 0.196054 -0.22898
vn 0.338418 -0.215782 -0.915921
v -0.54919 0.415044 -0.183828
vn 0.153241 0.660177 -0.735312
v -0.518203 0.302872 -0.234313
vn 0.277186 0.211488 -0.937252
v -0.506754 0.236186 0.236198
vn 0.322982 -0.0552575 0.944791
v -0.533178 0.122009 0.207768
vn 0.21729 -0.511964 0.83107
v -0.500781 0.048265 -0.119511
vn 0.346876 -0.80694 -0.478043
v -0.627208 0.494429 0.0343175
vn -0.158833 0.977716 0.13727
v -0.514707 0.0432995 0.120316
vn 0.291174 -0.826802 0.481264
v -0.556411 0.102098 -0.199144
vn 0.124357 -0.591609 -0.796576
v -0.652097 0.431072 -0.159813
vn -0.258388 0.724289 -0.639251
v -0.502034 0.0151782 -0.0073646
vn 0.341866 -0.939287 -0.0294584
v -0.606661 0.322435 0.238508
vn -0.0766425 0.289742 0.954031
v -0.709291 0.458556 -0.0645855
vn -0.487165 0.834224 -0.258342
v -0.620815 0.440442 0.158499
vn -0.133259 0.761769 0.633996
v -0.609796 0.20734 -0.245322
vn -0.0891821 -0.170641 -0.981289
v -0.615078 0.185665 0.240001
vn -0.11031 -0.257341 0.960004
v -0.604107 0.0208233 -0.0985003
vn -0.0664263 -0.916707 -0.394001
v -0.738032 0.440036 0.0610438
vn -0.602127 0.760145 0.244175
v -0.625648 0.0683658 0.167492
vn -0.152591 -0.726537 0.66997
v -0.639455 0.335107 -0.229254
vn -0.207822 0.340429 -0.917016
v -0.70028 0.256923 0.223008
vn -0.451122 0.0276906 0.892033
v -0.798255 0.376885 -0.044525
vn -0.843022 0.507538 -0.1781
v -0.728947 0.364011 0.171739
vn -0.565787 0.456045 0.686955
v -0.682286 0.105617 -0.180746
vn -0.379144 -0.577531 -0.722985
v -0.618059 0.00569375 0.0433655
vn -0.122236 -0.977225 0.173462
v -0.740168 0.370642 -0.156965
vn -0.610673 0.482569 -0.627859
v -0.725921 0.239512 -0.207917
vn -0.553685 -0.0419533 -0.831669
v -0.716083 0.147342 0.188223
vn -0.514331 -0.410633 0.752891
v -0.811335 0.338188 0.0679763
vn -0.89534 0.352752 0.271905
v -0.726307 0.0495782 -0.0553525
vn -0.555226 -0.801687 -0.22141
v -0.728081 0.0603012 0.082167
vn -0.562323 -0.758795 0.328668
v -0.781603 0.249774 0.157556
vn -0.776413 -0.000904782 0.630224
v -0.790415 0.161365 -0.116058
vn -0.811658 -0.354539 -0.464234
v -0.800165 0.278246 -0.128358
vn -0.85066 0.112984 -0.513432
v -0.788956 0.146983 0.106315
vn -0.805824 -0.412069 0.42526
v -0.835034 0.250792 -0.035022
vn -0.990134 0.00316965 -0.140088
v -0.805951 0.128435 0.00096488
vn -0.873805 -0.486261 0.00385952
v -0.827736 0.222041 0.063286
vn -0.960943 -0.111836 0.253144
g rightSphere
usemtl rightSphere

s 1
f 160//160 161//161 159//159
f 159//159 161//161 152//152
f 156//156 160//160 159//159
f 134//134 120//120 131//131
f 153//153 156//156 147//147
f 155//155 158//158 151//151
f 139//139 128//128 127//127
f 116//116 123//123 130//130
f 112//112 117//117 124//124
f 150//150 149//149 143//143
f 126//126 112//112 124//124
f 139//139 127//127 135//135
f 152//152 155//155 146//146
f 120//120 111//111 108//108
f 110//110 105//105 102//102
f 132//132 117//117 129//129
f 138//138 126//126 124//124
f 106//106 105//105 113//113
f 127//127 128//128 118//118
f 137//137 130//130 141//141
f 121//121 115//115 109//109
f 141//141 152//152 146//146
f 131//131 120//120 118//118
f 128//128 139//139 142//142
f 149//149 145//145 136//136
f 122//122 117//117 110//110
f 123//123 116//116 114//114
f 153//153 147//147 140//140
f 129//129 134//134 140//140
f 132//132 129//129 140//140
f 108//108 115//115 118//118
f 148//148 153//153 140//140
f 115//115 127//127 118//118
f 103//103 106//106 107//107
f 160//160 156//156 153//153
f 126//126 125//125 113//113
f 121//121 109//109 119//119
f 136//136 145//145 141//141
f 111//111 122//122 110//110
f 117//117 112//112 110//110
f 134//134 122//122 120//120
f 131//131 128//128 142//142
f 148//148 131//131 142//142
f 128//128 131//131 118//118
f 156//156 159//159 157//157
f 150//150 138//138 147//147
f 133//133 149//149 136//136
f 158//158 154//154 151//151
f 106//106 114//114 107//107
f 148//148 134//134 131//131
f 123//123 114//114 125//125
f 154//154 142//142 151//151
f 160//160 154//154 158//158
f 121//121 127//127 115//115
f 108//108 111//111 102//102
f 109//109 103//103 107//107
f 127//127 121//121 135//135
f 142//142 139//139 151//151
f 104//104 115//115 108//108
f 161//161 160//160 158//158
f 154//154 148//148 142//142
f 138//138 143//143 126//126
f 145//145 149//149 157//157
f 105//105 112//112 113//113
f 156//156 150//150 147//147
f 112//112 105//105 110//110
f 135//135 137//137 146//146
f 123//123 136//136 130//130
f 145//145 159//159 152//152
f 144//144 139//139 135//135
f 149//149 150//150 157//157
f 114//114 116//116 107//107
f 144//144 155//155 151//151
f 123//123 133//133 136//136
f 116//116 119//119 107//107
f 161//161 155//155 152//152
f 149//149 133//133 143//143
f 109//109 104//104 103//103
f 138//138 150//150 143//143
f 133//133 123//123 125//125
f 148//148 154//154 153//153
f 134//134 148//148 140//140
f 132//132 138//138 124//124
f 104//104 108//108 102//102
f 122//122 134//134 129//129
f 137//137 119//119 130//130
f 111//111 110//110 102//102
f 125//125 114//114 113//113
f 144//144 135//135 146//146
f 139//139 144//144 151//151
f 138//138 132//132 147//147
f 103//103 104//104 102//102
f 130//130 136//136 141//141
f 141//141 145//145 152//152
f 137//137 121//121 119//119
f 154//154 160//160 153//153
f 122//122 111//111 120//120
f 112//112 126//126 113//113
f 150//150 156//156 157//157
f 117//117 122//122 129//129
f 115//115 104//104 109//109
f 119//119 109//109 107//107
f 105//105 106//106 103//103
f 119//119 116//116 130//130
f 147//147 132//132 140//140
f 121//121 137//137 135//135
f 105//105 103//103 102//102
f 143//143 133//133 125//125
f 159//159 145//145 157//157
f 114//114 106//106 113//113
f 120//120 108//108 118//118
f 137//137 141//141 146//146
f 155//155 144//144 146//146
f 126//126 143//143 125//125
f 155//155 161//161 158//158
f 117//117 132//132 124//124


## Object floor
v   1.0000 0.0000 -1.0400
v  -0.9900 0.0000 -1.0400
v  -1.0100 0.0000  0.9900
v   1.0000 0.0000  0.9900
# 4 vertices

vn 0.0000 1.0000 -0.0000
# 1 vertex normals

g floor
usemtl floor

s 1
f 162//162 163//162 164//162 
f 164//162 165//162 162//162 
# 2 faces

## Object ceiling 
v   1.0000 1.5900 -1.0400
v   1.0000 1.5900  0.9900
v  -1.0200 1.5900  0.9900
v  -1.0200 1.5900 -1.0400
# 4 vertices

vn 0.0000 -1.0000 -0.0000
# 1 vertex normals

g ceiling
usemtl ceiling

s 1
f 166//163 167//163 168//163 
f 168//163 169//163 166//163 
# 2 faces

## Object backwall 
v   1.0000 1.5900 -1.0400
v  -1.0200 1.5900 -1.0400
v  -0.9900 0.0000 -1.0400
v   1.0000 0.0000 -1.0400
# 4 vertices

vn 0.0000 0.0000 1.0000
# 1 vertex normals

g backWall
usemtl backWall

s 1
f 170//164 171//164 172//164 
f 172//164 173//164 170//164 
# 2 faces

## Object rightwall 
v  1.0000 1.5900 0.9900
v  1.0000 1.5900 -1.0400
v  1.0000 0.0000 -1.0400
v  1.0000 0.0000 0.9900
# 4 vertices

vn -1.0000 0.0000 -0.0000
# 1 vertex normals

g rightWall
usemtl rightWall

s 1
f 174//165 175//165 176//165 
f 176//165 177//165 174//165 
# 2 faces

## Object leftWall 
v  -1.0200 1.5900 -1.0400
v  -1.0200 1.5900 0.9900
v  -1.0100 0.0000 0.9900
v  -0.9900 0.0000 -1.0400
# 4 vertices

vn 0.9999 0.0135 0.0057
vn 1.0000 0.0063 -0.0000
vn 0.9999 0.0116 0.0042
vn 0.9998 0.0189 0.0098
# 4 vertex normals

g leftWall
usemtl leftWall

s 1
f 178//166 179//167 180//168 
f 180//168 181//169 178//166 
# 2 faces

## Object light
v  0.2300 1.5800 -0.2200
v  0.2300 1.5800 0.1600
v  -0.2400 1.5800 0.1600
v  -0.2400 1.5800 -0.2200
# 4 vertices

vn 0.0000 -1.0000 -0.0000
# 1 vertex normals

g light
usemtl light

s 1
f 182//170 183//170 184//170 
f 184//170 185//170 182//170 
# 2 faces
