mtllib CornellBox-Sphere.mtl

## Object leftSphere

v 0.0571281 0.527377 0.00932557
vn 0.762509 -0.646852 0.0127634
v 0.0552766 0.623785 -0.00375364
vn 0.827864 -0.5609 -0.00559632
v 0.0494395 0.570277 0.076162
vn 0.783041 -0.612426 0.108543
v 0.0390103 0.558762 -0.0652142
vn 0.770427 -0.630677 -0.093213
v 0.0154888 0.635349 -0.0849227
vn 0.809103 -0.57235 -0.133293
v 0.00777256 0.707751 -0.0129747
vn 0.866488 -0.498708 -0.0221406
v 0.0052672 0.479651 0.0764068
vn 0.6928 -0.713479 0.104766
v 0.0289532 0.655879 0.0780591
vn 0.831885 -0.5412 0.122764
v -0.00307313 0.469925 -0.0437905
vn 0.682689 -0.728229 -0.0601603
v -0.0354161 0.546669 -0.129628
vn 0.701863 -0.684863 -0.195833
v -0.0660847 0.427006 0.0263515
vn 0.603301 -0.796672 0.0366382
v -0.0146325 0.570504 0.151124
vn 0.72933 -0.645376 0.227084
v -0.103418 0.445235 -0.0819672
vn 0.577395 -0.807697 -0.119338
v -0.0874768 0.465461 0.132957
vn 0.599445 -0.776749 0.193203
v -0.064866 0.681033 -0.13815
vn 0.781313 -0.572728 -0.248058
v -0.0447975 0.718905 0.130105
vn 0.826752 -0.510533 0.2363
v -0.16643 0.4098 0.0412014
vn 0.491128 -0.868973 0.0606624
v -0.141729 0.542808 -0.171964
vn 0.591433 -0.754732 -0.283878
v -0.19875 0.466606 0.165464
vn 0.474754 -0.840602 0.260763
v -0.0674205 0.781885 -0.0275061
vn 0.891479 -0.449501 -0.0566857
v -0.112238 0.571553 0.205527
vn 0.63223 -0.698564 0.335103
v -0.183899 0.658863 -0.197835
vn 0.625443 -0.674979 -0.391438
v -0.144443 0.774636 -0.131088
vn 0.806432 -0.511145 -0.297317
v -0.164376 0.852126 -0.0249176
vn 0.91301 -0.402267 -0.0677843
v -0.111148 0.814504 0.0745877
vn 0.889335 -0.424245 0.170588
v -0.142675 0.68162 0.218399
vn 0.679241 -0.60521 0.415155
v -0.140142 0.778974 0.16581
vn 0.793164 -0.487165 0.365461
v -0.230689 0.75243 0.231531
vn 0.62207 -0.571851 0.534804
v -0.235313 0.592547 0.244041
vn 0.486806 -0.749378 0.448835
v -0.263396 0.548604 -0.192522
vn 0.434297 -0.828557 -0.353382
v -0.279127 0.414535 0.0598898
vn 0.351372 -0.931376 0.0952746
v -0.234708 0.436365 -0.0910703
vn 0.421386 -0.89527 -0.144655
v -0.238841 0.843045 -0.123004
vn 0.794796 -0.477667 -0.374344
v -0.214804 0.862428 0.121853
vn 0.840592 -0.405483 0.359151
v -0.341127 0.476946 -0.133214
vn 0.282366 -0.92963 -0.236763
v -0.312112 0.663999 -0.222575
vn 0.422527 -0.755606 -0.500531
v -0.236876 0.751151 -0.190245
vn 0.643197 -0.608301 -0.465046
v -0.315775 0.474931 0.17649
vn 0.315579 -0.899448 0.30233
v -0.345977 0.42847 -0.0366255
vn 0.259713 -0.963709 -0.0617576
v -0.263983 0.907327 -0.0103495
vn 0.930041 -0.365186 -0.0407828
v -0.331618 0.785533 -0.199883
vn 0.498045 -0.634358 -0.59122
v -0.353604 0.568364 0.243638
vn 0.283264 -0.83518 0.471419
v -0.323988 0.920344 0.108112
vn 0.795031 -0.359801 0.488333
v -0.457154 0.472175 -0.0769456
vn 0.0800676 -0.986364 -0.143791
v -0.394893 0.561067 -0.194446
vn 0.213872 -0.893146 -0.395662
v -0.318871 0.836095 0.215344
vn 0.556214 -0.503323 0.661281
v -0.438149 0.50196 0.181152
vn 0.115921 -0.93343 0.339516
v -0.330592 0.690972 0.267295
vn 0.383 -0.698658 0.604308
v -0.401419 0.440564 0.071317
vn 0.172189 -0.977156 0.124568
v -0.341963 0.890129 -0.121575
vn 0.694189 -0.482617 -0.534025
v -0.452088 0.699931 -0.225478
vn 0.126622 -0.79302 -0.595891
v -0.375683 0.950482 -0.00921061
vn 0.92682 -0.369174 -0.0686678
v -0.530538 0.48094 0.0770106
vn -0.0580987 -0.987501 0.146511
v -0.517101 0.570055 -0.169093
vn -0.0369894 -0.929978 -0.36575
v -0.427232 0.897879 0.193988
vn 0.315031 -0.442105 0.83982
v -0.441481 0.777226 0.263116
vn 0.167345 -0.637062 0.752428
v -0.452241 0.625821 0.25848
vn 0.104443 -0.818275 0.565258
v -0.421815 0.835988 -0.190028
vn 0.297379 -0.623825 -0.722778
v -0.425832 0.958224 0.0914828
vn 0.593528 -0.334312 0.732093
v -0.455936 0.923504 -0.120193
vn 0.295475 -0.512949 -0.805964
v -0.604267 0.531099 -0.0636315
vn -0.215183 -0.967704 -0.131321
v -0.558904 0.560493 0.193043
vn -0.121794 -0.908759 0.399152
v -0.493935 0.980842 0.000952777
vn 0.301478 -0.952296 0.0473599
v -0.558842 0.696057 0.257675
vn -0.146086 -0.754593 0.639726
v -0.550778 0.850429 0.238105
vn -0.177711 -0.523464 0.833309
v -0.530091 0.957843 0.138699
vn -0.203241 -0.284743 0.936811
v -0.527367 0.827516 -0.198842
vn -0.103411 -0.651753 -0.751348
v -0.568541 0.948676 -0.104762
vn -0.506571 -0.379326 -0.774272
v -0.675275 0.766646 0.232171
vn -0.469991 -0.625727 0.622555
v -0.656193 0.63532 0.198122
vn -0.35223 -0.822386 0.446783
v -0.638179 0.851372 -0.176952
vn -0.5132 -0.552006 -0.657202
v -0.655935 0.553288 0.0908375
vn -0.323659 -0.927198 0.188543
v -0.716825 0.593863 -0.0325439
vn -0.469786 -0.87996 -0.0705113
v -0.6959 0.950186 -0.0882285
vn -0.888232 -0.225862 -0.400039
v -0.613386 0.992312 0.0305542
vn -0.963495 -0.0653307 0.259633
v -0.658501 0.917737 0.181613
vn -0.622299 -0.322978 0.713043
v -0.766164 0.66168 0.124218
vn -0.594072 -0.755123 0.277251
v -0.630556 0.679949 -0.184435
vn -0.333235 -0.816909 -0.47076
v -0.784689 0.834766 0.171829
vn -0.766704 -0.444996 0.462757
v -0.742632 0.813289 -0.153028
vn -0.70889 -0.545507 -0.447098
v -0.755202 0.688686 -0.115719
vn -0.609291 -0.74326 -0.276277
v -0.807334 0.670419 -0.0103599
vn -0.681812 -0.731166 -0.0229832
v -0.75164 0.968407 0.0648967
vn -0.96124 -0.120682 0.247899
v -0.824086 0.900817 -0.0622901
vn -0.94047 -0.287821 -0.180761
v -0.830357 0.757823 -0.0774177
vn -0.792474 -0.580944 -0.185713
v -0.863657 0.75987 0.0558782
vn -0.827709 -0.546555 0.127183
v -0.846676 0.893611 0.0832408
vn -0.931763 -0.285943 0.223726
v -0.119565 0.609441 0.0226401
vn 0.69716 -0.715714 0.0414888
v -0.327937 0.667052 0.0185907
vn 0.45854 -0.887292 0.0495435
v -0.723335 0.807007 0.0327383
vn -0.752023 -0.649853 0.110238
v -0.551805 0.795893 -0.0917203
vn -0.225546 -0.888632 -0.399327
v -0.658789 0.772987 -0.0799725
vn -0.550686 -0.787289 -0.277347
v -0.609477 0.791085 0.150613
vn -0.391201 -0.74653 0.538195
v -0.644452 0.692241 0.00868857
vn -0.424755 -0.904948 0.0255483
v -0.574976 0.840317 0.0311673
vn -0.418531 -0.891382 0.173982
v -0.431908 0.83112 0.078606
vn 0.343323 -0.851498 0.396335
v -0.513495 0.653138 -0.00959072
vn -0.0388615 -0.998863 -0.0276185
v -0.518429 0.746318 0.139346
vn -0.0635425 -0.874707 0.480469
v -0.640753 0.867857 -0.0639374
vn -0.692089 -0.649751 -0.314383
v -0.440672 0.802129 -0.0702973
vn 0.271888 -0.906803 -0.322158
g leftSphere
usemtl leftSphere

s 1
f 75//75 76//76 66//66
f 77//77 82//82 73//73
f 46//46 43//43 55//55
f 72//72 77//77 73//73
f 43//43 59//59 55//55
f 77//77 86//86 82//82
f 53//53 44//44 49//49
f 8//8 12//12 3//3
f 3//3 12//12 7//7
f 2//2 8//8 3//3
f 74//74 84//84 83//83
f 74//74 68//68 71//71
f 79//79 87//87 86//86
f 2//2 4//4 5//5
f 38//38 47//47 49//49
f 76//76 83//83 79//79
f 50//50 58//58 60//60
f 46//46 34//34 43//43
f 30//30 22//22 18//18
f 75//75 66//66 63//63
f 20//20 25//25 16//16
f 6//6 15//15 20//20
f 52//52 50//50 60//60
f 2//2 3//3 1//1
f 36//36 45//45 51//51
f 66//66 55//55 59//59
f 16//16 26//26 21//21
f 16//16 25//25 27//27
f 50//50 52//52 40//40
f 13//13 10//10 9//9
f 24//24 25//25 20//20
f 44//44 39//39 49//49
f 14//14 19//19 17//17
f 24//24 23//23 33//33
f 31//31 19//19 38//38
f 22//22 15//15 18//18
f 43//43 34//34 40//40
f 31//31 39//39 32//32
f 16//16 8//8 6//6
f 21//21 26//26 29//29
f 57//57 56//56 64//64
f 47//47 62//62 53//53
f 3//3 7//7 1//1
f 29//29 48//48 42//42
f 30//30 45//45 36//36
f 76//76 69//69 65//65
f 28//28 34//34 46//46
f 17//17 11//11 14//14
f 46//46 56//56 48//48
f 84//84 80//80 85//85
f 43//43 52//52 59//59
f 77//77 69//69 79//79
f 56//56 55//55 65//65
f 67//67 51//51 78//78
f 75//75 83//83 76//76
f 17//17 32//32 13//13
f 48//48 28//28 46//46
f 6//6 8//8 2//2
f 79//79 69//69 76//76
f 44//44 45//45 35//35
f 5//5 6//6 2//2
f 16//16 12//12 8//8
f 58//58 41//41 51//51
f 21//21 12//12 16//16
f 48//48 56//56 57//57
f 58//58 51//51 67//67
f 23//23 15//15 22//22
f 27//27 34//34 28//28
f 73//73 81//81 78//78
f 14//14 12//12 21//21
f 10//10 15//15 5//5
f 80//80 84//84 74//74
f 29//29 19//19 21//21
f 70//70 77//77 72//72
f 24//24 34//34 25//25
f 28//28 26//26 27//27
f 49//49 39//39 31//31
f 40//40 33//33 50//50
f 83//83 84//84 87//87
f 5//5 15//15 6//6
f 17//17 19//19 31//31
f 38//38 29//29 42//42
f 49//49 47//47 53//53
f 68//68 67//67 71//71
f 9//9 11//11 13//13
f 42//42 47//47 38//38
f 65//65 66//66 76//76
f 1//1 4//4 2//2
f 85//85 81//81 82//82
f 68//68 60//60 67//67
f 16//16 6//6 20//20
f 79//79 86//86 77//77
f 13//13 11//11 17//17
f 86//86 85//85 82//82
f 39//39 44//44 35//35
f 64//64 56//56 65//65
f 78//78 61//61 73//73
f 79//79 83//83 87//87
f 54//54 61//61 78//78
f 87//87 84//84 86//86
f 73//73 61//61 72//72
f 84//84 85//85 86//86
f 48//48 57//57 42//42
f 59//59 63//63 66//66
f 25//25 34//34 27//27
f 14//14 11//11 7//7
f 28//28 48//48 29//29
f 29//29 26//26 28//28
f 51//51 54//54 78//78
f 70//70 62//62 64//64
f 20//20 23//23 24//24
f 54//54 45//45 44//44
f 32//32 30//30 18//18
f 74//74 75//75 68//68
f 71//71 80//80 74//74
f 65//65 55//55 66//66
f 74//74 83//83 75//75
f 56//56 46//46 55//55
f 53//53 72//72 61//61
f 71//71 78//78 80//80
f 62//62 47//47 57//57
f 71//71 67//67 78//78
f 58//58 67//67 60//60
f 80//80 81//81 85//85
f 13//13 18//18 10//10
f 59//59 52//52 63//63
f 21//21 19//19 14//14
f 44//44 53//53 61//61
f 9//9 4//4 1//1
f 77//77 70//70 69//69
f 37//37 23//23 22//22
f 1//1 7//7 9//9
f 5//5 4//4 10//10
f 62//62 57//57 64//64
f 80//80 78//78 81//81
f 33//33 23//23 37//37
f 40//40 34//34 24//24
f 32//32 18//18 13//13
f 50//50 41//41 58//58
f 75//75 63//63 68//68
f 37//37 41//41 33//33
f 10//10 4//4 9//9
f 7//7 11//11 9//9
f 63//63 52//52 60//60
f 57//57 47//47 42//42
f 49//49 31//31 38//38
f 35//35 32//32 39//39
f 31//31 32//32 17//17
f 73//73 82//82 81//81
f 30//30 32//32 35//35
f 20//20 15//15 23//23
f 27//27 26//26 16//16
f 35//35 45//45 30//30
f 36//36 37//37 22//22
f 7//7 12//12 14//14
f 36//36 41//41 37//37
f 18//18 15//15 10//10
f 70//70 64//64 69//69
f 33//33 41//41 50//50
f 54//54 44//44 61//61
f 24//24 33//33 40//40
f 51//51 45//45 54//54
f 40//40 52//52 43//43
f 38//38 19//19 29//29
f 51//51 41//41 36//36
f 72//72 62//62 70//70
f 22//22 30//30 36//36
f 53//53 62//62 72//72
f 69//69 64//64 65//65
f 63//63 60//60 68//68

## Object rightSphere

v -0.5875 0.25 0
vn 0 0 0
v -0.3375 0.25 0
vn 1 0 0
v -0.363893 0.361804 0
vn 0.894427 0.447214 0
v -0.356335 0.298578 0.0818727
vn 0.924658 0.194311 0.327491
v -0.365269 0.304668 -0.100621
vn 0.888925 0.218673 -0.402486
v -0.403472 0.399769 -0.078758
vn 0.736112 0.599077 -0.315032
v -0.432693 0.446087 0.00919147
vn 0.61923 0.784348 0.0367659
v -0.363941 0.188416 0.0934285
vn 0.894236 -0.246334 0.373714
v -0.410629 0.387968 0.110368
vn 0.707486 0.551874 0.441473
v -0.367473 0.191604 -0.103335
vn 0.880107 -0.233582 -0.413341
v -0.358458 0.149801 -8.75488e-05
vn 0.916168 -0.400795 -0.000350195
v -0.421135 0.251713 -0.186601
vn 0.665458 0.00685229 -0.746404
v -0.444167 0.364414 -0.169897
vn 0.573332 0.457656 -0.67959
v -0.485119 0.455304 -0.0993403
vn 0.409525 0.821214 -0.397361
v -0.409409 0.274129 0.173785
vn 0.712366 0.096514 0.69514
v -0.527304 0.492563 -0.00629535
vn 0.240784 0.970252 -0.0251814
v -0.442748 0.137095 -0.169703
vn 0.579009 -0.45162 -0.678813
v -0.436004 0.146356 0.169726
vn 0.605982 -0.414577 0.678905
v -0.511892 0.464419 0.103961
vn 0.302433 0.857675 0.415846
v -0.414726 0.0800885 0.061474
vn 0.691098 -0.679646 0.245896
v -0.500173 0.374247 0.198587
vn 0.349309 0.496986 0.794347
v -0.413442 0.0814998 -0.0617362
vn 0.696233 -0.674001 -0.246945
v -0.596483 0.483348 -0.0892645
vn -0.035932 0.933391 -0.357058
v -0.502895 0.196054 -0.22898
vn 0.338418 -0.215782 -0.915921
v -0.54919 0.415044 -0.183828
vn 0.153241 0.660177 -0.735312
v -0.518203 0.302872 -0.234313
vn 0.277186 0.211488 -0.937252
v -0.506754 0.236186 0.236198
vn 0.322982 -0.0552575 0.944791
v -0.533178 0.122009 0.207768
vn 0.21729 -0.511964 0.83107
v -0.500781 0.048265 -0.119511
vn 0.346876 -0.80694 -0.478043
v -0.627208 0.494429 0.0343175
vn -0.158833 0.977716 0.13727
v -0.514707 0.0432995 0.120316
vn 0.291174 -0.826802 0.481264
v -0.556411 0.102098 -0.199144
vn 0.124357 -0.591609 -0.796576
v -0.652097 0.431072 -0.159813
vn -0.258388 0.724289 -0.639251
v -0.502034 0.0151782 -0.0073646
vn 0.341866 -0.939287 -0.0294584
v -0.606661 0.322435 0.238508
vn -0.0766425 0.289742 0.954031
v -0.709291 0.458556 -0.0645855
vn -0.487165 0.834224 -0.258342
v -0.620815 0.440442 0.158499
vn -0.133259 0.761769 0.633996
v -0.609796 0.20734 -0.245322
vn -0.0891821 -0.170641 -0.981289
v -0.615078 0.185665 0.240001
vn -0.11031 -0.257341 0.960004
v -0.604107 0.0208233 -0.0985003
vn -0.0664263 -0.916707 -0.394001
v -0.738032 0.440036 0.0610438
vn -0.602127 0.760145 0.244175
v -0.625648 0.0683658 0.167492
vn -0.152591 -0.726537 0.66997
v -0.639455 0.335107 -0.229254
vn -0.207822 0.340429 -0.917016
v -0.70028 0.256923 0.223008
vn -0.451122 0.0276906 0.892033
v -0.798255 0.376885 -0.044525
vn -0.843022 0.507538 -0.1781
v -0.728947 0.364011 0.171739
vn -0.565787 0.456045 0.686955
v -0.682286 0.105617 -0.180746
vn -0.379144 -0.577531 -0.722985
v -0.618059 0.00569375 0.0433655
vn -0.122236 -0.977225 0.173462
v -0.740168 0.370642 -0.156965
vn -0.610673 0.482569 -0.627859
v -0.725921 0.239512 -0.207917
vn -0.553685 -0.0419533 -0.831669
v -0.716083 0.147342 0.188223
vn -0.514331 -0.410633 0.752891
v -0.811335 0.338188 0.0679763
vn -0.89534 0.352752 0.271905
v -0.726307 0.0495782 -0.0553525
vn -0.555226 -0.801687 -0.22141
v -0.728081 0.0603012 0.082167
vn -0.562323 -0.758795 0.328668
v -0.781603 0.249774 0.157556
vn -0.776413 -0.000904782 0.630224
v -0.790415 0.161365 -0.116058
vn -0.811658 -0.354539 -0.464234
v -0.800165 0.278246 -0.128358
vn -0.85066 0.112984 -0.513432
v -0.788956 0.146983 0.106315
vn -0.805824 -0.412069 0.42526
v -0.835034 0.250792 -0.035022
vn -0.990134 0.00316965 -0.140088
v -0.805951 0.128435 0.00096488
vn -0.873805 -0.486261 0.00385952
v -0.827736 0.222041 0.063286
vn -0.960943 -0.111836 0.253144
g rightSphere
usemtl rightSphere

s 1
f 160//160 161//161 159//159
f 159//159 161//161 152//152
f 156//156 160//160 159//159
f 134//134 120//120 131//131
f 153//153 156//156 147//147
f 155//155 158//158 151//151
f 139//139 128//128 127//127
f 116//116 123//123 130//130
f 112//112 117//117 124//124
f 150//150 149//149 143//143
f 126//126 112//112 124//124
f 139//139 127//127 135//135
f 152//152 155//155 146//146
f 120//120 111//111 108//108
f 110//110 105//105 102//102
f 132//132 117//117 129//129
f 138//138 126//126 124//124
f 106//106 105//105 113//113
f 127//127 128//128 118//118
f 137//137 130//130 141//141
f 121//121 115//115 109//109
f 141//141 152//152 146//146
f 131//131 120//120 118//118
f 128//128 139//139 142//142
f 149//149 145//145 136//136
f 122//122 117//117 110//110
f 123//123 116//116 114//114
f 153//153 147//147 140//140
f 129//129 134//134 140//140
f 132//132 129//129 140//140
f 108//108 115//115 118//118
f 148//148 153//153 140//140
f 115//115 127//127 118//118
f 103//103 106//106 107//107
f 160//160 156//156 153//153
f 126//126 125//125 113//113
f 121//121 109//109 119//119
f 136//136 145//145 141//141
f 111//111 122//122 110//110
f 117//117 112//112 110//110
f 134//134 122//122 120//120
f 131//131 128//128 142//142
f 148//148 131//131 142//142
f 128//128 131//131 118//118
f 156//156 159//159 157//157
f 150//150 138//138 147//147
f 133//133 149//149 136//136
f 158//158 154//154 151//151
f 106//106 114//114 107//107
f 148//148 134//134 131//131
f 123//123 114//114 125//125
f 154//154 142//142 151//151
f 160//160 154//154 158//158
f 121//121 127//127 115//115
f 108//108 111//111 102//102
f 109//109 103//103 107//107
f 127//127 121//121 135//135
f 142//142 139//139 151//151
f 104//104 115//115 108//108
f 161//161 160//160 158//158
f 154//154 148//148 142//142
f 138//138 143//143 126//126
f 145//145 149//149 157//157
f 105//105 112//112 113//113
f 156//156 150//150 147//147
f 112//112 105//105 110//110
f 135//135 137//137 146//146
f 123//123 136//136 130//130
f 145//145 159//159 152//152
f 144//144 139//139 135//135
f 149//149 150//150 157//157
f 114//114 116//116 107//107
f 144//144 155//155 151//151
f 123//123 133//133 136//136
f 116//116 119//119 107//107
f 161//161 155//155 152//152
f 149//149 133//133 143//143
f 109//109 104//104 103//103
f 138//138 150//150 143//143
f 133//133 123//123 125//125
f 148//148 154//154 153//153
f 134//134 148//148 140//140
f 132//132 138//138 124//124
f 104//104 108//108 102//102
f 122//122 134//134 129//129
f 137//137 119//119 130//130
f 111//111 110//110 102//102
f 125//125 114//114 113//113
f 144//144 135//135 146//146
f 139//139 144//144 151//151
f 138//138 132//132 147//147
f 103//103 104//104 102//102
f 130//130 136//136 141//141
f 141//141 145//145 152//152
f 137//137 121//121 119//119
f 154//154 160//160 153//153
f 122//122 111//111 120//120
f 112//112 126//126 113//113
f 150//150 156//156 157//157
f 117//117 122//122 129//129
f 115//115 104//104 109//109
f 119//119 109//109 107//107
f 105//105 106//106 103//103
f 119//119 116//116 130//130
f 147//147 132//132 140//140
f 121//121 137//137 135//135
f 105//105 103//103 102//102
f 143//143 133//133 125//125
f 159//159 145//145 157//157
f 114//114 106//106 113//113
f 120//120 108//108 118//118
f 137//137 141//141 146//146
f 155//155 144//144 146//146
f 126//126 143//143 125//125
f 155//155 161//161 158//158
f 117//117 132//132 124//124


## Object floor
v   1.0000 0.0000 -1.0400
v  -0.9900 0.0000 -1.0400
v  -1.0100 0.0000  0.9900
v   1.0000 0.0000  0.9900
# 4 vertices

vn 0.0000 1.0000 -0.0000
# 1 vertex normals

g floor
usemtl floor

s 1
f 162//162 163//162 164//162 
f 164//162 165//162 162//162 
# 2 faces

## Object ceiling 
v   1.0000 1.5900 -1.0400
v   1.0000 1.5900  0.9900
v  -1.0200 1.5900  0.9900
v  -1.0200 1.5900 -1.0400
# 4 vertices

vn 0.0000 -1.0000 -0.0000
# 1 vertex normals

g ceiling
usemtl ceiling

s 1
f 166//163 167//163 168//163 
f 168//163 169//163 166//163 
# 2 faces

## Object backwall 
v   1.0000 1.5900 -1.0400
v  -1.0200 1.5900 -1.0400
v  -0.9900 0.0000 -1.0400
v   1.0000 0.0000 -1.0400
# 4 vertices

vn 0.0000 0.0000 1.0000
# 1 vertex normals

g backWall
usemtl backWall

s 1
f 170//164 171//164 172//164 
f 172//164 173//164 170//164 
# 2 faces

## Object rightwall 
v  1.0000 1.5900 0.9900
v  1.0000 1.5900 -1.0400
v  1.0000 0.0000 -1.0400
v  1.0000 0.0000 0.9900
# 4 vertices

vn -1.0000 0.0000 -0.0000
# 1 vertex normals

g rightWall
usemtl rightWall

s 1
f 174//165 175//165 176//165 
f 176//165 177//165 174//165 
# 2 faces

## Object leftWall 
v  -1.0200 1.5900 -1.0400
v  -1.0200 1.5900 0.9900
v  -1.0100 0.0000 0.9900
v  -0.9900 0.0000 -1.0400
# 4 vertices

vn 0.9999 0.0135 0.0057
vn 1.0000 0.0063 -0.0000
vn 0.9999 0.0116 0.0042
vn 0.9998 0.0189 0.0098
# 4 vertex normals

g leftWall
usemtl leftWall

s 1
f 178//166 179//167 180//168 
f 180//168 181//169 178//166 
# 2 faces

## Object light
v  0.2300 1.5800 -0.2200
v  0.2300 1.5800 0.1600
v  -0.2400 1.5800 0.1600
v  -0.2400 1.5800 -0.2200
# 4 vertices

vn 0.0000 -1.0000 -0.0000
# 1 vertex normals

g light
usemtl light

s 1
f 182//170 183//170 184//170 
f 184//170 185//170 182//170 
# 2 faces
