mtllib CornellBox-Sphere.mtl

## Object leftSphere

v 0.0775714 0.451432 0.0722138
vn 0.722116 -0.685855 0.0902862
v 0.112971 0.526067 0.0208466
vn 0.790828 -0.611447 0.0268954
v 0.108467 0.511434 0.115893
vn 0.771287 -0.619302 0.146905
v 0.0538531 0.462168 -0.00666706
vn 0.71738 -0.696629 -0.00863553
v 0.0607591 0.529859 -0.0537484
vn 0.76425 -0.640747 -0.0732529
v 0.104865 0.615453 -0.017148
vn 0.843652 -0.536357 -0.0239177
v 0.032168 0.459717 0.1571
vn 0.687147 -0.697625 0.202851
v 0.127091 0.591945 0.0845784
vn 0.832866 -0.541955 0.112332
v -0.0139192 0.418499 0.0521872
vn 0.639834 -0.765437 0.0686947
v -0.0329784 0.470694 -0.0544546
vn 0.659652 -0.747625 -0.0769152
v -0.0665194 0.43639 0.137438
vn 0.598573 -0.778263 0.189782
v 0.0742475 0.566663 0.190333
vn 0.771676 -0.582321 0.255771
v -0.121376 0.438257 0.0331237
vn 0.558246 -0.828237 0.0488378
v -0.0394875 0.509489 0.221804
vn 0.650049 -0.692393 0.313094
v -0.00247341 0.592719 -0.113117
vn 0.76209 -0.623856 -0.173268
v 0.103211 0.696611 0.115158
vn 0.880652 -0.44293 0.168124
v -0.157618 0.476075 0.162922
vn 0.529401 -0.810107 0.251914
v -0.135972 0.511948 -0.0847308
vn 0.592177 -0.793932 -0.137835
v -0.130889 0.57106 0.258961
vn 0.593112 -0.68925 0.416115
v 0.0674498 0.710796 -0.0504023
vn 0.888183 -0.452667 -0.0788906
v 0.00230718 0.628628 0.250433
vn 0.746356 -0.551805 0.372107
v -0.128179 0.621809 -0.149321
vn 0.674839 -0.6864 -0.271011
v -0.0281995 0.714379 -0.13402
vn 0.831263 -0.503234 -0.236129
v 0.0140802 0.819351 -0.061796
vn 0.937436 -0.329418 -0.112686
v 0.0693844 0.790902 0.0372837
vn 0.936935 -0.344075 0.0613513
v 0.0240203 0.736898 0.22424
vn 0.834724 -0.419101 0.357198
v 0.0526243 0.801761 0.138906
vn 0.915982 -0.328584 0.230239
v -0.0219198 0.840453 0.222319
vn 0.867887 -0.289635 0.403588
v -0.0898814 0.713103 0.292083
vn 0.707712 -0.495077 0.504027
v -0.242145 0.576082 -0.0974156
vn 0.509944 -0.838356 -0.192653
v -0.250157 0.541126 0.184879
vn 0.450796 -0.827954 0.33358
v -0.239832 0.49704 0.0335262
vn 0.458643 -0.886653 0.0591023
v -0.0751165 0.82547 -0.138809
vn 0.885453 -0.363719 -0.289278
v 0.0104343 0.895585 0.0778856
vn 0.968945 -0.198208 0.147848
v -0.324753 0.574406 -0.0150558
vn 0.38055 -0.924182 -0.0326939
v -0.237573 0.690631 -0.162643
vn 0.600424 -0.707825 -0.372122
v -0.129432 0.729481 -0.169644
vn 0.757555 -0.553025 -0.346806
v -0.232084 0.637646 0.27408
vn 0.50795 -0.686997 0.519635
v -0.327422 0.560577 0.0918165
vn 0.358832 -0.91367 0.190909
v -0.0439107 0.923264 -0.051789
vn 0.980015 -0.164884 -0.111281
v -0.19348 0.808406 -0.18126
vn 0.758011 -0.473805 -0.44825
v -0.209844 0.74889 0.309817
vn 0.588329 -0.509157 0.628194
v -0.0654806 0.994862 0.064266
vn 0.989171 -0.0116968 0.1463
v -0.414865 0.643 0.0400815
vn 0.230597 -0.966974 0.108565
v -0.345478 0.659519 -0.0981773
vn 0.399715 -0.880755 -0.253965
v -0.0717658 0.947303 0.192534
vn 0.906367 -0.111535 0.407503
v -0.329305 0.719993 0.274607
vn 0.399074 -0.654641 0.642016
v -0.130639 0.84459 0.290767
vn 0.746031 -0.313895 0.587288
v -0.349059 0.623648 0.189642
vn 0.337187 -0.840733 0.423642
v -0.14131 0.921527 -0.140783
vn 0.912144 -0.199556 -0.358009
v -0.337394 0.797283 -0.169767
vn 0.52384 -0.653057 -0.546908
v -0.122324 1.01782 -0.0498807
vn 0.990307 0.0467389 -0.130793
v -0.441755 0.722244 0.184955
vn 0.171941 -0.819952 0.546
v -0.440857 0.735707 -0.0755845
vn 0.210338 -0.939945 -0.268813
v -0.147257 1.04649 0.166564
vn 0.897905 0.11833 0.423987
v -0.196727 0.969462 0.270603
vn 0.744056 -0.0749216 0.663903
v -0.272579 0.847579 0.312348
vn 0.547543 -0.366973 0.752016
v -0.245713 0.903262 -0.180741
vn 0.778516 -0.296169 -0.55335
v -0.142131 1.07313 0.0500716
vn 0.970676 0.19835 0.135813
v -0.223721 1.01229 -0.137659
vn 0.894341 0.0397751 -0.445615
v -0.513239 0.766845 0.0379318
vn -0.0559577 -0.985477 0.160327
v -0.41027 0.828925 0.272761
vn 0.268459 -0.511831 0.816063
v -0.210902 1.10672 -0.035839
vn 0.931843 0.343981 -0.115519
v -0.341166 0.956656 0.297029
vn 0.467699 -0.127629 0.874624
v -0.269652 1.07831 0.23258
vn 0.684379 0.232657 0.691011
v -0.224577 1.13506 0.104064
vn 0.85026 0.416956 0.321256
v -0.342194 0.950232 -0.179141
vn 0.647099 -0.204076 -0.734585
v -0.309554 1.09533 -0.122284
vn 0.775489 0.388169 -0.497937
v -0.418854 1.06644 0.258421
vn 0.29096 0.238218 0.926604
v -0.466613 0.93792 0.261658
vn 0.123207 -0.229088 0.965577
v -0.42636 1.03202 -0.158349
vn 0.414765 0.180335 -0.89188
v -0.521399 0.844278 0.181956
vn -0.0889956 -0.647633 0.756737
v -0.581509 0.882395 0.0576859
vn -0.528317 -0.762285 0.373903
v -0.41966 1.16362 -0.0997867
vn 0.386613 0.787367 -0.480191
v -0.304353 1.18393 -0.00406437
vn 0.728508 0.68487 -0.015134
v -0.34427 1.17631 0.165524
vn 0.541413 0.612955 0.575463
v -0.566661 0.999748 0.190558
vn -0.330199 -0.00125057 0.943911
v -0.494538 0.882839 -0.117129
vn 0.0329517 -0.706819 -0.706626
v -0.493023 1.1692 0.188872
vn 0.027505 0.667001 0.744549
v -0.531675 1.05586 -0.11759
vn -0.236409 0.416922 -0.87766
v -0.589305 0.965549 -0.0448319
vn -0.844902 -0.325941 -0.42415
v -0.623256 1.00021 0.063214
vn -0.8898 0.0015401 0.456349
v -0.426653 1.24253 0.0441859
vn 0.285167 0.942957 0.171792
v -0.548034 1.19249 -0.052153
vn -0.234156 0.938369 -0.254234
v -0.618093 1.07067 -0.0238228
vn -0.845502 0.505998 -0.170563
v -0.618861 1.12091 0.10584
vn -0.594686 0.604926 0.52954
v -0.538558 1.23223 0.0903882
vn -0.152904 0.920945 0.358442
v -0.0353057 0.610704 0.067591
vn 0.761835 -0.638223 0.110811
v -0.193485 0.763521 0.0655495
vn 0.78064 -0.602272 0.166943
v -0.481996 1.08568 0.0603409
vn 0.169325 0.805785 0.567485
v -0.358118 0.961364 -0.0666882
vn 0.878722 -0.239289 -0.413023
v -0.461428 0.997761 -0.0412539
vn 0.682427 -0.0396055 -0.72988
v -0.365944 1.03796 0.17009
vn 0.609706 0.172663 0.773593
v -0.467951 0.940883 0.0655722
vn 0.341223 -0.629413 0.698145
v -0.338748 1.03672 0.0394112
vn 0.948476 0.216 0.231814
v -0.205402 0.966595 0.0778943
vn 0.961019 -0.10897 0.254102
v -0.369829 0.840486 0.0518397
vn 0.61311 -0.751318 0.244167
v -0.305598 0.953752 0.167664
vn 0.745267 -0.177299 0.642761
v -0.402044 1.07266 -0.055357
vn 0.731365 0.542478 -0.413308
v -0.253015 0.913596 -0.0551775
vn 0.923596 -0.323105 -0.206335
g leftSphere
usemtl leftSphere

s 1
f 75//75 76//76 66//66
f 77//77 82//82 73//73
f 46//46 43//43 55//55
f 72//72 77//77 73//73
f 43//43 59//59 55//55
f 77//77 86//86 82//82
f 53//53 44//44 49//49
f 8//8 12//12 3//3
f 3//3 12//12 7//7
f 2//2 8//8 3//3
f 74//74 84//84 83//83
f 74//74 68//68 71//71
f 79//79 87//87 86//86
f 2//2 4//4 5//5
f 38//38 47//47 49//49
f 76//76 83//83 79//79
f 50//50 58//58 60//60
f 46//46 34//34 43//43
f 30//30 22//22 18//18
f 75//75 66//66 63//63
f 20//20 25//25 16//16
f 6//6 15//15 20//20
f 52//52 50//50 60//60
f 2//2 3//3 1//1
f 36//36 45//45 51//51
f 66//66 55//55 59//59
f 16//16 26//26 21//21
f 16//16 25//25 27//27
f 50//50 52//52 40//40
f 13//13 10//10 9//9
f 24//24 25//25 20//20
f 44//44 39//39 49//49
f 14//14 19//19 17//17
f 24//24 23//23 33//33
f 31//31 19//19 38//38
f 22//22 15//15 18//18
f 43//43 34//34 40//40
f 31//31 39//39 32//32
f 16//16 8//8 6//6
f 21//21 26//26 29//29
f 57//57 56//56 64//64
f 47//47 62//62 53//53
f 3//3 7//7 1//1
f 29//29 48//48 42//42
f 30//30 45//45 36//36
f 76//76 69//69 65//65
f 28//28 34//34 46//46
f 17//17 11//11 14//14
f 46//46 56//56 48//48
f 84//84 80//80 85//85
f 43//43 52//52 59//59
f 77//77 69//69 79//79
f 56//56 55//55 65//65
f 67//67 51//51 78//78
f 75//75 83//83 76//76
f 17//17 32//32 13//13
f 48//48 28//28 46//46
f 6//6 8//8 2//2
f 79//79 69//69 76//76
f 44//44 45//45 35//35
f 5//5 6//6 2//2
f 16//16 12//12 8//8
f 58//58 41//41 51//51
f 21//21 12//12 16//16
f 48//48 56//56 57//57
f 58//58 51//51 67//67
f 23//23 15//15 22//22
f 27//27 34//34 28//28
f 73//73 81//81 78//78
f 14//14 12//12 21//21
f 10//10 15//15 5//5
f 80//80 84//84 74//74
f 29//29 19//19 21//21
f 70//70 77//77 72//72
f 24//24 34//34 25//25
f 28//28 26//26 27//27
f 49//49 39//39 31//31
f 40//40 33//33 50//50
f 83//83 84//84 87//87
f 5//5 15//15 6//6
f 17//17 19//19 31//31
f 38//38 29//29 42//42
f 49//49 47//47 53//53
f 68//68 67//67 71//71
f 9//9 11//11 13//13
f 42//42 47//47 38//38
f 65//65 66//66 76//76
f 1//1 4//4 2//2
f 85//85 81//81 82//82
f 68//68 60//60 67//67
f 16//16 6//6 20//20
f 79//79 86//86 77//77
f 13//13 11//11 17//17
f 86//86 85//85 82//82
f 39//39 44//44 35//35
f 64//64 56//56 65//65
f 78//78 61//61 73//73
f 79//79 83//83 87//87
f 54//54 61//61 78//78
f 87//87 84//84 86//86
f 73//73 61//61 72//72
f 84//84 85//85 86//86
f 48//48 57//57 42//42
f 59//59 63//63 66//66
f 25//25 34//34 27//27
f 14//14 11//11 7//7
f 28//28 48//48 29//29
f 29//29 26//26 28//28
f 51//51 54//54 78//78
f 70//70 62//62 64//64
f 20//20 23//23 24//24
f 54//54 45//45 44//44
f 32//32 30//30 18//18
f 74//74 75//75 68//68
f 71//71 80//80 74//74
f 65//65 55//55 66//66
f 74//74 83//83 75//75
f 56//56 46//46 55//55
f 53//53 72//72 61//61
f 71//71 78//78 80//80
f 62//62 47//47 57//57
f 71//71 67//67 78//78
f 58//58 67//67 60//60
f 80//80 81//81 85//85
f 13//13 18//18 10//10
f 59//59 52//52 63//63
f 21//21 19//19 14//14
f 44//44 53//53 61//61
f 9//9 4//4 1//1
f 77//77 70//70 69//69
f 37//37 23//23 22//22
f 1//1 7//7 9//9
f 5//5 4//4 10//10
f 62//62 57//57 64//64
f 80//80 78//78 81//81
f 33//33 23//23 37//37
f 40//40 34//34 24//24
f 32//32 18//18 13//13
f 50//50 41//41 58//58
f 75//75 63//63 68//68
f 37//37 41//41 33//33
f 10//10 4//4 9//9
f 7//7 11//11 9//9
f 63//63 52//52 60//60
f 57//57 47//47 42//42
f 49//49 31//31 38//38
f 35//35 32//32 39//39
f 31//31 32//32 17//17
f 73//73 82//82 81//81
f 30//30 32//32 35//35
f 20//20 15//15 23//23
f 27//27 26//26 16//16
f 35//35 45//45 30//30
f 36//36 37//37 22//22
f 7//7 12//12 14//14
f 36//36 41//41 37//37
f 18//18 15//15 10//10
f 70//70 64//64 69//69
f 33//33 41//41 50//50
f 54//54 44//44 61//61
f 24//24 33//33 40//40
f 51//51 45//45 54//54
f 40//40 52//52 43//43
f 38//38 19//19 29//29
f 51//51 41//41 36//36
f 72//72 62//62 70//70
f 22//22 30//30 36//36
f 53//53 62//62 72//72
f 69//69 64//64 65//65
f 63//63 60//60 68//68

## Object rightSphere

v -0.5875 0.25 0
vn 0 0 0
v -0.3375 0.25 0
vn 1 0 0
v -0.363893 0.361804 0
vn 0.894427 0.447214 0
v -0.356335 0.298578 0.0818727
vn 0.924658 0.194311 0.327491
v -0.365269 0.304668 -0.100621
vn 0.888925 0.218673 -0.402486
v -0.403472 0.399769 -0.078758
vn 0.736112 0.599077 -0.315032
v -0.432693 0.446087 0.00919147
vn 0.61923 0.784348 0.0367659
v -0.363941 0.188416 0.0934285
vn 0.894236 -0.246334 0.373714
v -0.410629 0.387968 0.110368
vn 0.707486 0.551874 0.441473
v -0.367473 0.191604 -0.103335
vn 0.880107 -0.233582 -0.413341
v -0.358458 0.149801 -8.75488e-05
vn 0.916168 -0.400795 -0.000350195
v -0.421135 0.251713 -0.186601
vn 0.665458 0.00685229 -0.746404
v -0.444167 0.364414 -0.169897
vn 0.573332 0.457656 -0.67959
v -0.485119 0.455304 -0.0993403
vn 0.409525 0.821214 -0.397361
v -0.409409 0.274129 0.173785
vn 0.712366 0.096514 0.69514
v -0.527304 0.492563 -0.00629535
vn 0.240784 0.970252 -0.0251814
v -0.442748 0.137095 -0.169703
vn 0.579009 -0.45162 -0.678813
v -0.436004 0.146356 0.169726
vn 0.605982 -0.414577 0.678905
v -0.511892 0.464419 0.103961
vn 0.302433 0.857675 0.415846
v -0.414726 0.0800885 0.061474
vn 0.691098 -0.679646 0.245896
v -0.500173 0.374247 0.198587
vn 0.349309 0.496986 0.794347
v -0.413442 0.0814998 -0.0617362
vn 0.696233 -0.674001 -0.246945
v -0.596483 0.483348 -0.0892645
vn -0.035932 0.933391 -0.357058
v -0.502895 0.196054 -0.22898
vn 0.338418 -0.215782 -0.915921
v -0.54919 0.415044 -0.183828
vn 0.153241 0.660177 -0.735312
v -0.518203 0.302872 -0.234313
vn 0.277186 0.211488 -0.937252
v -0.506754 0.236186 0.236198
vn 0.322982 -0.0552575 0.944791
v -0.533178 0.122009 0.207768
vn 0.21729 -0.511964 0.83107
v -0.500781 0.048265 -0.119511
vn 0.346876 -0.80694 -0.478043
v -0.627208 0.494429 0.0343175
vn -0.158833 0.977716 0.13727
v -0.514707 0.0432995 0.120316
vn 0.291174 -0.826802 0.481264
v -0.556411 0.102098 -0.199144
vn 0.124357 -0.591609 -0.796576
v -0.652097 0.431072 -0.159813
vn -0.258388 0.724289 -0.639251
v -0.502034 0.0151782 -0.0073646
vn 0.341866 -0.939287 -0.0294584
v -0.606661 0.322435 0.238508
vn -0.0766425 0.289742 0.954031
v -0.709291 0.458556 -0.0645855
vn -0.487165 0.834224 -0.258342
v -0.620815 0.440442 0.158499
vn -0.133259 0.761769 0.633996
v -0.609796 0.20734 -0.245322
vn -0.0891821 -0.170641 -0.981289
v -0.615078 0.185665 0.240001
vn -0.11031 -0.257341 0.960004
v -0.604107 0.0208233 -0.0985003
vn -0.0664263 -0.916707 -0.394001
v -0.738032 0.440036 0.0610438
vn -0.602127 0.760145 0.244175
v -0.625648 0.0683658 0.167492
vn -0.152591 -0.726537 0.66997
v -0.639455 0.335107 -0.229254
vn -0.207822 0.340429 -0.917016
v -0.70028 0.256923 0.223008
vn -0.451122 0.0276906 0.892033
v -0.798255 0.376885 -0.044525
vn -0.843022 0.507538 -0.1781
v -0.728947 0.364011 0.171739
vn -0.565787 0.456045 0.686955
v -0.682286 0.105617 -0.180746
vn -0.379144 -0.577531 -0.722985
v -0.618059 0.00569375 0.0433655
vn -0.122236 -0.977225 0.173462
v -0.740168 0.370642 -0.156965
vn -0.610673 0.482569 -0.627859
v -0.725921 0.239512 -0.207917
vn -0.553685 -0.0419533 -0.831669
v -0.716083 0.147342 0.188223
vn -0.514331 -0.410633 0.752891
v -0.811335 0.338188 0.0679763
vn -0.89534 0.352752 0.271905
v -0.726307 0.0495782 -0.0553525
vn -0.555226 -0.801687 -0.22141
v -0.728081 0.0603012 0.082167
vn -0.562323 -0.758795 0.328668
v -0.781603 0.249774 0.157556
vn -0.776413 -0.000904782 0.630224
v -0.790415 0.161365 -0.116058
vn -0.811658 -0.354539 -0.464234
v -0.800165 0.278246 -0.128358
vn -0.85066 0.112984 -0.513432
v -0.788956 0.146983 0.106315
vn -0.805824 -0.412069 0.42526
v -0.835034 0.250792 -0.035022
vn -0.990134 0.00316965 -0.140088
v -0.805951 0.128435 0.00096488
vn -0.873805 -0.486261 0.00385952
v -0.827736 0.222041 0.063286
vn -0.960943 -0.111836 0.253144
g rightSphere
usemtl rightSphere

s 1
f 160//160 161//161 159//159
f 159//159 161//161 152//152
f 156//156 160//160 159//159
f 134//134 120//120 131//131
f 153//153 156//156 147//147
f 155//155 158//158 151//151
f 139//139 128//128 127//127
f 116//116 123//123 130//130
f 112//112 117//117 124//124
f 150//150 149//149 143//143
f 126//126 112//112 124//124
f 139//139 127//127 135//135
f 152//152 155//155 146//146
f 120//120 111//111 108//108
f 110//110 105//105 102//102
f 132//132 117//117 129//129
f 138//138 126//126 124//124
f 106//106 105//105 113//113
f 127//127 128//128 118//118
f 137//137 130//130 141//141
f 121//121 115//115 109//109
f 141//141 152//152 146//146
f 131//131 120//120 118//118
f 128//128 139//139 142//142
f 149//149 145//145 136//136
f 122//122 117//117 110//110
f 123//123 116//116 114//114
f 153//153 147//147 140//140
f 129//129 134//134 140//140
f 132//132 129//129 140//140
f 108//108 115//115 118//118
f 148//148 153//153 140//140
f 115//115 127//127 118//118
f 103//103 106//106 107//107
f 160//160 156//156 153//153
f 126//126 125//125 113//113
f 121//121 109//109 119//119
f 136//136 145//145 141//141
f 111//111 122//122 110//110
f 117//117 112//112 110//110
f 134//134 122//122 120//120
f 131//131 128//128 142//142
f 148//148 131//131 142//142
f 128//128 131//131 118//118
f 156//156 159//159 157//157
f 150//150 138//138 147//147
f 133//133 149//149 136//136
f 158//158 154//154 151//151
f 106//106 114//114 107//107
f 148//148 134//134 131//131
f 123//123 114//114 125//125
f 154//154 142//142 151//151
f 160//160 154//154 158//158
f 121//121 127//127 115//115
f 108//108 111//111 102//102
f 109//109 103//103 107//107
f 127//127 121//121 135//135
f 142//142 139//139 151//151
f 104//104 115//115 108//108
f 161//161 160//160 158//158
f 154//154 148//148 142//142
f 138//138 143//143 126//126
f 145//145 149//149 157//157
f 105//105 112//112 113//113
f 156//156 150//150 147//147
f 112//112 105//105 110//110
f 135//135 137//137 146//146
f 123//123 136//136 130//130
f 145//145 159//159 152//152
f 144//144 139//139 135//135
f 149//149 150//150 157//157
f 114//114 116//116 107//107
f 144//144 155//155 151//151
f 123//123 133//133 136//136
f 116//116 119//119 107//107
f 161//161 155//155 152//152
f 149//149 133//133 143//143
f 109//109 104//104 103//103
f 138//138 150//150 143//143
f 133//133 123//123 125//125
f 148//148 154//154 153//153
f 134//134 148//148 140//140
f 132//132 138//138 124//124
f 104//104 108//108 102//102
f 122//122 134//134 129//129
f 137//137 119//119 130//130
f 111//111 110//110 102//102
f 125//125 114//114 113//113
f 144//144 135//135 146//146
f 139//139 144//144 151//151
f 138//138 132//132 147//147
f 103//103 104//104 102//102
f 130//130 136//136 141//141
f 141//141 145//145 152//152
f 137//137 121//121 119//119
f 154//154 160//160 153//153
f 122//122 111//111 120//120
f 112//112 126//126 113//113
f 150//150 156//156 157//157
f 117//117 122//122 129//129
f 115//115 104//104 109//109
f 119//119 109//109 107//107
f 105//105 106//106 103//103
f 119//119 116//116 130//130
f 147//147 132//132 140//140
f 121//121 137//137 135//135
f 105//105 103//103 102//102
f 143//143 133//133 125//125
f 159//159 145//145 157//157
f 114//114 106//106 113//113
f 120//120 108//108 118//118
f 137//137 141//141 146//146
f 155//155 144//144 146//146
f 126//126 143//143 125//125
f 155//155 161//161 158//158
f 117//117 132//132 124//124


## Object floor
v   1.0000 0.0000 -1.0400
v  -0.9900 0.0000 -1.0400
v  -1.0100 0.0000  0.9900
v   1.0000 0.0000  0.9900
# 4 vertices

vn 0.0000 1.0000 -0.0000
# 1 vertex normals

g floor
usemtl floor

s 1
f 162//162 163//162 164//162 
f 164//162 165//162 162//162 
# 2 faces

## Object ceiling 
v   1.0000 1.5900 -1.0400
v   1.0000 1.5900  0.9900
v  -1.0200 1.5900  0.9900
v  -1.0200 1.5900 -1.0400
# 4 vertices

vn 0.0000 -1.0000 -0.0000
# 1 vertex normals

g ceiling
usemtl ceiling

s 1
f 166//163 167//163 168//163 
f 168//163 169//163 166//163 
# 2 faces

## Object backwall 
v   1.0000 1.5900 -1.0400
v  -1.0200 1.5900 -1.0400
v  -0.9900 0.0000 -1.0400
v   1.0000 0.0000 -1.0400
# 4 vertices

vn 0.0000 0.0000 1.0000
# 1 vertex normals

g backWall
usemtl backWall

s 1
f 170//164 171//164 172//164 
f 172//164 173//164 170//164 
# 2 faces

## Object rightwall 
v  1.0000 1.5900 0.9900
v  1.0000 1.5900 -1.0400
v  1.0000 0.0000 -1.0400
v  1.0000 0.0000 0.9900
# 4 vertices

vn -1.0000 0.0000 -0.0000
# 1 vertex normals

g rightWall
usemtl rightWall

s 1
f 174//165 175//165 176//165 
f 176//165 177//165 174//165 
# 2 faces

## Object leftWall 
v  -1.0200 1.5900 -1.0400
v  -1.0200 1.5900 0.9900
v  -1.0100 0.0000 0.9900
v  -0.9900 0.0000 -1.0400
# 4 vertices

vn 0.9999 0.0135 0.0057
vn 1.0000 0.0063 -0.0000
vn 0.9999 0.0116 0.0042
vn 0.9998 0.0189 0.0098
# 4 vertex normals

g leftWall
usemtl leftWall

s 1
f 178//166 179//167 180//168 
f 180//168 181//169 178//166 
# 2 faces

## Object light
v  0.2300 1.5800 -0.2200
v  0.2300 1.5800 0.1600
v  -0.2400 1.5800 0.1600
v  -0.2400 1.5800 -0.2200
# 4 vertices

vn 0.0000 -1.0000 -0.0000
# 1 vertex normals

g light
usemtl light

s 1
f 182//170 183//170 184//170 
f 184//170 185//170 182//170 
# 2 faces
