mtllib CornellBox-Sphere.mtl

## Object leftSphere

v 0.0784726 0.50068 0.0423161
vn 0.75584 -0.652418 0.0552907
v 0.0986167 0.590539 0.00964174
vn 0.825311 -0.564522 0.013293
v 0.0874448 0.556594 0.0988387
vn 0.791054 -0.597092 0.133096
v 0.0618798 0.521262 -0.0364691
vn 0.760249 -0.647754 -0.0493443
v 0.0563195 0.597514 -0.0700531
vn 0.806011 -0.583133 -0.101495
v 0.0714164 0.682198 -0.0137925
vn 0.873736 -0.485942 -0.0210897
v 0.0233066 0.481698 0.119974
vn 0.701254 -0.694547 0.16077
v 0.0876285 0.643957 0.0836868
vn 0.848985 -0.514399 0.120908
v 0.00191081 0.451445 0.0041724
vn 0.675033 -0.737766 0.00561157
v -0.0179519 0.518568 -0.0950123
vn 0.700777 -0.699881 -0.138124
v -0.0625093 0.439853 0.0834321
vn 0.611338 -0.782735 0.116586
v 0.0323473 0.588033 0.17434
vn 0.765587 -0.592464 0.250724
v -0.103393 0.447839 -0.0270027
vn 0.582926 -0.811556 -0.0396881
v -0.0650854 0.502118 0.180756
vn 0.634584 -0.726459 0.263742
v -0.0139048 0.654968 -0.127458
vn 0.797434 -0.566021 -0.209093
v 0.0333769 0.733141 0.124011
vn 0.875586 -0.438072 0.203575
v -0.162304 0.451636 0.101818
vn 0.517936 -0.841044 0.156162
v -0.123711 0.538256 -0.134181
vn 0.616284 -0.75624 -0.219761
v -0.171452 0.534724 0.212792
vn 0.540344 -0.765213 0.349967
v 0.0129035 0.771526 -0.0384437
vn 0.911336 -0.405957 -0.0683075
v -0.0585174 0.622364 0.230507
vn 0.70635 -0.604199 0.368799
v -0.138868 0.657456 -0.179458
vn 0.682527 -0.647396 -0.339169
v -0.0703009 0.768566 -0.135951
vn 0.848132 -0.456801 -0.268338
v -0.0677989 0.865517 -0.0466272
vn 0.949818 -0.295543 -0.102469
v -0.0167908 0.831555 0.0550578
vn 0.938852 -0.32728 0.106975
v -0.0636822 0.736533 0.221459
vn 0.78513 -0.474095 0.398504
v -0.0455041 0.819893 0.150853
vn 0.888336 -0.352028 0.294849
v -0.13445 0.825443 0.223449
vn 0.790157 -0.377314 0.482997
v -0.172257 0.675659 0.266115
vn 0.615618 -0.609227 0.499857
v -0.241899 0.573284 -0.154033
vn 0.494496 -0.817546 -0.295113
v -0.268989 0.488058 0.118198
vn 0.402492 -0.891959 0.205936
v -0.231749 0.473418 -0.0348773
vn 0.453127 -0.889497 -0.0589143
v -0.15024 0.86051 -0.137569
vn 0.872453 -0.347949 -0.343157
v -0.106136 0.91062 0.0954046
vn 0.949084 -0.215377 0.229894
v -0.329816 0.531885 -0.0834872
vn 0.336971 -0.926889 -0.165308
v -0.267349 0.691412 -0.20173
vn 0.53367 -0.707861 -0.462741
v -0.171466 0.760868 -0.187221
vn 0.734312 -0.534488 -0.41846
v -0.285462 0.570424 0.220618
vn 0.405995 -0.812934 0.4175
v -0.338657 0.500989 0.0199397
vn 0.307423 -0.950814 0.0379931
v -0.156681 0.946228 -0.0368096
vn 0.982459 -0.153878 -0.105336
v -0.259941 0.817006 -0.198904
vn 0.664075 -0.506216 -0.550228
v -0.295218 0.676079 0.272587
vn 0.435446 -0.688782 0.579626
v -0.205259 0.988682 0.0821639
vn 0.962614 -0.0369635 0.268344
v -0.441287 0.563098 -0.0285832
vn 0.132907 -0.989014 -0.0647038
v -0.370087 0.618268 -0.15551
vn 0.3006 -0.88327 -0.359826
v -0.207073 0.92014 0.200155
vn 0.805505 -0.219603 0.550396
v -0.397855 0.622955 0.220565
vn 0.227695 -0.840485 0.49167
v -0.243339 0.790628 0.275551
vn 0.595695 -0.48594 0.639539
v -0.384917 0.539132 0.12248
vn 0.234597 -0.939482 0.249676
v -0.244545 0.932598 -0.138271
vn 0.856676 -0.226034 -0.463697
v -0.399158 0.762387 -0.203224
vn 0.306953 -0.72327 -0.618595
v -0.260077 1.0148 -0.0338063
vn 0.988377 0.0609528 -0.139267
v -0.499345 0.607677 0.121746
vn 0.00159553 -0.955069 0.296378
v -0.487028 0.662015 -0.130774
vn 0.0357714 -0.932026 -0.360622
v -0.303511 0.999753 0.179102
vn 0.739048 -0.000930105 0.673652
v -0.336244 0.895252 0.264531
vn 0.498838 -0.319086 0.80582
v -0.378797 0.752584 0.280775
vn 0.308114 -0.628966 0.71377
v -0.339684 0.891497 -0.190974
vn 0.589551 -0.399014 -0.702294
v -0.300148 1.04554 0.0694964
vn 0.92338 0.210396 0.321095
v -0.352203 0.995656 -0.131421
vn 0.747114 -0.0219601 -0.664333
v -0.571513 0.653406 -0.0224881
vn -0.201667 -0.977399 -0.0634168
v -0.501843 0.703826 0.225575
vn -0.00494961 -0.795527 0.605898
v -0.37222 1.07347 -0.0154183
vn 0.862222 0.495731 -0.104038
v -0.470414 0.838592 0.275701
vn 0.0922154 -0.503078 0.859307
v -0.431924 0.984705 0.238117
vn 0.274357 -0.0616424 0.95965
v -0.399243 1.07375 0.126014
vn 0.567966 0.415726 0.710342
v -0.446271 0.911754 -0.190201
vn 0.248227 -0.407696 -0.878731
v -0.459645 1.05234 -0.108184
vn 0.31832 0.412888 -0.853344
v -0.572966 0.924584 0.251971
vn -0.267326 -0.276301 0.923144
v -0.583811 0.791203 0.227358
vn -0.262021 -0.652771 0.710799
v -0.550745 0.967012 -0.162878
vn -0.292038 -0.189846 -0.937375
v -0.607555 0.700743 0.129856
vn -0.313124 -0.871225 0.378049
v -0.669227 0.741606 0.00749735
vn -0.547717 -0.836312 0.0242657
v -0.586765 1.08364 -0.0802248
vn -0.599315 0.577712 -0.554139
v -0.487158 1.11687 0.0252523
vn 0.10679 0.971853 0.209996
v -0.530278 1.06647 0.186032
vn -0.151496 0.332596 0.930821
v -0.693206 0.831064 0.159815
vn -0.639038 -0.558763 0.528597
v -0.575592 0.798493 -0.153723
vn -0.285812 -0.761897 -0.581227
v -0.67223 1.00921 0.196005
vn -0.659667 0.035259 0.75073
v -0.659428 0.95411 -0.128623
vn -0.759465 -0.218607 -0.612718
v -0.692496 0.837869 -0.0803338
vn -0.728636 -0.613698 -0.30408
v -0.740766 0.838731 0.0283365
vn -0.826897 -0.553868 0.0973202
v -0.626788 1.12531 0.0744329
vn -0.656314 0.648688 0.3853
v -0.720914 1.06196 -0.0410521
vn -0.947793 0.265834 -0.176127
v -0.751112 0.922996 -0.0437422
vn -0.94307 -0.289193 -0.164277
v -0.774257 0.942104 0.0922638
vn -0.929383 -0.196194 0.312657
v -0.732418 1.07182 0.106735
vn -0.874911 0.27036 0.401792
v -0.0714655 0.626444 0.0445704
vn 0.7515 -0.655087 0.0781608
v -0.264163 0.734031 0.0323697
vn 0.660718 -0.745136 0.0906866
v -0.630119 0.960019 0.0563008
vn -0.883321 -0.271412 0.382203
v -0.469576 0.901373 -0.0796257
vn 0.233387 -0.756589 -0.610822
v -0.579936 0.903469 -0.0571842
vn -0.580253 -0.700714 -0.415097
v -0.510347 0.929444 0.163692
vn -0.0579521 -0.395157 0.916784
v -0.577293 0.827303 0.0362636
vn -0.401211 -0.896435 0.188237
v -0.477452 0.96014 0.0380437
vn 0.378725 -0.669512 0.639
v -0.331799 0.922466 0.0743823
vn 0.842736 -0.388468 0.372678
v -0.455508 0.761542 0.0147121
vn 0.183081 -0.981232 0.060539
v -0.429217 0.867456 0.150671
vn 0.33264 -0.622884 0.708072
v -0.544299 0.993905 -0.0525953
vn -0.641689 -0.088284 -0.761867
v -0.356371 0.880247 -0.0679982
vn 0.721821 -0.601827 -0.34173
g leftSphere
usemtl leftSphere

s 1
f 75//75 76//76 66//66
f 77//77 82//82 73//73
f 46//46 43//43 55//55
f 72//72 77//77 73//73
f 43//43 59//59 55//55
f 77//77 86//86 82//82
f 53//53 44//44 49//49
f 8//8 12//12 3//3
f 3//3 12//12 7//7
f 2//2 8//8 3//3
f 74//74 84//84 83//83
f 74//74 68//68 71//71
f 79//79 87//87 86//86
f 2//2 4//4 5//5
f 38//38 47//47 49//49
f 76//76 83//83 79//79
f 50//50 58//58 60//60
f 46//46 34//34 43//43
f 30//30 22//22 18//18
f 75//75 66//66 63//63
f 20//20 25//25 16//16
f 6//6 15//15 20//20
f 52//52 50//50 60//60
f 2//2 3//3 1//1
f 36//36 45//45 51//51
f 66//66 55//55 59//59
f 16//16 26//26 21//21
f 16//16 25//25 27//27
f 50//50 52//52 40//40
f 13//13 10//10 9//9
f 24//24 25//25 20//20
f 44//44 39//39 49//49
f 14//14 19//19 17//17
f 24//24 23//23 33//33
f 31//31 19//19 38//38
f 22//22 15//15 18//18
f 43//43 34//34 40//40
f 31//31 39//39 32//32
f 16//16 8//8 6//6
f 21//21 26//26 29//29
f 57//57 56//56 64//64
f 47//47 62//62 53//53
f 3//3 7//7 1//1
f 29//29 48//48 42//42
f 30//30 45//45 36//36
f 76//76 69//69 65//65
f 28//28 34//34 46//46
f 17//17 11//11 14//14
f 46//46 56//56 48//48
f 84//84 80//80 85//85
f 43//43 52//52 59//59
f 77//77 69//69 79//79
f 56//56 55//55 65//65
f 67//67 51//51 78//78
f 75//75 83//83 76//76
f 17//17 32//32 13//13
f 48//48 28//28 46//46
f 6//6 8//8 2//2
f 79//79 69//69 76//76
f 44//44 45//45 35//35
f 5//5 6//6 2//2
f 16//16 12//12 8//8
f 58//58 41//41 51//51
f 21//21 12//12 16//16
f 48//48 56//56 57//57
f 58//58 51//51 67//67
f 23//23 15//15 22//22
f 27//27 34//34 28//28
f 73//73 81//81 78//78
f 14//14 12//12 21//21
f 10//10 15//15 5//5
f 80//80 84//84 74//74
f 29//29 19//19 21//21
f 70//70 77//77 72//72
f 24//24 34//34 25//25
f 28//28 26//26 27//27
f 49//49 39//39 31//31
f 40//40 33//33 50//50
f 83//83 84//84 87//87
f 5//5 15//15 6//6
f 17//17 19//19 31//31
f 38//38 29//29 42//42
f 49//49 47//47 53//53
f 68//68 67//67 71//71
f 9//9 11//11 13//13
f 42//42 47//47 38//38
f 65//65 66//66 76//76
f 1//1 4//4 2//2
f 85//85 81//81 82//82
f 68//68 60//60 67//67
f 16//16 6//6 20//20
f 79//79 86//86 77//77
f 13//13 11//11 17//17
f 86//86 85//85 82//82
f 39//39 44//44 35//35
f 64//64 56//56 65//65
f 78//78 61//61 73//73
f 79//79 83//83 87//87
f 54//54 61//61 78//78
f 87//87 84//84 86//86
f 73//73 61//61 72//72
f 84//84 85//85 86//86
f 48//48 57//57 42//42
f 59//59 63//63 66//66
f 25//25 34//34 27//27
f 14//14 11//11 7//7
f 28//28 48//48 29//29
f 29//29 26//26 28//28
f 51//51 54//54 78//78
f 70//70 62//62 64//64
f 20//20 23//23 24//24
f 54//54 45//45 44//44
f 32//32 30//30 18//18
f 74//74 75//75 68//68
f 71//71 80//80 74//74
f 65//65 55//55 66//66
f 74//74 83//83 75//75
f 56//56 46//46 55//55
f 53//53 72//72 61//61
f 71//71 78//78 80//80
f 62//62 47//47 57//57
f 71//71 67//67 78//78
f 58//58 67//67 60//60
f 80//80 81//81 85//85
f 13//13 18//18 10//10
f 59//59 52//52 63//63
f 21//21 19//19 14//14
f 44//44 53//53 61//61
f 9//9 4//4 1//1
f 77//77 70//70 69//69
f 37//37 23//23 22//22
f 1//1 7//7 9//9
f 5//5 4//4 10//10
f 62//62 57//57 64//64
f 80//80 78//78 81//81
f 33//33 23//23 37//37
f 40//40 34//34 24//24
f 32//32 18//18 13//13
f 50//50 41//41 58//58
f 75//75 63//63 68//68
f 37//37 41//41 33//33
f 10//10 4//4 9//9
f 7//7 11//11 9//9
f 63//63 52//52 60//60
f 57//57 47//47 42//42
f 49//49 31//31 38//38
f 35//35 32//32 39//39
f 31//31 32//32 17//17
f 73//73 82//82 81//81
f 30//30 32//32 35//35
f 20//20 15//15 23//23
f 27//27 26//26 16//16
f 35//35 45//45 30//30
f 36//36 37//37 22//22
f 7//7 12//12 14//14
f 36//36 41//41 37//37
f 18//18 15//15 10//10
f 70//70 64//64 69//69
f 33//33 41//41 50//50
f 54//54 44//44 61//61
f 24//24 33//33 40//40
f 51//51 45//45 54//54
f 40//40 52//52 43//43
f 38//38 19//19 29//29
f 51//51 41//41 36//36
f 72//72 62//62 70//70
f 22//22 30//30 36//36
f 53//53 62//62 72//72
f 69//69 64//64 65//65
f 63//63 60//60 68//68

## Object rightSphere

v -0.5875 0.25 0
vn 0 0 0
v -0.3375 0.25 0
vn 1 0 0
v -0.363893 0.361804 0
vn 0.894427 0.447214 0
v -0.356335 0.298578 0.0818727
vn 0.924658 0.194311 0.327491
v -0.365269 0.304668 -0.100621
vn 0.888925 0.218673 -0.402486
v -0.403472 0.399769 -0.078758
vn 0.736112 0.599077 -0.315032
v -0.432693 0.446087 0.00919147
vn 0.61923 0.784348 0.0367659
v -0.363941 0.188416 0.0934285
vn 0.894236 -0.246334 0.373714
v -0.410629 0.387968 0.110368
vn 0.707486 0.551874 0.441473
v -0.367473 0.191604 -0.103335
vn 0.880107 -0.233582 -0.413341
v -0.358458 0.149801 -8.75488e-05
vn 0.916168 -0.400795 -0.000350195
v -0.421135 0.251713 -0.186601
vn 0.665458 0.00685229 -0.746404
v -0.444167 0.364414 -0.169897
vn 0.573332 0.457656 -0.67959
v -0.485119 0.455304 -0.0993403
vn 0.409525 0.821214 -0.397361
v -0.409409 0.274129 0.173785
vn 0.712366 0.096514 0.69514
v -0.527304 0.492563 -0.00629535
vn 0.240784 0.970252 -0.0251814
v -0.442748 0.137095 -0.169703
vn 0.579009 -0.45162 -0.678813
v -0.436004 0.146356 0.169726
vn 0.605982 -0.414577 0.678905
v -0.511892 0.464419 0.103961
vn 0.302433 0.857675 0.415846
v -0.414726 0.0800885 0.061474
vn 0.691098 -0.679646 0.245896
v -0.500173 0.374247 0.198587
vn 0.349309 0.496986 0.794347
v -0.413442 0.0814998 -0.0617362
vn 0.696233 -0.674001 -0.246945
v -0.596483 0.483348 -0.0892645
vn -0.035932 0.933391 -0.357058
v -0.502895 0.196054 -0.22898
vn 0.338418 -0.215782 -0.915921
v -0.54919 0.415044 -0.183828
vn 0.153241 0.660177 -0.735312
v -0.518203 0.302872 -0.234313
vn 0.277186 0.211488 -0.937252
v -0.506754 0.236186 0.236198
vn 0.322982 -0.0552575 0.944791
v -0.533178 0.122009 0.207768
vn 0.21729 -0.511964 0.83107
v -0.500781 0.048265 -0.119511
vn 0.346876 -0.80694 -0.478043
v -0.627208 0.494429 0.0343175
vn -0.158833 0.977716 0.13727
v -0.514707 0.0432995 0.120316
vn 0.291174 -0.826802 0.481264
v -0.556411 0.102098 -0.199144
vn 0.124357 -0.591609 -0.796576
v -0.652097 0.431072 -0.159813
vn -0.258388 0.724289 -0.639251
v -0.502034 0.0151782 -0.0073646
vn 0.341866 -0.939287 -0.0294584
v -0.606661 0.322435 0.238508
vn -0.0766425 0.289742 0.954031
v -0.709291 0.458556 -0.0645855
vn -0.487165 0.834224 -0.258342
v -0.620815 0.440442 0.158499
vn -0.133259 0.761769 0.633996
v -0.609796 0.20734 -0.245322
vn -0.0891821 -0.170641 -0.981289
v -0.615078 0.185665 0.240001
vn -0.11031 -0.257341 0.960004
v -0.604107 0.0208233 -0.0985003
vn -0.0664263 -0.916707 -0.394001
v -0.738032 0.440036 0.0610438
vn -0.602127 0.760145 0.244175
v -0.625648 0.0683658 0.167492
vn -0.152591 -0.726537 0.66997
v -0.639455 0.335107 -0.229254
vn -0.207822 0.340429 -0.917016
v -0.70028 0.256923 0.223008
vn -0.451122 0.0276906 0.892033
v -0.798255 0.376885 -0.044525
vn -0.843022 0.507538 -0.1781
v -0.728947 0.364011 0.171739
vn -0.565787 0.456045 0.686955
v -0.682286 0.105617 -0.180746
vn -0.379144 -0.577531 -0.722985
v -0.618059 0.00569375 0.0433655
vn -0.122236 -0.977225 0.173462
v -0.740168 0.370642 -0.156965
vn -0.610673 0.482569 -0.627859
v -0.725921 0.239512 -0.207917
vn -0.553685 -0.0419533 -0.831669
v -0.716083 0.147342 0.188223
vn -0.514331 -0.410633 0.752891
v -0.811335 0.338188 0.0679763
vn -0.89534 0.352752 0.271905
v -0.726307 0.0495782 -0.0553525
vn -0.555226 -0.801687 -0.22141
v -0.728081 0.0603012 0.082167
vn -0.562323 -0.758795 0.328668
v -0.781603 0.249774 0.157556
vn -0.776413 -0.000904782 0.630224
v -0.790415 0.161365 -0.116058
vn -0.811658 -0.354539 -0.464234
v -0.800165 0.278246 -0.128358
vn -0.85066 0.112984 -0.513432
v -0.788956 0.146983 0.106315
vn -0.805824 -0.412069 0.42526
v -0.835034 0.250792 -0.035022
vn -0.990134 0.00316965 -0.140088
v -0.805951 0.128435 0.00096488
vn -0.873805 -0.486261 0.00385952
v -0.827736 0.222041 0.063286
vn -0.960943 -0.111836 0.253144
g rightSphere
usemtl rightSphere

s 1
f 160//160 161//161 159//159
f 159//159 161//161 152//152
f 156//156 160//160 159//159
f 134//134 120//120 131//131
f 153//153 156//156 147//147
f 155//155 158//158 151//151
f 139//139 128//128 127//127
f 116//116 123//123 130//130
f 112//112 117//117 124//124
f 150//150 149//149 143//143
f 126//126 112//112 124//124
f 139//139 127//127 135//135
f 152//152 155//155 146//146
f 120//120 111//111 108//108
f 110//110 105//105 102//102
f 132//132 117//117 129//129
f 138//138 126//126 124//124
f 106//106 105//105 113//113
f 127//127 128//128 118//118
f 137//137 130//130 141//141
f 121//121 115//115 109//109
f 141//141 152//152 146//146
f 131//131 120//120 118//118
f 128//128 139//139 142//142
f 149//149 145//145 136//136
f 122//122 117//117 110//110
f 123//123 116//116 114//114
f 153//153 147//147 140//140
f 129//129 134//134 140//140
f 132//132 129//129 140//140
f 108//108 115//115 118//118
f 148//148 153//153 140//140
f 115//115 127//127 118//118
f 103//103 106//106 107//107
f 160//160 156//156 153//153
f 126//126 125//125 113//113
f 121//121 109//109 119//119
f 136//136 145//145 141//141
f 111//111 122//122 110//110
f 117//117 112//112 110//110
f 134//134 122//122 120//120
f 131//131 128//128 142//142
f 148//148 131//131 142//142
f 128//128 131//131 118//118
f 156//156 159//159 157//157
f 150//150 138//138 147//147
f 133//133 149//149 136//136
f 158//158 154//154 151//151
f 106//106 114//114 107//107
f 148//148 134//134 131//131
f 123//123 114//114 125//125
f 154//154 142//142 151//151
f 160//160 154//154 158//158
f 121//121 127//127 115//115
f 108//108 111//111 102//102
f 109//109 103//103 107//107
f 127//127 121//121 135//135
f 142//142 139//139 151//151
f 104//104 115//115 108//108
f 161//161 160//160 158//158
f 154//154 148//148 142//142
f 138//138 143//143 126//126
f 145//145 149//149 157//157
f 105//105 112//112 113//113
f 156//156 150//150 147//147
f 112//112 105//105 110//110
f 135//135 137//137 146//146
f 123//123 136//136 130//130
f 145//145 159//159 152//152
f 144//144 139//139 135//135
f 149//149 150//150 157//157
f 114//114 116//116 107//107
f 144//144 155//155 151//151
f 123//123 133//133 136//136
f 116//116 119//119 107//107
f 161//161 155//155 152//152
f 149//149 133//133 143//143
f 109//109 104//104 103//103
f 138//138 150//150 143//143
f 133//133 123//123 125//125
f 148//148 154//154 153//153
f 134//134 148//148 140//140
f 132//132 138//138 124//124
f 104//104 108//108 102//102
f 122//122 134//134 129//129
f 137//137 119//119 130//130
f 111//111 110//110 102//102
f 125//125 114//114 113//113
f 144//144 135//135 146//146
f 139//139 144//144 151//151
f 138//138 132//132 147//147
f 103//103 104//104 102//102
f 130//130 136//136 141//141
f 141//141 145//145 152//152
f 137//137 121//121 119//119
f 154//154 160//160 153//153
f 122//122 111//111 120//120
f 112//112 126//126 113//113
f 150//150 156//156 157//157
f 117//117 122//122 129//129
f 115//115 104//104 109//109
f 119//119 109//109 107//107
f 105//105 106//106 103//103
f 119//119 116//116 130//130
f 147//147 132//132 140//140
f 121//121 137//137 135//135
f 105//105 103//103 102//102
f 143//143 133//133 125//125
f 159//159 145//145 157//157
f 114//114 106//106 113//113
f 120//120 108//108 118//118
f 137//137 141//141 146//146
f 155//155 144//144 146//146
f 126//126 143//143 125//125
f 155//155 161//161 158//158
f 117//117 132//132 124//124


## Object floor
v   1.0000 0.0000 -1.0400
v  -0.9900 0.0000 -1.0400
v  -1.0100 0.0000  0.9900
v   1.0000 0.0000  0.9900
# 4 vertices

vn 0.0000 1.0000 -0.0000
# 1 vertex normals

g floor
usemtl floor

s 1
f 162//162 163//162 164//162 
f 164//162 165//162 162//162 
# 2 faces

## Object ceiling 
v   1.0000 1.5900 -1.0400
v   1.0000 1.5900  0.9900
v  -1.0200 1.5900  0.9900
v  -1.0200 1.5900 -1.0400
# 4 vertices

vn 0.0000 -1.0000 -0.0000
# 1 vertex normals

g ceiling
usemtl ceiling

s 1
f 166//163 167//163 168//163 
f 168//163 169//163 166//163 
# 2 faces

## Object backwall 
v   1.0000 1.5900 -1.0400
v  -1.0200 1.5900 -1.0400
v  -0.9900 0.0000 -1.0400
v   1.0000 0.0000 -1.0400
# 4 vertices

vn 0.0000 0.0000 1.0000
# 1 vertex normals

g backWall
usemtl backWall

s 1
f 170//164 171//164 172//164 
f 172//164 173//164 170//164 
# 2 faces

## Object rightwall 
v  1.0000 1.5900 0.9900
v  1.0000 1.5900 -1.0400
v  1.0000 0.0000 -1.0400
v  1.0000 0.0000 0.9900
# 4 vertices

vn -1.0000 0.0000 -0.0000
# 1 vertex normals

g rightWall
usemtl rightWall

s 1
f 174//165 175//165 176//165 
f 176//165 177//165 174//165 
# 2 faces

## Object leftWall 
v  -1.0200 1.5900 -1.0400
v  -1.0200 1.5900 0.9900
v  -1.0100 0.0000 0.9900
v  -0.9900 0.0000 -1.0400
# 4 vertices

vn 0.9999 0.0135 0.0057
vn 1.0000 0.0063 -0.0000
vn 0.9999 0.0116 0.0042
vn 0.9998 0.0189 0.0098
# 4 vertex normals

g leftWall
usemtl leftWall

s 1
f 178//166 179//167 180//168 
f 180//168 181//169 178//166 
# 2 faces

## Object light
v  0.2300 1.5800 -0.2200
v  0.2300 1.5800 0.1600
v  -0.2400 1.5800 0.1600
v  -0.2400 1.5800 -0.2200
# 4 vertices

vn 0.0000 -1.0000 -0.0000
# 1 vertex normals

g light
usemtl light

s 1
f 182//170 183//170 184//170 
f 184//170 185//170 182//170 
# 2 faces
