mtllib CornellBox-Sphere.mtl

## Object leftSphere

v 0.0776848 0.499942 0.0571258
vn 0.753975 -0.652658 0.0745587
v 0.102699 0.585975 0.0190795
vn 0.823973 -0.566029 0.0260842
v 0.0901354 0.557911 0.110167
vn 0.791547 -0.592974 0.147767
v 0.0618145 0.516239 -0.0224389
vn 0.757438 -0.652206 -0.0302521
v 0.0596282 0.588845 -0.0614709
vn 0.802743 -0.589769 -0.0881753
v 0.0806199 0.675677 -0.0120252
vn 0.872891 -0.48758 -0.0180784
v 0.0216856 0.487372 0.133963
vn 0.7016 -0.689419 0.180163
v 0.09587 0.643778 0.0895789
vn 0.851261 -0.508899 0.127973
v -0.00168225 0.453091 0.0209415
vn 0.673238 -0.738885 0.0282925
v -0.0189763 0.513385 -0.0808071
vn 0.698157 -0.706273 -0.117283
v -0.0665739 0.447973 0.0981391
vn 0.611599 -0.778954 0.138482
v 0.0377194 0.594179 0.183485
vn 0.770138 -0.581229 0.262793
v -0.10784 0.453042 -0.010957
vn 0.582612 -0.812587 -0.0162783
v -0.0645843 0.512043 0.191784
vn 0.638889 -0.715983 0.281407
v -0.00920805 0.643391 -0.123926
vn 0.792627 -0.575922 -0.200141
v 0.0499459 0.736627 0.125307
vn 0.883446 -0.423088 0.201295
v -0.165844 0.463761 0.114405
vn 0.520406 -0.835125 0.178171
v -0.125215 0.535352 -0.121315
vn 0.615246 -0.762766 -0.199151
v -0.167769 0.547594 0.222709
vn 0.550178 -0.74919 0.368808
v 0.0284163 0.7641 -0.0432833
vn 0.910594 -0.406515 -0.074588
v -0.0489636 0.631526 0.238978
vn 0.716457 -0.585309 0.379609
v -0.13461 0.65014 -0.175998
vn 0.682183 -0.653189 -0.328588
v -0.0571748 0.758307 -0.139942
vn 0.84583 -0.461652 -0.2673
v -0.0431899 0.860367 -0.0534094
vn 0.950399 -0.290507 -0.111119
v 0.0074392 0.831387 0.0506535
vn 0.944753 -0.313925 0.094307
v -0.0438654 0.745075 0.226823
vn 0.800737 -0.447516 0.398183
v -0.0195528 0.825772 0.151275
vn 0.901433 -0.326894 0.283828
v -0.105469 0.837242 0.228511
vn 0.814962 -0.336202 0.472023
v -0.156071 0.689437 0.276266
vn 0.637497 -0.57565 0.512079
v -0.241273 0.576633 -0.143347
vn 0.500964 -0.819754 -0.277558
v -0.270667 0.503684 0.130882
vn 0.407932 -0.882832 0.232809
v -0.236431 0.483812 -0.0214548
vn 0.454444 -0.890007 -0.0369922
v -0.12547 0.857506 -0.140434
vn 0.882044 -0.335583 -0.330731
v -0.0719563 0.916446 0.0927943
vn 0.959987 -0.187389 0.208113
v -0.329322 0.549272 -0.0715261
vn 0.350297 -0.925063 -0.146799
v -0.254174 0.698147 -0.195363
vn 0.564392 -0.693022 -0.448534
v -0.156105 0.757524 -0.186146
vn 0.747406 -0.526986 -0.404561
v -0.276975 0.589006 0.233357
vn 0.42676 -0.786439 0.44653
v -0.339338 0.520932 0.0325074
vn 0.317304 -0.946148 0.0642014
v -0.120908 0.947928 -0.0416813
vn 0.984872 -0.135281 -0.108287
v -0.234872 0.823431 -0.197655
vn 0.70723 -0.470999 -0.527244
v -0.27631 0.698095 0.284957
vn 0.474345 -0.640204 0.604264
v -0.161588 1.00002 0.0785151
vn 0.974126 5.78777e-05 0.226007
v -0.434037 0.59084 -0.0157459
vn 0.159046 -0.986541 -0.0379656
v -0.359021 0.638505 -0.146813
vn 0.339825 -0.871369 -0.353886
v -0.167625 0.936831 0.202358
vn 0.843113 -0.160237 0.513307
v -0.382209 0.651743 0.236328
vn 0.269518 -0.796844 0.54074
v -0.215005 0.811029 0.284225
vn 0.640939 -0.424985 0.639206
v -0.379915 0.564633 0.136416
vn 0.254538 -0.922822 0.289153
v -0.210169 0.938147 -0.141023
vn 0.883092 -0.188462 -0.429687
v -0.375189 0.782189 -0.200591
vn 0.388413 -0.677833 -0.624242
v -0.215332 1.02435 -0.0398661
vn 0.986801 0.0844142 -0.138196
v -0.483994 0.643588 0.139801
vn 0.0417723 -0.930132 0.364841
v -0.46929 0.689889 -0.119428
vn 0.0920199 -0.92923 -0.357859
v -0.255251 1.02372 0.175892
vn 0.809546 0.078443 0.581791
v -0.295638 0.925788 0.269836
vn 0.589739 -0.214158 0.778681
v -0.349866 0.784809 0.293634
vn 0.381258 -0.546464 0.745667
v -0.30865 0.904146 -0.191303
vn 0.666601 -0.333924 -0.666436
v -0.249734 1.06341 0.0617616
vn 0.942765 0.238881 0.232659
v -0.312573 1.00763 -0.137088
vn 0.806704 0.032827 -0.590043
v -0.552726 0.688393 -0.00438851
vn -0.16682 -0.98589 -0.0138848
v -0.475357 0.744433 0.244221
vn 0.0695451 -0.721222 0.689204
v -0.320964 1.09016 -0.0268049
vn 0.885269 0.445794 -0.13254
v -0.430358 0.883295 0.285987
vn 0.219943 -0.368579 0.903203
v -0.380946 1.02509 0.235832
vn 0.448639 0.0945299 0.8887
v -0.343034 1.10192 0.11404
vn 0.716213 0.465053 0.520351
v -0.416514 0.927644 -0.191496
vn 0.377629 -0.327286 -0.866187
v -0.416316 1.06572 -0.119322
vn 0.523438 0.411061 -0.746353
v -0.521899 0.979733 0.255676
vn -0.0850742 -0.0787328 0.993259
v -0.545498 0.841493 0.245369
vn -0.153898 -0.536156 0.829971
v -0.520563 0.983572 -0.163079
vn -0.124481 -0.0994487 -0.987226
v -0.579467 0.745996 0.151359
vn -0.259549 -0.829606 0.494356
v -0.641276 0.783893 0.0328805
vn -0.542799 -0.830307 0.126331
v -0.540259 1.1056 -0.0930389
vn -0.275024 0.72139 -0.635577
v -0.429067 1.14173 0.00420953
vn 0.447392 0.893944 0.0265504
v -0.467321 1.11259 0.173294
vn 0.156192 0.538125 0.828267
v -0.650483 0.888046 0.180474
vn -0.578141 -0.430116 0.693363
v -0.553479 0.822105 -0.141698
vn -0.2289 -0.761427 -0.606493
v -0.610118 1.0717 0.195657
vn -0.467221 0.304209 0.830158
v -0.629773 0.979254 -0.118475
vn -0.733429 -0.117251 -0.669578
v -0.664886 0.872811 -0.0562414
vn -0.764415 -0.58965 -0.260735
v -0.703995 0.889652 0.0549822
vn -0.855841 -0.462955 0.230673
v -0.55994 1.16943 0.0571438
vn -0.317845 0.898418 0.303018
v -0.671174 1.1035 -0.0405218
vn -0.838687 0.507134 -0.198542
v -0.714671 0.967146 -0.0227654
vn -0.983104 -0.150459 -0.104256
v -0.722612 1.00458 0.110213
vn -0.896027 0.0184538 0.443616
v -0.667068 1.13186 0.10402
vn -0.705235 0.556631 0.439096
v -0.0647525 0.634201 0.0517859
vn 0.762384 -0.640736 0.0907086
v -0.245706 0.749474 0.0435346
vn 0.707126 -0.696648 0.121058
v -0.5823 1.00348 0.0600372
vn -0.807411 0.0341833 0.588999
v -0.437518 0.921186 -0.0789488
vn 0.488673 -0.616399 -0.617456
v -0.54652 0.930861 -0.0504137
vn -0.477637 -0.709882 -0.51762
v -0.464179 0.971675 0.16581
vn 0.20828 -0.164698 0.964103
v -0.541843 0.863636 0.0498805
vn -0.276907 -0.902418 0.330096
v -0.434015 0.987687 0.0352784
vn 0.870171 -0.162374 0.465228
v -0.292561 0.944407 0.0755156
vn 0.911222 -0.244206 0.331719
v -0.428458 0.788931 0.0261637
vn 0.318824 -0.940615 0.116597
v -0.391216 0.90198 0.157647
vn 0.505592 -0.455566 0.732691
v -0.503507 1.01744 -0.0569503
vn -0.0587758 0.29228 -0.954525
v -0.324418 0.897261 -0.0665916
vn 0.820273 -0.47997 -0.311098
g leftSphere
usemtl leftSphere

s 1
f 75//75 76//76 66//66
f 77//77 82//82 73//73
f 46//46 43//43 55//55
f 72//72 77//77 73//73
f 43//43 59//59 55//55
f 77//77 86//86 82//82
f 53//53 44//44 49//49
f 8//8 12//12 3//3
f 3//3 12//12 7//7
f 2//2 8//8 3//3
f 74//74 84//84 83//83
f 74//74 68//68 71//71
f 79//79 87//87 86//86
f 2//2 4//4 5//5
f 38//38 47//47 49//49
f 76//76 83//83 79//79
f 50//50 58//58 60//60
f 46//46 34//34 43//43
f 30//30 22//22 18//18
f 75//75 66//66 63//63
f 20//20 25//25 16//16
f 6//6 15//15 20//20
f 52//52 50//50 60//60
f 2//2 3//3 1//1
f 36//36 45//45 51//51
f 66//66 55//55 59//59
f 16//16 26//26 21//21
f 16//16 25//25 27//27
f 50//50 52//52 40//40
f 13//13 10//10 9//9
f 24//24 25//25 20//20
f 44//44 39//39 49//49
f 14//14 19//19 17//17
f 24//24 23//23 33//33
f 31//31 19//19 38//38
f 22//22 15//15 18//18
f 43//43 34//34 40//40
f 31//31 39//39 32//32
f 16//16 8//8 6//6
f 21//21 26//26 29//29
f 57//57 56//56 64//64
f 47//47 62//62 53//53
f 3//3 7//7 1//1
f 29//29 48//48 42//42
f 30//30 45//45 36//36
f 76//76 69//69 65//65
f 28//28 34//34 46//46
f 17//17 11//11 14//14
f 46//46 56//56 48//48
f 84//84 80//80 85//85
f 43//43 52//52 59//59
f 77//77 69//69 79//79
f 56//56 55//55 65//65
f 67//67 51//51 78//78
f 75//75 83//83 76//76
f 17//17 32//32 13//13
f 48//48 28//28 46//46
f 6//6 8//8 2//2
f 79//79 69//69 76//76
f 44//44 45//45 35//35
f 5//5 6//6 2//2
f 16//16 12//12 8//8
f 58//58 41//41 51//51
f 21//21 12//12 16//16
f 48//48 56//56 57//57
f 58//58 51//51 67//67
f 23//23 15//15 22//22
f 27//27 34//34 28//28
f 73//73 81//81 78//78
f 14//14 12//12 21//21
f 10//10 15//15 5//5
f 80//80 84//84 74//74
f 29//29 19//19 21//21
f 70//70 77//77 72//72
f 24//24 34//34 25//25
f 28//28 26//26 27//27
f 49//49 39//39 31//31
f 40//40 33//33 50//50
f 83//83 84//84 87//87
f 5//5 15//15 6//6
f 17//17 19//19 31//31
f 38//38 29//29 42//42
f 49//49 47//47 53//53
f 68//68 67//67 71//71
f 9//9 11//11 13//13
f 42//42 47//47 38//38
f 65//65 66//66 76//76
f 1//1 4//4 2//2
f 85//85 81//81 82//82
f 68//68 60//60 67//67
f 16//16 6//6 20//20
f 79//79 86//86 77//77
f 13//13 11//11 17//17
f 86//86 85//85 82//82
f 39//39 44//44 35//35
f 64//64 56//56 65//65
f 78//78 61//61 73//73
f 79//79 83//83 87//87
f 54//54 61//61 78//78
f 87//87 84//84 86//86
f 73//73 61//61 72//72
f 84//84 85//85 86//86
f 48//48 57//57 42//42
f 59//59 63//63 66//66
f 25//25 34//34 27//27
f 14//14 11//11 7//7
f 28//28 48//48 29//29
f 29//29 26//26 28//28
f 51//51 54//54 78//78
f 70//70 62//62 64//64
f 20//20 23//23 24//24
f 54//54 45//45 44//44
f 32//32 30//30 18//18
f 74//74 75//75 68//68
f 71//71 80//80 74//74
f 65//65 55//55 66//66
f 74//74 83//83 75//75
f 56//56 46//46 55//55
f 53//53 72//72 61//61
f 71//71 78//78 80//80
f 62//62 47//47 57//57
f 71//71 67//67 78//78
f 58//58 67//67 60//60
f 80//80 81//81 85//85
f 13//13 18//18 10//10
f 59//59 52//52 63//63
f 21//21 19//19 14//14
f 44//44 53//53 61//61
f 9//9 4//4 1//1
f 77//77 70//70 69//69
f 37//37 23//23 22//22
f 1//1 7//7 9//9
f 5//5 4//4 10//10
f 62//62 57//57 64//64
f 80//80 78//78 81//81
f 33//33 23//23 37//37
f 40//40 34//34 24//24
f 32//32 18//18 13//13
f 50//50 41//41 58//58
f 75//75 63//63 68//68
f 37//37 41//41 33//33
f 10//10 4//4 9//9
f 7//7 11//11 9//9
f 63//63 52//52 60//60
f 57//57 47//47 42//42
f 49//49 31//31 38//38
f 35//35 32//32 39//39
f 31//31 32//32 17//17
f 73//73 82//82 81//81
f 30//30 32//32 35//35
f 20//20 15//15 23//23
f 27//27 26//26 16//16
f 35//35 45//45 30//30
f 36//36 37//37 22//22
f 7//7 12//12 14//14
f 36//36 41//41 37//37
f 18//18 15//15 10//10
f 70//70 64//64 69//69
f 33//33 41//41 50//50
f 54//54 44//44 61//61
f 24//24 33//33 40//40
f 51//51 45//45 54//54
f 40//40 52//52 43//43
f 38//38 19//19 29//29
f 51//51 41//41 36//36
f 72//72 62//62 70//70
f 22//22 30//30 36//36
f 53//53 62//62 72//72
f 69//69 64//64 65//65
f 63//63 60//60 68//68

## Object rightSphere

v -0.5875 0.25 0
vn 0 0 0
v -0.3375 0.25 0
vn 1 0 0
v -0.363893 0.361804 0
vn 0.894427 0.447214 0
v -0.356335 0.298578 0.0818727
vn 0.924658 0.194311 0.327491
v -0.365269 0.304668 -0.100621
vn 0.888925 0.218673 -0.402486
v -0.403472 0.399769 -0.078758
vn 0.736112 0.599077 -0.315032
v -0.432693 0.446087 0.00919147
vn 0.61923 0.784348 0.0367659
v -0.363941 0.188416 0.0934285
vn 0.894236 -0.246334 0.373714
v -0.410629 0.387968 0.110368
vn 0.707486 0.551874 0.441473
v -0.367473 0.191604 -0.103335
vn 0.880107 -0.233582 -0.413341
v -0.358458 0.149801 -8.75488e-05
vn 0.916168 -0.400795 -0.000350195
v -0.421135 0.251713 -0.186601
vn 0.665458 0.00685229 -0.746404
v -0.444167 0.364414 -0.169897
vn 0.573332 0.457656 -0.67959
v -0.485119 0.455304 -0.0993403
vn 0.409525 0.821214 -0.397361
v -0.409409 0.274129 0.173785
vn 0.712366 0.096514 0.69514
v -0.527304 0.492563 -0.00629535
vn 0.240784 0.970252 -0.0251814
v -0.442748 0.137095 -0.169703
vn 0.579009 -0.45162 -0.678813
v -0.436004 0.146356 0.169726
vn 0.605982 -0.414577 0.678905
v -0.511892 0.464419 0.103961
vn 0.302433 0.857675 0.415846
v -0.414726 0.0800885 0.061474
vn 0.691098 -0.679646 0.245896
v -0.500173 0.374247 0.198587
vn 0.349309 0.496986 0.794347
v -0.413442 0.0814998 -0.0617362
vn 0.696233 -0.674001 -0.246945
v -0.596483 0.483348 -0.0892645
vn -0.035932 0.933391 -0.357058
v -0.502895 0.196054 -0.22898
vn 0.338418 -0.215782 -0.915921
v -0.54919 0.415044 -0.183828
vn 0.153241 0.660177 -0.735312
v -0.518203 0.302872 -0.234313
vn 0.277186 0.211488 -0.937252
v -0.506754 0.236186 0.236198
vn 0.322982 -0.0552575 0.944791
v -0.533178 0.122009 0.207768
vn 0.21729 -0.511964 0.83107
v -0.500781 0.048265 -0.119511
vn 0.346876 -0.80694 -0.478043
v -0.627208 0.494429 0.0343175
vn -0.158833 0.977716 0.13727
v -0.514707 0.0432995 0.120316
vn 0.291174 -0.826802 0.481264
v -0.556411 0.102098 -0.199144
vn 0.124357 -0.591609 -0.796576
v -0.652097 0.431072 -0.159813
vn -0.258388 0.724289 -0.639251
v -0.502034 0.0151782 -0.0073646
vn 0.341866 -0.939287 -0.0294584
v -0.606661 0.322435 0.238508
vn -0.0766425 0.289742 0.954031
v -0.709291 0.458556 -0.0645855
vn -0.487165 0.834224 -0.258342
v -0.620815 0.440442 0.158499
vn -0.133259 0.761769 0.633996
v -0.609796 0.20734 -0.245322
vn -0.0891821 -0.170641 -0.981289
v -0.615078 0.185665 0.240001
vn -0.11031 -0.257341 0.960004
v -0.604107 0.0208233 -0.0985003
vn -0.0664263 -0.916707 -0.394001
v -0.738032 0.440036 0.0610438
vn -0.602127 0.760145 0.244175
v -0.625648 0.0683658 0.167492
vn -0.152591 -0.726537 0.66997
v -0.639455 0.335107 -0.229254
vn -0.207822 0.340429 -0.917016
v -0.70028 0.256923 0.223008
vn -0.451122 0.0276906 0.892033
v -0.798255 0.376885 -0.044525
vn -0.843022 0.507538 -0.1781
v -0.728947 0.364011 0.171739
vn -0.565787 0.456045 0.686955
v -0.682286 0.105617 -0.180746
vn -0.379144 -0.577531 -0.722985
v -0.618059 0.00569375 0.0433655
vn -0.122236 -0.977225 0.173462
v -0.740168 0.370642 -0.156965
vn -0.610673 0.482569 -0.627859
v -0.725921 0.239512 -0.207917
vn -0.553685 -0.0419533 -0.831669
v -0.716083 0.147342 0.188223
vn -0.514331 -0.410633 0.752891
v -0.811335 0.338188 0.0679763
vn -0.89534 0.352752 0.271905
v -0.726307 0.0495782 -0.0553525
vn -0.555226 -0.801687 -0.22141
v -0.728081 0.0603012 0.082167
vn -0.562323 -0.758795 0.328668
v -0.781603 0.249774 0.157556
vn -0.776413 -0.000904782 0.630224
v -0.790415 0.161365 -0.116058
vn -0.811658 -0.354539 -0.464234
v -0.800165 0.278246 -0.128358
vn -0.85066 0.112984 -0.513432
v -0.788956 0.146983 0.106315
vn -0.805824 -0.412069 0.42526
v -0.835034 0.250792 -0.035022
vn -0.990134 0.00316965 -0.140088
v -0.805951 0.128435 0.00096488
vn -0.873805 -0.486261 0.00385952
v -0.827736 0.222041 0.063286
vn -0.960943 -0.111836 0.253144
g rightSphere
usemtl rightSphere

s 1
f 160//160 161//161 159//159
f 159//159 161//161 152//152
f 156//156 160//160 159//159
f 134//134 120//120 131//131
f 153//153 156//156 147//147
f 155//155 158//158 151//151
f 139//139 128//128 127//127
f 116//116 123//123 130//130
f 112//112 117//117 124//124
f 150//150 149//149 143//143
f 126//126 112//112 124//124
f 139//139 127//127 135//135
f 152//152 155//155 146//146
f 120//120 111//111 108//108
f 110//110 105//105 102//102
f 132//132 117//117 129//129
f 138//138 126//126 124//124
f 106//106 105//105 113//113
f 127//127 128//128 118//118
f 137//137 130//130 141//141
f 121//121 115//115 109//109
f 141//141 152//152 146//146
f 131//131 120//120 118//118
f 128//128 139//139 142//142
f 149//149 145//145 136//136
f 122//122 117//117 110//110
f 123//123 116//116 114//114
f 153//153 147//147 140//140
f 129//129 134//134 140//140
f 132//132 129//129 140//140
f 108//108 115//115 118//118
f 148//148 153//153 140//140
f 115//115 127//127 118//118
f 103//103 106//106 107//107
f 160//160 156//156 153//153
f 126//126 125//125 113//113
f 121//121 109//109 119//119
f 136//136 145//145 141//141
f 111//111 122//122 110//110
f 117//117 112//112 110//110
f 134//134 122//122 120//120
f 131//131 128//128 142//142
f 148//148 131//131 142//142
f 128//128 131//131 118//118
f 156//156 159//159 157//157
f 150//150 138//138 147//147
f 133//133 149//149 136//136
f 158//158 154//154 151//151
f 106//106 114//114 107//107
f 148//148 134//134 131//131
f 123//123 114//114 125//125
f 154//154 142//142 151//151
f 160//160 154//154 158//158
f 121//121 127//127 115//115
f 108//108 111//111 102//102
f 109//109 103//103 107//107
f 127//127 121//121 135//135
f 142//142 139//139 151//151
f 104//104 115//115 108//108
f 161//161 160//160 158//158
f 154//154 148//148 142//142
f 138//138 143//143 126//126
f 145//145 149//149 157//157
f 105//105 112//112 113//113
f 156//156 150//150 147//147
f 112//112 105//105 110//110
f 135//135 137//137 146//146
f 123//123 136//136 130//130
f 145//145 159//159 152//152
f 144//144 139//139 135//135
f 149//149 150//150 157//157
f 114//114 116//116 107//107
f 144//144 155//155 151//151
f 123//123 133//133 136//136
f 116//116 119//119 107//107
f 161//161 155//155 152//152
f 149//149 133//133 143//143
f 109//109 104//104 103//103
f 138//138 150//150 143//143
f 133//133 123//123 125//125
f 148//148 154//154 153//153
f 134//134 148//148 140//140
f 132//132 138//138 124//124
f 104//104 108//108 102//102
f 122//122 134//134 129//129
f 137//137 119//119 130//130
f 111//111 110//110 102//102
f 125//125 114//114 113//113
f 144//144 135//135 146//146
f 139//139 144//144 151//151
f 138//138 132//132 147//147
f 103//103 104//104 102//102
f 130//130 136//136 141//141
f 141//141 145//145 152//152
f 137//137 121//121 119//119
f 154//154 160//160 153//153
f 122//122 111//111 120//120
f 112//112 126//126 113//113
f 150//150 156//156 157//157
f 117//117 122//122 129//129
f 115//115 104//104 109//109
f 119//119 109//109 107//107
f 105//105 106//106 103//103
f 119//119 116//116 130//130
f 147//147 132//132 140//140
f 121//121 137//137 135//135
f 105//105 103//103 102//102
f 143//143 133//133 125//125
f 159//159 145//145 157//157
f 114//114 106//106 113//113
f 120//120 108//108 118//118
f 137//137 141//141 146//146
f 155//155 144//144 146//146
f 126//126 143//143 125//125
f 155//155 161//161 158//158
f 117//117 132//132 124//124


## Object floor
v   1.0000 0.0000 -1.0400
v  -0.9900 0.0000 -1.0400
v  -1.0100 0.0000  0.9900
v   1.0000 0.0000  0.9900
# 4 vertices

vn 0.0000 1.0000 -0.0000
# 1 vertex normals

g floor
usemtl floor

s 1
f 162//162 163//162 164//162 
f 164//162 165//162 162//162 
# 2 faces

## Object ceiling 
v   1.0000 1.5900 -1.0400
v   1.0000 1.5900  0.9900
v  -1.0200 1.5900  0.9900
v  -1.0200 1.5900 -1.0400
# 4 vertices

vn 0.0000 -1.0000 -0.0000
# 1 vertex normals

g ceiling
usemtl ceiling

s 1
f 166//163 167//163 168//163 
f 168//163 169//163 166//163 
# 2 faces

## Object backwall 
v   1.0000 1.5900 -1.0400
v  -1.0200 1.5900 -1.0400
v  -0.9900 0.0000 -1.0400
v   1.0000 0.0000 -1.0400
# 4 vertices

vn 0.0000 0.0000 1.0000
# 1 vertex normals

g backWall
usemtl backWall

s 1
f 170//164 171//164 172//164 
f 172//164 173//164 170//164 
# 2 faces

## Object rightwall 
v  1.0000 1.5900 0.9900
v  1.0000 1.5900 -1.0400
v  1.0000 0.0000 -1.0400
v  1.0000 0.0000 0.9900
# 4 vertices

vn -1.0000 0.0000 -0.0000
# 1 vertex normals

g rightWall
usemtl rightWall

s 1
f 174//165 175//165 176//165 
f 176//165 177//165 174//165 
# 2 faces

## Object leftWall 
v  -1.0200 1.5900 -1.0400
v  -1.0200 1.5900 0.9900
v  -1.0100 0.0000 0.9900
v  -0.9900 0.0000 -1.0400
# 4 vertices

vn 0.9999 0.0135 0.0057
vn 1.0000 0.0063 -0.0000
vn 0.9999 0.0116 0.0042
vn 0.9998 0.0189 0.0098
# 4 vertex normals

g leftWall
usemtl leftWall

s 1
f 178//166 179//167 180//168 
f 180//168 181//169 178//166 
# 2 faces

## Object light
v  0.2300 1.5800 -0.2200
v  0.2300 1.5800 0.1600
v  -0.2400 1.5800 0.1600
v  -0.2400 1.5800 -0.2200
# 4 vertices

vn 0.0000 -1.0000 -0.0000
# 1 vertex normals

g light
usemtl light

s 1
f 182//170 183//170 184//170 
f 184//170 185//170 182//170 
# 2 faces
