mtllib CornellBox-Sphere.mtl

## Object leftSphere

v -0.194102 0.854844 -0.0114016
vn 0.902933 -0.428462 -0.0336547
v 0.0407978 0.771492 -0.00862156
vn 0.921046 -0.389177 -0.0146836
v 0.052735 0.886013 0.00172634
vn 0.979386 -0.201973 0.00305888
v 0.0357962 0.817051 0.077222
vn 0.937671 -0.320171 0.135143
v 0.0373443 0.841111 -0.103736
vn 0.942933 -0.278819 -0.182037
v 0.0312948 0.941851 -0.0732267
vn 0.984863 -0.10779 -0.135741
v 0.0141492 0.987725 0.0180248
vn 0.999102 -0.0238529 0.035026
v -0.00816619 0.714323 0.0778876
vn 0.85672 -0.497618 0.135672
v 0.0121649 0.917308 0.113322
vn 0.964475 -0.15572 0.213401
v -0.00244489 0.735962 -0.117946
vn 0.864577 -0.458805 -0.204949
v -0.012628 0.684273 -0.0192649
vn 0.838819 -0.5434 -0.0331569
v -0.028601 0.819363 -0.195278
vn 0.870902 -0.333724 -0.360774
v -0.0139952 0.931189 -0.167289
vn 0.937191 -0.132692 -0.322592
v -0.0273653 1.02358 -0.0884882
vn 0.981742 0.0489747 -0.183805
v -0.0255169 0.803797 0.16577
vn 0.879412 -0.363646 0.30724
v -0.0604796 1.06395 0.00711021
vn 0.989454 0.143963 0.0160066
v -0.0882417 0.718156 -0.19131
vn 0.77051 -0.527406 -0.357992
v -0.0926013 0.692018 0.148817
vn 0.765856 -0.578965 0.279757
v -0.0595633 1.0226 0.113427
vn 0.967208 0.049634 0.249088
v -0.0916769 0.632383 0.0339077
vn 0.741768 -0.667822 0.0615974
v -0.0803543 0.925605 0.199285
vn 0.891952 -0.158125 0.423578
v -0.0850806 0.644904 -0.0890708
vn 0.749845 -0.641733 -0.160969
v -0.124835 1.08624 -0.0755609
vn 0.956333 0.219834 -0.192612
v -0.121722 0.800844 -0.244577
vn 0.768047 -0.404363 -0.496583
v -0.0963065 1.01631 -0.176154
vn 0.915915 0.0369992 -0.399664
v -0.100545 0.9064 -0.238127
vn 0.842069 -0.197314 -0.501982
v -0.131833 0.794096 0.223568
vn 0.771166 -0.431289 0.468287
v -0.193509 0.697708 0.182897
vn 0.655278 -0.6463 0.391033
v -0.175455 0.650322 -0.15234
vn 0.648039 -0.698224 -0.304186
v -0.15668 1.0944 0.0478685
vn 0.955616 0.262765 0.13324
v -0.200212 0.626186 0.086921
vn 0.615587 -0.767591 0.178484
v -0.20501 0.728786 -0.226435
vn 0.640906 -0.589249 -0.49196
v -0.190003 1.06362 -0.150912
vn 0.884192 0.181458 -0.430439
v -0.193374 0.608196 -0.0438481
vn 0.613924 -0.784468 -0.0877925
v -0.199226 0.906921 0.233664
vn 0.767122 -0.237397 0.595958
v -0.240794 1.09777 -0.0535265
vn 0.918663 0.346511 -0.189706
v -0.172426 1.02967 0.165682
vn 0.889452 0.0805704 0.44987
v -0.217426 0.850557 -0.2607
vn 0.685049 -0.362297 -0.63202
v -0.250756 0.780828 0.221172
vn 0.624918 -0.549519 0.554532
v -0.28272 0.658104 -0.13649
vn 0.508288 -0.799808 -0.319296
v -0.279691 1.07644 0.0692838
vn 0.905624 0.314215 0.284804
v -0.297238 0.681664 0.135351
vn 0.505688 -0.793932 0.337567
v -0.204673 0.977857 -0.230406
vn 0.787063 -0.0590118 -0.614044
v -0.308191 0.876452 0.210924
vn 0.617315 -0.397625 0.678834
v -0.351232 1.04821 -0.0426901
vn 0.917722 0.29738 -0.263346
v -0.299477 0.990862 0.170927
vn 0.760578 -0.0346612 0.648321
v -0.322775 0.773461 -0.209067
vn 0.498409 -0.637097 -0.58796
v -0.307594 0.633242 0.00378728
vn 0.464546 -0.885502 0.00914401
v -0.292427 1.03645 -0.155023
vn 0.793402 0.139324 -0.592539
v -0.318115 0.915759 -0.220713
vn 0.610046 -0.282546 -0.740278
v -0.356956 0.782498 0.164276
vn 0.464695 -0.706579 0.53367
v -0.3811 1.00381 0.0646849
vn 0.878074 0.0281204 0.477697
v -0.38968 0.721418 -0.0912156
vn 0.352227 -0.88945 -0.291231
v -0.393654 0.71662 0.0480265
vn 0.34701 -0.924676 0.156712
v -0.384957 0.902296 0.144312
vn 0.550912 -0.46788 0.691075
v -0.409305 0.853829 -0.138941
vn 0.410154 -0.661034 -0.628338
v -0.379914 0.967007 -0.137563
vn 0.647151 -0.177801 -0.741338
v -0.422995 0.814533 0.0816812
vn 0.355198 -0.855499 0.37677
v -0.426383 0.941937 -0.0480549
vn 0.69874 -0.551109 -0.456114
v -0.440629 0.814681 -0.0260766
vn 0.302396 -0.943884 -0.132816
v -0.433433 0.901664 0.0467692
vn 0.521578 -0.770499 0.366453
g leftSphere
usemtl leftSphere

s 1
f 60//60 61//61 59//59
f 59//59 61//61 52//52
f 56//56 60//60 59//59
f 34//34 20//20 31//31
f 53//53 56//56 47//47
f 55//55 58//58 51//51
f 39//39 28//28 27//27
f 16//16 23//23 30//30
f 12//12 17//17 24//24
f 50//50 49//49 43//43
f 26//26 12//12 24//24
f 39//39 27//27 35//35
f 52//52 55//55 46//46
f 20//20 11//11 8//8
f 10//10 5//5 2//2
f 32//32 17//17 29//29
f 38//38 26//26 24//24
f 6//6 5//5 13//13
f 27//27 28//28 18//18
f 37//37 30//30 41//41
f 21//21 15//15 9//9
f 41//41 52//52 46//46
f 31//31 20//20 18//18
f 28//28 39//39 42//42
f 49//49 45//45 36//36
f 22//22 17//17 10//10
f 23//23 16//16 14//14
f 53//53 47//47 40//40
f 29//29 34//34 40//40
f 32//32 29//29 40//40
f 8//8 15//15 18//18
f 48//48 53//53 40//40
f 15//15 27//27 18//18
f 3//3 6//6 7//7
f 60//60 56//56 53//53
f 26//26 25//25 13//13
f 21//21 9//9 19//19
f 36//36 45//45 41//41
f 11//11 22//22 10//10
f 17//17 12//12 10//10
f 34//34 22//22 20//20
f 31//31 28//28 42//42
f 48//48 31//31 42//42
f 28//28 31//31 18//18
f 56//56 59//59 57//57
f 50//50 38//38 47//47
f 33//33 49//49 36//36
f 58//58 54//54 51//51
f 6//6 14//14 7//7
f 48//48 34//34 31//31
f 23//23 14//14 25//25
f 54//54 42//42 51//51
f 60//60 54//54 58//58
f 21//21 27//27 15//15
f 8//8 11//11 2//2
f 9//9 3//3 7//7
f 27//27 21//21 35//35
f 42//42 39//39 51//51
f 4//4 15//15 8//8
f 61//61 60//60 58//58
f 54//54 48//48 42//42
f 38//38 43//43 26//26
f 45//45 49//49 57//57
f 5//5 12//12 13//13
f 56//56 50//50 47//47
f 12//12 5//5 10//10
f 35//35 37//37 46//46
f 23//23 36//36 30//30
f 45//45 59//59 52//52
f 44//44 39//39 35//35
f 49//49 50//50 57//57
f 14//14 16//16 7//7
f 44//44 55//55 51//51
f 23//23 33//33 36//36
f 16//16 19//19 7//7
f 61//61 55//55 52//52
f 49//49 33//33 43//43
f 9//9 4//4 3//3
f 38//38 50//50 43//43
f 33//33 23//23 25//25
f 48//48 54//54 53//53
f 34//34 48//48 40//40
f 32//32 38//38 24//24
f 4//4 8//8 2//2
f 22//22 34//34 29//29
f 37//37 19//19 30//30
f 11//11 10//10 2//2
f 25//25 14//14 13//13
f 44//44 35//35 46//46
f 39//39 44//44 51//51
f 38//38 32//32 47//47
f 3//3 4//4 2//2
f 30//30 36//36 41//41
f 41//41 45//45 52//52
f 37//37 21//21 19//19
f 54//54 60//60 53//53
f 22//22 11//11 20//20
f 12//12 26//26 13//13
f 50//50 56//56 57//57
f 17//17 22//22 29//29
f 15//15 4//4 9//9
f 19//19 9//9 7//7
f 5//5 6//6 3//3
f 19//19 16//16 30//30
f 47//47 32//32 40//40
f 21//21 37//37 35//35
f 5//5 3//3 2//2
f 43//43 33//33 25//25
f 59//59 45//45 57//57
f 14//14 6//6 13//13
f 20//20 8//8 18//18
f 37//37 41//41 46//46
f 55//55 44//44 46//46
f 26//26 43//43 25//25
f 55//55 61//61 58//58
f 17//17 32//32 24//24

## Object rightSphere

v -0.5875 0.25 0
vn 0 0 0
v -0.3375 0.25 0
vn 1 0 0
v -0.363893 0.361804 0
vn 0.894427 0.447214 0
v -0.356335 0.298578 0.0818727
vn 0.924658 0.194311 0.327491
v -0.365269 0.304668 -0.100621
vn 0.888925 0.218673 -0.402486
v -0.403472 0.399769 -0.078758
vn 0.736112 0.599077 -0.315032
v -0.432693 0.446087 0.00919147
vn 0.61923 0.784348 0.0367659
v -0.363941 0.188416 0.0934285
vn 0.894236 -0.246334 0.373714
v -0.410629 0.387968 0.110368
vn 0.707486 0.551874 0.441473
v -0.367473 0.191604 -0.103335
vn 0.880107 -0.233582 -0.413341
v -0.358458 0.149801 -8.75488e-05
vn 0.916168 -0.400795 -0.000350195
v -0.421135 0.251713 -0.186601
vn 0.665458 0.00685229 -0.746404
v -0.444167 0.364414 -0.169897
vn 0.573332 0.457656 -0.67959
v -0.485119 0.455304 -0.0993403
vn 0.409525 0.821214 -0.397361
v -0.409409 0.274129 0.173785
vn 0.712366 0.096514 0.69514
v -0.527304 0.492563 -0.00629535
vn 0.240784 0.970252 -0.0251814
v -0.442748 0.137095 -0.169703
vn 0.579009 -0.45162 -0.678813
v -0.436004 0.146356 0.169726
vn 0.605982 -0.414577 0.678905
v -0.511892 0.464419 0.103961
vn 0.302433 0.857675 0.415846
v -0.414726 0.0800885 0.061474
vn 0.691098 -0.679646 0.245896
v -0.500173 0.374247 0.198587
vn 0.349309 0.496986 0.794347
v -0.413442 0.0814998 -0.0617362
vn 0.696233 -0.674001 -0.246945
v -0.596483 0.483348 -0.0892645
vn -0.035932 0.933391 -0.357058
v -0.502895 0.196054 -0.22898
vn 0.338418 -0.215782 -0.915921
v -0.54919 0.415044 -0.183828
vn 0.153241 0.660177 -0.735312
v -0.518203 0.302872 -0.234313
vn 0.277186 0.211488 -0.937252
v -0.506754 0.236186 0.236198
vn 0.322982 -0.0552575 0.944791
v -0.533178 0.122009 0.207768
vn 0.21729 -0.511964 0.83107
v -0.500781 0.048265 -0.119511
vn 0.346876 -0.80694 -0.478043
v -0.627208 0.494429 0.0343175
vn -0.158833 0.977716 0.13727
v -0.514707 0.0432995 0.120316
vn 0.291174 -0.826802 0.481264
v -0.556411 0.102098 -0.199144
vn 0.124357 -0.591609 -0.796576
v -0.652097 0.431072 -0.159813
vn -0.258388 0.724289 -0.639251
v -0.502034 0.0151782 -0.0073646
vn 0.341866 -0.939287 -0.0294584
v -0.606661 0.322435 0.238508
vn -0.0766425 0.289742 0.954031
v -0.709291 0.458556 -0.0645855
vn -0.487165 0.834224 -0.258342
v -0.620815 0.440442 0.158499
vn -0.133259 0.761769 0.633996
v -0.609796 0.20734 -0.245322
vn -0.0891821 -0.170641 -0.981289
v -0.615078 0.185665 0.240001
vn -0.11031 -0.257341 0.960004
v -0.604107 0.0208233 -0.0985003
vn -0.0664263 -0.916707 -0.394001
v -0.738032 0.440036 0.0610438
vn -0.602127 0.760145 0.244175
v -0.625648 0.0683658 0.167492
vn -0.152591 -0.726537 0.66997
v -0.639455 0.335107 -0.229254
vn -0.207822 0.340429 -0.917016
v -0.70028 0.256923 0.223008
vn -0.451122 0.0276906 0.892033
v -0.798255 0.376885 -0.044525
vn -0.843022 0.507538 -0.1781
v -0.728947 0.364011 0.171739
vn -0.565787 0.456045 0.686955
v -0.682286 0.105617 -0.180746
vn -0.379144 -0.577531 -0.722985
v -0.618059 0.00569375 0.0433655
vn -0.122236 -0.977225 0.173462
v -0.740168 0.370642 -0.156965
vn -0.610673 0.482569 -0.627859
v -0.725921 0.239512 -0.207917
vn -0.553685 -0.0419533 -0.831669
v -0.716083 0.147342 0.188223
vn -0.514331 -0.410633 0.752891
v -0.811335 0.338188 0.0679763
vn -0.89534 0.352752 0.271905
v -0.726307 0.0495782 -0.0553525
vn -0.555226 -0.801687 -0.22141
v -0.728081 0.0603012 0.082167
vn -0.562323 -0.758795 0.328668
v -0.781603 0.249774 0.157556
vn -0.776413 -0.000904782 0.630224
v -0.790415 0.161365 -0.116058
vn -0.811658 -0.354539 -0.464234
v -0.800165 0.278246 -0.128358
vn -0.85066 0.112984 -0.513432
v -0.788956 0.146983 0.106315
vn -0.805824 -0.412069 0.42526
v -0.835034 0.250792 -0.035022
vn -0.990134 0.00316965 -0.140088
v -0.805951 0.128435 0.00096488
vn -0.873805 -0.486261 0.00385952
v -0.827736 0.222041 0.063286
vn -0.960943 -0.111836 0.253144
g rightSphere
usemtl rightSphere

s 1
f 121//121 122//122 120//120
f 120//120 122//122 113//113
f 117//117 121//121 120//120
f 95//95 81//81 92//92
f 114//114 117//117 108//108
f 116//116 119//119 112//112
f 100//100 89//89 88//88
f 77//77 84//84 91//91
f 73//73 78//78 85//85
f 111//111 110//110 104//104
f 87//87 73//73 85//85
f 100//100 88//88 96//96
f 113//113 116//116 107//107
f 81//81 72//72 69//69
f 71//71 66//66 63//63
f 93//93 78//78 90//90
f 99//99 87//87 85//85
f 67//67 66//66 74//74
f 88//88 89//89 79//79
f 98//98 91//91 102//102
f 82//82 76//76 70//70
f 102//102 113//113 107//107
f 92//92 81//81 79//79
f 89//89 100//100 103//103
f 110//110 106//106 97//97
f 83//83 78//78 71//71
f 84//84 77//77 75//75
f 114//114 108//108 101//101
f 90//90 95//95 101//101
f 93//93 90//90 101//101
f 69//69 76//76 79//79
f 109//109 114//114 101//101
f 76//76 88//88 79//79
f 64//64 67//67 68//68
f 121//121 117//117 114//114
f 87//87 86//86 74//74
f 82//82 70//70 80//80
f 97//97 106//106 102//102
f 72//72 83//83 71//71
f 78//78 73//73 71//71
f 95//95 83//83 81//81
f 92//92 89//89 103//103
f 109//109 92//92 103//103
f 89//89 92//92 79//79
f 117//117 120//120 118//118
f 111//111 99//99 108//108
f 94//94 110//110 97//97
f 119//119 115//115 112//112
f 67//67 75//75 68//68
f 109//109 95//95 92//92
f 84//84 75//75 86//86
f 115//115 103//103 112//112
f 121//121 115//115 119//119
f 82//82 88//88 76//76
f 69//69 72//72 63//63
f 70//70 64//64 68//68
f 88//88 82//82 96//96
f 103//103 100//100 112//112
f 65//65 76//76 69//69
f 122//122 121//121 119//119
f 115//115 109//109 103//103
f 99//99 104//104 87//87
f 106//106 110//110 118//118
f 66//66 73//73 74//74
f 117//117 111//111 108//108
f 73//73 66//66 71//71
f 96//96 98//98 107//107
f 84//84 97//97 91//91
f 106//106 120//120 113//113
f 105//105 100//100 96//96
f 110//110 111//111 118//118
f 75//75 77//77 68//68
f 105//105 116//116 112//112
f 84//84 94//94 97//97
f 77//77 80//80 68//68
f 122//122 116//116 113//113
f 110//110 94//94 104//104
f 70//70 65//65 64//64
f 99//99 111//111 104//104
f 94//94 84//84 86//86
f 109//109 115//115 114//114
f 95//95 109//109 101//101
f 93//93 99//99 85//85
f 65//65 69//69 63//63
f 83//83 95//95 90//90
f 98//98 80//80 91//91
f 72//72 71//71 63//63
f 86//86 75//75 74//74
f 105//105 96//96 107//107
f 100//100 105//105 112//112
f 99//99 93//93 108//108
f 64//64 65//65 63//63
f 91//91 97//97 102//102
f 102//102 106//106 113//113
f 98//98 82//82 80//80
f 115//115 121//121 114//114
f 83//83 72//72 81//81
f 73//73 87//87 74//74
f 111//111 117//117 118//118
f 78//78 83//83 90//90
f 76//76 65//65 70//70
f 80//80 70//70 68//68
f 66//66 67//67 64//64
f 80//80 77//77 91//91
f 108//108 93//93 101//101
f 82//82 98//98 96//96
f 66//66 64//64 63//63
f 104//104 94//94 86//86
f 120//120 106//106 118//118
f 75//75 67//67 74//74
f 81//81 69//69 79//79
f 98//98 102//102 107//107
f 116//116 105//105 107//107
f 87//87 104//104 86//86
f 116//116 122//122 119//119
f 78//78 93//93 85//85


## Object floor
v   1.0000 0.0000 -1.0400
v  -0.9900 0.0000 -1.0400
v  -1.0100 0.0000  0.9900
v   1.0000 0.0000  0.9900
# 4 vertices

vn 0.0000 1.0000 -0.0000
# 1 vertex normals

g floor
usemtl floor

s 1
f 123//123 124//123 125//123 
f 125//123 126//123 123//123 
# 2 faces

## Object ceiling 
v   1.0000 1.5900 -1.0400
v   1.0000 1.5900  0.9900
v  -1.0200 1.5900  0.9900
v  -1.0200 1.5900 -1.0400
# 4 vertices

vn 0.0000 -1.0000 -0.0000
# 1 vertex normals

g ceiling
usemtl ceiling

s 1
f 127//124 128//124 129//124 
f 129//124 130//124 127//124 
# 2 faces

## Object backwall 
v   1.0000 1.5900 -1.0400
v  -1.0200 1.5900 -1.0400
v  -0.9900 0.0000 -1.0400
v   1.0000 0.0000 -1.0400
# 4 vertices

vn 0.0000 0.0000 1.0000
# 1 vertex normals

g backWall
usemtl backWall

s 1
f 131//125 132//125 133//125 
f 133//125 134//125 131//125 
# 2 faces

## Object rightwall 
v  1.0000 1.5900 0.9900
v  1.0000 1.5900 -1.0400
v  1.0000 0.0000 -1.0400
v  1.0000 0.0000 0.9900
# 4 vertices

vn -1.0000 0.0000 -0.0000
# 1 vertex normals

g rightWall
usemtl rightWall

s 1
f 135//126 136//126 137//126 
f 137//126 138//126 135//126 
# 2 faces

## Object leftWall 
v  -1.0200 1.5900 -1.0400
v  -1.0200 1.5900 0.9900
v  -1.0100 0.0000 0.9900
v  -0.9900 0.0000 -1.0400
# 4 vertices

vn 0.9999 0.0135 0.0057
vn 1.0000 0.0063 -0.0000
vn 0.9999 0.0116 0.0042
vn 0.9998 0.0189 0.0098
# 4 vertex normals

g leftWall
usemtl leftWall

s 1
f 139//127 140//128 141//129 
f 141//129 142//130 139//127 
# 2 faces

## Object light
v  0.2300 1.5800 -0.2200
v  0.2300 1.5800 0.1600
v  -0.2400 1.5800 0.1600
v  -0.2400 1.5800 -0.2200
# 4 vertices

vn 0.0000 -1.0000 -0.0000
# 1 vertex normals

g light
usemtl light

s 1
f 143//131 144//131 145//131 
f 145//131 146//131 143//131 
# 2 faces
