mtllib CornellBox-Sphere.mtl

## Object leftSphere

v 1.75238e-05 0.708145 -1.21858e-06
vn 0.863645 -0.504101 -2.10477e-06
v -0.034427 0.79935 -4.38796e-07
vn 0.918344 -0.395783 -8.65527e-07
v -0.0237889 0.735573 0.0711344
vn 0.866901 -0.481367 0.129494
v -0.025489 0.742777 -0.0708213
vn 0.871668 -0.472514 -0.130097
v -0.0731498 0.809634 -0.0815935
vn 0.899683 -0.40124 -0.171977
v -0.107961 0.863344 -0.0011459
vn 0.944273 -0.329153 -0.00276004
v -0.0339248 0.636429 0.0552743
vn 0.785051 -0.612395 0.0931033
v -0.0728665 0.808073 0.08315
vn 0.898099 -0.403549 0.174833
v -0.0353248 0.643213 -0.0656293
vn 0.788234 -0.605222 -0.111328
v -0.0894346 0.717892 -0.14237
vn 0.792458 -0.544515 -0.274798
v -0.081181 0.571847 -0.00870455
vn 0.699198 -0.714781 -0.0145318
v -0.0855614 0.702456 0.139771
vn 0.783457 -0.562478 0.264224
v -0.120364 0.59471 -0.116657
vn 0.669029 -0.714238 -0.205584
v -0.116824 0.582197 0.0996946
vn 0.665691 -0.725849 0.173199
v -0.162776 0.8355 -0.13365
vn 0.846659 -0.413006 -0.335552
v -0.16581 0.832981 0.137877
vn 0.839185 -0.419401 0.346223
v -0.169705 0.520619 -0.00816504
vn 0.567312 -0.823383 -0.0140242
v -0.187386 0.689196 -0.194221
vn 0.648962 -0.645204 -0.403188
v -0.221804 0.537531 0.118565
vn 0.503463 -0.836949 0.214573
v -0.204522 0.909647 -0.00956772
vn 0.955832 -0.292279 -0.0309503
v -0.177504 0.658555 0.184539
vn 0.639085 -0.676635 0.365698
v -0.266265 0.788964 -0.205783
vn 0.62133 -0.560991 -0.547027
v -0.271241 0.896445 -0.118372
vn 0.824036 -0.373026 -0.426399
v -0.320834 0.941702 -0.00253614
vn 0.950839 -0.309391 -0.0134594
v -0.260392 0.906854 0.0932412
vn 0.876199 -0.340615 0.340965
v -0.244805 0.746517 0.211599
vn 0.611515 -0.607413 0.507049
v -0.276656 0.847014 0.17544
vn 0.692339 -0.474239 0.543842
v -0.351796 0.776639 0.228899
vn 0.42045 -0.633667 0.649376
v -0.299589 0.625144 0.213601
vn 0.421281 -0.787981 0.449008
v -0.304159 0.661122 -0.225239
vn 0.43368 -0.750426 -0.498781
v -0.277824 0.484495 -0.00214633
vn 0.395789 -0.918334 -0.00382352
v -0.241032 0.54795 -0.141705
vn 0.479658 -0.837282 -0.262464
v -0.385576 0.928214 -0.10425
vn 0.670602 -0.420716 -0.610975
v -0.375638 0.905612 0.140486
vn 0.592122 -0.44941 0.668896
v -0.353866 0.560837 -0.188466
vn 0.29242 -0.878785 -0.37713
v -0.389498 0.759833 -0.238352
vn 0.310439 -0.674715 -0.669617
v -0.34906 0.856971 -0.186282
vn 0.540655 -0.51232 -0.667248
v -0.335769 0.502896 0.116276
vn 0.306237 -0.926936 0.216816
v -0.343775 0.495002 -0.103303
vn 0.290052 -0.937595 -0.191795
v -0.435861 0.955689 0.0166335
vn 0.80464 -0.555888 0.20867
v -0.451121 0.861969 -0.195627
vn 0.20003 -0.564869 -0.800569
v -0.402516 0.56125 0.196438
vn 0.198743 -0.894491 0.400484
v -0.499099 0.920519 0.13202
vn 0.0058491 -0.515768 0.856708
v -0.461611 0.512228 -0.1512
vn 0.0749632 -0.952475 -0.295249
v -0.433918 0.635888 -0.237236
vn 0.150332 -0.828329 -0.539696
v -0.464086 0.822216 0.221846
vn 0.125331 -0.620423 0.774188
v -0.458143 0.488888 0.112197
vn 0.0797339 -0.973634 0.213727
v -0.422983 0.675174 0.244986
vn 0.185995 -0.784454 0.59164
v -0.40271 0.46832 -0.00438102
vn 0.179992 -0.983635 -0.00810512
v -0.500984 0.937293 -0.100188
vn -0.00832714 -0.530525 -0.847629
v -0.535639 0.752122 -0.24581
vn -0.101562 -0.70639 -0.700499
v -0.557307 0.95575 0.0193735
vn -0.764601 -0.590399 0.258485
v -0.525736 0.492198 -0.00505182
vn -0.0506131 -0.998669 -0.00993515
v -0.553304 0.601337 -0.224385
vn -0.115736 -0.865591 -0.487193
v -0.587489 0.844274 0.205198
vn -0.321592 -0.572418 0.754265
v -0.558734 0.714519 0.24827
vn -0.153406 -0.74564 0.64845
v -0.515417 0.57655 0.212706
vn -0.032516 -0.893125 0.448632
v -0.55672 0.877255 -0.182204
vn -0.249981 -0.540974 -0.80303
v -0.60807 0.922629 0.116659
vn -0.611093 -0.437502 0.659665
v -0.622691 0.929744 -0.0985185
vn -0.711987 -0.407703 -0.57171
v -0.618028 0.511252 -0.140605
vn -0.226069 -0.936143 -0.269314
v -0.590482 0.500347 0.123566
vn -0.173138 -0.956095 0.236445
v -0.680996 0.939443 0.0282674
vn -0.938096 -0.313864 0.146509
v -0.641008 0.600537 0.214691
vn -0.296911 -0.841121 0.452061
v -0.687688 0.748341 0.228332
vn -0.48349 -0.648282 0.58819
v -0.70627 0.875546 0.154523
vn -0.720706 -0.434843 0.539902
v -0.655226 0.836801 -0.200064
vn -0.515265 -0.54173 -0.664102
v -0.740612 0.909704 -0.0864183
vn -0.887417 -0.333026 -0.318724
v -0.773125 0.628002 0.19352
vn -0.545781 -0.743357 0.386708
v -0.707133 0.523877 0.13286
vn -0.386473 -0.888362 0.247894
v -0.771092 0.813851 -0.181684
vn -0.721564 -0.49547 -0.483586
v -0.675788 0.483703 0.00939334
vn -0.322261 -0.946494 0.0172202
v -0.747636 0.518434 -0.105306
vn -0.4489 -0.872954 -0.190892
v -0.863205 0.860099 -0.0802402
vn -0.913948 -0.352039 -0.201912
v -0.799244 0.902252 0.0496157
vn -0.938982 -0.306717 0.155686
v -0.811946 0.785631 0.179393
vn -0.744745 -0.511788 0.428285
v -0.819242 0.524706 0.0581036
vn -0.554725 -0.825885 0.100963
v -0.700513 0.665649 -0.22534
vn -0.445283 -0.7425 -0.500417
v -0.899959 0.667031 0.144297
vn -0.740592 -0.616549 0.26719
v -0.855026 0.734755 -0.174049
vn -0.745662 -0.557097 -0.365556
v -0.819891 0.610205 -0.165408
vn -0.602785 -0.734508 -0.311686
v -0.861741 0.551049 -0.0716061
vn -0.622637 -0.772744 -0.12325
v -0.920217 0.8243 0.0697687
vn -0.911964 -0.381308 0.151414
v -0.965184 0.763224 -0.0732915
vn -0.882541 -0.449208 -0.139047
v -0.916287 0.636362 -0.118438
vn -0.73641 -0.643275 -0.209517
v -0.947109 0.596753 0.0107461
vn -0.742474 -0.669637 0.017845
v -0.981581 0.718392 0.0664658
vn -0.857181 -0.501243 0.118305
v -0.194386 0.724371 0.00994568
vn 0.74238 -0.669544 0.0241595
v -0.41015 0.709594 -0.00259168
vn 0.29556 -0.955286 -0.00852527
v -0.835008 0.694977 0.00735286
vn -0.739326 -0.673152 0.016227
v -0.669222 0.775883 -0.104703
vn -0.564616 -0.747775 -0.349344
v -0.761449 0.712629 -0.105475
vn -0.649449 -0.713841 -0.262004
v -0.721558 0.693235 0.125432
vn -0.555762 -0.769501 0.314637
v -0.718317 0.623421 -0.0367055
vn -0.499774 -0.86207 -0.0840268
v -0.708041 0.777398 0.0219483
vn -0.681043 -0.72871 0.07185
v -0.568361 0.808033 0.0784608
vn -0.313068 -0.879135 0.35932
v -0.582708 0.643749 -0.0515631
vn -0.223932 -0.964554 -0.139608
v -0.620696 0.689109 0.11386
vn -0.342497 -0.882214 0.3231
v -0.780254 0.800999 -0.0692453
vn -0.799296 -0.567559 -0.19749
v -0.564779 0.814293 -0.0737918
vn -0.308371 -0.884032 -0.351275
g leftSphere
usemtl leftSphere

s 1
f 75//75 76//76 66//66
f 77//77 82//82 73//73
f 46//46 43//43 55//55
f 72//72 77//77 73//73
f 43//43 59//59 55//55
f 77//77 86//86 82//82
f 53//53 44//44 49//49
f 8//8 12//12 3//3
f 3//3 12//12 7//7
f 2//2 8//8 3//3
f 74//74 84//84 83//83
f 74//74 68//68 71//71
f 79//79 87//87 86//86
f 2//2 4//4 5//5
f 38//38 47//47 49//49
f 76//76 83//83 79//79
f 50//50 58//58 60//60
f 46//46 34//34 43//43
f 30//30 22//22 18//18
f 75//75 66//66 63//63
f 20//20 25//25 16//16
f 6//6 15//15 20//20
f 52//52 50//50 60//60
f 2//2 3//3 1//1
f 36//36 45//45 51//51
f 66//66 55//55 59//59
f 16//16 26//26 21//21
f 16//16 25//25 27//27
f 50//50 52//52 40//40
f 13//13 10//10 9//9
f 24//24 25//25 20//20
f 44//44 39//39 49//49
f 14//14 19//19 17//17
f 24//24 23//23 33//33
f 31//31 19//19 38//38
f 22//22 15//15 18//18
f 43//43 34//34 40//40
f 31//31 39//39 32//32
f 16//16 8//8 6//6
f 21//21 26//26 29//29
f 57//57 56//56 64//64
f 47//47 62//62 53//53
f 3//3 7//7 1//1
f 29//29 48//48 42//42
f 30//30 45//45 36//36
f 76//76 69//69 65//65
f 28//28 34//34 46//46
f 17//17 11//11 14//14
f 46//46 56//56 48//48
f 84//84 80//80 85//85
f 43//43 52//52 59//59
f 77//77 69//69 79//79
f 56//56 55//55 65//65
f 67//67 51//51 78//78
f 75//75 83//83 76//76
f 17//17 32//32 13//13
f 48//48 28//28 46//46
f 6//6 8//8 2//2
f 79//79 69//69 76//76
f 44//44 45//45 35//35
f 5//5 6//6 2//2
f 16//16 12//12 8//8
f 58//58 41//41 51//51
f 21//21 12//12 16//16
f 48//48 56//56 57//57
f 58//58 51//51 67//67
f 23//23 15//15 22//22
f 27//27 34//34 28//28
f 73//73 81//81 78//78
f 14//14 12//12 21//21
f 10//10 15//15 5//5
f 80//80 84//84 74//74
f 29//29 19//19 21//21
f 70//70 77//77 72//72
f 24//24 34//34 25//25
f 28//28 26//26 27//27
f 49//49 39//39 31//31
f 40//40 33//33 50//50
f 83//83 84//84 87//87
f 5//5 15//15 6//6
f 17//17 19//19 31//31
f 38//38 29//29 42//42
f 49//49 47//47 53//53
f 68//68 67//67 71//71
f 9//9 11//11 13//13
f 42//42 47//47 38//38
f 65//65 66//66 76//76
f 1//1 4//4 2//2
f 85//85 81//81 82//82
f 68//68 60//60 67//67
f 16//16 6//6 20//20
f 79//79 86//86 77//77
f 13//13 11//11 17//17
f 86//86 85//85 82//82
f 39//39 44//44 35//35
f 64//64 56//56 65//65
f 78//78 61//61 73//73
f 79//79 83//83 87//87
f 54//54 61//61 78//78
f 87//87 84//84 86//86
f 73//73 61//61 72//72
f 84//84 85//85 86//86
f 48//48 57//57 42//42
f 59//59 63//63 66//66
f 25//25 34//34 27//27
f 14//14 11//11 7//7
f 28//28 48//48 29//29
f 29//29 26//26 28//28
f 51//51 54//54 78//78
f 70//70 62//62 64//64
f 20//20 23//23 24//24
f 54//54 45//45 44//44
f 32//32 30//30 18//18
f 74//74 75//75 68//68
f 71//71 80//80 74//74
f 65//65 55//55 66//66
f 74//74 83//83 75//75
f 56//56 46//46 55//55
f 53//53 72//72 61//61
f 71//71 78//78 80//80
f 62//62 47//47 57//57
f 71//71 67//67 78//78
f 58//58 67//67 60//60
f 80//80 81//81 85//85
f 13//13 18//18 10//10
f 59//59 52//52 63//63
f 21//21 19//19 14//14
f 44//44 53//53 61//61
f 9//9 4//4 1//1
f 77//77 70//70 69//69
f 37//37 23//23 22//22
f 1//1 7//7 9//9
f 5//5 4//4 10//10
f 62//62 57//57 64//64
f 80//80 78//78 81//81
f 33//33 23//23 37//37
f 40//40 34//34 24//24
f 32//32 18//18 13//13
f 50//50 41//41 58//58
f 75//75 63//63 68//68
f 37//37 41//41 33//33
f 10//10 4//4 9//9
f 7//7 11//11 9//9
f 63//63 52//52 60//60
f 57//57 47//47 42//42
f 49//49 31//31 38//38
f 35//35 32//32 39//39
f 31//31 32//32 17//17
f 73//73 82//82 81//81
f 30//30 32//32 35//35
f 20//20 15//15 23//23
f 27//27 26//26 16//16
f 35//35 45//45 30//30
f 36//36 37//37 22//22
f 7//7 12//12 14//14
f 36//36 41//41 37//37
f 18//18 15//15 10//10
f 70//70 64//64 69//69
f 33//33 41//41 50//50
f 54//54 44//44 61//61
f 24//24 33//33 40//40
f 51//51 45//45 54//54
f 40//40 52//52 43//43
f 38//38 19//19 29//29
f 51//51 41//41 36//36
f 72//72 62//62 70//70
f 22//22 30//30 36//36
f 53//53 62//62 72//72
f 69//69 64//64 65//65
f 63//63 60//60 68//68

## Object rightSphere

v -0.5875 0.25 0
vn 0 0 0
v -0.3375 0.25 0
vn 1 0 0
v -0.363893 0.361804 0
vn 0.894427 0.447214 0
v -0.356335 0.298578 0.0818727
vn 0.924658 0.194311 0.327491
v -0.365269 0.304668 -0.100621
vn 0.888925 0.218673 -0.402486
v -0.403472 0.399769 -0.078758
vn 0.736112 0.599077 -0.315032
v -0.432693 0.446087 0.00919147
vn 0.61923 0.784348 0.0367659
v -0.363941 0.188416 0.0934285
vn 0.894236 -0.246334 0.373714
v -0.410629 0.387968 0.110368
vn 0.707486 0.551874 0.441473
v -0.367473 0.191604 -0.103335
vn 0.880107 -0.233582 -0.413341
v -0.358458 0.149801 -8.75488e-05
vn 0.916168 -0.400795 -0.000350195
v -0.421135 0.251713 -0.186601
vn 0.665458 0.00685229 -0.746404
v -0.444167 0.364414 -0.169897
vn 0.573332 0.457656 -0.67959
v -0.485119 0.455304 -0.0993403
vn 0.409525 0.821214 -0.397361
v -0.409409 0.274129 0.173785
vn 0.712366 0.096514 0.69514
v -0.527304 0.492563 -0.00629535
vn 0.240784 0.970252 -0.0251814
v -0.442748 0.137095 -0.169703
vn 0.579009 -0.45162 -0.678813
v -0.436004 0.146356 0.169726
vn 0.605982 -0.414577 0.678905
v -0.511892 0.464419 0.103961
vn 0.302433 0.857675 0.415846
v -0.414726 0.0800885 0.061474
vn 0.691098 -0.679646 0.245896
v -0.500173 0.374247 0.198587
vn 0.349309 0.496986 0.794347
v -0.413442 0.0814998 -0.0617362
vn 0.696233 -0.674001 -0.246945
v -0.596483 0.483348 -0.0892645
vn -0.035932 0.933391 -0.357058
v -0.502895 0.196054 -0.22898
vn 0.338418 -0.215782 -0.915921
v -0.54919 0.415044 -0.183828
vn 0.153241 0.660177 -0.735312
v -0.518203 0.302872 -0.234313
vn 0.277186 0.211488 -0.937252
v -0.506754 0.236186 0.236198
vn 0.322982 -0.0552575 0.944791
v -0.533178 0.122009 0.207768
vn 0.21729 -0.511964 0.83107
v -0.500781 0.048265 -0.119511
vn 0.346876 -0.80694 -0.478043
v -0.627208 0.494429 0.0343175
vn -0.158833 0.977716 0.13727
v -0.514707 0.0432995 0.120316
vn 0.291174 -0.826802 0.481264
v -0.556411 0.102098 -0.199144
vn 0.124357 -0.591609 -0.796576
v -0.652097 0.431072 -0.159813
vn -0.258388 0.724289 -0.639251
v -0.502034 0.0151782 -0.0073646
vn 0.341866 -0.939287 -0.0294584
v -0.606661 0.322435 0.238508
vn -0.0766425 0.289742 0.954031
v -0.709291 0.458556 -0.0645855
vn -0.487165 0.834224 -0.258342
v -0.620815 0.440442 0.158499
vn -0.133259 0.761769 0.633996
v -0.609796 0.20734 -0.245322
vn -0.0891821 -0.170641 -0.981289
v -0.615078 0.185665 0.240001
vn -0.11031 -0.257341 0.960004
v -0.604107 0.0208233 -0.0985003
vn -0.0664263 -0.916707 -0.394001
v -0.738032 0.440036 0.0610438
vn -0.602127 0.760145 0.244175
v -0.625648 0.0683658 0.167492
vn -0.152591 -0.726537 0.66997
v -0.639455 0.335107 -0.229254
vn -0.207822 0.340429 -0.917016
v -0.70028 0.256923 0.223008
vn -0.451122 0.0276906 0.892033
v -0.798255 0.376885 -0.044525
vn -0.843022 0.507538 -0.1781
v -0.728947 0.364011 0.171739
vn -0.565787 0.456045 0.686955
v -0.682286 0.105617 -0.180746
vn -0.379144 -0.577531 -0.722985
v -0.618059 0.00569375 0.0433655
vn -0.122236 -0.977225 0.173462
v -0.740168 0.370642 -0.156965
vn -0.610673 0.482569 -0.627859
v -0.725921 0.239512 -0.207917
vn -0.553685 -0.0419533 -0.831669
v -0.716083 0.147342 0.188223
vn -0.514331 -0.410633 0.752891
v -0.811335 0.338188 0.0679763
vn -0.89534 0.352752 0.271905
v -0.726307 0.0495782 -0.0553525
vn -0.555226 -0.801687 -0.22141
v -0.728081 0.0603012 0.082167
vn -0.562323 -0.758795 0.328668
v -0.781603 0.249774 0.157556
vn -0.776413 -0.000904782 0.630224
v -0.790415 0.161365 -0.116058
vn -0.811658 -0.354539 -0.464234
v -0.800165 0.278246 -0.128358
vn -0.85066 0.112984 -0.513432
v -0.788956 0.146983 0.106315
vn -0.805824 -0.412069 0.42526
v -0.835034 0.250792 -0.035022
vn -0.990134 0.00316965 -0.140088
v -0.805951 0.128435 0.00096488
vn -0.873805 -0.486261 0.00385952
v -0.827736 0.222041 0.063286
vn -0.960943 -0.111836 0.253144
g rightSphere
usemtl rightSphere

s 1
f 160//160 161//161 159//159
f 159//159 161//161 152//152
f 156//156 160//160 159//159
f 134//134 120//120 131//131
f 153//153 156//156 147//147
f 155//155 158//158 151//151
f 139//139 128//128 127//127
f 116//116 123//123 130//130
f 112//112 117//117 124//124
f 150//150 149//149 143//143
f 126//126 112//112 124//124
f 139//139 127//127 135//135
f 152//152 155//155 146//146
f 120//120 111//111 108//108
f 110//110 105//105 102//102
f 132//132 117//117 129//129
f 138//138 126//126 124//124
f 106//106 105//105 113//113
f 127//127 128//128 118//118
f 137//137 130//130 141//141
f 121//121 115//115 109//109
f 141//141 152//152 146//146
f 131//131 120//120 118//118
f 128//128 139//139 142//142
f 149//149 145//145 136//136
f 122//122 117//117 110//110
f 123//123 116//116 114//114
f 153//153 147//147 140//140
f 129//129 134//134 140//140
f 132//132 129//129 140//140
f 108//108 115//115 118//118
f 148//148 153//153 140//140
f 115//115 127//127 118//118
f 103//103 106//106 107//107
f 160//160 156//156 153//153
f 126//126 125//125 113//113
f 121//121 109//109 119//119
f 136//136 145//145 141//141
f 111//111 122//122 110//110
f 117//117 112//112 110//110
f 134//134 122//122 120//120
f 131//131 128//128 142//142
f 148//148 131//131 142//142
f 128//128 131//131 118//118
f 156//156 159//159 157//157
f 150//150 138//138 147//147
f 133//133 149//149 136//136
f 158//158 154//154 151//151
f 106//106 114//114 107//107
f 148//148 134//134 131//131
f 123//123 114//114 125//125
f 154//154 142//142 151//151
f 160//160 154//154 158//158
f 121//121 127//127 115//115
f 108//108 111//111 102//102
f 109//109 103//103 107//107
f 127//127 121//121 135//135
f 142//142 139//139 151//151
f 104//104 115//115 108//108
f 161//161 160//160 158//158
f 154//154 148//148 142//142
f 138//138 143//143 126//126
f 145//145 149//149 157//157
f 105//105 112//112 113//113
f 156//156 150//150 147//147
f 112//112 105//105 110//110
f 135//135 137//137 146//146
f 123//123 136//136 130//130
f 145//145 159//159 152//152
f 144//144 139//139 135//135
f 149//149 150//150 157//157
f 114//114 116//116 107//107
f 144//144 155//155 151//151
f 123//123 133//133 136//136
f 116//116 119//119 107//107
f 161//161 155//155 152//152
f 149//149 133//133 143//143
f 109//109 104//104 103//103
f 138//138 150//150 143//143
f 133//133 123//123 125//125
f 148//148 154//154 153//153
f 134//134 148//148 140//140
f 132//132 138//138 124//124
f 104//104 108//108 102//102
f 122//122 134//134 129//129
f 137//137 119//119 130//130
f 111//111 110//110 102//102
f 125//125 114//114 113//113
f 144//144 135//135 146//146
f 139//139 144//144 151//151
f 138//138 132//132 147//147
f 103//103 104//104 102//102
f 130//130 136//136 141//141
f 141//141 145//145 152//152
f 137//137 121//121 119//119
f 154//154 160//160 153//153
f 122//122 111//111 120//120
f 112//112 126//126 113//113
f 150//150 156//156 157//157
f 117//117 122//122 129//129
f 115//115 104//104 109//109
f 119//119 109//109 107//107
f 105//105 106//106 103//103
f 119//119 116//116 130//130
f 147//147 132//132 140//140
f 121//121 137//137 135//135
f 105//105 103//103 102//102
f 143//143 133//133 125//125
f 159//159 145//145 157//157
f 114//114 106//106 113//113
f 120//120 108//108 118//118
f 137//137 141//141 146//146
f 155//155 144//144 146//146
f 126//126 143//143 125//125
f 155//155 161//161 158//158
f 117//117 132//132 124//124


## Object floor
v   1.0000 0.0000 -1.0400
v  -0.9900 0.0000 -1.0400
v  -1.0100 0.0000  0.9900
v   1.0000 0.0000  0.9900
# 4 vertices

vn 0.0000 1.0000 -0.0000
# 1 vertex normals

g floor
usemtl floor

s 1
f 162//162 163//162 164//162 
f 164//162 165//162 162//162 
# 2 faces

## Object ceiling 
v   1.0000 1.5900 -1.0400
v   1.0000 1.5900  0.9900
v  -1.0200 1.5900  0.9900
v  -1.0200 1.5900 -1.0400
# 4 vertices

vn 0.0000 -1.0000 -0.0000
# 1 vertex normals

g ceiling
usemtl ceiling

s 1
f 166//163 167//163 168//163 
f 168//163 169//163 166//163 
# 2 faces

## Object backwall 
v   1.0000 1.5900 -1.0400
v  -1.0200 1.5900 -1.0400
v  -0.9900 0.0000 -1.0400
v   1.0000 0.0000 -1.0400
# 4 vertices

vn 0.0000 0.0000 1.0000
# 1 vertex normals

g backWall
usemtl backWall

s 1
f 170//164 171//164 172//164 
f 172//164 173//164 170//164 
# 2 faces

## Object rightwall 
v  1.0000 1.5900 0.9900
v  1.0000 1.5900 -1.0400
v  1.0000 0.0000 -1.0400
v  1.0000 0.0000 0.9900
# 4 vertices

vn -1.0000 0.0000 -0.0000
# 1 vertex normals

g rightWall
usemtl rightWall

s 1
f 174//165 175//165 176//165 
f 176//165 177//165 174//165 
# 2 faces

## Object leftWall 
v  -1.0200 1.5900 -1.0400
v  -1.0200 1.5900 0.9900
v  -1.0100 0.0000 0.9900
v  -0.9900 0.0000 -1.0400
# 4 vertices

vn 0.9999 0.0135 0.0057
vn 1.0000 0.0063 -0.0000
vn 0.9999 0.0116 0.0042
vn 0.9998 0.0189 0.0098
# 4 vertex normals

g leftWall
usemtl leftWall

s 1
f 178//166 179//167 180//168 
f 180//168 181//169 178//166 
# 2 faces

## Object light
v  0.2300 1.5800 -0.2200
v  0.2300 1.5800 0.1600
v  -0.2400 1.5800 0.1600
v  -0.2400 1.5800 -0.2200
# 4 vertices

vn 0.0000 -1.0000 -0.0000
# 1 vertex normals

g light
usemtl light

s 1
f 182//170 183//170 184//170 
f 184//170 185//170 182//170 
# 2 faces
