mtllib CornellBox-Sphere.mtl

## Object leftSphere

v 0.0595723 0.421398 0.0997313
vn 0.689912 -0.713374 0.122961
v 0.105812 0.489087 0.0467539
vn 0.763115 -0.643574 0.0588938
v 0.0977479 0.477728 0.14173
vn 0.741325 -0.64772 0.175773
v 0.0389463 0.432805 0.0205917
vn 0.688586 -0.724678 0.026309
v 0.0558554 0.497177 -0.0285967
vn 0.741059 -0.670357 -0.0381247
v 0.111126 0.577463 0.00528352
vn 0.822518 -0.568695 0.00711112
v 0.0152653 0.438487 0.183536
vn 0.65732 -0.716317 0.234136
v 0.12813 0.554031 0.108119
vn 0.807471 -0.573301 0.138988
v -0.0344658 0.400377 0.0803861
vn 0.609842 -0.785496 0.105304
v -0.0452709 0.450025 -0.0274748
vn 0.636744 -0.770114 -0.0384722
v -0.0837813 0.427943 0.16537
vn 0.572892 -0.787391 0.227619
v 0.0716392 0.539537 0.213186
vn 0.747867 -0.602417 0.278908
v -0.137305 0.431679 0.0625951
vn 0.535666 -0.839354 0.0924469
v -0.0471675 0.500516 0.246323
vn 0.630874 -0.695868 0.34317
v 0.00195962 0.56391 -0.0914166
vn 0.747866 -0.649727 -0.136201
v 0.119707 0.662208 0.132609
vn 0.862933 -0.47037 0.184656
v -0.166884 0.479585 0.191427
vn 0.514965 -0.804511 0.295928
v -0.142683 0.498762 -0.0580913
vn 0.577906 -0.810677 -0.0939538
v -0.12619 0.57603 0.282064
vn 0.591752 -0.671157 0.446517
v 0.087081 0.674597 -0.0349704
vn 0.873448 -0.484129 -0.0520283
v 0.0114844 0.614348 0.268676
vn 0.736325 -0.555179 0.386783
v -0.121368 0.601372 -0.129546
vn 0.670331 -0.705731 -0.229348
v -0.00851566 0.68433 -0.121157
vn 0.823864 -0.529151 -0.203093
v 0.0478359 0.787042 -0.056687
vn 0.927752 -0.36064 -0.0959985
v 0.0998778 0.756588 0.0462729
vn 0.924264 -0.375037 0.0712952
v 0.0485449 0.717715 0.23564
vn 0.83064 -0.427453 0.356821
v 0.0853981 0.774065 0.146172
vn 0.9086 -0.350675 0.226875
v 0.0184551 0.824988 0.223836
vn 0.876941 -0.296025 0.378607
v -0.0655294 0.711975 0.30263
vn 0.720813 -0.477851 0.502082
v -0.24181 0.569696 -0.073498
vn 0.509076 -0.848434 -0.144917
v -0.249034 0.555079 0.211788
vn 0.453839 -0.80458 0.382991
v -0.247703 0.500712 0.0645458
vn 0.448031 -0.88664 0.114621
v -0.0444635 0.796852 -0.136608
vn 0.880859 -0.392823 -0.264155
v 0.0557566 0.868272 0.0761642
vn 0.964503 -0.22861 0.132181
v -0.323653 0.581469 0.0131274
vn 0.388126 -0.921153 0.0288922
v -0.226845 0.677192 -0.147605
vn 0.609869 -0.72073 -0.329557
v -0.111376 0.705501 -0.159416
vn 0.757548 -0.574069 -0.310751
v -0.213563 0.654803 0.292742
vn 0.534762 -0.644463 0.546532
v -0.324606 0.576566 0.121618
vn 0.369886 -0.892974 0.256479
v 0.00104177 0.89465 -0.0576807
vn 0.97245 -0.20447 -0.11195
v -0.16981 0.78824 -0.17706
vn 0.767224 -0.492042 -0.411415
v -0.172617 0.76416 0.319135
vn 0.636388 -0.458441 0.620356
v -0.00583884 0.973637 0.0519125
vn 0.99313 -0.0529829 0.10433
v -0.402122 0.662368 0.0698917
vn 0.273086 -0.942018 0.195003
v -0.338745 0.660682 -0.0756247
vn 0.420788 -0.885435 -0.197339
v -0.013347 0.934878 0.183681
vn 0.92833 -0.124226 0.350387
v -0.292641 0.74765 0.292935
vn 0.472628 -0.575176 0.667679
v -0.0823108 0.846771 0.290448
vn 0.786131 -0.288392 0.546652
v -0.332009 0.648655 0.216458
vn 0.377038 -0.788558 0.485818
v -0.101279 0.897748 -0.146495
vn 0.912583 -0.234032 -0.335294
v -0.317174 0.792303 -0.157447
vn 0.574274 -0.652399 -0.494555
v -0.0653858 0.996608 -0.0635058
vn 0.989463 -0.00772172 -0.14458
v -0.406803 0.754918 0.211696
vn 0.276553 -0.727256 0.628185
v -0.422027 0.748959 -0.0515962
vn 0.291067 -0.937115 -0.192604
v -0.073635 1.04091 0.149953
vn 0.939515 0.0901581 0.330428
v -0.126323 0.976986 0.262561
vn 0.817178 -0.0503273 0.574184
v -0.215288 0.869466 0.316985
vn 0.638909 -0.292926 0.71133
v -0.212806 0.888018 -0.180607
vn 0.803865 -0.313442 -0.505525
v -0.0726005 1.05959 0.0319989
vn 0.987707 0.137716 0.0739484
v -0.17557 0.997037 -0.146813
vn 0.911026 -0.00832136 -0.412265
v -0.481825 0.794344 0.0658686
vn 0.0838673 -0.94899 0.303947
v -0.35325 0.86266 0.288868
vn 0.417007 -0.390267 0.820851
v -0.143003 1.09586 -0.0521639
vn 0.956311 0.256795 -0.139735
v -0.265897 0.982527 0.298641
vn 0.616284 -0.0459979 0.78618
v -0.184427 1.08983 0.221163
vn 0.797528 0.227031 0.558933
v -0.142551 1.13404 0.0865908
vn 0.913133 0.342429 0.221203
v -0.304652 0.946064 -0.175273
vn 0.72908 -0.2013 -0.654156
v -0.250505 1.09095 -0.12854
vn 0.845666 0.308262 -0.435689
v -0.331463 1.09412 0.261255
vn 0.518838 0.289756 0.804269
v -0.393548 0.972759 0.275438
vn 0.35897 -0.0918595 0.928818
v -0.376822 1.03939 -0.150773
vn 0.620115 0.198295 -0.759037
v -0.467283 0.881124 0.206998
vn 0.13579 -0.493394 0.859141
v -0.530932 0.916089 0.0844745
vn -0.251441 -0.682097 0.686674
v -0.350737 1.1728 -0.0977057
vn 0.600972 0.695757 -0.393389
v -0.225778 1.18494 -0.0154881
vn 0.828161 0.558535 -0.0467746
v -0.252807 1.1898 0.156568
vn 0.708756 0.544188 0.448915
v -0.490645 1.03658 0.210145
vn 0.0438135 0.171306 0.984243
v -0.458628 0.899002 -0.0975473
vn 0.28263 -0.689961 -0.666389
v -0.400544 1.19577 0.194447
vn 0.33909 0.667466 0.662954
v -0.474363 1.07585 -0.101528
vn 0.198269 0.586639 -0.785203
v -0.535664 0.993918 -0.0212256
vn -0.850242 -0.145004 -0.506026
v -0.556695 1.03533 0.0877041
vn -0.514248 0.320473 0.795516
v -0.339033 1.25585 0.0433145
vn 0.527142 0.837855 0.141849
v -0.471522 1.21478 -0.0394055
vn 0.129319 0.975324 -0.178938
v -0.550816 1.10132 -0.0019285
vn -0.448264 0.893739 -0.017012
v -0.536597 1.15448 0.124492
vn -0.181401 0.765714 0.617071
v -0.447909 1.25719 0.0992415
vn 0.185674 0.916729 0.353741
v -0.029552 0.595304 0.0871468
vn 0.75073 -0.645805 0.139067
v -0.166867 0.760415 0.0687627
vn 0.800683 -0.575841 0.165271
v -0.406741 1.10506 0.0694176
vn 0.595165 0.67046 0.443015
v -0.309872 0.964928 -0.0630739
vn 0.934914 -0.172458 -0.310153
v -0.405032 1.01274 -0.0297809
vn 0.946463 0.126956 -0.296799
v -0.28913 1.05556 0.169431
vn 0.763598 0.201209 0.613542
v -0.410255 0.961718 0.0800398
vn 0.71114 -0.303347 0.63424
v -0.271721 1.04346 0.0367695
vn 0.970286 0.184713 0.156287
v -0.146837 0.963236 0.0691102
vn 0.976304 -0.101631 0.191052
v -0.329692 0.852336 0.0628504
vn 0.727788 -0.631021 0.268583
v -0.240908 0.966786 0.166048
vn 0.837071 -0.107308 0.536467
v -0.338749 1.08127 -0.052446
vn 0.85755 0.432223 -0.278913
v -0.21107 0.90716 -0.0573437
vn 0.935504 -0.300599 -0.185668
g leftSphere
usemtl leftSphere

s 1
f 75//75 76//76 66//66
f 77//77 82//82 73//73
f 46//46 43//43 55//55
f 72//72 77//77 73//73
f 43//43 59//59 55//55
f 77//77 86//86 82//82
f 53//53 44//44 49//49
f 8//8 12//12 3//3
f 3//3 12//12 7//7
f 2//2 8//8 3//3
f 74//74 84//84 83//83
f 74//74 68//68 71//71
f 79//79 87//87 86//86
f 2//2 4//4 5//5
f 38//38 47//47 49//49
f 76//76 83//83 79//79
f 50//50 58//58 60//60
f 46//46 34//34 43//43
f 30//30 22//22 18//18
f 75//75 66//66 63//63
f 20//20 25//25 16//16
f 6//6 15//15 20//20
f 52//52 50//50 60//60
f 2//2 3//3 1//1
f 36//36 45//45 51//51
f 66//66 55//55 59//59
f 16//16 26//26 21//21
f 16//16 25//25 27//27
f 50//50 52//52 40//40
f 13//13 10//10 9//9
f 24//24 25//25 20//20
f 44//44 39//39 49//49
f 14//14 19//19 17//17
f 24//24 23//23 33//33
f 31//31 19//19 38//38
f 22//22 15//15 18//18
f 43//43 34//34 40//40
f 31//31 39//39 32//32
f 16//16 8//8 6//6
f 21//21 26//26 29//29
f 57//57 56//56 64//64
f 47//47 62//62 53//53
f 3//3 7//7 1//1
f 29//29 48//48 42//42
f 30//30 45//45 36//36
f 76//76 69//69 65//65
f 28//28 34//34 46//46
f 17//17 11//11 14//14
f 46//46 56//56 48//48
f 84//84 80//80 85//85
f 43//43 52//52 59//59
f 77//77 69//69 79//79
f 56//56 55//55 65//65
f 67//67 51//51 78//78
f 75//75 83//83 76//76
f 17//17 32//32 13//13
f 48//48 28//28 46//46
f 6//6 8//8 2//2
f 79//79 69//69 76//76
f 44//44 45//45 35//35
f 5//5 6//6 2//2
f 16//16 12//12 8//8
f 58//58 41//41 51//51
f 21//21 12//12 16//16
f 48//48 56//56 57//57
f 58//58 51//51 67//67
f 23//23 15//15 22//22
f 27//27 34//34 28//28
f 73//73 81//81 78//78
f 14//14 12//12 21//21
f 10//10 15//15 5//5
f 80//80 84//84 74//74
f 29//29 19//19 21//21
f 70//70 77//77 72//72
f 24//24 34//34 25//25
f 28//28 26//26 27//27
f 49//49 39//39 31//31
f 40//40 33//33 50//50
f 83//83 84//84 87//87
f 5//5 15//15 6//6
f 17//17 19//19 31//31
f 38//38 29//29 42//42
f 49//49 47//47 53//53
f 68//68 67//67 71//71
f 9//9 11//11 13//13
f 42//42 47//47 38//38
f 65//65 66//66 76//76
f 1//1 4//4 2//2
f 85//85 81//81 82//82
f 68//68 60//60 67//67
f 16//16 6//6 20//20
f 79//79 86//86 77//77
f 13//13 11//11 17//17
f 86//86 85//85 82//82
f 39//39 44//44 35//35
f 64//64 56//56 65//65
f 78//78 61//61 73//73
f 79//79 83//83 87//87
f 54//54 61//61 78//78
f 87//87 84//84 86//86
f 73//73 61//61 72//72
f 84//84 85//85 86//86
f 48//48 57//57 42//42
f 59//59 63//63 66//66
f 25//25 34//34 27//27
f 14//14 11//11 7//7
f 28//28 48//48 29//29
f 29//29 26//26 28//28
f 51//51 54//54 78//78
f 70//70 62//62 64//64
f 20//20 23//23 24//24
f 54//54 45//45 44//44
f 32//32 30//30 18//18
f 74//74 75//75 68//68
f 71//71 80//80 74//74
f 65//65 55//55 66//66
f 74//74 83//83 75//75
f 56//56 46//46 55//55
f 53//53 72//72 61//61
f 71//71 78//78 80//80
f 62//62 47//47 57//57
f 71//71 67//67 78//78
f 58//58 67//67 60//60
f 80//80 81//81 85//85
f 13//13 18//18 10//10
f 59//59 52//52 63//63
f 21//21 19//19 14//14
f 44//44 53//53 61//61
f 9//9 4//4 1//1
f 77//77 70//70 69//69
f 37//37 23//23 22//22
f 1//1 7//7 9//9
f 5//5 4//4 10//10
f 62//62 57//57 64//64
f 80//80 78//78 81//81
f 33//33 23//23 37//37
f 40//40 34//34 24//24
f 32//32 18//18 13//13
f 50//50 41//41 58//58
f 75//75 63//63 68//68
f 37//37 41//41 33//33
f 10//10 4//4 9//9
f 7//7 11//11 9//9
f 63//63 52//52 60//60
f 57//57 47//47 42//42
f 49//49 31//31 38//38
f 35//35 32//32 39//39
f 31//31 32//32 17//17
f 73//73 82//82 81//81
f 30//30 32//32 35//35
f 20//20 15//15 23//23
f 27//27 26//26 16//16
f 35//35 45//45 30//30
f 36//36 37//37 22//22
f 7//7 12//12 14//14
f 36//36 41//41 37//37
f 18//18 15//15 10//10
f 70//70 64//64 69//69
f 33//33 41//41 50//50
f 54//54 44//44 61//61
f 24//24 33//33 40//40
f 51//51 45//45 54//54
f 40//40 52//52 43//43
f 38//38 19//19 29//29
f 51//51 41//41 36//36
f 72//72 62//62 70//70
f 22//22 30//30 36//36
f 53//53 62//62 72//72
f 69//69 64//64 65//65
f 63//63 60//60 68//68

## Object rightSphere

v -0.5875 0.25 0
vn 0 0 0
v -0.3375 0.25 0
vn 1 0 0
v -0.363893 0.361804 0
vn 0.894427 0.447214 0
v -0.356335 0.298578 0.0818727
vn 0.924658 0.194311 0.327491
v -0.365269 0.304668 -0.100621
vn 0.888925 0.218673 -0.402486
v -0.403472 0.399769 -0.078758
vn 0.736112 0.599077 -0.315032
v -0.432693 0.446087 0.00919147
vn 0.61923 0.784348 0.0367659
v -0.363941 0.188416 0.0934285
vn 0.894236 -0.246334 0.373714
v -0.410629 0.387968 0.110368
vn 0.707486 0.551874 0.441473
v -0.367473 0.191604 -0.103335
vn 0.880107 -0.233582 -0.413341
v -0.358458 0.149801 -8.75488e-05
vn 0.916168 -0.400795 -0.000350195
v -0.421135 0.251713 -0.186601
vn 0.665458 0.00685229 -0.746404
v -0.444167 0.364414 -0.169897
vn 0.573332 0.457656 -0.67959
v -0.485119 0.455304 -0.0993403
vn 0.409525 0.821214 -0.397361
v -0.409409 0.274129 0.173785
vn 0.712366 0.096514 0.69514
v -0.527304 0.492563 -0.00629535
vn 0.240784 0.970252 -0.0251814
v -0.442748 0.137095 -0.169703
vn 0.579009 -0.45162 -0.678813
v -0.436004 0.146356 0.169726
vn 0.605982 -0.414577 0.678905
v -0.511892 0.464419 0.103961
vn 0.302433 0.857675 0.415846
v -0.414726 0.0800885 0.061474
vn 0.691098 -0.679646 0.245896
v -0.500173 0.374247 0.198587
vn 0.349309 0.496986 0.794347
v -0.413442 0.0814998 -0.0617362
vn 0.696233 -0.674001 -0.246945
v -0.596483 0.483348 -0.0892645
vn -0.035932 0.933391 -0.357058
v -0.502895 0.196054 -0.22898
vn 0.338418 -0.215782 -0.915921
v -0.54919 0.415044 -0.183828
vn 0.153241 0.660177 -0.735312
v -0.518203 0.302872 -0.234313
vn 0.277186 0.211488 -0.937252
v -0.506754 0.236186 0.236198
vn 0.322982 -0.0552575 0.944791
v -0.533178 0.122009 0.207768
vn 0.21729 -0.511964 0.83107
v -0.500781 0.048265 -0.119511
vn 0.346876 -0.80694 -0.478043
v -0.627208 0.494429 0.0343175
vn -0.158833 0.977716 0.13727
v -0.514707 0.0432995 0.120316
vn 0.291174 -0.826802 0.481264
v -0.556411 0.102098 -0.199144
vn 0.124357 -0.591609 -0.796576
v -0.652097 0.431072 -0.159813
vn -0.258388 0.724289 -0.639251
v -0.502034 0.0151782 -0.0073646
vn 0.341866 -0.939287 -0.0294584
v -0.606661 0.322435 0.238508
vn -0.0766425 0.289742 0.954031
v -0.709291 0.458556 -0.0645855
vn -0.487165 0.834224 -0.258342
v -0.620815 0.440442 0.158499
vn -0.133259 0.761769 0.633996
v -0.609796 0.20734 -0.245322
vn -0.0891821 -0.170641 -0.981289
v -0.615078 0.185665 0.240001
vn -0.11031 -0.257341 0.960004
v -0.604107 0.0208233 -0.0985003
vn -0.0664263 -0.916707 -0.394001
v -0.738032 0.440036 0.0610438
vn -0.602127 0.760145 0.244175
v -0.625648 0.0683658 0.167492
vn -0.152591 -0.726537 0.66997
v -0.639455 0.335107 -0.229254
vn -0.207822 0.340429 -0.917016
v -0.70028 0.256923 0.223008
vn -0.451122 0.0276906 0.892033
v -0.798255 0.376885 -0.044525
vn -0.843022 0.507538 -0.1781
v -0.728947 0.364011 0.171739
vn -0.565787 0.456045 0.686955
v -0.682286 0.105617 -0.180746
vn -0.379144 -0.577531 -0.722985
v -0.618059 0.00569375 0.0433655
vn -0.122236 -0.977225 0.173462
v -0.740168 0.370642 -0.156965
vn -0.610673 0.482569 -0.627859
v -0.725921 0.239512 -0.207917
vn -0.553685 -0.0419533 -0.831669
v -0.716083 0.147342 0.188223
vn -0.514331 -0.410633 0.752891
v -0.811335 0.338188 0.0679763
vn -0.89534 0.352752 0.271905
v -0.726307 0.0495782 -0.0553525
vn -0.555226 -0.801687 -0.22141
v -0.728081 0.0603012 0.082167
vn -0.562323 -0.758795 0.328668
v -0.781603 0.249774 0.157556
vn -0.776413 -0.000904782 0.630224
v -0.790415 0.161365 -0.116058
vn -0.811658 -0.354539 -0.464234
v -0.800165 0.278246 -0.128358
vn -0.85066 0.112984 -0.513432
v -0.788956 0.146983 0.106315
vn -0.805824 -0.412069 0.42526
v -0.835034 0.250792 -0.035022
vn -0.990134 0.00316965 -0.140088
v -0.805951 0.128435 0.00096488
vn -0.873805 -0.486261 0.00385952
v -0.827736 0.222041 0.063286
vn -0.960943 -0.111836 0.253144
g rightSphere
usemtl rightSphere

s 1
f 160//160 161//161 159//159
f 159//159 161//161 152//152
f 156//156 160//160 159//159
f 134//134 120//120 131//131
f 153//153 156//156 147//147
f 155//155 158//158 151//151
f 139//139 128//128 127//127
f 116//116 123//123 130//130
f 112//112 117//117 124//124
f 150//150 149//149 143//143
f 126//126 112//112 124//124
f 139//139 127//127 135//135
f 152//152 155//155 146//146
f 120//120 111//111 108//108
f 110//110 105//105 102//102
f 132//132 117//117 129//129
f 138//138 126//126 124//124
f 106//106 105//105 113//113
f 127//127 128//128 118//118
f 137//137 130//130 141//141
f 121//121 115//115 109//109
f 141//141 152//152 146//146
f 131//131 120//120 118//118
f 128//128 139//139 142//142
f 149//149 145//145 136//136
f 122//122 117//117 110//110
f 123//123 116//116 114//114
f 153//153 147//147 140//140
f 129//129 134//134 140//140
f 132//132 129//129 140//140
f 108//108 115//115 118//118
f 148//148 153//153 140//140
f 115//115 127//127 118//118
f 103//103 106//106 107//107
f 160//160 156//156 153//153
f 126//126 125//125 113//113
f 121//121 109//109 119//119
f 136//136 145//145 141//141
f 111//111 122//122 110//110
f 117//117 112//112 110//110
f 134//134 122//122 120//120
f 131//131 128//128 142//142
f 148//148 131//131 142//142
f 128//128 131//131 118//118
f 156//156 159//159 157//157
f 150//150 138//138 147//147
f 133//133 149//149 136//136
f 158//158 154//154 151//151
f 106//106 114//114 107//107
f 148//148 134//134 131//131
f 123//123 114//114 125//125
f 154//154 142//142 151//151
f 160//160 154//154 158//158
f 121//121 127//127 115//115
f 108//108 111//111 102//102
f 109//109 103//103 107//107
f 127//127 121//121 135//135
f 142//142 139//139 151//151
f 104//104 115//115 108//108
f 161//161 160//160 158//158
f 154//154 148//148 142//142
f 138//138 143//143 126//126
f 145//145 149//149 157//157
f 105//105 112//112 113//113
f 156//156 150//150 147//147
f 112//112 105//105 110//110
f 135//135 137//137 146//146
f 123//123 136//136 130//130
f 145//145 159//159 152//152
f 144//144 139//139 135//135
f 149//149 150//150 157//157
f 114//114 116//116 107//107
f 144//144 155//155 151//151
f 123//123 133//133 136//136
f 116//116 119//119 107//107
f 161//161 155//155 152//152
f 149//149 133//133 143//143
f 109//109 104//104 103//103
f 138//138 150//150 143//143
f 133//133 123//123 125//125
f 148//148 154//154 153//153
f 134//134 148//148 140//140
f 132//132 138//138 124//124
f 104//104 108//108 102//102
f 122//122 134//134 129//129
f 137//137 119//119 130//130
f 111//111 110//110 102//102
f 125//125 114//114 113//113
f 144//144 135//135 146//146
f 139//139 144//144 151//151
f 138//138 132//132 147//147
f 103//103 104//104 102//102
f 130//130 136//136 141//141
f 141//141 145//145 152//152
f 137//137 121//121 119//119
f 154//154 160//160 153//153
f 122//122 111//111 120//120
f 112//112 126//126 113//113
f 150//150 156//156 157//157
f 117//117 122//122 129//129
f 115//115 104//104 109//109
f 119//119 109//109 107//107
f 105//105 106//106 103//103
f 119//119 116//116 130//130
f 147//147 132//132 140//140
f 121//121 137//137 135//135
f 105//105 103//103 102//102
f 143//143 133//133 125//125
f 159//159 145//145 157//157
f 114//114 106//106 113//113
f 120//120 108//108 118//118
f 137//137 141//141 146//146
f 155//155 144//144 146//146
f 126//126 143//143 125//125
f 155//155 161//161 158//158
f 117//117 132//132 124//124


## Object floor
v   1.0000 0.0000 -1.0400
v  -0.9900 0.0000 -1.0400
v  -1.0100 0.0000  0.9900
v   1.0000 0.0000  0.9900
# 4 vertices

vn 0.0000 1.0000 -0.0000
# 1 vertex normals

g floor
usemtl floor

s 1
f 162//162 163//162 164//162 
f 164//162 165//162 162//162 
# 2 faces

## Object ceiling 
v   1.0000 1.5900 -1.0400
v   1.0000 1.5900  0.9900
v  -1.0200 1.5900  0.9900
v  -1.0200 1.5900 -1.0400
# 4 vertices

vn 0.0000 -1.0000 -0.0000
# 1 vertex normals

g ceiling
usemtl ceiling

s 1
f 166//163 167//163 168//163 
f 168//163 169//163 166//163 
# 2 faces

## Object backwall 
v   1.0000 1.5900 -1.0400
v  -1.0200 1.5900 -1.0400
v  -0.9900 0.0000 -1.0400
v   1.0000 0.0000 -1.0400
# 4 vertices

vn 0.0000 0.0000 1.0000
# 1 vertex normals

g backWall
usemtl backWall

s 1
f 170//164 171//164 172//164 
f 172//164 173//164 170//164 
# 2 faces

## Object rightwall 
v  1.0000 1.5900 0.9900
v  1.0000 1.5900 -1.0400
v  1.0000 0.0000 -1.0400
v  1.0000 0.0000 0.9900
# 4 vertices

vn -1.0000 0.0000 -0.0000
# 1 vertex normals

g rightWall
usemtl rightWall

s 1
f 174//165 175//165 176//165 
f 176//165 177//165 174//165 
# 2 faces

## Object leftWall 
v  -1.0200 1.5900 -1.0400
v  -1.0200 1.5900 0.9900
v  -1.0100 0.0000 0.9900
v  -0.9900 0.0000 -1.0400
# 4 vertices

vn 0.9999 0.0135 0.0057
vn 1.0000 0.0063 -0.0000
vn 0.9999 0.0116 0.0042
vn 0.9998 0.0189 0.0098
# 4 vertex normals

g leftWall
usemtl leftWall

s 1
f 178//166 179//167 180//168 
f 180//168 181//169 178//166 
# 2 faces

## Object light
v  0.2300 1.5800 -0.2200
v  0.2300 1.5800 0.1600
v  -0.2400 1.5800 0.1600
v  -0.2400 1.5800 -0.2200
# 4 vertices

vn 0.0000 -1.0000 -0.0000
# 1 vertex normals

g light
usemtl light

s 1
f 182//170 183//170 184//170 
f 184//170 185//170 182//170 
# 2 faces
