mtllib CornellBox-Sphere.mtl

## Object leftSphere

v 0.0224222 0.302106 0.160186
vn 0.589399 -0.787368 0.180723
v 0.0740628 0.342905 0.0886135
vn 0.654557 -0.749231 0.101039
v 0.0838587 0.347108 0.184238
vn 0.652325 -0.729453 0.205843
v -0.0104755 0.309745 0.0845782
vn 0.575617 -0.811649 0.0994529
v 0.0139109 0.358011 0.0222253
vn 0.624704 -0.780394 0.0270168
v 0.0966141 0.418048 0.0315328
vn 0.715336 -0.697757 0.0378077
v 0.00383306 0.343647 0.245565
vn 0.583745 -0.760456 0.284514
v 0.12773 0.403467 0.132658
vn 0.716531 -0.680921 0.151425
v -0.0757648 0.311717 0.160107
vn 0.514709 -0.835069 0.194252
v -0.0935106 0.348532 0.0475253
vn 0.528353 -0.846775 0.0617731
v -0.0965362 0.364842 0.244467
vn 0.509949 -0.802794 0.308989
v 0.0928517 0.42252 0.24689
vn 0.68644 -0.668642 0.285865
v -0.16619 0.373935 0.150713
vn 0.460219 -0.863147 0.207786
v -0.0244271 0.43028 0.304725
vn 0.592798 -0.710151 0.379838
v -0.028539 0.431103 -0.0424991
vn 0.637037 -0.768691 -0.0574246
v 0.158301 0.509447 0.13962
vn 0.790501 -0.589065 0.167659
v -0.154986 0.444379 0.270663
vn 0.487433 -0.784976 0.38239
v -0.174239 0.424707 0.0211748
vn 0.492487 -0.869731 0.0320121
v -0.0708873 0.531141 0.336812
vn 0.59656 -0.651817 0.468243
v 0.09675 0.511422 -0.0199259
vn 0.773491 -0.633281 -0.0258274
v 0.0693112 0.5189 0.298148
vn 0.70917 -0.599288 0.371392
v -0.136227 0.505512 -0.0699094
vn 0.588774 -0.800339 -0.11315
v -0.0049105 0.543658 -0.0905018
vn 0.728741 -0.671708 -0.133213
v 0.0932907 0.626642 -0.052396
vn 0.844004 -0.531132 -0.0745375
v 0.152298 0.593051 0.0440859
vn 0.847038 -0.528441 0.0572475
v 0.129822 0.59801 0.243508
vn 0.801448 -0.511533 0.309864
v 0.164765 0.62663 0.141405
vn 0.857271 -0.481491 0.182354
v 0.134048 0.707344 0.22022
vn 0.865914 -0.399678 0.300752
v 0.0336157 0.640188 0.327543
vn 0.73893 -0.498254 0.453569
v -0.245261 0.524733 0.00535112
vn 0.472388 -0.881335 0.00992312
v -0.205199 0.545475 0.287308
vn 0.480738 -0.741203 0.468518
v -0.247568 0.477322 0.151421
vn 0.420812 -0.871321 0.252423
v -0.00145787 0.658904 -0.118067
vn 0.809989 -0.554185 -0.191825
v 0.154487 0.715842 0.0631332
vn 0.913706 -0.396703 0.088138
v -0.300838 0.573571 0.0959902
vn 0.414631 -0.887775 0.19984
v -0.208218 0.611171 -0.0868196
vn 0.590862 -0.787384 -0.175811
v -0.0970991 0.595539 -0.116804
vn 0.691416 -0.694093 -0.200446
v -0.127896 0.636017 0.346656
vn 0.594993 -0.582008 0.554302
v -0.285178 0.580942 0.202885
vn 0.418954 -0.817264 0.395674
v 0.0881774 0.742597 -0.0631146
vn 0.91172 -0.398994 -0.0978324
v -0.124414 0.690184 -0.140216
vn 0.741288 -0.611478 -0.276743
v -0.0514032 0.727611 0.350043
vn 0.711105 -0.431785 0.55488
v 0.128089 0.832338 0.032404
vn 0.964971 -0.257589 0.0497842
v -0.338682 0.681923 0.144683
vn 0.419143 -0.82644 0.375921
v -0.302962 0.642227 -0.00278399
vn 0.482402 -0.875923 -0.00681594
v 0.131017 0.815991 0.169143
vn 0.929726 -0.271115 0.249211
v -0.176293 0.75024 0.33981
vn 0.608888 -0.469796 0.639177
v 0.0557525 0.770806 0.2974
vn 0.828616 -0.341724 0.443418
v -0.255347 0.661704 0.284597
vn 0.484205 -0.669539 0.563261
v -0.0199505 0.770259 -0.136536
vn 0.873726 -0.418147 -0.248506
v -0.254512 0.746726 -0.106719
vn 0.666161 -0.687289 -0.289594
v 0.0605484 0.858856 -0.0763482
vn 0.961382 -0.242072 -0.130943
v -0.294643 0.786976 0.269087
vn 0.51346 -0.532628 0.672805
v -0.348895 0.754652 0.0139899
vn 0.523787 -0.850468 0.048494
v 0.102436 0.931004 0.127284
vn 0.972315 -0.111357 0.205434
v 0.0494526 0.904002 0.254078
vn 0.896453 -0.156625 0.414537
v -0.0612829 0.840875 0.335566
vn 0.763248 -0.276835 0.583793
v -0.130326 0.795077 -0.156193
vn 0.820388 -0.454768 -0.346626
v 0.0909329 0.931989 0.00758022
vn 0.993362 -0.114327 0.0127424
v -0.0537703 0.885272 -0.145893
vn 0.923319 -0.23739 -0.301875
v -0.372655 0.831975 0.12615
vn 0.518319 -0.683893 0.513455
v -0.198957 0.879232 0.321974
vn 0.658689 -0.264244 0.704488
v 0.0238481 0.976986 -0.0745323
vn 0.989094 -0.0434544 -0.140727
v -0.0758865 0.962489 0.302679
vn 0.811867 -0.0718054 0.57941
v 0.024667 1.02419 0.199269
vn 0.933978 0.0430645 0.354726
v 0.058378 1.03184 0.0543965
vn 0.993689 0.0566624 0.096804
v -0.195038 0.879196 -0.152833
vn 0.842728 -0.333827 -0.422338
v -0.0899845 0.997691 -0.13974
vn 0.946524 -0.00532929 -0.32259
v -0.105086 1.08503 0.249241
vn 0.831983 0.17913 0.525087
v -0.202173 0.995673 0.292368
vn 0.713578 -0.0103669 0.700499
v -0.228642 0.991356 -0.140216
vn 0.888051 -0.028289 -0.458874
v -0.311232 0.926692 0.247374
vn 0.590474 -0.229309 0.773794
v -0.376721 0.965573 0.126952
vn 0.68383 -0.190969 0.704207
v -0.152337 1.11084 -0.117547
vn 0.906862 0.289115 -0.306617
v -0.0184982 1.09109 -0.0502567
vn 0.977446 0.184909 -0.102021
v -0.014922 1.13113 0.120465
vn 0.938751 0.253764 0.233132
v -0.280053 1.08122 0.224265
vn 0.677905 0.250341 0.691212
v -0.342465 0.899567 -0.0542809
vn 0.809732 -0.516228 -0.279004
v -0.143423 1.19465 0.168596
vn 0.810698 0.442538 0.383313
v -0.300438 1.06628 -0.0900679
vn 0.872368 0.28975 -0.393725
v -0.371895 1.02513 0.0101143
vn 0.978361 0.191945 0.0772452
v -0.36019 1.08681 0.110707
vn 0.704908 0.437665 0.558171
v -0.090265 1.20467 0.00156517
vn 0.894597 0.446862 0.00341733
v -0.24091 1.2016 -0.057696
vn 0.777306 0.604841 -0.173096
v -0.34657 1.13238 0.0100064
vn 0.756202 0.652477 0.0493177
v -0.294205 1.19542 0.121824
vn 0.666351 0.632755 0.394458
v -0.181278 1.25376 0.0666064
vn 0.772076 0.614708 0.161348
v -0.0109777 0.492613 0.131126
vn 0.682246 -0.707867 0.182936
v -0.0868344 0.693435 0.108389
vn 0.785827 -0.583076 0.206153
v -0.199937 1.09506 0.0652712
vn 0.933449 0.295709 0.203049
v -0.176556 0.913473 -0.0451474
vn 0.957365 -0.256113 -0.133632
v -0.245177 0.994916 -0.0139373
vn 0.99831 -0.0199163 -0.0546015
v -0.0919107 1.02185 0.163751
vn 0.926928 0.049629 0.371942
v -0.249948 0.965478 0.103774
vn 0.916201 -0.126491 0.380231
v -0.0999207 0.986252 0.034587
vn 0.995701 -0.034216 0.0860787
v -0.00372404 0.873988 0.0701813
vn 0.960265 -0.243825 0.135797
v -0.211679 0.834086 0.101048
vn 0.82932 -0.477232 0.290652
v -0.076481 0.922498 0.173747
vn 0.912191 -0.166926 0.374224
v -0.164102 1.03046 -0.0554381
vn 0.982727 0.0891109 -0.162194
v -0.102199 0.827715 -0.0372359
vn 0.91427 -0.395964 -0.0855795
g leftSphere
usemtl leftSphere

s 1
f 75//75 76//76 66//66
f 77//77 82//82 73//73
f 46//46 43//43 55//55
f 72//72 77//77 73//73
f 43//43 59//59 55//55
f 77//77 86//86 82//82
f 53//53 44//44 49//49
f 8//8 12//12 3//3
f 3//3 12//12 7//7
f 2//2 8//8 3//3
f 74//74 84//84 83//83
f 74//74 68//68 71//71
f 79//79 87//87 86//86
f 2//2 4//4 5//5
f 38//38 47//47 49//49
f 76//76 83//83 79//79
f 50//50 58//58 60//60
f 46//46 34//34 43//43
f 30//30 22//22 18//18
f 75//75 66//66 63//63
f 20//20 25//25 16//16
f 6//6 15//15 20//20
f 52//52 50//50 60//60
f 2//2 3//3 1//1
f 36//36 45//45 51//51
f 66//66 55//55 59//59
f 16//16 26//26 21//21
f 16//16 25//25 27//27
f 50//50 52//52 40//40
f 13//13 10//10 9//9
f 24//24 25//25 20//20
f 44//44 39//39 49//49
f 14//14 19//19 17//17
f 24//24 23//23 33//33
f 31//31 19//19 38//38
f 22//22 15//15 18//18
f 43//43 34//34 40//40
f 31//31 39//39 32//32
f 16//16 8//8 6//6
f 21//21 26//26 29//29
f 57//57 56//56 64//64
f 47//47 62//62 53//53
f 3//3 7//7 1//1
f 29//29 48//48 42//42
f 30//30 45//45 36//36
f 76//76 69//69 65//65
f 28//28 34//34 46//46
f 17//17 11//11 14//14
f 46//46 56//56 48//48
f 84//84 80//80 85//85
f 43//43 52//52 59//59
f 77//77 69//69 79//79
f 56//56 55//55 65//65
f 67//67 51//51 78//78
f 75//75 83//83 76//76
f 17//17 32//32 13//13
f 48//48 28//28 46//46
f 6//6 8//8 2//2
f 79//79 69//69 76//76
f 44//44 45//45 35//35
f 5//5 6//6 2//2
f 16//16 12//12 8//8
f 58//58 41//41 51//51
f 21//21 12//12 16//16
f 48//48 56//56 57//57
f 58//58 51//51 67//67
f 23//23 15//15 22//22
f 27//27 34//34 28//28
f 73//73 81//81 78//78
f 14//14 12//12 21//21
f 10//10 15//15 5//5
f 80//80 84//84 74//74
f 29//29 19//19 21//21
f 70//70 77//77 72//72
f 24//24 34//34 25//25
f 28//28 26//26 27//27
f 49//49 39//39 31//31
f 40//40 33//33 50//50
f 83//83 84//84 87//87
f 5//5 15//15 6//6
f 17//17 19//19 31//31
f 38//38 29//29 42//42
f 49//49 47//47 53//53
f 68//68 67//67 71//71
f 9//9 11//11 13//13
f 42//42 47//47 38//38
f 65//65 66//66 76//76
f 1//1 4//4 2//2
f 85//85 81//81 82//82
f 68//68 60//60 67//67
f 16//16 6//6 20//20
f 79//79 86//86 77//77
f 13//13 11//11 17//17
f 86//86 85//85 82//82
f 39//39 44//44 35//35
f 64//64 56//56 65//65
f 78//78 61//61 73//73
f 79//79 83//83 87//87
f 54//54 61//61 78//78
f 87//87 84//84 86//86
f 73//73 61//61 72//72
f 84//84 85//85 86//86
f 48//48 57//57 42//42
f 59//59 63//63 66//66
f 25//25 34//34 27//27
f 14//14 11//11 7//7
f 28//28 48//48 29//29
f 29//29 26//26 28//28
f 51//51 54//54 78//78
f 70//70 62//62 64//64
f 20//20 23//23 24//24
f 54//54 45//45 44//44
f 32//32 30//30 18//18
f 74//74 75//75 68//68
f 71//71 80//80 74//74
f 65//65 55//55 66//66
f 74//74 83//83 75//75
f 56//56 46//46 55//55
f 53//53 72//72 61//61
f 71//71 78//78 80//80
f 62//62 47//47 57//57
f 71//71 67//67 78//78
f 58//58 67//67 60//60
f 80//80 81//81 85//85
f 13//13 18//18 10//10
f 59//59 52//52 63//63
f 21//21 19//19 14//14
f 44//44 53//53 61//61
f 9//9 4//4 1//1
f 77//77 70//70 69//69
f 37//37 23//23 22//22
f 1//1 7//7 9//9
f 5//5 4//4 10//10
f 62//62 57//57 64//64
f 80//80 78//78 81//81
f 33//33 23//23 37//37
f 40//40 34//34 24//24
f 32//32 18//18 13//13
f 50//50 41//41 58//58
f 75//75 63//63 68//68
f 37//37 41//41 33//33
f 10//10 4//4 9//9
f 7//7 11//11 9//9
f 63//63 52//52 60//60
f 57//57 47//47 42//42
f 49//49 31//31 38//38
f 35//35 32//32 39//39
f 31//31 32//32 17//17
f 73//73 82//82 81//81
f 30//30 32//32 35//35
f 20//20 15//15 23//23
f 27//27 26//26 16//16
f 35//35 45//45 30//30
f 36//36 37//37 22//22
f 7//7 12//12 14//14
f 36//36 41//41 37//37
f 18//18 15//15 10//10
f 70//70 64//64 69//69
f 33//33 41//41 50//50
f 54//54 44//44 61//61
f 24//24 33//33 40//40
f 51//51 45//45 54//54
f 40//40 52//52 43//43
f 38//38 19//19 29//29
f 51//51 41//41 36//36
f 72//72 62//62 70//70
f 22//22 30//30 36//36
f 53//53 62//62 72//72
f 69//69 64//64 65//65
f 63//63 60//60 68//68

## Object rightSphere

v -0.5875 0.25 0
vn 0 0 0
v -0.3375 0.25 0
vn 1 0 0
v -0.363893 0.361804 0
vn 0.894427 0.447214 0
v -0.356335 0.298578 0.0818727
vn 0.924658 0.194311 0.327491
v -0.365269 0.304668 -0.100621
vn 0.888925 0.218673 -0.402486
v -0.403472 0.399769 -0.078758
vn 0.736112 0.599077 -0.315032
v -0.432693 0.446087 0.00919147
vn 0.61923 0.784348 0.0367659
v -0.363941 0.188416 0.0934285
vn 0.894236 -0.246334 0.373714
v -0.410629 0.387968 0.110368
vn 0.707486 0.551874 0.441473
v -0.367473 0.191604 -0.103335
vn 0.880107 -0.233582 -0.413341
v -0.358458 0.149801 -8.75488e-05
vn 0.916168 -0.400795 -0.000350195
v -0.421135 0.251713 -0.186601
vn 0.665458 0.00685229 -0.746404
v -0.444167 0.364414 -0.169897
vn 0.573332 0.457656 -0.67959
v -0.485119 0.455304 -0.0993403
vn 0.409525 0.821214 -0.397361
v -0.409409 0.274129 0.173785
vn 0.712366 0.096514 0.69514
v -0.527304 0.492563 -0.00629535
vn 0.240784 0.970252 -0.0251814
v -0.442748 0.137095 -0.169703
vn 0.579009 -0.45162 -0.678813
v -0.436004 0.146356 0.169726
vn 0.605982 -0.414577 0.678905
v -0.511892 0.464419 0.103961
vn 0.302433 0.857675 0.415846
v -0.414726 0.0800885 0.061474
vn 0.691098 -0.679646 0.245896
v -0.500173 0.374247 0.198587
vn 0.349309 0.496986 0.794347
v -0.413442 0.0814998 -0.0617362
vn 0.696233 -0.674001 -0.246945
v -0.596483 0.483348 -0.0892645
vn -0.035932 0.933391 -0.357058
v -0.502895 0.196054 -0.22898
vn 0.338418 -0.215782 -0.915921
v -0.54919 0.415044 -0.183828
vn 0.153241 0.660177 -0.735312
v -0.518203 0.302872 -0.234313
vn 0.277186 0.211488 -0.937252
v -0.506754 0.236186 0.236198
vn 0.322982 -0.0552575 0.944791
v -0.533178 0.122009 0.207768
vn 0.21729 -0.511964 0.83107
v -0.500781 0.048265 -0.119511
vn 0.346876 -0.80694 -0.478043
v -0.627208 0.494429 0.0343175
vn -0.158833 0.977716 0.13727
v -0.514707 0.0432995 0.120316
vn 0.291174 -0.826802 0.481264
v -0.556411 0.102098 -0.199144
vn 0.124357 -0.591609 -0.796576
v -0.652097 0.431072 -0.159813
vn -0.258388 0.724289 -0.639251
v -0.502034 0.0151782 -0.0073646
vn 0.341866 -0.939287 -0.0294584
v -0.606661 0.322435 0.238508
vn -0.0766425 0.289742 0.954031
v -0.709291 0.458556 -0.0645855
vn -0.487165 0.834224 -0.258342
v -0.620815 0.440442 0.158499
vn -0.133259 0.761769 0.633996
v -0.609796 0.20734 -0.245322
vn -0.0891821 -0.170641 -0.981289
v -0.615078 0.185665 0.240001
vn -0.11031 -0.257341 0.960004
v -0.604107 0.0208233 -0.0985003
vn -0.0664263 -0.916707 -0.394001
v -0.738032 0.440036 0.0610438
vn -0.602127 0.760145 0.244175
v -0.625648 0.0683658 0.167492
vn -0.152591 -0.726537 0.66997
v -0.639455 0.335107 -0.229254
vn -0.207822 0.340429 -0.917016
v -0.70028 0.256923 0.223008
vn -0.451122 0.0276906 0.892033
v -0.798255 0.376885 -0.044525
vn -0.843022 0.507538 -0.1781
v -0.728947 0.364011 0.171739
vn -0.565787 0.456045 0.686955
v -0.682286 0.105617 -0.180746
vn -0.379144 -0.577531 -0.722985
v -0.618059 0.00569375 0.0433655
vn -0.122236 -0.977225 0.173462
v -0.740168 0.370642 -0.156965
vn -0.610673 0.482569 -0.627859
v -0.725921 0.239512 -0.207917
vn -0.553685 -0.0419533 -0.831669
v -0.716083 0.147342 0.188223
vn -0.514331 -0.410633 0.752891
v -0.811335 0.338188 0.0679763
vn -0.89534 0.352752 0.271905
v -0.726307 0.0495782 -0.0553525
vn -0.555226 -0.801687 -0.22141
v -0.728081 0.0603012 0.082167
vn -0.562323 -0.758795 0.328668
v -0.781603 0.249774 0.157556
vn -0.776413 -0.000904782 0.630224
v -0.790415 0.161365 -0.116058
vn -0.811658 -0.354539 -0.464234
v -0.800165 0.278246 -0.128358
vn -0.85066 0.112984 -0.513432
v -0.788956 0.146983 0.106315
vn -0.805824 -0.412069 0.42526
v -0.835034 0.250792 -0.035022
vn -0.990134 0.00316965 -0.140088
v -0.805951 0.128435 0.00096488
vn -0.873805 -0.486261 0.00385952
v -0.827736 0.222041 0.063286
vn -0.960943 -0.111836 0.253144
g rightSphere
usemtl rightSphere

s 1
f 160//160 161//161 159//159
f 159//159 161//161 152//152
f 156//156 160//160 159//159
f 134//134 120//120 131//131
f 153//153 156//156 147//147
f 155//155 158//158 151//151
f 139//139 128//128 127//127
f 116//116 123//123 130//130
f 112//112 117//117 124//124
f 150//150 149//149 143//143
f 126//126 112//112 124//124
f 139//139 127//127 135//135
f 152//152 155//155 146//146
f 120//120 111//111 108//108
f 110//110 105//105 102//102
f 132//132 117//117 129//129
f 138//138 126//126 124//124
f 106//106 105//105 113//113
f 127//127 128//128 118//118
f 137//137 130//130 141//141
f 121//121 115//115 109//109
f 141//141 152//152 146//146
f 131//131 120//120 118//118
f 128//128 139//139 142//142
f 149//149 145//145 136//136
f 122//122 117//117 110//110
f 123//123 116//116 114//114
f 153//153 147//147 140//140
f 129//129 134//134 140//140
f 132//132 129//129 140//140
f 108//108 115//115 118//118
f 148//148 153//153 140//140
f 115//115 127//127 118//118
f 103//103 106//106 107//107
f 160//160 156//156 153//153
f 126//126 125//125 113//113
f 121//121 109//109 119//119
f 136//136 145//145 141//141
f 111//111 122//122 110//110
f 117//117 112//112 110//110
f 134//134 122//122 120//120
f 131//131 128//128 142//142
f 148//148 131//131 142//142
f 128//128 131//131 118//118
f 156//156 159//159 157//157
f 150//150 138//138 147//147
f 133//133 149//149 136//136
f 158//158 154//154 151//151
f 106//106 114//114 107//107
f 148//148 134//134 131//131
f 123//123 114//114 125//125
f 154//154 142//142 151//151
f 160//160 154//154 158//158
f 121//121 127//127 115//115
f 108//108 111//111 102//102
f 109//109 103//103 107//107
f 127//127 121//121 135//135
f 142//142 139//139 151//151
f 104//104 115//115 108//108
f 161//161 160//160 158//158
f 154//154 148//148 142//142
f 138//138 143//143 126//126
f 145//145 149//149 157//157
f 105//105 112//112 113//113
f 156//156 150//150 147//147
f 112//112 105//105 110//110
f 135//135 137//137 146//146
f 123//123 136//136 130//130
f 145//145 159//159 152//152
f 144//144 139//139 135//135
f 149//149 150//150 157//157
f 114//114 116//116 107//107
f 144//144 155//155 151//151
f 123//123 133//133 136//136
f 116//116 119//119 107//107
f 161//161 155//155 152//152
f 149//149 133//133 143//143
f 109//109 104//104 103//103
f 138//138 150//150 143//143
f 133//133 123//123 125//125
f 148//148 154//154 153//153
f 134//134 148//148 140//140
f 132//132 138//138 124//124
f 104//104 108//108 102//102
f 122//122 134//134 129//129
f 137//137 119//119 130//130
f 111//111 110//110 102//102
f 125//125 114//114 113//113
f 144//144 135//135 146//146
f 139//139 144//144 151//151
f 138//138 132//132 147//147
f 103//103 104//104 102//102
f 130//130 136//136 141//141
f 141//141 145//145 152//152
f 137//137 121//121 119//119
f 154//154 160//160 153//153
f 122//122 111//111 120//120
f 112//112 126//126 113//113
f 150//150 156//156 157//157
f 117//117 122//122 129//129
f 115//115 104//104 109//109
f 119//119 109//109 107//107
f 105//105 106//106 103//103
f 119//119 116//116 130//130
f 147//147 132//132 140//140
f 121//121 137//137 135//135
f 105//105 103//103 102//102
f 143//143 133//133 125//125
f 159//159 145//145 157//157
f 114//114 106//106 113//113
f 120//120 108//108 118//118
f 137//137 141//141 146//146
f 155//155 144//144 146//146
f 126//126 143//143 125//125
f 155//155 161//161 158//158
f 117//117 132//132 124//124


## Object floor
v   1.0000 0.0000 -1.0400
v  -0.9900 0.0000 -1.0400
v  -1.0100 0.0000  0.9900
v   1.0000 0.0000  0.9900
# 4 vertices

vn 0.0000 1.0000 -0.0000
# 1 vertex normals

g floor
usemtl floor

s 1
f 162//162 163//162 164//162 
f 164//162 165//162 162//162 
# 2 faces

## Object ceiling 
v   1.0000 1.5900 -1.0400
v   1.0000 1.5900  0.9900
v  -1.0200 1.5900  0.9900
v  -1.0200 1.5900 -1.0400
# 4 vertices

vn 0.0000 -1.0000 -0.0000
# 1 vertex normals

g ceiling
usemtl ceiling

s 1
f 166//163 167//163 168//163 
f 168//163 169//163 166//163 
# 2 faces

## Object backwall 
v   1.0000 1.5900 -1.0400
v  -1.0200 1.5900 -1.0400
v  -0.9900 0.0000 -1.0400
v   1.0000 0.0000 -1.0400
# 4 vertices

vn 0.0000 0.0000 1.0000
# 1 vertex normals

g backWall
usemtl backWall

s 1
f 170//164 171//164 172//164 
f 172//164 173//164 170//164 
# 2 faces

## Object rightwall 
v  1.0000 1.5900 0.9900
v  1.0000 1.5900 -1.0400
v  1.0000 0.0000 -1.0400
v  1.0000 0.0000 0.9900
# 4 vertices

vn -1.0000 0.0000 -0.0000
# 1 vertex normals

g rightWall
usemtl rightWall

s 1
f 174//165 175//165 176//165 
f 176//165 177//165 174//165 
# 2 faces

## Object leftWall 
v  -1.0200 1.5900 -1.0400
v  -1.0200 1.5900 0.9900
v  -1.0100 0.0000 0.9900
v  -0.9900 0.0000 -1.0400
# 4 vertices

vn 0.9999 0.0135 0.0057
vn 1.0000 0.0063 -0.0000
vn 0.9999 0.0116 0.0042
vn 0.9998 0.0189 0.0098
# 4 vertex normals

g leftWall
usemtl leftWall

s 1
f 178//166 179//167 180//168 
f 180//168 181//169 178//166 
# 2 faces

## Object light
v  0.2300 1.5800 -0.2200
v  0.2300 1.5800 0.1600
v  -0.2400 1.5800 0.1600
v  -0.2400 1.5800 -0.2200
# 4 vertices

vn 0.0000 -1.0000 -0.0000
# 1 vertex normals

g light
usemtl light

s 1
f 182//170 183//170 184//170 
f 184//170 185//170 182//170 
# 2 faces
