mtllib CornellBox-Sphere.mtl

## Object leftSphere

v 0.0781686 0.499675 0.0576923
vn 0.754034 -0.652512 0.075241
v 0.103253 0.585385 0.0193389
vn 0.823832 -0.566218 0.0264102
v 0.0907463 0.557613 0.110634
vn 0.791593 -0.592793 0.148248
v 0.0621138 0.515789 -0.0220302
vn 0.757322 -0.652366 -0.0296807
v 0.0600023 0.588205 -0.0612378
vn 0.802523 -0.590132 -0.0877581
v 0.0815369 0.674862 -0.0118503
vn 0.872702 -0.487929 -0.0177835
v 0.0222642 0.487528 0.134829
vn 0.701949 -0.688787 0.181217
v 0.0967335 0.643078 0.0898438
vn 0.851126 -0.509081 0.128145
v -0.00128978 0.45288 0.0217049
vn 0.673365 -0.738729 0.0293063
v -0.019076 0.512971 -0.0802955
vn 0.697847 -0.706706 -0.116513
v -0.0660149 0.448347 0.0992686
vn 0.612208 -0.778198 0.140035
v 0.0383947 0.594159 0.183979
vn 0.770375 -0.580708 0.263251
v -0.10783 0.453026 -0.00995727
vn 0.582625 -0.812607 -0.0147929
v -0.0639805 0.512784 0.192981
vn 0.639593 -0.714692 0.283083
v -0.00876343 0.642777 -0.123708
vn 0.792497 -0.576298 -0.199574
v 0.0514835 0.735765 0.125517
vn 0.88341 -0.423273 0.201063
v -0.165225 0.464759 0.115857
vn 0.521573 -0.833895 0.180503
v -0.125635 0.5355 -0.120586
vn 0.615078 -0.763169 -0.198122
v -0.167018 0.549118 0.224376
vn 0.551522 -0.7468 0.371636
v 0.0299872 0.763279 -0.043023
vn 0.910563 -0.406707 -0.0739173
v -0.047862 0.632304 0.239586
vn 0.717561 -0.583548 0.380233
v -0.134505 0.650154 -0.175307
vn 0.682588 -0.653363 -0.327399
v -0.0558138 0.757724 -0.139538
vn 0.846307 -0.461608 -0.265862
v -0.0407753 0.859731 -0.053014
vn 0.950604 -0.29036 -0.10974
v 0.00971371 0.830594 0.0509623
vn 0.944719 -0.313981 0.0944551
v -0.0418959 0.745507 0.227307
vn 0.801972 -0.445524 0.397931
v -0.0171773 0.825462 0.151615
vn 0.901932 -0.326044 0.283222
v -0.102764 0.838108 0.229489
vn 0.816538 -0.332777 0.471726
v -0.154347 0.691146 0.277553
vn 0.639765 -0.571656 0.513721
v -0.241807 0.577459 -0.142156
vn 0.501168 -0.820178 -0.275933
v -0.269806 0.505581 0.13286
vn 0.410086 -0.8808 0.236688
v -0.236643 0.48449 -0.0200024
vn 0.454668 -0.889992 -0.0345326
v -0.12309 0.857214 -0.140275
vn 0.883185 -0.33458 -0.328696
v -0.0687862 0.916209 0.0932612
vn 0.960237 -0.186587 0.207676
v -0.329372 0.550723 -0.0692401
vn 0.351413 -0.925297 -0.142602
v -0.253797 0.698487 -0.194458
vn 0.565812 -0.692923 -0.446894
v -0.15492 0.757375 -0.185715
vn 0.748694 -0.526406 -0.402931
v -0.27602 0.591601 0.234871
vn 0.429367 -0.782895 0.450245
v -0.338876 0.522874 0.0349666
vn 0.319178 -0.94516 0.0692669
v -0.117477 0.947923 -0.0416109
vn 0.985154 -0.13412 -0.107165
v -0.233069 0.823448 -0.197426
vn 0.709863 -0.469514 -0.525025
v -0.274494 0.700717 0.286347
vn 0.478161 -0.634595 0.607167
v -0.15726 1.00075 0.0786485
vn 0.974666 0.00213247 0.223656
v -0.433434 0.593315 -0.0133481
vn 0.161445 -0.986351 -0.0323738
v -0.359153 0.639433 -0.144982
vn 0.340737 -0.872284 -0.35074
v -0.163636 0.938155 0.203169
vn 0.845564 -0.155469 0.510735
v -0.380744 0.655257 0.238036
vn 0.273786 -0.791456 0.546479
v -0.212336 0.813045 0.285501
vn 0.644505 -0.418868 0.639658
v -0.378994 0.567457 0.138609
vn 0.257431 -0.920203 0.294881
v -0.206803 0.938397 -0.141375
vn 0.885043 -0.185954 -0.426755
v -0.373823 0.782693 -0.199395
vn 0.393341 -0.677429 -0.621589
v -0.210985 1.02513 -0.0403189
vn 0.986757 0.085801 -0.137657
v -0.482422 0.647445 0.141878
vn 0.0462046 -0.926708 0.372932
v -0.468831 0.691652 -0.117452
vn 0.0940429 -0.93036 -0.354382
v -0.250281 1.02573 0.175816
vn 0.814783 0.0839666 0.573653
v -0.291262 0.928441 0.270761
vn 0.597606 -0.204869 0.775174
v -0.347057 0.788197 0.295183
vn 0.387994 -0.537312 0.748836
v -0.305796 0.9045 -0.191418
vn 0.672167 -0.330539 -0.662522
v -0.244942 1.06479 0.0610881
vn 0.944115 0.239823 0.226122
v -0.308624 1.00845 -0.137775
vn 0.811045 0.03581 -0.583887
v -0.551458 0.691649 -0.00174732
vn -0.164601 -0.986344 -0.00558928
v -0.472575 0.748848 0.245521
vn 0.0778476 -0.712907 0.696924
v -0.316422 1.09118 -0.0278874
vn 0.88743 0.440789 -0.13481
v -0.426089 0.887652 0.286738
vn 0.233374 -0.354737 0.905372
v -0.375499 1.02838 0.23535
vn 0.464973 0.105999 0.878957
v -0.337651 1.10399 0.112937
vn 0.726585 0.465405 0.505444
v -0.413258 0.928766 -0.191559
vn 0.390692 -0.320843 -0.862798
v -0.412087 1.06742 -0.120156
vn 0.537894 0.412536 -0.735176
v -0.516609 0.984487 0.255897
vn -0.06465 -0.0603861 0.996079
v -0.541562 0.846732 0.246674
vn -0.14167 -0.522437 0.840826
v -0.516796 0.985684 -0.163267
vn -0.101945 -0.086893 -0.990988
v -0.576959 0.75087 0.153602
vn -0.254303 -0.82323 0.507565
v -0.639022 0.788033 0.034889
vn -0.543312 -0.828385 0.136349
v -0.535316 1.10824 -0.093574
vn -0.239633 0.734465 -0.63493
v -0.423622 1.14376 0.00336297
vn 0.469092 0.882908 0.0206544
v -0.461382 1.116 0.172526
vn 0.18263 0.548584 0.815906
v -0.646166 0.894 0.181732
vn -0.570565 -0.413776 0.709397
v -0.551043 0.824402 -0.140334
vn -0.221436 -0.76179 -0.608804
v -0.604126 1.07667 0.195204
vn -0.444703 0.327433 0.833683
v -0.625792 0.982367 -0.118233
vn -0.72489 -0.101615 -0.681329
v -0.661722 0.876557 -0.055059
vn -0.767293 -0.58568 -0.261229
v -0.700175 0.894701 0.0563099
vn -0.858805 -0.451764 0.241585
v -0.553954 1.17294 0.0561422
vn -0.284474 0.911839 0.296013
v -0.665866 1.10733 -0.0410944
vn -0.821967 0.531881 -0.203648
v -0.710201 0.971582 -0.0220822
vn -0.985658 -0.133253 -0.103546
v -0.717201 1.01016 0.110453
vn -0.890592 0.0416722 0.452891
v -0.660994 1.13663 0.103232
vn -0.684961 0.581312 0.439209
v -0.064119 0.633949 0.0520356
vn 0.762602 -0.640429 0.0910397
v -0.243726 0.75089 0.0442773
vn 0.711618 -0.691725 0.122949
v -0.577093 1.00722 0.0599079
vn -0.787464 0.0737883 0.611928
v -0.433835 0.923199 -0.0789367
vn 0.514982 -0.597765 -0.614386
v -0.542697 0.933742 -0.0501764
vn -0.456952 -0.709104 -0.536998
v -0.45912 0.975042 0.165947
vn 0.236684 -0.144497 0.960781
v -0.538751 0.867074 0.0506993
vn -0.262808 -0.901501 0.343842
v -0.429462 0.989698 0.0352405
vn 0.887032 -0.129555 0.443158
v -0.288237 0.946156 0.0757127
vn 0.915744 -0.232842 0.32741
v -0.426142 0.79161 0.0271389
vn 0.331571 -0.93553 0.121835
v -0.386761 0.904778 0.158256
vn 0.522694 -0.439529 0.730482
v -0.499033 1.01989 -0.0572316
vn 0.0159597 0.328279 -0.944446
v -0.321011 0.898525 -0.0665564
vn 0.827696 -0.469247 -0.307776
g leftSphere
usemtl leftSphere

s 1
f 75//75 76//76 66//66
f 77//77 82//82 73//73
f 46//46 43//43 55//55
f 72//72 77//77 73//73
f 43//43 59//59 55//55
f 77//77 86//86 82//82
f 53//53 44//44 49//49
f 8//8 12//12 3//3
f 3//3 12//12 7//7
f 2//2 8//8 3//3
f 74//74 84//84 83//83
f 74//74 68//68 71//71
f 79//79 87//87 86//86
f 2//2 4//4 5//5
f 38//38 47//47 49//49
f 76//76 83//83 79//79
f 50//50 58//58 60//60
f 46//46 34//34 43//43
f 30//30 22//22 18//18
f 75//75 66//66 63//63
f 20//20 25//25 16//16
f 6//6 15//15 20//20
f 52//52 50//50 60//60
f 2//2 3//3 1//1
f 36//36 45//45 51//51
f 66//66 55//55 59//59
f 16//16 26//26 21//21
f 16//16 25//25 27//27
f 50//50 52//52 40//40
f 13//13 10//10 9//9
f 24//24 25//25 20//20
f 44//44 39//39 49//49
f 14//14 19//19 17//17
f 24//24 23//23 33//33
f 31//31 19//19 38//38
f 22//22 15//15 18//18
f 43//43 34//34 40//40
f 31//31 39//39 32//32
f 16//16 8//8 6//6
f 21//21 26//26 29//29
f 57//57 56//56 64//64
f 47//47 62//62 53//53
f 3//3 7//7 1//1
f 29//29 48//48 42//42
f 30//30 45//45 36//36
f 76//76 69//69 65//65
f 28//28 34//34 46//46
f 17//17 11//11 14//14
f 46//46 56//56 48//48
f 84//84 80//80 85//85
f 43//43 52//52 59//59
f 77//77 69//69 79//79
f 56//56 55//55 65//65
f 67//67 51//51 78//78
f 75//75 83//83 76//76
f 17//17 32//32 13//13
f 48//48 28//28 46//46
f 6//6 8//8 2//2
f 79//79 69//69 76//76
f 44//44 45//45 35//35
f 5//5 6//6 2//2
f 16//16 12//12 8//8
f 58//58 41//41 51//51
f 21//21 12//12 16//16
f 48//48 56//56 57//57
f 58//58 51//51 67//67
f 23//23 15//15 22//22
f 27//27 34//34 28//28
f 73//73 81//81 78//78
f 14//14 12//12 21//21
f 10//10 15//15 5//5
f 80//80 84//84 74//74
f 29//29 19//19 21//21
f 70//70 77//77 72//72
f 24//24 34//34 25//25
f 28//28 26//26 27//27
f 49//49 39//39 31//31
f 40//40 33//33 50//50
f 83//83 84//84 87//87
f 5//5 15//15 6//6
f 17//17 19//19 31//31
f 38//38 29//29 42//42
f 49//49 47//47 53//53
f 68//68 67//67 71//71
f 9//9 11//11 13//13
f 42//42 47//47 38//38
f 65//65 66//66 76//76
f 1//1 4//4 2//2
f 85//85 81//81 82//82
f 68//68 60//60 67//67
f 16//16 6//6 20//20
f 79//79 86//86 77//77
f 13//13 11//11 17//17
f 86//86 85//85 82//82
f 39//39 44//44 35//35
f 64//64 56//56 65//65
f 78//78 61//61 73//73
f 79//79 83//83 87//87
f 54//54 61//61 78//78
f 87//87 84//84 86//86
f 73//73 61//61 72//72
f 84//84 85//85 86//86
f 48//48 57//57 42//42
f 59//59 63//63 66//66
f 25//25 34//34 27//27
f 14//14 11//11 7//7
f 28//28 48//48 29//29
f 29//29 26//26 28//28
f 51//51 54//54 78//78
f 70//70 62//62 64//64
f 20//20 23//23 24//24
f 54//54 45//45 44//44
f 32//32 30//30 18//18
f 74//74 75//75 68//68
f 71//71 80//80 74//74
f 65//65 55//55 66//66
f 74//74 83//83 75//75
f 56//56 46//46 55//55
f 53//53 72//72 61//61
f 71//71 78//78 80//80
f 62//62 47//47 57//57
f 71//71 67//67 78//78
f 58//58 67//67 60//60
f 80//80 81//81 85//85
f 13//13 18//18 10//10
f 59//59 52//52 63//63
f 21//21 19//19 14//14
f 44//44 53//53 61//61
f 9//9 4//4 1//1
f 77//77 70//70 69//69
f 37//37 23//23 22//22
f 1//1 7//7 9//9
f 5//5 4//4 10//10
f 62//62 57//57 64//64
f 80//80 78//78 81//81
f 33//33 23//23 37//37
f 40//40 34//34 24//24
f 32//32 18//18 13//13
f 50//50 41//41 58//58
f 75//75 63//63 68//68
f 37//37 41//41 33//33
f 10//10 4//4 9//9
f 7//7 11//11 9//9
f 63//63 52//52 60//60
f 57//57 47//47 42//42
f 49//49 31//31 38//38
f 35//35 32//32 39//39
f 31//31 32//32 17//17
f 73//73 82//82 81//81
f 30//30 32//32 35//35
f 20//20 15//15 23//23
f 27//27 26//26 16//16
f 35//35 45//45 30//30
f 36//36 37//37 22//22
f 7//7 12//12 14//14
f 36//36 41//41 37//37
f 18//18 15//15 10//10
f 70//70 64//64 69//69
f 33//33 41//41 50//50
f 54//54 44//44 61//61
f 24//24 33//33 40//40
f 51//51 45//45 54//54
f 40//40 52//52 43//43
f 38//38 19//19 29//29
f 51//51 41//41 36//36
f 72//72 62//62 70//70
f 22//22 30//30 36//36
f 53//53 62//62 72//72
f 69//69 64//64 65//65
f 63//63 60//60 68//68

## Object rightSphere

v -0.5875 0.25 0
vn 0 0 0
v -0.3375 0.25 0
vn 1 0 0
v -0.363893 0.361804 0
vn 0.894427 0.447214 0
v -0.356335 0.298578 0.0818727
vn 0.924658 0.194311 0.327491
v -0.365269 0.304668 -0.100621
vn 0.888925 0.218673 -0.402486
v -0.403472 0.399769 -0.078758
vn 0.736112 0.599077 -0.315032
v -0.432693 0.446087 0.00919147
vn 0.61923 0.784348 0.0367659
v -0.363941 0.188416 0.0934285
vn 0.894236 -0.246334 0.373714
v -0.410629 0.387968 0.110368
vn 0.707486 0.551874 0.441473
v -0.367473 0.191604 -0.103335
vn 0.880107 -0.233582 -0.413341
v -0.358458 0.149801 -8.75488e-05
vn 0.916168 -0.400795 -0.000350195
v -0.421135 0.251713 -0.186601
vn 0.665458 0.00685229 -0.746404
v -0.444167 0.364414 -0.169897
vn 0.573332 0.457656 -0.67959
v -0.485119 0.455304 -0.0993403
vn 0.409525 0.821214 -0.397361
v -0.409409 0.274129 0.173785
vn 0.712366 0.096514 0.69514
v -0.527304 0.492563 -0.00629535
vn 0.240784 0.970252 -0.0251814
v -0.442748 0.137095 -0.169703
vn 0.579009 -0.45162 -0.678813
v -0.436004 0.146356 0.169726
vn 0.605982 -0.414577 0.678905
v -0.511892 0.464419 0.103961
vn 0.302433 0.857675 0.415846
v -0.414726 0.0800885 0.061474
vn 0.691098 -0.679646 0.245896
v -0.500173 0.374247 0.198587
vn 0.349309 0.496986 0.794347
v -0.413442 0.0814998 -0.0617362
vn 0.696233 -0.674001 -0.246945
v -0.596483 0.483348 -0.0892645
vn -0.035932 0.933391 -0.357058
v -0.502895 0.196054 -0.22898
vn 0.338418 -0.215782 -0.915921
v -0.54919 0.415044 -0.183828
vn 0.153241 0.660177 -0.735312
v -0.518203 0.302872 -0.234313
vn 0.277186 0.211488 -0.937252
v -0.506754 0.236186 0.236198
vn 0.322982 -0.0552575 0.944791
v -0.533178 0.122009 0.207768
vn 0.21729 -0.511964 0.83107
v -0.500781 0.048265 -0.119511
vn 0.346876 -0.80694 -0.478043
v -0.627208 0.494429 0.0343175
vn -0.158833 0.977716 0.13727
v -0.514707 0.0432995 0.120316
vn 0.291174 -0.826802 0.481264
v -0.556411 0.102098 -0.199144
vn 0.124357 -0.591609 -0.796576
v -0.652097 0.431072 -0.159813
vn -0.258388 0.724289 -0.639251
v -0.502034 0.0151782 -0.0073646
vn 0.341866 -0.939287 -0.0294584
v -0.606661 0.322435 0.238508
vn -0.0766425 0.289742 0.954031
v -0.709291 0.458556 -0.0645855
vn -0.487165 0.834224 -0.258342
v -0.620815 0.440442 0.158499
vn -0.133259 0.761769 0.633996
v -0.609796 0.20734 -0.245322
vn -0.0891821 -0.170641 -0.981289
v -0.615078 0.185665 0.240001
vn -0.11031 -0.257341 0.960004
v -0.604107 0.0208233 -0.0985003
vn -0.0664263 -0.916707 -0.394001
v -0.738032 0.440036 0.0610438
vn -0.602127 0.760145 0.244175
v -0.625648 0.0683658 0.167492
vn -0.152591 -0.726537 0.66997
v -0.639455 0.335107 -0.229254
vn -0.207822 0.340429 -0.917016
v -0.70028 0.256923 0.223008
vn -0.451122 0.0276906 0.892033
v -0.798255 0.376885 -0.044525
vn -0.843022 0.507538 -0.1781
v -0.728947 0.364011 0.171739
vn -0.565787 0.456045 0.686955
v -0.682286 0.105617 -0.180746
vn -0.379144 -0.577531 -0.722985
v -0.618059 0.00569375 0.0433655
vn -0.122236 -0.977225 0.173462
v -0.740168 0.370642 -0.156965
vn -0.610673 0.482569 -0.627859
v -0.725921 0.239512 -0.207917
vn -0.553685 -0.0419533 -0.831669
v -0.716083 0.147342 0.188223
vn -0.514331 -0.410633 0.752891
v -0.811335 0.338188 0.0679763
vn -0.89534 0.352752 0.271905
v -0.726307 0.0495782 -0.0553525
vn -0.555226 -0.801687 -0.22141
v -0.728081 0.0603012 0.082167
vn -0.562323 -0.758795 0.328668
v -0.781603 0.249774 0.157556
vn -0.776413 -0.000904782 0.630224
v -0.790415 0.161365 -0.116058
vn -0.811658 -0.354539 -0.464234
v -0.800165 0.278246 -0.128358
vn -0.85066 0.112984 -0.513432
v -0.788956 0.146983 0.106315
vn -0.805824 -0.412069 0.42526
v -0.835034 0.250792 -0.035022
vn -0.990134 0.00316965 -0.140088
v -0.805951 0.128435 0.00096488
vn -0.873805 -0.486261 0.00385952
v -0.827736 0.222041 0.063286
vn -0.960943 -0.111836 0.253144
g rightSphere
usemtl rightSphere

s 1
f 160//160 161//161 159//159
f 159//159 161//161 152//152
f 156//156 160//160 159//159
f 134//134 120//120 131//131
f 153//153 156//156 147//147
f 155//155 158//158 151//151
f 139//139 128//128 127//127
f 116//116 123//123 130//130
f 112//112 117//117 124//124
f 150//150 149//149 143//143
f 126//126 112//112 124//124
f 139//139 127//127 135//135
f 152//152 155//155 146//146
f 120//120 111//111 108//108
f 110//110 105//105 102//102
f 132//132 117//117 129//129
f 138//138 126//126 124//124
f 106//106 105//105 113//113
f 127//127 128//128 118//118
f 137//137 130//130 141//141
f 121//121 115//115 109//109
f 141//141 152//152 146//146
f 131//131 120//120 118//118
f 128//128 139//139 142//142
f 149//149 145//145 136//136
f 122//122 117//117 110//110
f 123//123 116//116 114//114
f 153//153 147//147 140//140
f 129//129 134//134 140//140
f 132//132 129//129 140//140
f 108//108 115//115 118//118
f 148//148 153//153 140//140
f 115//115 127//127 118//118
f 103//103 106//106 107//107
f 160//160 156//156 153//153
f 126//126 125//125 113//113
f 121//121 109//109 119//119
f 136//136 145//145 141//141
f 111//111 122//122 110//110
f 117//117 112//112 110//110
f 134//134 122//122 120//120
f 131//131 128//128 142//142
f 148//148 131//131 142//142
f 128//128 131//131 118//118
f 156//156 159//159 157//157
f 150//150 138//138 147//147
f 133//133 149//149 136//136
f 158//158 154//154 151//151
f 106//106 114//114 107//107
f 148//148 134//134 131//131
f 123//123 114//114 125//125
f 154//154 142//142 151//151
f 160//160 154//154 158//158
f 121//121 127//127 115//115
f 108//108 111//111 102//102
f 109//109 103//103 107//107
f 127//127 121//121 135//135
f 142//142 139//139 151//151
f 104//104 115//115 108//108
f 161//161 160//160 158//158
f 154//154 148//148 142//142
f 138//138 143//143 126//126
f 145//145 149//149 157//157
f 105//105 112//112 113//113
f 156//156 150//150 147//147
f 112//112 105//105 110//110
f 135//135 137//137 146//146
f 123//123 136//136 130//130
f 145//145 159//159 152//152
f 144//144 139//139 135//135
f 149//149 150//150 157//157
f 114//114 116//116 107//107
f 144//144 155//155 151//151
f 123//123 133//133 136//136
f 116//116 119//119 107//107
f 161//161 155//155 152//152
f 149//149 133//133 143//143
f 109//109 104//104 103//103
f 138//138 150//150 143//143
f 133//133 123//123 125//125
f 148//148 154//154 153//153
f 134//134 148//148 140//140
f 132//132 138//138 124//124
f 104//104 108//108 102//102
f 122//122 134//134 129//129
f 137//137 119//119 130//130
f 111//111 110//110 102//102
f 125//125 114//114 113//113
f 144//144 135//135 146//146
f 139//139 144//144 151//151
f 138//138 132//132 147//147
f 103//103 104//104 102//102
f 130//130 136//136 141//141
f 141//141 145//145 152//152
f 137//137 121//121 119//119
f 154//154 160//160 153//153
f 122//122 111//111 120//120
f 112//112 126//126 113//113
f 150//150 156//156 157//157
f 117//117 122//122 129//129
f 115//115 104//104 109//109
f 119//119 109//109 107//107
f 105//105 106//106 103//103
f 119//119 116//116 130//130
f 147//147 132//132 140//140
f 121//121 137//137 135//135
f 105//105 103//103 102//102
f 143//143 133//133 125//125
f 159//159 145//145 157//157
f 114//114 106//106 113//113
f 120//120 108//108 118//118
f 137//137 141//141 146//146
f 155//155 144//144 146//146
f 126//126 143//143 125//125
f 155//155 161//161 158//158
f 117//117 132//132 124//124


## Object floor
v   1.0000 0.0000 -1.0400
v  -0.9900 0.0000 -1.0400
v  -1.0100 0.0000  0.9900
v   1.0000 0.0000  0.9900
# 4 vertices

vn 0.0000 1.0000 -0.0000
# 1 vertex normals

g floor
usemtl floor

s 1
f 162//162 163//162 164//162 
f 164//162 165//162 162//162 
# 2 faces

## Object ceiling 
v   1.0000 1.5900 -1.0400
v   1.0000 1.5900  0.9900
v  -1.0200 1.5900  0.9900
v  -1.0200 1.5900 -1.0400
# 4 vertices

vn 0.0000 -1.0000 -0.0000
# 1 vertex normals

g ceiling
usemtl ceiling

s 1
f 166//163 167//163 168//163 
f 168//163 169//163 166//163 
# 2 faces

## Object backwall 
v   1.0000 1.5900 -1.0400
v  -1.0200 1.5900 -1.0400
v  -0.9900 0.0000 -1.0400
v   1.0000 0.0000 -1.0400
# 4 vertices

vn 0.0000 0.0000 1.0000
# 1 vertex normals

g backWall
usemtl backWall

s 1
f 170//164 171//164 172//164 
f 172//164 173//164 170//164 
# 2 faces

## Object rightwall 
v  1.0000 1.5900 0.9900
v  1.0000 1.5900 -1.0400
v  1.0000 0.0000 -1.0400
v  1.0000 0.0000 0.9900
# 4 vertices

vn -1.0000 0.0000 -0.0000
# 1 vertex normals

g rightWall
usemtl rightWall

s 1
f 174//165 175//165 176//165 
f 176//165 177//165 174//165 
# 2 faces

## Object leftWall 
v  -1.0200 1.5900 -1.0400
v  -1.0200 1.5900 0.9900
v  -1.0100 0.0000 0.9900
v  -0.9900 0.0000 -1.0400
# 4 vertices

vn 0.9999 0.0135 0.0057
vn 1.0000 0.0063 -0.0000
vn 0.9999 0.0116 0.0042
vn 0.9998 0.0189 0.0098
# 4 vertex normals

g leftWall
usemtl leftWall

s 1
f 178//166 179//167 180//168 
f 180//168 181//169 178//166 
# 2 faces

## Object light
v  0.2300 1.5800 -0.2200
v  0.2300 1.5800 0.1600
v  -0.2400 1.5800 0.1600
v  -0.2400 1.5800 -0.2200
# 4 vertices

vn 0.0000 -1.0000 -0.0000
# 1 vertex normals

g light
usemtl light

s 1
f 182//170 183//170 184//170 
f 184//170 185//170 182//170 
# 2 faces
