mtllib CornellBox-Sphere.mtl

## Object leftSphere

v 0.0552625 0.390211 0.122768
vn 0.665938 -0.731333 0.147238
v 0.1037 0.449838 0.0628044
vn 0.736945 -0.671591 0.0766662
v 0.0992103 0.445914 0.159013
vn 0.72066 -0.66639 0.191242
v 0.0320056 0.397752 0.0432189
vn 0.661093 -0.748379 0.0537057
v 0.0510941 0.457243 -0.0114016
vn 0.712398 -0.701621 -0.0147389
v 0.11283 0.533929 0.0144595
vn 0.795821 -0.60524 0.0187771
v 0.0148677 0.416298 0.206623
vn 0.639358 -0.724836 0.256583
v 0.133415 0.516137 0.11804
vn 0.786095 -0.600495 0.146493
v -0.041825 0.375556 0.107204
vn 0.585986 -0.798637 0.13711
v -0.0528109 0.419526 -0.00466666
vn 0.610273 -0.792165 -0.00636853
v -0.087292 0.412811 0.19043
vn 0.555797 -0.790772 0.256454
v 0.0803607 0.513505 0.226735
vn 0.734161 -0.61542 0.286821
v -0.143982 0.415849 0.086757
vn 0.516289 -0.847123 0.125813
v -0.0420692 0.486258 0.265927
vn 0.620671 -0.696316 0.360433
v 3.34382e-05 0.525664 -0.0773102
vn 0.720982 -0.683929 -0.111471
v 0.134977 0.623962 0.134893
vn 0.846413 -0.501252 0.17981
v -0.167127 0.473543 0.212271
vn 0.505854 -0.800034 0.322579
v -0.146401 0.478498 -0.0388496
vn 0.560136 -0.826112 -0.0615417
v -0.113988 0.569528 0.297146
vn 0.593789 -0.662181 0.45709
v 0.095096 0.63011 -0.0307791
vn 0.848489 -0.52739 -0.0438849
v 0.0284678 0.594649 0.279492
vn 0.731655 -0.561203 0.386952
v -0.118816 0.577006 -0.116452
vn 0.655864 -0.727802 -0.200367
v -0.00104526 0.646683 -0.114073
vn 0.802264 -0.568094 -0.183416
v 0.0665335 0.745305 -0.0565226
vn 0.908316 -0.40835 -0.090622
v 0.119884 0.714425 0.044937
vn 0.90629 -0.41752 0.0656993
v 0.0748785 0.691265 0.238705
vn 0.827371 -0.444334 0.343547
v 0.112822 0.738557 0.144456
vn 0.898908 -0.383493 0.211893
v 0.0559852 0.800806 0.223435
vn 0.880499 -0.315458 0.353848
v -0.0367245 0.700296 0.311155
vn 0.731348 -0.473126 0.491204
v -0.237992 0.562266 -0.0575239
vn 0.51035 -0.852636 -0.112047
v -0.241062 0.5589 0.228999
vn 0.462051 -0.787104 0.408628
v -0.248389 0.498566 0.082119
vn 0.44376 -0.884365 0.144831
v -0.0273708 0.762224 -0.132442
vn 0.86658 -0.435969 -0.242836
v 0.0897492 0.832097 0.0716884
vn 0.955274 -0.271969 0.116121
v -0.31593 0.586931 0.0293944
vn 0.406174 -0.911491 0.0648627
v -0.216502 0.664903 -0.133259
vn 0.618027 -0.730513 -0.290506
v -0.101601 0.6788 -0.149122
vn 0.747413 -0.602585 -0.27976
v -0.193401 0.656602 0.307784
vn 0.553663 -0.620115 0.555801
v -0.315872 0.585283 0.137762
vn 0.388287 -0.87455 0.290509
v 0.0304852 0.857213 -0.060826
vn 0.959767 -0.258334 -0.110048
v -0.153739 0.766242 -0.167604
vn 0.769222 -0.519294 -0.372333
v -0.139946 0.762548 0.329631
vn 0.663274 -0.437423 0.607231
v 0.0365305 0.941937 0.0446141
vn 0.990815 -0.107225 0.0823892
v -0.384668 0.678529 0.0855907
vn 0.327561 -0.913023 0.24309
v -0.32566 0.664163 -0.0593955
vn 0.455166 -0.8768 -0.155069
v 0.0318286 0.911756 0.179808
vn 0.935832 -0.155278 0.316399
v -0.263875 0.756811 0.306392
vn 0.51678 -0.532241 0.670565
v -0.0413268 0.835599 0.294444
vn 0.805675 -0.288775 0.517201
v -0.315091 0.660273 0.231798
vn 0.410063 -0.753396 0.514046
v -0.075909 0.867056 -0.145072
vn 0.907111 -0.284361 -0.310302
v -0.298851 0.787579 -0.143968
vn 0.616922 -0.651491 -0.441549
v -0.0272228 0.963844 -0.0699972
vn 0.986398 -0.0754353 -0.146042
v -0.37892 0.774739 0.226203
vn 0.354632 -0.659768 0.662528
v -0.401872 0.760833 -0.033651
vn 0.376408 -0.917418 -0.129081
v -0.0205387 1.02084 0.141008
vn 0.958538 0.0416694 0.281902
v -0.0749828 0.968512 0.260898
vn 0.850547 -0.0630141 0.52211
v -0.17287 0.871777 0.324188
vn 0.68427 -0.268208 0.678115
v -0.189129 0.868077 -0.174365
vn 0.817947 -0.347109 -0.458779
v -0.0230623 1.0322 0.0205791
vn 0.996805 0.0672984 0.0430106
v -0.141644 0.97099 -0.149257
vn 0.920563 -0.0745226 -0.383418
v -0.454097 0.817146 0.0850376
vn 0.221948 -0.884126 0.411169
v -0.312396 0.87863 0.299613
vn 0.501943 -0.32473 0.801626
v -0.0950072 1.0692 -0.0644129
vn 0.973818 0.166405 -0.154883
v -0.21121 0.990029 0.300909
vn 0.69223 -0.0239004 0.721281
v -0.121708 1.08521 0.211662
vn 0.856297 0.192879 0.479116
v -0.0822653 1.11614 0.0706382
vn 0.950921 0.264373 0.160799
v -0.276551 0.934862 -0.168917
vn 0.776983 -0.226501 -0.587362
v -0.207909 1.07169 -0.135725
vn 0.885215 0.217262 -0.41133
v -0.262847 1.10793 0.257651
vn 0.647192 0.29453 0.703132
v -0.339379 0.994158 0.283677
vn 0.492633 -0.0179177 0.870053
v -0.340793 1.03485 -0.146357
vn 0.726813 0.159114 -0.668151
v -0.426006 0.908262 0.221995
vn 0.294397 -0.364993 0.883239
v -0.491179 0.945096 0.103377
vn 0.0751449 -0.467725 0.880674
v -0.298456 1.16593 -0.106075
vn 0.715239 0.588836 -0.376438
v -0.165916 1.16861 -0.0337236
vn 0.889137 0.448753 -0.0897529
v -0.179797 1.18851 0.140304
vn 0.80619 0.474628 0.35325
v -0.430143 1.06775 0.221043
vn 0.289243 0.280538 0.915225
v -0.430682 0.909565 -0.0812894
vn 0.495238 -0.646104 -0.580766
v -0.321077 1.21549 0.187638
vn 0.530728 0.639179 0.556577
v -0.431894 1.08546 -0.0928674
vn 0.474904 0.595922 -0.647567
v -0.494733 1.01696 -0.00378315
vn 0.290028 0.934071 -0.208317
v -0.503059 1.06781 0.103694
vn -0.024681 0.547166 0.83666
v -0.26524 1.25734 0.0258717
vn 0.6721 0.736746 0.0740689
v -0.40906 1.22681 -0.0419792
vn 0.366776 0.914773 -0.16931
v -0.496843 1.12666 0.010393
vn 0.0248369 0.996343 0.0817545
v -0.465851 1.18675 0.131508
vn 0.147866 0.808634 0.569426
v -0.368197 1.27614 0.0906527
vn 0.413005 0.865296 0.28406
v -0.0228976 0.567505 0.101007
vn 0.731944 -0.66351 0.154959
v -0.141117 0.74881 0.0825351
vn 0.805096 -0.563505 0.185154
v -0.34762 1.11907 0.0704545
vn 0.740365 0.578515 0.342315
v -0.274804 0.959996 -0.0571939
vn 0.955175 -0.169679 -0.24259
v -0.36359 1.02024 -0.0222934
vn 0.976489 0.144913 -0.159588
v -0.231164 1.06008 0.167066
vn 0.834457 0.186472 0.518565
v -0.366975 0.977474 0.0904469
vn 0.818965 -0.138681 0.556834
v -0.223277 1.03881 0.0346207
vn 0.982793 0.137838 0.122957
v -0.104016 0.947026 0.0688141
vn 0.976786 -0.130674 0.169746
v -0.297015 0.859317 0.0759247
vn 0.785612 -0.544486 0.293852
v -0.193262 0.96603 0.168834
vn 0.871967 -0.0965666 0.479946
v -0.292271 1.07801 -0.0539823
vn 0.909633 0.341598 -0.236386
v -0.180131 0.892222 -0.0511955
vn 0.936936 -0.315695 -0.149958
g leftSphere
usemtl leftSphere

s 1
f 75//75 76//76 66//66
f 77//77 82//82 73//73
f 46//46 43//43 55//55
f 72//72 77//77 73//73
f 43//43 59//59 55//55
f 77//77 86//86 82//82
f 53//53 44//44 49//49
f 8//8 12//12 3//3
f 3//3 12//12 7//7
f 2//2 8//8 3//3
f 74//74 84//84 83//83
f 74//74 68//68 71//71
f 79//79 87//87 86//86
f 2//2 4//4 5//5
f 38//38 47//47 49//49
f 76//76 83//83 79//79
f 50//50 58//58 60//60
f 46//46 34//34 43//43
f 30//30 22//22 18//18
f 75//75 66//66 63//63
f 20//20 25//25 16//16
f 6//6 15//15 20//20
f 52//52 50//50 60//60
f 2//2 3//3 1//1
f 36//36 45//45 51//51
f 66//66 55//55 59//59
f 16//16 26//26 21//21
f 16//16 25//25 27//27
f 50//50 52//52 40//40
f 13//13 10//10 9//9
f 24//24 25//25 20//20
f 44//44 39//39 49//49
f 14//14 19//19 17//17
f 24//24 23//23 33//33
f 31//31 19//19 38//38
f 22//22 15//15 18//18
f 43//43 34//34 40//40
f 31//31 39//39 32//32
f 16//16 8//8 6//6
f 21//21 26//26 29//29
f 57//57 56//56 64//64
f 47//47 62//62 53//53
f 3//3 7//7 1//1
f 29//29 48//48 42//42
f 30//30 45//45 36//36
f 76//76 69//69 65//65
f 28//28 34//34 46//46
f 17//17 11//11 14//14
f 46//46 56//56 48//48
f 84//84 80//80 85//85
f 43//43 52//52 59//59
f 77//77 69//69 79//79
f 56//56 55//55 65//65
f 67//67 51//51 78//78
f 75//75 83//83 76//76
f 17//17 32//32 13//13
f 48//48 28//28 46//46
f 6//6 8//8 2//2
f 79//79 69//69 76//76
f 44//44 45//45 35//35
f 5//5 6//6 2//2
f 16//16 12//12 8//8
f 58//58 41//41 51//51
f 21//21 12//12 16//16
f 48//48 56//56 57//57
f 58//58 51//51 67//67
f 23//23 15//15 22//22
f 27//27 34//34 28//28
f 73//73 81//81 78//78
f 14//14 12//12 21//21
f 10//10 15//15 5//5
f 80//80 84//84 74//74
f 29//29 19//19 21//21
f 70//70 77//77 72//72
f 24//24 34//34 25//25
f 28//28 26//26 27//27
f 49//49 39//39 31//31
f 40//40 33//33 50//50
f 83//83 84//84 87//87
f 5//5 15//15 6//6
f 17//17 19//19 31//31
f 38//38 29//29 42//42
f 49//49 47//47 53//53
f 68//68 67//67 71//71
f 9//9 11//11 13//13
f 42//42 47//47 38//38
f 65//65 66//66 76//76
f 1//1 4//4 2//2
f 85//85 81//81 82//82
f 68//68 60//60 67//67
f 16//16 6//6 20//20
f 79//79 86//86 77//77
f 13//13 11//11 17//17
f 86//86 85//85 82//82
f 39//39 44//44 35//35
f 64//64 56//56 65//65
f 78//78 61//61 73//73
f 79//79 83//83 87//87
f 54//54 61//61 78//78
f 87//87 84//84 86//86
f 73//73 61//61 72//72
f 84//84 85//85 86//86
f 48//48 57//57 42//42
f 59//59 63//63 66//66
f 25//25 34//34 27//27
f 14//14 11//11 7//7
f 28//28 48//48 29//29
f 29//29 26//26 28//28
f 51//51 54//54 78//78
f 70//70 62//62 64//64
f 20//20 23//23 24//24
f 54//54 45//45 44//44
f 32//32 30//30 18//18
f 74//74 75//75 68//68
f 71//71 80//80 74//74
f 65//65 55//55 66//66
f 74//74 83//83 75//75
f 56//56 46//46 55//55
f 53//53 72//72 61//61
f 71//71 78//78 80//80
f 62//62 47//47 57//57
f 71//71 67//67 78//78
f 58//58 67//67 60//60
f 80//80 81//81 85//85
f 13//13 18//18 10//10
f 59//59 52//52 63//63
f 21//21 19//19 14//14
f 44//44 53//53 61//61
f 9//9 4//4 1//1
f 77//77 70//70 69//69
f 37//37 23//23 22//22
f 1//1 7//7 9//9
f 5//5 4//4 10//10
f 62//62 57//57 64//64
f 80//80 78//78 81//81
f 33//33 23//23 37//37
f 40//40 34//34 24//24
f 32//32 18//18 13//13
f 50//50 41//41 58//58
f 75//75 63//63 68//68
f 37//37 41//41 33//33
f 10//10 4//4 9//9
f 7//7 11//11 9//9
f 63//63 52//52 60//60
f 57//57 47//47 42//42
f 49//49 31//31 38//38
f 35//35 32//32 39//39
f 31//31 32//32 17//17
f 73//73 82//82 81//81
f 30//30 32//32 35//35
f 20//20 15//15 23//23
f 27//27 26//26 16//16
f 35//35 45//45 30//30
f 36//36 37//37 22//22
f 7//7 12//12 14//14
f 36//36 41//41 37//37
f 18//18 15//15 10//10
f 70//70 64//64 69//69
f 33//33 41//41 50//50
f 54//54 44//44 61//61
f 24//24 33//33 40//40
f 51//51 45//45 54//54
f 40//40 52//52 43//43
f 38//38 19//19 29//29
f 51//51 41//41 36//36
f 72//72 62//62 70//70
f 22//22 30//30 36//36
f 53//53 62//62 72//72
f 69//69 64//64 65//65
f 63//63 60//60 68//68

## Object rightSphere

v -0.5875 0.25 0
vn 0 0 0
v -0.3375 0.25 0
vn 1 0 0
v -0.363893 0.361804 0
vn 0.894427 0.447214 0
v -0.356335 0.298578 0.0818727
vn 0.924658 0.194311 0.327491
v -0.365269 0.304668 -0.100621
vn 0.888925 0.218673 -0.402486
v -0.403472 0.399769 -0.078758
vn 0.736112 0.599077 -0.315032
v -0.432693 0.446087 0.00919147
vn 0.61923 0.784348 0.0367659
v -0.363941 0.188416 0.0934285
vn 0.894236 -0.246334 0.373714
v -0.410629 0.387968 0.110368
vn 0.707486 0.551874 0.441473
v -0.367473 0.191604 -0.103335
vn 0.880107 -0.233582 -0.413341
v -0.358458 0.149801 -8.75488e-05
vn 0.916168 -0.400795 -0.000350195
v -0.421135 0.251713 -0.186601
vn 0.665458 0.00685229 -0.746404
v -0.444167 0.364414 -0.169897
vn 0.573332 0.457656 -0.67959
v -0.485119 0.455304 -0.0993403
vn 0.409525 0.821214 -0.397361
v -0.409409 0.274129 0.173785
vn 0.712366 0.096514 0.69514
v -0.527304 0.492563 -0.00629535
vn 0.240784 0.970252 -0.0251814
v -0.442748 0.137095 -0.169703
vn 0.579009 -0.45162 -0.678813
v -0.436004 0.146356 0.169726
vn 0.605982 -0.414577 0.678905
v -0.511892 0.464419 0.103961
vn 0.302433 0.857675 0.415846
v -0.414726 0.0800885 0.061474
vn 0.691098 -0.679646 0.245896
v -0.500173 0.374247 0.198587
vn 0.349309 0.496986 0.794347
v -0.413442 0.0814998 -0.0617362
vn 0.696233 -0.674001 -0.246945
v -0.596483 0.483348 -0.0892645
vn -0.035932 0.933391 -0.357058
v -0.502895 0.196054 -0.22898
vn 0.338418 -0.215782 -0.915921
v -0.54919 0.415044 -0.183828
vn 0.153241 0.660177 -0.735312
v -0.518203 0.302872 -0.234313
vn 0.277186 0.211488 -0.937252
v -0.506754 0.236186 0.236198
vn 0.322982 -0.0552575 0.944791
v -0.533178 0.122009 0.207768
vn 0.21729 -0.511964 0.83107
v -0.500781 0.048265 -0.119511
vn 0.346876 -0.80694 -0.478043
v -0.627208 0.494429 0.0343175
vn -0.158833 0.977716 0.13727
v -0.514707 0.0432995 0.120316
vn 0.291174 -0.826802 0.481264
v -0.556411 0.102098 -0.199144
vn 0.124357 -0.591609 -0.796576
v -0.652097 0.431072 -0.159813
vn -0.258388 0.724289 -0.639251
v -0.502034 0.0151782 -0.0073646
vn 0.341866 -0.939287 -0.0294584
v -0.606661 0.322435 0.238508
vn -0.0766425 0.289742 0.954031
v -0.709291 0.458556 -0.0645855
vn -0.487165 0.834224 -0.258342
v -0.620815 0.440442 0.158499
vn -0.133259 0.761769 0.633996
v -0.609796 0.20734 -0.245322
vn -0.0891821 -0.170641 -0.981289
v -0.615078 0.185665 0.240001
vn -0.11031 -0.257341 0.960004
v -0.604107 0.0208233 -0.0985003
vn -0.0664263 -0.916707 -0.394001
v -0.738032 0.440036 0.0610438
vn -0.602127 0.760145 0.244175
v -0.625648 0.0683658 0.167492
vn -0.152591 -0.726537 0.66997
v -0.639455 0.335107 -0.229254
vn -0.207822 0.340429 -0.917016
v -0.70028 0.256923 0.223008
vn -0.451122 0.0276906 0.892033
v -0.798255 0.376885 -0.044525
vn -0.843022 0.507538 -0.1781
v -0.728947 0.364011 0.171739
vn -0.565787 0.456045 0.686955
v -0.682286 0.105617 -0.180746
vn -0.379144 -0.577531 -0.722985
v -0.618059 0.00569375 0.0433655
vn -0.122236 -0.977225 0.173462
v -0.740168 0.370642 -0.156965
vn -0.610673 0.482569 -0.627859
v -0.725921 0.239512 -0.207917
vn -0.553685 -0.0419533 -0.831669
v -0.716083 0.147342 0.188223
vn -0.514331 -0.410633 0.752891
v -0.811335 0.338188 0.0679763
vn -0.89534 0.352752 0.271905
v -0.726307 0.0495782 -0.0553525
vn -0.555226 -0.801687 -0.22141
v -0.728081 0.0603012 0.082167
vn -0.562323 -0.758795 0.328668
v -0.781603 0.249774 0.157556
vn -0.776413 -0.000904782 0.630224
v -0.790415 0.161365 -0.116058
vn -0.811658 -0.354539 -0.464234
v -0.800165 0.278246 -0.128358
vn -0.85066 0.112984 -0.513432
v -0.788956 0.146983 0.106315
vn -0.805824 -0.412069 0.42526
v -0.835034 0.250792 -0.035022
vn -0.990134 0.00316965 -0.140088
v -0.805951 0.128435 0.00096488
vn -0.873805 -0.486261 0.00385952
v -0.827736 0.222041 0.063286
vn -0.960943 -0.111836 0.253144
g rightSphere
usemtl rightSphere

s 1
f 160//160 161//161 159//159
f 159//159 161//161 152//152
f 156//156 160//160 159//159
f 134//134 120//120 131//131
f 153//153 156//156 147//147
f 155//155 158//158 151//151
f 139//139 128//128 127//127
f 116//116 123//123 130//130
f 112//112 117//117 124//124
f 150//150 149//149 143//143
f 126//126 112//112 124//124
f 139//139 127//127 135//135
f 152//152 155//155 146//146
f 120//120 111//111 108//108
f 110//110 105//105 102//102
f 132//132 117//117 129//129
f 138//138 126//126 124//124
f 106//106 105//105 113//113
f 127//127 128//128 118//118
f 137//137 130//130 141//141
f 121//121 115//115 109//109
f 141//141 152//152 146//146
f 131//131 120//120 118//118
f 128//128 139//139 142//142
f 149//149 145//145 136//136
f 122//122 117//117 110//110
f 123//123 116//116 114//114
f 153//153 147//147 140//140
f 129//129 134//134 140//140
f 132//132 129//129 140//140
f 108//108 115//115 118//118
f 148//148 153//153 140//140
f 115//115 127//127 118//118
f 103//103 106//106 107//107
f 160//160 156//156 153//153
f 126//126 125//125 113//113
f 121//121 109//109 119//119
f 136//136 145//145 141//141
f 111//111 122//122 110//110
f 117//117 112//112 110//110
f 134//134 122//122 120//120
f 131//131 128//128 142//142
f 148//148 131//131 142//142
f 128//128 131//131 118//118
f 156//156 159//159 157//157
f 150//150 138//138 147//147
f 133//133 149//149 136//136
f 158//158 154//154 151//151
f 106//106 114//114 107//107
f 148//148 134//134 131//131
f 123//123 114//114 125//125
f 154//154 142//142 151//151
f 160//160 154//154 158//158
f 121//121 127//127 115//115
f 108//108 111//111 102//102
f 109//109 103//103 107//107
f 127//127 121//121 135//135
f 142//142 139//139 151//151
f 104//104 115//115 108//108
f 161//161 160//160 158//158
f 154//154 148//148 142//142
f 138//138 143//143 126//126
f 145//145 149//149 157//157
f 105//105 112//112 113//113
f 156//156 150//150 147//147
f 112//112 105//105 110//110
f 135//135 137//137 146//146
f 123//123 136//136 130//130
f 145//145 159//159 152//152
f 144//144 139//139 135//135
f 149//149 150//150 157//157
f 114//114 116//116 107//107
f 144//144 155//155 151//151
f 123//123 133//133 136//136
f 116//116 119//119 107//107
f 161//161 155//155 152//152
f 149//149 133//133 143//143
f 109//109 104//104 103//103
f 138//138 150//150 143//143
f 133//133 123//123 125//125
f 148//148 154//154 153//153
f 134//134 148//148 140//140
f 132//132 138//138 124//124
f 104//104 108//108 102//102
f 122//122 134//134 129//129
f 137//137 119//119 130//130
f 111//111 110//110 102//102
f 125//125 114//114 113//113
f 144//144 135//135 146//146
f 139//139 144//144 151//151
f 138//138 132//132 147//147
f 103//103 104//104 102//102
f 130//130 136//136 141//141
f 141//141 145//145 152//152
f 137//137 121//121 119//119
f 154//154 160//160 153//153
f 122//122 111//111 120//120
f 112//112 126//126 113//113
f 150//150 156//156 157//157
f 117//117 122//122 129//129
f 115//115 104//104 109//109
f 119//119 109//109 107//107
f 105//105 106//106 103//103
f 119//119 116//116 130//130
f 147//147 132//132 140//140
f 121//121 137//137 135//135
f 105//105 103//103 102//102
f 143//143 133//133 125//125
f 159//159 145//145 157//157
f 114//114 106//106 113//113
f 120//120 108//108 118//118
f 137//137 141//141 146//146
f 155//155 144//144 146//146
f 126//126 143//143 125//125
f 155//155 161//161 158//158
f 117//117 132//132 124//124


## Object floor
v   1.0000 0.0000 -1.0400
v  -0.9900 0.0000 -1.0400
v  -1.0100 0.0000  0.9900
v   1.0000 0.0000  0.9900
# 4 vertices

vn 0.0000 1.0000 -0.0000
# 1 vertex normals

g floor
usemtl floor

s 1
f 162//162 163//162 164//162 
f 164//162 165//162 162//162 
# 2 faces

## Object ceiling 
v   1.0000 1.5900 -1.0400
v   1.0000 1.5900  0.9900
v  -1.0200 1.5900  0.9900
v  -1.0200 1.5900 -1.0400
# 4 vertices

vn 0.0000 -1.0000 -0.0000
# 1 vertex normals

g ceiling
usemtl ceiling

s 1
f 166//163 167//163 168//163 
f 168//163 169//163 166//163 
# 2 faces

## Object backwall 
v   1.0000 1.5900 -1.0400
v  -1.0200 1.5900 -1.0400
v  -0.9900 0.0000 -1.0400
v   1.0000 0.0000 -1.0400
# 4 vertices

vn 0.0000 0.0000 1.0000
# 1 vertex normals

g backWall
usemtl backWall

s 1
f 170//164 171//164 172//164 
f 172//164 173//164 170//164 
# 2 faces

## Object rightwall 
v  1.0000 1.5900 0.9900
v  1.0000 1.5900 -1.0400
v  1.0000 0.0000 -1.0400
v  1.0000 0.0000 0.9900
# 4 vertices

vn -1.0000 0.0000 -0.0000
# 1 vertex normals

g rightWall
usemtl rightWall

s 1
f 174//165 175//165 176//165 
f 176//165 177//165 174//165 
# 2 faces

## Object leftWall 
v  -1.0200 1.5900 -1.0400
v  -1.0200 1.5900 0.9900
v  -1.0100 0.0000 0.9900
v  -0.9900 0.0000 -1.0400
# 4 vertices

vn 0.9999 0.0135 0.0057
vn 1.0000 0.0063 -0.0000
vn 0.9999 0.0116 0.0042
vn 0.9998 0.0189 0.0098
# 4 vertex normals

g leftWall
usemtl leftWall

s 1
f 178//166 179//167 180//168 
f 180//168 181//169 178//166 
# 2 faces

## Object light
v  0.2300 1.5800 -0.2200
v  0.2300 1.5800 0.1600
v  -0.2400 1.5800 0.1600
v  -0.2400 1.5800 -0.2200
# 4 vertices

vn 0.0000 -1.0000 -0.0000
# 1 vertex normals

g light
usemtl light

s 1
f 182//170 183//170 184//170 
f 184//170 185//170 182//170 
# 2 faces
