mtllib CornellBox-Sphere.mtl

## Object leftSphere

v 0.0772024 0.444257 0.0807256
vn 0.716743 -0.690095 0.100241
v 0.112657 0.516599 0.0256304
vn 0.784631 -0.619093 0.0328249
v 0.109497 0.50476 0.121374
vn 0.766993 -0.623212 0.152737
v 0.052159 0.452841 0.00183576
vn 0.710314 -0.703881 0.00236158
v 0.0591707 0.519145 -0.0479932
vn 0.756606 -0.650639 -0.0649389
v 0.105464 0.604893 -0.0148072
vn 0.837283 -0.546386 -0.0204765
v 0.0327162 0.456142 0.166275
vn 0.683635 -0.697934 0.21338
v 0.128843 0.583411 0.0871041
vn 0.828158 -0.54863 0.114712
v -0.0153628 0.412262 0.0641302
vn 0.633948 -0.768813 0.0838879
v -0.0357362 0.461489 -0.0446261
vn 0.651682 -0.755901 -0.0626411
v -0.0673045 0.434545 0.149276
vn 0.594775 -0.777264 0.205192
v 0.0770547 0.562168 0.194378
vn 0.769426 -0.58379 0.259177
v -0.123587 0.434274 0.0454377
vn 0.552714 -0.830696 0.0667194
v -0.0381384 0.509449 0.229983
vn 0.648743 -0.689041 0.323041
v -0.00359654 0.582109 -0.108339
vn 0.754567 -0.635223 -0.164682
v 0.107944 0.687974 0.115802
vn 0.877157 -0.450198 0.167082
v -0.158344 0.477818 0.173335
vn 0.527533 -0.806275 0.267637
v -0.138082 0.505796 -0.0760529
vn 0.586333 -0.800645 -0.123211
v -0.128141 0.574187 0.26586
vn 0.595239 -0.681604 0.425566
v 0.0705152 0.700238 -0.0491144
vn 0.882684 -0.463783 -0.0759884
v 0.00753242 0.627022 0.253718
vn 0.747443 -0.549285 0.37365
v -0.128003 0.615509 -0.144939
vn 0.67114 -0.693681 -0.261492
v -0.0252996 0.705325 -0.131787
vn 0.826922 -0.51332 -0.229572
v 0.021396 0.810338 -0.0613049
vn 0.934072 -0.339776 -0.109827
v 0.0768049 0.781673 0.0372181
vn 0.933547 -0.353357 0.0602368
v 0.0322623 0.733365 0.225199
vn 0.836254 -0.418919 0.353817
v 0.0619868 0.795119 0.138669
vn 0.915241 -0.333665 0.225833
v -0.00971618 0.83833 0.22219
vn 0.872336 -0.28765 0.395331
v -0.0813492 0.714985 0.294774
vn 0.714424 -0.486375 0.503029
v -0.24201 0.574672 -0.0910035
vn 0.510151 -0.841049 -0.179951
v -0.248755 0.546822 0.193277
vn 0.454301 -0.819434 0.349482
v -0.241222 0.497676 0.042816
vn 0.456655 -0.88643 0.0755555
v -0.068178 0.818626 -0.138734
vn 0.88401 -0.371301 -0.284011
v 0.0230243 0.889239 0.0768627
vn 0.968347 -0.205066 0.142307
v -0.323368 0.577256 -0.00760798
vn 0.38547 -0.922571 -0.0166032
v -0.235037 0.688602 -0.159185
vn 0.603885 -0.709716 -0.362803
v -0.126066 0.723793 -0.167717
vn 0.756626 -0.558883 -0.339362
v -0.226966 0.643709 0.279241
vn 0.516478 -0.673969 0.52822
v -0.325679 0.566044 0.0997276
vn 0.364554 -0.907526 0.208559
v -0.0321065 0.916775 -0.0532848
vn 0.978416 -0.174033 -0.111424
v -0.188238 0.805058 -0.180337
vn 0.761257 -0.476008 -0.440346
v -0.200357 0.754013 0.312091
vn 0.602067 -0.494257 0.627077
v -0.0488035 0.991099 0.0622084
vn 0.99044 -0.0195388 0.136556
v -0.410384 0.649865 0.0466005
vn 0.245918 -0.960818 0.127878
v -0.342708 0.66104 -0.0927591
vn 0.408532 -0.880374 -0.240921
v -0.0559983 0.945774 0.191201
vn 0.912734 -0.111472 0.393052
v -0.321116 0.72757 0.278991
vn 0.416966 -0.635013 0.650306
v -0.117981 0.846455 0.291078
vn 0.757639 -0.304518 0.577279
v -0.345279 0.631311 0.195988
vn 0.347463 -0.827978 0.440138
v -0.131318 0.916969 -0.141509
vn 0.913617 -0.205756 -0.350668
v -0.332696 0.797579 -0.166154
vn 0.53837 -0.651373 -0.534669
v -0.106874 1.01396 -0.0516843
vn 0.990854 0.035193 -0.130268
v -0.434099 0.732081 0.190591
vn 0.196525 -0.798963 0.568363
v -0.435243 0.740698 -0.0700535
vn 0.234378 -0.938499 -0.253547
v -0.127432 1.04677 0.164296
vn 0.909006 0.114114 0.400856
v -0.179686 0.972177 0.269433
vn 0.763585 -0.0663256 0.642292
v -0.259428 0.853823 0.313429
vn 0.571045 -0.346981 0.743984
v -0.237087 0.901108 -0.180127
vn 0.787897 -0.296361 -0.539804
v -0.122412 1.07174 0.0474211
vn 0.975031 0.185256 0.122454
v -0.209625 1.01 -0.138641
vn 0.901982 0.0310581 -0.430655
v -0.504549 0.775946 0.0433931
vn -0.0199268 -0.981562 0.190102
v -0.397508 0.838106 0.276702
vn 0.30452 -0.481015 0.822127
v -0.191245 1.10617 -0.0382625
vn 0.939226 0.322966 -0.116394
v -0.323505 0.964607 0.298189
vn 0.506718 -0.101615 0.856102
v -0.247665 1.08334 0.231092
vn 0.716517 0.236662 0.656197
v -0.201847 1.13771 0.101148
vn 0.867627 0.400733 0.294341
v -0.331467 0.950434 -0.178095
vn 0.67371 -0.198139 -0.711938
v -0.2922 1.09527 -0.123927
vn 0.799144 0.366376 -0.476589
v -0.397086 1.07572 0.260034
vn 0.35521 0.26135 0.897509
v -0.449386 0.948263 0.265529
vn 0.183907 -0.187987 0.9648
v -0.412561 1.0346 -0.157184
vn 0.477377 0.188891 -0.858156
v -0.508598 0.85576 0.186959
vn -0.0363896 -0.610436 0.791229
v -0.568123 0.893163 0.0629868
vn -0.481435 -0.755032 0.445137
v -0.401554 1.16623 -0.100978
vn 0.451601 0.762552 -0.463218
v -0.283281 1.18635 -0.00793288
vn 0.757936 0.651739 -0.0277438
v -0.32026 1.18269 0.163289
vn 0.59148 0.601179 0.537341
v -0.54835 1.01029 0.195484
vn -0.239786 0.0510084 0.969485
v -0.485367 0.888861 -0.112519
vn 0.0921307 -0.699743 -0.708429
v -0.46933 1.17794 0.190979
vn 0.116694 0.677041 0.726635
v -0.517096 1.0618 -0.114277
vn -0.130472 0.471606 -0.872104
v -0.575748 0.974729 -0.039186
vn -0.851589 -0.28411 -0.440542
v -0.606772 1.01077 0.06932
vn -0.83575 0.0843181 0.542597
v -0.405057 1.24749 0.042464
vn 0.353664 0.921901 0.15818
v -0.529256 1.19837 -0.0501122
vn -0.141549 0.959781 -0.242456
v -0.601543 1.07983 -0.0179958
vn -0.778617 0.612139 -0.137989
v -0.598212 1.13101 0.111767
vn -0.495402 0.660859 0.563775
v -0.516271 1.2398 0.0925098
vn -0.0631795 0.931119 0.359202
v -0.0340586 0.604398 0.0717557
vn 0.757102 -0.642808 0.116595
v -0.185028 0.764342 0.0665969
vn 0.789462 -0.590666 0.166922
v -0.46272 1.09298 0.0627646
vn 0.315364 0.786539 0.530944
v -0.345009 0.96424 -0.0655925
vn 0.900815 -0.20784 -0.381228
v -0.446625 1.00367 -0.0388301
vn 0.807399 0.0555777 -0.587382
v -0.346414 1.04522 0.17074
vn 0.656175 0.193184 0.729462
v -0.452643 0.949208 0.0689488
vn 0.483926 -0.519031 0.704572
v -0.320584 1.04155 0.0393166
vn 0.952746 0.220648 0.208782
v -0.189439 0.967956 0.0772571
vn 0.965595 -0.0996309 0.240208
v -0.35896 0.846213 0.0549563
vn 0.653616 -0.712687 0.254681
v -0.289631 0.959324 0.168115
vn 0.772435 -0.149353 0.617283
v -0.384903 1.07638 -0.0552426
vn 0.773652 0.513399 -0.371326
v -0.24181 0.913739 -0.05449
vn 0.930016 -0.310718 -0.196276
g leftSphere
usemtl leftSphere

s 1
f 75//75 76//76 66//66
f 77//77 82//82 73//73
f 46//46 43//43 55//55
f 72//72 77//77 73//73
f 43//43 59//59 55//55
f 77//77 86//86 82//82
f 53//53 44//44 49//49
f 8//8 12//12 3//3
f 3//3 12//12 7//7
f 2//2 8//8 3//3
f 74//74 84//84 83//83
f 74//74 68//68 71//71
f 79//79 87//87 86//86
f 2//2 4//4 5//5
f 38//38 47//47 49//49
f 76//76 83//83 79//79
f 50//50 58//58 60//60
f 46//46 34//34 43//43
f 30//30 22//22 18//18
f 75//75 66//66 63//63
f 20//20 25//25 16//16
f 6//6 15//15 20//20
f 52//52 50//50 60//60
f 2//2 3//3 1//1
f 36//36 45//45 51//51
f 66//66 55//55 59//59
f 16//16 26//26 21//21
f 16//16 25//25 27//27
f 50//50 52//52 40//40
f 13//13 10//10 9//9
f 24//24 25//25 20//20
f 44//44 39//39 49//49
f 14//14 19//19 17//17
f 24//24 23//23 33//33
f 31//31 19//19 38//38
f 22//22 15//15 18//18
f 43//43 34//34 40//40
f 31//31 39//39 32//32
f 16//16 8//8 6//6
f 21//21 26//26 29//29
f 57//57 56//56 64//64
f 47//47 62//62 53//53
f 3//3 7//7 1//1
f 29//29 48//48 42//42
f 30//30 45//45 36//36
f 76//76 69//69 65//65
f 28//28 34//34 46//46
f 17//17 11//11 14//14
f 46//46 56//56 48//48
f 84//84 80//80 85//85
f 43//43 52//52 59//59
f 77//77 69//69 79//79
f 56//56 55//55 65//65
f 67//67 51//51 78//78
f 75//75 83//83 76//76
f 17//17 32//32 13//13
f 48//48 28//28 46//46
f 6//6 8//8 2//2
f 79//79 69//69 76//76
f 44//44 45//45 35//35
f 5//5 6//6 2//2
f 16//16 12//12 8//8
f 58//58 41//41 51//51
f 21//21 12//12 16//16
f 48//48 56//56 57//57
f 58//58 51//51 67//67
f 23//23 15//15 22//22
f 27//27 34//34 28//28
f 73//73 81//81 78//78
f 14//14 12//12 21//21
f 10//10 15//15 5//5
f 80//80 84//84 74//74
f 29//29 19//19 21//21
f 70//70 77//77 72//72
f 24//24 34//34 25//25
f 28//28 26//26 27//27
f 49//49 39//39 31//31
f 40//40 33//33 50//50
f 83//83 84//84 87//87
f 5//5 15//15 6//6
f 17//17 19//19 31//31
f 38//38 29//29 42//42
f 49//49 47//47 53//53
f 68//68 67//67 71//71
f 9//9 11//11 13//13
f 42//42 47//47 38//38
f 65//65 66//66 76//76
f 1//1 4//4 2//2
f 85//85 81//81 82//82
f 68//68 60//60 67//67
f 16//16 6//6 20//20
f 79//79 86//86 77//77
f 13//13 11//11 17//17
f 86//86 85//85 82//82
f 39//39 44//44 35//35
f 64//64 56//56 65//65
f 78//78 61//61 73//73
f 79//79 83//83 87//87
f 54//54 61//61 78//78
f 87//87 84//84 86//86
f 73//73 61//61 72//72
f 84//84 85//85 86//86
f 48//48 57//57 42//42
f 59//59 63//63 66//66
f 25//25 34//34 27//27
f 14//14 11//11 7//7
f 28//28 48//48 29//29
f 29//29 26//26 28//28
f 51//51 54//54 78//78
f 70//70 62//62 64//64
f 20//20 23//23 24//24
f 54//54 45//45 44//44
f 32//32 30//30 18//18
f 74//74 75//75 68//68
f 71//71 80//80 74//74
f 65//65 55//55 66//66
f 74//74 83//83 75//75
f 56//56 46//46 55//55
f 53//53 72//72 61//61
f 71//71 78//78 80//80
f 62//62 47//47 57//57
f 71//71 67//67 78//78
f 58//58 67//67 60//60
f 80//80 81//81 85//85
f 13//13 18//18 10//10
f 59//59 52//52 63//63
f 21//21 19//19 14//14
f 44//44 53//53 61//61
f 9//9 4//4 1//1
f 77//77 70//70 69//69
f 37//37 23//23 22//22
f 1//1 7//7 9//9
f 5//5 4//4 10//10
f 62//62 57//57 64//64
f 80//80 78//78 81//81
f 33//33 23//23 37//37
f 40//40 34//34 24//24
f 32//32 18//18 13//13
f 50//50 41//41 58//58
f 75//75 63//63 68//68
f 37//37 41//41 33//33
f 10//10 4//4 9//9
f 7//7 11//11 9//9
f 63//63 52//52 60//60
f 57//57 47//47 42//42
f 49//49 31//31 38//38
f 35//35 32//32 39//39
f 31//31 32//32 17//17
f 73//73 82//82 81//81
f 30//30 32//32 35//35
f 20//20 15//15 23//23
f 27//27 26//26 16//16
f 35//35 45//45 30//30
f 36//36 37//37 22//22
f 7//7 12//12 14//14
f 36//36 41//41 37//37
f 18//18 15//15 10//10
f 70//70 64//64 69//69
f 33//33 41//41 50//50
f 54//54 44//44 61//61
f 24//24 33//33 40//40
f 51//51 45//45 54//54
f 40//40 52//52 43//43
f 38//38 19//19 29//29
f 51//51 41//41 36//36
f 72//72 62//62 70//70
f 22//22 30//30 36//36
f 53//53 62//62 72//72
f 69//69 64//64 65//65
f 63//63 60//60 68//68

## Object rightSphere

v -0.5875 0.25 0
vn 0 0 0
v -0.3375 0.25 0
vn 1 0 0
v -0.363893 0.361804 0
vn 0.894427 0.447214 0
v -0.356335 0.298578 0.0818727
vn 0.924658 0.194311 0.327491
v -0.365269 0.304668 -0.100621
vn 0.888925 0.218673 -0.402486
v -0.403472 0.399769 -0.078758
vn 0.736112 0.599077 -0.315032
v -0.432693 0.446087 0.00919147
vn 0.61923 0.784348 0.0367659
v -0.363941 0.188416 0.0934285
vn 0.894236 -0.246334 0.373714
v -0.410629 0.387968 0.110368
vn 0.707486 0.551874 0.441473
v -0.367473 0.191604 -0.103335
vn 0.880107 -0.233582 -0.413341
v -0.358458 0.149801 -8.75488e-05
vn 0.916168 -0.400795 -0.000350195
v -0.421135 0.251713 -0.186601
vn 0.665458 0.00685229 -0.746404
v -0.444167 0.364414 -0.169897
vn 0.573332 0.457656 -0.67959
v -0.485119 0.455304 -0.0993403
vn 0.409525 0.821214 -0.397361
v -0.409409 0.274129 0.173785
vn 0.712366 0.096514 0.69514
v -0.527304 0.492563 -0.00629535
vn 0.240784 0.970252 -0.0251814
v -0.442748 0.137095 -0.169703
vn 0.579009 -0.45162 -0.678813
v -0.436004 0.146356 0.169726
vn 0.605982 -0.414577 0.678905
v -0.511892 0.464419 0.103961
vn 0.302433 0.857675 0.415846
v -0.414726 0.0800885 0.061474
vn 0.691098 -0.679646 0.245896
v -0.500173 0.374247 0.198587
vn 0.349309 0.496986 0.794347
v -0.413442 0.0814998 -0.0617362
vn 0.696233 -0.674001 -0.246945
v -0.596483 0.483348 -0.0892645
vn -0.035932 0.933391 -0.357058
v -0.502895 0.196054 -0.22898
vn 0.338418 -0.215782 -0.915921
v -0.54919 0.415044 -0.183828
vn 0.153241 0.660177 -0.735312
v -0.518203 0.302872 -0.234313
vn 0.277186 0.211488 -0.937252
v -0.506754 0.236186 0.236198
vn 0.322982 -0.0552575 0.944791
v -0.533178 0.122009 0.207768
vn 0.21729 -0.511964 0.83107
v -0.500781 0.048265 -0.119511
vn 0.346876 -0.80694 -0.478043
v -0.627208 0.494429 0.0343175
vn -0.158833 0.977716 0.13727
v -0.514707 0.0432995 0.120316
vn 0.291174 -0.826802 0.481264
v -0.556411 0.102098 -0.199144
vn 0.124357 -0.591609 -0.796576
v -0.652097 0.431072 -0.159813
vn -0.258388 0.724289 -0.639251
v -0.502034 0.0151782 -0.0073646
vn 0.341866 -0.939287 -0.0294584
v -0.606661 0.322435 0.238508
vn -0.0766425 0.289742 0.954031
v -0.709291 0.458556 -0.0645855
vn -0.487165 0.834224 -0.258342
v -0.620815 0.440442 0.158499
vn -0.133259 0.761769 0.633996
v -0.609796 0.20734 -0.245322
vn -0.0891821 -0.170641 -0.981289
v -0.615078 0.185665 0.240001
vn -0.11031 -0.257341 0.960004
v -0.604107 0.0208233 -0.0985003
vn -0.0664263 -0.916707 -0.394001
v -0.738032 0.440036 0.0610438
vn -0.602127 0.760145 0.244175
v -0.625648 0.0683658 0.167492
vn -0.152591 -0.726537 0.66997
v -0.639455 0.335107 -0.229254
vn -0.207822 0.340429 -0.917016
v -0.70028 0.256923 0.223008
vn -0.451122 0.0276906 0.892033
v -0.798255 0.376885 -0.044525
vn -0.843022 0.507538 -0.1781
v -0.728947 0.364011 0.171739
vn -0.565787 0.456045 0.686955
v -0.682286 0.105617 -0.180746
vn -0.379144 -0.577531 -0.722985
v -0.618059 0.00569375 0.0433655
vn -0.122236 -0.977225 0.173462
v -0.740168 0.370642 -0.156965
vn -0.610673 0.482569 -0.627859
v -0.725921 0.239512 -0.207917
vn -0.553685 -0.0419533 -0.831669
v -0.716083 0.147342 0.188223
vn -0.514331 -0.410633 0.752891
v -0.811335 0.338188 0.0679763
vn -0.89534 0.352752 0.271905
v -0.726307 0.0495782 -0.0553525
vn -0.555226 -0.801687 -0.22141
v -0.728081 0.0603012 0.082167
vn -0.562323 -0.758795 0.328668
v -0.781603 0.249774 0.157556
vn -0.776413 -0.000904782 0.630224
v -0.790415 0.161365 -0.116058
vn -0.811658 -0.354539 -0.464234
v -0.800165 0.278246 -0.128358
vn -0.85066 0.112984 -0.513432
v -0.788956 0.146983 0.106315
vn -0.805824 -0.412069 0.42526
v -0.835034 0.250792 -0.035022
vn -0.990134 0.00316965 -0.140088
v -0.805951 0.128435 0.00096488
vn -0.873805 -0.486261 0.00385952
v -0.827736 0.222041 0.063286
vn -0.960943 -0.111836 0.253144
g rightSphere
usemtl rightSphere

s 1
f 160//160 161//161 159//159
f 159//159 161//161 152//152
f 156//156 160//160 159//159
f 134//134 120//120 131//131
f 153//153 156//156 147//147
f 155//155 158//158 151//151
f 139//139 128//128 127//127
f 116//116 123//123 130//130
f 112//112 117//117 124//124
f 150//150 149//149 143//143
f 126//126 112//112 124//124
f 139//139 127//127 135//135
f 152//152 155//155 146//146
f 120//120 111//111 108//108
f 110//110 105//105 102//102
f 132//132 117//117 129//129
f 138//138 126//126 124//124
f 106//106 105//105 113//113
f 127//127 128//128 118//118
f 137//137 130//130 141//141
f 121//121 115//115 109//109
f 141//141 152//152 146//146
f 131//131 120//120 118//118
f 128//128 139//139 142//142
f 149//149 145//145 136//136
f 122//122 117//117 110//110
f 123//123 116//116 114//114
f 153//153 147//147 140//140
f 129//129 134//134 140//140
f 132//132 129//129 140//140
f 108//108 115//115 118//118
f 148//148 153//153 140//140
f 115//115 127//127 118//118
f 103//103 106//106 107//107
f 160//160 156//156 153//153
f 126//126 125//125 113//113
f 121//121 109//109 119//119
f 136//136 145//145 141//141
f 111//111 122//122 110//110
f 117//117 112//112 110//110
f 134//134 122//122 120//120
f 131//131 128//128 142//142
f 148//148 131//131 142//142
f 128//128 131//131 118//118
f 156//156 159//159 157//157
f 150//150 138//138 147//147
f 133//133 149//149 136//136
f 158//158 154//154 151//151
f 106//106 114//114 107//107
f 148//148 134//134 131//131
f 123//123 114//114 125//125
f 154//154 142//142 151//151
f 160//160 154//154 158//158
f 121//121 127//127 115//115
f 108//108 111//111 102//102
f 109//109 103//103 107//107
f 127//127 121//121 135//135
f 142//142 139//139 151//151
f 104//104 115//115 108//108
f 161//161 160//160 158//158
f 154//154 148//148 142//142
f 138//138 143//143 126//126
f 145//145 149//149 157//157
f 105//105 112//112 113//113
f 156//156 150//150 147//147
f 112//112 105//105 110//110
f 135//135 137//137 146//146
f 123//123 136//136 130//130
f 145//145 159//159 152//152
f 144//144 139//139 135//135
f 149//149 150//150 157//157
f 114//114 116//116 107//107
f 144//144 155//155 151//151
f 123//123 133//133 136//136
f 116//116 119//119 107//107
f 161//161 155//155 152//152
f 149//149 133//133 143//143
f 109//109 104//104 103//103
f 138//138 150//150 143//143
f 133//133 123//123 125//125
f 148//148 154//154 153//153
f 134//134 148//148 140//140
f 132//132 138//138 124//124
f 104//104 108//108 102//102
f 122//122 134//134 129//129
f 137//137 119//119 130//130
f 111//111 110//110 102//102
f 125//125 114//114 113//113
f 144//144 135//135 146//146
f 139//139 144//144 151//151
f 138//138 132//132 147//147
f 103//103 104//104 102//102
f 130//130 136//136 141//141
f 141//141 145//145 152//152
f 137//137 121//121 119//119
f 154//154 160//160 153//153
f 122//122 111//111 120//120
f 112//112 126//126 113//113
f 150//150 156//156 157//157
f 117//117 122//122 129//129
f 115//115 104//104 109//109
f 119//119 109//109 107//107
f 105//105 106//106 103//103
f 119//119 116//116 130//130
f 147//147 132//132 140//140
f 121//121 137//137 135//135
f 105//105 103//103 102//102
f 143//143 133//133 125//125
f 159//159 145//145 157//157
f 114//114 106//106 113//113
f 120//120 108//108 118//118
f 137//137 141//141 146//146
f 155//155 144//144 146//146
f 126//126 143//143 125//125
f 155//155 161//161 158//158
f 117//117 132//132 124//124


## Object floor
v   1.0000 0.0000 -1.0400
v  -0.9900 0.0000 -1.0400
v  -1.0100 0.0000  0.9900
v   1.0000 0.0000  0.9900
# 4 vertices

vn 0.0000 1.0000 -0.0000
# 1 vertex normals

g floor
usemtl floor

s 1
f 162//162 163//162 164//162 
f 164//162 165//162 162//162 
# 2 faces

## Object ceiling 
v   1.0000 1.5900 -1.0400
v   1.0000 1.5900  0.9900
v  -1.0200 1.5900  0.9900
v  -1.0200 1.5900 -1.0400
# 4 vertices

vn 0.0000 -1.0000 -0.0000
# 1 vertex normals

g ceiling
usemtl ceiling

s 1
f 166//163 167//163 168//163 
f 168//163 169//163 166//163 
# 2 faces

## Object backwall 
v   1.0000 1.5900 -1.0400
v  -1.0200 1.5900 -1.0400
v  -0.9900 0.0000 -1.0400
v   1.0000 0.0000 -1.0400
# 4 vertices

vn 0.0000 0.0000 1.0000
# 1 vertex normals

g backWall
usemtl backWall

s 1
f 170//164 171//164 172//164 
f 172//164 173//164 170//164 
# 2 faces

## Object rightwall 
v  1.0000 1.5900 0.9900
v  1.0000 1.5900 -1.0400
v  1.0000 0.0000 -1.0400
v  1.0000 0.0000 0.9900
# 4 vertices

vn -1.0000 0.0000 -0.0000
# 1 vertex normals

g rightWall
usemtl rightWall

s 1
f 174//165 175//165 176//165 
f 176//165 177//165 174//165 
# 2 faces

## Object leftWall 
v  -1.0200 1.5900 -1.0400
v  -1.0200 1.5900 0.9900
v  -1.0100 0.0000 0.9900
v  -0.9900 0.0000 -1.0400
# 4 vertices

vn 0.9999 0.0135 0.0057
vn 1.0000 0.0063 -0.0000
vn 0.9999 0.0116 0.0042
vn 0.9998 0.0189 0.0098
# 4 vertex normals

g leftWall
usemtl leftWall

s 1
f 178//166 179//167 180//168 
f 180//168 181//169 178//166 
# 2 faces

## Object light
v  0.2300 1.5800 -0.2200
v  0.2300 1.5800 0.1600
v  -0.2400 1.5800 0.1600
v  -0.2400 1.5800 -0.2200
# 4 vertices

vn 0.0000 -1.0000 -0.0000
# 1 vertex normals

g light
usemtl light

s 1
f 182//170 183//170 184//170 
f 184//170 185//170 182//170 
# 2 faces
