mtllib CornellBox-Sphere.mtl

## Object leftSphere

v 0.0633504 0.524876 0.0130273
vn 0.764308 -0.644609 0.0176744
v 0.0674072 0.618481 -0.0125741
vn 0.829711 -0.55789 -0.018387
v 0.0638892 0.577284 0.0736041
vn 0.795808 -0.596572 0.103876
v 0.0423821 0.547216 -0.0635342
vn 0.76458 -0.638276 -0.0895622
v 0.0243214 0.622647 -0.0911914
vn 0.803682 -0.578409 -0.139779
v 0.0261831 0.704702 -0.0284671
vn 0.871088 -0.488861 -0.0471268
v 0.0137522 0.491034 0.0890483
vn 0.705083 -0.698514 0.122211
v 0.0490391 0.663866 0.0660581
vn 0.848405 -0.519412 0.102077
v -0.00428981 0.466192 -0.028361
vn 0.679959 -0.732217 -0.0389025
v -0.0356618 0.534464 -0.121682
vn 0.694405 -0.696196 -0.181972
v -0.0646305 0.437972 0.0488029
vn 0.610956 -0.788697 0.0684854
v 0.00581795 0.591518 0.152135
vn 0.757526 -0.611754 0.227842
v -0.107443 0.44684 -0.0601364
vn 0.576478 -0.812327 -0.0883116
v -0.0766307 0.488465 0.150665
vn 0.621789 -0.751275 0.221277
v -0.0522479 0.67047 -0.144247
vn 0.779579 -0.573743 -0.251148
v -0.0177448 0.737775 0.116442
vn 0.859403 -0.467298 0.207506
v -0.165272 0.429163 0.0657913
vn 0.503349 -0.858401 0.0989341
v -0.141377 0.538593 -0.16
vn 0.591891 -0.761532 -0.264072
v -0.189062 0.493116 0.183595
vn 0.499619 -0.814466 0.295002
v -0.0429651 0.783918 -0.0443506
vn 0.900591 -0.425792 -0.0873933
v -0.0892661 0.599592 0.212203
vn 0.671569 -0.654686 0.346961
v -0.172312 0.656516 -0.196485
vn 0.637802 -0.668547 -0.382432
v -0.121848 0.773842 -0.142286
vn 0.8167 -0.488437 -0.307297
v -0.133389 0.862276 -0.0412931
vn 0.930963 -0.349732 -0.104859
v -0.0804245 0.829966 0.0580383
vn 0.919265 -0.372534 0.127158
v -0.112567 0.709865 0.216621
vn 0.730606 -0.547125 0.408496
v -0.107384 0.80328 0.154958
vn 0.843101 -0.422437 0.332757
v -0.195671 0.782519 0.230455
vn 0.692689 -0.495013 0.524542
v -0.211068 0.623138 0.255589
vn 0.535765 -0.698813 0.473937
v -0.260574 0.555425 -0.178664
vn 0.447004 -0.830014 -0.333563
v -0.278489 0.440365 0.0828088
vn 0.364598 -0.921135 0.1363
v -0.237794 0.449639 -0.0695232
vn 0.427337 -0.896964 -0.113307
v -0.207883 0.852641 -0.132339
vn 0.827687 -0.417529 -0.374972
v -0.178514 0.88699 0.109691
vn 0.898031 -0.31568 0.306408
v -0.34015 0.496434 -0.115871
vn 0.295534 -0.931003 -0.214225
v -0.296411 0.674678 -0.215439
vn 0.462587 -0.739183 -0.489512
v -0.21467 0.755092 -0.193254
vn 0.674896 -0.579284 -0.457106
v -0.308414 0.506818 0.191315
vn 0.340527 -0.87659 0.340047
v -0.346605 0.452735 -0.0173263
vn 0.269766 -0.962444 -0.0304708
v -0.227679 0.926456 -0.0209571
vn 0.96276 -0.260008 -0.0740912
v -0.302131 0.80039 -0.200385
vn 0.573231 -0.578276 -0.58052
v -0.335843 0.603067 0.255089
vn 0.328594 -0.794543 0.510614
v -0.284264 0.947734 0.103039
vn 0.881542 -0.213569 0.421037
v -0.452956 0.50579 -0.0653861
vn 0.0939512 -0.986976 -0.130581
v -0.386354 0.585443 -0.181131
vn 0.243637 -0.888737 -0.388313
v -0.280743 0.865555 0.216311
vn 0.652424 -0.400059 0.643658
v -0.427578 0.539994 0.193098
vn 0.14366 -0.912492 0.38304
v -0.30119 0.722666 0.275468
vn 0.45334 -0.632395 0.62814
v -0.401217 0.47303 0.0847011
vn 0.181989 -0.97084 0.156045
v -0.304941 0.910076 -0.127452
vn 0.780996 -0.360046 -0.510307
v -0.427007 0.728672 -0.217105
vn 0.205569 -0.764132 -0.611428
v -0.334789 0.977954 -0.0152226
vn 0.987105 -0.131724 -0.0909523
v -0.519967 0.527688 0.0869976
vn -0.0415391 -0.982607 0.180992
v -0.50406 0.608766 -0.1604
vn -0.00960094 -0.925215 -0.379323
v -0.386675 0.933958 0.195407
vn 0.481524 -0.280618 0.830294
v -0.407897 0.815896 0.272215
vn 0.269869 -0.539437 0.797608
v -0.432284 0.665714 0.268065
vn 0.156095 -0.770581 0.617932
v -0.387514 0.861561 -0.189289
vn 0.432481 -0.532266 -0.727773
v -0.383366 0.992131 0.0881678
vn 0.796569 -0.0537419 0.602154
v -0.415937 0.955068 -0.122005
vn 0.542954 -0.290212 -0.788022
v -0.590502 0.57536 -0.0573123
vn -0.206651 -0.969623 -0.130867
v -0.542742 0.608438 0.201984
vn -0.0965575 -0.884572 0.456298
v -0.452169 1.01746 -0.00311444
vn 0.937597 0.342321 -0.0610499
v -0.535076 0.743447 0.266336
vn -0.0944259 -0.690656 0.716992
v -0.514504 0.899283 0.241714
vn -0.0553047 -0.384036 0.92166
v -0.486962 1.00234 0.135006
vn 0.0961131 0.0172637 0.995221
v -0.492656 0.863418 -0.195843
vn 0.0307422 -0.571763 -0.819843
v -0.529166 0.988955 -0.106954
vn -0.26179 -0.0991387 -0.96002
v -0.645126 0.823041 0.236947
vn -0.440545 -0.537178 0.719277
v -0.634944 0.685377 0.20578
vn -0.337842 -0.787684 0.515186
v -0.604274 0.894114 -0.173419
vn -0.456573 -0.463634 -0.759332
v -0.642301 0.601014 0.0985522
vn -0.327192 -0.917386 0.226601
v -0.698174 0.643033 -0.0240419
vn -0.484539 -0.872792 -0.058783
v -0.661298 0.995008 -0.0928629
vn -0.866324 -0.0268094 -0.498763
v -0.57294 1.04018 0.022194
vn -0.846358 0.466216 0.257529
v -0.616287 0.976976 0.179701
vn -0.540168 -0.106949 0.834734
v -0.742548 0.719111 0.134355
vn -0.61453 -0.711672 0.340406
v -0.605778 0.727702 -0.175462
vn -0.310412 -0.799075 -0.514902
v -0.7479 0.902413 0.17708
vn -0.774934 -0.305056 0.553551
v -0.711181 0.857687 -0.146144
vn -0.71925 -0.484696 -0.497744
v -0.728881 0.738373 -0.102857
vn -0.631376 -0.721706 -0.283734
v -0.782256 0.727759 0.00248295
vn -0.719745 -0.694209 0.00633148
v -0.712231 1.02857 0.05885
vn -0.955629 0.128667 0.264988
v -0.791731 0.952974 -0.0625993
vn -0.965822 -0.155686 -0.207245
v -0.801171 0.811368 -0.0662749
vn -0.833127 -0.521812 -0.183336
v -0.832662 0.825431 0.0684487
vn -0.871142 -0.457146 0.179247
v -0.810215 0.960343 0.084374
vn -0.957686 -0.122429 0.260476
v -0.105735 0.622736 0.0274578
vn 0.7216 -0.690484 0.0502543
v -0.30823 0.693647 0.0289792
vn 0.528897 -0.844914 0.0799238
v -0.691818 0.86406 0.0400615
vn -0.804294 -0.569995 0.167978
v -0.520273 0.837669 -0.0872058
vn -0.109359 -0.875647 -0.470407
v -0.628982 0.81976 -0.0718082
vn -0.553619 -0.773633 -0.308217
v -0.578617 0.842018 0.156377
vn -0.333433 -0.670036 0.66323
v -0.621021 0.738924 0.0185413
vn -0.419688 -0.905388 0.0642995
v -0.542782 0.884887 0.0341256
vn -0.335655 -0.903135 0.267738
v -0.399161 0.86597 0.0826461
vn 0.539294 -0.716801 0.441995
v -0.494019 0.694288 6.99706e-05
vn 0.0195589 -0.999809 0.000228834
v -0.49066 0.791045 0.148664
vn 0.0363969 -0.814279 0.579332
v -0.607336 0.91377 -0.0622264
vn -0.710403 -0.570712 -0.411844
v -0.408844 0.834723 -0.0667551
vn 0.455313 -0.825538 -0.333433
g leftSphere
usemtl leftSphere

s 1
f 75//75 76//76 66//66
f 77//77 82//82 73//73
f 46//46 43//43 55//55
f 72//72 77//77 73//73
f 43//43 59//59 55//55
f 77//77 86//86 82//82
f 53//53 44//44 49//49
f 8//8 12//12 3//3
f 3//3 12//12 7//7
f 2//2 8//8 3//3
f 74//74 84//84 83//83
f 74//74 68//68 71//71
f 79//79 87//87 86//86
f 2//2 4//4 5//5
f 38//38 47//47 49//49
f 76//76 83//83 79//79
f 50//50 58//58 60//60
f 46//46 34//34 43//43
f 30//30 22//22 18//18
f 75//75 66//66 63//63
f 20//20 25//25 16//16
f 6//6 15//15 20//20
f 52//52 50//50 60//60
f 2//2 3//3 1//1
f 36//36 45//45 51//51
f 66//66 55//55 59//59
f 16//16 26//26 21//21
f 16//16 25//25 27//27
f 50//50 52//52 40//40
f 13//13 10//10 9//9
f 24//24 25//25 20//20
f 44//44 39//39 49//49
f 14//14 19//19 17//17
f 24//24 23//23 33//33
f 31//31 19//19 38//38
f 22//22 15//15 18//18
f 43//43 34//34 40//40
f 31//31 39//39 32//32
f 16//16 8//8 6//6
f 21//21 26//26 29//29
f 57//57 56//56 64//64
f 47//47 62//62 53//53
f 3//3 7//7 1//1
f 29//29 48//48 42//42
f 30//30 45//45 36//36
f 76//76 69//69 65//65
f 28//28 34//34 46//46
f 17//17 11//11 14//14
f 46//46 56//56 48//48
f 84//84 80//80 85//85
f 43//43 52//52 59//59
f 77//77 69//69 79//79
f 56//56 55//55 65//65
f 67//67 51//51 78//78
f 75//75 83//83 76//76
f 17//17 32//32 13//13
f 48//48 28//28 46//46
f 6//6 8//8 2//2
f 79//79 69//69 76//76
f 44//44 45//45 35//35
f 5//5 6//6 2//2
f 16//16 12//12 8//8
f 58//58 41//41 51//51
f 21//21 12//12 16//16
f 48//48 56//56 57//57
f 58//58 51//51 67//67
f 23//23 15//15 22//22
f 27//27 34//34 28//28
f 73//73 81//81 78//78
f 14//14 12//12 21//21
f 10//10 15//15 5//5
f 80//80 84//84 74//74
f 29//29 19//19 21//21
f 70//70 77//77 72//72
f 24//24 34//34 25//25
f 28//28 26//26 27//27
f 49//49 39//39 31//31
f 40//40 33//33 50//50
f 83//83 84//84 87//87
f 5//5 15//15 6//6
f 17//17 19//19 31//31
f 38//38 29//29 42//42
f 49//49 47//47 53//53
f 68//68 67//67 71//71
f 9//9 11//11 13//13
f 42//42 47//47 38//38
f 65//65 66//66 76//76
f 1//1 4//4 2//2
f 85//85 81//81 82//82
f 68//68 60//60 67//67
f 16//16 6//6 20//20
f 79//79 86//86 77//77
f 13//13 11//11 17//17
f 86//86 85//85 82//82
f 39//39 44//44 35//35
f 64//64 56//56 65//65
f 78//78 61//61 73//73
f 79//79 83//83 87//87
f 54//54 61//61 78//78
f 87//87 84//84 86//86
f 73//73 61//61 72//72
f 84//84 85//85 86//86
f 48//48 57//57 42//42
f 59//59 63//63 66//66
f 25//25 34//34 27//27
f 14//14 11//11 7//7
f 28//28 48//48 29//29
f 29//29 26//26 28//28
f 51//51 54//54 78//78
f 70//70 62//62 64//64
f 20//20 23//23 24//24
f 54//54 45//45 44//44
f 32//32 30//30 18//18
f 74//74 75//75 68//68
f 71//71 80//80 74//74
f 65//65 55//55 66//66
f 74//74 83//83 75//75
f 56//56 46//46 55//55
f 53//53 72//72 61//61
f 71//71 78//78 80//80
f 62//62 47//47 57//57
f 71//71 67//67 78//78
f 58//58 67//67 60//60
f 80//80 81//81 85//85
f 13//13 18//18 10//10
f 59//59 52//52 63//63
f 21//21 19//19 14//14
f 44//44 53//53 61//61
f 9//9 4//4 1//1
f 77//77 70//70 69//69
f 37//37 23//23 22//22
f 1//1 7//7 9//9
f 5//5 4//4 10//10
f 62//62 57//57 64//64
f 80//80 78//78 81//81
f 33//33 23//23 37//37
f 40//40 34//34 24//24
f 32//32 18//18 13//13
f 50//50 41//41 58//58
f 75//75 63//63 68//68
f 37//37 41//41 33//33
f 10//10 4//4 9//9
f 7//7 11//11 9//9
f 63//63 52//52 60//60
f 57//57 47//47 42//42
f 49//49 31//31 38//38
f 35//35 32//32 39//39
f 31//31 32//32 17//17
f 73//73 82//82 81//81
f 30//30 32//32 35//35
f 20//20 15//15 23//23
f 27//27 26//26 16//16
f 35//35 45//45 30//30
f 36//36 37//37 22//22
f 7//7 12//12 14//14
f 36//36 41//41 37//37
f 18//18 15//15 10//10
f 70//70 64//64 69//69
f 33//33 41//41 50//50
f 54//54 44//44 61//61
f 24//24 33//33 40//40
f 51//51 45//45 54//54
f 40//40 52//52 43//43
f 38//38 19//19 29//29
f 51//51 41//41 36//36
f 72//72 62//62 70//70
f 22//22 30//30 36//36
f 53//53 62//62 72//72
f 69//69 64//64 65//65
f 63//63 60//60 68//68

## Object rightSphere

v -0.5875 0.25 0
vn 0 0 0
v -0.3375 0.25 0
vn 1 0 0
v -0.363893 0.361804 0
vn 0.894427 0.447214 0
v -0.356335 0.298578 0.0818727
vn 0.924658 0.194311 0.327491
v -0.365269 0.304668 -0.100621
vn 0.888925 0.218673 -0.402486
v -0.403472 0.399769 -0.078758
vn 0.736112 0.599077 -0.315032
v -0.432693 0.446087 0.00919147
vn 0.61923 0.784348 0.0367659
v -0.363941 0.188416 0.0934285
vn 0.894236 -0.246334 0.373714
v -0.410629 0.387968 0.110368
vn 0.707486 0.551874 0.441473
v -0.367473 0.191604 -0.103335
vn 0.880107 -0.233582 -0.413341
v -0.358458 0.149801 -8.75488e-05
vn 0.916168 -0.400795 -0.000350195
v -0.421135 0.251713 -0.186601
vn 0.665458 0.00685229 -0.746404
v -0.444167 0.364414 -0.169897
vn 0.573332 0.457656 -0.67959
v -0.485119 0.455304 -0.0993403
vn 0.409525 0.821214 -0.397361
v -0.409409 0.274129 0.173785
vn 0.712366 0.096514 0.69514
v -0.527304 0.492563 -0.00629535
vn 0.240784 0.970252 -0.0251814
v -0.442748 0.137095 -0.169703
vn 0.579009 -0.45162 -0.678813
v -0.436004 0.146356 0.169726
vn 0.605982 -0.414577 0.678905
v -0.511892 0.464419 0.103961
vn 0.302433 0.857675 0.415846
v -0.414726 0.0800885 0.061474
vn 0.691098 -0.679646 0.245896
v -0.500173 0.374247 0.198587
vn 0.349309 0.496986 0.794347
v -0.413442 0.0814998 -0.0617362
vn 0.696233 -0.674001 -0.246945
v -0.596483 0.483348 -0.0892645
vn -0.035932 0.933391 -0.357058
v -0.502895 0.196054 -0.22898
vn 0.338418 -0.215782 -0.915921
v -0.54919 0.415044 -0.183828
vn 0.153241 0.660177 -0.735312
v -0.518203 0.302872 -0.234313
vn 0.277186 0.211488 -0.937252
v -0.506754 0.236186 0.236198
vn 0.322982 -0.0552575 0.944791
v -0.533178 0.122009 0.207768
vn 0.21729 -0.511964 0.83107
v -0.500781 0.048265 -0.119511
vn 0.346876 -0.80694 -0.478043
v -0.627208 0.494429 0.0343175
vn -0.158833 0.977716 0.13727
v -0.514707 0.0432995 0.120316
vn 0.291174 -0.826802 0.481264
v -0.556411 0.102098 -0.199144
vn 0.124357 -0.591609 -0.796576
v -0.652097 0.431072 -0.159813
vn -0.258388 0.724289 -0.639251
v -0.502034 0.0151782 -0.0073646
vn 0.341866 -0.939287 -0.0294584
v -0.606661 0.322435 0.238508
vn -0.0766425 0.289742 0.954031
v -0.709291 0.458556 -0.0645855
vn -0.487165 0.834224 -0.258342
v -0.620815 0.440442 0.158499
vn -0.133259 0.761769 0.633996
v -0.609796 0.20734 -0.245322
vn -0.0891821 -0.170641 -0.981289
v -0.615078 0.185665 0.240001
vn -0.11031 -0.257341 0.960004
v -0.604107 0.0208233 -0.0985003
vn -0.0664263 -0.916707 -0.394001
v -0.738032 0.440036 0.0610438
vn -0.602127 0.760145 0.244175
v -0.625648 0.0683658 0.167492
vn -0.152591 -0.726537 0.66997
v -0.639455 0.335107 -0.229254
vn -0.207822 0.340429 -0.917016
v -0.70028 0.256923 0.223008
vn -0.451122 0.0276906 0.892033
v -0.798255 0.376885 -0.044525
vn -0.843022 0.507538 -0.1781
v -0.728947 0.364011 0.171739
vn -0.565787 0.456045 0.686955
v -0.682286 0.105617 -0.180746
vn -0.379144 -0.577531 -0.722985
v -0.618059 0.00569375 0.0433655
vn -0.122236 -0.977225 0.173462
v -0.740168 0.370642 -0.156965
vn -0.610673 0.482569 -0.627859
v -0.725921 0.239512 -0.207917
vn -0.553685 -0.0419533 -0.831669
v -0.716083 0.147342 0.188223
vn -0.514331 -0.410633 0.752891
v -0.811335 0.338188 0.0679763
vn -0.89534 0.352752 0.271905
v -0.726307 0.0495782 -0.0553525
vn -0.555226 -0.801687 -0.22141
v -0.728081 0.0603012 0.082167
vn -0.562323 -0.758795 0.328668
v -0.781603 0.249774 0.157556
vn -0.776413 -0.000904782 0.630224
v -0.790415 0.161365 -0.116058
vn -0.811658 -0.354539 -0.464234
v -0.800165 0.278246 -0.128358
vn -0.85066 0.112984 -0.513432
v -0.788956 0.146983 0.106315
vn -0.805824 -0.412069 0.42526
v -0.835034 0.250792 -0.035022
vn -0.990134 0.00316965 -0.140088
v -0.805951 0.128435 0.00096488
vn -0.873805 -0.486261 0.00385952
v -0.827736 0.222041 0.063286
vn -0.960943 -0.111836 0.253144
g rightSphere
usemtl rightSphere

s 1
f 160//160 161//161 159//159
f 159//159 161//161 152//152
f 156//156 160//160 159//159
f 134//134 120//120 131//131
f 153//153 156//156 147//147
f 155//155 158//158 151//151
f 139//139 128//128 127//127
f 116//116 123//123 130//130
f 112//112 117//117 124//124
f 150//150 149//149 143//143
f 126//126 112//112 124//124
f 139//139 127//127 135//135
f 152//152 155//155 146//146
f 120//120 111//111 108//108
f 110//110 105//105 102//102
f 132//132 117//117 129//129
f 138//138 126//126 124//124
f 106//106 105//105 113//113
f 127//127 128//128 118//118
f 137//137 130//130 141//141
f 121//121 115//115 109//109
f 141//141 152//152 146//146
f 131//131 120//120 118//118
f 128//128 139//139 142//142
f 149//149 145//145 136//136
f 122//122 117//117 110//110
f 123//123 116//116 114//114
f 153//153 147//147 140//140
f 129//129 134//134 140//140
f 132//132 129//129 140//140
f 108//108 115//115 118//118
f 148//148 153//153 140//140
f 115//115 127//127 118//118
f 103//103 106//106 107//107
f 160//160 156//156 153//153
f 126//126 125//125 113//113
f 121//121 109//109 119//119
f 136//136 145//145 141//141
f 111//111 122//122 110//110
f 117//117 112//112 110//110
f 134//134 122//122 120//120
f 131//131 128//128 142//142
f 148//148 131//131 142//142
f 128//128 131//131 118//118
f 156//156 159//159 157//157
f 150//150 138//138 147//147
f 133//133 149//149 136//136
f 158//158 154//154 151//151
f 106//106 114//114 107//107
f 148//148 134//134 131//131
f 123//123 114//114 125//125
f 154//154 142//142 151//151
f 160//160 154//154 158//158
f 121//121 127//127 115//115
f 108//108 111//111 102//102
f 109//109 103//103 107//107
f 127//127 121//121 135//135
f 142//142 139//139 151//151
f 104//104 115//115 108//108
f 161//161 160//160 158//158
f 154//154 148//148 142//142
f 138//138 143//143 126//126
f 145//145 149//149 157//157
f 105//105 112//112 113//113
f 156//156 150//150 147//147
f 112//112 105//105 110//110
f 135//135 137//137 146//146
f 123//123 136//136 130//130
f 145//145 159//159 152//152
f 144//144 139//139 135//135
f 149//149 150//150 157//157
f 114//114 116//116 107//107
f 144//144 155//155 151//151
f 123//123 133//133 136//136
f 116//116 119//119 107//107
f 161//161 155//155 152//152
f 149//149 133//133 143//143
f 109//109 104//104 103//103
f 138//138 150//150 143//143
f 133//133 123//123 125//125
f 148//148 154//154 153//153
f 134//134 148//148 140//140
f 132//132 138//138 124//124
f 104//104 108//108 102//102
f 122//122 134//134 129//129
f 137//137 119//119 130//130
f 111//111 110//110 102//102
f 125//125 114//114 113//113
f 144//144 135//135 146//146
f 139//139 144//144 151//151
f 138//138 132//132 147//147
f 103//103 104//104 102//102
f 130//130 136//136 141//141
f 141//141 145//145 152//152
f 137//137 121//121 119//119
f 154//154 160//160 153//153
f 122//122 111//111 120//120
f 112//112 126//126 113//113
f 150//150 156//156 157//157
f 117//117 122//122 129//129
f 115//115 104//104 109//109
f 119//119 109//109 107//107
f 105//105 106//106 103//103
f 119//119 116//116 130//130
f 147//147 132//132 140//140
f 121//121 137//137 135//135
f 105//105 103//103 102//102
f 143//143 133//133 125//125
f 159//159 145//145 157//157
f 114//114 106//106 113//113
f 120//120 108//108 118//118
f 137//137 141//141 146//146
f 155//155 144//144 146//146
f 126//126 143//143 125//125
f 155//155 161//161 158//158
f 117//117 132//132 124//124


## Object floor
v   1.0000 0.0000 -1.0400
v  -0.9900 0.0000 -1.0400
v  -1.0100 0.0000  0.9900
v   1.0000 0.0000  0.9900
# 4 vertices

vn 0.0000 1.0000 -0.0000
# 1 vertex normals

g floor
usemtl floor

s 1
f 162//162 163//162 164//162 
f 164//162 165//162 162//162 
# 2 faces

## Object ceiling 
v   1.0000 1.5900 -1.0400
v   1.0000 1.5900  0.9900
v  -1.0200 1.5900  0.9900
v  -1.0200 1.5900 -1.0400
# 4 vertices

vn 0.0000 -1.0000 -0.0000
# 1 vertex normals

g ceiling
usemtl ceiling

s 1
f 166//163 167//163 168//163 
f 168//163 169//163 166//163 
# 2 faces

## Object backwall 
v   1.0000 1.5900 -1.0400
v  -1.0200 1.5900 -1.0400
v  -0.9900 0.0000 -1.0400
v   1.0000 0.0000 -1.0400
# 4 vertices

vn 0.0000 0.0000 1.0000
# 1 vertex normals

g backWall
usemtl backWall

s 1
f 170//164 171//164 172//164 
f 172//164 173//164 170//164 
# 2 faces

## Object rightwall 
v  1.0000 1.5900 0.9900
v  1.0000 1.5900 -1.0400
v  1.0000 0.0000 -1.0400
v  1.0000 0.0000 0.9900
# 4 vertices

vn -1.0000 0.0000 -0.0000
# 1 vertex normals

g rightWall
usemtl rightWall

s 1
f 174//165 175//165 176//165 
f 176//165 177//165 174//165 
# 2 faces

## Object leftWall 
v  -1.0200 1.5900 -1.0400
v  -1.0200 1.5900 0.9900
v  -1.0100 0.0000 0.9900
v  -0.9900 0.0000 -1.0400
# 4 vertices

vn 0.9999 0.0135 0.0057
vn 1.0000 0.0063 -0.0000
vn 0.9999 0.0116 0.0042
vn 0.9998 0.0189 0.0098
# 4 vertex normals

g leftWall
usemtl leftWall

s 1
f 178//166 179//167 180//168 
f 180//168 181//169 178//166 
# 2 faces

## Object light
v  0.2300 1.5800 -0.2200
v  0.2300 1.5800 0.1600
v  -0.2400 1.5800 0.1600
v  -0.2400 1.5800 -0.2200
# 4 vertices

vn 0.0000 -1.0000 -0.0000
# 1 vertex normals

g light
usemtl light

s 1
f 182//170 183//170 184//170 
f 184//170 185//170 182//170 
# 2 faces
