mtllib CornellBox-Sphere.mtl

## Object leftSphere

v 5.36442e-07 0.724697 -6.49592e-08
vn 0.875992 -0.482326 -1.13807e-07
v -0.0344493 0.815888 -2.31485e-08
vn 0.929922 -0.367757 -4.62383e-08
v -0.0238093 0.75212 0.0711259
vn 0.879334 -0.457735 0.131341
v -0.0255045 0.759324 -0.0708133
vn 0.884039 -0.448406 -0.131933
v -0.073167 0.826173 -0.0815851
vn 0.911965 -0.371395 -0.174313
v -0.107984 0.879874 -0.00114612
vn 0.956113 -0.292983 -0.00279534
v -0.033942 0.652983 0.0552694
vn 0.798478 -0.59453 0.0946909
v -0.0728893 0.82461 0.0831387
vn 0.910402 -0.373851 0.177213
v -0.0353397 0.659764 -0.0656244
vn 0.801644 -0.586983 -0.113217
v -0.0894497 0.734438 -0.142363
vn 0.806176 -0.52147 -0.279551
v -0.0812119 0.588394 -0.00870379
vn 0.713117 -0.700888 -0.0148209
v -0.085582 0.719004 0.139757
vn 0.797204 -0.540543 0.268847
v -0.120402 0.611253 -0.116649
vn 0.683073 -0.699537 -0.209906
v -0.116857 0.598747 0.099686
vn 0.679712 -0.71184 0.176847
v -0.162799 0.852038 -0.133636
vn 0.86079 -0.37771 -0.341139
v -0.165839 0.849513 0.13786
vn 0.853421 -0.384332 0.352083
v -0.169805 0.537142 -0.008159
vn 0.580691 -0.813998 -0.0143487
v -0.187427 0.705726 -0.194203
vn 0.663379 -0.624542 -0.41216
v -0.221921 0.554064 0.118552
vn 0.516165 -0.827738 0.220054
v -0.204561 0.926162 -0.00956511
vn 0.969681 -0.242348 -0.0313943
v -0.177544 0.6751 0.184516
vn 0.65335 -0.658302 0.373861
v -0.266303 0.805491 -0.205721
vn 0.636587 -0.529839 -0.560381
v -0.271296 0.912928 -0.118308
vn 0.841393 -0.320336 -0.435251
v -0.320909 0.958109 -0.00254303
vn 0.973625 -0.227737 -0.0138251
v -0.26044 0.923355 0.0932153
vn 0.893081 -0.285735 0.347508
v -0.244853 0.763041 0.211555
vn 0.626223 -0.581584 0.519234
v -0.276706 0.863524 0.175395
vn 0.708784 -0.433204 0.55674
v -0.351863 0.793121 0.228775
vn 0.432931 -0.604605 0.668598
v -0.29971 0.641634 0.213485
vn 0.432846 -0.774462 0.461361
v -0.304292 0.677518 -0.225168
vn 0.445486 -0.734058 -0.512544
v -0.278117 0.500697 -0.00212505
vn 0.40609 -0.913825 -0.00388926
v -0.241207 0.564416 -0.141662
vn 0.491914 -0.827958 -0.269271
v -0.385612 0.94464 -0.104207
vn 0.696034 -0.336859 -0.634084
v -0.375707 0.92202 0.14039
vn 0.612058 -0.383999 0.691325
v -0.354682 0.57672 -0.187968
vn 0.299376 -0.87202 -0.387241
v -0.389594 0.776237 -0.23832
vn 0.319975 -0.648504 -0.690694
v -0.3491 0.873452 -0.186231
vn 0.556726 -0.466884 -0.687077
v -0.336222 0.518984 0.116063
vn 0.31422 -0.922866 0.222675
v -0.344281 0.510628 -0.102884
vn 0.297313 -0.934354 -0.196436
v -0.435878 0.972088 0.0166153
vn 0.892069 -0.388305 0.231152
v -0.451146 0.878461 -0.195602
vn 0.207525 -0.516282 -0.830895
v -0.402956 0.57728 0.196015
vn 0.203893 -0.888154 0.411837
v -0.499063 0.937027 0.131973
vn 0.00640564 -0.430646 0.902498
v -0.46277 0.525559 -0.14944
vn 0.0746372 -0.951144 -0.299592
v -0.434108 0.651778 -0.236866
vn 0.154579 -0.816905 -0.555672
v -0.464095 0.838696 0.221777
vn 0.129819 -0.583223 0.801872
v -0.458678 0.502803 0.112096
vn 0.0808091 -0.972324 0.219217
v -0.423124 0.691497 0.244797
vn 0.191586 -0.768836 0.61007
v -0.40298 0.480902 -0.00401588
vn 0.183714 -0.98295 -0.00760436
v -0.500976 0.95376 -0.100152
vn -0.00884721 -0.419161 -0.907869
v -0.535724 0.768407 -0.245532
vn -0.105253 -0.682344 -0.723415
v -0.557259 0.972292 0.0193582
vn -0.861156 -0.416712 0.29114
v -0.530806 0.493441 -0.00471059
vn -0.0606988 -0.998113 -0.00928165
v -0.552975 0.617286 -0.224186
vn -0.118594 -0.856769 -0.501879
v -0.587554 0.860784 0.205099
vn -0.333041 -0.529555 0.780163
v -0.558659 0.730885 0.248197
vn -0.158211 -0.72584 0.669422
v -0.515784 0.592096 0.211833
vn -0.0343204 -0.88694 0.460607
v -0.556724 0.893632 -0.182101
vn -0.25974 -0.487063 -0.833849
v -0.608069 0.939135 0.116607
vn -0.634815 -0.357528 0.68497
v -0.622691 0.946147 -0.0984857
vn -0.73781 -0.32385 -0.592248
v -0.618773 0.527034 -0.141069
vn -0.233969 -0.931685 -0.277888
v -0.590934 0.512714 0.122615
vn -0.17808 -0.954269 0.24012
v -0.680998 0.956024 0.0282304
vn -0.960757 -0.233432 0.14985
v -0.640743 0.616521 0.214183
vn -0.305144 -0.831415 0.464367
v -0.687601 0.764748 0.228253
vn -0.496729 -0.622897 0.604367
v -0.706234 0.892032 0.15449
vn -0.738168 -0.386447 0.552962
v -0.655136 0.853197 -0.199938
vn -0.530264 -0.501782 -0.6834
v -0.74052 0.926132 -0.0863954
vn -0.904118 -0.27767 -0.324762
v -0.773035 0.644483 0.193468
vn -0.559232 -0.728173 0.396262
v -0.707201 0.539752 0.132499
vn -0.397059 -0.881972 0.253907
v -0.770987 0.830363 -0.181599
vn -0.737017 -0.461371 -0.493905
v -0.675872 0.491352 0.00950149
vn -0.32673 -0.944953 0.0176516
v -0.747813 0.534881 -0.10543
vn -0.461082 -0.865403 -0.196164
v -0.86318 0.876639 -0.0802402
vn -0.926805 -0.314807 -0.204766
v -0.799194 0.918761 0.0496046
vn -0.952937 -0.258747 0.157991
v -0.811921 0.802169 0.179373
vn -0.759639 -0.481789 0.436838
v -0.819328 0.541314 0.0581253
vn -0.568291 -0.8163 0.103442
v -0.700342 0.682333 -0.225132
vn -0.457534 -0.725475 -0.514148
v -0.89994 0.68359 0.144298
vn -0.754618 -0.597012 0.272266
v -0.854988 0.751292 -0.174037
vn -0.76002 -0.532477 -0.372609
v -0.81983 0.626785 -0.165354
vn -0.616745 -0.71969 -0.31886
v -0.861748 0.56767 -0.0716114
vn -0.636609 -0.76082 -0.126023
v -0.920203 0.840844 0.0697643
vn -0.924096 -0.35001 0.153423
v -0.96517 0.779771 -0.0732886
vn -0.894798 -0.42363 -0.140977
v -0.916275 0.652922 -0.118436
vn -0.750349 -0.62562 -0.213485
v -0.94712 0.613317 0.0107395
vn -0.756251 -0.654029 0.0181647
v -0.98157 0.734943 0.0664628
vn -0.869733 -0.478703 0.120034
v -0.194481 0.740879 0.00992807
vn 0.762407 -0.646623 0.024775
v -0.410621 0.725529 -0.00275302
vn 0.309623 -0.950811 -0.00953693
v -0.83495 0.711514 0.00735542
vn -0.757599 -0.652508 0.0166367
v -0.668914 0.791959 -0.104542
vn -0.587222 -0.723245 -0.363437
v -0.761321 0.729053 -0.105383
vn -0.668503 -0.693128 -0.269586
v -0.721475 0.709649 0.125389
vn -0.573612 -0.752 0.324754
v -0.717894 0.639392 -0.0365189
vn -0.51523 -0.85269 -0.0863522
v -0.707857 0.793774 0.0218749
vn -0.707914 -0.702358 0.0745009
v -0.568504 0.824468 0.0783164
vn -0.335716 -0.860226 0.383804
v -0.581814 0.657692 -0.0510211
vn -0.230055 -0.962544 -0.143468
v -0.620421 0.704881 0.11381
vn -0.355799 -0.87197 0.336266
v -0.780181 0.817501 -0.0692416
vn -0.820514 -0.534453 -0.202775
v -0.56486 0.83037 -0.0737417
vn -0.330906 -0.865425 -0.376219
g leftSphere
usemtl leftSphere

s 1
f 75//75 76//76 66//66
f 77//77 82//82 73//73
f 46//46 43//43 55//55
f 72//72 77//77 73//73
f 43//43 59//59 55//55
f 77//77 86//86 82//82
f 53//53 44//44 49//49
f 8//8 12//12 3//3
f 3//3 12//12 7//7
f 2//2 8//8 3//3
f 74//74 84//84 83//83
f 74//74 68//68 71//71
f 79//79 87//87 86//86
f 2//2 4//4 5//5
f 38//38 47//47 49//49
f 76//76 83//83 79//79
f 50//50 58//58 60//60
f 46//46 34//34 43//43
f 30//30 22//22 18//18
f 75//75 66//66 63//63
f 20//20 25//25 16//16
f 6//6 15//15 20//20
f 52//52 50//50 60//60
f 2//2 3//3 1//1
f 36//36 45//45 51//51
f 66//66 55//55 59//59
f 16//16 26//26 21//21
f 16//16 25//25 27//27
f 50//50 52//52 40//40
f 13//13 10//10 9//9
f 24//24 25//25 20//20
f 44//44 39//39 49//49
f 14//14 19//19 17//17
f 24//24 23//23 33//33
f 31//31 19//19 38//38
f 22//22 15//15 18//18
f 43//43 34//34 40//40
f 31//31 39//39 32//32
f 16//16 8//8 6//6
f 21//21 26//26 29//29
f 57//57 56//56 64//64
f 47//47 62//62 53//53
f 3//3 7//7 1//1
f 29//29 48//48 42//42
f 30//30 45//45 36//36
f 76//76 69//69 65//65
f 28//28 34//34 46//46
f 17//17 11//11 14//14
f 46//46 56//56 48//48
f 84//84 80//80 85//85
f 43//43 52//52 59//59
f 77//77 69//69 79//79
f 56//56 55//55 65//65
f 67//67 51//51 78//78
f 75//75 83//83 76//76
f 17//17 32//32 13//13
f 48//48 28//28 46//46
f 6//6 8//8 2//2
f 79//79 69//69 76//76
f 44//44 45//45 35//35
f 5//5 6//6 2//2
f 16//16 12//12 8//8
f 58//58 41//41 51//51
f 21//21 12//12 16//16
f 48//48 56//56 57//57
f 58//58 51//51 67//67
f 23//23 15//15 22//22
f 27//27 34//34 28//28
f 73//73 81//81 78//78
f 14//14 12//12 21//21
f 10//10 15//15 5//5
f 80//80 84//84 74//74
f 29//29 19//19 21//21
f 70//70 77//77 72//72
f 24//24 34//34 25//25
f 28//28 26//26 27//27
f 49//49 39//39 31//31
f 40//40 33//33 50//50
f 83//83 84//84 87//87
f 5//5 15//15 6//6
f 17//17 19//19 31//31
f 38//38 29//29 42//42
f 49//49 47//47 53//53
f 68//68 67//67 71//71
f 9//9 11//11 13//13
f 42//42 47//47 38//38
f 65//65 66//66 76//76
f 1//1 4//4 2//2
f 85//85 81//81 82//82
f 68//68 60//60 67//67
f 16//16 6//6 20//20
f 79//79 86//86 77//77
f 13//13 11//11 17//17
f 86//86 85//85 82//82
f 39//39 44//44 35//35
f 64//64 56//56 65//65
f 78//78 61//61 73//73
f 79//79 83//83 87//87
f 54//54 61//61 78//78
f 87//87 84//84 86//86
f 73//73 61//61 72//72
f 84//84 85//85 86//86
f 48//48 57//57 42//42
f 59//59 63//63 66//66
f 25//25 34//34 27//27
f 14//14 11//11 7//7
f 28//28 48//48 29//29
f 29//29 26//26 28//28
f 51//51 54//54 78//78
f 70//70 62//62 64//64
f 20//20 23//23 24//24
f 54//54 45//45 44//44
f 32//32 30//30 18//18
f 74//74 75//75 68//68
f 71//71 80//80 74//74
f 65//65 55//55 66//66
f 74//74 83//83 75//75
f 56//56 46//46 55//55
f 53//53 72//72 61//61
f 71//71 78//78 80//80
f 62//62 47//47 57//57
f 71//71 67//67 78//78
f 58//58 67//67 60//60
f 80//80 81//81 85//85
f 13//13 18//18 10//10
f 59//59 52//52 63//63
f 21//21 19//19 14//14
f 44//44 53//53 61//61
f 9//9 4//4 1//1
f 77//77 70//70 69//69
f 37//37 23//23 22//22
f 1//1 7//7 9//9
f 5//5 4//4 10//10
f 62//62 57//57 64//64
f 80//80 78//78 81//81
f 33//33 23//23 37//37
f 40//40 34//34 24//24
f 32//32 18//18 13//13
f 50//50 41//41 58//58
f 75//75 63//63 68//68
f 37//37 41//41 33//33
f 10//10 4//4 9//9
f 7//7 11//11 9//9
f 63//63 52//52 60//60
f 57//57 47//47 42//42
f 49//49 31//31 38//38
f 35//35 32//32 39//39
f 31//31 32//32 17//17
f 73//73 82//82 81//81
f 30//30 32//32 35//35
f 20//20 15//15 23//23
f 27//27 26//26 16//16
f 35//35 45//45 30//30
f 36//36 37//37 22//22
f 7//7 12//12 14//14
f 36//36 41//41 37//37
f 18//18 15//15 10//10
f 70//70 64//64 69//69
f 33//33 41//41 50//50
f 54//54 44//44 61//61
f 24//24 33//33 40//40
f 51//51 45//45 54//54
f 40//40 52//52 43//43
f 38//38 19//19 29//29
f 51//51 41//41 36//36
f 72//72 62//62 70//70
f 22//22 30//30 36//36
f 53//53 62//62 72//72
f 69//69 64//64 65//65
f 63//63 60//60 68//68

## Object rightSphere

v -0.5875 0.25 0
vn 0 0 0
v -0.3375 0.25 0
vn 1 0 0
v -0.363893 0.361804 0
vn 0.894427 0.447214 0
v -0.356335 0.298578 0.0818727
vn 0.924658 0.194311 0.327491
v -0.365269 0.304668 -0.100621
vn 0.888925 0.218673 -0.402486
v -0.403472 0.399769 -0.078758
vn 0.736112 0.599077 -0.315032
v -0.432693 0.446087 0.00919147
vn 0.61923 0.784348 0.0367659
v -0.363941 0.188416 0.0934285
vn 0.894236 -0.246334 0.373714
v -0.410629 0.387968 0.110368
vn 0.707486 0.551874 0.441473
v -0.367473 0.191604 -0.103335
vn 0.880107 -0.233582 -0.413341
v -0.358458 0.149801 -8.75488e-05
vn 0.916168 -0.400795 -0.000350195
v -0.421135 0.251713 -0.186601
vn 0.665458 0.00685229 -0.746404
v -0.444167 0.364414 -0.169897
vn 0.573332 0.457656 -0.67959
v -0.485119 0.455304 -0.0993403
vn 0.409525 0.821214 -0.397361
v -0.409409 0.274129 0.173785
vn 0.712366 0.096514 0.69514
v -0.527304 0.492563 -0.00629535
vn 0.240784 0.970252 -0.0251814
v -0.442748 0.137095 -0.169703
vn 0.579009 -0.45162 -0.678813
v -0.436004 0.146356 0.169726
vn 0.605982 -0.414577 0.678905
v -0.511892 0.464419 0.103961
vn 0.302433 0.857675 0.415846
v -0.414726 0.0800885 0.061474
vn 0.691098 -0.679646 0.245896
v -0.500173 0.374247 0.198587
vn 0.349309 0.496986 0.794347
v -0.413442 0.0814998 -0.0617362
vn 0.696233 -0.674001 -0.246945
v -0.596483 0.483348 -0.0892645
vn -0.035932 0.933391 -0.357058
v -0.502895 0.196054 -0.22898
vn 0.338418 -0.215782 -0.915921
v -0.54919 0.415044 -0.183828
vn 0.153241 0.660177 -0.735312
v -0.518203 0.302872 -0.234313
vn 0.277186 0.211488 -0.937252
v -0.506754 0.236186 0.236198
vn 0.322982 -0.0552575 0.944791
v -0.533178 0.122009 0.207768
vn 0.21729 -0.511964 0.83107
v -0.500781 0.048265 -0.119511
vn 0.346876 -0.80694 -0.478043
v -0.627208 0.494429 0.0343175
vn -0.158833 0.977716 0.13727
v -0.514707 0.0432995 0.120316
vn 0.291174 -0.826802 0.481264
v -0.556411 0.102098 -0.199144
vn 0.124357 -0.591609 -0.796576
v -0.652097 0.431072 -0.159813
vn -0.258388 0.724289 -0.639251
v -0.502034 0.0151782 -0.0073646
vn 0.341866 -0.939287 -0.0294584
v -0.606661 0.322435 0.238508
vn -0.0766425 0.289742 0.954031
v -0.709291 0.458556 -0.0645855
vn -0.487165 0.834224 -0.258342
v -0.620815 0.440442 0.158499
vn -0.133259 0.761769 0.633996
v -0.609796 0.20734 -0.245322
vn -0.0891821 -0.170641 -0.981289
v -0.615078 0.185665 0.240001
vn -0.11031 -0.257341 0.960004
v -0.604107 0.0208233 -0.0985003
vn -0.0664263 -0.916707 -0.394001
v -0.738032 0.440036 0.0610438
vn -0.602127 0.760145 0.244175
v -0.625648 0.0683658 0.167492
vn -0.152591 -0.726537 0.66997
v -0.639455 0.335107 -0.229254
vn -0.207822 0.340429 -0.917016
v -0.70028 0.256923 0.223008
vn -0.451122 0.0276906 0.892033
v -0.798255 0.376885 -0.044525
vn -0.843022 0.507538 -0.1781
v -0.728947 0.364011 0.171739
vn -0.565787 0.456045 0.686955
v -0.682286 0.105617 -0.180746
vn -0.379144 -0.577531 -0.722985
v -0.618059 0.00569375 0.0433655
vn -0.122236 -0.977225 0.173462
v -0.740168 0.370642 -0.156965
vn -0.610673 0.482569 -0.627859
v -0.725921 0.239512 -0.207917
vn -0.553685 -0.0419533 -0.831669
v -0.716083 0.147342 0.188223
vn -0.514331 -0.410633 0.752891
v -0.811335 0.338188 0.0679763
vn -0.89534 0.352752 0.271905
v -0.726307 0.0495782 -0.0553525
vn -0.555226 -0.801687 -0.22141
v -0.728081 0.0603012 0.082167
vn -0.562323 -0.758795 0.328668
v -0.781603 0.249774 0.157556
vn -0.776413 -0.000904782 0.630224
v -0.790415 0.161365 -0.116058
vn -0.811658 -0.354539 -0.464234
v -0.800165 0.278246 -0.128358
vn -0.85066 0.112984 -0.513432
v -0.788956 0.146983 0.106315
vn -0.805824 -0.412069 0.42526
v -0.835034 0.250792 -0.035022
vn -0.990134 0.00316965 -0.140088
v -0.805951 0.128435 0.00096488
vn -0.873805 -0.486261 0.00385952
v -0.827736 0.222041 0.063286
vn -0.960943 -0.111836 0.253144
g rightSphere
usemtl rightSphere

s 1
f 160//160 161//161 159//159
f 159//159 161//161 152//152
f 156//156 160//160 159//159
f 134//134 120//120 131//131
f 153//153 156//156 147//147
f 155//155 158//158 151//151
f 139//139 128//128 127//127
f 116//116 123//123 130//130
f 112//112 117//117 124//124
f 150//150 149//149 143//143
f 126//126 112//112 124//124
f 139//139 127//127 135//135
f 152//152 155//155 146//146
f 120//120 111//111 108//108
f 110//110 105//105 102//102
f 132//132 117//117 129//129
f 138//138 126//126 124//124
f 106//106 105//105 113//113
f 127//127 128//128 118//118
f 137//137 130//130 141//141
f 121//121 115//115 109//109
f 141//141 152//152 146//146
f 131//131 120//120 118//118
f 128//128 139//139 142//142
f 149//149 145//145 136//136
f 122//122 117//117 110//110
f 123//123 116//116 114//114
f 153//153 147//147 140//140
f 129//129 134//134 140//140
f 132//132 129//129 140//140
f 108//108 115//115 118//118
f 148//148 153//153 140//140
f 115//115 127//127 118//118
f 103//103 106//106 107//107
f 160//160 156//156 153//153
f 126//126 125//125 113//113
f 121//121 109//109 119//119
f 136//136 145//145 141//141
f 111//111 122//122 110//110
f 117//117 112//112 110//110
f 134//134 122//122 120//120
f 131//131 128//128 142//142
f 148//148 131//131 142//142
f 128//128 131//131 118//118
f 156//156 159//159 157//157
f 150//150 138//138 147//147
f 133//133 149//149 136//136
f 158//158 154//154 151//151
f 106//106 114//114 107//107
f 148//148 134//134 131//131
f 123//123 114//114 125//125
f 154//154 142//142 151//151
f 160//160 154//154 158//158
f 121//121 127//127 115//115
f 108//108 111//111 102//102
f 109//109 103//103 107//107
f 127//127 121//121 135//135
f 142//142 139//139 151//151
f 104//104 115//115 108//108
f 161//161 160//160 158//158
f 154//154 148//148 142//142
f 138//138 143//143 126//126
f 145//145 149//149 157//157
f 105//105 112//112 113//113
f 156//156 150//150 147//147
f 112//112 105//105 110//110
f 135//135 137//137 146//146
f 123//123 136//136 130//130
f 145//145 159//159 152//152
f 144//144 139//139 135//135
f 149//149 150//150 157//157
f 114//114 116//116 107//107
f 144//144 155//155 151//151
f 123//123 133//133 136//136
f 116//116 119//119 107//107
f 161//161 155//155 152//152
f 149//149 133//133 143//143
f 109//109 104//104 103//103
f 138//138 150//150 143//143
f 133//133 123//123 125//125
f 148//148 154//154 153//153
f 134//134 148//148 140//140
f 132//132 138//138 124//124
f 104//104 108//108 102//102
f 122//122 134//134 129//129
f 137//137 119//119 130//130
f 111//111 110//110 102//102
f 125//125 114//114 113//113
f 144//144 135//135 146//146
f 139//139 144//144 151//151
f 138//138 132//132 147//147
f 103//103 104//104 102//102
f 130//130 136//136 141//141
f 141//141 145//145 152//152
f 137//137 121//121 119//119
f 154//154 160//160 153//153
f 122//122 111//111 120//120
f 112//112 126//126 113//113
f 150//150 156//156 157//157
f 117//117 122//122 129//129
f 115//115 104//104 109//109
f 119//119 109//109 107//107
f 105//105 106//106 103//103
f 119//119 116//116 130//130
f 147//147 132//132 140//140
f 121//121 137//137 135//135
f 105//105 103//103 102//102
f 143//143 133//133 125//125
f 159//159 145//145 157//157
f 114//114 106//106 113//113
f 120//120 108//108 118//118
f 137//137 141//141 146//146
f 155//155 144//144 146//146
f 126//126 143//143 125//125
f 155//155 161//161 158//158
f 117//117 132//132 124//124


## Object floor
v   1.0000 0.0000 -1.0400
v  -0.9900 0.0000 -1.0400
v  -1.0100 0.0000  0.9900
v   1.0000 0.0000  0.9900
# 4 vertices

vn 0.0000 1.0000 -0.0000
# 1 vertex normals

g floor
usemtl floor

s 1
f 162//162 163//162 164//162 
f 164//162 165//162 162//162 
# 2 faces

## Object ceiling 
v   1.0000 1.5900 -1.0400
v   1.0000 1.5900  0.9900
v  -1.0200 1.5900  0.9900
v  -1.0200 1.5900 -1.0400
# 4 vertices

vn 0.0000 -1.0000 -0.0000
# 1 vertex normals

g ceiling
usemtl ceiling

s 1
f 166//163 167//163 168//163 
f 168//163 169//163 166//163 
# 2 faces

## Object backwall 
v   1.0000 1.5900 -1.0400
v  -1.0200 1.5900 -1.0400
v  -0.9900 0.0000 -1.0400
v   1.0000 0.0000 -1.0400
# 4 vertices

vn 0.0000 0.0000 1.0000
# 1 vertex normals

g backWall
usemtl backWall

s 1
f 170//164 171//164 172//164 
f 172//164 173//164 170//164 
# 2 faces

## Object rightwall 
v  1.0000 1.5900 0.9900
v  1.0000 1.5900 -1.0400
v  1.0000 0.0000 -1.0400
v  1.0000 0.0000 0.9900
# 4 vertices

vn -1.0000 0.0000 -0.0000
# 1 vertex normals

g rightWall
usemtl rightWall

s 1
f 174//165 175//165 176//165 
f 176//165 177//165 174//165 
# 2 faces

## Object leftWall 
v  -1.0200 1.5900 -1.0400
v  -1.0200 1.5900 0.9900
v  -1.0100 0.0000 0.9900
v  -0.9900 0.0000 -1.0400
# 4 vertices

vn 0.9999 0.0135 0.0057
vn 1.0000 0.0063 -0.0000
vn 0.9999 0.0116 0.0042
vn 0.9998 0.0189 0.0098
# 4 vertex normals

g leftWall
usemtl leftWall

s 1
f 178//166 179//167 180//168 
f 180//168 181//169 178//166 
# 2 faces

## Object light
v  0.2300 1.5800 -0.2200
v  0.2300 1.5800 0.1600
v  -0.2400 1.5800 0.1600
v  -0.2400 1.5800 -0.2200
# 4 vertices

vn 0.0000 -1.0000 -0.0000
# 1 vertex normals

g light
usemtl light

s 1
f 182//170 183//170 184//170 
f 184//170 185//170 182//170 
# 2 faces
