mtllib CornellBox-Sphere.mtl

## Object leftSphere

v 0.0689552 0.432039 0.0915268
vn 0.703182 -0.701954 0.11312
v 0.10953 0.501783 0.0367039
vn 0.773422 -0.632178 0.0465729
v 0.104729 0.490525 0.132047
vn 0.754323 -0.635505 0.164712
v 0.0455097 0.441867 0.0126083
vn 0.698882 -0.715054 0.0161532
v 0.0572698 0.507285 -0.0373717
vn 0.748223 -0.661547 -0.0501774
v 0.108266 0.590298 -0.00456048
vn 0.829387 -0.55864 -0.00621834
v 0.0251527 0.447197 0.176449
vn 0.67101 -0.70634 0.225456
v 0.1294 0.567677 0.0974532
vn 0.817647 -0.561627 0.126601
v -0.0249247 0.405753 0.074394
vn 0.621473 -0.777368 0.0973189
v -0.0409496 0.454912 -0.0343325
vn 0.643413 -0.764005 -0.0481211
v -0.0749513 0.431269 0.159796
vn 0.584039 -0.781466 0.219568
v 0.0758135 0.550568 0.203997
vn 0.759252 -0.592608 0.268985
v -0.130986 0.432521 0.0568262
vn 0.543236 -0.835402 0.0836555
v -0.0416406 0.505449 0.239713
vn 0.640491 -0.691064 0.334965
v -0.00115842 0.572634 -0.0989731
vn 0.75094 -0.643344 -0.148991
v 0.115105 0.673882 0.123906
vn 0.869838 -0.461173 0.175219
v -0.162399 0.479124 0.185191
vn 0.521189 -0.804129 0.285899
v -0.141169 0.501218 -0.0648797
vn 0.580763 -0.807272 -0.105007
v -0.127205 0.576154 0.274977
vn 0.593736 -0.675043 0.437945
v 0.0790447 0.686997 -0.0417702
vn 0.877937 -0.474569 -0.0633312
v 0.0103395 0.620402 0.26149
vn 0.742106 -0.55199 0.380244
v -0.124798 0.607816 -0.135933
vn 0.670578 -0.70093 -0.242945
v -0.0164854 0.695259 -0.126207
vn 0.82609 -0.520653 -0.215627
v 0.0360279 0.799369 -0.0589053
vn 0.931626 -0.348701 -0.102378
v 0.0897266 0.76847 0.0419678
vn 0.928796 -0.36465 0.0660976
v 0.0418992 0.724708 0.230521
vn 0.833612 -0.423485 0.354615
v 0.07564 0.783645 0.142708
vn 0.911836 -0.342715 0.226055
v 0.00656158 0.831461 0.223037
vn 0.875525 -0.291298 0.385489
v -0.0724543 0.713985 0.297902
vn 0.719255 -0.481159 0.501157
v -0.242379 0.571273 -0.0801801
vn 0.508568 -0.846348 -0.158283
v -0.249216 0.552119 0.204663
vn 0.453819 -0.810484 0.370357
v -0.245562 0.499091 0.0570532
vn 0.450559 -0.887011 0.10103
v -0.0556482 0.808705 -0.138155
vn 0.883193 -0.380219 -0.274597
v 0.0419946 0.878719 0.0770413
vn 0.966612 -0.216296 0.137398
v -0.3241 0.57944 0.00461041
vn 0.385841 -0.92251 0.0101131
v -0.230934 0.682115 -0.153067
vn 0.606404 -0.716428 -0.344971
v -0.118557 0.714701 -0.163526
vn 0.7574 -0.566494 -0.324699
v -0.219856 0.651297 0.286328
vn 0.527488 -0.656578 0.539131
v -0.325618 0.572229 0.112578
vn 0.366758 -0.899682 0.236774
v -0.0131928 0.906682 -0.0553627
vn 0.976049 -0.187103 -0.111002
v -0.179247 0.796893 -0.17893
vn 0.764238 -0.48393 -0.426325
v -0.185414 0.760607 0.314951
vn 0.622403 -0.473635 0.623125
v -0.0240536 0.982985 0.0581378
vn 0.991997 -0.035464 0.121175
v -0.405995 0.657233 0.0596179
vn 0.260844 -0.951102 0.165426
v -0.340816 0.660427 -0.083514
vn 0.414306 -0.883802 -0.217361
v -0.0324788 0.940669 0.188333
vn 0.921207 -0.116906 0.371093
v -0.306172 0.739773 0.285878
vn 0.448207 -0.60175 0.661065
v -0.0987677 0.847382 0.289951
vn 0.77454 -0.294615 0.559722
v -0.338296 0.641789 0.207104
vn 0.363996 -0.806333 0.466191
v -0.115207 0.908361 -0.14418
vn 0.913971 -0.217664 -0.34246
v -0.325346 0.794963 -0.161576
vn 0.556068 -0.652802 -0.514429
v -0.0829839 1.00627 -0.0572622
vn 0.990594 0.0148993 -0.136023
v -0.419999 0.745256 0.202233
vn 0.238843 -0.760539 0.603767
v -0.428499 0.744983 -0.0597095
vn 0.263357 -0.939295 -0.219926
v -0.0979599 1.04568 0.157792
vn 0.925707 0.10519 0.363319
v -0.151306 0.976479 0.266436
vn 0.793452 -0.0535223 0.606275
v -0.236178 0.863158 0.314616
vn 0.609578 -0.316183 0.72694
v -0.224709 0.894819 -0.180331
vn 0.7968 -0.304434 -0.521948
v -0.0938674 1.06711 0.0399081
vn 0.982017 0.162266 0.0964967
v -0.190771 1.00364 -0.143441
vn 0.907102 0.0106734 -0.420775
v -0.492772 0.785206 0.0557107
vn 0.0325538 -0.967458 0.250928
v -0.374303 0.852594 0.282897
vn 0.366603 -0.429921 0.825088
v -0.163155 1.10195 -0.0463239
vn 0.948937 0.287208 -0.130501
v -0.293028 0.975584 0.29845
vn 0.568584 -0.0670751 0.819886
v -0.214039 1.08931 0.226066
vn 0.76194 0.237952 0.602351
v -0.168676 1.1385 0.093549
vn 0.892835 0.373222 0.252091
v -0.317361 0.94909 -0.176446
vn 0.705164 -0.196562 -0.681255
v -0.268322 1.09414 -0.126789
vn 0.826303 0.335758 -0.452206
v -0.362343 1.08718 0.260305
vn 0.448251 0.283892 0.84763
v -0.419932 0.961826 0.270743
vn 0.281035 -0.133989 0.950298
v -0.392644 1.0387 -0.153263
vn 0.561827 0.20254 -0.802077
v -0.487325 0.86882 0.197956
vn 0.053299 -0.551609 0.832398
v -0.548354 0.904588 0.0747648
vn -0.370516 -0.731105 0.57289
v -0.37276 1.17156 -0.0981064
vn 0.541336 0.729891 -0.41739
v -0.250486 1.18772 -0.0118672
vn 0.79853 0.600756 -0.0379791
v -0.283972 1.18941 0.159924
vn 0.656987 0.576036 0.486364
v -0.516903 1.02401 0.203735
vn -0.0821175 0.11663 0.989775
v -0.470486 0.894798 -0.104198
vn 0.195477 -0.696782 -0.690133
v -0.433297 1.18847 0.192799
vn 0.240158 0.67858 0.694156
v -0.492743 1.07026 -0.106411
vn 0.0568174 0.550124 -0.833148
v -0.553266 0.98449 -0.029212
vn -0.849549 -0.247373 -0.46591
v -0.578857 1.02272 0.0795309
vn -0.69003 0.198845 0.695931
v -0.369222 1.2538 0.0436711
vn 0.452781 0.878708 0.151198
v -0.497863 1.2079 -0.0427053
vn 0.0100671 0.979498 -0.201203
v -0.573296 1.09047 -0.0087935
vn -0.627725 0.774783 -0.0753099
v -0.56512 1.14177 0.118832
vn -0.332052 0.722901 0.605934
v -0.480488 1.24938 0.0968974
vn 0.0727384 0.92964 0.361218
v -0.0320219 0.599347 0.0802012
vn 0.753278 -0.644909 0.129095
v -0.174942 0.763124 0.0663273
vn 0.79741 -0.581088 0.162709
v -0.43124 1.1003 0.0666178
vn 0.495893 0.72337 0.480444
v -0.325364 0.966113 -0.063977
vn 0.923766 -0.179249 -0.338416
v -0.423115 1.00937 -0.0333279
vn 0.911827 0.111094 -0.395258
v -0.315193 1.0527 0.169797
vn 0.72066 0.205512 0.662129
v -0.429682 0.95612 0.07513
vn 0.628576 -0.392248 0.67159
v -0.292435 1.04442 0.0380388
vn 0.962526 0.205981 0.176394
v -0.16503 0.967383 0.0732927
vn 0.972499 -0.0946964 0.212787
v -0.343205 0.850671 0.0589176
vn 0.698732 -0.665461 0.262557
v -0.262964 0.965351 0.16693
vn 0.811824 -0.118668 0.571716
v -0.358443 1.08042 -0.0533192
vn 0.826301 0.469424 -0.311236
v -0.224998 0.911471 -0.0557762
vn 0.934632 -0.300879 -0.189563
g leftSphere
usemtl leftSphere

s 1
f 75//75 76//76 66//66
f 77//77 82//82 73//73
f 46//46 43//43 55//55
f 72//72 77//77 73//73
f 43//43 59//59 55//55
f 77//77 86//86 82//82
f 53//53 44//44 49//49
f 8//8 12//12 3//3
f 3//3 12//12 7//7
f 2//2 8//8 3//3
f 74//74 84//84 83//83
f 74//74 68//68 71//71
f 79//79 87//87 86//86
f 2//2 4//4 5//5
f 38//38 47//47 49//49
f 76//76 83//83 79//79
f 50//50 58//58 60//60
f 46//46 34//34 43//43
f 30//30 22//22 18//18
f 75//75 66//66 63//63
f 20//20 25//25 16//16
f 6//6 15//15 20//20
f 52//52 50//50 60//60
f 2//2 3//3 1//1
f 36//36 45//45 51//51
f 66//66 55//55 59//59
f 16//16 26//26 21//21
f 16//16 25//25 27//27
f 50//50 52//52 40//40
f 13//13 10//10 9//9
f 24//24 25//25 20//20
f 44//44 39//39 49//49
f 14//14 19//19 17//17
f 24//24 23//23 33//33
f 31//31 19//19 38//38
f 22//22 15//15 18//18
f 43//43 34//34 40//40
f 31//31 39//39 32//32
f 16//16 8//8 6//6
f 21//21 26//26 29//29
f 57//57 56//56 64//64
f 47//47 62//62 53//53
f 3//3 7//7 1//1
f 29//29 48//48 42//42
f 30//30 45//45 36//36
f 76//76 69//69 65//65
f 28//28 34//34 46//46
f 17//17 11//11 14//14
f 46//46 56//56 48//48
f 84//84 80//80 85//85
f 43//43 52//52 59//59
f 77//77 69//69 79//79
f 56//56 55//55 65//65
f 67//67 51//51 78//78
f 75//75 83//83 76//76
f 17//17 32//32 13//13
f 48//48 28//28 46//46
f 6//6 8//8 2//2
f 79//79 69//69 76//76
f 44//44 45//45 35//35
f 5//5 6//6 2//2
f 16//16 12//12 8//8
f 58//58 41//41 51//51
f 21//21 12//12 16//16
f 48//48 56//56 57//57
f 58//58 51//51 67//67
f 23//23 15//15 22//22
f 27//27 34//34 28//28
f 73//73 81//81 78//78
f 14//14 12//12 21//21
f 10//10 15//15 5//5
f 80//80 84//84 74//74
f 29//29 19//19 21//21
f 70//70 77//77 72//72
f 24//24 34//34 25//25
f 28//28 26//26 27//27
f 49//49 39//39 31//31
f 40//40 33//33 50//50
f 83//83 84//84 87//87
f 5//5 15//15 6//6
f 17//17 19//19 31//31
f 38//38 29//29 42//42
f 49//49 47//47 53//53
f 68//68 67//67 71//71
f 9//9 11//11 13//13
f 42//42 47//47 38//38
f 65//65 66//66 76//76
f 1//1 4//4 2//2
f 85//85 81//81 82//82
f 68//68 60//60 67//67
f 16//16 6//6 20//20
f 79//79 86//86 77//77
f 13//13 11//11 17//17
f 86//86 85//85 82//82
f 39//39 44//44 35//35
f 64//64 56//56 65//65
f 78//78 61//61 73//73
f 79//79 83//83 87//87
f 54//54 61//61 78//78
f 87//87 84//84 86//86
f 73//73 61//61 72//72
f 84//84 85//85 86//86
f 48//48 57//57 42//42
f 59//59 63//63 66//66
f 25//25 34//34 27//27
f 14//14 11//11 7//7
f 28//28 48//48 29//29
f 29//29 26//26 28//28
f 51//51 54//54 78//78
f 70//70 62//62 64//64
f 20//20 23//23 24//24
f 54//54 45//45 44//44
f 32//32 30//30 18//18
f 74//74 75//75 68//68
f 71//71 80//80 74//74
f 65//65 55//55 66//66
f 74//74 83//83 75//75
f 56//56 46//46 55//55
f 53//53 72//72 61//61
f 71//71 78//78 80//80
f 62//62 47//47 57//57
f 71//71 67//67 78//78
f 58//58 67//67 60//60
f 80//80 81//81 85//85
f 13//13 18//18 10//10
f 59//59 52//52 63//63
f 21//21 19//19 14//14
f 44//44 53//53 61//61
f 9//9 4//4 1//1
f 77//77 70//70 69//69
f 37//37 23//23 22//22
f 1//1 7//7 9//9
f 5//5 4//4 10//10
f 62//62 57//57 64//64
f 80//80 78//78 81//81
f 33//33 23//23 37//37
f 40//40 34//34 24//24
f 32//32 18//18 13//13
f 50//50 41//41 58//58
f 75//75 63//63 68//68
f 37//37 41//41 33//33
f 10//10 4//4 9//9
f 7//7 11//11 9//9
f 63//63 52//52 60//60
f 57//57 47//47 42//42
f 49//49 31//31 38//38
f 35//35 32//32 39//39
f 31//31 32//32 17//17
f 73//73 82//82 81//81
f 30//30 32//32 35//35
f 20//20 15//15 23//23
f 27//27 26//26 16//16
f 35//35 45//45 30//30
f 36//36 37//37 22//22
f 7//7 12//12 14//14
f 36//36 41//41 37//37
f 18//18 15//15 10//10
f 70//70 64//64 69//69
f 33//33 41//41 50//50
f 54//54 44//44 61//61
f 24//24 33//33 40//40
f 51//51 45//45 54//54
f 40//40 52//52 43//43
f 38//38 19//19 29//29
f 51//51 41//41 36//36
f 72//72 62//62 70//70
f 22//22 30//30 36//36
f 53//53 62//62 72//72
f 69//69 64//64 65//65
f 63//63 60//60 68//68

## Object rightSphere

v -0.5875 0.25 0
vn 0 0 0
v -0.3375 0.25 0
vn 1 0 0
v -0.363893 0.361804 0
vn 0.894427 0.447214 0
v -0.356335 0.298578 0.0818727
vn 0.924658 0.194311 0.327491
v -0.365269 0.304668 -0.100621
vn 0.888925 0.218673 -0.402486
v -0.403472 0.399769 -0.078758
vn 0.736112 0.599077 -0.315032
v -0.432693 0.446087 0.00919147
vn 0.61923 0.784348 0.0367659
v -0.363941 0.188416 0.0934285
vn 0.894236 -0.246334 0.373714
v -0.410629 0.387968 0.110368
vn 0.707486 0.551874 0.441473
v -0.367473 0.191604 -0.103335
vn 0.880107 -0.233582 -0.413341
v -0.358458 0.149801 -8.75488e-05
vn 0.916168 -0.400795 -0.000350195
v -0.421135 0.251713 -0.186601
vn 0.665458 0.00685229 -0.746404
v -0.444167 0.364414 -0.169897
vn 0.573332 0.457656 -0.67959
v -0.485119 0.455304 -0.0993403
vn 0.409525 0.821214 -0.397361
v -0.409409 0.274129 0.173785
vn 0.712366 0.096514 0.69514
v -0.527304 0.492563 -0.00629535
vn 0.240784 0.970252 -0.0251814
v -0.442748 0.137095 -0.169703
vn 0.579009 -0.45162 -0.678813
v -0.436004 0.146356 0.169726
vn 0.605982 -0.414577 0.678905
v -0.511892 0.464419 0.103961
vn 0.302433 0.857675 0.415846
v -0.414726 0.0800885 0.061474
vn 0.691098 -0.679646 0.245896
v -0.500173 0.374247 0.198587
vn 0.349309 0.496986 0.794347
v -0.413442 0.0814998 -0.0617362
vn 0.696233 -0.674001 -0.246945
v -0.596483 0.483348 -0.0892645
vn -0.035932 0.933391 -0.357058
v -0.502895 0.196054 -0.22898
vn 0.338418 -0.215782 -0.915921
v -0.54919 0.415044 -0.183828
vn 0.153241 0.660177 -0.735312
v -0.518203 0.302872 -0.234313
vn 0.277186 0.211488 -0.937252
v -0.506754 0.236186 0.236198
vn 0.322982 -0.0552575 0.944791
v -0.533178 0.122009 0.207768
vn 0.21729 -0.511964 0.83107
v -0.500781 0.048265 -0.119511
vn 0.346876 -0.80694 -0.478043
v -0.627208 0.494429 0.0343175
vn -0.158833 0.977716 0.13727
v -0.514707 0.0432995 0.120316
vn 0.291174 -0.826802 0.481264
v -0.556411 0.102098 -0.199144
vn 0.124357 -0.591609 -0.796576
v -0.652097 0.431072 -0.159813
vn -0.258388 0.724289 -0.639251
v -0.502034 0.0151782 -0.0073646
vn 0.341866 -0.939287 -0.0294584
v -0.606661 0.322435 0.238508
vn -0.0766425 0.289742 0.954031
v -0.709291 0.458556 -0.0645855
vn -0.487165 0.834224 -0.258342
v -0.620815 0.440442 0.158499
vn -0.133259 0.761769 0.633996
v -0.609796 0.20734 -0.245322
vn -0.0891821 -0.170641 -0.981289
v -0.615078 0.185665 0.240001
vn -0.11031 -0.257341 0.960004
v -0.604107 0.0208233 -0.0985003
vn -0.0664263 -0.916707 -0.394001
v -0.738032 0.440036 0.0610438
vn -0.602127 0.760145 0.244175
v -0.625648 0.0683658 0.167492
vn -0.152591 -0.726537 0.66997
v -0.639455 0.335107 -0.229254
vn -0.207822 0.340429 -0.917016
v -0.70028 0.256923 0.223008
vn -0.451122 0.0276906 0.892033
v -0.798255 0.376885 -0.044525
vn -0.843022 0.507538 -0.1781
v -0.728947 0.364011 0.171739
vn -0.565787 0.456045 0.686955
v -0.682286 0.105617 -0.180746
vn -0.379144 -0.577531 -0.722985
v -0.618059 0.00569375 0.0433655
vn -0.122236 -0.977225 0.173462
v -0.740168 0.370642 -0.156965
vn -0.610673 0.482569 -0.627859
v -0.725921 0.239512 -0.207917
vn -0.553685 -0.0419533 -0.831669
v -0.716083 0.147342 0.188223
vn -0.514331 -0.410633 0.752891
v -0.811335 0.338188 0.0679763
vn -0.89534 0.352752 0.271905
v -0.726307 0.0495782 -0.0553525
vn -0.555226 -0.801687 -0.22141
v -0.728081 0.0603012 0.082167
vn -0.562323 -0.758795 0.328668
v -0.781603 0.249774 0.157556
vn -0.776413 -0.000904782 0.630224
v -0.790415 0.161365 -0.116058
vn -0.811658 -0.354539 -0.464234
v -0.800165 0.278246 -0.128358
vn -0.85066 0.112984 -0.513432
v -0.788956 0.146983 0.106315
vn -0.805824 -0.412069 0.42526
v -0.835034 0.250792 -0.035022
vn -0.990134 0.00316965 -0.140088
v -0.805951 0.128435 0.00096488
vn -0.873805 -0.486261 0.00385952
v -0.827736 0.222041 0.063286
vn -0.960943 -0.111836 0.253144
g rightSphere
usemtl rightSphere

s 1
f 160//160 161//161 159//159
f 159//159 161//161 152//152
f 156//156 160//160 159//159
f 134//134 120//120 131//131
f 153//153 156//156 147//147
f 155//155 158//158 151//151
f 139//139 128//128 127//127
f 116//116 123//123 130//130
f 112//112 117//117 124//124
f 150//150 149//149 143//143
f 126//126 112//112 124//124
f 139//139 127//127 135//135
f 152//152 155//155 146//146
f 120//120 111//111 108//108
f 110//110 105//105 102//102
f 132//132 117//117 129//129
f 138//138 126//126 124//124
f 106//106 105//105 113//113
f 127//127 128//128 118//118
f 137//137 130//130 141//141
f 121//121 115//115 109//109
f 141//141 152//152 146//146
f 131//131 120//120 118//118
f 128//128 139//139 142//142
f 149//149 145//145 136//136
f 122//122 117//117 110//110
f 123//123 116//116 114//114
f 153//153 147//147 140//140
f 129//129 134//134 140//140
f 132//132 129//129 140//140
f 108//108 115//115 118//118
f 148//148 153//153 140//140
f 115//115 127//127 118//118
f 103//103 106//106 107//107
f 160//160 156//156 153//153
f 126//126 125//125 113//113
f 121//121 109//109 119//119
f 136//136 145//145 141//141
f 111//111 122//122 110//110
f 117//117 112//112 110//110
f 134//134 122//122 120//120
f 131//131 128//128 142//142
f 148//148 131//131 142//142
f 128//128 131//131 118//118
f 156//156 159//159 157//157
f 150//150 138//138 147//147
f 133//133 149//149 136//136
f 158//158 154//154 151//151
f 106//106 114//114 107//107
f 148//148 134//134 131//131
f 123//123 114//114 125//125
f 154//154 142//142 151//151
f 160//160 154//154 158//158
f 121//121 127//127 115//115
f 108//108 111//111 102//102
f 109//109 103//103 107//107
f 127//127 121//121 135//135
f 142//142 139//139 151//151
f 104//104 115//115 108//108
f 161//161 160//160 158//158
f 154//154 148//148 142//142
f 138//138 143//143 126//126
f 145//145 149//149 157//157
f 105//105 112//112 113//113
f 156//156 150//150 147//147
f 112//112 105//105 110//110
f 135//135 137//137 146//146
f 123//123 136//136 130//130
f 145//145 159//159 152//152
f 144//144 139//139 135//135
f 149//149 150//150 157//157
f 114//114 116//116 107//107
f 144//144 155//155 151//151
f 123//123 133//133 136//136
f 116//116 119//119 107//107
f 161//161 155//155 152//152
f 149//149 133//133 143//143
f 109//109 104//104 103//103
f 138//138 150//150 143//143
f 133//133 123//123 125//125
f 148//148 154//154 153//153
f 134//134 148//148 140//140
f 132//132 138//138 124//124
f 104//104 108//108 102//102
f 122//122 134//134 129//129
f 137//137 119//119 130//130
f 111//111 110//110 102//102
f 125//125 114//114 113//113
f 144//144 135//135 146//146
f 139//139 144//144 151//151
f 138//138 132//132 147//147
f 103//103 104//104 102//102
f 130//130 136//136 141//141
f 141//141 145//145 152//152
f 137//137 121//121 119//119
f 154//154 160//160 153//153
f 122//122 111//111 120//120
f 112//112 126//126 113//113
f 150//150 156//156 157//157
f 117//117 122//122 129//129
f 115//115 104//104 109//109
f 119//119 109//109 107//107
f 105//105 106//106 103//103
f 119//119 116//116 130//130
f 147//147 132//132 140//140
f 121//121 137//137 135//135
f 105//105 103//103 102//102
f 143//143 133//133 125//125
f 159//159 145//145 157//157
f 114//114 106//106 113//113
f 120//120 108//108 118//118
f 137//137 141//141 146//146
f 155//155 144//144 146//146
f 126//126 143//143 125//125
f 155//155 161//161 158//158
f 117//117 132//132 124//124


## Object floor
v   1.0000 0.0000 -1.0400
v  -0.9900 0.0000 -1.0400
v  -1.0100 0.0000  0.9900
v   1.0000 0.0000  0.9900
# 4 vertices

vn 0.0000 1.0000 -0.0000
# 1 vertex normals

g floor
usemtl floor

s 1
f 162//162 163//162 164//162 
f 164//162 165//162 162//162 
# 2 faces

## Object ceiling 
v   1.0000 1.5900 -1.0400
v   1.0000 1.5900  0.9900
v  -1.0200 1.5900  0.9900
v  -1.0200 1.5900 -1.0400
# 4 vertices

vn 0.0000 -1.0000 -0.0000
# 1 vertex normals

g ceiling
usemtl ceiling

s 1
f 166//163 167//163 168//163 
f 168//163 169//163 166//163 
# 2 faces

## Object backwall 
v   1.0000 1.5900 -1.0400
v  -1.0200 1.5900 -1.0400
v  -0.9900 0.0000 -1.0400
v   1.0000 0.0000 -1.0400
# 4 vertices

vn 0.0000 0.0000 1.0000
# 1 vertex normals

g backWall
usemtl backWall

s 1
f 170//164 171//164 172//164 
f 172//164 173//164 170//164 
# 2 faces

## Object rightwall 
v  1.0000 1.5900 0.9900
v  1.0000 1.5900 -1.0400
v  1.0000 0.0000 -1.0400
v  1.0000 0.0000 0.9900
# 4 vertices

vn -1.0000 0.0000 -0.0000
# 1 vertex normals

g rightWall
usemtl rightWall

s 1
f 174//165 175//165 176//165 
f 176//165 177//165 174//165 
# 2 faces

## Object leftWall 
v  -1.0200 1.5900 -1.0400
v  -1.0200 1.5900 0.9900
v  -1.0100 0.0000 0.9900
v  -0.9900 0.0000 -1.0400
# 4 vertices

vn 0.9999 0.0135 0.0057
vn 1.0000 0.0063 -0.0000
vn 0.9999 0.0116 0.0042
vn 0.9998 0.0189 0.0098
# 4 vertex normals

g leftWall
usemtl leftWall

s 1
f 178//166 179//167 180//168 
f 180//168 181//169 178//166 
# 2 faces

## Object light
v  0.2300 1.5800 -0.2200
v  0.2300 1.5800 0.1600
v  -0.2400 1.5800 0.1600
v  -0.2400 1.5800 -0.2200
# 4 vertices

vn 0.0000 -1.0000 -0.0000
# 1 vertex normals

g light
usemtl light

s 1
f 182//170 183//170 184//170 
f 184//170 185//170 182//170 
# 2 faces
