mtllib CornellBox-Sphere.mtl

## Object leftSphere

v 0.0479196 0.361631 0.128357
vn 0.643851 -0.750137 0.15083
v 0.0981665 0.416431 0.0650274
vn 0.713629 -0.696214 0.0775796
v 0.0983723 0.414414 0.161091
vn 0.701829 -0.686831 0.188943
v 0.0210699 0.369834 0.0504674
vn 0.636033 -0.769199 0.061602
v 0.0423115 0.426843 -0.00601301
vn 0.687271 -0.726361 -0.00762028
v 0.11219 0.499847 0.0152884
vn 0.774265 -0.632566 0.0193359
v 0.0149693 0.392953 0.213651
vn 0.624792 -0.736507 0.259215
v 0.136174 0.4821 0.117892
vn 0.767625 -0.624913 0.142252
v -0.0501739 0.355102 0.119084
vn 0.565643 -0.810941 0.149744
v -0.0641264 0.397602 0.00786753
vn 0.586172 -0.810117 0.0105804
v -0.0868911 0.397775 0.204139
vn 0.544789 -0.794186 0.269209
v 0.0885101 0.485545 0.228531
vn 0.722637 -0.631705 0.280615
v -0.148771 0.402597 0.105274
vn 0.501073 -0.852273 0.150187
v -0.0327145 0.469555 0.274695
vn 0.616139 -0.699417 0.362199
v -0.00694719 0.497793 -0.06975
vn 0.697158 -0.710101 -0.0986238
v 0.145951 0.592413 0.134332
vn 0.832931 -0.525568 0.173216
v -0.159791 0.465094 0.229892
vn 0.504517 -0.793244 0.340921
v -0.155053 0.461833 -0.0204909
vn 0.539354 -0.84147 -0.0320392
v -0.098671 0.55971 0.307936
vn 0.598436 -0.656532 0.459174
v 0.0992396 0.597464 -0.0299929
vn 0.829384 -0.557134 -0.041512
v 0.043453 0.573153 0.282532
vn 0.727935 -0.571746 0.378441
v -0.124944 0.555699 -0.101514
vn 0.635437 -0.752754 -0.17199
v -0.00115648 0.617836 -0.10785
vn 0.782385 -0.599385 -0.169152
v 0.0761273 0.714334 -0.0558063
vn 0.892559 -0.442565 -0.0864573
v 0.132162 0.682875 0.0439997
vn 0.892112 -0.447528 0.0620926
v 0.0921413 0.66665 0.239314
vn 0.821924 -0.462707 0.33218
v 0.129449 0.709849 0.143551
vn 0.889286 -0.409925 0.202809
v 0.077244 0.777587 0.222783
vn 0.877934 -0.338269 0.338832
v -0.0166575 0.685277 0.314598
vn 0.735687 -0.479035 0.478843
v -0.242048 0.550281 -0.0353892
vn 0.496393 -0.865423 -0.0681016
v -0.228187 0.556026 0.247834
vn 0.471443 -0.770045 0.429852
v -0.246562 0.491444 0.106397
vn 0.438411 -0.879728 0.184051
v -0.0188772 0.735982 -0.12832
vn 0.853653 -0.468444 -0.227677
v 0.108662 0.803444 0.0700428
vn 0.945956 -0.305479 0.108858
v -0.312881 0.58214 0.0533042
vn 0.405954 -0.906547 0.115643
v -0.215933 0.650109 -0.117887
vn 0.609784 -0.751082 -0.253059
v -0.100668 0.656094 -0.139289
vn 0.732578 -0.6309 -0.255528
v -0.173881 0.654115 0.318308
vn 0.570029 -0.604578 0.556375
v -0.306506 0.584137 0.160505
vn 0.39818 -0.85578 0.330294
v 0.0483907 0.830029 -0.060585
vn 0.949898 -0.294416 -0.104943
v -0.145546 0.748097 -0.158319
vn 0.765937 -0.544335 -0.342111
v -0.116113 0.757063 0.33393
vn 0.680864 -0.430874 0.59226
v 0.0621139 0.917421 0.0433615
vn 0.986512 -0.144927 0.0760996
v -0.373404 0.680277 0.106321
vn 0.351718 -0.888279 0.295388
v -0.321635 0.658003 -0.0394412
vn 0.460029 -0.882058 -0.101724
v 0.0581561 0.889592 0.177743
vn 0.936365 -0.185221 0.298183
v -0.240392 0.760243 0.314891
vn 0.548478 -0.506537 0.665275
v -0.0161166 0.821581 0.294525
vn 0.81475 -0.300417 0.495914
v -0.297608 0.663362 0.24846
vn 0.435457 -0.724296 0.534576
v -0.0590051 0.845746 -0.140877
vn 0.903729 -0.316112 -0.288699
v -0.287842 0.779328 -0.13049
vn 0.637555 -0.66314 -0.392134
v -0.00158751 0.942192 -0.0688067
vn 0.984131 -0.114144 -0.135861
v -0.357165 0.782939 0.239456
vn 0.40423 -0.614294 0.677673
v -0.389233 0.761911 -0.0175713
vn 0.420878 -0.904657 -0.0667647
v 0.0126882 1.00254 0.139994
vn 0.964671 0.00478741 0.263412
v -0.0435657 0.956851 0.259379
vn 0.866501 -0.0819151 0.492408
v -0.144733 0.869253 0.325929
vn 0.71119 -0.261736 0.652459
v -0.172106 0.85273 -0.16735
vn 0.82698 -0.371428 -0.422073
v 0.00919247 1.01221 0.0205297
vn 0.998902 0.0239472 0.0402738
v -0.11538 0.954556 -0.145633
vn 0.929547 -0.109828 -0.351966
v -0.433102 0.826541 0.0977061
vn 0.318527 -0.825903 0.465215
v -0.284328 0.886765 0.305156
vn 0.552358 -0.290005 0.781535
v -0.0605108 1.05308 -0.0634394
vn 0.982745 0.118699 -0.141857
v -0.177902 0.991142 0.301215
vn 0.73024 -0.0200812 0.682895
v -0.0838267 1.07716 0.210414
vn 0.880451 0.163237 0.44515
v -0.0433228 1.10195 0.0701006
vn 0.965206 0.215467 0.148161
v -0.253128 0.925051 -0.162728
vn 0.809336 -0.24571 -0.53348
v -0.173024 1.05938 -0.135085
vn 0.911482 0.165531 -0.376563
v -0.223561 1.11349 0.254614
vn 0.704142 0.289078 0.64855
v -0.30606 1.00552 0.28453
vn 0.563149 0.0160366 0.8262
v -0.308505 1.0299 -0.144937
vn 0.791255 0.123537 -0.598877
v -0.397149 0.921881 0.227947
vn 0.39257 -0.298172 0.870047
v -0.461643 0.959737 0.108606
vn 0.314365 -0.329985 0.890103
v -0.25628 1.15926 -0.110821
vn 0.782352 0.511247 -0.355741
v -0.124324 1.15698 -0.0360573
vn 0.919092 0.384041 -0.0882142
v -0.135836 1.18426 0.135884
vn 0.84659 0.428365 0.315896
v -0.39355 1.0836 0.218447
vn 0.414235 0.325304 0.850051
v -0.407298 0.914023 -0.0721521
vn 0.636803 -0.590612 -0.495641
v -0.275415 1.22298 0.179771
vn 0.617038 0.612628 0.493914
v -0.39545 1.08903 -0.0947887
vn 0.626583 0.53355 -0.568084
v -0.46247 1.02952 -0.00181094
vn 0.785463 0.617747 -0.0379008
v -0.466901 1.0851 0.102087
vn 0.241663 0.621325 0.745355
v -0.217039 1.25444 0.0170572
vn 0.742839 0.667971 0.044779
v -0.362028 1.23101 -0.0514975
vn 0.503626 0.843223 -0.187977
v -0.456978 1.14023 0.00588155
vn 0.293074 0.95525 0.0400662
v -0.421585 1.20325 0.124051
vn 0.312787 0.81075 0.494822
v -0.318034 1.28335 0.0795047
vn 0.525901 0.818921 0.229777
v -0.0148661 0.546351 0.107171
vn 0.721084 -0.674287 0.159295
v -0.125464 0.73557 0.087874
vn 0.802311 -0.566448 0.188239
v -0.309057 1.12405 0.0668073
vn 0.804652 0.522757 0.281533
v -0.247506 0.954382 -0.0526752
vn 0.963964 -0.174158 -0.201102
v -0.331558 1.02228 -0.0204845
vn 0.98424 0.130172 -0.119695
v -0.19556 1.06002 0.166389
vn 0.86465 0.170475 0.472566
v -0.336276 0.982983 0.093264
vn 0.865389 -0.0899479 0.492961
v -0.19012 1.03359 0.0360711
vn 0.987586 0.107041 0.114958
v -0.0771691 0.93356 0.0706871
vn 0.974676 -0.153153 0.162942
v -0.274469 0.856994 0.0829207
vn 0.806545 -0.511418 0.296541
v -0.163881 0.962003 0.170532
vn 0.88729 -0.100306 0.450172
v -0.256543 1.07369 -0.0544657
vn 0.935898 0.283296 -0.209377
v -0.158173 0.88044 -0.0458303
vn 0.936457 -0.327543 -0.125555
g leftSphere
usemtl leftSphere

s 1
f 75//75 76//76 66//66
f 77//77 82//82 73//73
f 46//46 43//43 55//55
f 72//72 77//77 73//73
f 43//43 59//59 55//55
f 77//77 86//86 82//82
f 53//53 44//44 49//49
f 8//8 12//12 3//3
f 3//3 12//12 7//7
f 2//2 8//8 3//3
f 74//74 84//84 83//83
f 74//74 68//68 71//71
f 79//79 87//87 86//86
f 2//2 4//4 5//5
f 38//38 47//47 49//49
f 76//76 83//83 79//79
f 50//50 58//58 60//60
f 46//46 34//34 43//43
f 30//30 22//22 18//18
f 75//75 66//66 63//63
f 20//20 25//25 16//16
f 6//6 15//15 20//20
f 52//52 50//50 60//60
f 2//2 3//3 1//1
f 36//36 45//45 51//51
f 66//66 55//55 59//59
f 16//16 26//26 21//21
f 16//16 25//25 27//27
f 50//50 52//52 40//40
f 13//13 10//10 9//9
f 24//24 25//25 20//20
f 44//44 39//39 49//49
f 14//14 19//19 17//17
f 24//24 23//23 33//33
f 31//31 19//19 38//38
f 22//22 15//15 18//18
f 43//43 34//34 40//40
f 31//31 39//39 32//32
f 16//16 8//8 6//6
f 21//21 26//26 29//29
f 57//57 56//56 64//64
f 47//47 62//62 53//53
f 3//3 7//7 1//1
f 29//29 48//48 42//42
f 30//30 45//45 36//36
f 76//76 69//69 65//65
f 28//28 34//34 46//46
f 17//17 11//11 14//14
f 46//46 56//56 48//48
f 84//84 80//80 85//85
f 43//43 52//52 59//59
f 77//77 69//69 79//79
f 56//56 55//55 65//65
f 67//67 51//51 78//78
f 75//75 83//83 76//76
f 17//17 32//32 13//13
f 48//48 28//28 46//46
f 6//6 8//8 2//2
f 79//79 69//69 76//76
f 44//44 45//45 35//35
f 5//5 6//6 2//2
f 16//16 12//12 8//8
f 58//58 41//41 51//51
f 21//21 12//12 16//16
f 48//48 56//56 57//57
f 58//58 51//51 67//67
f 23//23 15//15 22//22
f 27//27 34//34 28//28
f 73//73 81//81 78//78
f 14//14 12//12 21//21
f 10//10 15//15 5//5
f 80//80 84//84 74//74
f 29//29 19//19 21//21
f 70//70 77//77 72//72
f 24//24 34//34 25//25
f 28//28 26//26 27//27
f 49//49 39//39 31//31
f 40//40 33//33 50//50
f 83//83 84//84 87//87
f 5//5 15//15 6//6
f 17//17 19//19 31//31
f 38//38 29//29 42//42
f 49//49 47//47 53//53
f 68//68 67//67 71//71
f 9//9 11//11 13//13
f 42//42 47//47 38//38
f 65//65 66//66 76//76
f 1//1 4//4 2//2
f 85//85 81//81 82//82
f 68//68 60//60 67//67
f 16//16 6//6 20//20
f 79//79 86//86 77//77
f 13//13 11//11 17//17
f 86//86 85//85 82//82
f 39//39 44//44 35//35
f 64//64 56//56 65//65
f 78//78 61//61 73//73
f 79//79 83//83 87//87
f 54//54 61//61 78//78
f 87//87 84//84 86//86
f 73//73 61//61 72//72
f 84//84 85//85 86//86
f 48//48 57//57 42//42
f 59//59 63//63 66//66
f 25//25 34//34 27//27
f 14//14 11//11 7//7
f 28//28 48//48 29//29
f 29//29 26//26 28//28
f 51//51 54//54 78//78
f 70//70 62//62 64//64
f 20//20 23//23 24//24
f 54//54 45//45 44//44
f 32//32 30//30 18//18
f 74//74 75//75 68//68
f 71//71 80//80 74//74
f 65//65 55//55 66//66
f 74//74 83//83 75//75
f 56//56 46//46 55//55
f 53//53 72//72 61//61
f 71//71 78//78 80//80
f 62//62 47//47 57//57
f 71//71 67//67 78//78
f 58//58 67//67 60//60
f 80//80 81//81 85//85
f 13//13 18//18 10//10
f 59//59 52//52 63//63
f 21//21 19//19 14//14
f 44//44 53//53 61//61
f 9//9 4//4 1//1
f 77//77 70//70 69//69
f 37//37 23//23 22//22
f 1//1 7//7 9//9
f 5//5 4//4 10//10
f 62//62 57//57 64//64
f 80//80 78//78 81//81
f 33//33 23//23 37//37
f 40//40 34//34 24//24
f 32//32 18//18 13//13
f 50//50 41//41 58//58
f 75//75 63//63 68//68
f 37//37 41//41 33//33
f 10//10 4//4 9//9
f 7//7 11//11 9//9
f 63//63 52//52 60//60
f 57//57 47//47 42//42
f 49//49 31//31 38//38
f 35//35 32//32 39//39
f 31//31 32//32 17//17
f 73//73 82//82 81//81
f 30//30 32//32 35//35
f 20//20 15//15 23//23
f 27//27 26//26 16//16
f 35//35 45//45 30//30
f 36//36 37//37 22//22
f 7//7 12//12 14//14
f 36//36 41//41 37//37
f 18//18 15//15 10//10
f 70//70 64//64 69//69
f 33//33 41//41 50//50
f 54//54 44//44 61//61
f 24//24 33//33 40//40
f 51//51 45//45 54//54
f 40//40 52//52 43//43
f 38//38 19//19 29//29
f 51//51 41//41 36//36
f 72//72 62//62 70//70
f 22//22 30//30 36//36
f 53//53 62//62 72//72
f 69//69 64//64 65//65
f 63//63 60//60 68//68

## Object rightSphere

v -0.5875 0.25 0
vn 0 0 0
v -0.3375 0.25 0
vn 1 0 0
v -0.363893 0.361804 0
vn 0.894427 0.447214 0
v -0.356335 0.298578 0.0818727
vn 0.924658 0.194311 0.327491
v -0.365269 0.304668 -0.100621
vn 0.888925 0.218673 -0.402486
v -0.403472 0.399769 -0.078758
vn 0.736112 0.599077 -0.315032
v -0.432693 0.446087 0.00919147
vn 0.61923 0.784348 0.0367659
v -0.363941 0.188416 0.0934285
vn 0.894236 -0.246334 0.373714
v -0.410629 0.387968 0.110368
vn 0.707486 0.551874 0.441473
v -0.367473 0.191604 -0.103335
vn 0.880107 -0.233582 -0.413341
v -0.358458 0.149801 -8.75488e-05
vn 0.916168 -0.400795 -0.000350195
v -0.421135 0.251713 -0.186601
vn 0.665458 0.00685229 -0.746404
v -0.444167 0.364414 -0.169897
vn 0.573332 0.457656 -0.67959
v -0.485119 0.455304 -0.0993403
vn 0.409525 0.821214 -0.397361
v -0.409409 0.274129 0.173785
vn 0.712366 0.096514 0.69514
v -0.527304 0.492563 -0.00629535
vn 0.240784 0.970252 -0.0251814
v -0.442748 0.137095 -0.169703
vn 0.579009 -0.45162 -0.678813
v -0.436004 0.146356 0.169726
vn 0.605982 -0.414577 0.678905
v -0.511892 0.464419 0.103961
vn 0.302433 0.857675 0.415846
v -0.414726 0.0800885 0.061474
vn 0.691098 -0.679646 0.245896
v -0.500173 0.374247 0.198587
vn 0.349309 0.496986 0.794347
v -0.413442 0.0814998 -0.0617362
vn 0.696233 -0.674001 -0.246945
v -0.596483 0.483348 -0.0892645
vn -0.035932 0.933391 -0.357058
v -0.502895 0.196054 -0.22898
vn 0.338418 -0.215782 -0.915921
v -0.54919 0.415044 -0.183828
vn 0.153241 0.660177 -0.735312
v -0.518203 0.302872 -0.234313
vn 0.277186 0.211488 -0.937252
v -0.506754 0.236186 0.236198
vn 0.322982 -0.0552575 0.944791
v -0.533178 0.122009 0.207768
vn 0.21729 -0.511964 0.83107
v -0.500781 0.048265 -0.119511
vn 0.346876 -0.80694 -0.478043
v -0.627208 0.494429 0.0343175
vn -0.158833 0.977716 0.13727
v -0.514707 0.0432995 0.120316
vn 0.291174 -0.826802 0.481264
v -0.556411 0.102098 -0.199144
vn 0.124357 -0.591609 -0.796576
v -0.652097 0.431072 -0.159813
vn -0.258388 0.724289 -0.639251
v -0.502034 0.0151782 -0.0073646
vn 0.341866 -0.939287 -0.0294584
v -0.606661 0.322435 0.238508
vn -0.0766425 0.289742 0.954031
v -0.709291 0.458556 -0.0645855
vn -0.487165 0.834224 -0.258342
v -0.620815 0.440442 0.158499
vn -0.133259 0.761769 0.633996
v -0.609796 0.20734 -0.245322
vn -0.0891821 -0.170641 -0.981289
v -0.615078 0.185665 0.240001
vn -0.11031 -0.257341 0.960004
v -0.604107 0.0208233 -0.0985003
vn -0.0664263 -0.916707 -0.394001
v -0.738032 0.440036 0.0610438
vn -0.602127 0.760145 0.244175
v -0.625648 0.0683658 0.167492
vn -0.152591 -0.726537 0.66997
v -0.639455 0.335107 -0.229254
vn -0.207822 0.340429 -0.917016
v -0.70028 0.256923 0.223008
vn -0.451122 0.0276906 0.892033
v -0.798255 0.376885 -0.044525
vn -0.843022 0.507538 -0.1781
v -0.728947 0.364011 0.171739
vn -0.565787 0.456045 0.686955
v -0.682286 0.105617 -0.180746
vn -0.379144 -0.577531 -0.722985
v -0.618059 0.00569375 0.0433655
vn -0.122236 -0.977225 0.173462
v -0.740168 0.370642 -0.156965
vn -0.610673 0.482569 -0.627859
v -0.725921 0.239512 -0.207917
vn -0.553685 -0.0419533 -0.831669
v -0.716083 0.147342 0.188223
vn -0.514331 -0.410633 0.752891
v -0.811335 0.338188 0.0679763
vn -0.89534 0.352752 0.271905
v -0.726307 0.0495782 -0.0553525
vn -0.555226 -0.801687 -0.22141
v -0.728081 0.0603012 0.082167
vn -0.562323 -0.758795 0.328668
v -0.781603 0.249774 0.157556
vn -0.776413 -0.000904782 0.630224
v -0.790415 0.161365 -0.116058
vn -0.811658 -0.354539 -0.464234
v -0.800165 0.278246 -0.128358
vn -0.85066 0.112984 -0.513432
v -0.788956 0.146983 0.106315
vn -0.805824 -0.412069 0.42526
v -0.835034 0.250792 -0.035022
vn -0.990134 0.00316965 -0.140088
v -0.805951 0.128435 0.00096488
vn -0.873805 -0.486261 0.00385952
v -0.827736 0.222041 0.063286
vn -0.960943 -0.111836 0.253144
g rightSphere
usemtl rightSphere

s 1
f 160//160 161//161 159//159
f 159//159 161//161 152//152
f 156//156 160//160 159//159
f 134//134 120//120 131//131
f 153//153 156//156 147//147
f 155//155 158//158 151//151
f 139//139 128//128 127//127
f 116//116 123//123 130//130
f 112//112 117//117 124//124
f 150//150 149//149 143//143
f 126//126 112//112 124//124
f 139//139 127//127 135//135
f 152//152 155//155 146//146
f 120//120 111//111 108//108
f 110//110 105//105 102//102
f 132//132 117//117 129//129
f 138//138 126//126 124//124
f 106//106 105//105 113//113
f 127//127 128//128 118//118
f 137//137 130//130 141//141
f 121//121 115//115 109//109
f 141//141 152//152 146//146
f 131//131 120//120 118//118
f 128//128 139//139 142//142
f 149//149 145//145 136//136
f 122//122 117//117 110//110
f 123//123 116//116 114//114
f 153//153 147//147 140//140
f 129//129 134//134 140//140
f 132//132 129//129 140//140
f 108//108 115//115 118//118
f 148//148 153//153 140//140
f 115//115 127//127 118//118
f 103//103 106//106 107//107
f 160//160 156//156 153//153
f 126//126 125//125 113//113
f 121//121 109//109 119//119
f 136//136 145//145 141//141
f 111//111 122//122 110//110
f 117//117 112//112 110//110
f 134//134 122//122 120//120
f 131//131 128//128 142//142
f 148//148 131//131 142//142
f 128//128 131//131 118//118
f 156//156 159//159 157//157
f 150//150 138//138 147//147
f 133//133 149//149 136//136
f 158//158 154//154 151//151
f 106//106 114//114 107//107
f 148//148 134//134 131//131
f 123//123 114//114 125//125
f 154//154 142//142 151//151
f 160//160 154//154 158//158
f 121//121 127//127 115//115
f 108//108 111//111 102//102
f 109//109 103//103 107//107
f 127//127 121//121 135//135
f 142//142 139//139 151//151
f 104//104 115//115 108//108
f 161//161 160//160 158//158
f 154//154 148//148 142//142
f 138//138 143//143 126//126
f 145//145 149//149 157//157
f 105//105 112//112 113//113
f 156//156 150//150 147//147
f 112//112 105//105 110//110
f 135//135 137//137 146//146
f 123//123 136//136 130//130
f 145//145 159//159 152//152
f 144//144 139//139 135//135
f 149//149 150//150 157//157
f 114//114 116//116 107//107
f 144//144 155//155 151//151
f 123//123 133//133 136//136
f 116//116 119//119 107//107
f 161//161 155//155 152//152
f 149//149 133//133 143//143
f 109//109 104//104 103//103
f 138//138 150//150 143//143
f 133//133 123//123 125//125
f 148//148 154//154 153//153
f 134//134 148//148 140//140
f 132//132 138//138 124//124
f 104//104 108//108 102//102
f 122//122 134//134 129//129
f 137//137 119//119 130//130
f 111//111 110//110 102//102
f 125//125 114//114 113//113
f 144//144 135//135 146//146
f 139//139 144//144 151//151
f 138//138 132//132 147//147
f 103//103 104//104 102//102
f 130//130 136//136 141//141
f 141//141 145//145 152//152
f 137//137 121//121 119//119
f 154//154 160//160 153//153
f 122//122 111//111 120//120
f 112//112 126//126 113//113
f 150//150 156//156 157//157
f 117//117 122//122 129//129
f 115//115 104//104 109//109
f 119//119 109//109 107//107
f 105//105 106//106 103//103
f 119//119 116//116 130//130
f 147//147 132//132 140//140
f 121//121 137//137 135//135
f 105//105 103//103 102//102
f 143//143 133//133 125//125
f 159//159 145//145 157//157
f 114//114 106//106 113//113
f 120//120 108//108 118//118
f 137//137 141//141 146//146
f 155//155 144//144 146//146
f 126//126 143//143 125//125
f 155//155 161//161 158//158
f 117//117 132//132 124//124


## Object floor
v   1.0000 0.0000 -1.0400
v  -0.9900 0.0000 -1.0400
v  -1.0100 0.0000  0.9900
v   1.0000 0.0000  0.9900
# 4 vertices

vn 0.0000 1.0000 -0.0000
# 1 vertex normals

g floor
usemtl floor

s 1
f 162//162 163//162 164//162 
f 164//162 165//162 162//162 
# 2 faces

## Object ceiling 
v   1.0000 1.5900 -1.0400
v   1.0000 1.5900  0.9900
v  -1.0200 1.5900  0.9900
v  -1.0200 1.5900 -1.0400
# 4 vertices

vn 0.0000 -1.0000 -0.0000
# 1 vertex normals

g ceiling
usemtl ceiling

s 1
f 166//163 167//163 168//163 
f 168//163 169//163 166//163 
# 2 faces

## Object backwall 
v   1.0000 1.5900 -1.0400
v  -1.0200 1.5900 -1.0400
v  -0.9900 0.0000 -1.0400
v   1.0000 0.0000 -1.0400
# 4 vertices

vn 0.0000 0.0000 1.0000
# 1 vertex normals

g backWall
usemtl backWall

s 1
f 170//164 171//164 172//164 
f 172//164 173//164 170//164 
# 2 faces

## Object rightwall 
v  1.0000 1.5900 0.9900
v  1.0000 1.5900 -1.0400
v  1.0000 0.0000 -1.0400
v  1.0000 0.0000 0.9900
# 4 vertices

vn -1.0000 0.0000 -0.0000
# 1 vertex normals

g rightWall
usemtl rightWall

s 1
f 174//165 175//165 176//165 
f 176//165 177//165 174//165 
# 2 faces

## Object leftWall 
v  -1.0200 1.5900 -1.0400
v  -1.0200 1.5900 0.9900
v  -1.0100 0.0000 0.9900
v  -0.9900 0.0000 -1.0400
# 4 vertices

vn 0.9999 0.0135 0.0057
vn 1.0000 0.0063 -0.0000
vn 0.9999 0.0116 0.0042
vn 0.9998 0.0189 0.0098
# 4 vertex normals

g leftWall
usemtl leftWall

s 1
f 178//166 179//167 180//168 
f 180//168 181//169 178//166 
# 2 faces

## Object light
v  0.2300 1.5800 -0.2200
v  0.2300 1.5800 0.1600
v  -0.2400 1.5800 0.1600
v  -0.2400 1.5800 -0.2200
# 4 vertices

vn 0.0000 -1.0000 -0.0000
# 1 vertex normals

g light
usemtl light

s 1
f 182//170 183//170 184//170 
f 184//170 185//170 182//170 
# 2 faces
