mtllib CornellBox-Sphere.mtl

## Object leftSphere

v 0.0414576 0.344323 0.131649
vn 0.629253 -0.761993 0.152995
v 0.0922828 0.396292 0.0665814
vn 0.69816 -0.711627 0.0784835
v 0.0954141 0.394982 0.162721
vn 0.688884 -0.699996 0.188265
v 0.012491 0.353181 0.0546218
vn 0.619665 -0.782083 0.0660444
v 0.0348806 0.408555 -0.0027431
vn 0.670746 -0.741679 -0.00343987
v 0.109201 0.478372 0.0164342
vn 0.759432 -0.650264 0.020487
v 0.0133396 0.377742 0.218241
vn 0.614282 -0.744618 0.261156
v 0.135052 0.460458 0.118373
vn 0.754514 -0.641037 0.14064
v -0.056962 0.342197 0.126256
vn 0.551678 -0.819106 0.157215
v -0.0727168 0.384122 0.0153786
vn 0.569907 -0.821453 0.0205118
v -0.0878827 0.387412 0.213232
vn 0.536271 -0.797135 0.277469
v 0.0912908 0.467326 0.230308
vn 0.71369 -0.64294 0.277983
v -0.153312 0.394092 0.117349
vn 0.489759 -0.855953 0.165776
v -0.0276209 0.457614 0.2811
vn 0.611707 -0.702361 0.36401
v -0.012547 0.480313 -0.0651767
vn 0.681281 -0.726332 -0.0910931
v 0.150584 0.570393 0.134355
vn 0.822357 -0.543035 0.169829
v -0.15566 0.458919 0.24248
vn 0.5022 -0.789134 0.353642
v -0.161399 0.451108 -0.0088311
vn 0.524972 -0.851009 -0.0136919
v -0.0870553 0.552231 0.31711
vn 0.601332 -0.652043 0.461778
v 0.0999336 0.57552 -0.0288154
vn 0.815701 -0.577146 -0.0391789
v 0.0529028 0.558429 0.285056
vn 0.724784 -0.578842 0.373671
v -0.128802 0.541426 -0.0925195
vn 0.621573 -0.767884 -0.154924
v -0.00178495 0.598518 -0.103893
vn 0.76858 -0.619353 -0.160272
v 0.0815656 0.692175 -0.0548013
vn 0.880778 -0.4662 -0.0829963
v 0.13874 0.660166 0.0437095
vn 0.881221 -0.468843 0.0603027
v 0.103841 0.649252 0.2396
vn 0.817903 -0.475089 0.324538
v 0.139928 0.688918 0.14275
vn 0.881794 -0.428658 0.196703
v 0.0932767 0.760791 0.222293
vn 0.876061 -0.353228 0.328248
v -0.000558913 0.674565 0.318381
vn 0.739029 -0.48155 0.471111
v -0.244317 0.542266 -0.0207499
vn 0.48728 -0.87235 -0.0395452
v -0.219043 0.553689 0.26304
vn 0.476732 -0.757308 0.446331
v -0.246305 0.487371 0.123291
vn 0.433588 -0.876128 0.210715
v -0.0138181 0.715471 -0.125916
vn 0.84228 -0.492928 -0.218142
v 0.121392 0.781868 0.0690027
vn 0.938416 -0.329419 0.104207
v -0.310309 0.580176 0.0714484
vn 0.40689 -0.900529 0.153258
v -0.215981 0.637772 -0.107559
vn 0.600844 -0.766297 -0.227541
v -0.10047 0.638917 -0.133372
vn 0.720145 -0.650845 -0.240401
v -0.157719 0.65052 0.328339
vn 0.580973 -0.593193 0.557308
v -0.299532 0.584827 0.178669
vn 0.405437 -0.83967 0.36135
v 0.0599223 0.807807 -0.0607497
vn 0.940891 -0.32296 -0.102084
v -0.140416 0.7313 -0.153237
vn 0.758101 -0.566491 -0.323064
v -0.0961232 0.751218 0.339227
vn 0.692557 -0.426605 0.581698
v 0.0805283 0.896793 0.0412974
vn 0.982156 -0.174609 0.0698683
v -0.363634 0.683974 0.123874
vn 0.372783 -0.863921 0.338635
v -0.318161 0.653384 -0.0237433
vn 0.463713 -0.883914 -0.0605484
v 0.0777124 0.872233 0.175879
vn 0.935931 -0.20699 0.284935
v -0.220013 0.760661 0.324375
vn 0.570459 -0.487641 0.660896
v 0.00427341 0.810063 0.295301
vn 0.820668 -0.309108 0.48058
v -0.283435 0.665876 0.263869
vn 0.45338 -0.699492 0.552411
v -0.0476404 0.825662 -0.139628
vn 0.896652 -0.345566 -0.276767
v -0.279004 0.769452 -0.121924
vn 0.646483 -0.674425 -0.356667
v 0.0167027 0.921517 -0.069987
vn 0.979913 -0.14884 -0.132728
v -0.338168 0.789145 0.251736
vn 0.442056 -0.575969 0.687638
v -0.378868 0.761181 -0.0053602
vn 0.452261 -0.891661 -0.020013
v 0.036909 0.986012 0.137835
vn 0.968283 -0.0252258 0.248578
v -0.0182554 0.945407 0.258155
vn 0.877057 -0.099392 0.469992
v -0.120489 0.864451 0.329045
vn 0.729461 -0.26054 0.63246
v -0.15974 0.837102 -0.164134
vn 0.827071 -0.395958 -0.398962
v 0.0323067 0.993457 0.0191038
vn 0.999281 -0.0122834 0.0358629
v -0.0955348 0.937605 -0.144593
vn 0.931858 -0.143752 -0.333131
v -0.416449 0.832239 0.107199
vn 0.386975 -0.777005 0.496502
v -0.25916 0.888928 0.31111
vn 0.589116 -0.271693 0.761003
v -0.0345486 1.03627 -0.0636076
vn 0.987851 0.0769748 -0.134998
v -0.150259 0.986565 0.301857
vn 0.756709 -0.0290679 0.653105
v -0.0554592 1.06599 0.209661
vn 0.89641 0.133074 0.422777
v -0.0156807 1.08707 0.0697956
vn 0.974468 0.175191 0.140431
v -0.233891 0.91398 -0.160251
vn 0.825591 -0.266874 -0.49717
v -0.144435 1.04705 -0.134803
vn 0.92798 0.122786 -0.351819
v -0.193966 1.10923 0.254507
vn 0.741455 0.26463 0.616616
v -0.278264 1.00655 0.286111
vn 0.612471 0.0180947 0.790286
v -0.280074 1.02303 -0.145659
vn 0.830563 0.0869742 -0.550091
v -0.373722 0.928268 0.233258
vn 0.459568 -0.261057 0.848909
v -0.438557 0.965929 0.110257
vn 0.469968 -0.260602 0.843337
v -0.2204 1.15222 -0.112248
vn 0.828297 0.450945 -0.332526
v -0.0915038 1.14515 -0.0348022
vn 0.939259 0.333751 -0.080021
v -0.105137 1.17442 0.136753
vn 0.87202 0.385191 0.302007
v -0.364091 1.08737 0.216924
vn 0.502467 0.323027 0.801985
v -0.386799 0.91177 -0.0697757
vn 0.709342 -0.552869 -0.43723
v -0.243946 1.21999 0.177521
vn 0.671342 0.576773 0.465438
v -0.362939 1.08688 -0.0988697
vn 0.721286 0.457199 -0.520304
v -0.434978 1.03149 -0.00527525
vn 0.897602 0.434751 -0.0728228
v -0.438226 1.08939 0.0982492
vn 0.421698 0.610197 0.670694
v -0.180886 1.24762 0.0166493
vn 0.789375 0.612528 0.0411844
v -0.324628 1.22853 -0.0567373
vn 0.59732 0.778373 -0.193249
v -0.424828 1.1418 -0.000402579
vn 0.468376 0.883526 -0.00250836
v -0.390188 1.20541 0.118226
vn 0.420399 0.78639 0.452609
v -0.282483 1.28099 0.075666
vn 0.598709 0.773415 0.208269
v -0.0128692 0.531154 0.111816
vn 0.710844 -0.684162 0.163168
v -0.11592 0.723667 0.0931314
vn 0.796458 -0.573025 0.193125
v -0.279567 1.12161 0.0645592
vn 0.848152 0.467904 0.248403
v -0.225511 0.945948 -0.0514172
vn 0.964995 -0.190026 -0.180762
v -0.304854 1.01878 -0.0213485
vn 0.989551 0.0952366 -0.108254
v -0.168387 1.05312 0.166425
vn 0.884739 0.141717 0.44402
v -0.31259 0.982801 0.0941197
vn 0.890645 -0.0817365 0.447293
v -0.164418 1.02503 0.0360258
vn 0.991564 0.0739561 0.106448
v -0.0572556 0.919323 0.0706318
vn 0.971903 -0.1771 0.15505
v -0.257341 0.853998 0.0879054
vn 0.818341 -0.492376 0.296452
v -0.140293 0.95385 0.171291
vn 0.896862 -0.115066 0.427081
v -0.226905 1.06693 -0.0551489
vn 0.953094 0.233596 -0.192468
v -0.142084 0.866996 -0.0435251
vn 0.93134 -0.346091 -0.113257
g leftSphere
usemtl leftSphere

s 1
f 75//75 76//76 66//66
f 77//77 82//82 73//73
f 46//46 43//43 55//55
f 72//72 77//77 73//73
f 43//43 59//59 55//55
f 77//77 86//86 82//82
f 53//53 44//44 49//49
f 8//8 12//12 3//3
f 3//3 12//12 7//7
f 2//2 8//8 3//3
f 74//74 84//84 83//83
f 74//74 68//68 71//71
f 79//79 87//87 86//86
f 2//2 4//4 5//5
f 38//38 47//47 49//49
f 76//76 83//83 79//79
f 50//50 58//58 60//60
f 46//46 34//34 43//43
f 30//30 22//22 18//18
f 75//75 66//66 63//63
f 20//20 25//25 16//16
f 6//6 15//15 20//20
f 52//52 50//50 60//60
f 2//2 3//3 1//1
f 36//36 45//45 51//51
f 66//66 55//55 59//59
f 16//16 26//26 21//21
f 16//16 25//25 27//27
f 50//50 52//52 40//40
f 13//13 10//10 9//9
f 24//24 25//25 20//20
f 44//44 39//39 49//49
f 14//14 19//19 17//17
f 24//24 23//23 33//33
f 31//31 19//19 38//38
f 22//22 15//15 18//18
f 43//43 34//34 40//40
f 31//31 39//39 32//32
f 16//16 8//8 6//6
f 21//21 26//26 29//29
f 57//57 56//56 64//64
f 47//47 62//62 53//53
f 3//3 7//7 1//1
f 29//29 48//48 42//42
f 30//30 45//45 36//36
f 76//76 69//69 65//65
f 28//28 34//34 46//46
f 17//17 11//11 14//14
f 46//46 56//56 48//48
f 84//84 80//80 85//85
f 43//43 52//52 59//59
f 77//77 69//69 79//79
f 56//56 55//55 65//65
f 67//67 51//51 78//78
f 75//75 83//83 76//76
f 17//17 32//32 13//13
f 48//48 28//28 46//46
f 6//6 8//8 2//2
f 79//79 69//69 76//76
f 44//44 45//45 35//35
f 5//5 6//6 2//2
f 16//16 12//12 8//8
f 58//58 41//41 51//51
f 21//21 12//12 16//16
f 48//48 56//56 57//57
f 58//58 51//51 67//67
f 23//23 15//15 22//22
f 27//27 34//34 28//28
f 73//73 81//81 78//78
f 14//14 12//12 21//21
f 10//10 15//15 5//5
f 80//80 84//84 74//74
f 29//29 19//19 21//21
f 70//70 77//77 72//72
f 24//24 34//34 25//25
f 28//28 26//26 27//27
f 49//49 39//39 31//31
f 40//40 33//33 50//50
f 83//83 84//84 87//87
f 5//5 15//15 6//6
f 17//17 19//19 31//31
f 38//38 29//29 42//42
f 49//49 47//47 53//53
f 68//68 67//67 71//71
f 9//9 11//11 13//13
f 42//42 47//47 38//38
f 65//65 66//66 76//76
f 1//1 4//4 2//2
f 85//85 81//81 82//82
f 68//68 60//60 67//67
f 16//16 6//6 20//20
f 79//79 86//86 77//77
f 13//13 11//11 17//17
f 86//86 85//85 82//82
f 39//39 44//44 35//35
f 64//64 56//56 65//65
f 78//78 61//61 73//73
f 79//79 83//83 87//87
f 54//54 61//61 78//78
f 87//87 84//84 86//86
f 73//73 61//61 72//72
f 84//84 85//85 86//86
f 48//48 57//57 42//42
f 59//59 63//63 66//66
f 25//25 34//34 27//27
f 14//14 11//11 7//7
f 28//28 48//48 29//29
f 29//29 26//26 28//28
f 51//51 54//54 78//78
f 70//70 62//62 64//64
f 20//20 23//23 24//24
f 54//54 45//45 44//44
f 32//32 30//30 18//18
f 74//74 75//75 68//68
f 71//71 80//80 74//74
f 65//65 55//55 66//66
f 74//74 83//83 75//75
f 56//56 46//46 55//55
f 53//53 72//72 61//61
f 71//71 78//78 80//80
f 62//62 47//47 57//57
f 71//71 67//67 78//78
f 58//58 67//67 60//60
f 80//80 81//81 85//85
f 13//13 18//18 10//10
f 59//59 52//52 63//63
f 21//21 19//19 14//14
f 44//44 53//53 61//61
f 9//9 4//4 1//1
f 77//77 70//70 69//69
f 37//37 23//23 22//22
f 1//1 7//7 9//9
f 5//5 4//4 10//10
f 62//62 57//57 64//64
f 80//80 78//78 81//81
f 33//33 23//23 37//37
f 40//40 34//34 24//24
f 32//32 18//18 13//13
f 50//50 41//41 58//58
f 75//75 63//63 68//68
f 37//37 41//41 33//33
f 10//10 4//4 9//9
f 7//7 11//11 9//9
f 63//63 52//52 60//60
f 57//57 47//47 42//42
f 49//49 31//31 38//38
f 35//35 32//32 39//39
f 31//31 32//32 17//17
f 73//73 82//82 81//81
f 30//30 32//32 35//35
f 20//20 15//15 23//23
f 27//27 26//26 16//16
f 35//35 45//45 30//30
f 36//36 37//37 22//22
f 7//7 12//12 14//14
f 36//36 41//41 37//37
f 18//18 15//15 10//10
f 70//70 64//64 69//69
f 33//33 41//41 50//50
f 54//54 44//44 61//61
f 24//24 33//33 40//40
f 51//51 45//45 54//54
f 40//40 52//52 43//43
f 38//38 19//19 29//29
f 51//51 41//41 36//36
f 72//72 62//62 70//70
f 22//22 30//30 36//36
f 53//53 62//62 72//72
f 69//69 64//64 65//65
f 63//63 60//60 68//68

## Object rightSphere

v -0.5875 0.25 0
vn 0 0 0
v -0.3375 0.25 0
vn 1 0 0
v -0.363893 0.361804 0
vn 0.894427 0.447214 0
v -0.356335 0.298578 0.0818727
vn 0.924658 0.194311 0.327491
v -0.365269 0.304668 -0.100621
vn 0.888925 0.218673 -0.402486
v -0.403472 0.399769 -0.078758
vn 0.736112 0.599077 -0.315032
v -0.432693 0.446087 0.00919147
vn 0.61923 0.784348 0.0367659
v -0.363941 0.188416 0.0934285
vn 0.894236 -0.246334 0.373714
v -0.410629 0.387968 0.110368
vn 0.707486 0.551874 0.441473
v -0.367473 0.191604 -0.103335
vn 0.880107 -0.233582 -0.413341
v -0.358458 0.149801 -8.75488e-05
vn 0.916168 -0.400795 -0.000350195
v -0.421135 0.251713 -0.186601
vn 0.665458 0.00685229 -0.746404
v -0.444167 0.364414 -0.169897
vn 0.573332 0.457656 -0.67959
v -0.485119 0.455304 -0.0993403
vn 0.409525 0.821214 -0.397361
v -0.409409 0.274129 0.173785
vn 0.712366 0.096514 0.69514
v -0.527304 0.492563 -0.00629535
vn 0.240784 0.970252 -0.0251814
v -0.442748 0.137095 -0.169703
vn 0.579009 -0.45162 -0.678813
v -0.436004 0.146356 0.169726
vn 0.605982 -0.414577 0.678905
v -0.511892 0.464419 0.103961
vn 0.302433 0.857675 0.415846
v -0.414726 0.0800885 0.061474
vn 0.691098 -0.679646 0.245896
v -0.500173 0.374247 0.198587
vn 0.349309 0.496986 0.794347
v -0.413442 0.0814998 -0.0617362
vn 0.696233 -0.674001 -0.246945
v -0.596483 0.483348 -0.0892645
vn -0.035932 0.933391 -0.357058
v -0.502895 0.196054 -0.22898
vn 0.338418 -0.215782 -0.915921
v -0.54919 0.415044 -0.183828
vn 0.153241 0.660177 -0.735312
v -0.518203 0.302872 -0.234313
vn 0.277186 0.211488 -0.937252
v -0.506754 0.236186 0.236198
vn 0.322982 -0.0552575 0.944791
v -0.533178 0.122009 0.207768
vn 0.21729 -0.511964 0.83107
v -0.500781 0.048265 -0.119511
vn 0.346876 -0.80694 -0.478043
v -0.627208 0.494429 0.0343175
vn -0.158833 0.977716 0.13727
v -0.514707 0.0432995 0.120316
vn 0.291174 -0.826802 0.481264
v -0.556411 0.102098 -0.199144
vn 0.124357 -0.591609 -0.796576
v -0.652097 0.431072 -0.159813
vn -0.258388 0.724289 -0.639251
v -0.502034 0.0151782 -0.0073646
vn 0.341866 -0.939287 -0.0294584
v -0.606661 0.322435 0.238508
vn -0.0766425 0.289742 0.954031
v -0.709291 0.458556 -0.0645855
vn -0.487165 0.834224 -0.258342
v -0.620815 0.440442 0.158499
vn -0.133259 0.761769 0.633996
v -0.609796 0.20734 -0.245322
vn -0.0891821 -0.170641 -0.981289
v -0.615078 0.185665 0.240001
vn -0.11031 -0.257341 0.960004
v -0.604107 0.0208233 -0.0985003
vn -0.0664263 -0.916707 -0.394001
v -0.738032 0.440036 0.0610438
vn -0.602127 0.760145 0.244175
v -0.625648 0.0683658 0.167492
vn -0.152591 -0.726537 0.66997
v -0.639455 0.335107 -0.229254
vn -0.207822 0.340429 -0.917016
v -0.70028 0.256923 0.223008
vn -0.451122 0.0276906 0.892033
v -0.798255 0.376885 -0.044525
vn -0.843022 0.507538 -0.1781
v -0.728947 0.364011 0.171739
vn -0.565787 0.456045 0.686955
v -0.682286 0.105617 -0.180746
vn -0.379144 -0.577531 -0.722985
v -0.618059 0.00569375 0.0433655
vn -0.122236 -0.977225 0.173462
v -0.740168 0.370642 -0.156965
vn -0.610673 0.482569 -0.627859
v -0.725921 0.239512 -0.207917
vn -0.553685 -0.0419533 -0.831669
v -0.716083 0.147342 0.188223
vn -0.514331 -0.410633 0.752891
v -0.811335 0.338188 0.0679763
vn -0.89534 0.352752 0.271905
v -0.726307 0.0495782 -0.0553525
vn -0.555226 -0.801687 -0.22141
v -0.728081 0.0603012 0.082167
vn -0.562323 -0.758795 0.328668
v -0.781603 0.249774 0.157556
vn -0.776413 -0.000904782 0.630224
v -0.790415 0.161365 -0.116058
vn -0.811658 -0.354539 -0.464234
v -0.800165 0.278246 -0.128358
vn -0.85066 0.112984 -0.513432
v -0.788956 0.146983 0.106315
vn -0.805824 -0.412069 0.42526
v -0.835034 0.250792 -0.035022
vn -0.990134 0.00316965 -0.140088
v -0.805951 0.128435 0.00096488
vn -0.873805 -0.486261 0.00385952
v -0.827736 0.222041 0.063286
vn -0.960943 -0.111836 0.253144
g rightSphere
usemtl rightSphere

s 1
f 160//160 161//161 159//159
f 159//159 161//161 152//152
f 156//156 160//160 159//159
f 134//134 120//120 131//131
f 153//153 156//156 147//147
f 155//155 158//158 151//151
f 139//139 128//128 127//127
f 116//116 123//123 130//130
f 112//112 117//117 124//124
f 150//150 149//149 143//143
f 126//126 112//112 124//124
f 139//139 127//127 135//135
f 152//152 155//155 146//146
f 120//120 111//111 108//108
f 110//110 105//105 102//102
f 132//132 117//117 129//129
f 138//138 126//126 124//124
f 106//106 105//105 113//113
f 127//127 128//128 118//118
f 137//137 130//130 141//141
f 121//121 115//115 109//109
f 141//141 152//152 146//146
f 131//131 120//120 118//118
f 128//128 139//139 142//142
f 149//149 145//145 136//136
f 122//122 117//117 110//110
f 123//123 116//116 114//114
f 153//153 147//147 140//140
f 129//129 134//134 140//140
f 132//132 129//129 140//140
f 108//108 115//115 118//118
f 148//148 153//153 140//140
f 115//115 127//127 118//118
f 103//103 106//106 107//107
f 160//160 156//156 153//153
f 126//126 125//125 113//113
f 121//121 109//109 119//119
f 136//136 145//145 141//141
f 111//111 122//122 110//110
f 117//117 112//112 110//110
f 134//134 122//122 120//120
f 131//131 128//128 142//142
f 148//148 131//131 142//142
f 128//128 131//131 118//118
f 156//156 159//159 157//157
f 150//150 138//138 147//147
f 133//133 149//149 136//136
f 158//158 154//154 151//151
f 106//106 114//114 107//107
f 148//148 134//134 131//131
f 123//123 114//114 125//125
f 154//154 142//142 151//151
f 160//160 154//154 158//158
f 121//121 127//127 115//115
f 108//108 111//111 102//102
f 109//109 103//103 107//107
f 127//127 121//121 135//135
f 142//142 139//139 151//151
f 104//104 115//115 108//108
f 161//161 160//160 158//158
f 154//154 148//148 142//142
f 138//138 143//143 126//126
f 145//145 149//149 157//157
f 105//105 112//112 113//113
f 156//156 150//150 147//147
f 112//112 105//105 110//110
f 135//135 137//137 146//146
f 123//123 136//136 130//130
f 145//145 159//159 152//152
f 144//144 139//139 135//135
f 149//149 150//150 157//157
f 114//114 116//116 107//107
f 144//144 155//155 151//151
f 123//123 133//133 136//136
f 116//116 119//119 107//107
f 161//161 155//155 152//152
f 149//149 133//133 143//143
f 109//109 104//104 103//103
f 138//138 150//150 143//143
f 133//133 123//123 125//125
f 148//148 154//154 153//153
f 134//134 148//148 140//140
f 132//132 138//138 124//124
f 104//104 108//108 102//102
f 122//122 134//134 129//129
f 137//137 119//119 130//130
f 111//111 110//110 102//102
f 125//125 114//114 113//113
f 144//144 135//135 146//146
f 139//139 144//144 151//151
f 138//138 132//132 147//147
f 103//103 104//104 102//102
f 130//130 136//136 141//141
f 141//141 145//145 152//152
f 137//137 121//121 119//119
f 154//154 160//160 153//153
f 122//122 111//111 120//120
f 112//112 126//126 113//113
f 150//150 156//156 157//157
f 117//117 122//122 129//129
f 115//115 104//104 109//109
f 119//119 109//109 107//107
f 105//105 106//106 103//103
f 119//119 116//116 130//130
f 147//147 132//132 140//140
f 121//121 137//137 135//135
f 105//105 103//103 102//102
f 143//143 133//133 125//125
f 159//159 145//145 157//157
f 114//114 106//106 113//113
f 120//120 108//108 118//118
f 137//137 141//141 146//146
f 155//155 144//144 146//146
f 126//126 143//143 125//125
f 155//155 161//161 158//158
f 117//117 132//132 124//124


## Object floor
v   1.0000 0.0000 -1.0400
v  -0.9900 0.0000 -1.0400
v  -1.0100 0.0000  0.9900
v   1.0000 0.0000  0.9900
# 4 vertices

vn 0.0000 1.0000 -0.0000
# 1 vertex normals

g floor
usemtl floor

s 1
f 162//162 163//162 164//162 
f 164//162 165//162 162//162 
# 2 faces

## Object ceiling 
v   1.0000 1.5900 -1.0400
v   1.0000 1.5900  0.9900
v  -1.0200 1.5900  0.9900
v  -1.0200 1.5900 -1.0400
# 4 vertices

vn 0.0000 -1.0000 -0.0000
# 1 vertex normals

g ceiling
usemtl ceiling

s 1
f 166//163 167//163 168//163 
f 168//163 169//163 166//163 
# 2 faces

## Object backwall 
v   1.0000 1.5900 -1.0400
v  -1.0200 1.5900 -1.0400
v  -0.9900 0.0000 -1.0400
v   1.0000 0.0000 -1.0400
# 4 vertices

vn 0.0000 0.0000 1.0000
# 1 vertex normals

g backWall
usemtl backWall

s 1
f 170//164 171//164 172//164 
f 172//164 173//164 170//164 
# 2 faces

## Object rightwall 
v  1.0000 1.5900 0.9900
v  1.0000 1.5900 -1.0400
v  1.0000 0.0000 -1.0400
v  1.0000 0.0000 0.9900
# 4 vertices

vn -1.0000 0.0000 -0.0000
# 1 vertex normals

g rightWall
usemtl rightWall

s 1
f 174//165 175//165 176//165 
f 176//165 177//165 174//165 
# 2 faces

## Object leftWall 
v  -1.0200 1.5900 -1.0400
v  -1.0200 1.5900 0.9900
v  -1.0100 0.0000 0.9900
v  -0.9900 0.0000 -1.0400
# 4 vertices

vn 0.9999 0.0135 0.0057
vn 1.0000 0.0063 -0.0000
vn 0.9999 0.0116 0.0042
vn 0.9998 0.0189 0.0098
# 4 vertex normals

g leftWall
usemtl leftWall

s 1
f 178//166 179//167 180//168 
f 180//168 181//169 178//166 
# 2 faces

## Object light
v  0.2300 1.5800 -0.2200
v  0.2300 1.5800 0.1600
v  -0.2400 1.5800 0.1600
v  -0.2400 1.5800 -0.2200
# 4 vertices

vn 0.0000 -1.0000 -0.0000
# 1 vertex normals

g light
usemtl light

s 1
f 182//170 183//170 184//170 
f 184//170 185//170 182//170 
# 2 faces
