mtllib CornellBox-Sphere.mtl

## Object leftSphere

v 0.0630723 0.425759 0.0963362
vn 0.69516 -0.708948 0.118935
v 0.107188 0.494306 0.0427958
vn 0.767281 -0.639027 0.0540795
v 0.100413 0.482818 0.137935
vn 0.746446 -0.642971 0.171484
v 0.0413033 0.436717 0.0173185
vn 0.692729 -0.720858 0.0221632
v 0.056303 0.501595 -0.032081
vn 0.744116 -0.666671 -0.0429118
v 0.110101 0.582829 0.00152592
vn 0.825474 -0.564436 0.00206458
v 0.0190587 0.441932 0.180546
vn 0.662711 -0.712516 0.230513
v 0.128669 0.559452 0.104077
vn 0.811514 -0.568679 0.134347
v -0.0309964 0.40276 0.0778054
vn 0.614397 -0.782386 0.101925
v -0.04377 0.452352 -0.0302734
vn 0.639489 -0.767628 -0.0424337
v -0.0804493 0.429335 0.162989
vn 0.577253 -0.785168 0.224254
v 0.0731874 0.543881 0.209725
vn 0.75226 -0.598618 0.275246
v -0.135099 0.432194 0.0602818
vn 0.538492 -0.837922 0.0889591
v -0.0450827 0.502406 0.243594
vn 0.634598 -0.69413 0.339807
v 0.000808954 0.567978 -0.0943539
vn 0.749604 -0.646644 -0.141228
v 0.11796 0.666857 0.129365
vn 0.865661 -0.46668 0.181219
v -0.165187 0.479459 0.189036
vn 0.517369 -0.804365 0.292108
v -0.142194 0.499921 -0.0606645
vn 0.57908 -0.809337 -0.0981805
v -0.12674 0.576141 0.27927
vn 0.592423 -0.672732 0.443246
v 0.0841081 0.679971 -0.037499
vn 0.875608 -0.47974 -0.056213
v 0.0107833 0.616774 0.265941
vn 0.738417 -0.554013 0.38446
v -0.122683 0.604112 -0.13178
vn 0.670728 -0.703739 -0.234255
v -0.0115142 0.689252 -0.12304
vn 0.825313 -0.525019 -0.20788
v 0.0434314 0.792512 -0.0574978
vn 0.92969 -0.354966 -0.0983659
v 0.0960298 0.761615 0.0447377
vn 0.926244 -0.370456 0.0695235
v 0.0457945 0.720475 0.233698
vn 0.831709 -0.425954 0.356122
v 0.0815675 0.777967 0.144919
vn 0.909898 -0.347384 0.226735
v 0.0136098 0.827501 0.223438
vn 0.876366 -0.294333 0.381249
v -0.0685411 0.712835 0.300546
vn 0.720151 -0.479309 0.501643
v -0.242186 0.570141 -0.0757672
vn 0.508571 -0.847949 -0.14946
v -0.249305 0.553913 0.209153
vn 0.453501 -0.806961 0.378353
v -0.247086 0.500036 0.0620381
vn 0.448653 -0.886904 0.110052
v -0.0487889 0.802036 -0.137246
vn 0.882158 -0.387037 -0.268328
v 0.0503691 0.872719 0.0765727
vn 0.965456 -0.223276 0.134324
v -0.324105 0.580508 0.0100869
vn 0.386592 -0.921984 0.0221697
v -0.228681 0.678888 -0.149668
vn 0.608016 -0.7196 -0.3354
v -0.114226 0.709329 -0.161042
vn 0.757665 -0.570881 -0.316289
v -0.216099 0.653653 0.290043
vn 0.532094 -0.649131 0.543604
v -0.325263 0.574859 0.118377
vn 0.36814 -0.895697 0.249399
v -0.00441033 0.899951 -0.0566691
vn 0.974125 -0.196655 -0.111388
v -0.173627 0.791731 -0.177924
vn 0.765973 -0.488792 -0.417574
v -0.177784 0.763004 0.317232
vn 0.631158 -0.464228 0.621395
v -0.0130196 0.977682 0.0546543
vn 0.992732 -0.0454954 0.111415
v -0.403985 0.660117 0.0660074
vn 0.267229 -0.945959 0.183712
v -0.339929 0.660405 -0.0785649
vn 0.417326 -0.885372 -0.20483
v -0.0210037 0.937324 0.185738
vn 0.925497 -0.1211 0.358874
v -0.297992 0.744903 0.290022
vn 0.463444 -0.585242 0.665366
v -0.0890183 0.84721 0.290063
vn 0.781742 -0.290626 0.551739
v -0.334536 0.646103 0.21294
vn 0.371885 -0.795395 0.478589
v -0.106708 0.90235 -0.145655
vn 0.913326 -0.226768 -0.338248
v -0.320579 0.79331 -0.159183
vn 0.566664 -0.65279 -0.502749
v -0.0721286 1.00091 -0.0609924
vn 0.98999 0.00211377 -0.141121
v -0.412003 0.75108 0.207996
vn 0.261815 -0.740601 0.61884
v -0.424894 0.747237 -0.0547379
vn 0.278888 -0.938568 -0.203255
v -0.0833546 1.04331 0.153183
vn 0.934141 0.0970944 0.343444
v -0.136286 0.97729 0.264209
vn 0.808034 -0.0504526 0.586971
v -0.223685 0.867313 0.31591
vn 0.627738 -0.301441 0.71769
v -0.217624 0.890919 -0.18056
vn 0.80113 -0.309474 -0.512267
v -0.0810107 1.06303 0.0351689
vn 0.985485 0.148246 0.0827191
v -0.181663 0.999994 -0.145669
vn 0.909319 -1.73461e-05 -0.4161
v -0.486479 0.790431 0.0619777
vn 0.0617535 -0.957113 0.283056
v -0.361634 0.858983 0.286332
vn 0.397746 -0.405366 0.823089
v -0.150945 1.09867 -0.0500735
vn 0.953249 0.269475 -0.136748
v -0.27682 0.98016 0.298472
vn 0.597995 -0.0531613 0.799735
v -0.196488 1.09019 0.223114
vn 0.783579 0.232834 0.576014
v -0.153002 1.13628 0.0893803
vn 0.905141 0.355473 0.233148
v -0.309858 0.947577 -0.175634
vn 0.71996 -0.198494 -0.665025
v -0.257621 1.09276 -0.127735
vn 0.837946 0.32068 -0.441601
v -0.344153 1.09156 0.260766
vn 0.491186 0.288579 0.821863
v -0.404196 0.968494 0.273424
vn 0.328736 -0.108108 0.938214
v -0.383075 1.03962 -0.151476
vn 0.59835 0.202739 -0.77516
v -0.475395 0.875966 0.203544
vn 0.102683 -0.517616 0.849429
v -0.538047 0.911119 0.080839
vn -0.301903 -0.705262 0.641451
v -0.359413 1.173 -0.0972947
vn 0.578 0.711271 -0.400012
v -0.235412 1.18659 -0.0137657
vn 0.816483 0.575804 -0.0424792
v -0.26549 1.19003 0.158008
vn 0.688327 0.557774 0.463782
v -0.501118 1.03145 0.207596
vn -0.00532481 0.1498 0.988702
v -0.463332 0.897263 -0.10012
vn 0.247647 -0.69386 -0.676188
v -0.414027 1.19295 0.193809
vn 0.299899 0.673053 0.676062
v -0.481444 1.07386 -0.103161
vn 0.144716 0.575999 -0.804538
v -0.542466 0.989838 -0.0243135
vn -0.8497 -0.203332 -0.486483
v -0.565362 1.02983 0.084441
vn -0.589536 0.26904 0.76162
v -0.351108 1.25534 0.0438862
vn 0.498265 0.854496 0.146865
v -0.481977 1.21235 -0.0403167
vn 0.0830969 0.979052 -0.185884
v -0.559558 1.09668 -0.004676
vn -0.524061 0.850686 -0.0411451
v -0.548114 1.14887 0.121962
vn -0.242541 0.750458 0.614806
v -0.461189 1.25401 0.0984821
vn 0.141034 0.923058 0.357874
v -0.0305493 0.597341 0.0844352
vn 0.752063 -0.645062 0.135266
v -0.170264 0.761651 0.0673161
vn 0.799569 -0.577966 0.163233
v -0.416322 1.10308 0.0683944
vn 0.560282 0.690195 0.457947
v -0.315971 0.965646 -0.063363
vn 0.93113 -0.173822 -0.320597
v -0.412063 1.01144 -0.0310171
vn 0.936038 0.121774 -0.330157
v -0.299572 1.05464 0.169487
vn 0.747562 0.20378 0.632159
v -0.418037 0.95921 0.078139
vn 0.680961 -0.338886 0.64919
v -0.279781 1.04405 0.0372875
vn 0.967331 0.193505 0.163789
v -0.153955 0.965258 0.0706526
vn 0.97508 -0.0978964 0.199084
v -0.335187 0.851596 0.0611253
vn 0.716421 -0.645091 0.265704
v -0.249567 0.966539 0.166301
vn 0.827941 -0.110623 0.549797
v -0.346444 1.08133 -0.0525387
vn 0.845876 0.448032 -0.289413
v -0.216551 0.909137 -0.0568852
vn 0.935341 -0.299836 -0.187713
g leftSphere
usemtl leftSphere

s 1
f 75//75 76//76 66//66
f 77//77 82//82 73//73
f 46//46 43//43 55//55
f 72//72 77//77 73//73
f 43//43 59//59 55//55
f 77//77 86//86 82//82
f 53//53 44//44 49//49
f 8//8 12//12 3//3
f 3//3 12//12 7//7
f 2//2 8//8 3//3
f 74//74 84//84 83//83
f 74//74 68//68 71//71
f 79//79 87//87 86//86
f 2//2 4//4 5//5
f 38//38 47//47 49//49
f 76//76 83//83 79//79
f 50//50 58//58 60//60
f 46//46 34//34 43//43
f 30//30 22//22 18//18
f 75//75 66//66 63//63
f 20//20 25//25 16//16
f 6//6 15//15 20//20
f 52//52 50//50 60//60
f 2//2 3//3 1//1
f 36//36 45//45 51//51
f 66//66 55//55 59//59
f 16//16 26//26 21//21
f 16//16 25//25 27//27
f 50//50 52//52 40//40
f 13//13 10//10 9//9
f 24//24 25//25 20//20
f 44//44 39//39 49//49
f 14//14 19//19 17//17
f 24//24 23//23 33//33
f 31//31 19//19 38//38
f 22//22 15//15 18//18
f 43//43 34//34 40//40
f 31//31 39//39 32//32
f 16//16 8//8 6//6
f 21//21 26//26 29//29
f 57//57 56//56 64//64
f 47//47 62//62 53//53
f 3//3 7//7 1//1
f 29//29 48//48 42//42
f 30//30 45//45 36//36
f 76//76 69//69 65//65
f 28//28 34//34 46//46
f 17//17 11//11 14//14
f 46//46 56//56 48//48
f 84//84 80//80 85//85
f 43//43 52//52 59//59
f 77//77 69//69 79//79
f 56//56 55//55 65//65
f 67//67 51//51 78//78
f 75//75 83//83 76//76
f 17//17 32//32 13//13
f 48//48 28//28 46//46
f 6//6 8//8 2//2
f 79//79 69//69 76//76
f 44//44 45//45 35//35
f 5//5 6//6 2//2
f 16//16 12//12 8//8
f 58//58 41//41 51//51
f 21//21 12//12 16//16
f 48//48 56//56 57//57
f 58//58 51//51 67//67
f 23//23 15//15 22//22
f 27//27 34//34 28//28
f 73//73 81//81 78//78
f 14//14 12//12 21//21
f 10//10 15//15 5//5
f 80//80 84//84 74//74
f 29//29 19//19 21//21
f 70//70 77//77 72//72
f 24//24 34//34 25//25
f 28//28 26//26 27//27
f 49//49 39//39 31//31
f 40//40 33//33 50//50
f 83//83 84//84 87//87
f 5//5 15//15 6//6
f 17//17 19//19 31//31
f 38//38 29//29 42//42
f 49//49 47//47 53//53
f 68//68 67//67 71//71
f 9//9 11//11 13//13
f 42//42 47//47 38//38
f 65//65 66//66 76//76
f 1//1 4//4 2//2
f 85//85 81//81 82//82
f 68//68 60//60 67//67
f 16//16 6//6 20//20
f 79//79 86//86 77//77
f 13//13 11//11 17//17
f 86//86 85//85 82//82
f 39//39 44//44 35//35
f 64//64 56//56 65//65
f 78//78 61//61 73//73
f 79//79 83//83 87//87
f 54//54 61//61 78//78
f 87//87 84//84 86//86
f 73//73 61//61 72//72
f 84//84 85//85 86//86
f 48//48 57//57 42//42
f 59//59 63//63 66//66
f 25//25 34//34 27//27
f 14//14 11//11 7//7
f 28//28 48//48 29//29
f 29//29 26//26 28//28
f 51//51 54//54 78//78
f 70//70 62//62 64//64
f 20//20 23//23 24//24
f 54//54 45//45 44//44
f 32//32 30//30 18//18
f 74//74 75//75 68//68
f 71//71 80//80 74//74
f 65//65 55//55 66//66
f 74//74 83//83 75//75
f 56//56 46//46 55//55
f 53//53 72//72 61//61
f 71//71 78//78 80//80
f 62//62 47//47 57//57
f 71//71 67//67 78//78
f 58//58 67//67 60//60
f 80//80 81//81 85//85
f 13//13 18//18 10//10
f 59//59 52//52 63//63
f 21//21 19//19 14//14
f 44//44 53//53 61//61
f 9//9 4//4 1//1
f 77//77 70//70 69//69
f 37//37 23//23 22//22
f 1//1 7//7 9//9
f 5//5 4//4 10//10
f 62//62 57//57 64//64
f 80//80 78//78 81//81
f 33//33 23//23 37//37
f 40//40 34//34 24//24
f 32//32 18//18 13//13
f 50//50 41//41 58//58
f 75//75 63//63 68//68
f 37//37 41//41 33//33
f 10//10 4//4 9//9
f 7//7 11//11 9//9
f 63//63 52//52 60//60
f 57//57 47//47 42//42
f 49//49 31//31 38//38
f 35//35 32//32 39//39
f 31//31 32//32 17//17
f 73//73 82//82 81//81
f 30//30 32//32 35//35
f 20//20 15//15 23//23
f 27//27 26//26 16//16
f 35//35 45//45 30//30
f 36//36 37//37 22//22
f 7//7 12//12 14//14
f 36//36 41//41 37//37
f 18//18 15//15 10//10
f 70//70 64//64 69//69
f 33//33 41//41 50//50
f 54//54 44//44 61//61
f 24//24 33//33 40//40
f 51//51 45//45 54//54
f 40//40 52//52 43//43
f 38//38 19//19 29//29
f 51//51 41//41 36//36
f 72//72 62//62 70//70
f 22//22 30//30 36//36
f 53//53 62//62 72//72
f 69//69 64//64 65//65
f 63//63 60//60 68//68

## Object rightSphere

v -0.5875 0.25 0
vn 0 0 0
v -0.3375 0.25 0
vn 1 0 0
v -0.363893 0.361804 0
vn 0.894427 0.447214 0
v -0.356335 0.298578 0.0818727
vn 0.924658 0.194311 0.327491
v -0.365269 0.304668 -0.100621
vn 0.888925 0.218673 -0.402486
v -0.403472 0.399769 -0.078758
vn 0.736112 0.599077 -0.315032
v -0.432693 0.446087 0.00919147
vn 0.61923 0.784348 0.0367659
v -0.363941 0.188416 0.0934285
vn 0.894236 -0.246334 0.373714
v -0.410629 0.387968 0.110368
vn 0.707486 0.551874 0.441473
v -0.367473 0.191604 -0.103335
vn 0.880107 -0.233582 -0.413341
v -0.358458 0.149801 -8.75488e-05
vn 0.916168 -0.400795 -0.000350195
v -0.421135 0.251713 -0.186601
vn 0.665458 0.00685229 -0.746404
v -0.444167 0.364414 -0.169897
vn 0.573332 0.457656 -0.67959
v -0.485119 0.455304 -0.0993403
vn 0.409525 0.821214 -0.397361
v -0.409409 0.274129 0.173785
vn 0.712366 0.096514 0.69514
v -0.527304 0.492563 -0.00629535
vn 0.240784 0.970252 -0.0251814
v -0.442748 0.137095 -0.169703
vn 0.579009 -0.45162 -0.678813
v -0.436004 0.146356 0.169726
vn 0.605982 -0.414577 0.678905
v -0.511892 0.464419 0.103961
vn 0.302433 0.857675 0.415846
v -0.414726 0.0800885 0.061474
vn 0.691098 -0.679646 0.245896
v -0.500173 0.374247 0.198587
vn 0.349309 0.496986 0.794347
v -0.413442 0.0814998 -0.0617362
vn 0.696233 -0.674001 -0.246945
v -0.596483 0.483348 -0.0892645
vn -0.035932 0.933391 -0.357058
v -0.502895 0.196054 -0.22898
vn 0.338418 -0.215782 -0.915921
v -0.54919 0.415044 -0.183828
vn 0.153241 0.660177 -0.735312
v -0.518203 0.302872 -0.234313
vn 0.277186 0.211488 -0.937252
v -0.506754 0.236186 0.236198
vn 0.322982 -0.0552575 0.944791
v -0.533178 0.122009 0.207768
vn 0.21729 -0.511964 0.83107
v -0.500781 0.048265 -0.119511
vn 0.346876 -0.80694 -0.478043
v -0.627208 0.494429 0.0343175
vn -0.158833 0.977716 0.13727
v -0.514707 0.0432995 0.120316
vn 0.291174 -0.826802 0.481264
v -0.556411 0.102098 -0.199144
vn 0.124357 -0.591609 -0.796576
v -0.652097 0.431072 -0.159813
vn -0.258388 0.724289 -0.639251
v -0.502034 0.0151782 -0.0073646
vn 0.341866 -0.939287 -0.0294584
v -0.606661 0.322435 0.238508
vn -0.0766425 0.289742 0.954031
v -0.709291 0.458556 -0.0645855
vn -0.487165 0.834224 -0.258342
v -0.620815 0.440442 0.158499
vn -0.133259 0.761769 0.633996
v -0.609796 0.20734 -0.245322
vn -0.0891821 -0.170641 -0.981289
v -0.615078 0.185665 0.240001
vn -0.11031 -0.257341 0.960004
v -0.604107 0.0208233 -0.0985003
vn -0.0664263 -0.916707 -0.394001
v -0.738032 0.440036 0.0610438
vn -0.602127 0.760145 0.244175
v -0.625648 0.0683658 0.167492
vn -0.152591 -0.726537 0.66997
v -0.639455 0.335107 -0.229254
vn -0.207822 0.340429 -0.917016
v -0.70028 0.256923 0.223008
vn -0.451122 0.0276906 0.892033
v -0.798255 0.376885 -0.044525
vn -0.843022 0.507538 -0.1781
v -0.728947 0.364011 0.171739
vn -0.565787 0.456045 0.686955
v -0.682286 0.105617 -0.180746
vn -0.379144 -0.577531 -0.722985
v -0.618059 0.00569375 0.0433655
vn -0.122236 -0.977225 0.173462
v -0.740168 0.370642 -0.156965
vn -0.610673 0.482569 -0.627859
v -0.725921 0.239512 -0.207917
vn -0.553685 -0.0419533 -0.831669
v -0.716083 0.147342 0.188223
vn -0.514331 -0.410633 0.752891
v -0.811335 0.338188 0.0679763
vn -0.89534 0.352752 0.271905
v -0.726307 0.0495782 -0.0553525
vn -0.555226 -0.801687 -0.22141
v -0.728081 0.0603012 0.082167
vn -0.562323 -0.758795 0.328668
v -0.781603 0.249774 0.157556
vn -0.776413 -0.000904782 0.630224
v -0.790415 0.161365 -0.116058
vn -0.811658 -0.354539 -0.464234
v -0.800165 0.278246 -0.128358
vn -0.85066 0.112984 -0.513432
v -0.788956 0.146983 0.106315
vn -0.805824 -0.412069 0.42526
v -0.835034 0.250792 -0.035022
vn -0.990134 0.00316965 -0.140088
v -0.805951 0.128435 0.00096488
vn -0.873805 -0.486261 0.00385952
v -0.827736 0.222041 0.063286
vn -0.960943 -0.111836 0.253144
g rightSphere
usemtl rightSphere

s 1
f 160//160 161//161 159//159
f 159//159 161//161 152//152
f 156//156 160//160 159//159
f 134//134 120//120 131//131
f 153//153 156//156 147//147
f 155//155 158//158 151//151
f 139//139 128//128 127//127
f 116//116 123//123 130//130
f 112//112 117//117 124//124
f 150//150 149//149 143//143
f 126//126 112//112 124//124
f 139//139 127//127 135//135
f 152//152 155//155 146//146
f 120//120 111//111 108//108
f 110//110 105//105 102//102
f 132//132 117//117 129//129
f 138//138 126//126 124//124
f 106//106 105//105 113//113
f 127//127 128//128 118//118
f 137//137 130//130 141//141
f 121//121 115//115 109//109
f 141//141 152//152 146//146
f 131//131 120//120 118//118
f 128//128 139//139 142//142
f 149//149 145//145 136//136
f 122//122 117//117 110//110
f 123//123 116//116 114//114
f 153//153 147//147 140//140
f 129//129 134//134 140//140
f 132//132 129//129 140//140
f 108//108 115//115 118//118
f 148//148 153//153 140//140
f 115//115 127//127 118//118
f 103//103 106//106 107//107
f 160//160 156//156 153//153
f 126//126 125//125 113//113
f 121//121 109//109 119//119
f 136//136 145//145 141//141
f 111//111 122//122 110//110
f 117//117 112//112 110//110
f 134//134 122//122 120//120
f 131//131 128//128 142//142
f 148//148 131//131 142//142
f 128//128 131//131 118//118
f 156//156 159//159 157//157
f 150//150 138//138 147//147
f 133//133 149//149 136//136
f 158//158 154//154 151//151
f 106//106 114//114 107//107
f 148//148 134//134 131//131
f 123//123 114//114 125//125
f 154//154 142//142 151//151
f 160//160 154//154 158//158
f 121//121 127//127 115//115
f 108//108 111//111 102//102
f 109//109 103//103 107//107
f 127//127 121//121 135//135
f 142//142 139//139 151//151
f 104//104 115//115 108//108
f 161//161 160//160 158//158
f 154//154 148//148 142//142
f 138//138 143//143 126//126
f 145//145 149//149 157//157
f 105//105 112//112 113//113
f 156//156 150//150 147//147
f 112//112 105//105 110//110
f 135//135 137//137 146//146
f 123//123 136//136 130//130
f 145//145 159//159 152//152
f 144//144 139//139 135//135
f 149//149 150//150 157//157
f 114//114 116//116 107//107
f 144//144 155//155 151//151
f 123//123 133//133 136//136
f 116//116 119//119 107//107
f 161//161 155//155 152//152
f 149//149 133//133 143//143
f 109//109 104//104 103//103
f 138//138 150//150 143//143
f 133//133 123//123 125//125
f 148//148 154//154 153//153
f 134//134 148//148 140//140
f 132//132 138//138 124//124
f 104//104 108//108 102//102
f 122//122 134//134 129//129
f 137//137 119//119 130//130
f 111//111 110//110 102//102
f 125//125 114//114 113//113
f 144//144 135//135 146//146
f 139//139 144//144 151//151
f 138//138 132//132 147//147
f 103//103 104//104 102//102
f 130//130 136//136 141//141
f 141//141 145//145 152//152
f 137//137 121//121 119//119
f 154//154 160//160 153//153
f 122//122 111//111 120//120
f 112//112 126//126 113//113
f 150//150 156//156 157//157
f 117//117 122//122 129//129
f 115//115 104//104 109//109
f 119//119 109//109 107//107
f 105//105 106//106 103//103
f 119//119 116//116 130//130
f 147//147 132//132 140//140
f 121//121 137//137 135//135
f 105//105 103//103 102//102
f 143//143 133//133 125//125
f 159//159 145//145 157//157
f 114//114 106//106 113//113
f 120//120 108//108 118//118
f 137//137 141//141 146//146
f 155//155 144//144 146//146
f 126//126 143//143 125//125
f 155//155 161//161 158//158
f 117//117 132//132 124//124


## Object floor
v   1.0000 0.0000 -1.0400
v  -0.9900 0.0000 -1.0400
v  -1.0100 0.0000  0.9900
v   1.0000 0.0000  0.9900
# 4 vertices

vn 0.0000 1.0000 -0.0000
# 1 vertex normals

g floor
usemtl floor

s 1
f 162//162 163//162 164//162 
f 164//162 165//162 162//162 
# 2 faces

## Object ceiling 
v   1.0000 1.5900 -1.0400
v   1.0000 1.5900  0.9900
v  -1.0200 1.5900  0.9900
v  -1.0200 1.5900 -1.0400
# 4 vertices

vn 0.0000 -1.0000 -0.0000
# 1 vertex normals

g ceiling
usemtl ceiling

s 1
f 166//163 167//163 168//163 
f 168//163 169//163 166//163 
# 2 faces

## Object backwall 
v   1.0000 1.5900 -1.0400
v  -1.0200 1.5900 -1.0400
v  -0.9900 0.0000 -1.0400
v   1.0000 0.0000 -1.0400
# 4 vertices

vn 0.0000 0.0000 1.0000
# 1 vertex normals

g backWall
usemtl backWall

s 1
f 170//164 171//164 172//164 
f 172//164 173//164 170//164 
# 2 faces

## Object rightwall 
v  1.0000 1.5900 0.9900
v  1.0000 1.5900 -1.0400
v  1.0000 0.0000 -1.0400
v  1.0000 0.0000 0.9900
# 4 vertices

vn -1.0000 0.0000 -0.0000
# 1 vertex normals

g rightWall
usemtl rightWall

s 1
f 174//165 175//165 176//165 
f 176//165 177//165 174//165 
# 2 faces

## Object leftWall 
v  -1.0200 1.5900 -1.0400
v  -1.0200 1.5900 0.9900
v  -1.0100 0.0000 0.9900
v  -0.9900 0.0000 -1.0400
# 4 vertices

vn 0.9999 0.0135 0.0057
vn 1.0000 0.0063 -0.0000
vn 0.9999 0.0116 0.0042
vn 0.9998 0.0189 0.0098
# 4 vertex normals

g leftWall
usemtl leftWall

s 1
f 178//166 179//167 180//168 
f 180//168 181//169 178//166 
# 2 faces

## Object light
v  0.2300 1.5800 -0.2200
v  0.2300 1.5800 0.1600
v  -0.2400 1.5800 0.1600
v  -0.2400 1.5800 -0.2200
# 4 vertices

vn 0.0000 -1.0000 -0.0000
# 1 vertex normals

g light
usemtl light

s 1
f 182//170 183//170 184//170 
f 184//170 185//170 182//170 
# 2 faces
