mtllib CornellBox-Sphere.mtl

## Object leftSphere

v -0.228898 0.872578 0.00730386
vn 0.90475 -0.425245 0.0243752
v 0.0177294 0.925391 0.00720243
vn 0.989682 -0.142621 0.013768
v -0.0343769 1.02606 -0.00124089
vn 0.998434 0.0558762 -0.00266083
v -0.0154569 0.97486 0.084589
vn 0.983817 -0.0510442 0.17175
v -0.0197205 0.964406 -0.0970351
vn 0.977618 -0.0724531 -0.197517
v -0.0771853 1.0466 -0.0812204
vn 0.976343 0.10761 -0.18755
v -0.118687 1.09936 -5.65472e-05
vn 0.967685 0.25216 -0.000143504
v 0.000432432 0.868132 0.103149
vn 0.948338 -0.249894 0.19547
v -0.087101 1.05129 0.105812
vn 0.96176 0.119462 0.246467
v -0.00116467 0.852721 -0.0925278
vn 0.944247 -0.278785 -0.175146
v 0.015904 0.823275 0.013295
vn 0.945753 -0.323971 0.0243724
v -0.0662407 0.897277 -0.177872
vn 0.903788 -0.214035 -0.370617
v -0.109014 1.00699 -0.169797
vn 0.917115 0.0164075 -0.398285
v -0.17072 1.08966 -0.111359
vn 0.917272 0.249763 -0.31021
v -0.0628843 0.946419 0.176308
vn 0.921468 -0.112953 0.37167
v -0.219837 1.11724 -0.0202344
vn 0.920445 0.385177 -0.0664779
v -0.0622756 0.780123 -0.156538
vn 0.85119 -0.427569 -0.304401
v -0.0591896 0.814402 0.185754
vn 0.859123 -0.361723 0.362028
v -0.201404 1.10227 0.094566
vn 0.906244 0.310399 0.287009
v -0.0262023 0.747907 0.0831424
vn 0.87241 -0.464181 0.153091
v -0.170816 1.02771 0.197812
vn 0.854924 0.0719536 0.513738
v -0.0245842 0.744647 -0.0416363
vn 0.878355 -0.471778 -0.0769252
v -0.286742 1.091 -0.103115
vn 0.840398 0.35862 -0.406353
v -0.133653 0.821356 -0.213491
vn 0.796215 -0.388262 -0.463999
v -0.224004 1.03044 -0.1886
vn 0.822239 0.0906859 -0.561871
v -0.170184 0.922549 -0.224266
vn 0.811773 -0.190629 -0.551983
v -0.145182 0.892323 0.242309
vn 0.801036 -0.243092 0.547036
v -0.149073 0.771113 0.226226
vn 0.737012 -0.480706 0.475116
v -0.101187 0.688249 -0.0926893
vn 0.774969 -0.605791 -0.180113
v -0.31817 1.10066 0.0197656
vn 0.870952 0.482162 0.0946754
v -0.11518 0.696614 0.141115
vn 0.754631 -0.59494 0.276726
v -0.164336 0.721112 -0.180424
vn 0.710805 -0.590576 -0.382067
v -0.328349 1.02014 -0.164071
vn 0.720302 0.0845013 -0.688495
v -0.0962665 0.65842 0.0165948
vn 0.763049 -0.645579 0.0313638
v -0.266787 0.956464 0.24009
vn 0.690939 -0.128983 0.711313
v -0.391102 1.04708 -0.0713861
vn 0.786493 0.340025 -0.51557
v -0.301146 1.06183 0.151373
vn 0.772402 0.240173 0.587973
v -0.237095 0.80892 -0.2368
vn 0.653788 -0.475175 -0.588872
v -0.240788 0.822919 0.252708
vn 0.643203 -0.439406 0.627066
v -0.196123 0.640352 -0.0790419
vn 0.63649 -0.753306 -0.165559
v -0.415176 1.02937 0.0545203
vn 0.807648 0.279688 0.519114
v -0.226788 0.697768 0.188312
vn 0.608717 -0.673374 0.41956
v -0.294194 0.930176 -0.222684
vn 0.661418 -0.2244 -0.715661
v -0.339939 0.869185 0.226784
vn 0.521609 -0.426301 0.739047
v -0.462307 0.949096 -0.0442261
vn 0.487924 -0.658928 -0.572489
v -0.390335 0.967462 0.173493
vn 0.527719 -0.156576 0.834864
v -0.289037 0.703663 -0.162243
vn 0.529657 -0.744003 -0.407337
v -0.207774 0.63301 0.0656357
vn 0.616909 -0.774741 0.138561
v -0.404228 0.948317 -0.156663
vn 0.502075 -0.27094 -0.821287
v -0.358897 0.824081 -0.200285
vn 0.467823 -0.583258 -0.664042
v -0.329995 0.760592 0.199961
vn 0.478551 -0.673915 0.562875
v -0.461623 0.91459 0.0722299
vn 0.324521 -0.722238 0.610785
v -0.322394 0.647836 -0.0353942
vn 0.448499 -0.889303 -0.0893793
v -0.327945 0.663769 0.100298
vn 0.44028 -0.860396 0.256658
v -0.42016 0.840364 0.171081
vn 0.322928 -0.645678 0.691966
v -0.406252 0.743072 -0.102316
vn 0.321044 -0.879864 -0.350386
v -0.442072 0.849627 -0.119868
vn 0.288431 -0.748727 -0.596838
v -0.401833 0.737717 0.119246
vn 0.322513 -0.861688 0.391763
v -0.475073 0.818775 -0.0252041
vn 0.134989 -0.981401 -0.136489
v -0.417897 0.708853 0.0192829
vn 0.270864 -0.960513 0.0636154
v -0.456655 0.801127 0.0759168
vn 0.199527 -0.915459 0.349463
g leftSphere
usemtl leftSphere

s 1
f 60//60 61//61 59//59
f 59//59 61//61 52//52
f 56//56 60//60 59//59
f 34//34 20//20 31//31
f 53//53 56//56 47//47
f 55//55 58//58 51//51
f 39//39 28//28 27//27
f 16//16 23//23 30//30
f 12//12 17//17 24//24
f 50//50 49//49 43//43
f 26//26 12//12 24//24
f 39//39 27//27 35//35
f 52//52 55//55 46//46
f 20//20 11//11 8//8
f 10//10 5//5 2//2
f 32//32 17//17 29//29
f 38//38 26//26 24//24
f 6//6 5//5 13//13
f 27//27 28//28 18//18
f 37//37 30//30 41//41
f 21//21 15//15 9//9
f 41//41 52//52 46//46
f 31//31 20//20 18//18
f 28//28 39//39 42//42
f 49//49 45//45 36//36
f 22//22 17//17 10//10
f 23//23 16//16 14//14
f 53//53 47//47 40//40
f 29//29 34//34 40//40
f 32//32 29//29 40//40
f 8//8 15//15 18//18
f 48//48 53//53 40//40
f 15//15 27//27 18//18
f 3//3 6//6 7//7
f 60//60 56//56 53//53
f 26//26 25//25 13//13
f 21//21 9//9 19//19
f 36//36 45//45 41//41
f 11//11 22//22 10//10
f 17//17 12//12 10//10
f 34//34 22//22 20//20
f 31//31 28//28 42//42
f 48//48 31//31 42//42
f 28//28 31//31 18//18
f 56//56 59//59 57//57
f 50//50 38//38 47//47
f 33//33 49//49 36//36
f 58//58 54//54 51//51
f 6//6 14//14 7//7
f 48//48 34//34 31//31
f 23//23 14//14 25//25
f 54//54 42//42 51//51
f 60//60 54//54 58//58
f 21//21 27//27 15//15
f 8//8 11//11 2//2
f 9//9 3//3 7//7
f 27//27 21//21 35//35
f 42//42 39//39 51//51
f 4//4 15//15 8//8
f 61//61 60//60 58//58
f 54//54 48//48 42//42
f 38//38 43//43 26//26
f 45//45 49//49 57//57
f 5//5 12//12 13//13
f 56//56 50//50 47//47
f 12//12 5//5 10//10
f 35//35 37//37 46//46
f 23//23 36//36 30//30
f 45//45 59//59 52//52
f 44//44 39//39 35//35
f 49//49 50//50 57//57
f 14//14 16//16 7//7
f 44//44 55//55 51//51
f 23//23 33//33 36//36
f 16//16 19//19 7//7
f 61//61 55//55 52//52
f 49//49 33//33 43//43
f 9//9 4//4 3//3
f 38//38 50//50 43//43
f 33//33 23//23 25//25
f 48//48 54//54 53//53
f 34//34 48//48 40//40
f 32//32 38//38 24//24
f 4//4 8//8 2//2
f 22//22 34//34 29//29
f 37//37 19//19 30//30
f 11//11 10//10 2//2
f 25//25 14//14 13//13
f 44//44 35//35 46//46
f 39//39 44//44 51//51
f 38//38 32//32 47//47
f 3//3 4//4 2//2
f 30//30 36//36 41//41
f 41//41 45//45 52//52
f 37//37 21//21 19//19
f 54//54 60//60 53//53
f 22//22 11//11 20//20
f 12//12 26//26 13//13
f 50//50 56//56 57//57
f 17//17 22//22 29//29
f 15//15 4//4 9//9
f 19//19 9//9 7//7
f 5//5 6//6 3//3
f 19//19 16//16 30//30
f 47//47 32//32 40//40
f 21//21 37//37 35//35
f 5//5 3//3 2//2
f 43//43 33//33 25//25
f 59//59 45//45 57//57
f 14//14 6//6 13//13
f 20//20 8//8 18//18
f 37//37 41//41 46//46
f 55//55 44//44 46//46
f 26//26 43//43 25//25
f 55//55 61//61 58//58
f 17//17 32//32 24//24

## Object rightSphere

v -0.5875 0.25 0
vn 0 0 0
v -0.3375 0.25 0
vn 1 0 0
v -0.363893 0.361804 0
vn 0.894427 0.447214 0
v -0.356335 0.298578 0.0818727
vn 0.924658 0.194311 0.327491
v -0.365269 0.304668 -0.100621
vn 0.888925 0.218673 -0.402486
v -0.403472 0.399769 -0.078758
vn 0.736112 0.599077 -0.315032
v -0.432693 0.446087 0.00919147
vn 0.61923 0.784348 0.0367659
v -0.363941 0.188416 0.0934285
vn 0.894236 -0.246334 0.373714
v -0.410629 0.387968 0.110368
vn 0.707486 0.551874 0.441473
v -0.367473 0.191604 -0.103335
vn 0.880107 -0.233582 -0.413341
v -0.358458 0.149801 -8.75488e-05
vn 0.916168 -0.400795 -0.000350195
v -0.421135 0.251713 -0.186601
vn 0.665458 0.00685229 -0.746404
v -0.444167 0.364414 -0.169897
vn 0.573332 0.457656 -0.67959
v -0.485119 0.455304 -0.0993403
vn 0.409525 0.821214 -0.397361
v -0.409409 0.274129 0.173785
vn 0.712366 0.096514 0.69514
v -0.527304 0.492563 -0.00629535
vn 0.240784 0.970252 -0.0251814
v -0.442748 0.137095 -0.169703
vn 0.579009 -0.45162 -0.678813
v -0.436004 0.146356 0.169726
vn 0.605982 -0.414577 0.678905
v -0.511892 0.464419 0.103961
vn 0.302433 0.857675 0.415846
v -0.414726 0.0800885 0.061474
vn 0.691098 -0.679646 0.245896
v -0.500173 0.374247 0.198587
vn 0.349309 0.496986 0.794347
v -0.413442 0.0814998 -0.0617362
vn 0.696233 -0.674001 -0.246945
v -0.596483 0.483348 -0.0892645
vn -0.035932 0.933391 -0.357058
v -0.502895 0.196054 -0.22898
vn 0.338418 -0.215782 -0.915921
v -0.54919 0.415044 -0.183828
vn 0.153241 0.660177 -0.735312
v -0.518203 0.302872 -0.234313
vn 0.277186 0.211488 -0.937252
v -0.506754 0.236186 0.236198
vn 0.322982 -0.0552575 0.944791
v -0.533178 0.122009 0.207768
vn 0.21729 -0.511964 0.83107
v -0.500781 0.048265 -0.119511
vn 0.346876 -0.80694 -0.478043
v -0.627208 0.494429 0.0343175
vn -0.158833 0.977716 0.13727
v -0.514707 0.0432995 0.120316
vn 0.291174 -0.826802 0.481264
v -0.556411 0.102098 -0.199144
vn 0.124357 -0.591609 -0.796576
v -0.652097 0.431072 -0.159813
vn -0.258388 0.724289 -0.639251
v -0.502034 0.0151782 -0.0073646
vn 0.341866 -0.939287 -0.0294584
v -0.606661 0.322435 0.238508
vn -0.0766425 0.289742 0.954031
v -0.709291 0.458556 -0.0645855
vn -0.487165 0.834224 -0.258342
v -0.620815 0.440442 0.158499
vn -0.133259 0.761769 0.633996
v -0.609796 0.20734 -0.245322
vn -0.0891821 -0.170641 -0.981289
v -0.615078 0.185665 0.240001
vn -0.11031 -0.257341 0.960004
v -0.604107 0.0208233 -0.0985003
vn -0.0664263 -0.916707 -0.394001
v -0.738032 0.440036 0.0610438
vn -0.602127 0.760145 0.244175
v -0.625648 0.0683658 0.167492
vn -0.152591 -0.726537 0.66997
v -0.639455 0.335107 -0.229254
vn -0.207822 0.340429 -0.917016
v -0.70028 0.256923 0.223008
vn -0.451122 0.0276906 0.892033
v -0.798255 0.376885 -0.044525
vn -0.843022 0.507538 -0.1781
v -0.728947 0.364011 0.171739
vn -0.565787 0.456045 0.686955
v -0.682286 0.105617 -0.180746
vn -0.379144 -0.577531 -0.722985
v -0.618059 0.00569375 0.0433655
vn -0.122236 -0.977225 0.173462
v -0.740168 0.370642 -0.156965
vn -0.610673 0.482569 -0.627859
v -0.725921 0.239512 -0.207917
vn -0.553685 -0.0419533 -0.831669
v -0.716083 0.147342 0.188223
vn -0.514331 -0.410633 0.752891
v -0.811335 0.338188 0.0679763
vn -0.89534 0.352752 0.271905
v -0.726307 0.0495782 -0.0553525
vn -0.555226 -0.801687 -0.22141
v -0.728081 0.0603012 0.082167
vn -0.562323 -0.758795 0.328668
v -0.781603 0.249774 0.157556
vn -0.776413 -0.000904782 0.630224
v -0.790415 0.161365 -0.116058
vn -0.811658 -0.354539 -0.464234
v -0.800165 0.278246 -0.128358
vn -0.85066 0.112984 -0.513432
v -0.788956 0.146983 0.106315
vn -0.805824 -0.412069 0.42526
v -0.835034 0.250792 -0.035022
vn -0.990134 0.00316965 -0.140088
v -0.805951 0.128435 0.00096488
vn -0.873805 -0.486261 0.00385952
v -0.827736 0.222041 0.063286
vn -0.960943 -0.111836 0.253144
g rightSphere
usemtl rightSphere

s 1
f 121//121 122//122 120//120
f 120//120 122//122 113//113
f 117//117 121//121 120//120
f 95//95 81//81 92//92
f 114//114 117//117 108//108
f 116//116 119//119 112//112
f 100//100 89//89 88//88
f 77//77 84//84 91//91
f 73//73 78//78 85//85
f 111//111 110//110 104//104
f 87//87 73//73 85//85
f 100//100 88//88 96//96
f 113//113 116//116 107//107
f 81//81 72//72 69//69
f 71//71 66//66 63//63
f 93//93 78//78 90//90
f 99//99 87//87 85//85
f 67//67 66//66 74//74
f 88//88 89//89 79//79
f 98//98 91//91 102//102
f 82//82 76//76 70//70
f 102//102 113//113 107//107
f 92//92 81//81 79//79
f 89//89 100//100 103//103
f 110//110 106//106 97//97
f 83//83 78//78 71//71
f 84//84 77//77 75//75
f 114//114 108//108 101//101
f 90//90 95//95 101//101
f 93//93 90//90 101//101
f 69//69 76//76 79//79
f 109//109 114//114 101//101
f 76//76 88//88 79//79
f 64//64 67//67 68//68
f 121//121 117//117 114//114
f 87//87 86//86 74//74
f 82//82 70//70 80//80
f 97//97 106//106 102//102
f 72//72 83//83 71//71
f 78//78 73//73 71//71
f 95//95 83//83 81//81
f 92//92 89//89 103//103
f 109//109 92//92 103//103
f 89//89 92//92 79//79
f 117//117 120//120 118//118
f 111//111 99//99 108//108
f 94//94 110//110 97//97
f 119//119 115//115 112//112
f 67//67 75//75 68//68
f 109//109 95//95 92//92
f 84//84 75//75 86//86
f 115//115 103//103 112//112
f 121//121 115//115 119//119
f 82//82 88//88 76//76
f 69//69 72//72 63//63
f 70//70 64//64 68//68
f 88//88 82//82 96//96
f 103//103 100//100 112//112
f 65//65 76//76 69//69
f 122//122 121//121 119//119
f 115//115 109//109 103//103
f 99//99 104//104 87//87
f 106//106 110//110 118//118
f 66//66 73//73 74//74
f 117//117 111//111 108//108
f 73//73 66//66 71//71
f 96//96 98//98 107//107
f 84//84 97//97 91//91
f 106//106 120//120 113//113
f 105//105 100//100 96//96
f 110//110 111//111 118//118
f 75//75 77//77 68//68
f 105//105 116//116 112//112
f 84//84 94//94 97//97
f 77//77 80//80 68//68
f 122//122 116//116 113//113
f 110//110 94//94 104//104
f 70//70 65//65 64//64
f 99//99 111//111 104//104
f 94//94 84//84 86//86
f 109//109 115//115 114//114
f 95//95 109//109 101//101
f 93//93 99//99 85//85
f 65//65 69//69 63//63
f 83//83 95//95 90//90
f 98//98 80//80 91//91
f 72//72 71//71 63//63
f 86//86 75//75 74//74
f 105//105 96//96 107//107
f 100//100 105//105 112//112
f 99//99 93//93 108//108
f 64//64 65//65 63//63
f 91//91 97//97 102//102
f 102//102 106//106 113//113
f 98//98 82//82 80//80
f 115//115 121//121 114//114
f 83//83 72//72 81//81
f 73//73 87//87 74//74
f 111//111 117//117 118//118
f 78//78 83//83 90//90
f 76//76 65//65 70//70
f 80//80 70//70 68//68
f 66//66 67//67 64//64
f 80//80 77//77 91//91
f 108//108 93//93 101//101
f 82//82 98//98 96//96
f 66//66 64//64 63//63
f 104//104 94//94 86//86
f 120//120 106//106 118//118
f 75//75 67//67 74//74
f 81//81 69//69 79//79
f 98//98 102//102 107//107
f 116//116 105//105 107//107
f 87//87 104//104 86//86
f 116//116 122//122 119//119
f 78//78 93//93 85//85


## Object floor
v   1.0000 0.0000 -1.0400
v  -0.9900 0.0000 -1.0400
v  -1.0100 0.0000  0.9900
v   1.0000 0.0000  0.9900
# 4 vertices

vn 0.0000 1.0000 -0.0000
# 1 vertex normals

g floor
usemtl floor

s 1
f 123//123 124//123 125//123 
f 125//123 126//123 123//123 
# 2 faces

## Object ceiling 
v   1.0000 1.5900 -1.0400
v   1.0000 1.5900  0.9900
v  -1.0200 1.5900  0.9900
v  -1.0200 1.5900 -1.0400
# 4 vertices

vn 0.0000 -1.0000 -0.0000
# 1 vertex normals

g ceiling
usemtl ceiling

s 1
f 127//124 128//124 129//124 
f 129//124 130//124 127//124 
# 2 faces

## Object backwall 
v   1.0000 1.5900 -1.0400
v  -1.0200 1.5900 -1.0400
v  -0.9900 0.0000 -1.0400
v   1.0000 0.0000 -1.0400
# 4 vertices

vn 0.0000 0.0000 1.0000
# 1 vertex normals

g backWall
usemtl backWall

s 1
f 131//125 132//125 133//125 
f 133//125 134//125 131//125 
# 2 faces

## Object rightwall 
v  1.0000 1.5900 0.9900
v  1.0000 1.5900 -1.0400
v  1.0000 0.0000 -1.0400
v  1.0000 0.0000 0.9900
# 4 vertices

vn -1.0000 0.0000 -0.0000
# 1 vertex normals

g rightWall
usemtl rightWall

s 1
f 135//126 136//126 137//126 
f 137//126 138//126 135//126 
# 2 faces

## Object leftWall 
v  -1.0200 1.5900 -1.0400
v  -1.0200 1.5900 0.9900
v  -1.0100 0.0000 0.9900
v  -0.9900 0.0000 -1.0400
# 4 vertices

vn 0.9999 0.0135 0.0057
vn 1.0000 0.0063 -0.0000
vn 0.9999 0.0116 0.0042
vn 0.9998 0.0189 0.0098
# 4 vertex normals

g leftWall
usemtl leftWall

s 1
f 139//127 140//128 141//129 
f 141//129 142//130 139//127 
# 2 faces

## Object light
v  0.2300 1.5800 -0.2200
v  0.2300 1.5800 0.1600
v  -0.2400 1.5800 0.1600
v  -0.2400 1.5800 -0.2200
# 4 vertices

vn 0.0000 -1.0000 -0.0000
# 1 vertex normals

g light
usemtl light

s 1
f 143//131 144//131 145//131 
f 145//131 146//131 143//131 
# 2 faces
