mtllib CornellBox-Sphere.mtl

## Object leftSphere

v 0.000952125 0.667315 4.33073e-05
vn 0.833034 -0.553222 7.20158e-05
v -0.0334072 0.75868 3.90195e-05
vn 0.888234 -0.459391 7.42799e-05
v -0.0227747 0.694802 0.0712615
vn 0.835865 -0.534557 0.124815
v -0.0245041 0.702066 -0.0708383
vn 0.840725 -0.526778 -0.125249
v -0.0721088 0.769098 -0.0816378
vn 0.867893 -0.46834 -0.165586
v -0.106847 0.822936 -0.00109118
vn 0.911793 -0.410643 -0.00253064
v -0.0329471 0.595637 0.0553739
vn 0.753004 -0.651932 0.0892763
v -0.0717601 0.767513 0.0833384
vn 0.866263 -0.470285 0.168581
v -0.0342645 0.602521 -0.0655995
vn 0.756317 -0.645474 -0.106528
v -0.0881751 0.677491 -0.142456
vn 0.759642 -0.594892 -0.26277
v -0.0802227 0.531263 -0.00867136
vn 0.667067 -0.74487 -0.0137796
v -0.0843678 0.661839 0.140026
vn 0.75049 -0.610603 0.25284
v -0.118912 0.554494 -0.116813
vn 0.637498 -0.745259 -0.195409
v -0.115757 0.541666 0.0998458
vn 0.633679 -0.755868 0.164662
v -0.161569 0.795351 -0.133764
vn 0.810606 -0.490172 -0.32039
v -0.164544 0.792783 0.138232
vn 0.802864 -0.495941 0.330836
v -0.169088 0.480897 -0.00828656
vn 0.53749 -0.843162 -0.0134596
v -0.185624 0.649663 -0.194707
vn 0.617161 -0.687756 -0.382235
v -0.220848 0.497954 0.118726
vn 0.475901 -0.855892 0.202404
v -0.203312 0.869644 -0.00949971
vn 0.915134 -0.402083 -0.0293018
v -0.176013 0.618339 0.185061
vn 0.60701 -0.715067 0.346724
v -0.264726 0.749819 -0.20647
vn 0.587132 -0.624333 -0.515252
v -0.269931 0.856991 -0.11873
vn 0.777863 -0.483514 -0.401427
v -0.319593 0.902772 -0.00233214
vn 0.880239 -0.474395 -0.0113789
v -0.259126 0.867161 0.0936547
vn 0.828937 -0.45715 0.3223
v -0.24322 0.706836 0.212398
vn 0.578542 -0.660518 0.478545
v -0.275251 0.807483 0.176152
vn 0.6526 -0.559009 0.51149
v -0.350249 0.737825 0.230247
vn 0.39439 -0.690472 0.606386
v -0.297924 0.586082 0.214658
vn 0.397652 -0.81452 0.42241
v -0.302172 0.623351 -0.226323
vn 0.410522 -0.7816 -0.469652
v -0.277602 0.446915 -0.0027525
vn 0.37307 -0.927792 -0.00461727
v -0.23938 0.509529 -0.142588
vn 0.454497 -0.855336 -0.248661
v -0.384608 0.889784 -0.104576
vn 0.604827 -0.577697 -0.548134
v -0.374495 0.866929 0.141495
vn 0.542705 -0.575423 0.611849
v -0.352357 0.525552 -0.190072
vn 0.277522 -0.891816 -0.357276
v -0.387947 0.722592 -0.239406
vn 0.292429 -0.723964 -0.624789
v -0.347821 0.818468 -0.186883
vn 0.504364 -0.60165 -0.619382
v -0.335375 0.466203 0.115861
vn 0.288566 -0.935673 0.203088
v -0.343428 0.46029 -0.104457
vn 0.273925 -0.944229 -0.182748
v -0.435279 0.917252 0.0170305
vn 0.608146 -0.777528 0.160025
v -0.450383 0.823939 -0.196406
vn 0.184866 -0.655982 -0.731787
v -0.40133 0.525293 0.197351
vn 0.188489 -0.906832 0.376999
v -0.498707 0.881761 0.132937
vn 0.0072698 -0.664577 0.747185
v -0.460319 0.482835 -0.151984
vn 0.073416 -0.956838 -0.281195
v -0.432281 0.601 -0.239691
vn 0.143973 -0.848287 -0.50959
v -0.463214 0.783988 0.223088
vn 0.117638 -0.690791 0.713421
v -0.457225 0.457864 0.110345
vn 0.0770847 -0.976993 0.198854
v -0.421403 0.638395 0.246757
vn 0.176712 -0.813007 0.554791
v -0.405242 0.438738 -0.00598257
vn 0.166466 -0.985991 -0.0105098
v -0.500592 0.899233 -0.100526
vn -0.00415893 -0.707948 -0.706252
v -0.53536 0.716266 -0.248366
vn -0.0933627 -0.749161 -0.655775
v -0.557382 0.91693 0.0197728
vn -0.557757 -0.807446 0.192193
v -0.518725 0.490276 -0.00611012
vn -0.036708 -0.999254 -0.0119782
v -0.5523 0.567716 -0.22548
vn -0.106659 -0.881577 -0.459832
v -0.587425 0.80648 0.206517
vn -0.295142 -0.653313 0.69719
v -0.558497 0.678485 0.250089
vn -0.142153 -0.781311 0.607738
v -0.513868 0.543048 0.214208
vn -0.0274695 -0.905108 0.424293
v -0.556783 0.840306 -0.183146
vn -0.227554 -0.639959 -0.733942
v -0.60831 0.884131 0.117401
vn -0.548876 -0.587178 0.594943
v -0.62333 0.892232 -0.0987688
vn -0.644837 -0.563471 -0.516417
v -0.614952 0.480694 -0.137211
vn -0.209274 -0.945413 -0.249798
v -0.587834 0.472347 0.122293
vn -0.160072 -0.961616 0.222872
v -0.681676 0.900091 0.0286893
vn -0.867972 -0.477323 0.137066
v -0.639638 0.567103 0.217078
vn -0.277057 -0.858913 0.430706
v -0.688527 0.711867 0.229747
vn -0.455445 -0.696073 0.555024
v -0.707134 0.836916 0.155189
vn -0.677095 -0.5331 0.507293
v -0.656257 0.799493 -0.201502
vn -0.48171 -0.618124 -0.621191
v -0.742027 0.87108 -0.0867898
vn -0.841458 -0.448218 -0.301743
v -0.774435 0.593012 0.196387
vn -0.519077 -0.769793 0.371454
v -0.707035 0.497303 0.136834
vn -0.369299 -0.896685 0.244078
v -0.772805 0.775354 -0.183081
vn -0.685433 -0.564431 -0.459999
v -0.678567 0.482652 0.00894865
vn -0.326226 -0.94515 0.0163484
v -0.74601 0.485788 -0.104479
vn -0.424502 -0.887297 -0.180283
v -0.86492 0.820406 -0.0804881
vn -0.880159 -0.433167 -0.194131
v -0.80075 0.862851 0.049896
vn -0.899667 -0.41027 0.14926
v -0.813663 0.746731 0.179845
vn -0.710537 -0.573727 0.4074
v -0.81856 0.48908 0.0603673
vn -0.526445 -0.844336 0.0997618
v -0.701342 0.626889 -0.226773
vn -0.418757 -0.776009 -0.471649
v -0.901932 0.627268 0.144795
vn -0.708924 -0.657422 0.255387
v -0.85756 0.695083 -0.175281
vn -0.712919 -0.607955 -0.349482
v -0.821526 0.570408 -0.166855
vn -0.572178 -0.76449 -0.29693
v -0.861294 0.510168 -0.0710521
vn -0.589585 -0.799341 -0.115948
v -0.921854 0.784013 0.0698743
vn -0.880596 -0.450861 0.145858
v -0.967051 0.722489 -0.0736132
vn -0.851909 -0.506184 -0.134272
v -0.917568 0.594941 -0.118769
vn -0.70327 -0.682201 -0.200031
v -0.948139 0.555534 0.0107074
vn -0.709909 -0.704089 0.0169619
v -0.983163 0.677511 0.0666494
vn -0.826327 -0.551535 0.113987
v -0.193051 0.684316 0.0101923
vn 0.696932 -0.716763 0.0231418
v -0.408049 0.673368 -0.00224829
vn 0.270975 -0.962564 -0.00662556
v -0.837545 0.655458 0.0068104
vn -0.699747 -0.714251 0.0141183
v -0.67022 0.739332 -0.106264
vn -0.51745 -0.7924 -0.323029
v -0.764311 0.676281 -0.10766
vn -0.612454 -0.750111 -0.249466
v -0.722768 0.657875 0.127029
vn -0.521016 -0.800172 0.297099
v -0.721199 0.594258 -0.0383505
vn -0.477021 -0.874992 -0.0827037
v -0.709516 0.740465 0.0219342
vn -0.626786 -0.776423 0.0656182
v -0.567965 0.770611 0.0792287
vn -0.269676 -0.91019 0.31437
v -0.581773 0.614545 -0.0526615
vn -0.205699 -0.969608 -0.132469
v -0.620624 0.654453 0.114796
vn -0.314473 -0.900855 0.299277
v -0.782138 0.762643 -0.069816
vn -0.751861 -0.632526 -0.186051
v -0.564567 0.778268 -0.0746399
vn -0.266031 -0.913592 -0.307535
g leftSphere
usemtl leftSphere

s 1
f 75//75 76//76 66//66
f 77//77 82//82 73//73
f 46//46 43//43 55//55
f 72//72 77//77 73//73
f 43//43 59//59 55//55
f 77//77 86//86 82//82
f 53//53 44//44 49//49
f 8//8 12//12 3//3
f 3//3 12//12 7//7
f 2//2 8//8 3//3
f 74//74 84//84 83//83
f 74//74 68//68 71//71
f 79//79 87//87 86//86
f 2//2 4//4 5//5
f 38//38 47//47 49//49
f 76//76 83//83 79//79
f 50//50 58//58 60//60
f 46//46 34//34 43//43
f 30//30 22//22 18//18
f 75//75 66//66 63//63
f 20//20 25//25 16//16
f 6//6 15//15 20//20
f 52//52 50//50 60//60
f 2//2 3//3 1//1
f 36//36 45//45 51//51
f 66//66 55//55 59//59
f 16//16 26//26 21//21
f 16//16 25//25 27//27
f 50//50 52//52 40//40
f 13//13 10//10 9//9
f 24//24 25//25 20//20
f 44//44 39//39 49//49
f 14//14 19//19 17//17
f 24//24 23//23 33//33
f 31//31 19//19 38//38
f 22//22 15//15 18//18
f 43//43 34//34 40//40
f 31//31 39//39 32//32
f 16//16 8//8 6//6
f 21//21 26//26 29//29
f 57//57 56//56 64//64
f 47//47 62//62 53//53
f 3//3 7//7 1//1
f 29//29 48//48 42//42
f 30//30 45//45 36//36
f 76//76 69//69 65//65
f 28//28 34//34 46//46
f 17//17 11//11 14//14
f 46//46 56//56 48//48
f 84//84 80//80 85//85
f 43//43 52//52 59//59
f 77//77 69//69 79//79
f 56//56 55//55 65//65
f 67//67 51//51 78//78
f 75//75 83//83 76//76
f 17//17 32//32 13//13
f 48//48 28//28 46//46
f 6//6 8//8 2//2
f 79//79 69//69 76//76
f 44//44 45//45 35//35
f 5//5 6//6 2//2
f 16//16 12//12 8//8
f 58//58 41//41 51//51
f 21//21 12//12 16//16
f 48//48 56//56 57//57
f 58//58 51//51 67//67
f 23//23 15//15 22//22
f 27//27 34//34 28//28
f 73//73 81//81 78//78
f 14//14 12//12 21//21
f 10//10 15//15 5//5
f 80//80 84//84 74//74
f 29//29 19//19 21//21
f 70//70 77//77 72//72
f 24//24 34//34 25//25
f 28//28 26//26 27//27
f 49//49 39//39 31//31
f 40//40 33//33 50//50
f 83//83 84//84 87//87
f 5//5 15//15 6//6
f 17//17 19//19 31//31
f 38//38 29//29 42//42
f 49//49 47//47 53//53
f 68//68 67//67 71//71
f 9//9 11//11 13//13
f 42//42 47//47 38//38
f 65//65 66//66 76//76
f 1//1 4//4 2//2
f 85//85 81//81 82//82
f 68//68 60//60 67//67
f 16//16 6//6 20//20
f 79//79 86//86 77//77
f 13//13 11//11 17//17
f 86//86 85//85 82//82
f 39//39 44//44 35//35
f 64//64 56//56 65//65
f 78//78 61//61 73//73
f 79//79 83//83 87//87
f 54//54 61//61 78//78
f 87//87 84//84 86//86
f 73//73 61//61 72//72
f 84//84 85//85 86//86
f 48//48 57//57 42//42
f 59//59 63//63 66//66
f 25//25 34//34 27//27
f 14//14 11//11 7//7
f 28//28 48//48 29//29
f 29//29 26//26 28//28
f 51//51 54//54 78//78
f 70//70 62//62 64//64
f 20//20 23//23 24//24
f 54//54 45//45 44//44
f 32//32 30//30 18//18
f 74//74 75//75 68//68
f 71//71 80//80 74//74
f 65//65 55//55 66//66
f 74//74 83//83 75//75
f 56//56 46//46 55//55
f 53//53 72//72 61//61
f 71//71 78//78 80//80
f 62//62 47//47 57//57
f 71//71 67//67 78//78
f 58//58 67//67 60//60
f 80//80 81//81 85//85
f 13//13 18//18 10//10
f 59//59 52//52 63//63
f 21//21 19//19 14//14
f 44//44 53//53 61//61
f 9//9 4//4 1//1
f 77//77 70//70 69//69
f 37//37 23//23 22//22
f 1//1 7//7 9//9
f 5//5 4//4 10//10
f 62//62 57//57 64//64
f 80//80 78//78 81//81
f 33//33 23//23 37//37
f 40//40 34//34 24//24
f 32//32 18//18 13//13
f 50//50 41//41 58//58
f 75//75 63//63 68//68
f 37//37 41//41 33//33
f 10//10 4//4 9//9
f 7//7 11//11 9//9
f 63//63 52//52 60//60
f 57//57 47//47 42//42
f 49//49 31//31 38//38
f 35//35 32//32 39//39
f 31//31 32//32 17//17
f 73//73 82//82 81//81
f 30//30 32//32 35//35
f 20//20 15//15 23//23
f 27//27 26//26 16//16
f 35//35 45//45 30//30
f 36//36 37//37 22//22
f 7//7 12//12 14//14
f 36//36 41//41 37//37
f 18//18 15//15 10//10
f 70//70 64//64 69//69
f 33//33 41//41 50//50
f 54//54 44//44 61//61
f 24//24 33//33 40//40
f 51//51 45//45 54//54
f 40//40 52//52 43//43
f 38//38 19//19 29//29
f 51//51 41//41 36//36
f 72//72 62//62 70//70
f 22//22 30//30 36//36
f 53//53 62//62 72//72
f 69//69 64//64 65//65
f 63//63 60//60 68//68

## Object rightSphere

v -0.5875 0.25 0
vn 0 0 0
v -0.3375 0.25 0
vn 1 0 0
v -0.363893 0.361804 0
vn 0.894427 0.447214 0
v -0.356335 0.298578 0.0818727
vn 0.924658 0.194311 0.327491
v -0.365269 0.304668 -0.100621
vn 0.888925 0.218673 -0.402486
v -0.403472 0.399769 -0.078758
vn 0.736112 0.599077 -0.315032
v -0.432693 0.446087 0.00919147
vn 0.61923 0.784348 0.0367659
v -0.363941 0.188416 0.0934285
vn 0.894236 -0.246334 0.373714
v -0.410629 0.387968 0.110368
vn 0.707486 0.551874 0.441473
v -0.367473 0.191604 -0.103335
vn 0.880107 -0.233582 -0.413341
v -0.358458 0.149801 -8.75488e-05
vn 0.916168 -0.400795 -0.000350195
v -0.421135 0.251713 -0.186601
vn 0.665458 0.00685229 -0.746404
v -0.444167 0.364414 -0.169897
vn 0.573332 0.457656 -0.67959
v -0.485119 0.455304 -0.0993403
vn 0.409525 0.821214 -0.397361
v -0.409409 0.274129 0.173785
vn 0.712366 0.096514 0.69514
v -0.527304 0.492563 -0.00629535
vn 0.240784 0.970252 -0.0251814
v -0.442748 0.137095 -0.169703
vn 0.579009 -0.45162 -0.678813
v -0.436004 0.146356 0.169726
vn 0.605982 -0.414577 0.678905
v -0.511892 0.464419 0.103961
vn 0.302433 0.857675 0.415846
v -0.414726 0.0800885 0.061474
vn 0.691098 -0.679646 0.245896
v -0.500173 0.374247 0.198587
vn 0.349309 0.496986 0.794347
v -0.413442 0.0814998 -0.0617362
vn 0.696233 -0.674001 -0.246945
v -0.596483 0.483348 -0.0892645
vn -0.035932 0.933391 -0.357058
v -0.502895 0.196054 -0.22898
vn 0.338418 -0.215782 -0.915921
v -0.54919 0.415044 -0.183828
vn 0.153241 0.660177 -0.735312
v -0.518203 0.302872 -0.234313
vn 0.277186 0.211488 -0.937252
v -0.506754 0.236186 0.236198
vn 0.322982 -0.0552575 0.944791
v -0.533178 0.122009 0.207768
vn 0.21729 -0.511964 0.83107
v -0.500781 0.048265 -0.119511
vn 0.346876 -0.80694 -0.478043
v -0.627208 0.494429 0.0343175
vn -0.158833 0.977716 0.13727
v -0.514707 0.0432995 0.120316
vn 0.291174 -0.826802 0.481264
v -0.556411 0.102098 -0.199144
vn 0.124357 -0.591609 -0.796576
v -0.652097 0.431072 -0.159813
vn -0.258388 0.724289 -0.639251
v -0.502034 0.0151782 -0.0073646
vn 0.341866 -0.939287 -0.0294584
v -0.606661 0.322435 0.238508
vn -0.0766425 0.289742 0.954031
v -0.709291 0.458556 -0.0645855
vn -0.487165 0.834224 -0.258342
v -0.620815 0.440442 0.158499
vn -0.133259 0.761769 0.633996
v -0.609796 0.20734 -0.245322
vn -0.0891821 -0.170641 -0.981289
v -0.615078 0.185665 0.240001
vn -0.11031 -0.257341 0.960004
v -0.604107 0.0208233 -0.0985003
vn -0.0664263 -0.916707 -0.394001
v -0.738032 0.440036 0.0610438
vn -0.602127 0.760145 0.244175
v -0.625648 0.0683658 0.167492
vn -0.152591 -0.726537 0.66997
v -0.639455 0.335107 -0.229254
vn -0.207822 0.340429 -0.917016
v -0.70028 0.256923 0.223008
vn -0.451122 0.0276906 0.892033
v -0.798255 0.376885 -0.044525
vn -0.843022 0.507538 -0.1781
v -0.728947 0.364011 0.171739
vn -0.565787 0.456045 0.686955
v -0.682286 0.105617 -0.180746
vn -0.379144 -0.577531 -0.722985
v -0.618059 0.00569375 0.0433655
vn -0.122236 -0.977225 0.173462
v -0.740168 0.370642 -0.156965
vn -0.610673 0.482569 -0.627859
v -0.725921 0.239512 -0.207917
vn -0.553685 -0.0419533 -0.831669
v -0.716083 0.147342 0.188223
vn -0.514331 -0.410633 0.752891
v -0.811335 0.338188 0.0679763
vn -0.89534 0.352752 0.271905
v -0.726307 0.0495782 -0.0553525
vn -0.555226 -0.801687 -0.22141
v -0.728081 0.0603012 0.082167
vn -0.562323 -0.758795 0.328668
v -0.781603 0.249774 0.157556
vn -0.776413 -0.000904782 0.630224
v -0.790415 0.161365 -0.116058
vn -0.811658 -0.354539 -0.464234
v -0.800165 0.278246 -0.128358
vn -0.85066 0.112984 -0.513432
v -0.788956 0.146983 0.106315
vn -0.805824 -0.412069 0.42526
v -0.835034 0.250792 -0.035022
vn -0.990134 0.00316965 -0.140088
v -0.805951 0.128435 0.00096488
vn -0.873805 -0.486261 0.00385952
v -0.827736 0.222041 0.063286
vn -0.960943 -0.111836 0.253144
g rightSphere
usemtl rightSphere

s 1
f 160//160 161//161 159//159
f 159//159 161//161 152//152
f 156//156 160//160 159//159
f 134//134 120//120 131//131
f 153//153 156//156 147//147
f 155//155 158//158 151//151
f 139//139 128//128 127//127
f 116//116 123//123 130//130
f 112//112 117//117 124//124
f 150//150 149//149 143//143
f 126//126 112//112 124//124
f 139//139 127//127 135//135
f 152//152 155//155 146//146
f 120//120 111//111 108//108
f 110//110 105//105 102//102
f 132//132 117//117 129//129
f 138//138 126//126 124//124
f 106//106 105//105 113//113
f 127//127 128//128 118//118
f 137//137 130//130 141//141
f 121//121 115//115 109//109
f 141//141 152//152 146//146
f 131//131 120//120 118//118
f 128//128 139//139 142//142
f 149//149 145//145 136//136
f 122//122 117//117 110//110
f 123//123 116//116 114//114
f 153//153 147//147 140//140
f 129//129 134//134 140//140
f 132//132 129//129 140//140
f 108//108 115//115 118//118
f 148//148 153//153 140//140
f 115//115 127//127 118//118
f 103//103 106//106 107//107
f 160//160 156//156 153//153
f 126//126 125//125 113//113
f 121//121 109//109 119//119
f 136//136 145//145 141//141
f 111//111 122//122 110//110
f 117//117 112//112 110//110
f 134//134 122//122 120//120
f 131//131 128//128 142//142
f 148//148 131//131 142//142
f 128//128 131//131 118//118
f 156//156 159//159 157//157
f 150//150 138//138 147//147
f 133//133 149//149 136//136
f 158//158 154//154 151//151
f 106//106 114//114 107//107
f 148//148 134//134 131//131
f 123//123 114//114 125//125
f 154//154 142//142 151//151
f 160//160 154//154 158//158
f 121//121 127//127 115//115
f 108//108 111//111 102//102
f 109//109 103//103 107//107
f 127//127 121//121 135//135
f 142//142 139//139 151//151
f 104//104 115//115 108//108
f 161//161 160//160 158//158
f 154//154 148//148 142//142
f 138//138 143//143 126//126
f 145//145 149//149 157//157
f 105//105 112//112 113//113
f 156//156 150//150 147//147
f 112//112 105//105 110//110
f 135//135 137//137 146//146
f 123//123 136//136 130//130
f 145//145 159//159 152//152
f 144//144 139//139 135//135
f 149//149 150//150 157//157
f 114//114 116//116 107//107
f 144//144 155//155 151//151
f 123//123 133//133 136//136
f 116//116 119//119 107//107
f 161//161 155//155 152//152
f 149//149 133//133 143//143
f 109//109 104//104 103//103
f 138//138 150//150 143//143
f 133//133 123//123 125//125
f 148//148 154//154 153//153
f 134//134 148//148 140//140
f 132//132 138//138 124//124
f 104//104 108//108 102//102
f 122//122 134//134 129//129
f 137//137 119//119 130//130
f 111//111 110//110 102//102
f 125//125 114//114 113//113
f 144//144 135//135 146//146
f 139//139 144//144 151//151
f 138//138 132//132 147//147
f 103//103 104//104 102//102
f 130//130 136//136 141//141
f 141//141 145//145 152//152
f 137//137 121//121 119//119
f 154//154 160//160 153//153
f 122//122 111//111 120//120
f 112//112 126//126 113//113
f 150//150 156//156 157//157
f 117//117 122//122 129//129
f 115//115 104//104 109//109
f 119//119 109//109 107//107
f 105//105 106//106 103//103
f 119//119 116//116 130//130
f 147//147 132//132 140//140
f 121//121 137//137 135//135
f 105//105 103//103 102//102
f 143//143 133//133 125//125
f 159//159 145//145 157//157
f 114//114 106//106 113//113
f 120//120 108//108 118//118
f 137//137 141//141 146//146
f 155//155 144//144 146//146
f 126//126 143//143 125//125
f 155//155 161//161 158//158
f 117//117 132//132 124//124


## Object floor
v   1.0000 0.0000 -1.0400
v  -0.9900 0.0000 -1.0400
v  -1.0100 0.0000  0.9900
v   1.0000 0.0000  0.9900
# 4 vertices

vn 0.0000 1.0000 -0.0000
# 1 vertex normals

g floor
usemtl floor

s 1
f 162//162 163//162 164//162 
f 164//162 165//162 162//162 
# 2 faces

## Object ceiling 
v   1.0000 1.5900 -1.0400
v   1.0000 1.5900  0.9900
v  -1.0200 1.5900  0.9900
v  -1.0200 1.5900 -1.0400
# 4 vertices

vn 0.0000 -1.0000 -0.0000
# 1 vertex normals

g ceiling
usemtl ceiling

s 1
f 166//163 167//163 168//163 
f 168//163 169//163 166//163 
# 2 faces

## Object backwall 
v   1.0000 1.5900 -1.0400
v  -1.0200 1.5900 -1.0400
v  -0.9900 0.0000 -1.0400
v   1.0000 0.0000 -1.0400
# 4 vertices

vn 0.0000 0.0000 1.0000
# 1 vertex normals

g backWall
usemtl backWall

s 1
f 170//164 171//164 172//164 
f 172//164 173//164 170//164 
# 2 faces

## Object rightwall 
v  1.0000 1.5900 0.9900
v  1.0000 1.5900 -1.0400
v  1.0000 0.0000 -1.0400
v  1.0000 0.0000 0.9900
# 4 vertices

vn -1.0000 0.0000 -0.0000
# 1 vertex normals

g rightWall
usemtl rightWall

s 1
f 174//165 175//165 176//165 
f 176//165 177//165 174//165 
# 2 faces

## Object leftWall 
v  -1.0200 1.5900 -1.0400
v  -1.0200 1.5900 0.9900
v  -1.0100 0.0000 0.9900
v  -0.9900 0.0000 -1.0400
# 4 vertices

vn 0.9999 0.0135 0.0057
vn 1.0000 0.0063 -0.0000
vn 0.9999 0.0116 0.0042
vn 0.9998 0.0189 0.0098
# 4 vertex normals

g leftWall
usemtl leftWall

s 1
f 178//166 179//167 180//168 
f 180//168 181//169 178//166 
# 2 faces

## Object light
v  0.2300 1.5800 -0.2200
v  0.2300 1.5800 0.1600
v  -0.2400 1.5800 0.1600
v  -0.2400 1.5800 -0.2200
# 4 vertices

vn 0.0000 -1.0000 -0.0000
# 1 vertex normals

g light
usemtl light

s 1
f 182//170 183//170 184//170 
f 184//170 185//170 182//170 
# 2 faces
