mtllib CornellBox-Sphere.mtl

## Object leftSphere

v 0.0769686 0.454834 0.0676273
vn 0.724232 -0.684311 0.0848882
v 0.112811 0.531153 0.0190081
vn 0.793975 -0.607451 0.0246275
v 0.106982 0.514059 0.113269
vn 0.772492 -0.618445 0.144155
v 0.0545328 0.467576 -0.0111124
vn 0.721265 -0.692508 -0.0144536
v 0.0618418 0.536431 -0.0560886
vn 0.769063 -0.634545 -0.0767755
v 0.104687 0.621705 -0.0170001
vn 0.847527 -0.530217 -0.0238273
v 0.0307056 0.46084 0.15212
vn 0.687732 -0.698688 0.197129
v 0.125613 0.595925 0.0842613
vn 0.834694 -0.539117 0.112422
v -0.0136688 0.421998 0.0454729
vn 0.642657 -0.763794 0.0600896
v -0.0315202 0.476616 -0.0594583
vn 0.664568 -0.742452 -0.0843454
v -0.0668134 0.437281 0.131021
vn 0.599875 -0.77925 0.181438
v 0.0719392 0.567786 0.188474
vn 0.771591 -0.583091 0.254267
v -0.120475 0.440976 0.0268051
vn 0.56125 -0.826696 0.0396399
v -0.0412676 0.509093 0.21757
vn 0.64955 -0.695109 0.308072
v -0.00129306 0.599491 -0.114674
vn 0.767454 -0.616338 -0.17647
v 0.10042 0.700668 0.116381
vn 0.881781 -0.439601 0.170917
v -0.157836 0.475138 0.157529
vn 0.52963 -0.812426 0.243837
v -0.134925 0.515744 -0.0887401
vn 0.595642 -0.790094 -0.144785
v -0.133321 0.569247 0.255572
vn 0.590713 -0.693934 0.411722
v 0.0662488 0.717315 -0.0495712
vn 0.891973 -0.445294 -0.0780861
v -0.00101471 0.628496 0.248958
vn 0.744687 -0.554433 0.371545
v -0.127762 0.625594 -0.151124
vn 0.677828 -0.681776 -0.27519
v -0.0289623 0.720196 -0.134434
vn 0.834985 -0.495995 -0.238304
v 0.0107241 0.824927 -0.0609249
vn 0.939998 -0.322225 -0.112134
v 0.0658019 0.795972 0.0387744
vn 0.938759 -0.338515 0.0643332
v 0.0193997 0.738021 0.224606
vn 0.832927 -0.420118 0.360185
v 0.04789 0.804906 0.140311
vn 0.915784 -0.326095 0.234526
v -0.0281709 0.841078 0.222968
vn 0.864914 -0.291321 0.408724
v -0.0948114 0.711314 0.290378
vn 0.703388 -0.501144 0.504082
v -0.242368 0.576627 -0.100571
vn 0.509454 -0.837201 -0.198874
v -0.251704 0.537896 0.180695
vn 0.447514 -0.832868 0.325673
v -0.239894 0.496577 0.0292743
vn 0.458414 -0.88724 0.0515935
v -0.0784449 0.829626 -0.138775
vn 0.886759 -0.358388 -0.29192
v 0.00433743 0.898605 0.079473
vn 0.968889 -0.194791 0.152677
v -0.326103 0.572427 -0.0185426
vn 0.376437 -0.925572 -0.0401395
v -0.238792 0.691331 -0.164797
vn 0.598207 -0.706901 -0.377411
v -0.130741 0.732855 -0.170693
vn 0.758735 -0.548916 -0.35073
v -0.235457 0.634439 0.271155
vn 0.50251 -0.694397 0.515069
v -0.329071 0.557491 0.0882047
vn 0.354253 -0.917108 0.182806
v -0.0497927 0.926793 -0.0507197
vn 0.98099 -0.159516 -0.110517
v -0.196563 0.810005 -0.182205
vn 0.755364 -0.472966 -0.453573
v -0.214847 0.746117 0.307979
vn 0.581316 -0.51757 0.627849
v -0.0731986 0.996531 0.0654666
vn 0.988408 -0.0080329 0.151611
v -0.417423 0.639139 0.0375421
vn 0.221929 -0.969829 0.100896
v -0.347357 0.657598 -0.101102
vn 0.393126 -0.881846 -0.260385
v -0.0796306 0.94776 0.193307
vn 0.902806 -0.112193 0.415156
v -0.333431 0.716107 0.272424
vn 0.38985 -0.664442 0.6376
v -0.137042 0.843036 0.290054
vn 0.740103 -0.320063 0.591444
v -0.351606 0.61957 0.186774
vn 0.330473 -0.847218 0.415945
v -0.146701 0.923831 -0.140728
vn 0.910921 -0.196388 -0.362842
v -0.340639 0.796121 -0.17167
vn 0.513178 -0.656537 -0.552817
v -0.129805 1.01956 -0.0491316
vn 0.98995 0.0523073 -0.131385
v -0.445603 0.717167 0.183143
vn 0.159376 -0.828661 0.536581
v -0.444062 0.732003 -0.0781324
vn 0.196479 -0.941319 -0.274434
v -0.156615 1.04615 0.167182
vn 0.892608 0.119969 0.434579
v -0.205121 0.967809 0.270591
vn 0.734427 -0.0801741 0.673935
v -0.278761 0.844559 0.311022
vn 0.53683 -0.377174 0.754688
v -0.250856 0.903679 -0.181471
vn 0.771517 -0.298275 -0.561955
v -0.151336 1.07363 0.0509579
vn 0.968567 0.204545 0.141558
v -0.231056 1.01262 -0.137885
vn 0.889089 0.0417347 -0.455827
v -0.517681 0.760673 0.0357506
vn -0.0728722 -0.986397 0.147348
v -0.415978 0.824114 0.270998
vn 0.2517 -0.52689 0.811809
v -0.22004 1.1064 -0.0354069
vn 0.928299 0.352815 -0.117403
v -0.349587 0.952585 0.295978
vn 0.448494 -0.14138 0.882533
v -0.280014 1.07559 0.232627
vn 0.668706 0.229775 0.707132
v -0.235174 1.13395 0.104858
vn 0.841375 0.425562 0.333144
v -0.348283 0.949282 -0.180009
vn 0.630004 -0.210607 -0.747489
v -0.31779 1.09475 -0.121858
vn 0.763014 0.396761 -0.510285
v -0.42925 1.06126 0.257471
vn 0.258255 0.223622 0.939839
v -0.474524 0.931751 0.259961
vn 0.0943649 -0.252798 0.962906
v -0.433275 1.03019 -0.158628
vn 0.381899 0.172781 -0.90791
v -0.527751 0.837412 0.180262
vn -0.113576 -0.665432 0.737767
v -0.587841 0.875315 0.0552453
vn -0.541499 -0.768632 0.340563
v -0.427897 1.16213 -0.0985415
vn 0.355244 0.798805 -0.485501
v -0.314019 1.18231 -0.00221602
vn 0.714089 0.700004 -0.00850859
v -0.355938 1.17311 0.166558
vn 0.514298 0.618013 0.594607
v -0.574904 0.992767 0.188423
vn -0.369176 -0.0356494 0.928676
v -0.499114 0.878895 -0.119039
vn 0.00521839 -0.713153 -0.700989
v -0.504991 1.16349 0.188091
vn -0.0200212 0.655887 0.754594
v -0.538545 1.05245 -0.118467
vn -0.285155 0.388034 -0.876422
v -0.595485 0.959734 -0.0471377
vn -0.838729 -0.353689 -0.41405
v -0.63069 0.993108 0.0606252
vn -0.906111 -0.0477831 0.420332
v -0.437159 1.23943 0.0460463
vn 0.249586 0.950927 0.182881
v -0.556915 1.18873 -0.0517401
vn -0.27926 0.926048 -0.253869
v -0.625803 1.06474 -0.0258601
vn -0.874676 0.450126 -0.179798
v -0.628826 1.11358 0.103599
vn -0.642294 0.566273 0.51652
v -0.549896 1.227 0.0904647
vn -0.200063 0.910168 0.362725
v -0.0363861 0.614338 0.0659675
vn 0.76422 -0.635723 0.108741
v -0.198156 0.7628 0.0640235
vn 0.77556 -0.609463 0.164502
v -0.490831 1.08107 0.0593808
vn 0.0908659 0.803412 0.588449
v -0.364705 0.95934 -0.0674498
vn 0.864237 -0.259726 -0.430857
v -0.468408 0.994058 -0.0421202
vn 0.596231 -0.11215 -0.794941
v -0.375143 1.03414 0.169353
vn 0.585756 0.160174 0.794503
v -0.475347 0.935557 0.06415
vn 0.261678 -0.684023 0.680909
v -0.347014 1.03387 0.0391275
vn 0.947267 0.209735 0.242272
v -0.212787 0.965793 0.077717
vn 0.958969 -0.114213 0.259487
v -0.375615 0.83697 0.0501562
vn 0.589206 -0.772263 0.237586
v -0.313293 0.950943 0.166769
vn 0.731887 -0.192302 0.653729
v -0.409915 1.0703 -0.0553066
vn 0.709595 0.553791 -0.43565
v -0.259039 0.913003 -0.0559354
vn 0.918926 -0.331771 -0.213315
g leftSphere
usemtl leftSphere

s 1
f 75//75 76//76 66//66
f 77//77 82//82 73//73
f 46//46 43//43 55//55
f 72//72 77//77 73//73
f 43//43 59//59 55//55
f 77//77 86//86 82//82
f 53//53 44//44 49//49
f 8//8 12//12 3//3
f 3//3 12//12 7//7
f 2//2 8//8 3//3
f 74//74 84//84 83//83
f 74//74 68//68 71//71
f 79//79 87//87 86//86
f 2//2 4//4 5//5
f 38//38 47//47 49//49
f 76//76 83//83 79//79
f 50//50 58//58 60//60
f 46//46 34//34 43//43
f 30//30 22//22 18//18
f 75//75 66//66 63//63
f 20//20 25//25 16//16
f 6//6 15//15 20//20
f 52//52 50//50 60//60
f 2//2 3//3 1//1
f 36//36 45//45 51//51
f 66//66 55//55 59//59
f 16//16 26//26 21//21
f 16//16 25//25 27//27
f 50//50 52//52 40//40
f 13//13 10//10 9//9
f 24//24 25//25 20//20
f 44//44 39//39 49//49
f 14//14 19//19 17//17
f 24//24 23//23 33//33
f 31//31 19//19 38//38
f 22//22 15//15 18//18
f 43//43 34//34 40//40
f 31//31 39//39 32//32
f 16//16 8//8 6//6
f 21//21 26//26 29//29
f 57//57 56//56 64//64
f 47//47 62//62 53//53
f 3//3 7//7 1//1
f 29//29 48//48 42//42
f 30//30 45//45 36//36
f 76//76 69//69 65//65
f 28//28 34//34 46//46
f 17//17 11//11 14//14
f 46//46 56//56 48//48
f 84//84 80//80 85//85
f 43//43 52//52 59//59
f 77//77 69//69 79//79
f 56//56 55//55 65//65
f 67//67 51//51 78//78
f 75//75 83//83 76//76
f 17//17 32//32 13//13
f 48//48 28//28 46//46
f 6//6 8//8 2//2
f 79//79 69//69 76//76
f 44//44 45//45 35//35
f 5//5 6//6 2//2
f 16//16 12//12 8//8
f 58//58 41//41 51//51
f 21//21 12//12 16//16
f 48//48 56//56 57//57
f 58//58 51//51 67//67
f 23//23 15//15 22//22
f 27//27 34//34 28//28
f 73//73 81//81 78//78
f 14//14 12//12 21//21
f 10//10 15//15 5//5
f 80//80 84//84 74//74
f 29//29 19//19 21//21
f 70//70 77//77 72//72
f 24//24 34//34 25//25
f 28//28 26//26 27//27
f 49//49 39//39 31//31
f 40//40 33//33 50//50
f 83//83 84//84 87//87
f 5//5 15//15 6//6
f 17//17 19//19 31//31
f 38//38 29//29 42//42
f 49//49 47//47 53//53
f 68//68 67//67 71//71
f 9//9 11//11 13//13
f 42//42 47//47 38//38
f 65//65 66//66 76//76
f 1//1 4//4 2//2
f 85//85 81//81 82//82
f 68//68 60//60 67//67
f 16//16 6//6 20//20
f 79//79 86//86 77//77
f 13//13 11//11 17//17
f 86//86 85//85 82//82
f 39//39 44//44 35//35
f 64//64 56//56 65//65
f 78//78 61//61 73//73
f 79//79 83//83 87//87
f 54//54 61//61 78//78
f 87//87 84//84 86//86
f 73//73 61//61 72//72
f 84//84 85//85 86//86
f 48//48 57//57 42//42
f 59//59 63//63 66//66
f 25//25 34//34 27//27
f 14//14 11//11 7//7
f 28//28 48//48 29//29
f 29//29 26//26 28//28
f 51//51 54//54 78//78
f 70//70 62//62 64//64
f 20//20 23//23 24//24
f 54//54 45//45 44//44
f 32//32 30//30 18//18
f 74//74 75//75 68//68
f 71//71 80//80 74//74
f 65//65 55//55 66//66
f 74//74 83//83 75//75
f 56//56 46//46 55//55
f 53//53 72//72 61//61
f 71//71 78//78 80//80
f 62//62 47//47 57//57
f 71//71 67//67 78//78
f 58//58 67//67 60//60
f 80//80 81//81 85//85
f 13//13 18//18 10//10
f 59//59 52//52 63//63
f 21//21 19//19 14//14
f 44//44 53//53 61//61
f 9//9 4//4 1//1
f 77//77 70//70 69//69
f 37//37 23//23 22//22
f 1//1 7//7 9//9
f 5//5 4//4 10//10
f 62//62 57//57 64//64
f 80//80 78//78 81//81
f 33//33 23//23 37//37
f 40//40 34//34 24//24
f 32//32 18//18 13//13
f 50//50 41//41 58//58
f 75//75 63//63 68//68
f 37//37 41//41 33//33
f 10//10 4//4 9//9
f 7//7 11//11 9//9
f 63//63 52//52 60//60
f 57//57 47//47 42//42
f 49//49 31//31 38//38
f 35//35 32//32 39//39
f 31//31 32//32 17//17
f 73//73 82//82 81//81
f 30//30 32//32 35//35
f 20//20 15//15 23//23
f 27//27 26//26 16//16
f 35//35 45//45 30//30
f 36//36 37//37 22//22
f 7//7 12//12 14//14
f 36//36 41//41 37//37
f 18//18 15//15 10//10
f 70//70 64//64 69//69
f 33//33 41//41 50//50
f 54//54 44//44 61//61
f 24//24 33//33 40//40
f 51//51 45//45 54//54
f 40//40 52//52 43//43
f 38//38 19//19 29//29
f 51//51 41//41 36//36
f 72//72 62//62 70//70
f 22//22 30//30 36//36
f 53//53 62//62 72//72
f 69//69 64//64 65//65
f 63//63 60//60 68//68

## Object rightSphere

v -0.5875 0.25 0
vn 0 0 0
v -0.3375 0.25 0
vn 1 0 0
v -0.363893 0.361804 0
vn 0.894427 0.447214 0
v -0.356335 0.298578 0.0818727
vn 0.924658 0.194311 0.327491
v -0.365269 0.304668 -0.100621
vn 0.888925 0.218673 -0.402486
v -0.403472 0.399769 -0.078758
vn 0.736112 0.599077 -0.315032
v -0.432693 0.446087 0.00919147
vn 0.61923 0.784348 0.0367659
v -0.363941 0.188416 0.0934285
vn 0.894236 -0.246334 0.373714
v -0.410629 0.387968 0.110368
vn 0.707486 0.551874 0.441473
v -0.367473 0.191604 -0.103335
vn 0.880107 -0.233582 -0.413341
v -0.358458 0.149801 -8.75488e-05
vn 0.916168 -0.400795 -0.000350195
v -0.421135 0.251713 -0.186601
vn 0.665458 0.00685229 -0.746404
v -0.444167 0.364414 -0.169897
vn 0.573332 0.457656 -0.67959
v -0.485119 0.455304 -0.0993403
vn 0.409525 0.821214 -0.397361
v -0.409409 0.274129 0.173785
vn 0.712366 0.096514 0.69514
v -0.527304 0.492563 -0.00629535
vn 0.240784 0.970252 -0.0251814
v -0.442748 0.137095 -0.169703
vn 0.579009 -0.45162 -0.678813
v -0.436004 0.146356 0.169726
vn 0.605982 -0.414577 0.678905
v -0.511892 0.464419 0.103961
vn 0.302433 0.857675 0.415846
v -0.414726 0.0800885 0.061474
vn 0.691098 -0.679646 0.245896
v -0.500173 0.374247 0.198587
vn 0.349309 0.496986 0.794347
v -0.413442 0.0814998 -0.0617362
vn 0.696233 -0.674001 -0.246945
v -0.596483 0.483348 -0.0892645
vn -0.035932 0.933391 -0.357058
v -0.502895 0.196054 -0.22898
vn 0.338418 -0.215782 -0.915921
v -0.54919 0.415044 -0.183828
vn 0.153241 0.660177 -0.735312
v -0.518203 0.302872 -0.234313
vn 0.277186 0.211488 -0.937252
v -0.506754 0.236186 0.236198
vn 0.322982 -0.0552575 0.944791
v -0.533178 0.122009 0.207768
vn 0.21729 -0.511964 0.83107
v -0.500781 0.048265 -0.119511
vn 0.346876 -0.80694 -0.478043
v -0.627208 0.494429 0.0343175
vn -0.158833 0.977716 0.13727
v -0.514707 0.0432995 0.120316
vn 0.291174 -0.826802 0.481264
v -0.556411 0.102098 -0.199144
vn 0.124357 -0.591609 -0.796576
v -0.652097 0.431072 -0.159813
vn -0.258388 0.724289 -0.639251
v -0.502034 0.0151782 -0.0073646
vn 0.341866 -0.939287 -0.0294584
v -0.606661 0.322435 0.238508
vn -0.0766425 0.289742 0.954031
v -0.709291 0.458556 -0.0645855
vn -0.487165 0.834224 -0.258342
v -0.620815 0.440442 0.158499
vn -0.133259 0.761769 0.633996
v -0.609796 0.20734 -0.245322
vn -0.0891821 -0.170641 -0.981289
v -0.615078 0.185665 0.240001
vn -0.11031 -0.257341 0.960004
v -0.604107 0.0208233 -0.0985003
vn -0.0664263 -0.916707 -0.394001
v -0.738032 0.440036 0.0610438
vn -0.602127 0.760145 0.244175
v -0.625648 0.0683658 0.167492
vn -0.152591 -0.726537 0.66997
v -0.639455 0.335107 -0.229254
vn -0.207822 0.340429 -0.917016
v -0.70028 0.256923 0.223008
vn -0.451122 0.0276906 0.892033
v -0.798255 0.376885 -0.044525
vn -0.843022 0.507538 -0.1781
v -0.728947 0.364011 0.171739
vn -0.565787 0.456045 0.686955
v -0.682286 0.105617 -0.180746
vn -0.379144 -0.577531 -0.722985
v -0.618059 0.00569375 0.0433655
vn -0.122236 -0.977225 0.173462
v -0.740168 0.370642 -0.156965
vn -0.610673 0.482569 -0.627859
v -0.725921 0.239512 -0.207917
vn -0.553685 -0.0419533 -0.831669
v -0.716083 0.147342 0.188223
vn -0.514331 -0.410633 0.752891
v -0.811335 0.338188 0.0679763
vn -0.89534 0.352752 0.271905
v -0.726307 0.0495782 -0.0553525
vn -0.555226 -0.801687 -0.22141
v -0.728081 0.0603012 0.082167
vn -0.562323 -0.758795 0.328668
v -0.781603 0.249774 0.157556
vn -0.776413 -0.000904782 0.630224
v -0.790415 0.161365 -0.116058
vn -0.811658 -0.354539 -0.464234
v -0.800165 0.278246 -0.128358
vn -0.85066 0.112984 -0.513432
v -0.788956 0.146983 0.106315
vn -0.805824 -0.412069 0.42526
v -0.835034 0.250792 -0.035022
vn -0.990134 0.00316965 -0.140088
v -0.805951 0.128435 0.00096488
vn -0.873805 -0.486261 0.00385952
v -0.827736 0.222041 0.063286
vn -0.960943 -0.111836 0.253144
g rightSphere
usemtl rightSphere

s 1
f 160//160 161//161 159//159
f 159//159 161//161 152//152
f 156//156 160//160 159//159
f 134//134 120//120 131//131
f 153//153 156//156 147//147
f 155//155 158//158 151//151
f 139//139 128//128 127//127
f 116//116 123//123 130//130
f 112//112 117//117 124//124
f 150//150 149//149 143//143
f 126//126 112//112 124//124
f 139//139 127//127 135//135
f 152//152 155//155 146//146
f 120//120 111//111 108//108
f 110//110 105//105 102//102
f 132//132 117//117 129//129
f 138//138 126//126 124//124
f 106//106 105//105 113//113
f 127//127 128//128 118//118
f 137//137 130//130 141//141
f 121//121 115//115 109//109
f 141//141 152//152 146//146
f 131//131 120//120 118//118
f 128//128 139//139 142//142
f 149//149 145//145 136//136
f 122//122 117//117 110//110
f 123//123 116//116 114//114
f 153//153 147//147 140//140
f 129//129 134//134 140//140
f 132//132 129//129 140//140
f 108//108 115//115 118//118
f 148//148 153//153 140//140
f 115//115 127//127 118//118
f 103//103 106//106 107//107
f 160//160 156//156 153//153
f 126//126 125//125 113//113
f 121//121 109//109 119//119
f 136//136 145//145 141//141
f 111//111 122//122 110//110
f 117//117 112//112 110//110
f 134//134 122//122 120//120
f 131//131 128//128 142//142
f 148//148 131//131 142//142
f 128//128 131//131 118//118
f 156//156 159//159 157//157
f 150//150 138//138 147//147
f 133//133 149//149 136//136
f 158//158 154//154 151//151
f 106//106 114//114 107//107
f 148//148 134//134 131//131
f 123//123 114//114 125//125
f 154//154 142//142 151//151
f 160//160 154//154 158//158
f 121//121 127//127 115//115
f 108//108 111//111 102//102
f 109//109 103//103 107//107
f 127//127 121//121 135//135
f 142//142 139//139 151//151
f 104//104 115//115 108//108
f 161//161 160//160 158//158
f 154//154 148//148 142//142
f 138//138 143//143 126//126
f 145//145 149//149 157//157
f 105//105 112//112 113//113
f 156//156 150//150 147//147
f 112//112 105//105 110//110
f 135//135 137//137 146//146
f 123//123 136//136 130//130
f 145//145 159//159 152//152
f 144//144 139//139 135//135
f 149//149 150//150 157//157
f 114//114 116//116 107//107
f 144//144 155//155 151//151
f 123//123 133//133 136//136
f 116//116 119//119 107//107
f 161//161 155//155 152//152
f 149//149 133//133 143//143
f 109//109 104//104 103//103
f 138//138 150//150 143//143
f 133//133 123//123 125//125
f 148//148 154//154 153//153
f 134//134 148//148 140//140
f 132//132 138//138 124//124
f 104//104 108//108 102//102
f 122//122 134//134 129//129
f 137//137 119//119 130//130
f 111//111 110//110 102//102
f 125//125 114//114 113//113
f 144//144 135//135 146//146
f 139//139 144//144 151//151
f 138//138 132//132 147//147
f 103//103 104//104 102//102
f 130//130 136//136 141//141
f 141//141 145//145 152//152
f 137//137 121//121 119//119
f 154//154 160//160 153//153
f 122//122 111//111 120//120
f 112//112 126//126 113//113
f 150//150 156//156 157//157
f 117//117 122//122 129//129
f 115//115 104//104 109//109
f 119//119 109//109 107//107
f 105//105 106//106 103//103
f 119//119 116//116 130//130
f 147//147 132//132 140//140
f 121//121 137//137 135//135
f 105//105 103//103 102//102
f 143//143 133//133 125//125
f 159//159 145//145 157//157
f 114//114 106//106 113//113
f 120//120 108//108 118//118
f 137//137 141//141 146//146
f 155//155 144//144 146//146
f 126//126 143//143 125//125
f 155//155 161//161 158//158
f 117//117 132//132 124//124


## Object floor
v   1.0000 0.0000 -1.0400
v  -0.9900 0.0000 -1.0400
v  -1.0100 0.0000  0.9900
v   1.0000 0.0000  0.9900
# 4 vertices

vn 0.0000 1.0000 -0.0000
# 1 vertex normals

g floor
usemtl floor

s 1
f 162//162 163//162 164//162 
f 164//162 165//162 162//162 
# 2 faces

## Object ceiling 
v   1.0000 1.5900 -1.0400
v   1.0000 1.5900  0.9900
v  -1.0200 1.5900  0.9900
v  -1.0200 1.5900 -1.0400
# 4 vertices

vn 0.0000 -1.0000 -0.0000
# 1 vertex normals

g ceiling
usemtl ceiling

s 1
f 166//163 167//163 168//163 
f 168//163 169//163 166//163 
# 2 faces

## Object backwall 
v   1.0000 1.5900 -1.0400
v  -1.0200 1.5900 -1.0400
v  -0.9900 0.0000 -1.0400
v   1.0000 0.0000 -1.0400
# 4 vertices

vn 0.0000 0.0000 1.0000
# 1 vertex normals

g backWall
usemtl backWall

s 1
f 170//164 171//164 172//164 
f 172//164 173//164 170//164 
# 2 faces

## Object rightwall 
v  1.0000 1.5900 0.9900
v  1.0000 1.5900 -1.0400
v  1.0000 0.0000 -1.0400
v  1.0000 0.0000 0.9900
# 4 vertices

vn -1.0000 0.0000 -0.0000
# 1 vertex normals

g rightWall
usemtl rightWall

s 1
f 174//165 175//165 176//165 
f 176//165 177//165 174//165 
# 2 faces

## Object leftWall 
v  -1.0200 1.5900 -1.0400
v  -1.0200 1.5900 0.9900
v  -1.0100 0.0000 0.9900
v  -0.9900 0.0000 -1.0400
# 4 vertices

vn 0.9999 0.0135 0.0057
vn 1.0000 0.0063 -0.0000
vn 0.9999 0.0116 0.0042
vn 0.9998 0.0189 0.0098
# 4 vertex normals

g leftWall
usemtl leftWall

s 1
f 178//166 179//167 180//168 
f 180//168 181//169 178//166 
# 2 faces

## Object light
v  0.2300 1.5800 -0.2200
v  0.2300 1.5800 0.1600
v  -0.2400 1.5800 0.1600
v  -0.2400 1.5800 -0.2200
# 4 vertices

vn 0.0000 -1.0000 -0.0000
# 1 vertex normals

g light
usemtl light

s 1
f 182//170 183//170 184//170 
f 184//170 185//170 182//170 
# 2 faces
