mtllib CornellBox-Sphere.mtl

## Object leftSphere

v 0.0544412 0.383377 0.125057
vn 0.661142 -0.735291 0.149124
v 0.103012 0.441691 0.0637475
vn 0.731585 -0.67735 0.0773395
v 0.0997741 0.438618 0.160077
vn 0.71661 -0.670739 0.19126
v 0.0301782 0.390666 0.0458114
vn 0.655352 -0.753197 0.0566274
v 0.0494065 0.44945 -0.0096788
vn 0.706317 -0.707787 -0.0124431
v 0.112855 0.525378 0.0145483
vn 0.790489 -0.612189 0.0187651
v 0.015559 0.41096 0.209258
vn 0.63627 -0.726956 0.258253
v 0.134606 0.507958 0.117995
vn 0.781885 -0.606235 0.145379
v -0.0430144 0.370301 0.111206
vn 0.581441 -0.801191 0.141491
v -0.0549939 0.413581 -0.000863965
vn 0.604504 -0.796601 -0.00117362
v -0.0868545 0.409159 0.194616
vn 0.553247 -0.791201 0.260612
v 0.0828404 0.507162 0.227446
vn 0.731803 -0.618798 0.285577
v -0.144753 0.41225 0.0919076
vn 0.512703 -0.848258 0.132644
v -0.039692 0.48248 0.268588
vn 0.619638 -0.696653 0.361557
v -0.00160196 0.518401 -0.0752752
vn 0.714918 -0.690821 -0.107977
v 0.138056 0.616054 0.134197
vn 0.84325 -0.50742 0.177354
v -0.165594 0.471558 0.216606
vn 0.505288 -0.798476 0.327292
v -0.148155 0.474107 -0.0340441
vn 0.555263 -0.829937 -0.0537265
v -0.110454 0.567183 0.299554
vn 0.594876 -0.660956 0.45745
v 0.0961338 0.621823 -0.0308526
vn 0.843613 -0.535174 -0.0436608
v 0.0324661 0.589667 0.280243
vn 0.731102 -0.563408 0.384787
v -0.119956 0.571838 -0.112768
vn 0.651318 -0.733782 -0.193261
v -0.000823289 0.639533 -0.112539
vn 0.797506 -0.575897 -0.179797
v 0.069128 0.737712 -0.0565864
vn 0.904514 -0.416854 -0.0899327
v 0.123152 0.7064 0.0441858
vn 0.902766 -0.425341 0.0640125
v 0.0796412 0.685176 0.238445
vn 0.826413 -0.448854 0.339958
v 0.11739 0.731256 0.143664
vn 0.896717 -0.390333 0.208662
v 0.0618045 0.794975 0.222947
vn 0.880225 -0.321229 0.349309
v -0.0315385 0.696673 0.311887
vn 0.732743 -0.474449 0.487838
v -0.238592 0.559664 -0.0524577
vn 0.50782 -0.855414 -0.101906
v -0.238224 0.558489 0.232976
vn 0.464404 -0.783264 0.413312
v -0.248038 0.496915 0.0875101
vn 0.44249 -0.883507 0.153683
v -0.0250951 0.755984 -0.131457
vn 0.863664 -0.443768 -0.239069
v 0.094934 0.824963 0.0709285
vn 0.953127 -0.280422 0.113633
v -0.315044 0.5862 0.0342436
vn 0.406902 -0.91036 0.0753359
v -0.215942 0.661794 -0.129651
vn 0.617108 -0.734741 -0.281663
v -0.10104 0.673435 -0.146682
vn 0.744286 -0.609227 -0.273644
v -0.18891 0.656169 0.309973
vn 0.557764 -0.616465 0.555761
v -0.313761 0.585345 0.142233
vn 0.391019 -0.87059 0.298625
v 0.0350159 0.850798 -0.0607691
vn 0.957531 -0.26703 -0.10876
v -0.151641 0.762159 -0.165303
vn 0.768932 -0.524987 -0.364873
v -0.134388 0.761418 0.330592
vn 0.667642 -0.435674 0.603691
v 0.0431818 0.936034 0.0446635
vn 0.989842 -0.116565 0.0813904
v -0.382088 0.679322 0.0893822
vn 0.33387 -0.908007 0.253088
v -0.324377 0.663286 -0.0553192
vn 0.457624 -0.877383 -0.144146
v 0.0386242 0.906425 0.179832
vn 0.935908 -0.162594 0.312474
v -0.258566 0.757867 0.30793
vn 0.524683 -0.526202 0.669193
v -0.0350634 0.832143 0.294648
vn 0.807933 -0.291689 0.512018
v -0.311167 0.661281 0.23487
vn 0.416501 -0.7471 0.518043
v -0.0718652 0.86207 -0.144001
vn 0.906503 -0.292044 -0.304898
v -0.296165 0.786355 -0.140601
vn 0.623253 -0.653249 -0.429908
v -0.0209747 0.958602 -0.06956
vn 0.986021 -0.0852122 -0.143182
v -0.374092 0.776862 0.228539
vn 0.366728 -0.649927 0.665661
v -0.398844 0.761744 -0.0300937
vn 0.388189 -0.914315 -0.115486
v -0.0123359 1.01672 0.140928
vn 0.960169 0.0329206 0.277475
v -0.0673811 0.966249 0.261128
vn 0.854227 -0.0666426 0.515611
v -0.166391 0.87174 0.324809
vn 0.690764 -0.265573 0.672544
v -0.185232 0.864747 -0.172442
vn 0.820676 -0.352636 -0.449597
v -0.0149759 1.0274 0.0203496
vn 0.997533 0.0563559 0.0418523
v -0.135696 0.967086 -0.14844
vn 0.92285 -0.0833782 -0.376025
v -0.449351 0.819839 0.0880046
vn 0.244914 -0.871165 0.425544
v -0.306058 0.880905 0.30059
vn 0.514394 -0.315878 0.797258
v -0.0868278 1.06514 -0.0648558
vn 0.976135 0.153891 -0.153224
v -0.203587 0.991205 0.300982
vn 0.701527 -0.0208158 0.712339
v -0.112397 1.08405 0.210803
vn 0.862966 0.187124 0.469334
v -0.0725038 1.11292 0.0694511
vn 0.955131 0.252284 0.155171
v -0.271444 0.933029 -0.167048
vn 0.785662 -0.230215 -0.574228
v -0.200228 1.06878 -0.135852
vn 0.89157 0.204575 -0.404044
v -0.253225 1.1103 0.256459
vn 0.662296 0.296017 0.688286
v -0.331773 0.997579 0.284083
vn 0.509525 -0.00733166 0.860425
v -0.333885 1.03419 -0.145371
vn 0.743665 0.153046 -0.650799
v -0.419486 0.911864 0.223604
vn 0.317641 -0.347713 0.882156
v -0.484117 0.949172 0.105395
vn 0.134507 -0.43044 0.892541
v -0.28885 1.16483 -0.107422
vn 0.731623 0.571129 -0.37221
v -0.155783 1.16591 -0.0357317
vn 0.896911 0.432298 -0.0931047
v -0.168578 1.18808 0.137812
vn 0.817877 0.46413 0.340089
v -0.421224 1.07244 0.220719
vn 0.321147 0.295313 0.899808
v -0.425612 0.911264 -0.0784207
vn 0.531919 -0.634519 -0.560757
v -0.309362 1.21833 0.185124
vn 0.554311 0.63482 0.538277
v -0.423771 1.08687 -0.0922082
vn 0.515579 0.587563 -0.623657
v -0.487295 1.02055 -0.00203935
vn 0.523976 0.84757 -0.0841092
v -0.494176 1.07278 0.104206
vn 0.0457733 0.571985 0.818986
v -0.253107 1.25717 0.0228035
vn 0.691133 0.719903 0.0638343
v -0.397967 1.22832 -0.0438204
vn 0.401875 0.899282 -0.172594
v -0.487352 1.13056 0.0104609
vn 0.0961212 0.99219 0.079499
v -0.45457 1.19168 0.130053
vn 0.192458 0.812043 0.550949
v -0.355524 1.27873 0.0874462
vn 0.443317 0.855262 0.268324
v -0.0209626 0.562057 0.10273
vn 0.728981 -0.666444 0.15633
v -0.136849 0.746037 0.0841019
vn 0.805118 -0.563044 0.186457
v -0.337779 1.1208 0.0696853
vn 0.758299 0.56469 0.325743
v -0.268524 0.959063 -0.0557311
vn 0.958159 -0.169451 -0.23069
v -0.356093 1.02121 -0.0212027
vn 0.978971 0.14426 -0.144238
v -0.222407 1.06075 0.16666
vn 0.842647 0.18441 0.505904
v -0.359437 0.979221 0.091643
vn 0.831339 -0.122893 0.542009
v -0.215056 1.03781 0.0348047
vn 0.984124 0.130574 0.120207
v -0.0971744 0.944049 0.069576
vn 0.976307 -0.135605 0.168628
v -0.291513 0.859192 0.0778041
vn 0.791708 -0.534703 0.295452
v -0.186085 0.965692 0.169443
vn 0.875947 -0.0957318 0.472814
v -0.283953 1.07741 -0.0539882
vn 0.916378 0.32835 -0.228994
v -0.174812 0.88967 -0.0495976
vn 0.937255 -0.317992 -0.14295
g leftSphere
usemtl leftSphere

s 1
f 75//75 76//76 66//66
f 77//77 82//82 73//73
f 46//46 43//43 55//55
f 72//72 77//77 73//73
f 43//43 59//59 55//55
f 77//77 86//86 82//82
f 53//53 44//44 49//49
f 8//8 12//12 3//3
f 3//3 12//12 7//7
f 2//2 8//8 3//3
f 74//74 84//84 83//83
f 74//74 68//68 71//71
f 79//79 87//87 86//86
f 2//2 4//4 5//5
f 38//38 47//47 49//49
f 76//76 83//83 79//79
f 50//50 58//58 60//60
f 46//46 34//34 43//43
f 30//30 22//22 18//18
f 75//75 66//66 63//63
f 20//20 25//25 16//16
f 6//6 15//15 20//20
f 52//52 50//50 60//60
f 2//2 3//3 1//1
f 36//36 45//45 51//51
f 66//66 55//55 59//59
f 16//16 26//26 21//21
f 16//16 25//25 27//27
f 50//50 52//52 40//40
f 13//13 10//10 9//9
f 24//24 25//25 20//20
f 44//44 39//39 49//49
f 14//14 19//19 17//17
f 24//24 23//23 33//33
f 31//31 19//19 38//38
f 22//22 15//15 18//18
f 43//43 34//34 40//40
f 31//31 39//39 32//32
f 16//16 8//8 6//6
f 21//21 26//26 29//29
f 57//57 56//56 64//64
f 47//47 62//62 53//53
f 3//3 7//7 1//1
f 29//29 48//48 42//42
f 30//30 45//45 36//36
f 76//76 69//69 65//65
f 28//28 34//34 46//46
f 17//17 11//11 14//14
f 46//46 56//56 48//48
f 84//84 80//80 85//85
f 43//43 52//52 59//59
f 77//77 69//69 79//79
f 56//56 55//55 65//65
f 67//67 51//51 78//78
f 75//75 83//83 76//76
f 17//17 32//32 13//13
f 48//48 28//28 46//46
f 6//6 8//8 2//2
f 79//79 69//69 76//76
f 44//44 45//45 35//35
f 5//5 6//6 2//2
f 16//16 12//12 8//8
f 58//58 41//41 51//51
f 21//21 12//12 16//16
f 48//48 56//56 57//57
f 58//58 51//51 67//67
f 23//23 15//15 22//22
f 27//27 34//34 28//28
f 73//73 81//81 78//78
f 14//14 12//12 21//21
f 10//10 15//15 5//5
f 80//80 84//84 74//74
f 29//29 19//19 21//21
f 70//70 77//77 72//72
f 24//24 34//34 25//25
f 28//28 26//26 27//27
f 49//49 39//39 31//31
f 40//40 33//33 50//50
f 83//83 84//84 87//87
f 5//5 15//15 6//6
f 17//17 19//19 31//31
f 38//38 29//29 42//42
f 49//49 47//47 53//53
f 68//68 67//67 71//71
f 9//9 11//11 13//13
f 42//42 47//47 38//38
f 65//65 66//66 76//76
f 1//1 4//4 2//2
f 85//85 81//81 82//82
f 68//68 60//60 67//67
f 16//16 6//6 20//20
f 79//79 86//86 77//77
f 13//13 11//11 17//17
f 86//86 85//85 82//82
f 39//39 44//44 35//35
f 64//64 56//56 65//65
f 78//78 61//61 73//73
f 79//79 83//83 87//87
f 54//54 61//61 78//78
f 87//87 84//84 86//86
f 73//73 61//61 72//72
f 84//84 85//85 86//86
f 48//48 57//57 42//42
f 59//59 63//63 66//66
f 25//25 34//34 27//27
f 14//14 11//11 7//7
f 28//28 48//48 29//29
f 29//29 26//26 28//28
f 51//51 54//54 78//78
f 70//70 62//62 64//64
f 20//20 23//23 24//24
f 54//54 45//45 44//44
f 32//32 30//30 18//18
f 74//74 75//75 68//68
f 71//71 80//80 74//74
f 65//65 55//55 66//66
f 74//74 83//83 75//75
f 56//56 46//46 55//55
f 53//53 72//72 61//61
f 71//71 78//78 80//80
f 62//62 47//47 57//57
f 71//71 67//67 78//78
f 58//58 67//67 60//60
f 80//80 81//81 85//85
f 13//13 18//18 10//10
f 59//59 52//52 63//63
f 21//21 19//19 14//14
f 44//44 53//53 61//61
f 9//9 4//4 1//1
f 77//77 70//70 69//69
f 37//37 23//23 22//22
f 1//1 7//7 9//9
f 5//5 4//4 10//10
f 62//62 57//57 64//64
f 80//80 78//78 81//81
f 33//33 23//23 37//37
f 40//40 34//34 24//24
f 32//32 18//18 13//13
f 50//50 41//41 58//58
f 75//75 63//63 68//68
f 37//37 41//41 33//33
f 10//10 4//4 9//9
f 7//7 11//11 9//9
f 63//63 52//52 60//60
f 57//57 47//47 42//42
f 49//49 31//31 38//38
f 35//35 32//32 39//39
f 31//31 32//32 17//17
f 73//73 82//82 81//81
f 30//30 32//32 35//35
f 20//20 15//15 23//23
f 27//27 26//26 16//16
f 35//35 45//45 30//30
f 36//36 37//37 22//22
f 7//7 12//12 14//14
f 36//36 41//41 37//37
f 18//18 15//15 10//10
f 70//70 64//64 69//69
f 33//33 41//41 50//50
f 54//54 44//44 61//61
f 24//24 33//33 40//40
f 51//51 45//45 54//54
f 40//40 52//52 43//43
f 38//38 19//19 29//29
f 51//51 41//41 36//36
f 72//72 62//62 70//70
f 22//22 30//30 36//36
f 53//53 62//62 72//72
f 69//69 64//64 65//65
f 63//63 60//60 68//68

## Object rightSphere

v -0.5875 0.25 0
vn 0 0 0
v -0.3375 0.25 0
vn 1 0 0
v -0.363893 0.361804 0
vn 0.894427 0.447214 0
v -0.356335 0.298578 0.0818727
vn 0.924658 0.194311 0.327491
v -0.365269 0.304668 -0.100621
vn 0.888925 0.218673 -0.402486
v -0.403472 0.399769 -0.078758
vn 0.736112 0.599077 -0.315032
v -0.432693 0.446087 0.00919147
vn 0.61923 0.784348 0.0367659
v -0.363941 0.188416 0.0934285
vn 0.894236 -0.246334 0.373714
v -0.410629 0.387968 0.110368
vn 0.707486 0.551874 0.441473
v -0.367473 0.191604 -0.103335
vn 0.880107 -0.233582 -0.413341
v -0.358458 0.149801 -8.75488e-05
vn 0.916168 -0.400795 -0.000350195
v -0.421135 0.251713 -0.186601
vn 0.665458 0.00685229 -0.746404
v -0.444167 0.364414 -0.169897
vn 0.573332 0.457656 -0.67959
v -0.485119 0.455304 -0.0993403
vn 0.409525 0.821214 -0.397361
v -0.409409 0.274129 0.173785
vn 0.712366 0.096514 0.69514
v -0.527304 0.492563 -0.00629535
vn 0.240784 0.970252 -0.0251814
v -0.442748 0.137095 -0.169703
vn 0.579009 -0.45162 -0.678813
v -0.436004 0.146356 0.169726
vn 0.605982 -0.414577 0.678905
v -0.511892 0.464419 0.103961
vn 0.302433 0.857675 0.415846
v -0.414726 0.0800885 0.061474
vn 0.691098 -0.679646 0.245896
v -0.500173 0.374247 0.198587
vn 0.349309 0.496986 0.794347
v -0.413442 0.0814998 -0.0617362
vn 0.696233 -0.674001 -0.246945
v -0.596483 0.483348 -0.0892645
vn -0.035932 0.933391 -0.357058
v -0.502895 0.196054 -0.22898
vn 0.338418 -0.215782 -0.915921
v -0.54919 0.415044 -0.183828
vn 0.153241 0.660177 -0.735312
v -0.518203 0.302872 -0.234313
vn 0.277186 0.211488 -0.937252
v -0.506754 0.236186 0.236198
vn 0.322982 -0.0552575 0.944791
v -0.533178 0.122009 0.207768
vn 0.21729 -0.511964 0.83107
v -0.500781 0.048265 -0.119511
vn 0.346876 -0.80694 -0.478043
v -0.627208 0.494429 0.0343175
vn -0.158833 0.977716 0.13727
v -0.514707 0.0432995 0.120316
vn 0.291174 -0.826802 0.481264
v -0.556411 0.102098 -0.199144
vn 0.124357 -0.591609 -0.796576
v -0.652097 0.431072 -0.159813
vn -0.258388 0.724289 -0.639251
v -0.502034 0.0151782 -0.0073646
vn 0.341866 -0.939287 -0.0294584
v -0.606661 0.322435 0.238508
vn -0.0766425 0.289742 0.954031
v -0.709291 0.458556 -0.0645855
vn -0.487165 0.834224 -0.258342
v -0.620815 0.440442 0.158499
vn -0.133259 0.761769 0.633996
v -0.609796 0.20734 -0.245322
vn -0.0891821 -0.170641 -0.981289
v -0.615078 0.185665 0.240001
vn -0.11031 -0.257341 0.960004
v -0.604107 0.0208233 -0.0985003
vn -0.0664263 -0.916707 -0.394001
v -0.738032 0.440036 0.0610438
vn -0.602127 0.760145 0.244175
v -0.625648 0.0683658 0.167492
vn -0.152591 -0.726537 0.66997
v -0.639455 0.335107 -0.229254
vn -0.207822 0.340429 -0.917016
v -0.70028 0.256923 0.223008
vn -0.451122 0.0276906 0.892033
v -0.798255 0.376885 -0.044525
vn -0.843022 0.507538 -0.1781
v -0.728947 0.364011 0.171739
vn -0.565787 0.456045 0.686955
v -0.682286 0.105617 -0.180746
vn -0.379144 -0.577531 -0.722985
v -0.618059 0.00569375 0.0433655
vn -0.122236 -0.977225 0.173462
v -0.740168 0.370642 -0.156965
vn -0.610673 0.482569 -0.627859
v -0.725921 0.239512 -0.207917
vn -0.553685 -0.0419533 -0.831669
v -0.716083 0.147342 0.188223
vn -0.514331 -0.410633 0.752891
v -0.811335 0.338188 0.0679763
vn -0.89534 0.352752 0.271905
v -0.726307 0.0495782 -0.0553525
vn -0.555226 -0.801687 -0.22141
v -0.728081 0.0603012 0.082167
vn -0.562323 -0.758795 0.328668
v -0.781603 0.249774 0.157556
vn -0.776413 -0.000904782 0.630224
v -0.790415 0.161365 -0.116058
vn -0.811658 -0.354539 -0.464234
v -0.800165 0.278246 -0.128358
vn -0.85066 0.112984 -0.513432
v -0.788956 0.146983 0.106315
vn -0.805824 -0.412069 0.42526
v -0.835034 0.250792 -0.035022
vn -0.990134 0.00316965 -0.140088
v -0.805951 0.128435 0.00096488
vn -0.873805 -0.486261 0.00385952
v -0.827736 0.222041 0.063286
vn -0.960943 -0.111836 0.253144
g rightSphere
usemtl rightSphere

s 1
f 160//160 161//161 159//159
f 159//159 161//161 152//152
f 156//156 160//160 159//159
f 134//134 120//120 131//131
f 153//153 156//156 147//147
f 155//155 158//158 151//151
f 139//139 128//128 127//127
f 116//116 123//123 130//130
f 112//112 117//117 124//124
f 150//150 149//149 143//143
f 126//126 112//112 124//124
f 139//139 127//127 135//135
f 152//152 155//155 146//146
f 120//120 111//111 108//108
f 110//110 105//105 102//102
f 132//132 117//117 129//129
f 138//138 126//126 124//124
f 106//106 105//105 113//113
f 127//127 128//128 118//118
f 137//137 130//130 141//141
f 121//121 115//115 109//109
f 141//141 152//152 146//146
f 131//131 120//120 118//118
f 128//128 139//139 142//142
f 149//149 145//145 136//136
f 122//122 117//117 110//110
f 123//123 116//116 114//114
f 153//153 147//147 140//140
f 129//129 134//134 140//140
f 132//132 129//129 140//140
f 108//108 115//115 118//118
f 148//148 153//153 140//140
f 115//115 127//127 118//118
f 103//103 106//106 107//107
f 160//160 156//156 153//153
f 126//126 125//125 113//113
f 121//121 109//109 119//119
f 136//136 145//145 141//141
f 111//111 122//122 110//110
f 117//117 112//112 110//110
f 134//134 122//122 120//120
f 131//131 128//128 142//142
f 148//148 131//131 142//142
f 128//128 131//131 118//118
f 156//156 159//159 157//157
f 150//150 138//138 147//147
f 133//133 149//149 136//136
f 158//158 154//154 151//151
f 106//106 114//114 107//107
f 148//148 134//134 131//131
f 123//123 114//114 125//125
f 154//154 142//142 151//151
f 160//160 154//154 158//158
f 121//121 127//127 115//115
f 108//108 111//111 102//102
f 109//109 103//103 107//107
f 127//127 121//121 135//135
f 142//142 139//139 151//151
f 104//104 115//115 108//108
f 161//161 160//160 158//158
f 154//154 148//148 142//142
f 138//138 143//143 126//126
f 145//145 149//149 157//157
f 105//105 112//112 113//113
f 156//156 150//150 147//147
f 112//112 105//105 110//110
f 135//135 137//137 146//146
f 123//123 136//136 130//130
f 145//145 159//159 152//152
f 144//144 139//139 135//135
f 149//149 150//150 157//157
f 114//114 116//116 107//107
f 144//144 155//155 151//151
f 123//123 133//133 136//136
f 116//116 119//119 107//107
f 161//161 155//155 152//152
f 149//149 133//133 143//143
f 109//109 104//104 103//103
f 138//138 150//150 143//143
f 133//133 123//123 125//125
f 148//148 154//154 153//153
f 134//134 148//148 140//140
f 132//132 138//138 124//124
f 104//104 108//108 102//102
f 122//122 134//134 129//129
f 137//137 119//119 130//130
f 111//111 110//110 102//102
f 125//125 114//114 113//113
f 144//144 135//135 146//146
f 139//139 144//144 151//151
f 138//138 132//132 147//147
f 103//103 104//104 102//102
f 130//130 136//136 141//141
f 141//141 145//145 152//152
f 137//137 121//121 119//119
f 154//154 160//160 153//153
f 122//122 111//111 120//120
f 112//112 126//126 113//113
f 150//150 156//156 157//157
f 117//117 122//122 129//129
f 115//115 104//104 109//109
f 119//119 109//109 107//107
f 105//105 106//106 103//103
f 119//119 116//116 130//130
f 147//147 132//132 140//140
f 121//121 137//137 135//135
f 105//105 103//103 102//102
f 143//143 133//133 125//125
f 159//159 145//145 157//157
f 114//114 106//106 113//113
f 120//120 108//108 118//118
f 137//137 141//141 146//146
f 155//155 144//144 146//146
f 126//126 143//143 125//125
f 155//155 161//161 158//158
f 117//117 132//132 124//124


## Object floor
v   1.0000 0.0000 -1.0400
v  -0.9900 0.0000 -1.0400
v  -1.0100 0.0000  0.9900
v   1.0000 0.0000  0.9900
# 4 vertices

vn 0.0000 1.0000 -0.0000
# 1 vertex normals

g floor
usemtl floor

s 1
f 162//162 163//162 164//162 
f 164//162 165//162 162//162 
# 2 faces

## Object ceiling 
v   1.0000 1.5900 -1.0400
v   1.0000 1.5900  0.9900
v  -1.0200 1.5900  0.9900
v  -1.0200 1.5900 -1.0400
# 4 vertices

vn 0.0000 -1.0000 -0.0000
# 1 vertex normals

g ceiling
usemtl ceiling

s 1
f 166//163 167//163 168//163 
f 168//163 169//163 166//163 
# 2 faces

## Object backwall 
v   1.0000 1.5900 -1.0400
v  -1.0200 1.5900 -1.0400
v  -0.9900 0.0000 -1.0400
v   1.0000 0.0000 -1.0400
# 4 vertices

vn 0.0000 0.0000 1.0000
# 1 vertex normals

g backWall
usemtl backWall

s 1
f 170//164 171//164 172//164 
f 172//164 173//164 170//164 
# 2 faces

## Object rightwall 
v  1.0000 1.5900 0.9900
v  1.0000 1.5900 -1.0400
v  1.0000 0.0000 -1.0400
v  1.0000 0.0000 0.9900
# 4 vertices

vn -1.0000 0.0000 -0.0000
# 1 vertex normals

g rightWall
usemtl rightWall

s 1
f 174//165 175//165 176//165 
f 176//165 177//165 174//165 
# 2 faces

## Object leftWall 
v  -1.0200 1.5900 -1.0400
v  -1.0200 1.5900 0.9900
v  -1.0100 0.0000 0.9900
v  -0.9900 0.0000 -1.0400
# 4 vertices

vn 0.9999 0.0135 0.0057
vn 1.0000 0.0063 -0.0000
vn 0.9999 0.0116 0.0042
vn 0.9998 0.0189 0.0098
# 4 vertex normals

g leftWall
usemtl leftWall

s 1
f 178//166 179//167 180//168 
f 180//168 181//169 178//166 
# 2 faces

## Object light
v  0.2300 1.5800 -0.2200
v  0.2300 1.5800 0.1600
v  -0.2400 1.5800 0.1600
v  -0.2400 1.5800 -0.2200
# 4 vertices

vn 0.0000 -1.0000 -0.0000
# 1 vertex normals

g light
usemtl light

s 1
f 182//170 183//170 184//170 
f 184//170 185//170 182//170 
# 2 faces
