mtllib CornellBox-Sphere.mtl

## Object leftSphere

v 0.0648122 0.524453 0.0145993
vn 0.764818 -0.643943 0.0197691
v 0.0696641 0.617773 -0.0123368
vn 0.830264 -0.557081 -0.0179804
v 0.0660214 0.577532 0.0742721
vn 0.796996 -0.594862 0.10458
v 0.0437651 0.545912 -0.0620409
vn 0.764635 -0.638532 -0.0872411
v 0.02623 0.621101 -0.0907362
vn 0.803694 -0.578681 -0.138578
v 0.028883 0.704131 -0.0292168
vn 0.871708 -0.487653 -0.0481553
v 0.0146773 0.491814 0.09084
vn 0.706033 -0.697129 0.124614
v 0.0518459 0.664174 0.0657103
vn 0.849868 -0.517188 0.101197
v -0.00381911 0.465832 -0.0255885
vn 0.680156 -0.732228 -0.0350762
v -0.0347987 0.532935 -0.119666
vn 0.694344 -0.697126 -0.17861
v -0.064734 0.438861 0.05146
vn 0.611306 -0.788087 0.0722727
v 0.00805318 0.592696 0.152547
vn 0.759656 -0.609013 0.228092
v -0.107424 0.446898 -0.0570485
vn 0.576761 -0.812602 -0.083814
v -0.0758672 0.490099 0.15203
vn 0.62332 -0.749368 0.223428
v -0.050299 0.668735 -0.144151
vn 0.779591 -0.574274 -0.249896
v -0.0143942 0.738794 0.115619
vn 0.861934 -0.463632 0.205219
v -0.165799 0.430484 0.0681791
vn 0.503434 -0.857908 0.102704
v -0.140858 0.53752 -0.157907
vn 0.592186 -0.762577 -0.26037
v -0.188007 0.495566 0.184499
vn 0.502279 -0.812091 0.297026
v -0.0398842 0.783579 -0.0454743
vn 0.901301 -0.423937 -0.0890776
v -0.0871061 0.601176 0.212556
vn 0.674503 -0.651518 0.347232
v -0.17096 0.655347 -0.195705
vn 0.638758 -0.669067 -0.379918
v -0.11908 0.772716 -0.142837
vn 0.817416 -0.487729 -0.306515
v -0.129864 0.862334 -0.0425607
vn 0.931874 -0.346596 -0.107153
v -0.0768199 0.830654 0.0567635
vn 0.921304 -0.368682 0.12358
v -0.109297 0.711525 0.216352
vn 0.734858 -0.54258 0.406928
v -0.103596 0.804638 0.15404
vn 0.847004 -0.417434 0.32914
v -0.191886 0.784736 0.229923
vn 0.699289 -0.488559 0.521828
v -0.208608 0.625998 0.255936
vn 0.540831 -0.694157 0.475024
v -0.260053 0.555502 -0.176665
vn 0.448391 -0.830637 -0.330134
v -0.278841 0.442822 0.0850666
vn 0.365268 -0.920239 0.140497
v -0.237995 0.450583 -0.0667679
vn 0.427873 -0.897238 -0.109037
v -0.204548 0.852816 -0.132884
vn 0.830324 -0.413639 -0.373451
v -0.174482 0.888376 0.108515
vn 0.90214 -0.309355 0.300737
v -0.33995 0.498683 -0.114026
vn 0.297237 -0.931024 -0.211764
v -0.294614 0.675802 -0.214749
vn 0.467022 -0.737185 -0.488312
v -0.212183 0.754909 -0.193114
vn 0.678013 -0.577362 -0.454919
v -0.306396 0.51042 0.194169
vn 0.345022 -0.872481 0.346029
v -0.346637 0.455804 -0.0151243
vn 0.271153 -0.962165 -0.0267405
v -0.223749 0.927678 -0.0217048
vn 0.964615 -0.252533 -0.0757889
v -0.299424 0.80166 -0.20001
vn 0.580045 -0.573579 -0.578408
v -0.332945 0.607393 0.256758
vn 0.335473 -0.788418 0.515612
v -0.280192 0.950125 0.102518
vn 0.887702 -0.20142 0.414022
v -0.451514 0.510294 -0.0630491
vn 0.0977291 -0.987066 -0.127084
v -0.384953 0.588128 -0.180277
vn 0.247901 -0.887494 -0.388459
v -0.276689 0.868904 0.215866
vn 0.662402 -0.388868 0.640317
v -0.425812 0.545647 0.195936
vn 0.148277 -0.908104 0.391612
v -0.297969 0.727006 0.275492
vn 0.461989 -0.62426 0.629973
v -0.399903 0.477871 0.0877647
vn 0.185767 -0.969 0.162879
v -0.301239 0.911636 -0.127509
vn 0.788308 -0.350461 -0.505715
v -0.424991 0.732046 -0.216481
vn 0.212764 -0.760051 -0.614048
v -0.330626 0.980244 -0.0154042
vn 0.989238 -0.115384 -0.0899691
v -0.517951 0.532784 0.0891797
vn -0.0377138 -0.981568 0.187357
v -0.502428 0.612601 -0.159102
vn -0.00579656 -0.925011 -0.379896
v -0.382898 0.937917 0.195092
vn 0.496497 -0.263225 0.827166
v -0.404738 0.820808 0.271905
vn 0.280769 -0.52814 0.801397
v -0.428729 0.671326 0.269538
vn 0.165363 -0.762594 0.625384
v -0.384478 0.864321 -0.188884
vn 0.444872 -0.522495 -0.727384
v -0.379086 0.995396 0.0877837
vn 0.808841 -0.0308011 0.58722
v -0.412086 0.958259 -0.121966
vn 0.563423 -0.267513 -0.781659
v -0.588332 0.579968 -0.0556575
vn -0.204089 -0.97047 -0.128595
v -0.540318 0.614895 0.20419
vn -0.0921038 -0.879738 0.466453
v -0.447707 1.02093 -0.00338092
vn 0.926712 0.370964 -0.0599151
v -0.532552 0.749227 0.266766
vn -0.0885587 -0.682237 0.725748
v -0.51097 0.904293 0.24151
vn -0.0421908 -0.368084 0.928835
v -0.482615 1.00662 0.1347
vn 0.127849 0.0487013 0.990597
v -0.490113 0.867316 -0.195167
vn 0.0418574 -0.561732 -0.82626
v -0.525233 0.993249 -0.106858
vn -0.229378 -0.0613679 -0.971401
v -0.641895 0.828855 0.237287
vn -0.436383 -0.526339 0.729751
v -0.632846 0.691224 0.206163
vn -0.336893 -0.783046 0.522822
v -0.601876 0.898956 -0.17259
vn -0.453902 -0.450192 -0.768961
v -0.639652 0.606814 0.0995473
vn -0.325558 -0.916601 0.232066
v -0.696159 0.648766 -0.023067
vn -0.486796 -0.871638 -0.0572441
v -0.656935 1.00111 -0.092002
vn -0.862668 0.00612767 -0.505733
v -0.567572 1.04516 0.0224728
vn -0.801351 0.535545 0.266512
v -0.611894 0.982268 0.17967
vn -0.526793 -0.0834806 0.845884
v -0.740237 0.72539 0.135009
vn -0.617512 -0.705866 0.347032
v -0.603775 0.73243 -0.17448
vn -0.308977 -0.796655 -0.519493
v -0.744068 0.909146 0.178029
vn -0.773679 -0.287999 0.564338
v -0.709303 0.863726 -0.144867
vn -0.72491 -0.471978 -0.501738
v -0.727448 0.744284 -0.101812
vn -0.637011 -0.716178 -0.285143
v -0.780353 0.734083 0.00376957
vn -0.725505 -0.688148 0.00975501
v -0.70642 1.03517 0.059826
vn -0.947868 0.161483 0.274717
v -0.787695 0.960493 -0.0607009
vn -0.969744 -0.133166 -0.204606
v -0.799275 0.818022 -0.0646933
vn -0.840227 -0.51091 -0.181629
v -0.829815 0.832635 0.0697516
vn -0.876306 -0.444682 0.185327
v -0.805309 0.968008 0.0859376
vn -0.957734 -0.100358 0.269581
v -0.103551 0.623852 0.0279959
vn 0.724487 -0.687387 0.0511609
v -0.305653 0.69649 0.0295266
vn 0.53745 -0.839333 0.0816536
v -0.688746 0.869773 0.0408045
vn -0.810366 -0.559119 0.175191
v -0.517492 0.842177 -0.0865437
vn -0.0967231 -0.872711 -0.47856
v -0.626632 0.825138 -0.0711725
vn -0.557046 -0.769207 -0.313084
v -0.575556 0.846813 0.156482
vn -0.326165 -0.661287 0.675512
v -0.618607 0.744388 0.0186075
vn -0.419992 -0.905133 0.06589
v -0.539451 0.88941 0.0345007
vn -0.322363 -0.903662 0.281915
v -0.395864 0.869375 0.0828767
vn 0.558423 -0.700468 0.44442
v -0.491334 0.699117 0.000362293
vn 0.0287886 -0.999585 0.0012036
v -0.487959 0.795653 0.148741
vn 0.0475881 -0.807584 0.587829
v -0.604062 0.918977 -0.0616139
vn -0.714872 -0.5566 -0.423266
v -0.40562 0.838236 -0.0663514
vn 0.475011 -0.814153 -0.333944
g leftSphere
usemtl leftSphere

s 1
f 75//75 76//76 66//66
f 77//77 82//82 73//73
f 46//46 43//43 55//55
f 72//72 77//77 73//73
f 43//43 59//59 55//55
f 77//77 86//86 82//82
f 53//53 44//44 49//49
f 8//8 12//12 3//3
f 3//3 12//12 7//7
f 2//2 8//8 3//3
f 74//74 84//84 83//83
f 74//74 68//68 71//71
f 79//79 87//87 86//86
f 2//2 4//4 5//5
f 38//38 47//47 49//49
f 76//76 83//83 79//79
f 50//50 58//58 60//60
f 46//46 34//34 43//43
f 30//30 22//22 18//18
f 75//75 66//66 63//63
f 20//20 25//25 16//16
f 6//6 15//15 20//20
f 52//52 50//50 60//60
f 2//2 3//3 1//1
f 36//36 45//45 51//51
f 66//66 55//55 59//59
f 16//16 26//26 21//21
f 16//16 25//25 27//27
f 50//50 52//52 40//40
f 13//13 10//10 9//9
f 24//24 25//25 20//20
f 44//44 39//39 49//49
f 14//14 19//19 17//17
f 24//24 23//23 33//33
f 31//31 19//19 38//38
f 22//22 15//15 18//18
f 43//43 34//34 40//40
f 31//31 39//39 32//32
f 16//16 8//8 6//6
f 21//21 26//26 29//29
f 57//57 56//56 64//64
f 47//47 62//62 53//53
f 3//3 7//7 1//1
f 29//29 48//48 42//42
f 30//30 45//45 36//36
f 76//76 69//69 65//65
f 28//28 34//34 46//46
f 17//17 11//11 14//14
f 46//46 56//56 48//48
f 84//84 80//80 85//85
f 43//43 52//52 59//59
f 77//77 69//69 79//79
f 56//56 55//55 65//65
f 67//67 51//51 78//78
f 75//75 83//83 76//76
f 17//17 32//32 13//13
f 48//48 28//28 46//46
f 6//6 8//8 2//2
f 79//79 69//69 76//76
f 44//44 45//45 35//35
f 5//5 6//6 2//2
f 16//16 12//12 8//8
f 58//58 41//41 51//51
f 21//21 12//12 16//16
f 48//48 56//56 57//57
f 58//58 51//51 67//67
f 23//23 15//15 22//22
f 27//27 34//34 28//28
f 73//73 81//81 78//78
f 14//14 12//12 21//21
f 10//10 15//15 5//5
f 80//80 84//84 74//74
f 29//29 19//19 21//21
f 70//70 77//77 72//72
f 24//24 34//34 25//25
f 28//28 26//26 27//27
f 49//49 39//39 31//31
f 40//40 33//33 50//50
f 83//83 84//84 87//87
f 5//5 15//15 6//6
f 17//17 19//19 31//31
f 38//38 29//29 42//42
f 49//49 47//47 53//53
f 68//68 67//67 71//71
f 9//9 11//11 13//13
f 42//42 47//47 38//38
f 65//65 66//66 76//76
f 1//1 4//4 2//2
f 85//85 81//81 82//82
f 68//68 60//60 67//67
f 16//16 6//6 20//20
f 79//79 86//86 77//77
f 13//13 11//11 17//17
f 86//86 85//85 82//82
f 39//39 44//44 35//35
f 64//64 56//56 65//65
f 78//78 61//61 73//73
f 79//79 83//83 87//87
f 54//54 61//61 78//78
f 87//87 84//84 86//86
f 73//73 61//61 72//72
f 84//84 85//85 86//86
f 48//48 57//57 42//42
f 59//59 63//63 66//66
f 25//25 34//34 27//27
f 14//14 11//11 7//7
f 28//28 48//48 29//29
f 29//29 26//26 28//28
f 51//51 54//54 78//78
f 70//70 62//62 64//64
f 20//20 23//23 24//24
f 54//54 45//45 44//44
f 32//32 30//30 18//18
f 74//74 75//75 68//68
f 71//71 80//80 74//74
f 65//65 55//55 66//66
f 74//74 83//83 75//75
f 56//56 46//46 55//55
f 53//53 72//72 61//61
f 71//71 78//78 80//80
f 62//62 47//47 57//57
f 71//71 67//67 78//78
f 58//58 67//67 60//60
f 80//80 81//81 85//85
f 13//13 18//18 10//10
f 59//59 52//52 63//63
f 21//21 19//19 14//14
f 44//44 53//53 61//61
f 9//9 4//4 1//1
f 77//77 70//70 69//69
f 37//37 23//23 22//22
f 1//1 7//7 9//9
f 5//5 4//4 10//10
f 62//62 57//57 64//64
f 80//80 78//78 81//81
f 33//33 23//23 37//37
f 40//40 34//34 24//24
f 32//32 18//18 13//13
f 50//50 41//41 58//58
f 75//75 63//63 68//68
f 37//37 41//41 33//33
f 10//10 4//4 9//9
f 7//7 11//11 9//9
f 63//63 52//52 60//60
f 57//57 47//47 42//42
f 49//49 31//31 38//38
f 35//35 32//32 39//39
f 31//31 32//32 17//17
f 73//73 82//82 81//81
f 30//30 32//32 35//35
f 20//20 15//15 23//23
f 27//27 26//26 16//16
f 35//35 45//45 30//30
f 36//36 37//37 22//22
f 7//7 12//12 14//14
f 36//36 41//41 37//37
f 18//18 15//15 10//10
f 70//70 64//64 69//69
f 33//33 41//41 50//50
f 54//54 44//44 61//61
f 24//24 33//33 40//40
f 51//51 45//45 54//54
f 40//40 52//52 43//43
f 38//38 19//19 29//29
f 51//51 41//41 36//36
f 72//72 62//62 70//70
f 22//22 30//30 36//36
f 53//53 62//62 72//72
f 69//69 64//64 65//65
f 63//63 60//60 68//68

## Object rightSphere

v -0.5875 0.25 0
vn 0 0 0
v -0.3375 0.25 0
vn 1 0 0
v -0.363893 0.361804 0
vn 0.894427 0.447214 0
v -0.356335 0.298578 0.0818727
vn 0.924658 0.194311 0.327491
v -0.365269 0.304668 -0.100621
vn 0.888925 0.218673 -0.402486
v -0.403472 0.399769 -0.078758
vn 0.736112 0.599077 -0.315032
v -0.432693 0.446087 0.00919147
vn 0.61923 0.784348 0.0367659
v -0.363941 0.188416 0.0934285
vn 0.894236 -0.246334 0.373714
v -0.410629 0.387968 0.110368
vn 0.707486 0.551874 0.441473
v -0.367473 0.191604 -0.103335
vn 0.880107 -0.233582 -0.413341
v -0.358458 0.149801 -8.75488e-05
vn 0.916168 -0.400795 -0.000350195
v -0.421135 0.251713 -0.186601
vn 0.665458 0.00685229 -0.746404
v -0.444167 0.364414 -0.169897
vn 0.573332 0.457656 -0.67959
v -0.485119 0.455304 -0.0993403
vn 0.409525 0.821214 -0.397361
v -0.409409 0.274129 0.173785
vn 0.712366 0.096514 0.69514
v -0.527304 0.492563 -0.00629535
vn 0.240784 0.970252 -0.0251814
v -0.442748 0.137095 -0.169703
vn 0.579009 -0.45162 -0.678813
v -0.436004 0.146356 0.169726
vn 0.605982 -0.414577 0.678905
v -0.511892 0.464419 0.103961
vn 0.302433 0.857675 0.415846
v -0.414726 0.0800885 0.061474
vn 0.691098 -0.679646 0.245896
v -0.500173 0.374247 0.198587
vn 0.349309 0.496986 0.794347
v -0.413442 0.0814998 -0.0617362
vn 0.696233 -0.674001 -0.246945
v -0.596483 0.483348 -0.0892645
vn -0.035932 0.933391 -0.357058
v -0.502895 0.196054 -0.22898
vn 0.338418 -0.215782 -0.915921
v -0.54919 0.415044 -0.183828
vn 0.153241 0.660177 -0.735312
v -0.518203 0.302872 -0.234313
vn 0.277186 0.211488 -0.937252
v -0.506754 0.236186 0.236198
vn 0.322982 -0.0552575 0.944791
v -0.533178 0.122009 0.207768
vn 0.21729 -0.511964 0.83107
v -0.500781 0.048265 -0.119511
vn 0.346876 -0.80694 -0.478043
v -0.627208 0.494429 0.0343175
vn -0.158833 0.977716 0.13727
v -0.514707 0.0432995 0.120316
vn 0.291174 -0.826802 0.481264
v -0.556411 0.102098 -0.199144
vn 0.124357 -0.591609 -0.796576
v -0.652097 0.431072 -0.159813
vn -0.258388 0.724289 -0.639251
v -0.502034 0.0151782 -0.0073646
vn 0.341866 -0.939287 -0.0294584
v -0.606661 0.322435 0.238508
vn -0.0766425 0.289742 0.954031
v -0.709291 0.458556 -0.0645855
vn -0.487165 0.834224 -0.258342
v -0.620815 0.440442 0.158499
vn -0.133259 0.761769 0.633996
v -0.609796 0.20734 -0.245322
vn -0.0891821 -0.170641 -0.981289
v -0.615078 0.185665 0.240001
vn -0.11031 -0.257341 0.960004
v -0.604107 0.0208233 -0.0985003
vn -0.0664263 -0.916707 -0.394001
v -0.738032 0.440036 0.0610438
vn -0.602127 0.760145 0.244175
v -0.625648 0.0683658 0.167492
vn -0.152591 -0.726537 0.66997
v -0.639455 0.335107 -0.229254
vn -0.207822 0.340429 -0.917016
v -0.70028 0.256923 0.223008
vn -0.451122 0.0276906 0.892033
v -0.798255 0.376885 -0.044525
vn -0.843022 0.507538 -0.1781
v -0.728947 0.364011 0.171739
vn -0.565787 0.456045 0.686955
v -0.682286 0.105617 -0.180746
vn -0.379144 -0.577531 -0.722985
v -0.618059 0.00569375 0.0433655
vn -0.122236 -0.977225 0.173462
v -0.740168 0.370642 -0.156965
vn -0.610673 0.482569 -0.627859
v -0.725921 0.239512 -0.207917
vn -0.553685 -0.0419533 -0.831669
v -0.716083 0.147342 0.188223
vn -0.514331 -0.410633 0.752891
v -0.811335 0.338188 0.0679763
vn -0.89534 0.352752 0.271905
v -0.726307 0.0495782 -0.0553525
vn -0.555226 -0.801687 -0.22141
v -0.728081 0.0603012 0.082167
vn -0.562323 -0.758795 0.328668
v -0.781603 0.249774 0.157556
vn -0.776413 -0.000904782 0.630224
v -0.790415 0.161365 -0.116058
vn -0.811658 -0.354539 -0.464234
v -0.800165 0.278246 -0.128358
vn -0.85066 0.112984 -0.513432
v -0.788956 0.146983 0.106315
vn -0.805824 -0.412069 0.42526
v -0.835034 0.250792 -0.035022
vn -0.990134 0.00316965 -0.140088
v -0.805951 0.128435 0.00096488
vn -0.873805 -0.486261 0.00385952
v -0.827736 0.222041 0.063286
vn -0.960943 -0.111836 0.253144
g rightSphere
usemtl rightSphere

s 1
f 160//160 161//161 159//159
f 159//159 161//161 152//152
f 156//156 160//160 159//159
f 134//134 120//120 131//131
f 153//153 156//156 147//147
f 155//155 158//158 151//151
f 139//139 128//128 127//127
f 116//116 123//123 130//130
f 112//112 117//117 124//124
f 150//150 149//149 143//143
f 126//126 112//112 124//124
f 139//139 127//127 135//135
f 152//152 155//155 146//146
f 120//120 111//111 108//108
f 110//110 105//105 102//102
f 132//132 117//117 129//129
f 138//138 126//126 124//124
f 106//106 105//105 113//113
f 127//127 128//128 118//118
f 137//137 130//130 141//141
f 121//121 115//115 109//109
f 141//141 152//152 146//146
f 131//131 120//120 118//118
f 128//128 139//139 142//142
f 149//149 145//145 136//136
f 122//122 117//117 110//110
f 123//123 116//116 114//114
f 153//153 147//147 140//140
f 129//129 134//134 140//140
f 132//132 129//129 140//140
f 108//108 115//115 118//118
f 148//148 153//153 140//140
f 115//115 127//127 118//118
f 103//103 106//106 107//107
f 160//160 156//156 153//153
f 126//126 125//125 113//113
f 121//121 109//109 119//119
f 136//136 145//145 141//141
f 111//111 122//122 110//110
f 117//117 112//112 110//110
f 134//134 122//122 120//120
f 131//131 128//128 142//142
f 148//148 131//131 142//142
f 128//128 131//131 118//118
f 156//156 159//159 157//157
f 150//150 138//138 147//147
f 133//133 149//149 136//136
f 158//158 154//154 151//151
f 106//106 114//114 107//107
f 148//148 134//134 131//131
f 123//123 114//114 125//125
f 154//154 142//142 151//151
f 160//160 154//154 158//158
f 121//121 127//127 115//115
f 108//108 111//111 102//102
f 109//109 103//103 107//107
f 127//127 121//121 135//135
f 142//142 139//139 151//151
f 104//104 115//115 108//108
f 161//161 160//160 158//158
f 154//154 148//148 142//142
f 138//138 143//143 126//126
f 145//145 149//149 157//157
f 105//105 112//112 113//113
f 156//156 150//150 147//147
f 112//112 105//105 110//110
f 135//135 137//137 146//146
f 123//123 136//136 130//130
f 145//145 159//159 152//152
f 144//144 139//139 135//135
f 149//149 150//150 157//157
f 114//114 116//116 107//107
f 144//144 155//155 151//151
f 123//123 133//133 136//136
f 116//116 119//119 107//107
f 161//161 155//155 152//152
f 149//149 133//133 143//143
f 109//109 104//104 103//103
f 138//138 150//150 143//143
f 133//133 123//123 125//125
f 148//148 154//154 153//153
f 134//134 148//148 140//140
f 132//132 138//138 124//124
f 104//104 108//108 102//102
f 122//122 134//134 129//129
f 137//137 119//119 130//130
f 111//111 110//110 102//102
f 125//125 114//114 113//113
f 144//144 135//135 146//146
f 139//139 144//144 151//151
f 138//138 132//132 147//147
f 103//103 104//104 102//102
f 130//130 136//136 141//141
f 141//141 145//145 152//152
f 137//137 121//121 119//119
f 154//154 160//160 153//153
f 122//122 111//111 120//120
f 112//112 126//126 113//113
f 150//150 156//156 157//157
f 117//117 122//122 129//129
f 115//115 104//104 109//109
f 119//119 109//109 107//107
f 105//105 106//106 103//103
f 119//119 116//116 130//130
f 147//147 132//132 140//140
f 121//121 137//137 135//135
f 105//105 103//103 102//102
f 143//143 133//133 125//125
f 159//159 145//145 157//157
f 114//114 106//106 113//113
f 120//120 108//108 118//118
f 137//137 141//141 146//146
f 155//155 144//144 146//146
f 126//126 143//143 125//125
f 155//155 161//161 158//158
f 117//117 132//132 124//124


## Object floor
v   1.0000 0.0000 -1.0400
v  -0.9900 0.0000 -1.0400
v  -1.0100 0.0000  0.9900
v   1.0000 0.0000  0.9900
# 4 vertices

vn 0.0000 1.0000 -0.0000
# 1 vertex normals

g floor
usemtl floor

s 1
f 162//162 163//162 164//162 
f 164//162 165//162 162//162 
# 2 faces

## Object ceiling 
v   1.0000 1.5900 -1.0400
v   1.0000 1.5900  0.9900
v  -1.0200 1.5900  0.9900
v  -1.0200 1.5900 -1.0400
# 4 vertices

vn 0.0000 -1.0000 -0.0000
# 1 vertex normals

g ceiling
usemtl ceiling

s 1
f 166//163 167//163 168//163 
f 168//163 169//163 166//163 
# 2 faces

## Object backwall 
v   1.0000 1.5900 -1.0400
v  -1.0200 1.5900 -1.0400
v  -0.9900 0.0000 -1.0400
v   1.0000 0.0000 -1.0400
# 4 vertices

vn 0.0000 0.0000 1.0000
# 1 vertex normals

g backWall
usemtl backWall

s 1
f 170//164 171//164 172//164 
f 172//164 173//164 170//164 
# 2 faces

## Object rightwall 
v  1.0000 1.5900 0.9900
v  1.0000 1.5900 -1.0400
v  1.0000 0.0000 -1.0400
v  1.0000 0.0000 0.9900
# 4 vertices

vn -1.0000 0.0000 -0.0000
# 1 vertex normals

g rightWall
usemtl rightWall

s 1
f 174//165 175//165 176//165 
f 176//165 177//165 174//165 
# 2 faces

## Object leftWall 
v  -1.0200 1.5900 -1.0400
v  -1.0200 1.5900 0.9900
v  -1.0100 0.0000 0.9900
v  -0.9900 0.0000 -1.0400
# 4 vertices

vn 0.9999 0.0135 0.0057
vn 1.0000 0.0063 -0.0000
vn 0.9999 0.0116 0.0042
vn 0.9998 0.0189 0.0098
# 4 vertex normals

g leftWall
usemtl leftWall

s 1
f 178//166 179//167 180//168 
f 180//168 181//169 178//166 
# 2 faces

## Object light
v  0.2300 1.5800 -0.2200
v  0.2300 1.5800 0.1600
v  -0.2400 1.5800 0.1600
v  -0.2400 1.5800 -0.2200
# 4 vertices

vn 0.0000 -1.0000 -0.0000
# 1 vertex normals

g light
usemtl light

s 1
f 182//170 183//170 184//170 
f 184//170 185//170 182//170 
# 2 faces
