mtllib CornellBox-Sphere.mtl

## Object leftSphere

v 0.00134277 0.661383 7.70989e-05
vn 0.828687 -0.559712 0.000127439
v -0.0329829 0.752792 7.61165e-05
vn 0.883816 -0.467834 0.000144048
v -0.0223638 0.688888 0.0712871
vn 0.831446 -0.54157 0.124093
v -0.0240766 0.696184 -0.0707934
vn 0.836346 -0.533899 -0.124406
v -0.0716584 0.763278 -0.0815895
vn 0.863321 -0.477112 -0.164443
v -0.106411 0.817119 -0.00104414
vn 0.90688 -0.421382 -0.00240583
v -0.0326377 0.589709 0.0553922
vn 0.748537 -0.657131 0.0887174
v -0.071319 0.761658 0.0833742
vn 0.861637 -0.47906 0.16758
v -0.0339168 0.596632 -0.0655598
vn 0.751906 -0.650732 -0.105764
v -0.0877012 0.671733 -0.142423
vn 0.75523 -0.601304 -0.260884
v -0.0800887 0.525421 -0.00866987
vn 0.662593 -0.748855 -0.0136805
v -0.0839471 0.655983 0.140059
vn 0.745973 -0.616815 0.251123
v -0.118664 0.548789 -0.116816
vn 0.63323 -0.749261 -0.193979
v -0.115587 0.535841 0.0998279
vn 0.62927 -0.759812 0.163415
v -0.161083 0.789696 -0.133713
vn 0.805641 -0.499914 -0.31785
v -0.164065 0.787063 0.138288
vn 0.797771 -0.50568 0.328403
v -0.169236 0.475308 -0.00837088
vn 0.533229 -0.845863 -0.0134948
v -0.185155 0.644164 -0.194746
vn 0.613147 -0.692974 -0.37926
v -0.220851 0.492388 0.118664
vn 0.472067 -0.858419 0.200672
v -0.202878 0.863953 -0.00943635
vn 0.908841 -0.416143 -0.028864
v -0.175639 0.612618 0.18511
vn 0.6028 -0.719921 0.344013
v -0.264235 0.744486 -0.206594
vn 0.582974 -0.631808 -0.510842
v -0.269473 0.851526 -0.11873
vn 0.771498 -0.496893 -0.397351
v -0.31919 0.897339 -0.00224806
vn 0.869554 -0.493719 -0.0108114
v -0.258674 0.861579 0.0937353
vn 0.822031 -0.471505 0.319292
v -0.242755 0.701268 0.212522
vn 0.574384 -0.667016 0.474524
v -0.274768 0.801984 0.176276
vn 0.647461 -0.569226 0.50673
v -0.349803 0.732535 0.230495
vn 0.391446 -0.69707 0.600719
v -0.29768 0.580675 0.214762
vn 0.394595 -0.817832 0.418862
v -0.301828 0.618227 -0.226505
vn 0.407649 -0.785323 -0.46593
v -0.277965 0.44164 -0.00292719
vn 0.369508 -0.929215 -0.00487139
v -0.239354 0.504213 -0.142764
vn 0.450919 -0.857713 -0.246982
v -0.384275 0.884564 -0.104567
vn 0.596394 -0.594904 -0.538891
v -0.374104 0.861621 0.141677
vn 0.536477 -0.589668 0.603725
v -0.352303 0.520602 -0.190019
vn 0.275339 -0.893703 -0.354236
v -0.387598 0.717651 -0.239567
vn 0.290466 -0.729635 -0.619081
v -0.347411 0.81329 -0.186963
vn 0.500092 -0.611921 -0.612748
v -0.335484 0.461081 0.11558
vn 0.286013 -0.93692 0.200938
v -0.343684 0.455344 -0.10442
vn 0.271296 -0.945281 -0.181226
v -0.43504 0.911995 0.0171331
vn 0.586722 -0.794865 0.154748
v -0.450114 0.819013 -0.196538
vn 0.183542 -0.665896 -0.723115
v -0.401223 0.520299 0.197089
vn 0.187101 -0.908639 0.373321
v -0.49855 0.876597 0.1331
vn 0.00798605 -0.679867 0.733292
v -0.460398 0.478499 -0.151866
vn 0.0727167 -0.957576 -0.278855
v -0.431979 0.596267 -0.239797
vn 0.143359 -0.850899 -0.50539
v -0.46289 0.779009 0.223343
vn 0.117295 -0.698498 0.705934
v -0.457537 0.45354 0.109761
vn 0.0759646 -0.977585 0.196357
v -0.421117 0.633356 0.246843
vn 0.175693 -0.816618 0.549788
v -0.406099 0.4348 -0.00619984
vn 0.163881 -0.986421 -0.0108203
v -0.50045 0.89418 -0.100537
vn -0.00308281 -0.724969 -0.688775
v -0.535217 0.711733 -0.248809
vn -0.0920894 -0.7538 -0.650619
v -0.557362 0.911776 0.0198481
vn -0.53565 -0.823849 0.185344
v -0.517988 0.490065 -0.00607503
vn -0.0352498 -0.999308 -0.0119051
v -0.552088 0.56321 -0.225455
vn -0.105378 -0.883661 -0.456113
v -0.587398 0.801667 0.206678
vn -0.29183 -0.662252 0.690114
v -0.558177 0.673839 0.250372
vn -0.140094 -0.785413 0.60291
v -0.513663 0.538372 0.21395
vn -0.0268444 -0.906965 0.420349
v -0.55674 0.835544 -0.183251
vn -0.224556 -0.650852 -0.725235
v -0.608408 0.879095 0.117466
vn -0.540899 -0.603255 0.586098
v -0.623479 0.887264 -0.0987723
vn -0.635845 -0.580524 -0.508619
v -0.614857 0.476723 -0.136573
vn -0.207747 -0.946477 -0.247027
v -0.588066 0.468243 0.122035
vn -0.159355 -0.962208 0.220821
v -0.681943 0.894955 0.0287431
vn -0.858032 -0.495386 0.135551
v -0.639415 0.562833 0.217246
vn -0.274608 -0.861093 0.427912
v -0.688478 0.707382 0.230031
vn -0.45176 -0.701369 0.551357
v -0.707457 0.831852 0.155254
vn -0.67161 -0.544354 0.502611
v -0.656427 0.794686 -0.201747
vn -0.477486 -0.626712 -0.615824
v -0.74243 0.865847 -0.0868994
vn -0.834871 -0.461989 -0.299261
v -0.774448 0.58901 0.19682
vn -0.515927 -0.772607 0.369996
v -0.706839 0.493848 0.136979
vn -0.366944 -0.897942 0.243008
v -0.77328 0.770275 -0.183343
vn -0.680926 -0.572402 -0.456833
v -0.679081 0.482439 0.00923752
vn -0.326941 -0.944894 0.0168646
v -0.745688 0.481624 -0.104075
vn -0.421409 -0.889128 -0.178511
v -0.865594 0.815004 -0.0806103
vn -0.875488 -0.44301 -0.193037
v -0.801255 0.857484 0.0499045
vn -0.893984 -0.42292 0.148093
v -0.814274 0.741744 0.17991
vn -0.706579 -0.580633 0.404489
v -0.818066 0.484598 0.060719
vn -0.52255 -0.846753 0.099755
v -0.701347 0.622077 -0.227023
vn -0.41543 -0.779752 -0.468407
v -0.90251 0.621953 0.144873
vn -0.70505 -0.662199 0.253764
v -0.858293 0.689712 -0.175615
vn -0.708842 -0.613868 -0.347433
v -0.821638 0.565262 -0.166926
vn -0.568304 -0.76814 -0.294942
v -0.860913 0.504934 -0.0707569
vn -0.585205 -0.802728 -0.114729
v -0.922599 0.778397 0.0698157
vn -0.876294 -0.459512 0.144768
v -0.967852 0.716631 -0.0737394
vn -0.847673 -0.51342 -0.133604
v -0.917944 0.58907 -0.118837
vn -0.698846 -0.687118 -0.198707
v -0.948293 0.549604 0.0107979
vn -0.705348 -0.708657 0.0169895
v -0.983848 0.671629 0.0666461
vn -0.822117 -0.557943 0.11324
v -0.192663 0.678604 0.0102491
vn 0.690939 -0.722545 0.0230415
v -0.407638 0.668414 -0.00222817
vn 0.268326 -0.963306 -0.00647315
v -0.838179 0.650256 0.00668608
vn -0.695055 -0.718825 0.0137418
v -0.670429 0.734535 -0.106554
vn -0.511839 -0.797256 -0.320006
v -0.764776 0.671415 -0.107964
vn -0.607868 -0.754361 -0.247863
v -0.722921 0.653476 0.127282
vn -0.516923 -0.803541 0.295149
v -0.721226 0.590486 -0.0383774
vn -0.473689 -0.87685 -0.0821737
v -0.709818 0.735666 0.0219028
vn -0.620406 -0.781602 0.0647637
v -0.567899 0.765735 0.0793459
vn -0.264727 -0.913356 0.309355
v -0.581604 0.610608 -0.0527984
vn -0.20333 -0.970232 -0.131555
v -0.620432 0.650052 0.115045
vn -0.310744 -0.902951 0.296845
v -0.782667 0.757494 -0.0700069
vn -0.745902 -0.639925 -0.184734
v -0.564493 0.773498 -0.0748037
vn -0.261001 -0.916643 -0.302727
g leftSphere
usemtl leftSphere

s 1
f 75//75 76//76 66//66
f 77//77 82//82 73//73
f 46//46 43//43 55//55
f 72//72 77//77 73//73
f 43//43 59//59 55//55
f 77//77 86//86 82//82
f 53//53 44//44 49//49
f 8//8 12//12 3//3
f 3//3 12//12 7//7
f 2//2 8//8 3//3
f 74//74 84//84 83//83
f 74//74 68//68 71//71
f 79//79 87//87 86//86
f 2//2 4//4 5//5
f 38//38 47//47 49//49
f 76//76 83//83 79//79
f 50//50 58//58 60//60
f 46//46 34//34 43//43
f 30//30 22//22 18//18
f 75//75 66//66 63//63
f 20//20 25//25 16//16
f 6//6 15//15 20//20
f 52//52 50//50 60//60
f 2//2 3//3 1//1
f 36//36 45//45 51//51
f 66//66 55//55 59//59
f 16//16 26//26 21//21
f 16//16 25//25 27//27
f 50//50 52//52 40//40
f 13//13 10//10 9//9
f 24//24 25//25 20//20
f 44//44 39//39 49//49
f 14//14 19//19 17//17
f 24//24 23//23 33//33
f 31//31 19//19 38//38
f 22//22 15//15 18//18
f 43//43 34//34 40//40
f 31//31 39//39 32//32
f 16//16 8//8 6//6
f 21//21 26//26 29//29
f 57//57 56//56 64//64
f 47//47 62//62 53//53
f 3//3 7//7 1//1
f 29//29 48//48 42//42
f 30//30 45//45 36//36
f 76//76 69//69 65//65
f 28//28 34//34 46//46
f 17//17 11//11 14//14
f 46//46 56//56 48//48
f 84//84 80//80 85//85
f 43//43 52//52 59//59
f 77//77 69//69 79//79
f 56//56 55//55 65//65
f 67//67 51//51 78//78
f 75//75 83//83 76//76
f 17//17 32//32 13//13
f 48//48 28//28 46//46
f 6//6 8//8 2//2
f 79//79 69//69 76//76
f 44//44 45//45 35//35
f 5//5 6//6 2//2
f 16//16 12//12 8//8
f 58//58 41//41 51//51
f 21//21 12//12 16//16
f 48//48 56//56 57//57
f 58//58 51//51 67//67
f 23//23 15//15 22//22
f 27//27 34//34 28//28
f 73//73 81//81 78//78
f 14//14 12//12 21//21
f 10//10 15//15 5//5
f 80//80 84//84 74//74
f 29//29 19//19 21//21
f 70//70 77//77 72//72
f 24//24 34//34 25//25
f 28//28 26//26 27//27
f 49//49 39//39 31//31
f 40//40 33//33 50//50
f 83//83 84//84 87//87
f 5//5 15//15 6//6
f 17//17 19//19 31//31
f 38//38 29//29 42//42
f 49//49 47//47 53//53
f 68//68 67//67 71//71
f 9//9 11//11 13//13
f 42//42 47//47 38//38
f 65//65 66//66 76//76
f 1//1 4//4 2//2
f 85//85 81//81 82//82
f 68//68 60//60 67//67
f 16//16 6//6 20//20
f 79//79 86//86 77//77
f 13//13 11//11 17//17
f 86//86 85//85 82//82
f 39//39 44//44 35//35
f 64//64 56//56 65//65
f 78//78 61//61 73//73
f 79//79 83//83 87//87
f 54//54 61//61 78//78
f 87//87 84//84 86//86
f 73//73 61//61 72//72
f 84//84 85//85 86//86
f 48//48 57//57 42//42
f 59//59 63//63 66//66
f 25//25 34//34 27//27
f 14//14 11//11 7//7
f 28//28 48//48 29//29
f 29//29 26//26 28//28
f 51//51 54//54 78//78
f 70//70 62//62 64//64
f 20//20 23//23 24//24
f 54//54 45//45 44//44
f 32//32 30//30 18//18
f 74//74 75//75 68//68
f 71//71 80//80 74//74
f 65//65 55//55 66//66
f 74//74 83//83 75//75
f 56//56 46//46 55//55
f 53//53 72//72 61//61
f 71//71 78//78 80//80
f 62//62 47//47 57//57
f 71//71 67//67 78//78
f 58//58 67//67 60//60
f 80//80 81//81 85//85
f 13//13 18//18 10//10
f 59//59 52//52 63//63
f 21//21 19//19 14//14
f 44//44 53//53 61//61
f 9//9 4//4 1//1
f 77//77 70//70 69//69
f 37//37 23//23 22//22
f 1//1 7//7 9//9
f 5//5 4//4 10//10
f 62//62 57//57 64//64
f 80//80 78//78 81//81
f 33//33 23//23 37//37
f 40//40 34//34 24//24
f 32//32 18//18 13//13
f 50//50 41//41 58//58
f 75//75 63//63 68//68
f 37//37 41//41 33//33
f 10//10 4//4 9//9
f 7//7 11//11 9//9
f 63//63 52//52 60//60
f 57//57 47//47 42//42
f 49//49 31//31 38//38
f 35//35 32//32 39//39
f 31//31 32//32 17//17
f 73//73 82//82 81//81
f 30//30 32//32 35//35
f 20//20 15//15 23//23
f 27//27 26//26 16//16
f 35//35 45//45 30//30
f 36//36 37//37 22//22
f 7//7 12//12 14//14
f 36//36 41//41 37//37
f 18//18 15//15 10//10
f 70//70 64//64 69//69
f 33//33 41//41 50//50
f 54//54 44//44 61//61
f 24//24 33//33 40//40
f 51//51 45//45 54//54
f 40//40 52//52 43//43
f 38//38 19//19 29//29
f 51//51 41//41 36//36
f 72//72 62//62 70//70
f 22//22 30//30 36//36
f 53//53 62//62 72//72
f 69//69 64//64 65//65
f 63//63 60//60 68//68

## Object rightSphere

v -0.5875 0.25 0
vn 0 0 0
v -0.3375 0.25 0
vn 1 0 0
v -0.363893 0.361804 0
vn 0.894427 0.447214 0
v -0.356335 0.298578 0.0818727
vn 0.924658 0.194311 0.327491
v -0.365269 0.304668 -0.100621
vn 0.888925 0.218673 -0.402486
v -0.403472 0.399769 -0.078758
vn 0.736112 0.599077 -0.315032
v -0.432693 0.446087 0.00919147
vn 0.61923 0.784348 0.0367659
v -0.363941 0.188416 0.0934285
vn 0.894236 -0.246334 0.373714
v -0.410629 0.387968 0.110368
vn 0.707486 0.551874 0.441473
v -0.367473 0.191604 -0.103335
vn 0.880107 -0.233582 -0.413341
v -0.358458 0.149801 -8.75488e-05
vn 0.916168 -0.400795 -0.000350195
v -0.421135 0.251713 -0.186601
vn 0.665458 0.00685229 -0.746404
v -0.444167 0.364414 -0.169897
vn 0.573332 0.457656 -0.67959
v -0.485119 0.455304 -0.0993403
vn 0.409525 0.821214 -0.397361
v -0.409409 0.274129 0.173785
vn 0.712366 0.096514 0.69514
v -0.527304 0.492563 -0.00629535
vn 0.240784 0.970252 -0.0251814
v -0.442748 0.137095 -0.169703
vn 0.579009 -0.45162 -0.678813
v -0.436004 0.146356 0.169726
vn 0.605982 -0.414577 0.678905
v -0.511892 0.464419 0.103961
vn 0.302433 0.857675 0.415846
v -0.414726 0.0800885 0.061474
vn 0.691098 -0.679646 0.245896
v -0.500173 0.374247 0.198587
vn 0.349309 0.496986 0.794347
v -0.413442 0.0814998 -0.0617362
vn 0.696233 -0.674001 -0.246945
v -0.596483 0.483348 -0.0892645
vn -0.035932 0.933391 -0.357058
v -0.502895 0.196054 -0.22898
vn 0.338418 -0.215782 -0.915921
v -0.54919 0.415044 -0.183828
vn 0.153241 0.660177 -0.735312
v -0.518203 0.302872 -0.234313
vn 0.277186 0.211488 -0.937252
v -0.506754 0.236186 0.236198
vn 0.322982 -0.0552575 0.944791
v -0.533178 0.122009 0.207768
vn 0.21729 -0.511964 0.83107
v -0.500781 0.048265 -0.119511
vn 0.346876 -0.80694 -0.478043
v -0.627208 0.494429 0.0343175
vn -0.158833 0.977716 0.13727
v -0.514707 0.0432995 0.120316
vn 0.291174 -0.826802 0.481264
v -0.556411 0.102098 -0.199144
vn 0.124357 -0.591609 -0.796576
v -0.652097 0.431072 -0.159813
vn -0.258388 0.724289 -0.639251
v -0.502034 0.0151782 -0.0073646
vn 0.341866 -0.939287 -0.0294584
v -0.606661 0.322435 0.238508
vn -0.0766425 0.289742 0.954031
v -0.709291 0.458556 -0.0645855
vn -0.487165 0.834224 -0.258342
v -0.620815 0.440442 0.158499
vn -0.133259 0.761769 0.633996
v -0.609796 0.20734 -0.245322
vn -0.0891821 -0.170641 -0.981289
v -0.615078 0.185665 0.240001
vn -0.11031 -0.257341 0.960004
v -0.604107 0.0208233 -0.0985003
vn -0.0664263 -0.916707 -0.394001
v -0.738032 0.440036 0.0610438
vn -0.602127 0.760145 0.244175
v -0.625648 0.0683658 0.167492
vn -0.152591 -0.726537 0.66997
v -0.639455 0.335107 -0.229254
vn -0.207822 0.340429 -0.917016
v -0.70028 0.256923 0.223008
vn -0.451122 0.0276906 0.892033
v -0.798255 0.376885 -0.044525
vn -0.843022 0.507538 -0.1781
v -0.728947 0.364011 0.171739
vn -0.565787 0.456045 0.686955
v -0.682286 0.105617 -0.180746
vn -0.379144 -0.577531 -0.722985
v -0.618059 0.00569375 0.0433655
vn -0.122236 -0.977225 0.173462
v -0.740168 0.370642 -0.156965
vn -0.610673 0.482569 -0.627859
v -0.725921 0.239512 -0.207917
vn -0.553685 -0.0419533 -0.831669
v -0.716083 0.147342 0.188223
vn -0.514331 -0.410633 0.752891
v -0.811335 0.338188 0.0679763
vn -0.89534 0.352752 0.271905
v -0.726307 0.0495782 -0.0553525
vn -0.555226 -0.801687 -0.22141
v -0.728081 0.0603012 0.082167
vn -0.562323 -0.758795 0.328668
v -0.781603 0.249774 0.157556
vn -0.776413 -0.000904782 0.630224
v -0.790415 0.161365 -0.116058
vn -0.811658 -0.354539 -0.464234
v -0.800165 0.278246 -0.128358
vn -0.85066 0.112984 -0.513432
v -0.788956 0.146983 0.106315
vn -0.805824 -0.412069 0.42526
v -0.835034 0.250792 -0.035022
vn -0.990134 0.00316965 -0.140088
v -0.805951 0.128435 0.00096488
vn -0.873805 -0.486261 0.00385952
v -0.827736 0.222041 0.063286
vn -0.960943 -0.111836 0.253144
g rightSphere
usemtl rightSphere

s 1
f 160//160 161//161 159//159
f 159//159 161//161 152//152
f 156//156 160//160 159//159
f 134//134 120//120 131//131
f 153//153 156//156 147//147
f 155//155 158//158 151//151
f 139//139 128//128 127//127
f 116//116 123//123 130//130
f 112//112 117//117 124//124
f 150//150 149//149 143//143
f 126//126 112//112 124//124
f 139//139 127//127 135//135
f 152//152 155//155 146//146
f 120//120 111//111 108//108
f 110//110 105//105 102//102
f 132//132 117//117 129//129
f 138//138 126//126 124//124
f 106//106 105//105 113//113
f 127//127 128//128 118//118
f 137//137 130//130 141//141
f 121//121 115//115 109//109
f 141//141 152//152 146//146
f 131//131 120//120 118//118
f 128//128 139//139 142//142
f 149//149 145//145 136//136
f 122//122 117//117 110//110
f 123//123 116//116 114//114
f 153//153 147//147 140//140
f 129//129 134//134 140//140
f 132//132 129//129 140//140
f 108//108 115//115 118//118
f 148//148 153//153 140//140
f 115//115 127//127 118//118
f 103//103 106//106 107//107
f 160//160 156//156 153//153
f 126//126 125//125 113//113
f 121//121 109//109 119//119
f 136//136 145//145 141//141
f 111//111 122//122 110//110
f 117//117 112//112 110//110
f 134//134 122//122 120//120
f 131//131 128//128 142//142
f 148//148 131//131 142//142
f 128//128 131//131 118//118
f 156//156 159//159 157//157
f 150//150 138//138 147//147
f 133//133 149//149 136//136
f 158//158 154//154 151//151
f 106//106 114//114 107//107
f 148//148 134//134 131//131
f 123//123 114//114 125//125
f 154//154 142//142 151//151
f 160//160 154//154 158//158
f 121//121 127//127 115//115
f 108//108 111//111 102//102
f 109//109 103//103 107//107
f 127//127 121//121 135//135
f 142//142 139//139 151//151
f 104//104 115//115 108//108
f 161//161 160//160 158//158
f 154//154 148//148 142//142
f 138//138 143//143 126//126
f 145//145 149//149 157//157
f 105//105 112//112 113//113
f 156//156 150//150 147//147
f 112//112 105//105 110//110
f 135//135 137//137 146//146
f 123//123 136//136 130//130
f 145//145 159//159 152//152
f 144//144 139//139 135//135
f 149//149 150//150 157//157
f 114//114 116//116 107//107
f 144//144 155//155 151//151
f 123//123 133//133 136//136
f 116//116 119//119 107//107
f 161//161 155//155 152//152
f 149//149 133//133 143//143
f 109//109 104//104 103//103
f 138//138 150//150 143//143
f 133//133 123//123 125//125
f 148//148 154//154 153//153
f 134//134 148//148 140//140
f 132//132 138//138 124//124
f 104//104 108//108 102//102
f 122//122 134//134 129//129
f 137//137 119//119 130//130
f 111//111 110//110 102//102
f 125//125 114//114 113//113
f 144//144 135//135 146//146
f 139//139 144//144 151//151
f 138//138 132//132 147//147
f 103//103 104//104 102//102
f 130//130 136//136 141//141
f 141//141 145//145 152//152
f 137//137 121//121 119//119
f 154//154 160//160 153//153
f 122//122 111//111 120//120
f 112//112 126//126 113//113
f 150//150 156//156 157//157
f 117//117 122//122 129//129
f 115//115 104//104 109//109
f 119//119 109//109 107//107
f 105//105 106//106 103//103
f 119//119 116//116 130//130
f 147//147 132//132 140//140
f 121//121 137//137 135//135
f 105//105 103//103 102//102
f 143//143 133//133 125//125
f 159//159 145//145 157//157
f 114//114 106//106 113//113
f 120//120 108//108 118//118
f 137//137 141//141 146//146
f 155//155 144//144 146//146
f 126//126 143//143 125//125
f 155//155 161//161 158//158
f 117//117 132//132 124//124


## Object floor
v   1.0000 0.0000 -1.0400
v  -0.9900 0.0000 -1.0400
v  -1.0100 0.0000  0.9900
v   1.0000 0.0000  0.9900
# 4 vertices

vn 0.0000 1.0000 -0.0000
# 1 vertex normals

g floor
usemtl floor

s 1
f 162//162 163//162 164//162 
f 164//162 165//162 162//162 
# 2 faces

## Object ceiling 
v   1.0000 1.5900 -1.0400
v   1.0000 1.5900  0.9900
v  -1.0200 1.5900  0.9900
v  -1.0200 1.5900 -1.0400
# 4 vertices

vn 0.0000 -1.0000 -0.0000
# 1 vertex normals

g ceiling
usemtl ceiling

s 1
f 166//163 167//163 168//163 
f 168//163 169//163 166//163 
# 2 faces

## Object backwall 
v   1.0000 1.5900 -1.0400
v  -1.0200 1.5900 -1.0400
v  -0.9900 0.0000 -1.0400
v   1.0000 0.0000 -1.0400
# 4 vertices

vn 0.0000 0.0000 1.0000
# 1 vertex normals

g backWall
usemtl backWall

s 1
f 170//164 171//164 172//164 
f 172//164 173//164 170//164 
# 2 faces

## Object rightwall 
v  1.0000 1.5900 0.9900
v  1.0000 1.5900 -1.0400
v  1.0000 0.0000 -1.0400
v  1.0000 0.0000 0.9900
# 4 vertices

vn -1.0000 0.0000 -0.0000
# 1 vertex normals

g rightWall
usemtl rightWall

s 1
f 174//165 175//165 176//165 
f 176//165 177//165 174//165 
# 2 faces

## Object leftWall 
v  -1.0200 1.5900 -1.0400
v  -1.0200 1.5900 0.9900
v  -1.0100 0.0000 0.9900
v  -0.9900 0.0000 -1.0400
# 4 vertices

vn 0.9999 0.0135 0.0057
vn 1.0000 0.0063 -0.0000
vn 0.9999 0.0116 0.0042
vn 0.9998 0.0189 0.0098
# 4 vertex normals

g leftWall
usemtl leftWall

s 1
f 178//166 179//167 180//168 
f 180//168 181//169 178//166 
# 2 faces

## Object light
v  0.2300 1.5800 -0.2200
v  0.2300 1.5800 0.1600
v  -0.2400 1.5800 0.1600
v  -0.2400 1.5800 -0.2200
# 4 vertices

vn 0.0000 -1.0000 -0.0000
# 1 vertex normals

g light
usemtl light

s 1
f 182//170 183//170 184//170 
f 184//170 185//170 182//170 
# 2 faces
