mtllib CornellBox-Sphere.mtl

## Object leftSphere

v 0.0376152 0.329379 0.140713
vn 0.617271 -0.769983 0.161562
v 0.087197 0.377842 0.0723729
vn 0.683936 -0.724656 0.084296
v 0.0939348 0.37862 0.168126
vn 0.678113 -0.709448 0.191954
v 0.00602579 0.337203 0.0646149
vn 0.605016 -0.792456 0.0772551
v 0.0277609 0.390126 0.00507937
vn 0.654353 -0.756163 0.00629774
v 0.104286 0.457215 0.0195871
vn 0.743734 -0.668041 0.0241071
v 0.0129443 0.36548 0.227327
vn 0.605603 -0.74914 0.268391
v 0.133438 0.440923 0.120386
vn 0.742246 -0.655112 0.141065
v -0.0617083 0.330317 0.138757
vn 0.53957 -0.82443 0.17082
v -0.0800562 0.370078 0.0271515
vn 0.55434 -0.831518 0.0358409
v -0.0891942 0.378637 0.225257
vn 0.527893 -0.798463 0.289459
v 0.0942921 0.45142 0.233734
vn 0.705914 -0.651616 0.277635
v -0.157999 0.385895 0.130728
vn 0.478345 -0.858926 0.182845
v -0.0240262 0.447422 0.289439
vn 0.60661 -0.704239 0.368879
v -0.0191472 0.461801 -0.0575691
vn 0.664151 -0.743358 -0.0795141
v 0.153374 0.548324 0.132893
vn 0.811304 -0.560853 0.165015
v -0.15441 0.453668 0.254485
vn 0.497433 -0.786375 0.366298
v -0.167274 0.440838 0.00297935
vn 0.511355 -0.859357 0.00457886
v -0.0782004 0.544767 0.325293
vn 0.601977 -0.649692 0.464246
v 0.0981079 0.552428 -0.0271261
vn 0.800121 -0.598741 -0.036288
v 0.0617375 0.543322 0.287956
vn 0.720993 -0.586148 0.369593
v -0.132146 0.528143 -0.0835988
vn 0.608914 -0.781072 -0.138382
v -0.00310305 0.578299 -0.0994325
vn 0.753718 -0.639657 -0.150824
v 0.0861097 0.668311 -0.0546841
vn 0.867447 -0.490902 -0.0809329
v 0.143651 0.635675 0.0419974
vn 0.868861 -0.4918 0.056692
v 0.115809 0.62976 0.238674
vn 0.813333 -0.488997 0.31523
v 0.15006 0.665781 0.140034
vn 0.873457 -0.449075 0.188158
v 0.111252 0.740844 0.220345
vn 0.873803 -0.370472 0.31499
v 0.0163921 0.661736 0.321378
vn 0.74198 -0.486036 0.461774
v -0.245678 0.536377 -0.00918718
vn 0.480872 -0.876619 -0.0173711
v -0.212404 0.551908 0.274922
vn 0.479941 -0.747776 0.45879
v -0.247922 0.484364 0.136032
vn 0.427356 -0.874175 0.230619
v -0.00925067 0.693919 -0.12301
vn 0.82993 -0.517629 -0.208027
v 0.134662 0.757611 0.0660073
vn 0.929809 -0.355111 0.0967037
v -0.3076 0.579399 0.0832343
vn 0.409407 -0.894995 0.177114
v -0.213785 0.627736 -0.0980921
vn 0.596642 -0.776019 -0.204482
v -0.0996087 0.622413 -0.126578
vn 0.709011 -0.668628 -0.224144
v -0.143093 0.646477 0.337271
vn 0.589857 -0.584266 0.557406
v -0.294001 0.585366 0.190677
vn 0.411411 -0.828085 0.380811
v 0.0708975 0.783109 -0.0619243
vn 0.930042 -0.353335 -0.10088
v -0.134642 0.714963 -0.147479
vn 0.75131 -0.58614 -0.303271
v -0.0751511 0.743573 0.344496
vn 0.703284 -0.424482 0.570269
v 0.0992301 0.87207 0.0382363
vn 0.976063 -0.20838 0.0622816
v -0.354333 0.686011 0.13423
vn 0.392369 -0.845765 0.361563
v -0.313376 0.650417 -0.0136985
vn 0.47066 -0.881638 -0.0345473
v 0.0993646 0.851459 0.173834
vn 0.93432 -0.231552 0.27098
v -0.200276 0.758794 0.332533
vn 0.589404 -0.474329 0.653922
v 0.0270225 0.796147 0.296331
vn 0.825977 -0.319488 0.464425
v -0.271096 0.666529 0.274552
vn 0.468246 -0.682147 0.561624
v -0.0369007 0.803633 -0.138386
vn 0.887673 -0.376397 -0.26526
v -0.269614 0.760767 -0.115241
vn 0.655336 -0.6805 -0.327803
v 0.0341416 0.896584 -0.0722296
vn 0.973229 -0.188429 -0.131605
v -0.319779 0.79106 0.260473
vn 0.474954 -0.55064 0.686451
v -0.367297 0.760671 0.00292416
vn 0.484894 -0.874508 0.0106848
v 0.0631778 0.965249 0.134406
vn 0.970936 -0.0599121 0.23172
v 0.00932705 0.931423 0.257459
vn 0.886085 -0.119305 0.447906
v -0.0949632 0.85748 0.333086
vn 0.745338 -0.262262 0.612936
v -0.147924 0.82009 -0.160994
vn 0.824726 -0.421433 -0.377122
v 0.0561967 0.969121 0.0152383
vn 0.998089 -0.0554115 0.0273449
v -0.0775156 0.916522 -0.14541
vn 0.929479 -0.183654 -0.319906
v -0.398872 0.834667 0.114365
vn 0.449385 -0.734695 0.508209
v -0.234098 0.887645 0.317004
vn 0.620193 -0.262059 0.739382
v -0.00918907 1.01281 -0.0677501
vn 0.990276 0.0258551 -0.136695
v -0.121352 0.979735 0.302948
vn 0.780158 -0.0417546 0.624187
v -0.0241068 1.05158 0.206079
vn 0.91315 0.0989705 0.395427
v 0.0148092 1.06588 0.0643462
vn 0.984373 0.125979 0.123037
v -0.216578 0.900582 -0.158317
vn 0.834764 -0.292817 -0.466291
v -0.118693 1.02884 -0.137093
vn 0.938652 0.0709911 -0.337479
v -0.161602 1.10131 0.253278
vn 0.778541 0.23308 0.582707
v -0.249902 1.00377 0.288567
vn 0.654908 0.00987764 0.755644
v -0.25501 1.01228 -0.14553
vn 0.858955 0.0430507 -0.510238
v -0.349473 0.929222 0.238586
vn 0.517549 -0.243353 0.820318
v -0.413422 0.966866 0.113898
vn 0.58955 -0.225625 0.77558
v -0.187953 1.13907 -0.113587
vn 0.866743 0.386284 -0.315501
v -0.0592219 1.12587 -0.0387479
vn 0.958148 0.273602 -0.0842288
v -0.0700612 1.15874 0.1325
vn 0.901197 0.332726 0.277735
v -0.333552 1.08488 0.217221
vn 0.580929 0.296234 0.758134
v -0.366967 0.908539 -0.0657921
vn 0.763104 -0.524638 -0.377397
v -0.207792 1.21039 0.175395
vn 0.729581 0.525294 0.437926
v -0.332984 1.08068 -0.0987031
vn 0.794894 0.38401 -0.469767
v -0.407352 1.0296 -0.00387668
vn 0.951809 0.304094 -0.0398266
v -0.407815 1.08798 0.098348
vn 0.572693 0.546559 0.610979
v -0.143876 1.23308 0.0147556
vn 0.836219 0.547301 0.0346478
v -0.287942 1.22045 -0.057188
vn 0.681446 0.70842 -0.183773
v -0.391845 1.13853 -0.000930237
vn 0.615373 0.788218 -0.00529281
v -0.354932 1.2005 0.116777
vn 0.530133 0.732697 0.426748
v -0.244261 1.27127 0.0742692
vn 0.672749 0.713609 0.195373
v -0.0140391 0.516125 0.118407
vn 0.698294 -0.695296 0.170143
v -0.10526 0.712376 0.100835
vn 0.791517 -0.576732 0.20219
v -0.247295 1.11171 0.0638726
vn 0.891119 0.393923 0.225235
v -0.204172 0.934043 -0.0499772
vn 0.963031 -0.214714 -0.162694
v -0.278157 1.01061 -0.0203009
vn 0.994711 0.0475793 -0.0910265
v -0.138715 1.04215 0.165866
vn 0.903736 0.105427 0.414906
v -0.28644 0.976999 0.0968018
vn 0.906451 -0.0976269 0.410872
v -0.137074 1.01058 0.0350968
vn 0.994938 0.0290128 0.0962155
v -0.0363619 0.901724 0.0715382
vn 0.967307 -0.205038 0.149253
v -0.238727 0.847577 0.0935914
vn 0.825164 -0.481388 0.295584
v -0.115277 0.943008 0.173348
vn 0.903521 -0.133845 0.407107
v -0.19823 1.05423 -0.0560929
vn 0.968164 0.173991 -0.179962
v -0.126184 0.851613 -0.040804
vn 0.924704 -0.367063 -0.100936
g leftSphere
usemtl leftSphere

s 1
f 75//75 76//76 66//66
f 77//77 82//82 73//73
f 46//46 43//43 55//55
f 72//72 77//77 73//73
f 43//43 59//59 55//55
f 77//77 86//86 82//82
f 53//53 44//44 49//49
f 8//8 12//12 3//3
f 3//3 12//12 7//7
f 2//2 8//8 3//3
f 74//74 84//84 83//83
f 74//74 68//68 71//71
f 79//79 87//87 86//86
f 2//2 4//4 5//5
f 38//38 47//47 49//49
f 76//76 83//83 79//79
f 50//50 58//58 60//60
f 46//46 34//34 43//43
f 30//30 22//22 18//18
f 75//75 66//66 63//63
f 20//20 25//25 16//16
f 6//6 15//15 20//20
f 52//52 50//50 60//60
f 2//2 3//3 1//1
f 36//36 45//45 51//51
f 66//66 55//55 59//59
f 16//16 26//26 21//21
f 16//16 25//25 27//27
f 50//50 52//52 40//40
f 13//13 10//10 9//9
f 24//24 25//25 20//20
f 44//44 39//39 49//49
f 14//14 19//19 17//17
f 24//24 23//23 33//33
f 31//31 19//19 38//38
f 22//22 15//15 18//18
f 43//43 34//34 40//40
f 31//31 39//39 32//32
f 16//16 8//8 6//6
f 21//21 26//26 29//29
f 57//57 56//56 64//64
f 47//47 62//62 53//53
f 3//3 7//7 1//1
f 29//29 48//48 42//42
f 30//30 45//45 36//36
f 76//76 69//69 65//65
f 28//28 34//34 46//46
f 17//17 11//11 14//14
f 46//46 56//56 48//48
f 84//84 80//80 85//85
f 43//43 52//52 59//59
f 77//77 69//69 79//79
f 56//56 55//55 65//65
f 67//67 51//51 78//78
f 75//75 83//83 76//76
f 17//17 32//32 13//13
f 48//48 28//28 46//46
f 6//6 8//8 2//2
f 79//79 69//69 76//76
f 44//44 45//45 35//35
f 5//5 6//6 2//2
f 16//16 12//12 8//8
f 58//58 41//41 51//51
f 21//21 12//12 16//16
f 48//48 56//56 57//57
f 58//58 51//51 67//67
f 23//23 15//15 22//22
f 27//27 34//34 28//28
f 73//73 81//81 78//78
f 14//14 12//12 21//21
f 10//10 15//15 5//5
f 80//80 84//84 74//74
f 29//29 19//19 21//21
f 70//70 77//77 72//72
f 24//24 34//34 25//25
f 28//28 26//26 27//27
f 49//49 39//39 31//31
f 40//40 33//33 50//50
f 83//83 84//84 87//87
f 5//5 15//15 6//6
f 17//17 19//19 31//31
f 38//38 29//29 42//42
f 49//49 47//47 53//53
f 68//68 67//67 71//71
f 9//9 11//11 13//13
f 42//42 47//47 38//38
f 65//65 66//66 76//76
f 1//1 4//4 2//2
f 85//85 81//81 82//82
f 68//68 60//60 67//67
f 16//16 6//6 20//20
f 79//79 86//86 77//77
f 13//13 11//11 17//17
f 86//86 85//85 82//82
f 39//39 44//44 35//35
f 64//64 56//56 65//65
f 78//78 61//61 73//73
f 79//79 83//83 87//87
f 54//54 61//61 78//78
f 87//87 84//84 86//86
f 73//73 61//61 72//72
f 84//84 85//85 86//86
f 48//48 57//57 42//42
f 59//59 63//63 66//66
f 25//25 34//34 27//27
f 14//14 11//11 7//7
f 28//28 48//48 29//29
f 29//29 26//26 28//28
f 51//51 54//54 78//78
f 70//70 62//62 64//64
f 20//20 23//23 24//24
f 54//54 45//45 44//44
f 32//32 30//30 18//18
f 74//74 75//75 68//68
f 71//71 80//80 74//74
f 65//65 55//55 66//66
f 74//74 83//83 75//75
f 56//56 46//46 55//55
f 53//53 72//72 61//61
f 71//71 78//78 80//80
f 62//62 47//47 57//57
f 71//71 67//67 78//78
f 58//58 67//67 60//60
f 80//80 81//81 85//85
f 13//13 18//18 10//10
f 59//59 52//52 63//63
f 21//21 19//19 14//14
f 44//44 53//53 61//61
f 9//9 4//4 1//1
f 77//77 70//70 69//69
f 37//37 23//23 22//22
f 1//1 7//7 9//9
f 5//5 4//4 10//10
f 62//62 57//57 64//64
f 80//80 78//78 81//81
f 33//33 23//23 37//37
f 40//40 34//34 24//24
f 32//32 18//18 13//13
f 50//50 41//41 58//58
f 75//75 63//63 68//68
f 37//37 41//41 33//33
f 10//10 4//4 9//9
f 7//7 11//11 9//9
f 63//63 52//52 60//60
f 57//57 47//47 42//42
f 49//49 31//31 38//38
f 35//35 32//32 39//39
f 31//31 32//32 17//17
f 73//73 82//82 81//81
f 30//30 32//32 35//35
f 20//20 15//15 23//23
f 27//27 26//26 16//16
f 35//35 45//45 30//30
f 36//36 37//37 22//22
f 7//7 12//12 14//14
f 36//36 41//41 37//37
f 18//18 15//15 10//10
f 70//70 64//64 69//69
f 33//33 41//41 50//50
f 54//54 44//44 61//61
f 24//24 33//33 40//40
f 51//51 45//45 54//54
f 40//40 52//52 43//43
f 38//38 19//19 29//29
f 51//51 41//41 36//36
f 72//72 62//62 70//70
f 22//22 30//30 36//36
f 53//53 62//62 72//72
f 69//69 64//64 65//65
f 63//63 60//60 68//68

## Object rightSphere

v -0.5875 0.25 0
vn 0 0 0
v -0.3375 0.25 0
vn 1 0 0
v -0.363893 0.361804 0
vn 0.894427 0.447214 0
v -0.356335 0.298578 0.0818727
vn 0.924658 0.194311 0.327491
v -0.365269 0.304668 -0.100621
vn 0.888925 0.218673 -0.402486
v -0.403472 0.399769 -0.078758
vn 0.736112 0.599077 -0.315032
v -0.432693 0.446087 0.00919147
vn 0.61923 0.784348 0.0367659
v -0.363941 0.188416 0.0934285
vn 0.894236 -0.246334 0.373714
v -0.410629 0.387968 0.110368
vn 0.707486 0.551874 0.441473
v -0.367473 0.191604 -0.103335
vn 0.880107 -0.233582 -0.413341
v -0.358458 0.149801 -8.75488e-05
vn 0.916168 -0.400795 -0.000350195
v -0.421135 0.251713 -0.186601
vn 0.665458 0.00685229 -0.746404
v -0.444167 0.364414 -0.169897
vn 0.573332 0.457656 -0.67959
v -0.485119 0.455304 -0.0993403
vn 0.409525 0.821214 -0.397361
v -0.409409 0.274129 0.173785
vn 0.712366 0.096514 0.69514
v -0.527304 0.492563 -0.00629535
vn 0.240784 0.970252 -0.0251814
v -0.442748 0.137095 -0.169703
vn 0.579009 -0.45162 -0.678813
v -0.436004 0.146356 0.169726
vn 0.605982 -0.414577 0.678905
v -0.511892 0.464419 0.103961
vn 0.302433 0.857675 0.415846
v -0.414726 0.0800885 0.061474
vn 0.691098 -0.679646 0.245896
v -0.500173 0.374247 0.198587
vn 0.349309 0.496986 0.794347
v -0.413442 0.0814998 -0.0617362
vn 0.696233 -0.674001 -0.246945
v -0.596483 0.483348 -0.0892645
vn -0.035932 0.933391 -0.357058
v -0.502895 0.196054 -0.22898
vn 0.338418 -0.215782 -0.915921
v -0.54919 0.415044 -0.183828
vn 0.153241 0.660177 -0.735312
v -0.518203 0.302872 -0.234313
vn 0.277186 0.211488 -0.937252
v -0.506754 0.236186 0.236198
vn 0.322982 -0.0552575 0.944791
v -0.533178 0.122009 0.207768
vn 0.21729 -0.511964 0.83107
v -0.500781 0.048265 -0.119511
vn 0.346876 -0.80694 -0.478043
v -0.627208 0.494429 0.0343175
vn -0.158833 0.977716 0.13727
v -0.514707 0.0432995 0.120316
vn 0.291174 -0.826802 0.481264
v -0.556411 0.102098 -0.199144
vn 0.124357 -0.591609 -0.796576
v -0.652097 0.431072 -0.159813
vn -0.258388 0.724289 -0.639251
v -0.502034 0.0151782 -0.0073646
vn 0.341866 -0.939287 -0.0294584
v -0.606661 0.322435 0.238508
vn -0.0766425 0.289742 0.954031
v -0.709291 0.458556 -0.0645855
vn -0.487165 0.834224 -0.258342
v -0.620815 0.440442 0.158499
vn -0.133259 0.761769 0.633996
v -0.609796 0.20734 -0.245322
vn -0.0891821 -0.170641 -0.981289
v -0.615078 0.185665 0.240001
vn -0.11031 -0.257341 0.960004
v -0.604107 0.0208233 -0.0985003
vn -0.0664263 -0.916707 -0.394001
v -0.738032 0.440036 0.0610438
vn -0.602127 0.760145 0.244175
v -0.625648 0.0683658 0.167492
vn -0.152591 -0.726537 0.66997
v -0.639455 0.335107 -0.229254
vn -0.207822 0.340429 -0.917016
v -0.70028 0.256923 0.223008
vn -0.451122 0.0276906 0.892033
v -0.798255 0.376885 -0.044525
vn -0.843022 0.507538 -0.1781
v -0.728947 0.364011 0.171739
vn -0.565787 0.456045 0.686955
v -0.682286 0.105617 -0.180746
vn -0.379144 -0.577531 -0.722985
v -0.618059 0.00569375 0.0433655
vn -0.122236 -0.977225 0.173462
v -0.740168 0.370642 -0.156965
vn -0.610673 0.482569 -0.627859
v -0.725921 0.239512 -0.207917
vn -0.553685 -0.0419533 -0.831669
v -0.716083 0.147342 0.188223
vn -0.514331 -0.410633 0.752891
v -0.811335 0.338188 0.0679763
vn -0.89534 0.352752 0.271905
v -0.726307 0.0495782 -0.0553525
vn -0.555226 -0.801687 -0.22141
v -0.728081 0.0603012 0.082167
vn -0.562323 -0.758795 0.328668
v -0.781603 0.249774 0.157556
vn -0.776413 -0.000904782 0.630224
v -0.790415 0.161365 -0.116058
vn -0.811658 -0.354539 -0.464234
v -0.800165 0.278246 -0.128358
vn -0.85066 0.112984 -0.513432
v -0.788956 0.146983 0.106315
vn -0.805824 -0.412069 0.42526
v -0.835034 0.250792 -0.035022
vn -0.990134 0.00316965 -0.140088
v -0.805951 0.128435 0.00096488
vn -0.873805 -0.486261 0.00385952
v -0.827736 0.222041 0.063286
vn -0.960943 -0.111836 0.253144
g rightSphere
usemtl rightSphere

s 1
f 160//160 161//161 159//159
f 159//159 161//161 152//152
f 156//156 160//160 159//159
f 134//134 120//120 131//131
f 153//153 156//156 147//147
f 155//155 158//158 151//151
f 139//139 128//128 127//127
f 116//116 123//123 130//130
f 112//112 117//117 124//124
f 150//150 149//149 143//143
f 126//126 112//112 124//124
f 139//139 127//127 135//135
f 152//152 155//155 146//146
f 120//120 111//111 108//108
f 110//110 105//105 102//102
f 132//132 117//117 129//129
f 138//138 126//126 124//124
f 106//106 105//105 113//113
f 127//127 128//128 118//118
f 137//137 130//130 141//141
f 121//121 115//115 109//109
f 141//141 152//152 146//146
f 131//131 120//120 118//118
f 128//128 139//139 142//142
f 149//149 145//145 136//136
f 122//122 117//117 110//110
f 123//123 116//116 114//114
f 153//153 147//147 140//140
f 129//129 134//134 140//140
f 132//132 129//129 140//140
f 108//108 115//115 118//118
f 148//148 153//153 140//140
f 115//115 127//127 118//118
f 103//103 106//106 107//107
f 160//160 156//156 153//153
f 126//126 125//125 113//113
f 121//121 109//109 119//119
f 136//136 145//145 141//141
f 111//111 122//122 110//110
f 117//117 112//112 110//110
f 134//134 122//122 120//120
f 131//131 128//128 142//142
f 148//148 131//131 142//142
f 128//128 131//131 118//118
f 156//156 159//159 157//157
f 150//150 138//138 147//147
f 133//133 149//149 136//136
f 158//158 154//154 151//151
f 106//106 114//114 107//107
f 148//148 134//134 131//131
f 123//123 114//114 125//125
f 154//154 142//142 151//151
f 160//160 154//154 158//158
f 121//121 127//127 115//115
f 108//108 111//111 102//102
f 109//109 103//103 107//107
f 127//127 121//121 135//135
f 142//142 139//139 151//151
f 104//104 115//115 108//108
f 161//161 160//160 158//158
f 154//154 148//148 142//142
f 138//138 143//143 126//126
f 145//145 149//149 157//157
f 105//105 112//112 113//113
f 156//156 150//150 147//147
f 112//112 105//105 110//110
f 135//135 137//137 146//146
f 123//123 136//136 130//130
f 145//145 159//159 152//152
f 144//144 139//139 135//135
f 149//149 150//150 157//157
f 114//114 116//116 107//107
f 144//144 155//155 151//151
f 123//123 133//133 136//136
f 116//116 119//119 107//107
f 161//161 155//155 152//152
f 149//149 133//133 143//143
f 109//109 104//104 103//103
f 138//138 150//150 143//143
f 133//133 123//123 125//125
f 148//148 154//154 153//153
f 134//134 148//148 140//140
f 132//132 138//138 124//124
f 104//104 108//108 102//102
f 122//122 134//134 129//129
f 137//137 119//119 130//130
f 111//111 110//110 102//102
f 125//125 114//114 113//113
f 144//144 135//135 146//146
f 139//139 144//144 151//151
f 138//138 132//132 147//147
f 103//103 104//104 102//102
f 130//130 136//136 141//141
f 141//141 145//145 152//152
f 137//137 121//121 119//119
f 154//154 160//160 153//153
f 122//122 111//111 120//120
f 112//112 126//126 113//113
f 150//150 156//156 157//157
f 117//117 122//122 129//129
f 115//115 104//104 109//109
f 119//119 109//109 107//107
f 105//105 106//106 103//103
f 119//119 116//116 130//130
f 147//147 132//132 140//140
f 121//121 137//137 135//135
f 105//105 103//103 102//102
f 143//143 133//133 125//125
f 159//159 145//145 157//157
f 114//114 106//106 113//113
f 120//120 108//108 118//118
f 137//137 141//141 146//146
f 155//155 144//144 146//146
f 126//126 143//143 125//125
f 155//155 161//161 158//158
f 117//117 132//132 124//124


## Object floor
v   1.0000 0.0000 -1.0400
v  -0.9900 0.0000 -1.0400
v  -1.0100 0.0000  0.9900
v   1.0000 0.0000  0.9900
# 4 vertices

vn 0.0000 1.0000 -0.0000
# 1 vertex normals

g floor
usemtl floor

s 1
f 162//162 163//162 164//162 
f 164//162 165//162 162//162 
# 2 faces

## Object ceiling 
v   1.0000 1.5900 -1.0400
v   1.0000 1.5900  0.9900
v  -1.0200 1.5900  0.9900
v  -1.0200 1.5900 -1.0400
# 4 vertices

vn 0.0000 -1.0000 -0.0000
# 1 vertex normals

g ceiling
usemtl ceiling

s 1
f 166//163 167//163 168//163 
f 168//163 169//163 166//163 
# 2 faces

## Object backwall 
v   1.0000 1.5900 -1.0400
v  -1.0200 1.5900 -1.0400
v  -0.9900 0.0000 -1.0400
v   1.0000 0.0000 -1.0400
# 4 vertices

vn 0.0000 0.0000 1.0000
# 1 vertex normals

g backWall
usemtl backWall

s 1
f 170//164 171//164 172//164 
f 172//164 173//164 170//164 
# 2 faces

## Object rightwall 
v  1.0000 1.5900 0.9900
v  1.0000 1.5900 -1.0400
v  1.0000 0.0000 -1.0400
v  1.0000 0.0000 0.9900
# 4 vertices

vn -1.0000 0.0000 -0.0000
# 1 vertex normals

g rightWall
usemtl rightWall

s 1
f 174//165 175//165 176//165 
f 176//165 177//165 174//165 
# 2 faces

## Object leftWall 
v  -1.0200 1.5900 -1.0400
v  -1.0200 1.5900 0.9900
v  -1.0100 0.0000 0.9900
v  -0.9900 0.0000 -1.0400
# 4 vertices

vn 0.9999 0.0135 0.0057
vn 1.0000 0.0063 -0.0000
vn 0.9999 0.0116 0.0042
vn 0.9998 0.0189 0.0098
# 4 vertex normals

g leftWall
usemtl leftWall

s 1
f 178//166 179//167 180//168 
f 180//168 181//169 178//166 
# 2 faces

## Object light
v  0.2300 1.5800 -0.2200
v  0.2300 1.5800 0.1600
v  -0.2400 1.5800 0.1600
v  -0.2400 1.5800 -0.2200
# 4 vertices

vn 0.0000 -1.0000 -0.0000
# 1 vertex normals

g light
usemtl light

s 1
f 182//170 183//170 184//170 
f 184//170 185//170 182//170 
# 2 faces
