mtllib CornellBox-Sphere.mtl

## Object leftSphere

v 0.0800093 0.503247 0.0377564
vn 0.758587 -0.649697 0.0493812
v 0.0973859 0.593725 0.00726377
vn 0.826851 -0.562332 0.0100539
v 0.086334 0.558059 0.095852
vn 0.791847 -0.596843 0.129449
v 0.0631546 0.524923 -0.0412228
vn 0.763154 -0.643797 -0.0558627
v 0.0548729 0.60119 -0.0733376
vn 0.807382 -0.580298 -0.106712
v 0.0668396 0.684462 -0.0149278
vn 0.873515 -0.486253 -0.0230041
v 0.0245092 0.481433 0.114546
vn 0.7027 -0.694739 0.153461
v 0.0836711 0.645256 0.0823341
vn 0.848404 -0.515643 0.119678
v 0.00506675 0.45309 -0.00253725
vn 0.67844 -0.734648 -0.00340821
v -0.0174113 0.521233 -0.100953
vn 0.702211 -0.69665 -0.146896
v -0.0599212 0.438277 0.0769083
vn 0.613165 -0.782653 0.107157
v 0.0292431 0.58707 0.1712
vn 0.763961 -0.596064 0.247127
v -0.100851 0.446946 -0.0335643
vn 0.584514 -0.809893 -0.0491515
v -0.0647271 0.499238 0.175766
vn 0.634157 -0.729569 0.256076
v -0.0182826 0.657225 -0.130736
vn 0.795561 -0.566096 -0.215912
v 0.026324 0.732102 0.123599
vn 0.872298 -0.443998 0.204845
v -0.160567 0.447184 0.0970978
vn 0.517481 -0.842793 0.14803
v -0.125797 0.537577 -0.139577
vn 0.612424 -0.756806 -0.228433
v -0.172191 0.530515 0.209196
vn 0.537726 -0.770126 0.343157
v 0.00566906 0.772574 -0.0387034
vn 0.909792 -0.409181 -0.0696347
v -0.0628498 0.618885 0.227788
vn 0.701588 -0.611658 0.36558
v -0.144541 0.656879 -0.183309
vn 0.674549 -0.651134 -0.347863
v -0.0776706 0.769559 -0.137335
vn 0.844109 -0.460582 -0.27449
v -0.0772844 0.865655 -0.0448202
vn 0.948198 -0.30135 -0.100537
v -0.0257403 0.8309 0.0566395
vn 0.936013 -0.333741 0.111785
v -0.0712447 0.732514 0.221426
vn 0.777106 -0.48481 0.401329
v -0.0547117 0.817043 0.152674
vn 0.881691 -0.362264 0.302301
v -0.144342 0.820505 0.225909
vn 0.776579 -0.391927 0.493273
v -0.178728 0.670834 0.265583
vn 0.604883 -0.619745 0.500033
v -0.245448 0.5697 -0.157583
vn 0.4856 -0.820867 -0.300615
v -0.268705 0.481648 0.115126
vn 0.399355 -0.894988 0.198777
v -0.231107 0.468582 -0.0383132
vn 0.450554 -0.890438 -0.0641972
v -0.158976 0.860679 -0.136971
vn 0.86769 -0.354483 -0.348505
v -0.116829 0.908585 0.0994218
vn 0.943126 -0.225007 0.244714
v -0.331228 0.525115 -0.0867162
vn 0.330026 -0.928617 -0.16957
v -0.273109 0.688682 -0.204689
vn 0.520119 -0.713656 -0.469224
v -0.178348 0.760593 -0.189298
vn 0.72541 -0.539927 -0.426918
v -0.287386 0.562544 0.217751
vn 0.398971 -0.820889 0.408611
v -0.338665 0.493263 0.0162163
vn 0.303235 -0.952428 0.030479
v -0.167693 0.944618 -0.0337507
vn 0.981482 -0.163572 -0.0996843
v -0.267025 0.815817 -0.200159
vn 0.650513 -0.514277 -0.558884
v -0.302193 0.666873 0.270103
vn 0.418826 -0.705346 0.571902
v -0.217744 0.984307 0.0863074
vn 0.954944 -0.0530941 0.291999
v -0.443745 0.553446 -0.0310695
vn 0.124691 -0.989803 -0.0688666
v -0.373722 0.61202 -0.157724
vn 0.288676 -0.886939 -0.360563
v -0.218826 0.913984 0.204053
vn 0.785614 -0.240334 0.570133
v -0.402638 0.612324 0.216385
vn 0.214206 -0.852922 0.476067
v -0.253572 0.782797 0.275472
vn 0.574818 -0.506649 0.642566
v -0.385663 0.530693 0.118662
vn 0.229871 -0.943528 0.238566
v -0.254903 0.931066 -0.136706
vn 0.848127 -0.238539 -0.473053
v -0.40491 0.757213 -0.206316
vn 0.285988 -0.730194 -0.620506
v -0.272921 1.01087 -0.0302267
vn 0.990143 0.0473884 -0.131799
v -0.50334 0.597233 0.118121
vn -0.00795639 -0.959554 0.281413
v -0.491539 0.652814 -0.134229
vn 0.0227251 -0.932477 -0.360515
v -0.317705 0.990556 0.18256
vn 0.70612 -0.0365799 0.707147
v -0.348626 0.885363 0.265994
vn 0.463178 -0.350769 0.813896
v -0.387618 0.741637 0.278214
vn 0.283821 -0.652499 0.702631
v -0.348467 0.888643 -0.191565
vn 0.564497 -0.414831 -0.713623
v -0.314734 1.03851 0.074398
vn 0.911176 0.189398 0.365905
v -0.364312 0.991681 -0.128751
vn 0.724691 -0.0444294 -0.687641
v -0.576956 0.641357 -0.0280848
vn -0.209188 -0.974891 -0.0763422
v -0.509993 0.691191 0.222436
vn -0.0262484 -0.811138 0.584265
v -0.386943 1.06637 -0.0097818
vn 0.859988 0.504861 -0.0744071
v -0.481537 0.82485 0.274199
vn 0.056653 -0.537453 0.841389
v -0.447072 0.97116 0.240359
vn 0.213589 -0.116383 0.969966
v -0.416137 1.06163 0.130485
vn 0.502454 0.36926 0.781785
v -0.455507 0.906102 -0.192277
vn 0.203574 -0.429627 -0.87976
v -0.472567 1.04553 -0.104762
vn 0.233521 0.387578 -0.891768
v -0.587319 0.906367 0.24936
vn -0.311513 -0.334037 0.889595
v -0.593825 0.774743 0.222974
vn -0.283846 -0.681468 0.674561
v -0.560833 0.959769 -0.164726
vn -0.337682 -0.223321 -0.914384
v -0.615348 0.685441 0.124598
vn -0.322688 -0.879985 0.348566
v -0.67607 0.727701 0.000521496
vn -0.542982 -0.839743 0.00160824
v -0.599933 1.07447 -0.0783775
vn -0.678769 0.505832 -0.53236
v -0.503765 1.10479 0.031038
vn -0.0344272 0.958253 0.28384
v -0.547458 1.04875 0.188664
vn -0.236632 0.243054 0.940707
v -0.703777 0.813169 0.152938
vn -0.644977 -0.591341 0.484067
v -0.583052 0.788926 -0.159188
vn -0.299708 -0.761694 -0.574454
v -0.688413 0.988185 0.193163
vn -0.697582 -0.0437451 0.715168
v -0.669222 0.944454 -0.132387
vn -0.762542 -0.250299 -0.596557
v -0.700338 0.826025 -0.0868514
vn -0.717575 -0.623146 -0.311086
v -0.74983 0.822978 0.0203522
vn -0.814136 -0.576874 0.0663229
v -0.643453 1.10938 0.078446
vn -0.729244 0.556037 0.398781
v -0.733804 1.04959 -0.0419516
vn -0.963507 0.204368 -0.172883
v -0.761625 0.909665 -0.0504181
vn -0.929937 -0.321094 -0.17921
v -0.787336 0.922884 0.0853
vn -0.928414 -0.249169 0.275614
v -0.748465 1.05268 0.105899
vn -0.902916 0.191432 0.384834
v -0.0747651 0.623854 0.0403934
vn 0.747128 -0.66088 0.0709702
v -0.270202 0.728787 0.0301584
vn 0.644136 -0.760225 0.0845355
v -0.642928 0.945249 0.0523076
vn -0.883649 -0.3385 0.323392
v -0.479717 0.892787 -0.0824701
vn 0.148295 -0.783866 -0.602962
v -0.58975 0.892684 -0.0610121
vn -0.588043 -0.703138 -0.399753
v -0.523296 0.915404 0.162385
vn -0.126216 -0.458326 0.879777
v -0.586088 0.814123 0.0317847
vn -0.415289 -0.896674 0.15333
v -0.489925 0.948444 0.0370217
vn 0.156771 -0.802224 0.576072
v -0.342581 0.914911 0.0751129
vn 0.811149 -0.438448 0.387041
v -0.463042 0.75166 0.0112106
vn 0.147051 -0.988123 0.044606
v -0.439846 0.857226 0.149728
vn 0.279194 -0.662659 0.694934
v -0.556381 0.98398 -0.0533922
vn -0.711114 -0.202059 -0.673416
v -0.366003 0.874603 -0.0690951
vn 0.683322 -0.639467 -0.352353
g leftSphere
usemtl leftSphere

s 1
f 75//75 76//76 66//66
f 77//77 82//82 73//73
f 46//46 43//43 55//55
f 72//72 77//77 73//73
f 43//43 59//59 55//55
f 77//77 86//86 82//82
f 53//53 44//44 49//49
f 8//8 12//12 3//3
f 3//3 12//12 7//7
f 2//2 8//8 3//3
f 74//74 84//84 83//83
f 74//74 68//68 71//71
f 79//79 87//87 86//86
f 2//2 4//4 5//5
f 38//38 47//47 49//49
f 76//76 83//83 79//79
f 50//50 58//58 60//60
f 46//46 34//34 43//43
f 30//30 22//22 18//18
f 75//75 66//66 63//63
f 20//20 25//25 16//16
f 6//6 15//15 20//20
f 52//52 50//50 60//60
f 2//2 3//3 1//1
f 36//36 45//45 51//51
f 66//66 55//55 59//59
f 16//16 26//26 21//21
f 16//16 25//25 27//27
f 50//50 52//52 40//40
f 13//13 10//10 9//9
f 24//24 25//25 20//20
f 44//44 39//39 49//49
f 14//14 19//19 17//17
f 24//24 23//23 33//33
f 31//31 19//19 38//38
f 22//22 15//15 18//18
f 43//43 34//34 40//40
f 31//31 39//39 32//32
f 16//16 8//8 6//6
f 21//21 26//26 29//29
f 57//57 56//56 64//64
f 47//47 62//62 53//53
f 3//3 7//7 1//1
f 29//29 48//48 42//42
f 30//30 45//45 36//36
f 76//76 69//69 65//65
f 28//28 34//34 46//46
f 17//17 11//11 14//14
f 46//46 56//56 48//48
f 84//84 80//80 85//85
f 43//43 52//52 59//59
f 77//77 69//69 79//79
f 56//56 55//55 65//65
f 67//67 51//51 78//78
f 75//75 83//83 76//76
f 17//17 32//32 13//13
f 48//48 28//28 46//46
f 6//6 8//8 2//2
f 79//79 69//69 76//76
f 44//44 45//45 35//35
f 5//5 6//6 2//2
f 16//16 12//12 8//8
f 58//58 41//41 51//51
f 21//21 12//12 16//16
f 48//48 56//56 57//57
f 58//58 51//51 67//67
f 23//23 15//15 22//22
f 27//27 34//34 28//28
f 73//73 81//81 78//78
f 14//14 12//12 21//21
f 10//10 15//15 5//5
f 80//80 84//84 74//74
f 29//29 19//19 21//21
f 70//70 77//77 72//72
f 24//24 34//34 25//25
f 28//28 26//26 27//27
f 49//49 39//39 31//31
f 40//40 33//33 50//50
f 83//83 84//84 87//87
f 5//5 15//15 6//6
f 17//17 19//19 31//31
f 38//38 29//29 42//42
f 49//49 47//47 53//53
f 68//68 67//67 71//71
f 9//9 11//11 13//13
f 42//42 47//47 38//38
f 65//65 66//66 76//76
f 1//1 4//4 2//2
f 85//85 81//81 82//82
f 68//68 60//60 67//67
f 16//16 6//6 20//20
f 79//79 86//86 77//77
f 13//13 11//11 17//17
f 86//86 85//85 82//82
f 39//39 44//44 35//35
f 64//64 56//56 65//65
f 78//78 61//61 73//73
f 79//79 83//83 87//87
f 54//54 61//61 78//78
f 87//87 84//84 86//86
f 73//73 61//61 72//72
f 84//84 85//85 86//86
f 48//48 57//57 42//42
f 59//59 63//63 66//66
f 25//25 34//34 27//27
f 14//14 11//11 7//7
f 28//28 48//48 29//29
f 29//29 26//26 28//28
f 51//51 54//54 78//78
f 70//70 62//62 64//64
f 20//20 23//23 24//24
f 54//54 45//45 44//44
f 32//32 30//30 18//18
f 74//74 75//75 68//68
f 71//71 80//80 74//74
f 65//65 55//55 66//66
f 74//74 83//83 75//75
f 56//56 46//46 55//55
f 53//53 72//72 61//61
f 71//71 78//78 80//80
f 62//62 47//47 57//57
f 71//71 67//67 78//78
f 58//58 67//67 60//60
f 80//80 81//81 85//85
f 13//13 18//18 10//10
f 59//59 52//52 63//63
f 21//21 19//19 14//14
f 44//44 53//53 61//61
f 9//9 4//4 1//1
f 77//77 70//70 69//69
f 37//37 23//23 22//22
f 1//1 7//7 9//9
f 5//5 4//4 10//10
f 62//62 57//57 64//64
f 80//80 78//78 81//81
f 33//33 23//23 37//37
f 40//40 34//34 24//24
f 32//32 18//18 13//13
f 50//50 41//41 58//58
f 75//75 63//63 68//68
f 37//37 41//41 33//33
f 10//10 4//4 9//9
f 7//7 11//11 9//9
f 63//63 52//52 60//60
f 57//57 47//47 42//42
f 49//49 31//31 38//38
f 35//35 32//32 39//39
f 31//31 32//32 17//17
f 73//73 82//82 81//81
f 30//30 32//32 35//35
f 20//20 15//15 23//23
f 27//27 26//26 16//16
f 35//35 45//45 30//30
f 36//36 37//37 22//22
f 7//7 12//12 14//14
f 36//36 41//41 37//37
f 18//18 15//15 10//10
f 70//70 64//64 69//69
f 33//33 41//41 50//50
f 54//54 44//44 61//61
f 24//24 33//33 40//40
f 51//51 45//45 54//54
f 40//40 52//52 43//43
f 38//38 19//19 29//29
f 51//51 41//41 36//36
f 72//72 62//62 70//70
f 22//22 30//30 36//36
f 53//53 62//62 72//72
f 69//69 64//64 65//65
f 63//63 60//60 68//68

## Object rightSphere

v -0.5875 0.25 0
vn 0 0 0
v -0.3375 0.25 0
vn 1 0 0
v -0.363893 0.361804 0
vn 0.894427 0.447214 0
v -0.356335 0.298578 0.0818727
vn 0.924658 0.194311 0.327491
v -0.365269 0.304668 -0.100621
vn 0.888925 0.218673 -0.402486
v -0.403472 0.399769 -0.078758
vn 0.736112 0.599077 -0.315032
v -0.432693 0.446087 0.00919147
vn 0.61923 0.784348 0.0367659
v -0.363941 0.188416 0.0934285
vn 0.894236 -0.246334 0.373714
v -0.410629 0.387968 0.110368
vn 0.707486 0.551874 0.441473
v -0.367473 0.191604 -0.103335
vn 0.880107 -0.233582 -0.413341
v -0.358458 0.149801 -8.75488e-05
vn 0.916168 -0.400795 -0.000350195
v -0.421135 0.251713 -0.186601
vn 0.665458 0.00685229 -0.746404
v -0.444167 0.364414 -0.169897
vn 0.573332 0.457656 -0.67959
v -0.485119 0.455304 -0.0993403
vn 0.409525 0.821214 -0.397361
v -0.409409 0.274129 0.173785
vn 0.712366 0.096514 0.69514
v -0.527304 0.492563 -0.00629535
vn 0.240784 0.970252 -0.0251814
v -0.442748 0.137095 -0.169703
vn 0.579009 -0.45162 -0.678813
v -0.436004 0.146356 0.169726
vn 0.605982 -0.414577 0.678905
v -0.511892 0.464419 0.103961
vn 0.302433 0.857675 0.415846
v -0.414726 0.0800885 0.061474
vn 0.691098 -0.679646 0.245896
v -0.500173 0.374247 0.198587
vn 0.349309 0.496986 0.794347
v -0.413442 0.0814998 -0.0617362
vn 0.696233 -0.674001 -0.246945
v -0.596483 0.483348 -0.0892645
vn -0.035932 0.933391 -0.357058
v -0.502895 0.196054 -0.22898
vn 0.338418 -0.215782 -0.915921
v -0.54919 0.415044 -0.183828
vn 0.153241 0.660177 -0.735312
v -0.518203 0.302872 -0.234313
vn 0.277186 0.211488 -0.937252
v -0.506754 0.236186 0.236198
vn 0.322982 -0.0552575 0.944791
v -0.533178 0.122009 0.207768
vn 0.21729 -0.511964 0.83107
v -0.500781 0.048265 -0.119511
vn 0.346876 -0.80694 -0.478043
v -0.627208 0.494429 0.0343175
vn -0.158833 0.977716 0.13727
v -0.514707 0.0432995 0.120316
vn 0.291174 -0.826802 0.481264
v -0.556411 0.102098 -0.199144
vn 0.124357 -0.591609 -0.796576
v -0.652097 0.431072 -0.159813
vn -0.258388 0.724289 -0.639251
v -0.502034 0.0151782 -0.0073646
vn 0.341866 -0.939287 -0.0294584
v -0.606661 0.322435 0.238508
vn -0.0766425 0.289742 0.954031
v -0.709291 0.458556 -0.0645855
vn -0.487165 0.834224 -0.258342
v -0.620815 0.440442 0.158499
vn -0.133259 0.761769 0.633996
v -0.609796 0.20734 -0.245322
vn -0.0891821 -0.170641 -0.981289
v -0.615078 0.185665 0.240001
vn -0.11031 -0.257341 0.960004
v -0.604107 0.0208233 -0.0985003
vn -0.0664263 -0.916707 -0.394001
v -0.738032 0.440036 0.0610438
vn -0.602127 0.760145 0.244175
v -0.625648 0.0683658 0.167492
vn -0.152591 -0.726537 0.66997
v -0.639455 0.335107 -0.229254
vn -0.207822 0.340429 -0.917016
v -0.70028 0.256923 0.223008
vn -0.451122 0.0276906 0.892033
v -0.798255 0.376885 -0.044525
vn -0.843022 0.507538 -0.1781
v -0.728947 0.364011 0.171739
vn -0.565787 0.456045 0.686955
v -0.682286 0.105617 -0.180746
vn -0.379144 -0.577531 -0.722985
v -0.618059 0.00569375 0.0433655
vn -0.122236 -0.977225 0.173462
v -0.740168 0.370642 -0.156965
vn -0.610673 0.482569 -0.627859
v -0.725921 0.239512 -0.207917
vn -0.553685 -0.0419533 -0.831669
v -0.716083 0.147342 0.188223
vn -0.514331 -0.410633 0.752891
v -0.811335 0.338188 0.0679763
vn -0.89534 0.352752 0.271905
v -0.726307 0.0495782 -0.0553525
vn -0.555226 -0.801687 -0.22141
v -0.728081 0.0603012 0.082167
vn -0.562323 -0.758795 0.328668
v -0.781603 0.249774 0.157556
vn -0.776413 -0.000904782 0.630224
v -0.790415 0.161365 -0.116058
vn -0.811658 -0.354539 -0.464234
v -0.800165 0.278246 -0.128358
vn -0.85066 0.112984 -0.513432
v -0.788956 0.146983 0.106315
vn -0.805824 -0.412069 0.42526
v -0.835034 0.250792 -0.035022
vn -0.990134 0.00316965 -0.140088
v -0.805951 0.128435 0.00096488
vn -0.873805 -0.486261 0.00385952
v -0.827736 0.222041 0.063286
vn -0.960943 -0.111836 0.253144
g rightSphere
usemtl rightSphere

s 1
f 160//160 161//161 159//159
f 159//159 161//161 152//152
f 156//156 160//160 159//159
f 134//134 120//120 131//131
f 153//153 156//156 147//147
f 155//155 158//158 151//151
f 139//139 128//128 127//127
f 116//116 123//123 130//130
f 112//112 117//117 124//124
f 150//150 149//149 143//143
f 126//126 112//112 124//124
f 139//139 127//127 135//135
f 152//152 155//155 146//146
f 120//120 111//111 108//108
f 110//110 105//105 102//102
f 132//132 117//117 129//129
f 138//138 126//126 124//124
f 106//106 105//105 113//113
f 127//127 128//128 118//118
f 137//137 130//130 141//141
f 121//121 115//115 109//109
f 141//141 152//152 146//146
f 131//131 120//120 118//118
f 128//128 139//139 142//142
f 149//149 145//145 136//136
f 122//122 117//117 110//110
f 123//123 116//116 114//114
f 153//153 147//147 140//140
f 129//129 134//134 140//140
f 132//132 129//129 140//140
f 108//108 115//115 118//118
f 148//148 153//153 140//140
f 115//115 127//127 118//118
f 103//103 106//106 107//107
f 160//160 156//156 153//153
f 126//126 125//125 113//113
f 121//121 109//109 119//119
f 136//136 145//145 141//141
f 111//111 122//122 110//110
f 117//117 112//112 110//110
f 134//134 122//122 120//120
f 131//131 128//128 142//142
f 148//148 131//131 142//142
f 128//128 131//131 118//118
f 156//156 159//159 157//157
f 150//150 138//138 147//147
f 133//133 149//149 136//136
f 158//158 154//154 151//151
f 106//106 114//114 107//107
f 148//148 134//134 131//131
f 123//123 114//114 125//125
f 154//154 142//142 151//151
f 160//160 154//154 158//158
f 121//121 127//127 115//115
f 108//108 111//111 102//102
f 109//109 103//103 107//107
f 127//127 121//121 135//135
f 142//142 139//139 151//151
f 104//104 115//115 108//108
f 161//161 160//160 158//158
f 154//154 148//148 142//142
f 138//138 143//143 126//126
f 145//145 149//149 157//157
f 105//105 112//112 113//113
f 156//156 150//150 147//147
f 112//112 105//105 110//110
f 135//135 137//137 146//146
f 123//123 136//136 130//130
f 145//145 159//159 152//152
f 144//144 139//139 135//135
f 149//149 150//150 157//157
f 114//114 116//116 107//107
f 144//144 155//155 151//151
f 123//123 133//133 136//136
f 116//116 119//119 107//107
f 161//161 155//155 152//152
f 149//149 133//133 143//143
f 109//109 104//104 103//103
f 138//138 150//150 143//143
f 133//133 123//123 125//125
f 148//148 154//154 153//153
f 134//134 148//148 140//140
f 132//132 138//138 124//124
f 104//104 108//108 102//102
f 122//122 134//134 129//129
f 137//137 119//119 130//130
f 111//111 110//110 102//102
f 125//125 114//114 113//113
f 144//144 135//135 146//146
f 139//139 144//144 151//151
f 138//138 132//132 147//147
f 103//103 104//104 102//102
f 130//130 136//136 141//141
f 141//141 145//145 152//152
f 137//137 121//121 119//119
f 154//154 160//160 153//153
f 122//122 111//111 120//120
f 112//112 126//126 113//113
f 150//150 156//156 157//157
f 117//117 122//122 129//129
f 115//115 104//104 109//109
f 119//119 109//109 107//107
f 105//105 106//106 103//103
f 119//119 116//116 130//130
f 147//147 132//132 140//140
f 121//121 137//137 135//135
f 105//105 103//103 102//102
f 143//143 133//133 125//125
f 159//159 145//145 157//157
f 114//114 106//106 113//113
f 120//120 108//108 118//118
f 137//137 141//141 146//146
f 155//155 144//144 146//146
f 126//126 143//143 125//125
f 155//155 161//161 158//158
f 117//117 132//132 124//124


## Object floor
v   1.0000 0.0000 -1.0400
v  -0.9900 0.0000 -1.0400
v  -1.0100 0.0000  0.9900
v   1.0000 0.0000  0.9900
# 4 vertices

vn 0.0000 1.0000 -0.0000
# 1 vertex normals

g floor
usemtl floor

s 1
f 162//162 163//162 164//162 
f 164//162 165//162 162//162 
# 2 faces

## Object ceiling 
v   1.0000 1.5900 -1.0400
v   1.0000 1.5900  0.9900
v  -1.0200 1.5900  0.9900
v  -1.0200 1.5900 -1.0400
# 4 vertices

vn 0.0000 -1.0000 -0.0000
# 1 vertex normals

g ceiling
usemtl ceiling

s 1
f 166//163 167//163 168//163 
f 168//163 169//163 166//163 
# 2 faces

## Object backwall 
v   1.0000 1.5900 -1.0400
v  -1.0200 1.5900 -1.0400
v  -0.9900 0.0000 -1.0400
v   1.0000 0.0000 -1.0400
# 4 vertices

vn 0.0000 0.0000 1.0000
# 1 vertex normals

g backWall
usemtl backWall

s 1
f 170//164 171//164 172//164 
f 172//164 173//164 170//164 
# 2 faces

## Object rightwall 
v  1.0000 1.5900 0.9900
v  1.0000 1.5900 -1.0400
v  1.0000 0.0000 -1.0400
v  1.0000 0.0000 0.9900
# 4 vertices

vn -1.0000 0.0000 -0.0000
# 1 vertex normals

g rightWall
usemtl rightWall

s 1
f 174//165 175//165 176//165 
f 176//165 177//165 174//165 
# 2 faces

## Object leftWall 
v  -1.0200 1.5900 -1.0400
v  -1.0200 1.5900 0.9900
v  -1.0100 0.0000 0.9900
v  -0.9900 0.0000 -1.0400
# 4 vertices

vn 0.9999 0.0135 0.0057
vn 1.0000 0.0063 -0.0000
vn 0.9999 0.0116 0.0042
vn 0.9998 0.0189 0.0098
# 4 vertex normals

g leftWall
usemtl leftWall

s 1
f 178//166 179//167 180//168 
f 180//168 181//169 178//166 
# 2 faces

## Object light
v  0.2300 1.5800 -0.2200
v  0.2300 1.5800 0.1600
v  -0.2400 1.5800 0.1600
v  -0.2400 1.5800 -0.2200
# 4 vertices

vn 0.0000 -1.0000 -0.0000
# 1 vertex normals

g light
usemtl light

s 1
f 182//170 183//170 184//170 
f 184//170 185//170 182//170 
# 2 faces
