mtllib CornellBox-Sphere.mtl

## Object leftSphere

v 0.0780486 0.47162 0.0549704
vn 0.736295 -0.673029 0.070019
v 0.111577 0.554136 0.0143754
vn 0.807911 -0.588999 0.0189903
v 0.102378 0.527919 0.106143
vn 0.779627 -0.610991 0.137375
v 0.0584523 0.489689 -0.0227268
vn 0.737876 -0.674268 -0.0300286
v 0.063822 0.562461 -0.0616793
vn 0.787089 -0.6108 -0.0861036
v 0.0999753 0.646985 -0.0138963
vn 0.861707 -0.507014 -0.0199584
v 0.0274433 0.468019 0.137812
vn 0.692452 -0.698409 0.180926
v 0.117594 0.612882 0.0852664
vn 0.841567 -0.527508 0.116189
v -0.00966421 0.435474 0.028361
vn 0.655284 -0.754431 0.0379016
v -0.0259452 0.496071 -0.0723759
vn 0.681469 -0.724414 -0.104043
v -0.0676861 0.441632 0.113501
vn 0.604441 -0.780684 0.158691
v 0.0608554 0.573015 0.183581
vn 0.769976 -0.58619 0.25203
v -0.116757 0.448291 0.00949193
vn 0.570451 -0.82121 0.0141286
v -0.0498541 0.508536 0.204746
vn 0.645647 -0.70491 0.293669
v 0.000105202 0.624747 -0.11804
vn 0.785981 -0.58976 -0.185516
v 0.0853826 0.712984 0.123846
vn 0.882108 -0.432502 0.186623
v -0.161747 0.473298 0.141369
vn 0.527097 -0.820755 0.220295
v -0.130134 0.528165 -0.101921
vn 0.608206 -0.775884 -0.167598
v -0.145469 0.563474 0.245194
vn 0.577894 -0.711548 0.399673
v 0.057802 0.741831 -0.0420151
vn 0.905399 -0.419049 -0.068197
v -0.0166208 0.627808 0.244389
vn 0.735516 -0.566332 0.371866
v -0.126717 0.64134 -0.158366
vn 0.689544 -0.662532 -0.29254
v -0.0339326 0.742946 -0.132136
vn 0.84985 -0.468724 -0.240943
v -0.00336191 0.845035 -0.0517828
vn 0.949914 -0.296401 -0.0990443
v 0.049569 0.812798 0.0496298
vn 0.94315 -0.321269 0.0851729
v -0.00100821 0.740495 0.227626
vn 0.822397 -0.427694 0.375155
v 0.0271593 0.814027 0.149248
vn 0.911122 -0.321429 0.257954
v -0.0532937 0.841649 0.227558
vn 0.849669 -0.301195 0.432833
v -0.115091 0.705237 0.285625
vn 0.684049 -0.523845 0.507605
v -0.241257 0.579874 -0.114262
vn 0.510877 -0.829522 -0.225606
v -0.260186 0.52876 0.165952
vn 0.432735 -0.850334 0.299454
v -0.239784 0.494346 0.0135552
vn 0.457449 -0.888917 0.0238294
v -0.0917646 0.845329 -0.137127
vn 0.892154 -0.338016 -0.299676
v -0.0185894 0.908976 0.0897532
vn 0.966506 -0.182744 0.180193
v -0.328867 0.56456 -0.0319469
vn 0.364928 -0.92854 -0.0681243
v -0.244841 0.694851 -0.174659
vn 0.587344 -0.702416 -0.402044
v -0.137102 0.747044 -0.174999
vn 0.762845 -0.531737 -0.367864
v -0.250013 0.62301 0.259427
vn 0.479402 -0.722955 0.497504
v -0.334869 0.546931 0.0746653
vn 0.338403 -0.928478 0.153012
v -0.0705709 0.938923 -0.044943
vn 0.984764 -0.14006 -0.103063
v -0.210725 0.816145 -0.187649
vn 0.740285 -0.470503 -0.480214
v -0.234611 0.734776 0.299728
vn 0.55264 -0.552296 0.624146
v -0.0995034 1.00141 0.0711236
vn 0.984589 0.00346208 0.174852
v -0.426193 0.623267 0.0274179
vn 0.191769 -0.978851 0.071239
v -0.354925 0.648163 -0.112035
vn 0.365685 -0.886861 -0.282403
v -0.107082 0.947242 0.196864
vn 0.887684 -0.119192 0.444758
v -0.349426 0.700317 0.26394
vn 0.352808 -0.702185 0.618436
v -0.162409 0.835949 0.28683
vn 0.714645 -0.34728 0.60719
v -0.363157 0.605048 0.175833
vn 0.301772 -0.870965 0.387754
v -0.167135 0.931203 -0.14072
vn 0.904824 -0.187011 -0.382518
v -0.356811 0.787822 -0.178706
vn 0.45867 -0.679658 -0.57244
v -0.155126 1.02401 -0.0459483
vn 0.98889 0.0688318 -0.131752
v -0.460388 0.696932 0.17593
vn 0.112322 -0.859372 0.498863
v -0.456704 0.715504 -0.0871519
vn 0.143995 -0.946178 -0.289851
v -0.185752 1.0428 0.168562
vn 0.874951 0.119153 0.469322
v -0.233523 0.958637 0.267611
vn 0.70141 -0.108874 0.704394
v -0.30108 0.830958 0.304279
vn 0.49617 -0.421644 0.758968
v -0.271397 0.902948 -0.185158
vn 0.737959 -0.313295 -0.597715
v -0.179061 1.07429 0.0536822
vn 0.961557 0.222575 0.160836
v -0.255583 1.01129 -0.138409
vn 0.869464 0.0401521 -0.492362
v -0.532418 0.737801 0.0268905
vn -0.122075 -0.987342 0.101259
v -0.435266 0.803777 0.265394
vn 0.192463 -0.583399 0.789052
v -0.247406 1.10496 -0.0335338
vn 0.916585 0.380873 -0.121684
v -0.375239 0.936387 0.291389
vn 0.385905 -0.196765 0.901311
v -0.310592 1.06458 0.231988
vn 0.618225 0.210799 0.757207
v -0.265408 1.12888 0.107164
vn 0.813652 0.447012 0.371686
v -0.370568 0.941515 -0.183809
vn 0.5572 -0.251773 -0.791289
v -0.344323 1.08803 -0.121654
vn 0.719731 0.407006 -0.562436
v -0.4601 1.03932 0.256774
vn 0.15182 0.149599 0.977021
v -0.498276 0.907163 0.255537
vn 0.00633972 -0.341459 0.939875
v -0.457604 1.01833 -0.160954
vn 0.253187 0.10947 -0.961204
v -0.546616 0.811516 0.173484
vn -0.179034 -0.723888 0.666282
v -0.605867 0.848432 0.04743
vn -0.554662 -0.794103 0.248498
v -0.458174 1.1492 -0.0962217
vn 0.229316 0.817989 -0.527549
v -0.346305 1.17469 0.000459419
vn 0.660541 0.750787 0.00197446
v -0.390771 1.15815 0.168875
vn 0.426916 0.618133 0.660041
v -0.600765 0.960564 0.184044
vn -0.471972 -0.184714 0.862046
v -0.518463 0.861164 -0.125051
vn -0.0983337 -0.739429 -0.666015
v -0.541119 1.13464 0.191098
vn -0.173238 0.567257 0.805114
v -0.563045 1.0341 -0.120241
vn -0.450376 0.243612 -0.858962
v -0.616318 0.935339 -0.0527866
vn -0.812452 -0.451641 -0.368703
v -0.654417 0.961405 0.0552961
vn -0.916428 -0.229051 0.328169
v -0.476304 1.21978 0.051775
vn 0.104371 0.96804 0.228045
v -0.589978 1.16603 -0.0488326
vn -0.461289 0.851198 -0.250351
v -0.65212 1.03706 -0.0282086
vn -0.95619 0.232938 -0.177313
v -0.660325 1.07836 0.103144
vn -0.777847 0.380174 0.500422
v -0.58917 1.19706 0.0957282
vn -0.376987 0.833121 0.404711
v -0.0447597 0.624296 0.0607625
vn 0.76721 -0.633169 0.102402
v -0.214518 0.760665 0.0547701
vn 0.758176 -0.63562 0.145457
v -0.519289 1.05856 0.0589254
vn -0.226177 0.686622 0.690938
v -0.387665 0.948539 -0.0712657
vn 0.78754 -0.360777 -0.49962
v -0.491428 0.976887 -0.0453677
vn 0.166022 -0.447651 -0.878661
v -0.403404 1.01879 0.167313
vn 0.497642 0.0968038 0.861964
v -0.496672 0.915246 0.059486
vn 0.0321276 -0.818092 0.574189
v -0.37229 1.02361 0.0371342
vn 0.945447 0.1748 0.274907
v -0.237224 0.962643 0.0750903
vn 0.952654 -0.135433 0.272229
v -0.39516 0.822503 0.0438677
vn 0.497433 -0.842163 0.208138
v -0.338774 0.939643 0.162051
vn 0.681928 -0.25529 0.68542
v -0.435924 1.05727 -0.0562513
vn 0.623857 0.557545 -0.547673
v -0.281364 0.908305 -0.0597941
vn 0.894181 -0.375016 -0.244547
g leftSphere
usemtl leftSphere

s 1
f 75//75 76//76 66//66
f 77//77 82//82 73//73
f 46//46 43//43 55//55
f 72//72 77//77 73//73
f 43//43 59//59 55//55
f 77//77 86//86 82//82
f 53//53 44//44 49//49
f 8//8 12//12 3//3
f 3//3 12//12 7//7
f 2//2 8//8 3//3
f 74//74 84//84 83//83
f 74//74 68//68 71//71
f 79//79 87//87 86//86
f 2//2 4//4 5//5
f 38//38 47//47 49//49
f 76//76 83//83 79//79
f 50//50 58//58 60//60
f 46//46 34//34 43//43
f 30//30 22//22 18//18
f 75//75 66//66 63//63
f 20//20 25//25 16//16
f 6//6 15//15 20//20
f 52//52 50//50 60//60
f 2//2 3//3 1//1
f 36//36 45//45 51//51
f 66//66 55//55 59//59
f 16//16 26//26 21//21
f 16//16 25//25 27//27
f 50//50 52//52 40//40
f 13//13 10//10 9//9
f 24//24 25//25 20//20
f 44//44 39//39 49//49
f 14//14 19//19 17//17
f 24//24 23//23 33//33
f 31//31 19//19 38//38
f 22//22 15//15 18//18
f 43//43 34//34 40//40
f 31//31 39//39 32//32
f 16//16 8//8 6//6
f 21//21 26//26 29//29
f 57//57 56//56 64//64
f 47//47 62//62 53//53
f 3//3 7//7 1//1
f 29//29 48//48 42//42
f 30//30 45//45 36//36
f 76//76 69//69 65//65
f 28//28 34//34 46//46
f 17//17 11//11 14//14
f 46//46 56//56 48//48
f 84//84 80//80 85//85
f 43//43 52//52 59//59
f 77//77 69//69 79//79
f 56//56 55//55 65//65
f 67//67 51//51 78//78
f 75//75 83//83 76//76
f 17//17 32//32 13//13
f 48//48 28//28 46//46
f 6//6 8//8 2//2
f 79//79 69//69 76//76
f 44//44 45//45 35//35
f 5//5 6//6 2//2
f 16//16 12//12 8//8
f 58//58 41//41 51//51
f 21//21 12//12 16//16
f 48//48 56//56 57//57
f 58//58 51//51 67//67
f 23//23 15//15 22//22
f 27//27 34//34 28//28
f 73//73 81//81 78//78
f 14//14 12//12 21//21
f 10//10 15//15 5//5
f 80//80 84//84 74//74
f 29//29 19//19 21//21
f 70//70 77//77 72//72
f 24//24 34//34 25//25
f 28//28 26//26 27//27
f 49//49 39//39 31//31
f 40//40 33//33 50//50
f 83//83 84//84 87//87
f 5//5 15//15 6//6
f 17//17 19//19 31//31
f 38//38 29//29 42//42
f 49//49 47//47 53//53
f 68//68 67//67 71//71
f 9//9 11//11 13//13
f 42//42 47//47 38//38
f 65//65 66//66 76//76
f 1//1 4//4 2//2
f 85//85 81//81 82//82
f 68//68 60//60 67//67
f 16//16 6//6 20//20
f 79//79 86//86 77//77
f 13//13 11//11 17//17
f 86//86 85//85 82//82
f 39//39 44//44 35//35
f 64//64 56//56 65//65
f 78//78 61//61 73//73
f 79//79 83//83 87//87
f 54//54 61//61 78//78
f 87//87 84//84 86//86
f 73//73 61//61 72//72
f 84//84 85//85 86//86
f 48//48 57//57 42//42
f 59//59 63//63 66//66
f 25//25 34//34 27//27
f 14//14 11//11 7//7
f 28//28 48//48 29//29
f 29//29 26//26 28//28
f 51//51 54//54 78//78
f 70//70 62//62 64//64
f 20//20 23//23 24//24
f 54//54 45//45 44//44
f 32//32 30//30 18//18
f 74//74 75//75 68//68
f 71//71 80//80 74//74
f 65//65 55//55 66//66
f 74//74 83//83 75//75
f 56//56 46//46 55//55
f 53//53 72//72 61//61
f 71//71 78//78 80//80
f 62//62 47//47 57//57
f 71//71 67//67 78//78
f 58//58 67//67 60//60
f 80//80 81//81 85//85
f 13//13 18//18 10//10
f 59//59 52//52 63//63
f 21//21 19//19 14//14
f 44//44 53//53 61//61
f 9//9 4//4 1//1
f 77//77 70//70 69//69
f 37//37 23//23 22//22
f 1//1 7//7 9//9
f 5//5 4//4 10//10
f 62//62 57//57 64//64
f 80//80 78//78 81//81
f 33//33 23//23 37//37
f 40//40 34//34 24//24
f 32//32 18//18 13//13
f 50//50 41//41 58//58
f 75//75 63//63 68//68
f 37//37 41//41 33//33
f 10//10 4//4 9//9
f 7//7 11//11 9//9
f 63//63 52//52 60//60
f 57//57 47//47 42//42
f 49//49 31//31 38//38
f 35//35 32//32 39//39
f 31//31 32//32 17//17
f 73//73 82//82 81//81
f 30//30 32//32 35//35
f 20//20 15//15 23//23
f 27//27 26//26 16//16
f 35//35 45//45 30//30
f 36//36 37//37 22//22
f 7//7 12//12 14//14
f 36//36 41//41 37//37
f 18//18 15//15 10//10
f 70//70 64//64 69//69
f 33//33 41//41 50//50
f 54//54 44//44 61//61
f 24//24 33//33 40//40
f 51//51 45//45 54//54
f 40//40 52//52 43//43
f 38//38 19//19 29//29
f 51//51 41//41 36//36
f 72//72 62//62 70//70
f 22//22 30//30 36//36
f 53//53 62//62 72//72
f 69//69 64//64 65//65
f 63//63 60//60 68//68

## Object rightSphere

v -0.5875 0.25 0
vn 0 0 0
v -0.3375 0.25 0
vn 1 0 0
v -0.363893 0.361804 0
vn 0.894427 0.447214 0
v -0.356335 0.298578 0.0818727
vn 0.924658 0.194311 0.327491
v -0.365269 0.304668 -0.100621
vn 0.888925 0.218673 -0.402486
v -0.403472 0.399769 -0.078758
vn 0.736112 0.599077 -0.315032
v -0.432693 0.446087 0.00919147
vn 0.61923 0.784348 0.0367659
v -0.363941 0.188416 0.0934285
vn 0.894236 -0.246334 0.373714
v -0.410629 0.387968 0.110368
vn 0.707486 0.551874 0.441473
v -0.367473 0.191604 -0.103335
vn 0.880107 -0.233582 -0.413341
v -0.358458 0.149801 -8.75488e-05
vn 0.916168 -0.400795 -0.000350195
v -0.421135 0.251713 -0.186601
vn 0.665458 0.00685229 -0.746404
v -0.444167 0.364414 -0.169897
vn 0.573332 0.457656 -0.67959
v -0.485119 0.455304 -0.0993403
vn 0.409525 0.821214 -0.397361
v -0.409409 0.274129 0.173785
vn 0.712366 0.096514 0.69514
v -0.527304 0.492563 -0.00629535
vn 0.240784 0.970252 -0.0251814
v -0.442748 0.137095 -0.169703
vn 0.579009 -0.45162 -0.678813
v -0.436004 0.146356 0.169726
vn 0.605982 -0.414577 0.678905
v -0.511892 0.464419 0.103961
vn 0.302433 0.857675 0.415846
v -0.414726 0.0800885 0.061474
vn 0.691098 -0.679646 0.245896
v -0.500173 0.374247 0.198587
vn 0.349309 0.496986 0.794347
v -0.413442 0.0814998 -0.0617362
vn 0.696233 -0.674001 -0.246945
v -0.596483 0.483348 -0.0892645
vn -0.035932 0.933391 -0.357058
v -0.502895 0.196054 -0.22898
vn 0.338418 -0.215782 -0.915921
v -0.54919 0.415044 -0.183828
vn 0.153241 0.660177 -0.735312
v -0.518203 0.302872 -0.234313
vn 0.277186 0.211488 -0.937252
v -0.506754 0.236186 0.236198
vn 0.322982 -0.0552575 0.944791
v -0.533178 0.122009 0.207768
vn 0.21729 -0.511964 0.83107
v -0.500781 0.048265 -0.119511
vn 0.346876 -0.80694 -0.478043
v -0.627208 0.494429 0.0343175
vn -0.158833 0.977716 0.13727
v -0.514707 0.0432995 0.120316
vn 0.291174 -0.826802 0.481264
v -0.556411 0.102098 -0.199144
vn 0.124357 -0.591609 -0.796576
v -0.652097 0.431072 -0.159813
vn -0.258388 0.724289 -0.639251
v -0.502034 0.0151782 -0.0073646
vn 0.341866 -0.939287 -0.0294584
v -0.606661 0.322435 0.238508
vn -0.0766425 0.289742 0.954031
v -0.709291 0.458556 -0.0645855
vn -0.487165 0.834224 -0.258342
v -0.620815 0.440442 0.158499
vn -0.133259 0.761769 0.633996
v -0.609796 0.20734 -0.245322
vn -0.0891821 -0.170641 -0.981289
v -0.615078 0.185665 0.240001
vn -0.11031 -0.257341 0.960004
v -0.604107 0.0208233 -0.0985003
vn -0.0664263 -0.916707 -0.394001
v -0.738032 0.440036 0.0610438
vn -0.602127 0.760145 0.244175
v -0.625648 0.0683658 0.167492
vn -0.152591 -0.726537 0.66997
v -0.639455 0.335107 -0.229254
vn -0.207822 0.340429 -0.917016
v -0.70028 0.256923 0.223008
vn -0.451122 0.0276906 0.892033
v -0.798255 0.376885 -0.044525
vn -0.843022 0.507538 -0.1781
v -0.728947 0.364011 0.171739
vn -0.565787 0.456045 0.686955
v -0.682286 0.105617 -0.180746
vn -0.379144 -0.577531 -0.722985
v -0.618059 0.00569375 0.0433655
vn -0.122236 -0.977225 0.173462
v -0.740168 0.370642 -0.156965
vn -0.610673 0.482569 -0.627859
v -0.725921 0.239512 -0.207917
vn -0.553685 -0.0419533 -0.831669
v -0.716083 0.147342 0.188223
vn -0.514331 -0.410633 0.752891
v -0.811335 0.338188 0.0679763
vn -0.89534 0.352752 0.271905
v -0.726307 0.0495782 -0.0553525
vn -0.555226 -0.801687 -0.22141
v -0.728081 0.0603012 0.082167
vn -0.562323 -0.758795 0.328668
v -0.781603 0.249774 0.157556
vn -0.776413 -0.000904782 0.630224
v -0.790415 0.161365 -0.116058
vn -0.811658 -0.354539 -0.464234
v -0.800165 0.278246 -0.128358
vn -0.85066 0.112984 -0.513432
v -0.788956 0.146983 0.106315
vn -0.805824 -0.412069 0.42526
v -0.835034 0.250792 -0.035022
vn -0.990134 0.00316965 -0.140088
v -0.805951 0.128435 0.00096488
vn -0.873805 -0.486261 0.00385952
v -0.827736 0.222041 0.063286
vn -0.960943 -0.111836 0.253144
g rightSphere
usemtl rightSphere

s 1
f 160//160 161//161 159//159
f 159//159 161//161 152//152
f 156//156 160//160 159//159
f 134//134 120//120 131//131
f 153//153 156//156 147//147
f 155//155 158//158 151//151
f 139//139 128//128 127//127
f 116//116 123//123 130//130
f 112//112 117//117 124//124
f 150//150 149//149 143//143
f 126//126 112//112 124//124
f 139//139 127//127 135//135
f 152//152 155//155 146//146
f 120//120 111//111 108//108
f 110//110 105//105 102//102
f 132//132 117//117 129//129
f 138//138 126//126 124//124
f 106//106 105//105 113//113
f 127//127 128//128 118//118
f 137//137 130//130 141//141
f 121//121 115//115 109//109
f 141//141 152//152 146//146
f 131//131 120//120 118//118
f 128//128 139//139 142//142
f 149//149 145//145 136//136
f 122//122 117//117 110//110
f 123//123 116//116 114//114
f 153//153 147//147 140//140
f 129//129 134//134 140//140
f 132//132 129//129 140//140
f 108//108 115//115 118//118
f 148//148 153//153 140//140
f 115//115 127//127 118//118
f 103//103 106//106 107//107
f 160//160 156//156 153//153
f 126//126 125//125 113//113
f 121//121 109//109 119//119
f 136//136 145//145 141//141
f 111//111 122//122 110//110
f 117//117 112//112 110//110
f 134//134 122//122 120//120
f 131//131 128//128 142//142
f 148//148 131//131 142//142
f 128//128 131//131 118//118
f 156//156 159//159 157//157
f 150//150 138//138 147//147
f 133//133 149//149 136//136
f 158//158 154//154 151//151
f 106//106 114//114 107//107
f 148//148 134//134 131//131
f 123//123 114//114 125//125
f 154//154 142//142 151//151
f 160//160 154//154 158//158
f 121//121 127//127 115//115
f 108//108 111//111 102//102
f 109//109 103//103 107//107
f 127//127 121//121 135//135
f 142//142 139//139 151//151
f 104//104 115//115 108//108
f 161//161 160//160 158//158
f 154//154 148//148 142//142
f 138//138 143//143 126//126
f 145//145 149//149 157//157
f 105//105 112//112 113//113
f 156//156 150//150 147//147
f 112//112 105//105 110//110
f 135//135 137//137 146//146
f 123//123 136//136 130//130
f 145//145 159//159 152//152
f 144//144 139//139 135//135
f 149//149 150//150 157//157
f 114//114 116//116 107//107
f 144//144 155//155 151//151
f 123//123 133//133 136//136
f 116//116 119//119 107//107
f 161//161 155//155 152//152
f 149//149 133//133 143//143
f 109//109 104//104 103//103
f 138//138 150//150 143//143
f 133//133 123//123 125//125
f 148//148 154//154 153//153
f 134//134 148//148 140//140
f 132//132 138//138 124//124
f 104//104 108//108 102//102
f 122//122 134//134 129//129
f 137//137 119//119 130//130
f 111//111 110//110 102//102
f 125//125 114//114 113//113
f 144//144 135//135 146//146
f 139//139 144//144 151//151
f 138//138 132//132 147//147
f 103//103 104//104 102//102
f 130//130 136//136 141//141
f 141//141 145//145 152//152
f 137//137 121//121 119//119
f 154//154 160//160 153//153
f 122//122 111//111 120//120
f 112//112 126//126 113//113
f 150//150 156//156 157//157
f 117//117 122//122 129//129
f 115//115 104//104 109//109
f 119//119 109//109 107//107
f 105//105 106//106 103//103
f 119//119 116//116 130//130
f 147//147 132//132 140//140
f 121//121 137//137 135//135
f 105//105 103//103 102//102
f 143//143 133//133 125//125
f 159//159 145//145 157//157
f 114//114 106//106 113//113
f 120//120 108//108 118//118
f 137//137 141//141 146//146
f 155//155 144//144 146//146
f 126//126 143//143 125//125
f 155//155 161//161 158//158
f 117//117 132//132 124//124


## Object floor
v   1.0000 0.0000 -1.0400
v  -0.9900 0.0000 -1.0400
v  -1.0100 0.0000  0.9900
v   1.0000 0.0000  0.9900
# 4 vertices

vn 0.0000 1.0000 -0.0000
# 1 vertex normals

g floor
usemtl floor

s 1
f 162//162 163//162 164//162 
f 164//162 165//162 162//162 
# 2 faces

## Object ceiling 
v   1.0000 1.5900 -1.0400
v   1.0000 1.5900  0.9900
v  -1.0200 1.5900  0.9900
v  -1.0200 1.5900 -1.0400
# 4 vertices

vn 0.0000 -1.0000 -0.0000
# 1 vertex normals

g ceiling
usemtl ceiling

s 1
f 166//163 167//163 168//163 
f 168//163 169//163 166//163 
# 2 faces

## Object backwall 
v   1.0000 1.5900 -1.0400
v  -1.0200 1.5900 -1.0400
v  -0.9900 0.0000 -1.0400
v   1.0000 0.0000 -1.0400
# 4 vertices

vn 0.0000 0.0000 1.0000
# 1 vertex normals

g backWall
usemtl backWall

s 1
f 170//164 171//164 172//164 
f 172//164 173//164 170//164 
# 2 faces

## Object rightwall 
v  1.0000 1.5900 0.9900
v  1.0000 1.5900 -1.0400
v  1.0000 0.0000 -1.0400
v  1.0000 0.0000 0.9900
# 4 vertices

vn -1.0000 0.0000 -0.0000
# 1 vertex normals

g rightWall
usemtl rightWall

s 1
f 174//165 175//165 176//165 
f 176//165 177//165 174//165 
# 2 faces

## Object leftWall 
v  -1.0200 1.5900 -1.0400
v  -1.0200 1.5900 0.9900
v  -1.0100 0.0000 0.9900
v  -0.9900 0.0000 -1.0400
# 4 vertices

vn 0.9999 0.0135 0.0057
vn 1.0000 0.0063 -0.0000
vn 0.9999 0.0116 0.0042
vn 0.9998 0.0189 0.0098
# 4 vertex normals

g leftWall
usemtl leftWall

s 1
f 178//166 179//167 180//168 
f 180//168 181//169 178//166 
# 2 faces

## Object light
v  0.2300 1.5800 -0.2200
v  0.2300 1.5800 0.1600
v  -0.2400 1.5800 0.1600
v  -0.2400 1.5800 -0.2200
# 4 vertices

vn 0.0000 -1.0000 -0.0000
# 1 vertex normals

g light
usemtl light

s 1
f 182//170 183//170 184//170 
f 184//170 185//170 182//170 
# 2 faces
