mtllib CornellBox-Sphere.mtl

## Object leftSphere

v -0.331802 0.841128 0.00582626
vn 0.726744 -0.686447 0.0251739
v -0.0807457 0.874484 0.00102279
vn 0.957987 -0.286801 0.00233705
v -0.125379 0.980963 -0.00542457
vn 0.998607 -0.0507462 -0.01446
v -0.110674 0.924847 0.080046
vn 0.962458 -0.185788 0.197883
v -0.119761 0.919565 -0.101691
vn 0.946488 -0.200217 -0.253128
v -0.17253 1.01026 -0.0832249
vn 0.968743 0.0303663 -0.246201
v -0.202518 1.05586 0.00305704
vn 0.982775 0.184531 0.0100994
v -0.100441 0.817217 0.103031
vn 0.885349 -0.405015 0.228299
v -0.178231 1.00493 0.107128
vn 0.948697 0.0145249 0.315854
v -0.103767 0.809473 -0.0962819
vn 0.880363 -0.423319 -0.213922
v -0.0963306 0.774999 0.00495993
vn 0.873426 -0.486838 0.0107319
v -0.166395 0.852551 -0.181426
vn 0.818927 -0.361955 -0.445363
v -0.205303 0.965172 -0.169834
vn 0.861912 -0.101863 -0.496721
v -0.257975 1.0566 -0.10716
vn 0.894166 0.209115 -0.395902
v -0.1573 0.898073 0.176832
vn 0.859165 -0.255534 0.443327
v -0.304169 1.08669 -0.0126022
vn 0.91283 0.404093 -0.0587427
v -0.17275 0.741587 -0.157395
vn 0.734248 -0.5798 -0.353146
v -0.167283 0.769768 0.18167
vn 0.750171 -0.5191 0.409608
v -0.286144 1.07224 0.0993545
vn 0.867126 0.292918 0.402854
v -0.135703 0.70502 0.0706413
vn 0.768491 -0.622266 0.149019
v -0.261786 0.985818 0.197193
vn 0.769506 -0.0458117 0.636994
v -0.136959 0.694348 -0.0517998
vn 0.760463 -0.640252 -0.108505
v -0.370806 1.06614 -0.0945182
vn 0.745916 0.381846 -0.545713
v -0.237852 0.789249 -0.222954
vn 0.649618 -0.522254 -0.552492
v -0.316498 1.00133 -0.188162
vn 0.698176 0.00505112 -0.715909
v -0.271476 0.891833 -0.22808
vn 0.671132 -0.317667 -0.669828
v -0.250923 0.850885 0.24202
vn 0.659016 -0.394534 0.640345
v -0.262492 0.73768 0.217696
vn 0.571664 -0.631385 0.523978
v -0.217964 0.643667 -0.105805
vn 0.604454 -0.763685 -0.22676
v -0.403405 1.07858 0.0268205
vn 0.758346 0.616908 0.210561
v -0.231751 0.654575 0.137296
vn 0.585191 -0.753553 0.299515
v -0.279291 0.689529 -0.185822
vn 0.520746 -0.732531 -0.438432
v -0.420051 1.00482 -0.166255
vn 0.433231 0.0261138 -0.900905
v -0.21334 0.622542 0.0124673
vn 0.604595 -0.796099 0.0262949
v -0.359262 0.923422 0.240905
vn 0.486443 -0.264682 0.832656
v -0.48111 1.02817 -0.0705792
vn 0.241229 0.359762 -0.901321
v -0.390174 1.0359 0.150461
vn 0.578924 0.189215 0.793123
v -0.347134 0.779637 -0.233382
vn 0.429978 -0.619831 -0.656451
v -0.355012 0.788772 0.249224
vn 0.405647 -0.590975 0.69728
v -0.31631 0.604405 -0.0801914
vn 0.414208 -0.892039 -0.180826
v -0.507509 1.01017 0.0554654
vn -0.132002 0.178814 0.974988
v -0.342187 0.671395 0.183561
vn 0.386661 -0.805122 0.449746
v -0.393644 0.903026 -0.224839
vn 0.398396 -0.36325 -0.842217
v -0.4484 0.846428 0.227865
vn 0.184558 -0.54928 0.815003
v -0.557375 0.935626 -0.048227
vn -0.580707 -0.651551 -0.48812
v -0.486893 0.946405 0.170736
vn 0.0730477 -0.298697 0.951548
v -0.405654 0.675607 -0.166639
vn 0.250455 -0.861151 -0.44237
v -0.327445 0.596685 0.0634933
vn 0.389297 -0.909906 0.143245
v -0.497587 0.930197 -0.156327
vn 0.0140937 -0.407679 -0.913017
v -0.466316 0.800197 -0.197387
vn 0.119077 -0.706332 -0.697793
v -0.448238 0.730507 0.197685
vn 0.153048 -0.796825 0.584505
v -0.567581 0.90327 0.0679381
vn -0.496336 -0.710415 0.49896
v -0.434816 0.621896 -0.03456
vn 0.169206 -0.981489 -0.0897114
v -0.447968 0.637914 0.101644
vn 0.137048 -0.9537 0.267722
v -0.52583 0.825503 0.160106
vn -0.108428 -0.732493 0.672085
v -0.521209 0.716916 -0.106487
vn -0.0699535 -0.933676 -0.35122
v -0.548404 0.832451 -0.123173
vn -0.226704 -0.784731 -0.57689
v -0.52212 0.717648 0.118789
vn -0.0720249 -0.919354 0.386782
v -0.574868 0.807069 -0.0279306
vn -0.358521 -0.92389 -0.133752
v -0.529083 0.689822 0.0110886
vn -0.0932927 -0.995003 0.0355705
v -0.562502 0.783324 0.0704188
vn -0.264558 -0.91715 0.298069
g leftSphere
usemtl leftSphere

s 1
f 60//60 61//61 59//59
f 59//59 61//61 52//52
f 56//56 60//60 59//59
f 34//34 20//20 31//31
f 53//53 56//56 47//47
f 55//55 58//58 51//51
f 39//39 28//28 27//27
f 16//16 23//23 30//30
f 12//12 17//17 24//24
f 50//50 49//49 43//43
f 26//26 12//12 24//24
f 39//39 27//27 35//35
f 52//52 55//55 46//46
f 20//20 11//11 8//8
f 10//10 5//5 2//2
f 32//32 17//17 29//29
f 38//38 26//26 24//24
f 6//6 5//5 13//13
f 27//27 28//28 18//18
f 37//37 30//30 41//41
f 21//21 15//15 9//9
f 41//41 52//52 46//46
f 31//31 20//20 18//18
f 28//28 39//39 42//42
f 49//49 45//45 36//36
f 22//22 17//17 10//10
f 23//23 16//16 14//14
f 53//53 47//47 40//40
f 29//29 34//34 40//40
f 32//32 29//29 40//40
f 8//8 15//15 18//18
f 48//48 53//53 40//40
f 15//15 27//27 18//18
f 3//3 6//6 7//7
f 60//60 56//56 53//53
f 26//26 25//25 13//13
f 21//21 9//9 19//19
f 36//36 45//45 41//41
f 11//11 22//22 10//10
f 17//17 12//12 10//10
f 34//34 22//22 20//20
f 31//31 28//28 42//42
f 48//48 31//31 42//42
f 28//28 31//31 18//18
f 56//56 59//59 57//57
f 50//50 38//38 47//47
f 33//33 49//49 36//36
f 58//58 54//54 51//51
f 6//6 14//14 7//7
f 48//48 34//34 31//31
f 23//23 14//14 25//25
f 54//54 42//42 51//51
f 60//60 54//54 58//58
f 21//21 27//27 15//15
f 8//8 11//11 2//2
f 9//9 3//3 7//7
f 27//27 21//21 35//35
f 42//42 39//39 51//51
f 4//4 15//15 8//8
f 61//61 60//60 58//58
f 54//54 48//48 42//42
f 38//38 43//43 26//26
f 45//45 49//49 57//57
f 5//5 12//12 13//13
f 56//56 50//50 47//47
f 12//12 5//5 10//10
f 35//35 37//37 46//46
f 23//23 36//36 30//30
f 45//45 59//59 52//52
f 44//44 39//39 35//35
f 49//49 50//50 57//57
f 14//14 16//16 7//7
f 44//44 55//55 51//51
f 23//23 33//33 36//36
f 16//16 19//19 7//7
f 61//61 55//55 52//52
f 49//49 33//33 43//43
f 9//9 4//4 3//3
f 38//38 50//50 43//43
f 33//33 23//23 25//25
f 48//48 54//54 53//53
f 34//34 48//48 40//40
f 32//32 38//38 24//24
f 4//4 8//8 2//2
f 22//22 34//34 29//29
f 37//37 19//19 30//30
f 11//11 10//10 2//2
f 25//25 14//14 13//13
f 44//44 35//35 46//46
f 39//39 44//44 51//51
f 38//38 32//32 47//47
f 3//3 4//4 2//2
f 30//30 36//36 41//41
f 41//41 45//45 52//52
f 37//37 21//21 19//19
f 54//54 60//60 53//53
f 22//22 11//11 20//20
f 12//12 26//26 13//13
f 50//50 56//56 57//57
f 17//17 22//22 29//29
f 15//15 4//4 9//9
f 19//19 9//9 7//7
f 5//5 6//6 3//3
f 19//19 16//16 30//30
f 47//47 32//32 40//40
f 21//21 37//37 35//35
f 5//5 3//3 2//2
f 43//43 33//33 25//25
f 59//59 45//45 57//57
f 14//14 6//6 13//13
f 20//20 8//8 18//18
f 37//37 41//41 46//46
f 55//55 44//44 46//46
f 26//26 43//43 25//25
f 55//55 61//61 58//58
f 17//17 32//32 24//24

## Object rightSphere

v -0.5875 0.25 0
vn 0 0 0
v -0.3375 0.25 0
vn 1 0 0
v -0.363893 0.361804 0
vn 0.894427 0.447214 0
v -0.356335 0.298578 0.0818727
vn 0.924658 0.194311 0.327491
v -0.365269 0.304668 -0.100621
vn 0.888925 0.218673 -0.402486
v -0.403472 0.399769 -0.078758
vn 0.736112 0.599077 -0.315032
v -0.432693 0.446087 0.00919147
vn 0.61923 0.784348 0.0367659
v -0.363941 0.188416 0.0934285
vn 0.894236 -0.246334 0.373714
v -0.410629 0.387968 0.110368
vn 0.707486 0.551874 0.441473
v -0.367473 0.191604 -0.103335
vn 0.880107 -0.233582 -0.413341
v -0.358458 0.149801 -8.75488e-05
vn 0.916168 -0.400795 -0.000350195
v -0.421135 0.251713 -0.186601
vn 0.665458 0.00685229 -0.746404
v -0.444167 0.364414 -0.169897
vn 0.573332 0.457656 -0.67959
v -0.485119 0.455304 -0.0993403
vn 0.409525 0.821214 -0.397361
v -0.409409 0.274129 0.173785
vn 0.712366 0.096514 0.69514
v -0.527304 0.492563 -0.00629535
vn 0.240784 0.970252 -0.0251814
v -0.442748 0.137095 -0.169703
vn 0.579009 -0.45162 -0.678813
v -0.436004 0.146356 0.169726
vn 0.605982 -0.414577 0.678905
v -0.511892 0.464419 0.103961
vn 0.302433 0.857675 0.415846
v -0.414726 0.0800885 0.061474
vn 0.691098 -0.679646 0.245896
v -0.500173 0.374247 0.198587
vn 0.349309 0.496986 0.794347
v -0.413442 0.0814998 -0.0617362
vn 0.696233 -0.674001 -0.246945
v -0.596483 0.483348 -0.0892645
vn -0.035932 0.933391 -0.357058
v -0.502895 0.196054 -0.22898
vn 0.338418 -0.215782 -0.915921
v -0.54919 0.415044 -0.183828
vn 0.153241 0.660177 -0.735312
v -0.518203 0.302872 -0.234313
vn 0.277186 0.211488 -0.937252
v -0.506754 0.236186 0.236198
vn 0.322982 -0.0552575 0.944791
v -0.533178 0.122009 0.207768
vn 0.21729 -0.511964 0.83107
v -0.500781 0.048265 -0.119511
vn 0.346876 -0.80694 -0.478043
v -0.627208 0.494429 0.0343175
vn -0.158833 0.977716 0.13727
v -0.514707 0.0432995 0.120316
vn 0.291174 -0.826802 0.481264
v -0.556411 0.102098 -0.199144
vn 0.124357 -0.591609 -0.796576
v -0.652097 0.431072 -0.159813
vn -0.258388 0.724289 -0.639251
v -0.502034 0.0151782 -0.0073646
vn 0.341866 -0.939287 -0.0294584
v -0.606661 0.322435 0.238508
vn -0.0766425 0.289742 0.954031
v -0.709291 0.458556 -0.0645855
vn -0.487165 0.834224 -0.258342
v -0.620815 0.440442 0.158499
vn -0.133259 0.761769 0.633996
v -0.609796 0.20734 -0.245322
vn -0.0891821 -0.170641 -0.981289
v -0.615078 0.185665 0.240001
vn -0.11031 -0.257341 0.960004
v -0.604107 0.0208233 -0.0985003
vn -0.0664263 -0.916707 -0.394001
v -0.738032 0.440036 0.0610438
vn -0.602127 0.760145 0.244175
v -0.625648 0.0683658 0.167492
vn -0.152591 -0.726537 0.66997
v -0.639455 0.335107 -0.229254
vn -0.207822 0.340429 -0.917016
v -0.70028 0.256923 0.223008
vn -0.451122 0.0276906 0.892033
v -0.798255 0.376885 -0.044525
vn -0.843022 0.507538 -0.1781
v -0.728947 0.364011 0.171739
vn -0.565787 0.456045 0.686955
v -0.682286 0.105617 -0.180746
vn -0.379144 -0.577531 -0.722985
v -0.618059 0.00569375 0.0433655
vn -0.122236 -0.977225 0.173462
v -0.740168 0.370642 -0.156965
vn -0.610673 0.482569 -0.627859
v -0.725921 0.239512 -0.207917
vn -0.553685 -0.0419533 -0.831669
v -0.716083 0.147342 0.188223
vn -0.514331 -0.410633 0.752891
v -0.811335 0.338188 0.0679763
vn -0.89534 0.352752 0.271905
v -0.726307 0.0495782 -0.0553525
vn -0.555226 -0.801687 -0.22141
v -0.728081 0.0603012 0.082167
vn -0.562323 -0.758795 0.328668
v -0.781603 0.249774 0.157556
vn -0.776413 -0.000904782 0.630224
v -0.790415 0.161365 -0.116058
vn -0.811658 -0.354539 -0.464234
v -0.800165 0.278246 -0.128358
vn -0.85066 0.112984 -0.513432
v -0.788956 0.146983 0.106315
vn -0.805824 -0.412069 0.42526
v -0.835034 0.250792 -0.035022
vn -0.990134 0.00316965 -0.140088
v -0.805951 0.128435 0.00096488
vn -0.873805 -0.486261 0.00385952
v -0.827736 0.222041 0.063286
vn -0.960943 -0.111836 0.253144
g rightSphere
usemtl rightSphere

s 1
f 121//121 122//122 120//120
f 120//120 122//122 113//113
f 117//117 121//121 120//120
f 95//95 81//81 92//92
f 114//114 117//117 108//108
f 116//116 119//119 112//112
f 100//100 89//89 88//88
f 77//77 84//84 91//91
f 73//73 78//78 85//85
f 111//111 110//110 104//104
f 87//87 73//73 85//85
f 100//100 88//88 96//96
f 113//113 116//116 107//107
f 81//81 72//72 69//69
f 71//71 66//66 63//63
f 93//93 78//78 90//90
f 99//99 87//87 85//85
f 67//67 66//66 74//74
f 88//88 89//89 79//79
f 98//98 91//91 102//102
f 82//82 76//76 70//70
f 102//102 113//113 107//107
f 92//92 81//81 79//79
f 89//89 100//100 103//103
f 110//110 106//106 97//97
f 83//83 78//78 71//71
f 84//84 77//77 75//75
f 114//114 108//108 101//101
f 90//90 95//95 101//101
f 93//93 90//90 101//101
f 69//69 76//76 79//79
f 109//109 114//114 101//101
f 76//76 88//88 79//79
f 64//64 67//67 68//68
f 121//121 117//117 114//114
f 87//87 86//86 74//74
f 82//82 70//70 80//80
f 97//97 106//106 102//102
f 72//72 83//83 71//71
f 78//78 73//73 71//71
f 95//95 83//83 81//81
f 92//92 89//89 103//103
f 109//109 92//92 103//103
f 89//89 92//92 79//79
f 117//117 120//120 118//118
f 111//111 99//99 108//108
f 94//94 110//110 97//97
f 119//119 115//115 112//112
f 67//67 75//75 68//68
f 109//109 95//95 92//92
f 84//84 75//75 86//86
f 115//115 103//103 112//112
f 121//121 115//115 119//119
f 82//82 88//88 76//76
f 69//69 72//72 63//63
f 70//70 64//64 68//68
f 88//88 82//82 96//96
f 103//103 100//100 112//112
f 65//65 76//76 69//69
f 122//122 121//121 119//119
f 115//115 109//109 103//103
f 99//99 104//104 87//87
f 106//106 110//110 118//118
f 66//66 73//73 74//74
f 117//117 111//111 108//108
f 73//73 66//66 71//71
f 96//96 98//98 107//107
f 84//84 97//97 91//91
f 106//106 120//120 113//113
f 105//105 100//100 96//96
f 110//110 111//111 118//118
f 75//75 77//77 68//68
f 105//105 116//116 112//112
f 84//84 94//94 97//97
f 77//77 80//80 68//68
f 122//122 116//116 113//113
f 110//110 94//94 104//104
f 70//70 65//65 64//64
f 99//99 111//111 104//104
f 94//94 84//84 86//86
f 109//109 115//115 114//114
f 95//95 109//109 101//101
f 93//93 99//99 85//85
f 65//65 69//69 63//63
f 83//83 95//95 90//90
f 98//98 80//80 91//91
f 72//72 71//71 63//63
f 86//86 75//75 74//74
f 105//105 96//96 107//107
f 100//100 105//105 112//112
f 99//99 93//93 108//108
f 64//64 65//65 63//63
f 91//91 97//97 102//102
f 102//102 106//106 113//113
f 98//98 82//82 80//80
f 115//115 121//121 114//114
f 83//83 72//72 81//81
f 73//73 87//87 74//74
f 111//111 117//117 118//118
f 78//78 83//83 90//90
f 76//76 65//65 70//70
f 80//80 70//70 68//68
f 66//66 67//67 64//64
f 80//80 77//77 91//91
f 108//108 93//93 101//101
f 82//82 98//98 96//96
f 66//66 64//64 63//63
f 104//104 94//94 86//86
f 120//120 106//106 118//118
f 75//75 67//67 74//74
f 81//81 69//69 79//79
f 98//98 102//102 107//107
f 116//116 105//105 107//107
f 87//87 104//104 86//86
f 116//116 122//122 119//119
f 78//78 93//93 85//85


## Object floor
v   1.0000 0.0000 -1.0400
v  -0.9900 0.0000 -1.0400
v  -1.0100 0.0000  0.9900
v   1.0000 0.0000  0.9900
# 4 vertices

vn 0.0000 1.0000 -0.0000
# 1 vertex normals

g floor
usemtl floor

s 1
f 123//123 124//123 125//123 
f 125//123 126//123 123//123 
# 2 faces

## Object ceiling 
v   1.0000 1.5900 -1.0400
v   1.0000 1.5900  0.9900
v  -1.0200 1.5900  0.9900
v  -1.0200 1.5900 -1.0400
# 4 vertices

vn 0.0000 -1.0000 -0.0000
# 1 vertex normals

g ceiling
usemtl ceiling

s 1
f 127//124 128//124 129//124 
f 129//124 130//124 127//124 
# 2 faces

## Object backwall 
v   1.0000 1.5900 -1.0400
v  -1.0200 1.5900 -1.0400
v  -0.9900 0.0000 -1.0400
v   1.0000 0.0000 -1.0400
# 4 vertices

vn 0.0000 0.0000 1.0000
# 1 vertex normals

g backWall
usemtl backWall

s 1
f 131//125 132//125 133//125 
f 133//125 134//125 131//125 
# 2 faces

## Object rightwall 
v  1.0000 1.5900 0.9900
v  1.0000 1.5900 -1.0400
v  1.0000 0.0000 -1.0400
v  1.0000 0.0000 0.9900
# 4 vertices

vn -1.0000 0.0000 -0.0000
# 1 vertex normals

g rightWall
usemtl rightWall

s 1
f 135//126 136//126 137//126 
f 137//126 138//126 135//126 
# 2 faces

## Object leftWall 
v  -1.0200 1.5900 -1.0400
v  -1.0200 1.5900 0.9900
v  -1.0100 0.0000 0.9900
v  -0.9900 0.0000 -1.0400
# 4 vertices

vn 0.9999 0.0135 0.0057
vn 1.0000 0.0063 -0.0000
vn 0.9999 0.0116 0.0042
vn 0.9998 0.0189 0.0098
# 4 vertex normals

g leftWall
usemtl leftWall

s 1
f 139//127 140//128 141//129 
f 141//129 142//130 139//127 
# 2 faces

## Object light
v  0.2300 1.5800 -0.2200
v  0.2300 1.5800 0.1600
v  -0.2400 1.5800 0.1600
v  -0.2400 1.5800 -0.2200
# 4 vertices

vn 0.0000 -1.0000 -0.0000
# 1 vertex normals

g light
usemtl light

s 1
f 143//131 144//131 145//131 
f 145//131 146//131 143//131 
# 2 faces
