mtllib CornellBox-Sphere.mtl

## Object leftSphere

v 0.0767804 0.500001 0.0552511
vn 0.753638 -0.653313 0.0721927
v 0.101431 0.586842 0.0179244
vn 0.824001 -0.566055 0.0245577
v 0.0890684 0.557988 0.108612
vn 0.791304 -0.59376 0.1459
v 0.0610929 0.516829 -0.023995
vn 0.757366 -0.652187 -0.0323886
v 0.0587006 0.590074 -0.0624448
vn 0.803005 -0.589176 -0.0897502
v 0.0786588 0.67714 -0.0124621
vn 0.873115 -0.487151 -0.0188036
v 0.0209396 0.486523 0.131944
vn 0.700878 -0.690838 0.177519
v 0.094134 0.644683 0.0887049
vn 0.851273 -0.509097 0.127096
v -0.00240573 0.452985 0.0188979
vn 0.672681 -0.739491 0.0255474
v -0.0188749 0.513958 -0.0823004
vn 0.698463 -0.705602 -0.119478
v -0.0672532 0.446918 0.0957929
vn 0.610566 -0.780348 0.135155
v 0.036721 0.59368 0.182173
vn 0.769614 -0.58263 0.261221
v -0.107901 0.452705 -0.0132164
vn 0.582279 -0.812752 -0.0196268
v -0.065404 0.510215 0.189736
vn 0.637485 -0.718439 0.278313
v -0.0099929 0.645086 -0.124351
vn 0.793296 -0.574588 -0.201318
v 0.0469884 0.737777 0.125022
vn 0.883173 -0.423388 0.201861
v -0.166457 0.461844 0.111553
vn 0.518819 -0.837089 0.173518
v -0.124213 0.535221 -0.122902
vn 0.615845 -0.761687 -0.201414
v -0.169025 0.544633 0.219873
vn 0.547648 -0.753473 0.363813
v 0.0254449 0.765867 -0.0433908
vn 0.910835 -0.405859 -0.075216
v -0.0507044 0.629733 0.237551
vn 0.714524 -0.588843 0.377783
v -0.134473 0.650706 -0.176809
vn 0.682451 -0.652142 -0.330108
v -0.0596642 0.760095 -0.139925
vn 0.845817 -0.460819 -0.268775
v -0.0478503 0.86165 -0.0533729
vn 0.950203 -0.290745 -0.112164
v 0.00306976 0.832607 0.0504572
vn 0.944583 -0.314303 0.0947404
v -0.0476171 0.743913 0.225649
vn 0.798276 -0.451892 0.398181
v -0.0243046 0.825879 0.150665
vn 0.900099 -0.329468 0.285084
v -0.110912 0.835194 0.226391
vn 0.811652 -0.343791 0.47226
v -0.159048 0.685949 0.273414
vn 0.633534 -0.583549 0.50804
v -0.240047 0.575344 -0.145441
vn 0.501152 -0.818675 -0.280389
v -0.271735 0.500401 0.12736
vn 0.404834 -0.886053 0.225877
v -0.235895 0.482652 -0.0241038
vn 0.454287 -0.88989 -0.0414609
v -0.130324 0.858165 -0.1402
vn 0.880097 -0.33767 -0.333779
v -0.0781965 0.916322 0.0920812
vn 0.959142 -0.190276 0.209384
v -0.32918 0.546253 -0.0752884
vn 0.348152 -0.924794 -0.153447
v -0.255367 0.697199 -0.196663
vn 0.560917 -0.694289 -0.450926
v -0.158527 0.757971 -0.186446
vn 0.745255 -0.528222 -0.406912
v -0.278892 0.584775 0.230373
vn 0.422119 -0.792709 0.439806
v -0.340075 0.517099 0.0284713
vn 0.313892 -0.947813 0.0558819
v -0.127527 0.947756 -0.041458
vn 0.984344 -0.138066 -0.109562
v -0.239028 0.822819 -0.19769
vn 0.701039 -0.475955 -0.531047
v -0.279652 0.693897 0.281827
vn 0.468002 -0.650138 0.598578
v -0.170157 0.998152 0.0781078
vn 0.973074 -0.00545243 0.230427
v -0.435395 0.585802 -0.0196822
vn 0.153943 -0.986966 -0.0468993
v -0.359377 0.635931 -0.149659
vn 0.336424 -0.870991 -0.358042
v -0.175612 0.933873 0.200414
vn 0.83822 -0.170872 0.517871
v -0.384944 0.645279 0.233107
vn 0.261624 -0.806593 0.530058
v -0.219874 0.807327 0.281349
vn 0.634766 -0.436599 0.637537
v -0.381503 0.559448 0.132601
vn 0.249421 -0.927302 0.279107
v -0.216948 0.937247 -0.140083
vn 0.879061 -0.194891 -0.43505
v -0.378817 0.780325 -0.202199
vn 0.376087 -0.68175 -0.627515
v -0.223864 1.02252 -0.0389732
vn 0.986973 0.0805012 -0.139299
v -0.486878 0.636321 0.135923
vn 0.0337784 -0.936181 0.349892
v -0.470849 0.685732 -0.122826
vn 0.0860747 -0.927935 -0.362667
v -0.265138 1.01926 0.175925
vn 0.798645 0.0654849 0.59823
v -0.304091 0.920071 0.268014
vn 0.573724 -0.234076 0.784888
v -0.355487 0.778676 0.29031
vn 0.368075 -0.563715 0.739423
v -0.314479 0.902663 -0.190961
vn 0.654452 -0.343368 -0.67364
v -0.259264 1.06044 0.0630483
vn 0.940047 0.236005 0.246197
v -0.320221 1.00555 -0.135891
vn 0.797503 0.0246203 -0.602813
v -0.555375 0.68239 -0.00918037
vn -0.171688 -0.98474 -0.0284634
v -0.480643 0.735641 0.241153
vn 0.0540167 -0.73771 0.672954
v -0.329953 1.08809 -0.0248452
vn 0.880544 0.456169 -0.128655
v -0.439027 0.874215 0.284193
vn 0.192518 -0.397162 0.897329
v -0.391357 1.01767 0.236656
vn 0.416254 0.0676893 0.906725
v -0.353763 1.0979 0.116195
vn 0.693458 0.464237 0.550998
v -0.422738 0.925061 -0.191015
vn 0.352388 -0.34179 -0.871207
v -0.424358 1.06254 -0.117425
vn 0.494262 0.408641 -0.767279
v -0.532256 0.970097 0.255047
vn -0.124631 -0.115541 0.985453
v -0.553216 0.831177 0.242259
vn -0.177364 -0.562674 0.807428
v -0.527124 0.979871 -0.162705
vn -0.163228 -0.121132 -0.979124
v -0.5849 0.736995 0.147003
vn -0.271219 -0.840184 0.469608
v -0.645942 0.775916 0.0281055
vn -0.542756 -0.833361 0.104524
v -0.549712 1.10075 -0.0913946
vn -0.343254 0.695655 -0.631064
v -0.439883 1.138 0.00661255
vn 0.399 0.9159 0.0438876
v -0.479383 1.10546 0.175264
vn 0.100285 0.512994 0.852514
v -0.6592 0.87641 0.177436
vn -0.592881 -0.460265 0.660793
v -0.558241 0.817695 -0.144163
vn -0.24307 -0.76086 -0.601672
v -0.622371 1.0612 0.196537
vn -0.511002 0.255566 0.820709
v -0.636736 0.973554 -0.119568
vn -0.74493 -0.144077 -0.651399
v -0.67102 0.865797 -0.0596421
vn -0.758662 -0.59534 -0.264579
v -0.711711 0.879577 0.0512044
vn -0.850629 -0.483843 0.205733
v -0.572251 1.16207 0.0596473
vn -0.385959 0.865742 0.318632
v -0.681588 1.0956 -0.0396152
vn -0.868814 0.457425 -0.189541
v -0.723215 0.958493 -0.0251669
vn -0.977162 -0.181704 -0.110173
v -0.733503 0.993135 0.108908
vn -0.905952 -0.0266362 0.422542
v -0.679487 1.12181 0.105417
vn -0.744216 0.505064 0.437097
v -0.0658911 0.634054 0.0512178
vn 0.761489 -0.641921 0.0898434
v -0.249492 0.746569 0.0417583
vn 0.698216 -0.706362 0.116389
v -0.592578 0.995711 0.0602383
vn -0.837555 -0.0388049 0.544974
v -0.444489 0.917251 -0.0785962
vn 0.4374 -0.652028 -0.619306
v -0.5537 0.925474 -0.0510377
vn -0.511017 -0.709205 -0.485685
v -0.473941 0.964675 0.165548
vn 0.15215 -0.206254 0.966597
v -0.54816 0.857 0.0479199
vn -0.304194 -0.903245 0.30268
v -0.442898 0.9837 0.0357374
vn 0.823896 -0.235186 0.515638
v -0.301041 0.940696 0.0749599
vn 0.901379 -0.268674 0.339603
v -0.433155 0.783578 0.024258
vn 0.29343 -0.950031 0.106486
v -0.399844 0.895946 0.156253
vn 0.470711 -0.489031 0.734357
v -0.511921 1.01289 -0.0560855
vn -0.202841 0.219394 -0.954317
v -0.331133 0.894449 -0.0665696
vn 0.804233 -0.502689 -0.317039
g leftSphere
usemtl leftSphere

s 1
f 75//75 76//76 66//66
f 77//77 82//82 73//73
f 46//46 43//43 55//55
f 72//72 77//77 73//73
f 43//43 59//59 55//55
f 77//77 86//86 82//82
f 53//53 44//44 49//49
f 8//8 12//12 3//3
f 3//3 12//12 7//7
f 2//2 8//8 3//3
f 74//74 84//84 83//83
f 74//74 68//68 71//71
f 79//79 87//87 86//86
f 2//2 4//4 5//5
f 38//38 47//47 49//49
f 76//76 83//83 79//79
f 50//50 58//58 60//60
f 46//46 34//34 43//43
f 30//30 22//22 18//18
f 75//75 66//66 63//63
f 20//20 25//25 16//16
f 6//6 15//15 20//20
f 52//52 50//50 60//60
f 2//2 3//3 1//1
f 36//36 45//45 51//51
f 66//66 55//55 59//59
f 16//16 26//26 21//21
f 16//16 25//25 27//27
f 50//50 52//52 40//40
f 13//13 10//10 9//9
f 24//24 25//25 20//20
f 44//44 39//39 49//49
f 14//14 19//19 17//17
f 24//24 23//23 33//33
f 31//31 19//19 38//38
f 22//22 15//15 18//18
f 43//43 34//34 40//40
f 31//31 39//39 32//32
f 16//16 8//8 6//6
f 21//21 26//26 29//29
f 57//57 56//56 64//64
f 47//47 62//62 53//53
f 3//3 7//7 1//1
f 29//29 48//48 42//42
f 30//30 45//45 36//36
f 76//76 69//69 65//65
f 28//28 34//34 46//46
f 17//17 11//11 14//14
f 46//46 56//56 48//48
f 84//84 80//80 85//85
f 43//43 52//52 59//59
f 77//77 69//69 79//79
f 56//56 55//55 65//65
f 67//67 51//51 78//78
f 75//75 83//83 76//76
f 17//17 32//32 13//13
f 48//48 28//28 46//46
f 6//6 8//8 2//2
f 79//79 69//69 76//76
f 44//44 45//45 35//35
f 5//5 6//6 2//2
f 16//16 12//12 8//8
f 58//58 41//41 51//51
f 21//21 12//12 16//16
f 48//48 56//56 57//57
f 58//58 51//51 67//67
f 23//23 15//15 22//22
f 27//27 34//34 28//28
f 73//73 81//81 78//78
f 14//14 12//12 21//21
f 10//10 15//15 5//5
f 80//80 84//84 74//74
f 29//29 19//19 21//21
f 70//70 77//77 72//72
f 24//24 34//34 25//25
f 28//28 26//26 27//27
f 49//49 39//39 31//31
f 40//40 33//33 50//50
f 83//83 84//84 87//87
f 5//5 15//15 6//6
f 17//17 19//19 31//31
f 38//38 29//29 42//42
f 49//49 47//47 53//53
f 68//68 67//67 71//71
f 9//9 11//11 13//13
f 42//42 47//47 38//38
f 65//65 66//66 76//76
f 1//1 4//4 2//2
f 85//85 81//81 82//82
f 68//68 60//60 67//67
f 16//16 6//6 20//20
f 79//79 86//86 77//77
f 13//13 11//11 17//17
f 86//86 85//85 82//82
f 39//39 44//44 35//35
f 64//64 56//56 65//65
f 78//78 61//61 73//73
f 79//79 83//83 87//87
f 54//54 61//61 78//78
f 87//87 84//84 86//86
f 73//73 61//61 72//72
f 84//84 85//85 86//86
f 48//48 57//57 42//42
f 59//59 63//63 66//66
f 25//25 34//34 27//27
f 14//14 11//11 7//7
f 28//28 48//48 29//29
f 29//29 26//26 28//28
f 51//51 54//54 78//78
f 70//70 62//62 64//64
f 20//20 23//23 24//24
f 54//54 45//45 44//44
f 32//32 30//30 18//18
f 74//74 75//75 68//68
f 71//71 80//80 74//74
f 65//65 55//55 66//66
f 74//74 83//83 75//75
f 56//56 46//46 55//55
f 53//53 72//72 61//61
f 71//71 78//78 80//80
f 62//62 47//47 57//57
f 71//71 67//67 78//78
f 58//58 67//67 60//60
f 80//80 81//81 85//85
f 13//13 18//18 10//10
f 59//59 52//52 63//63
f 21//21 19//19 14//14
f 44//44 53//53 61//61
f 9//9 4//4 1//1
f 77//77 70//70 69//69
f 37//37 23//23 22//22
f 1//1 7//7 9//9
f 5//5 4//4 10//10
f 62//62 57//57 64//64
f 80//80 78//78 81//81
f 33//33 23//23 37//37
f 40//40 34//34 24//24
f 32//32 18//18 13//13
f 50//50 41//41 58//58
f 75//75 63//63 68//68
f 37//37 41//41 33//33
f 10//10 4//4 9//9
f 7//7 11//11 9//9
f 63//63 52//52 60//60
f 57//57 47//47 42//42
f 49//49 31//31 38//38
f 35//35 32//32 39//39
f 31//31 32//32 17//17
f 73//73 82//82 81//81
f 30//30 32//32 35//35
f 20//20 15//15 23//23
f 27//27 26//26 16//16
f 35//35 45//45 30//30
f 36//36 37//37 22//22
f 7//7 12//12 14//14
f 36//36 41//41 37//37
f 18//18 15//15 10//10
f 70//70 64//64 69//69
f 33//33 41//41 50//50
f 54//54 44//44 61//61
f 24//24 33//33 40//40
f 51//51 45//45 54//54
f 40//40 52//52 43//43
f 38//38 19//19 29//29
f 51//51 41//41 36//36
f 72//72 62//62 70//70
f 22//22 30//30 36//36
f 53//53 62//62 72//72
f 69//69 64//64 65//65
f 63//63 60//60 68//68

## Object rightSphere

v -0.5875 0.25 0
vn 0 0 0
v -0.3375 0.25 0
vn 1 0 0
v -0.363893 0.361804 0
vn 0.894427 0.447214 0
v -0.356335 0.298578 0.0818727
vn 0.924658 0.194311 0.327491
v -0.365269 0.304668 -0.100621
vn 0.888925 0.218673 -0.402486
v -0.403472 0.399769 -0.078758
vn 0.736112 0.599077 -0.315032
v -0.432693 0.446087 0.00919147
vn 0.61923 0.784348 0.0367659
v -0.363941 0.188416 0.0934285
vn 0.894236 -0.246334 0.373714
v -0.410629 0.387968 0.110368
vn 0.707486 0.551874 0.441473
v -0.367473 0.191604 -0.103335
vn 0.880107 -0.233582 -0.413341
v -0.358458 0.149801 -8.75488e-05
vn 0.916168 -0.400795 -0.000350195
v -0.421135 0.251713 -0.186601
vn 0.665458 0.00685229 -0.746404
v -0.444167 0.364414 -0.169897
vn 0.573332 0.457656 -0.67959
v -0.485119 0.455304 -0.0993403
vn 0.409525 0.821214 -0.397361
v -0.409409 0.274129 0.173785
vn 0.712366 0.096514 0.69514
v -0.527304 0.492563 -0.00629535
vn 0.240784 0.970252 -0.0251814
v -0.442748 0.137095 -0.169703
vn 0.579009 -0.45162 -0.678813
v -0.436004 0.146356 0.169726
vn 0.605982 -0.414577 0.678905
v -0.511892 0.464419 0.103961
vn 0.302433 0.857675 0.415846
v -0.414726 0.0800885 0.061474
vn 0.691098 -0.679646 0.245896
v -0.500173 0.374247 0.198587
vn 0.349309 0.496986 0.794347
v -0.413442 0.0814998 -0.0617362
vn 0.696233 -0.674001 -0.246945
v -0.596483 0.483348 -0.0892645
vn -0.035932 0.933391 -0.357058
v -0.502895 0.196054 -0.22898
vn 0.338418 -0.215782 -0.915921
v -0.54919 0.415044 -0.183828
vn 0.153241 0.660177 -0.735312
v -0.518203 0.302872 -0.234313
vn 0.277186 0.211488 -0.937252
v -0.506754 0.236186 0.236198
vn 0.322982 -0.0552575 0.944791
v -0.533178 0.122009 0.207768
vn 0.21729 -0.511964 0.83107
v -0.500781 0.048265 -0.119511
vn 0.346876 -0.80694 -0.478043
v -0.627208 0.494429 0.0343175
vn -0.158833 0.977716 0.13727
v -0.514707 0.0432995 0.120316
vn 0.291174 -0.826802 0.481264
v -0.556411 0.102098 -0.199144
vn 0.124357 -0.591609 -0.796576
v -0.652097 0.431072 -0.159813
vn -0.258388 0.724289 -0.639251
v -0.502034 0.0151782 -0.0073646
vn 0.341866 -0.939287 -0.0294584
v -0.606661 0.322435 0.238508
vn -0.0766425 0.289742 0.954031
v -0.709291 0.458556 -0.0645855
vn -0.487165 0.834224 -0.258342
v -0.620815 0.440442 0.158499
vn -0.133259 0.761769 0.633996
v -0.609796 0.20734 -0.245322
vn -0.0891821 -0.170641 -0.981289
v -0.615078 0.185665 0.240001
vn -0.11031 -0.257341 0.960004
v -0.604107 0.0208233 -0.0985003
vn -0.0664263 -0.916707 -0.394001
v -0.738032 0.440036 0.0610438
vn -0.602127 0.760145 0.244175
v -0.625648 0.0683658 0.167492
vn -0.152591 -0.726537 0.66997
v -0.639455 0.335107 -0.229254
vn -0.207822 0.340429 -0.917016
v -0.70028 0.256923 0.223008
vn -0.451122 0.0276906 0.892033
v -0.798255 0.376885 -0.044525
vn -0.843022 0.507538 -0.1781
v -0.728947 0.364011 0.171739
vn -0.565787 0.456045 0.686955
v -0.682286 0.105617 -0.180746
vn -0.379144 -0.577531 -0.722985
v -0.618059 0.00569375 0.0433655
vn -0.122236 -0.977225 0.173462
v -0.740168 0.370642 -0.156965
vn -0.610673 0.482569 -0.627859
v -0.725921 0.239512 -0.207917
vn -0.553685 -0.0419533 -0.831669
v -0.716083 0.147342 0.188223
vn -0.514331 -0.410633 0.752891
v -0.811335 0.338188 0.0679763
vn -0.89534 0.352752 0.271905
v -0.726307 0.0495782 -0.0553525
vn -0.555226 -0.801687 -0.22141
v -0.728081 0.0603012 0.082167
vn -0.562323 -0.758795 0.328668
v -0.781603 0.249774 0.157556
vn -0.776413 -0.000904782 0.630224
v -0.790415 0.161365 -0.116058
vn -0.811658 -0.354539 -0.464234
v -0.800165 0.278246 -0.128358
vn -0.85066 0.112984 -0.513432
v -0.788956 0.146983 0.106315
vn -0.805824 -0.412069 0.42526
v -0.835034 0.250792 -0.035022
vn -0.990134 0.00316965 -0.140088
v -0.805951 0.128435 0.00096488
vn -0.873805 -0.486261 0.00385952
v -0.827736 0.222041 0.063286
vn -0.960943 -0.111836 0.253144
g rightSphere
usemtl rightSphere

s 1
f 160//160 161//161 159//159
f 159//159 161//161 152//152
f 156//156 160//160 159//159
f 134//134 120//120 131//131
f 153//153 156//156 147//147
f 155//155 158//158 151//151
f 139//139 128//128 127//127
f 116//116 123//123 130//130
f 112//112 117//117 124//124
f 150//150 149//149 143//143
f 126//126 112//112 124//124
f 139//139 127//127 135//135
f 152//152 155//155 146//146
f 120//120 111//111 108//108
f 110//110 105//105 102//102
f 132//132 117//117 129//129
f 138//138 126//126 124//124
f 106//106 105//105 113//113
f 127//127 128//128 118//118
f 137//137 130//130 141//141
f 121//121 115//115 109//109
f 141//141 152//152 146//146
f 131//131 120//120 118//118
f 128//128 139//139 142//142
f 149//149 145//145 136//136
f 122//122 117//117 110//110
f 123//123 116//116 114//114
f 153//153 147//147 140//140
f 129//129 134//134 140//140
f 132//132 129//129 140//140
f 108//108 115//115 118//118
f 148//148 153//153 140//140
f 115//115 127//127 118//118
f 103//103 106//106 107//107
f 160//160 156//156 153//153
f 126//126 125//125 113//113
f 121//121 109//109 119//119
f 136//136 145//145 141//141
f 111//111 122//122 110//110
f 117//117 112//112 110//110
f 134//134 122//122 120//120
f 131//131 128//128 142//142
f 148//148 131//131 142//142
f 128//128 131//131 118//118
f 156//156 159//159 157//157
f 150//150 138//138 147//147
f 133//133 149//149 136//136
f 158//158 154//154 151//151
f 106//106 114//114 107//107
f 148//148 134//134 131//131
f 123//123 114//114 125//125
f 154//154 142//142 151//151
f 160//160 154//154 158//158
f 121//121 127//127 115//115
f 108//108 111//111 102//102
f 109//109 103//103 107//107
f 127//127 121//121 135//135
f 142//142 139//139 151//151
f 104//104 115//115 108//108
f 161//161 160//160 158//158
f 154//154 148//148 142//142
f 138//138 143//143 126//126
f 145//145 149//149 157//157
f 105//105 112//112 113//113
f 156//156 150//150 147//147
f 112//112 105//105 110//110
f 135//135 137//137 146//146
f 123//123 136//136 130//130
f 145//145 159//159 152//152
f 144//144 139//139 135//135
f 149//149 150//150 157//157
f 114//114 116//116 107//107
f 144//144 155//155 151//151
f 123//123 133//133 136//136
f 116//116 119//119 107//107
f 161//161 155//155 152//152
f 149//149 133//133 143//143
f 109//109 104//104 103//103
f 138//138 150//150 143//143
f 133//133 123//123 125//125
f 148//148 154//154 153//153
f 134//134 148//148 140//140
f 132//132 138//138 124//124
f 104//104 108//108 102//102
f 122//122 134//134 129//129
f 137//137 119//119 130//130
f 111//111 110//110 102//102
f 125//125 114//114 113//113
f 144//144 135//135 146//146
f 139//139 144//144 151//151
f 138//138 132//132 147//147
f 103//103 104//104 102//102
f 130//130 136//136 141//141
f 141//141 145//145 152//152
f 137//137 121//121 119//119
f 154//154 160//160 153//153
f 122//122 111//111 120//120
f 112//112 126//126 113//113
f 150//150 156//156 157//157
f 117//117 122//122 129//129
f 115//115 104//104 109//109
f 119//119 109//109 107//107
f 105//105 106//106 103//103
f 119//119 116//116 130//130
f 147//147 132//132 140//140
f 121//121 137//137 135//135
f 105//105 103//103 102//102
f 143//143 133//133 125//125
f 159//159 145//145 157//157
f 114//114 106//106 113//113
f 120//120 108//108 118//118
f 137//137 141//141 146//146
f 155//155 144//144 146//146
f 126//126 143//143 125//125
f 155//155 161//161 158//158
f 117//117 132//132 124//124


## Object floor
v   1.0000 0.0000 -1.0400
v  -0.9900 0.0000 -1.0400
v  -1.0100 0.0000  0.9900
v   1.0000 0.0000  0.9900
# 4 vertices

vn 0.0000 1.0000 -0.0000
# 1 vertex normals

g floor
usemtl floor

s 1
f 162//162 163//162 164//162 
f 164//162 165//162 162//162 
# 2 faces

## Object ceiling 
v   1.0000 1.5900 -1.0400
v   1.0000 1.5900  0.9900
v  -1.0200 1.5900  0.9900
v  -1.0200 1.5900 -1.0400
# 4 vertices

vn 0.0000 -1.0000 -0.0000
# 1 vertex normals

g ceiling
usemtl ceiling

s 1
f 166//163 167//163 168//163 
f 168//163 169//163 166//163 
# 2 faces

## Object backwall 
v   1.0000 1.5900 -1.0400
v  -1.0200 1.5900 -1.0400
v  -0.9900 0.0000 -1.0400
v   1.0000 0.0000 -1.0400
# 4 vertices

vn 0.0000 0.0000 1.0000
# 1 vertex normals

g backWall
usemtl backWall

s 1
f 170//164 171//164 172//164 
f 172//164 173//164 170//164 
# 2 faces

## Object rightwall 
v  1.0000 1.5900 0.9900
v  1.0000 1.5900 -1.0400
v  1.0000 0.0000 -1.0400
v  1.0000 0.0000 0.9900
# 4 vertices

vn -1.0000 0.0000 -0.0000
# 1 vertex normals

g rightWall
usemtl rightWall

s 1
f 174//165 175//165 176//165 
f 176//165 177//165 174//165 
# 2 faces

## Object leftWall 
v  -1.0200 1.5900 -1.0400
v  -1.0200 1.5900 0.9900
v  -1.0100 0.0000 0.9900
v  -0.9900 0.0000 -1.0400
# 4 vertices

vn 0.9999 0.0135 0.0057
vn 1.0000 0.0063 -0.0000
vn 0.9999 0.0116 0.0042
vn 0.9998 0.0189 0.0098
# 4 vertex normals

g leftWall
usemtl leftWall

s 1
f 178//166 179//167 180//168 
f 180//168 181//169 178//166 
# 2 faces

## Object light
v  0.2300 1.5800 -0.2200
v  0.2300 1.5800 0.1600
v  -0.2400 1.5800 0.1600
v  -0.2400 1.5800 -0.2200
# 4 vertices

vn 0.0000 -1.0000 -0.0000
# 1 vertex normals

g light
usemtl light

s 1
f 182//170 183//170 184//170 
f 184//170 185//170 182//170 
# 2 faces
