mtllib CornellBox-Sphere.mtl

## Object leftSphere

v 0 0.926976 1.05263e-17
vn 0.989503 -0.144514 2.08316e-17
v -0.03445 1.01817 4.28134e-18
vn 0.999239 0.0389933 9.18931e-18
v -0.02381 0.954399 0.0711255
vn 0.984622 -0.0942888 0.147067
v -0.025505 0.961604 -0.070813
vn 0.985894 -0.0797785 -0.147134
v -0.0731675 1.02845 -0.0815848
vn 0.98012 0.0653348 -0.18734
v -0.107985 1.08215 -0.00114613
vn 0.978735 0.205109 -0.00286152
v -0.0339425 0.855263 0.0552692
vn 0.94894 -0.2947 0.112534
v -0.07289 1.02689 0.0831382
vn 0.979708 0.0616774 0.190703
v -0.03534 0.862044 -0.0656243
vn 0.949974 -0.282044 -0.134166
v -0.08945 0.936718 -0.142363
vn 0.934946 -0.144113 -0.324203
v -0.0812125 0.790673 -0.00870375
vn 0.89433 -0.447022 -0.0185871
v -0.0855825 0.921284 0.139757
vn 0.932583 -0.177139 0.314501
v -0.120402 0.813532 -0.116649
vn 0.865247 -0.425031 -0.265887
v -0.116857 0.801027 0.0996858
vn 0.864712 -0.449061 0.22498
v -0.1628 1.05432 -0.133636
vn 0.919403 0.1481 -0.364368
v -0.16584 1.05179 0.137859
vn 0.915076 0.141829 0.377519
v -0.16981 0.739421 -0.00815865
vn 0.784847 -0.619386 -0.0193928
v -0.187427 0.908006 -0.194202
vn 0.824047 -0.242528 -0.511983
v -0.221925 0.756348 0.118552
vn 0.716207 -0.627546 0.305342
v -0.204562 1.12844 -0.00956502
vn 0.916678 0.398523 -0.0296782
v -0.177545 0.87738 0.184516
vn 0.824214 -0.313423 0.471633
v -0.266304 1.00777 -0.205716
vn 0.750379 0.0249517 -0.660537
v -0.2713 1.1152 -0.118302
vn 0.810756 0.408397 -0.419388
v -0.320916 1.16038 -0.00254388
vn 0.744904 0.667088 -0.0105813
v -0.260442 1.12563 0.0932143
vn 0.837286 0.439101 0.325796
v -0.244855 0.96532 0.211553
vn 0.765623 -0.104066 0.634816
v -0.276708 1.0658 0.175393
vn 0.766103 0.225762 0.601762
v -0.351869 0.995396 0.228764
vn 0.543452 -0.0168894 0.83927
v -0.299716 0.843913 0.213476
vn 0.603744 -0.470517 0.643511
v -0.304298 0.879791 -0.225164
vn 0.608463 -0.373745 -0.700062
v -0.278153 0.702942 -0.00212393
vn 0.598354 -0.801211 -0.00572857
v -0.241212 0.766695 -0.141659
vn 0.688038 -0.620287 -0.376628
v -0.385615 1.14691 -0.104203
vn 0.536098 0.68854 -0.488377
v -0.375715 1.12429 0.140381
vn 0.552511 0.552519 0.624063
v -0.354807 0.778929 -0.187915
vn 0.44751 -0.681379 -0.579186
v -0.389599 0.978511 -0.238321
vn 0.418933 -0.081542 -0.904348
v -0.349102 1.07573 -0.186227
vn 0.600308 0.301264 -0.740858
v -0.336303 0.721216 0.116032
vn 0.476579 -0.811638 0.33781
v -0.344363 0.712804 -0.102832
vn 0.454466 -0.838627 -0.300275
v -0.43588 1.17435 0.0166141
vn 0.343783 0.934815 0.0890777
v -0.451147 1.08074 -0.195603
vn 0.224947 0.371765 -0.900661
v -0.403015 0.7795 0.195957
vn 0.312328 -0.710089 0.63105
v -0.499056 1.13931 0.131969
vn 0.00491821 0.725956 0.687724
v -0.463288 0.726859 -0.148715
vn 0.117231 -0.872206 -0.474882
v -0.434127 0.85399 -0.236829
vn 0.230394 -0.510681 -0.828326
v -0.464094 1.04097 0.221773
vn 0.15723 0.179408 0.971129
v -0.459107 0.704401 0.111991
vn 0.128299 -0.927408 0.35136
v -0.423132 0.893768 0.244786
vn 0.276809 -0.382552 0.881494
v -0.403117 0.681746 -0.00395398
vn 0.291205 -0.956587 -0.0118846
v -0.500971 1.15604 -0.100149
vn -0.00523484 0.841565 -0.54013
v -0.535736 0.970666 -0.245504
vn -0.143047 -0.117421 -0.982726
v -0.557252 1.17458 0.0193592
vn -0.309904 0.944975 0.10479
v -0.535534 0.677644 -0.00422605
vn -0.109559 -0.993895 -0.0130299
v -0.552919 0.819518 -0.224171
vn -0.180845 -0.616777 -0.766081
v -0.587558 1.06306 0.205095
vn -0.377813 0.272119 0.88499
v -0.558653 0.93316 0.248197
vn -0.222467 -0.25352 0.941401
v -0.515835 0.794266 0.21172
vn -0.0535626 -0.695895 0.716143
v -0.556724 1.0959 -0.182096
vn -0.265709 0.449242 -0.852983
v -0.608069 1.14141 0.116605
vn -0.5079 0.664614 0.54802
v -0.622692 1.14842 -0.0984842
vn -0.567259 0.686212 -0.455336
v -0.618796 0.729339 -0.141107
vn -0.362694 -0.826351 -0.430811
v -0.590838 0.713475 0.121878
vn -0.280063 -0.883384 0.375763
v -0.680999 1.15831 0.0282288
vn -0.747584 0.653853 0.116594
v -0.640694 0.818746 0.214097
vn -0.448323 -0.577566 0.682219
v -0.687598 0.967023 0.22825
vn -0.631037 -0.110928 0.767781
v -0.706233 1.09431 0.154489
vn -0.751588 0.343698 0.563016
v -0.655132 1.05547 -0.199932
vn -0.598811 0.214114 -0.771739
v -0.740516 1.12841 -0.0863943
vn -0.840943 0.448963 -0.302071
v -0.77303 0.84676 0.193466
vn -0.741839 -0.416363 0.525658
v -0.707192 0.741994 0.132474
vn -0.581292 -0.723854 0.371665
v -0.770983 1.03264 -0.181596
vn -0.826589 0.0995666 -0.553928
v -0.676405 0.693253 0.0096785
vn -0.498338 -0.866551 0.0273415
v -0.747815 0.737161 -0.105439
vn -0.658528 -0.698452 -0.280187
v -0.86318 1.07892 -0.0802402
vn -0.955187 0.20756 -0.211037
v -0.799192 1.12104 0.0496042
vn -0.916255 0.370674 0.151909
v -0.81192 1.00445 0.179373
vn -0.866818 0.0123633 0.498472
v -0.81934 0.7436 0.0581285
vn -0.772025 -0.619862 0.140529
v -0.700327 0.884633 -0.22511
vn -0.620845 -0.357542 -0.69765
v -0.89994 0.885869 0.144298
vn -0.908486 -0.259254 0.327782
v -0.854988 0.953571 -0.174037
vn -0.891769 -0.116635 -0.437201
v -0.819827 0.829065 -0.165351
vn -0.802459 -0.428881 -0.414873
v -0.861748 0.769952 -0.0716115
vn -0.832293 -0.529285 -0.164761
v -0.920202 1.04312 0.0697642
vn -0.981479 0.100725 0.16295
v -0.96517 0.982051 -0.0732885
vn -0.987098 -0.0380883 -0.155519
v -0.916275 0.855201 -0.118436
vn -0.912133 -0.31728 -0.259514
v -0.94712 0.815597 0.0107394
vn -0.924236 -0.381177 0.0221992
v -0.98157 0.937222 0.0664627
vn -0.982452 -0.128073 0.135591
v -0.19449 0.943156 0.00992643
vn 0.982626 -0.18283 0.0319268
v -0.410765 0.927676 -0.00281225
vn 0.776644 -0.629464 -0.0244761
v -0.834947 0.913792 0.00735545
vn -0.968219 -0.249197 0.0212621
v -0.668871 0.994185 -0.104523
vn -0.849938 -0.0292653 -0.526069
v -0.761315 0.931327 -0.105379
vn -0.901053 -0.236795 -0.363361
v -0.721471 0.911924 0.125388
vn -0.822359 -0.327041 0.465585
v -0.71785 0.841627 -0.0365027
vn -0.80152 -0.582691 -0.134302
v -0.707838 0.996041 0.0218632
vn -0.994334 -0.0189387 0.104597
v -0.568522 1.02675 0.078298
vn -0.63783 0.248955 0.728831
v -0.581415 0.859094 -0.0508245
vn -0.477545 -0.826487 -0.298112
v -0.620386 0.907067 0.113807
vn -0.633775 -0.489246 0.599139
v -0.780178 1.01978 -0.069242
vn -0.968521 0.0683728 -0.239357
v -0.564875 1.0326 -0.0737382
vn -0.62691 0.315017 -0.712564
g leftSphere
usemtl leftSphere

s 1
f 75//75 76//76 66//66
f 77//77 82//82 73//73
f 46//46 43//43 55//55
f 72//72 77//77 73//73
f 43//43 59//59 55//55
f 77//77 86//86 82//82
f 53//53 44//44 49//49
f 8//8 12//12 3//3
f 3//3 12//12 7//7
f 2//2 8//8 3//3
f 74//74 84//84 83//83
f 74//74 68//68 71//71
f 79//79 87//87 86//86
f 2//2 4//4 5//5
f 38//38 47//47 49//49
f 76//76 83//83 79//79
f 50//50 58//58 60//60
f 46//46 34//34 43//43
f 30//30 22//22 18//18
f 75//75 66//66 63//63
f 20//20 25//25 16//16
f 6//6 15//15 20//20
f 52//52 50//50 60//60
f 2//2 3//3 1//1
f 36//36 45//45 51//51
f 66//66 55//55 59//59
f 16//16 26//26 21//21
f 16//16 25//25 27//27
f 50//50 52//52 40//40
f 13//13 10//10 9//9
f 24//24 25//25 20//20
f 44//44 39//39 49//49
f 14//14 19//19 17//17
f 24//24 23//23 33//33
f 31//31 19//19 38//38
f 22//22 15//15 18//18
f 43//43 34//34 40//40
f 31//31 39//39 32//32
f 16//16 8//8 6//6
f 21//21 26//26 29//29
f 57//57 56//56 64//64
f 47//47 62//62 53//53
f 3//3 7//7 1//1
f 29//29 48//48 42//42
f 30//30 45//45 36//36
f 76//76 69//69 65//65
f 28//28 34//34 46//46
f 17//17 11//11 14//14
f 46//46 56//56 48//48
f 84//84 80//80 85//85
f 43//43 52//52 59//59
f 77//77 69//69 79//79
f 56//56 55//55 65//65
f 67//67 51//51 78//78
f 75//75 83//83 76//76
f 17//17 32//32 13//13
f 48//48 28//28 46//46
f 6//6 8//8 2//2
f 79//79 69//69 76//76
f 44//44 45//45 35//35
f 5//5 6//6 2//2
f 16//16 12//12 8//8
f 58//58 41//41 51//51
f 21//21 12//12 16//16
f 48//48 56//56 57//57
f 58//58 51//51 67//67
f 23//23 15//15 22//22
f 27//27 34//34 28//28
f 73//73 81//81 78//78
f 14//14 12//12 21//21
f 10//10 15//15 5//5
f 80//80 84//84 74//74
f 29//29 19//19 21//21
f 70//70 77//77 72//72
f 24//24 34//34 25//25
f 28//28 26//26 27//27
f 49//49 39//39 31//31
f 40//40 33//33 50//50
f 83//83 84//84 87//87
f 5//5 15//15 6//6
f 17//17 19//19 31//31
f 38//38 29//29 42//42
f 49//49 47//47 53//53
f 68//68 67//67 71//71
f 9//9 11//11 13//13
f 42//42 47//47 38//38
f 65//65 66//66 76//76
f 1//1 4//4 2//2
f 85//85 81//81 82//82
f 68//68 60//60 67//67
f 16//16 6//6 20//20
f 79//79 86//86 77//77
f 13//13 11//11 17//17
f 86//86 85//85 82//82
f 39//39 44//44 35//35
f 64//64 56//56 65//65
f 78//78 61//61 73//73
f 79//79 83//83 87//87
f 54//54 61//61 78//78
f 87//87 84//84 86//86
f 73//73 61//61 72//72
f 84//84 85//85 86//86
f 48//48 57//57 42//42
f 59//59 63//63 66//66
f 25//25 34//34 27//27
f 14//14 11//11 7//7
f 28//28 48//48 29//29
f 29//29 26//26 28//28
f 51//51 54//54 78//78
f 70//70 62//62 64//64
f 20//20 23//23 24//24
f 54//54 45//45 44//44
f 32//32 30//30 18//18
f 74//74 75//75 68//68
f 71//71 80//80 74//74
f 65//65 55//55 66//66
f 74//74 83//83 75//75
f 56//56 46//46 55//55
f 53//53 72//72 61//61
f 71//71 78//78 80//80
f 62//62 47//47 57//57
f 71//71 67//67 78//78
f 58//58 67//67 60//60
f 80//80 81//81 85//85
f 13//13 18//18 10//10
f 59//59 52//52 63//63
f 21//21 19//19 14//14
f 44//44 53//53 61//61
f 9//9 4//4 1//1
f 77//77 70//70 69//69
f 37//37 23//23 22//22
f 1//1 7//7 9//9
f 5//5 4//4 10//10
f 62//62 57//57 64//64
f 80//80 78//78 81//81
f 33//33 23//23 37//37
f 40//40 34//34 24//24
f 32//32 18//18 13//13
f 50//50 41//41 58//58
f 75//75 63//63 68//68
f 37//37 41//41 33//33
f 10//10 4//4 9//9
f 7//7 11//11 9//9
f 63//63 52//52 60//60
f 57//57 47//47 42//42
f 49//49 31//31 38//38
f 35//35 32//32 39//39
f 31//31 32//32 17//17
f 73//73 82//82 81//81
f 30//30 32//32 35//35
f 20//20 15//15 23//23
f 27//27 26//26 16//16
f 35//35 45//45 30//30
f 36//36 37//37 22//22
f 7//7 12//12 14//14
f 36//36 41//41 37//37
f 18//18 15//15 10//10
f 70//70 64//64 69//69
f 33//33 41//41 50//50
f 54//54 44//44 61//61
f 24//24 33//33 40//40
f 51//51 45//45 54//54
f 40//40 52//52 43//43
f 38//38 19//19 29//29
f 51//51 41//41 36//36
f 72//72 62//62 70//70
f 22//22 30//30 36//36
f 53//53 62//62 72//72
f 69//69 64//64 65//65
f 63//63 60//60 68//68

## Object rightSphere

v -0.5875 0.25 0
vn 0 0 0
v -0.3375 0.25 0
vn 1 0 0
v -0.363893 0.361804 0
vn 0.894427 0.447214 0
v -0.356335 0.298578 0.0818727
vn 0.924658 0.194311 0.327491
v -0.365269 0.304668 -0.100621
vn 0.888925 0.218673 -0.402486
v -0.403472 0.399769 -0.078758
vn 0.736112 0.599077 -0.315032
v -0.432693 0.446087 0.00919147
vn 0.61923 0.784348 0.0367659
v -0.363941 0.188416 0.0934285
vn 0.894236 -0.246334 0.373714
v -0.410629 0.387968 0.110368
vn 0.707486 0.551874 0.441473
v -0.367473 0.191604 -0.103335
vn 0.880107 -0.233582 -0.413341
v -0.358458 0.149801 -8.75488e-05
vn 0.916168 -0.400795 -0.000350195
v -0.421135 0.251713 -0.186601
vn 0.665458 0.00685229 -0.746404
v -0.444167 0.364414 -0.169897
vn 0.573332 0.457656 -0.67959
v -0.485119 0.455304 -0.0993403
vn 0.409525 0.821214 -0.397361
v -0.409409 0.274129 0.173785
vn 0.712366 0.096514 0.69514
v -0.527304 0.492563 -0.00629535
vn 0.240784 0.970252 -0.0251814
v -0.442748 0.137095 -0.169703
vn 0.579009 -0.45162 -0.678813
v -0.436004 0.146356 0.169726
vn 0.605982 -0.414577 0.678905
v -0.511892 0.464419 0.103961
vn 0.302433 0.857675 0.415846
v -0.414726 0.0800885 0.061474
vn 0.691098 -0.679646 0.245896
v -0.500173 0.374247 0.198587
vn 0.349309 0.496986 0.794347
v -0.413442 0.0814998 -0.0617362
vn 0.696233 -0.674001 -0.246945
v -0.596483 0.483348 -0.0892645
vn -0.035932 0.933391 -0.357058
v -0.502895 0.196054 -0.22898
vn 0.338418 -0.215782 -0.915921
v -0.54919 0.415044 -0.183828
vn 0.153241 0.660177 -0.735312
v -0.518203 0.302872 -0.234313
vn 0.277186 0.211488 -0.937252
v -0.506754 0.236186 0.236198
vn 0.322982 -0.0552575 0.944791
v -0.533178 0.122009 0.207768
vn 0.21729 -0.511964 0.83107
v -0.500781 0.048265 -0.119511
vn 0.346876 -0.80694 -0.478043
v -0.627208 0.494429 0.0343175
vn -0.158833 0.977716 0.13727
v -0.514707 0.0432995 0.120316
vn 0.291174 -0.826802 0.481264
v -0.556411 0.102098 -0.199144
vn 0.124357 -0.591609 -0.796576
v -0.652097 0.431072 -0.159813
vn -0.258388 0.724289 -0.639251
v -0.502034 0.0151782 -0.0073646
vn 0.341866 -0.939287 -0.0294584
v -0.606661 0.322435 0.238508
vn -0.0766425 0.289742 0.954031
v -0.709291 0.458556 -0.0645855
vn -0.487165 0.834224 -0.258342
v -0.620815 0.440442 0.158499
vn -0.133259 0.761769 0.633996
v -0.609796 0.20734 -0.245322
vn -0.0891821 -0.170641 -0.981289
v -0.615078 0.185665 0.240001
vn -0.11031 -0.257341 0.960004
v -0.604107 0.0208233 -0.0985003
vn -0.0664263 -0.916707 -0.394001
v -0.738032 0.440036 0.0610438
vn -0.602127 0.760145 0.244175
v -0.625648 0.0683658 0.167492
vn -0.152591 -0.726537 0.66997
v -0.639455 0.335107 -0.229254
vn -0.207822 0.340429 -0.917016
v -0.70028 0.256923 0.223008
vn -0.451122 0.0276906 0.892033
v -0.798255 0.376885 -0.044525
vn -0.843022 0.507538 -0.1781
v -0.728947 0.364011 0.171739
vn -0.565787 0.456045 0.686955
v -0.682286 0.105617 -0.180746
vn -0.379144 -0.577531 -0.722985
v -0.618059 0.00569375 0.0433655
vn -0.122236 -0.977225 0.173462
v -0.740168 0.370642 -0.156965
vn -0.610673 0.482569 -0.627859
v -0.725921 0.239512 -0.207917
vn -0.553685 -0.0419533 -0.831669
v -0.716083 0.147342 0.188223
vn -0.514331 -0.410633 0.752891
v -0.811335 0.338188 0.0679763
vn -0.89534 0.352752 0.271905
v -0.726307 0.0495782 -0.0553525
vn -0.555226 -0.801687 -0.22141
v -0.728081 0.0603012 0.082167
vn -0.562323 -0.758795 0.328668
v -0.781603 0.249774 0.157556
vn -0.776413 -0.000904782 0.630224
v -0.790415 0.161365 -0.116058
vn -0.811658 -0.354539 -0.464234
v -0.800165 0.278246 -0.128358
vn -0.85066 0.112984 -0.513432
v -0.788956 0.146983 0.106315
vn -0.805824 -0.412069 0.42526
v -0.835034 0.250792 -0.035022
vn -0.990134 0.00316965 -0.140088
v -0.805951 0.128435 0.00096488
vn -0.873805 -0.486261 0.00385952
v -0.827736 0.222041 0.063286
vn -0.960943 -0.111836 0.253144
g rightSphere
usemtl rightSphere

s 1
f 160//160 161//161 159//159
f 159//159 161//161 152//152
f 156//156 160//160 159//159
f 134//134 120//120 131//131
f 153//153 156//156 147//147
f 155//155 158//158 151//151
f 139//139 128//128 127//127
f 116//116 123//123 130//130
f 112//112 117//117 124//124
f 150//150 149//149 143//143
f 126//126 112//112 124//124
f 139//139 127//127 135//135
f 152//152 155//155 146//146
f 120//120 111//111 108//108
f 110//110 105//105 102//102
f 132//132 117//117 129//129
f 138//138 126//126 124//124
f 106//106 105//105 113//113
f 127//127 128//128 118//118
f 137//137 130//130 141//141
f 121//121 115//115 109//109
f 141//141 152//152 146//146
f 131//131 120//120 118//118
f 128//128 139//139 142//142
f 149//149 145//145 136//136
f 122//122 117//117 110//110
f 123//123 116//116 114//114
f 153//153 147//147 140//140
f 129//129 134//134 140//140
f 132//132 129//129 140//140
f 108//108 115//115 118//118
f 148//148 153//153 140//140
f 115//115 127//127 118//118
f 103//103 106//106 107//107
f 160//160 156//156 153//153
f 126//126 125//125 113//113
f 121//121 109//109 119//119
f 136//136 145//145 141//141
f 111//111 122//122 110//110
f 117//117 112//112 110//110
f 134//134 122//122 120//120
f 131//131 128//128 142//142
f 148//148 131//131 142//142
f 128//128 131//131 118//118
f 156//156 159//159 157//157
f 150//150 138//138 147//147
f 133//133 149//149 136//136
f 158//158 154//154 151//151
f 106//106 114//114 107//107
f 148//148 134//134 131//131
f 123//123 114//114 125//125
f 154//154 142//142 151//151
f 160//160 154//154 158//158
f 121//121 127//127 115//115
f 108//108 111//111 102//102
f 109//109 103//103 107//107
f 127//127 121//121 135//135
f 142//142 139//139 151//151
f 104//104 115//115 108//108
f 161//161 160//160 158//158
f 154//154 148//148 142//142
f 138//138 143//143 126//126
f 145//145 149//149 157//157
f 105//105 112//112 113//113
f 156//156 150//150 147//147
f 112//112 105//105 110//110
f 135//135 137//137 146//146
f 123//123 136//136 130//130
f 145//145 159//159 152//152
f 144//144 139//139 135//135
f 149//149 150//150 157//157
f 114//114 116//116 107//107
f 144//144 155//155 151//151
f 123//123 133//133 136//136
f 116//116 119//119 107//107
f 161//161 155//155 152//152
f 149//149 133//133 143//143
f 109//109 104//104 103//103
f 138//138 150//150 143//143
f 133//133 123//123 125//125
f 148//148 154//154 153//153
f 134//134 148//148 140//140
f 132//132 138//138 124//124
f 104//104 108//108 102//102
f 122//122 134//134 129//129
f 137//137 119//119 130//130
f 111//111 110//110 102//102
f 125//125 114//114 113//113
f 144//144 135//135 146//146
f 139//139 144//144 151//151
f 138//138 132//132 147//147
f 103//103 104//104 102//102
f 130//130 136//136 141//141
f 141//141 145//145 152//152
f 137//137 121//121 119//119
f 154//154 160//160 153//153
f 122//122 111//111 120//120
f 112//112 126//126 113//113
f 150//150 156//156 157//157
f 117//117 122//122 129//129
f 115//115 104//104 109//109
f 119//119 109//109 107//107
f 105//105 106//106 103//103
f 119//119 116//116 130//130
f 147//147 132//132 140//140
f 121//121 137//137 135//135
f 105//105 103//103 102//102
f 143//143 133//133 125//125
f 159//159 145//145 157//157
f 114//114 106//106 113//113
f 120//120 108//108 118//118
f 137//137 141//141 146//146
f 155//155 144//144 146//146
f 126//126 143//143 125//125
f 155//155 161//161 158//158
f 117//117 132//132 124//124


## Object floor
v   1.0000 0.0000 -1.0400
v  -0.9900 0.0000 -1.0400
v  -1.0100 0.0000  0.9900
v   1.0000 0.0000  0.9900
# 4 vertices

vn 0.0000 1.0000 -0.0000
# 1 vertex normals

g floor
usemtl floor

s 1
f 162//162 163//162 164//162 
f 164//162 165//162 162//162 
# 2 faces

## Object ceiling 
v   1.0000 1.5900 -1.0400
v   1.0000 1.5900  0.9900
v  -1.0200 1.5900  0.9900
v  -1.0200 1.5900 -1.0400
# 4 vertices

vn 0.0000 -1.0000 -0.0000
# 1 vertex normals

g ceiling
usemtl ceiling

s 1
f 166//163 167//163 168//163 
f 168//163 169//163 166//163 
# 2 faces

## Object backwall 
v   1.0000 1.5900 -1.0400
v  -1.0200 1.5900 -1.0400
v  -0.9900 0.0000 -1.0400
v   1.0000 0.0000 -1.0400
# 4 vertices

vn 0.0000 0.0000 1.0000
# 1 vertex normals

g backWall
usemtl backWall

s 1
f 170//164 171//164 172//164 
f 172//164 173//164 170//164 
# 2 faces

## Object rightwall 
v  1.0000 1.5900 0.9900
v  1.0000 1.5900 -1.0400
v  1.0000 0.0000 -1.0400
v  1.0000 0.0000 0.9900
# 4 vertices

vn -1.0000 0.0000 -0.0000
# 1 vertex normals

g rightWall
usemtl rightWall

s 1
f 174//165 175//165 176//165 
f 176//165 177//165 174//165 
# 2 faces

## Object leftWall 
v  -1.0200 1.5900 -1.0400
v  -1.0200 1.5900 0.9900
v  -1.0100 0.0000 0.9900
v  -0.9900 0.0000 -1.0400
# 4 vertices

vn 0.9999 0.0135 0.0057
vn 1.0000 0.0063 -0.0000
vn 0.9999 0.0116 0.0042
vn 0.9998 0.0189 0.0098
# 4 vertex normals

g leftWall
usemtl leftWall

s 1
f 178//166 179//167 180//168 
f 180//168 181//169 178//166 
# 2 faces

## Object light
v  0.2300 1.5800 -0.2200
v  0.2300 1.5800 0.1600
v  -0.2400 1.5800 0.1600
v  -0.2400 1.5800 -0.2200
# 4 vertices

vn 0.0000 -1.0000 -0.0000
# 1 vertex normals

g light
usemtl light

s 1
f 182//170 183//170 184//170 
f 184//170 185//170 182//170 
# 2 faces
