mtllib CornellBox-Sphere.mtl

## Object leftSphere

v 0.0566915 0.526926 0.0107976
vn 0.761933 -0.647487 0.0147785
v 0.0534891 0.623683 -0.000761393
vn 0.826965 -0.562253 -0.00113759
v 0.047358 0.568497 0.0780003
vn 0.780445 -0.615254 0.111216
v 0.03914 0.559341 -0.0634922
vn 0.771079 -0.630232 -0.0908066
v 0.0145414 0.635824 -0.0825405
vn 0.809333 -0.572821 -0.12983
v 0.0043819 0.707105 -0.00983249
vn 0.864645 -0.5021 -0.0168555
v 0.00443047 0.477057 0.0759051
vn 0.690495 -0.715836 0.103903
v 0.0253341 0.653902 0.080868
vn 0.828249 -0.545662 0.127498
v -0.00207257 0.469488 -0.0443146
vn 0.683094 -0.727796 -0.0607941
v -0.0347547 0.546953 -0.129336
vn 0.702636 -0.684214 -0.19533
v -0.0658213 0.424352 0.0238121
vn 0.601838 -0.797936 0.0330072
v -0.0176689 0.566093 0.151464
vn 0.723973 -0.651288 0.227346
v -0.102311 0.443871 -0.0843614
vn 0.5773 -0.807297 -0.122462
v -0.08924 0.460219 0.130238
vn 0.594712 -0.781512 0.188563
v -0.0665412 0.680548 -0.13672
vn 0.780243 -0.575026 -0.246101
v -0.0502053 0.714935 0.132233
vn 0.819758 -0.519536 0.240997
v -0.167056 0.405689 0.0369182
vn 0.488032 -0.871147 0.0541151
v -0.141674 0.541715 -0.173106
vn 0.590371 -0.755062 -0.285206
v -0.20135 0.459359 0.161354
vn 0.46783 -0.846905 0.252758
v -0.0724562 0.780087 -0.0248571
vn 0.888074 -0.456793 -0.0516319
v -0.115637 0.564349 0.20402
vn 0.624217 -0.70751 0.331334
v -0.185915 0.656877 -0.198139
vn 0.621199 -0.678632 -0.391881
v -0.148482 0.772536 -0.129709
vn 0.801957 -0.518938 -0.295919
v -0.171218 0.848462 -0.0226863
vn 0.906399 -0.417767 -0.0625424
v -0.118075 0.810349 0.0770298
vn 0.881389 -0.437668 0.177766
v -0.147952 0.673987 0.218206
vn 0.667894 -0.618502 0.413973
v -0.147079 0.772654 0.167243
vn 0.780979 -0.503093 0.370092
v -0.237291 0.743157 0.231129
vn 0.605241 -0.591727 0.532487
v -0.239182 0.583157 0.241297
vn 0.476179 -0.761038 0.440539
v -0.264521 0.545486 -0.195001
vn 0.429881 -0.829744 -0.355987
v -0.281427 0.40792 0.0549409
vn 0.345012 -0.934583 0.0867228
v -0.234765 0.432699 -0.0948561
vn 0.418757 -0.895664 -0.14976
v -0.244766 0.839254 -0.121964
vn 0.784466 -0.494057 -0.37486
v -0.223412 0.855728 0.123582
vn 0.824304 -0.429968 0.368307
v -0.341227 0.471407 -0.1369
vn 0.279211 -0.929561 -0.240746
v -0.315532 0.659959 -0.223816
vn 0.41274 -0.760832 -0.50078
v -0.240828 0.747976 -0.190241
vn 0.634437 -0.61694 -0.465698
v -0.31865 0.467077 0.171835
vn 0.308117 -0.905444 0.29195
v -0.34706 0.421614 -0.0403721
vn 0.255058 -0.964579 -0.0673288
v -0.272655 0.901696 -0.00851834
vn 0.917325 -0.396652 -0.0343711
v -0.336739 0.781167 -0.200345
vn 0.482103 -0.646202 -0.591608
v -0.356589 0.560956 0.241343
vn 0.275194 -0.842491 0.463117
v -0.334183 0.911914 0.109527
vn 0.762827 -0.40523 0.503869
v -0.456085 0.465716 -0.0799615
vn 0.0810221 -0.985734 -0.147526
v -0.397198 0.555828 -0.197212
vn 0.206954 -0.894176 -0.397013
v -0.326908 0.82678 0.215679
vn 0.53044 -0.530832 0.660947
v -0.437782 0.494199 0.180002
vn 0.115119 -0.935856 0.333047
v -0.33594 0.681968 0.265745
vn 0.368065 -0.713499 0.596194
v -0.403748 0.43259 0.0682765
vn 0.16608 -0.97905 0.117809
v -0.349618 0.884627 -0.120896
vn 0.668917 -0.513191 -0.53776
v -0.457225 0.694471 -0.227072
vn 0.111665 -0.797588 -0.592776
v -0.3857 0.942774 -0.00793288
vn 0.892473 -0.446829 -0.0619414
v -0.526732 0.479609 0.0780198
vn -0.0507357 -0.987674 0.148077
v -0.519619 0.562038 -0.172764
vn -0.0416349 -0.929433 -0.366635
v -0.436875 0.88785 0.193977
vn 0.27117 -0.481773 0.833283
v -0.449127 0.767789 0.262342
vn 0.143698 -0.655917 0.741028
v -0.45683 0.618062 0.256105
vn 0.0934664 -0.826926 0.554488
v -0.429 0.830253 -0.19024
vn 0.268265 -0.641373 -0.718801
v -0.436493 0.948801 0.0922026
vn 0.51586 -0.415882 0.748953
v -0.464974 0.916451 -0.119673
vn 0.233359 -0.556638 -0.797306
v -0.603914 0.519326 -0.0663855
vn -0.209403 -0.968635 -0.133777
v -0.560291 0.550768 0.190632
vn -0.122613 -0.9136 0.387687
v -0.504687 0.970983 0.00180118
vn -0.159162 -0.985356 0.0611634
v -0.565641 0.684206 0.255687
vn -0.159478 -0.767244 0.621211
v -0.560487 0.838101 0.236993
vn -0.206216 -0.551958 0.807971
v -0.540656 0.946334 0.138544
vn -0.263938 -0.348395 0.89942
v -0.53574 0.820714 -0.199206
vn -0.132186 -0.663096 -0.73677
v -0.578695 0.940236 -0.103495
vn -0.549957 -0.417654 -0.723265
v -0.683458 0.750772 0.229473
vn -0.476186 -0.6469 0.595624
v -0.660747 0.621878 0.194293
vn -0.353682 -0.831961 0.427493
v -0.647747 0.843134 -0.176307
vn -0.530654 -0.563406 -0.63323
v -0.659192 0.540372 0.0870858
vn -0.322153 -0.930139 0.176234
v -0.719679 0.579863 -0.0373309
vn -0.461928 -0.883437 -0.0784971
v -0.705944 0.940856 -0.085787
vn -0.892291 -0.256253 -0.371688
v -0.623311 0.981654 0.0320753
vn -0.957917 -0.142513 0.24917
v -0.667532 0.904042 0.181626
vn -0.632026 -0.362007 0.685196
v -0.77203 0.645964 0.120172
vn -0.588343 -0.765703 0.259906
v -0.636899 0.670348 -0.18563
vn -0.340265 -0.819356 -0.461385
v -0.792627 0.81932 0.171059
vn -0.761841 -0.470391 0.445343
v -0.751774 0.803645 -0.152238
vn -0.711778 -0.555104 -0.430385
v -0.761936 0.676897 -0.116917
vn -0.60625 -0.74782 -0.270605
v -0.813195 0.656307 -0.0128024
vn -0.673296 -0.738861 -0.0275222
v -0.759931 0.95667 0.067748
vn -0.955323 -0.159251 0.248993
v -0.833055 0.891911 -0.0597891
vn -0.937593 -0.304286 -0.168314
v -0.838101 0.746541 -0.0770345
vn -0.787159 -0.590097 -0.17935
v -0.870602 0.746443 0.055456
vn -0.819097 -0.560408 0.122568
v -0.85437 0.881575 0.0849373
vn -0.924845 -0.30907 0.221672
v -0.121588 0.606064 0.021848
vn 0.692201 -0.720598 0.0399649
v -0.331986 0.660583 0.0159945
vn 0.443235 -0.895412 0.0421948
v -0.731785 0.7944 0.0316499
vn -0.744227 -0.660151 0.101623
v -0.559972 0.787236 -0.0928831
vn -0.250117 -0.887346 -0.387375
v -0.666958 0.762436 -0.0809684
vn -0.553863 -0.788091 -0.268603
v -0.61773 0.778214 0.148514
vn -0.40356 -0.760246 0.509082
v -0.650593 0.679671 0.00534651
vn -0.425401 -0.904879 0.015103
v -0.584423 0.828794 0.0299036
vn -0.436931 -0.88608 0.154767
v -0.440545 0.821858 0.0777877
vn 0.292488 -0.876363 0.382673
v -0.51772 0.643806 -0.0129313
vn -0.0496531 -0.998109 -0.0362353
v -0.525761 0.736126 0.13745
vn -0.0862626 -0.883586 0.460255
v -0.650271 0.857827 -0.063638
vn -0.694299 -0.656884 -0.294027
v -0.448001 0.794858 -0.0713918
vn 0.232818 -0.918489 -0.319645
g leftSphere
usemtl leftSphere

s 1
f 75//75 76//76 66//66
f 77//77 82//82 73//73
f 46//46 43//43 55//55
f 72//72 77//77 73//73
f 43//43 59//59 55//55
f 77//77 86//86 82//82
f 53//53 44//44 49//49
f 8//8 12//12 3//3
f 3//3 12//12 7//7
f 2//2 8//8 3//3
f 74//74 84//84 83//83
f 74//74 68//68 71//71
f 79//79 87//87 86//86
f 2//2 4//4 5//5
f 38//38 47//47 49//49
f 76//76 83//83 79//79
f 50//50 58//58 60//60
f 46//46 34//34 43//43
f 30//30 22//22 18//18
f 75//75 66//66 63//63
f 20//20 25//25 16//16
f 6//6 15//15 20//20
f 52//52 50//50 60//60
f 2//2 3//3 1//1
f 36//36 45//45 51//51
f 66//66 55//55 59//59
f 16//16 26//26 21//21
f 16//16 25//25 27//27
f 50//50 52//52 40//40
f 13//13 10//10 9//9
f 24//24 25//25 20//20
f 44//44 39//39 49//49
f 14//14 19//19 17//17
f 24//24 23//23 33//33
f 31//31 19//19 38//38
f 22//22 15//15 18//18
f 43//43 34//34 40//40
f 31//31 39//39 32//32
f 16//16 8//8 6//6
f 21//21 26//26 29//29
f 57//57 56//56 64//64
f 47//47 62//62 53//53
f 3//3 7//7 1//1
f 29//29 48//48 42//42
f 30//30 45//45 36//36
f 76//76 69//69 65//65
f 28//28 34//34 46//46
f 17//17 11//11 14//14
f 46//46 56//56 48//48
f 84//84 80//80 85//85
f 43//43 52//52 59//59
f 77//77 69//69 79//79
f 56//56 55//55 65//65
f 67//67 51//51 78//78
f 75//75 83//83 76//76
f 17//17 32//32 13//13
f 48//48 28//28 46//46
f 6//6 8//8 2//2
f 79//79 69//69 76//76
f 44//44 45//45 35//35
f 5//5 6//6 2//2
f 16//16 12//12 8//8
f 58//58 41//41 51//51
f 21//21 12//12 16//16
f 48//48 56//56 57//57
f 58//58 51//51 67//67
f 23//23 15//15 22//22
f 27//27 34//34 28//28
f 73//73 81//81 78//78
f 14//14 12//12 21//21
f 10//10 15//15 5//5
f 80//80 84//84 74//74
f 29//29 19//19 21//21
f 70//70 77//77 72//72
f 24//24 34//34 25//25
f 28//28 26//26 27//27
f 49//49 39//39 31//31
f 40//40 33//33 50//50
f 83//83 84//84 87//87
f 5//5 15//15 6//6
f 17//17 19//19 31//31
f 38//38 29//29 42//42
f 49//49 47//47 53//53
f 68//68 67//67 71//71
f 9//9 11//11 13//13
f 42//42 47//47 38//38
f 65//65 66//66 76//76
f 1//1 4//4 2//2
f 85//85 81//81 82//82
f 68//68 60//60 67//67
f 16//16 6//6 20//20
f 79//79 86//86 77//77
f 13//13 11//11 17//17
f 86//86 85//85 82//82
f 39//39 44//44 35//35
f 64//64 56//56 65//65
f 78//78 61//61 73//73
f 79//79 83//83 87//87
f 54//54 61//61 78//78
f 87//87 84//84 86//86
f 73//73 61//61 72//72
f 84//84 85//85 86//86
f 48//48 57//57 42//42
f 59//59 63//63 66//66
f 25//25 34//34 27//27
f 14//14 11//11 7//7
f 28//28 48//48 29//29
f 29//29 26//26 28//28
f 51//51 54//54 78//78
f 70//70 62//62 64//64
f 20//20 23//23 24//24
f 54//54 45//45 44//44
f 32//32 30//30 18//18
f 74//74 75//75 68//68
f 71//71 80//80 74//74
f 65//65 55//55 66//66
f 74//74 83//83 75//75
f 56//56 46//46 55//55
f 53//53 72//72 61//61
f 71//71 78//78 80//80
f 62//62 47//47 57//57
f 71//71 67//67 78//78
f 58//58 67//67 60//60
f 80//80 81//81 85//85
f 13//13 18//18 10//10
f 59//59 52//52 63//63
f 21//21 19//19 14//14
f 44//44 53//53 61//61
f 9//9 4//4 1//1
f 77//77 70//70 69//69
f 37//37 23//23 22//22
f 1//1 7//7 9//9
f 5//5 4//4 10//10
f 62//62 57//57 64//64
f 80//80 78//78 81//81
f 33//33 23//23 37//37
f 40//40 34//34 24//24
f 32//32 18//18 13//13
f 50//50 41//41 58//58
f 75//75 63//63 68//68
f 37//37 41//41 33//33
f 10//10 4//4 9//9
f 7//7 11//11 9//9
f 63//63 52//52 60//60
f 57//57 47//47 42//42
f 49//49 31//31 38//38
f 35//35 32//32 39//39
f 31//31 32//32 17//17
f 73//73 82//82 81//81
f 30//30 32//32 35//35
f 20//20 15//15 23//23
f 27//27 26//26 16//16
f 35//35 45//45 30//30
f 36//36 37//37 22//22
f 7//7 12//12 14//14
f 36//36 41//41 37//37
f 18//18 15//15 10//10
f 70//70 64//64 69//69
f 33//33 41//41 50//50
f 54//54 44//44 61//61
f 24//24 33//33 40//40
f 51//51 45//45 54//54
f 40//40 52//52 43//43
f 38//38 19//19 29//29
f 51//51 41//41 36//36
f 72//72 62//62 70//70
f 22//22 30//30 36//36
f 53//53 62//62 72//72
f 69//69 64//64 65//65
f 63//63 60//60 68//68

## Object rightSphere

v -0.5875 0.25 0
vn 0 0 0
v -0.3375 0.25 0
vn 1 0 0
v -0.363893 0.361804 0
vn 0.894427 0.447214 0
v -0.356335 0.298578 0.0818727
vn 0.924658 0.194311 0.327491
v -0.365269 0.304668 -0.100621
vn 0.888925 0.218673 -0.402486
v -0.403472 0.399769 -0.078758
vn 0.736112 0.599077 -0.315032
v -0.432693 0.446087 0.00919147
vn 0.61923 0.784348 0.0367659
v -0.363941 0.188416 0.0934285
vn 0.894236 -0.246334 0.373714
v -0.410629 0.387968 0.110368
vn 0.707486 0.551874 0.441473
v -0.367473 0.191604 -0.103335
vn 0.880107 -0.233582 -0.413341
v -0.358458 0.149801 -8.75488e-05
vn 0.916168 -0.400795 -0.000350195
v -0.421135 0.251713 -0.186601
vn 0.665458 0.00685229 -0.746404
v -0.444167 0.364414 -0.169897
vn 0.573332 0.457656 -0.67959
v -0.485119 0.455304 -0.0993403
vn 0.409525 0.821214 -0.397361
v -0.409409 0.274129 0.173785
vn 0.712366 0.096514 0.69514
v -0.527304 0.492563 -0.00629535
vn 0.240784 0.970252 -0.0251814
v -0.442748 0.137095 -0.169703
vn 0.579009 -0.45162 -0.678813
v -0.436004 0.146356 0.169726
vn 0.605982 -0.414577 0.678905
v -0.511892 0.464419 0.103961
vn 0.302433 0.857675 0.415846
v -0.414726 0.0800885 0.061474
vn 0.691098 -0.679646 0.245896
v -0.500173 0.374247 0.198587
vn 0.349309 0.496986 0.794347
v -0.413442 0.0814998 -0.0617362
vn 0.696233 -0.674001 -0.246945
v -0.596483 0.483348 -0.0892645
vn -0.035932 0.933391 -0.357058
v -0.502895 0.196054 -0.22898
vn 0.338418 -0.215782 -0.915921
v -0.54919 0.415044 -0.183828
vn 0.153241 0.660177 -0.735312
v -0.518203 0.302872 -0.234313
vn 0.277186 0.211488 -0.937252
v -0.506754 0.236186 0.236198
vn 0.322982 -0.0552575 0.944791
v -0.533178 0.122009 0.207768
vn 0.21729 -0.511964 0.83107
v -0.500781 0.048265 -0.119511
vn 0.346876 -0.80694 -0.478043
v -0.627208 0.494429 0.0343175
vn -0.158833 0.977716 0.13727
v -0.514707 0.0432995 0.120316
vn 0.291174 -0.826802 0.481264
v -0.556411 0.102098 -0.199144
vn 0.124357 -0.591609 -0.796576
v -0.652097 0.431072 -0.159813
vn -0.258388 0.724289 -0.639251
v -0.502034 0.0151782 -0.0073646
vn 0.341866 -0.939287 -0.0294584
v -0.606661 0.322435 0.238508
vn -0.0766425 0.289742 0.954031
v -0.709291 0.458556 -0.0645855
vn -0.487165 0.834224 -0.258342
v -0.620815 0.440442 0.158499
vn -0.133259 0.761769 0.633996
v -0.609796 0.20734 -0.245322
vn -0.0891821 -0.170641 -0.981289
v -0.615078 0.185665 0.240001
vn -0.11031 -0.257341 0.960004
v -0.604107 0.0208233 -0.0985003
vn -0.0664263 -0.916707 -0.394001
v -0.738032 0.440036 0.0610438
vn -0.602127 0.760145 0.244175
v -0.625648 0.0683658 0.167492
vn -0.152591 -0.726537 0.66997
v -0.639455 0.335107 -0.229254
vn -0.207822 0.340429 -0.917016
v -0.70028 0.256923 0.223008
vn -0.451122 0.0276906 0.892033
v -0.798255 0.376885 -0.044525
vn -0.843022 0.507538 -0.1781
v -0.728947 0.364011 0.171739
vn -0.565787 0.456045 0.686955
v -0.682286 0.105617 -0.180746
vn -0.379144 -0.577531 -0.722985
v -0.618059 0.00569375 0.0433655
vn -0.122236 -0.977225 0.173462
v -0.740168 0.370642 -0.156965
vn -0.610673 0.482569 -0.627859
v -0.725921 0.239512 -0.207917
vn -0.553685 -0.0419533 -0.831669
v -0.716083 0.147342 0.188223
vn -0.514331 -0.410633 0.752891
v -0.811335 0.338188 0.0679763
vn -0.89534 0.352752 0.271905
v -0.726307 0.0495782 -0.0553525
vn -0.555226 -0.801687 -0.22141
v -0.728081 0.0603012 0.082167
vn -0.562323 -0.758795 0.328668
v -0.781603 0.249774 0.157556
vn -0.776413 -0.000904782 0.630224
v -0.790415 0.161365 -0.116058
vn -0.811658 -0.354539 -0.464234
v -0.800165 0.278246 -0.128358
vn -0.85066 0.112984 -0.513432
v -0.788956 0.146983 0.106315
vn -0.805824 -0.412069 0.42526
v -0.835034 0.250792 -0.035022
vn -0.990134 0.00316965 -0.140088
v -0.805951 0.128435 0.00096488
vn -0.873805 -0.486261 0.00385952
v -0.827736 0.222041 0.063286
vn -0.960943 -0.111836 0.253144
g rightSphere
usemtl rightSphere

s 1
f 160//160 161//161 159//159
f 159//159 161//161 152//152
f 156//156 160//160 159//159
f 134//134 120//120 131//131
f 153//153 156//156 147//147
f 155//155 158//158 151//151
f 139//139 128//128 127//127
f 116//116 123//123 130//130
f 112//112 117//117 124//124
f 150//150 149//149 143//143
f 126//126 112//112 124//124
f 139//139 127//127 135//135
f 152//152 155//155 146//146
f 120//120 111//111 108//108
f 110//110 105//105 102//102
f 132//132 117//117 129//129
f 138//138 126//126 124//124
f 106//106 105//105 113//113
f 127//127 128//128 118//118
f 137//137 130//130 141//141
f 121//121 115//115 109//109
f 141//141 152//152 146//146
f 131//131 120//120 118//118
f 128//128 139//139 142//142
f 149//149 145//145 136//136
f 122//122 117//117 110//110
f 123//123 116//116 114//114
f 153//153 147//147 140//140
f 129//129 134//134 140//140
f 132//132 129//129 140//140
f 108//108 115//115 118//118
f 148//148 153//153 140//140
f 115//115 127//127 118//118
f 103//103 106//106 107//107
f 160//160 156//156 153//153
f 126//126 125//125 113//113
f 121//121 109//109 119//119
f 136//136 145//145 141//141
f 111//111 122//122 110//110
f 117//117 112//112 110//110
f 134//134 122//122 120//120
f 131//131 128//128 142//142
f 148//148 131//131 142//142
f 128//128 131//131 118//118
f 156//156 159//159 157//157
f 150//150 138//138 147//147
f 133//133 149//149 136//136
f 158//158 154//154 151//151
f 106//106 114//114 107//107
f 148//148 134//134 131//131
f 123//123 114//114 125//125
f 154//154 142//142 151//151
f 160//160 154//154 158//158
f 121//121 127//127 115//115
f 108//108 111//111 102//102
f 109//109 103//103 107//107
f 127//127 121//121 135//135
f 142//142 139//139 151//151
f 104//104 115//115 108//108
f 161//161 160//160 158//158
f 154//154 148//148 142//142
f 138//138 143//143 126//126
f 145//145 149//149 157//157
f 105//105 112//112 113//113
f 156//156 150//150 147//147
f 112//112 105//105 110//110
f 135//135 137//137 146//146
f 123//123 136//136 130//130
f 145//145 159//159 152//152
f 144//144 139//139 135//135
f 149//149 150//150 157//157
f 114//114 116//116 107//107
f 144//144 155//155 151//151
f 123//123 133//133 136//136
f 116//116 119//119 107//107
f 161//161 155//155 152//152
f 149//149 133//133 143//143
f 109//109 104//104 103//103
f 138//138 150//150 143//143
f 133//133 123//123 125//125
f 148//148 154//154 153//153
f 134//134 148//148 140//140
f 132//132 138//138 124//124
f 104//104 108//108 102//102
f 122//122 134//134 129//129
f 137//137 119//119 130//130
f 111//111 110//110 102//102
f 125//125 114//114 113//113
f 144//144 135//135 146//146
f 139//139 144//144 151//151
f 138//138 132//132 147//147
f 103//103 104//104 102//102
f 130//130 136//136 141//141
f 141//141 145//145 152//152
f 137//137 121//121 119//119
f 154//154 160//160 153//153
f 122//122 111//111 120//120
f 112//112 126//126 113//113
f 150//150 156//156 157//157
f 117//117 122//122 129//129
f 115//115 104//104 109//109
f 119//119 109//109 107//107
f 105//105 106//106 103//103
f 119//119 116//116 130//130
f 147//147 132//132 140//140
f 121//121 137//137 135//135
f 105//105 103//103 102//102
f 143//143 133//133 125//125
f 159//159 145//145 157//157
f 114//114 106//106 113//113
f 120//120 108//108 118//118
f 137//137 141//141 146//146
f 155//155 144//144 146//146
f 126//126 143//143 125//125
f 155//155 161//161 158//158
f 117//117 132//132 124//124


## Object floor
v   1.0000 0.0000 -1.0400
v  -0.9900 0.0000 -1.0400
v  -1.0100 0.0000  0.9900
v   1.0000 0.0000  0.9900
# 4 vertices

vn 0.0000 1.0000 -0.0000
# 1 vertex normals

g floor
usemtl floor

s 1
f 162//162 163//162 164//162 
f 164//162 165//162 162//162 
# 2 faces

## Object ceiling 
v   1.0000 1.5900 -1.0400
v   1.0000 1.5900  0.9900
v  -1.0200 1.5900  0.9900
v  -1.0200 1.5900 -1.0400
# 4 vertices

vn 0.0000 -1.0000 -0.0000
# 1 vertex normals

g ceiling
usemtl ceiling

s 1
f 166//163 167//163 168//163 
f 168//163 169//163 166//163 
# 2 faces

## Object backwall 
v   1.0000 1.5900 -1.0400
v  -1.0200 1.5900 -1.0400
v  -0.9900 0.0000 -1.0400
v   1.0000 0.0000 -1.0400
# 4 vertices

vn 0.0000 0.0000 1.0000
# 1 vertex normals

g backWall
usemtl backWall

s 1
f 170//164 171//164 172//164 
f 172//164 173//164 170//164 
# 2 faces

## Object rightwall 
v  1.0000 1.5900 0.9900
v  1.0000 1.5900 -1.0400
v  1.0000 0.0000 -1.0400
v  1.0000 0.0000 0.9900
# 4 vertices

vn -1.0000 0.0000 -0.0000
# 1 vertex normals

g rightWall
usemtl rightWall

s 1
f 174//165 175//165 176//165 
f 176//165 177//165 174//165 
# 2 faces

## Object leftWall 
v  -1.0200 1.5900 -1.0400
v  -1.0200 1.5900 0.9900
v  -1.0100 0.0000 0.9900
v  -0.9900 0.0000 -1.0400
# 4 vertices

vn 0.9999 0.0135 0.0057
vn 1.0000 0.0063 -0.0000
vn 0.9999 0.0116 0.0042
vn 0.9998 0.0189 0.0098
# 4 vertex normals

g leftWall
usemtl leftWall

s 1
f 178//166 179//167 180//168 
f 180//168 181//169 178//166 
# 2 faces

## Object light
v  0.2300 1.5800 -0.2200
v  0.2300 1.5800 0.1600
v  -0.2400 1.5800 0.1600
v  -0.2400 1.5800 -0.2200
# 4 vertices

vn 0.0000 -1.0000 -0.0000
# 1 vertex normals

g light
usemtl light

s 1
f 182//170 183//170 184//170 
f 184//170 185//170 182//170 
# 2 faces
