mtllib CornellBox-Sphere.mtl

## Object leftSphere

v 0.0517519 0.372364 0.127215
vn 0.652725 -0.742497 0.150496
v 0.101086 0.428796 0.0645756
vn 0.722707 -0.686779 0.0776416
v 0.0996185 0.426456 0.160817
vn 0.709442 -0.678593 0.190272
v 0.0261473 0.379912 0.0486209
vn 0.645833 -0.761143 0.0596809
v 0.0462059 0.437729 -0.00760363
vn 0.696753 -0.717246 -0.00969936
v 0.112772 0.512295 0.0148092
vn 0.782291 -0.622626 0.0189061
v 0.0156608 0.402039 0.211951
vn 0.63074 -0.731407 0.259252
v 0.135859 0.494873 0.117844
vn 0.774886 -0.615571 0.14361
v -0.046112 0.362476 0.115774
vn 0.573735 -0.80586 0.146344
v -0.0591968 0.405193 0.00399023
vn 0.595398 -0.803413 0.00538965
v -0.08667 0.403441 0.199866
vn 0.549075 -0.792479 0.265506
v 0.0861484 0.49639 0.228027
vn 0.727482 -0.625041 0.283009
v -0.146492 0.407198 0.0989899
vn 0.506991 -0.85018 0.141968
v -0.0360817 0.476164 0.271919
vn 0.617973 -0.697788 0.362217
v -0.00426018 0.50766 -0.0723355
vn 0.705763 -0.700923 -0.102981
v 0.142375 0.604062 0.133877
vn 0.838196 -0.516635 0.174688
v -0.162791 0.468358 0.223318
vn 0.504804 -0.795871 0.334309
v -0.151455 0.467772 -0.0269174
vn 0.547365 -0.835826 -0.0422718
v -0.104705 0.563479 0.303515
vn 0.596655 -0.658882 0.458124
v 0.0977991 0.609362 -0.0305708
vn 0.836352 -0.546522 -0.0427702
v 0.0382512 0.581398 0.281311
vn 0.729717 -0.567507 0.381378
v -0.12237 0.563696 -0.106916
vn 0.643483 -0.743464 -0.182185
v -0.000826359 0.628468 -0.110139
vn 0.789914 -0.587928 -0.174289
v 0.07284 0.726005 -0.0563771
vn 0.898582 -0.429801 -0.0884356
v 0.12788 0.694464 0.0437795
vn 0.897427 -0.436702 0.062574
v 0.0861875 0.67575 0.238631
vn 0.82431 -0.455968 0.335568
v 0.123701 0.720361 0.1433
vn 0.893067 -0.400411 0.205188
v 0.0697361 0.786103 0.222694
vn 0.879181 -0.330072 0.343648
v -0.0240632 0.69087 0.31302
vn 0.734335 -0.476965 0.482967
v -0.240252 0.555115 -0.043929
vn 0.502383 -0.86046 -0.0849638
v -0.233296 0.557405 0.239978
vn 0.46811 -0.776828 0.421201
v -0.24728 0.494159 0.0967866
vn 0.440524 -0.881746 0.168711
v -0.0218312 0.74613 -0.129847
vn 0.858878 -0.455997 -0.233228
v 0.102112 0.81417 0.0702894
vn 0.949637 -0.293087 0.110859
v -0.313983 0.584219 0.0432353
vn 0.406556 -0.908726 0.0944947
v -0.215672 0.656343 -0.123762
vn 0.614256 -0.74243 -0.267372
v -0.100643 0.664867 -0.142828
vn 0.73879 -0.61998 -0.264225
v -0.181626 0.655353 0.313766
vn 0.564054 -0.610599 0.555889
v -0.310215 0.584743 0.150681
vn 0.394734 -0.863693 0.313402
v 0.0418258 0.84067 -0.0606848
vn 0.953889 -0.280502 -0.106836
v -0.148479 0.75554 -0.161649
vn 0.768073 -0.534145 -0.353204
v -0.125502 0.759422 0.332043
vn 0.674383 -0.433225 0.597933
v 0.052821 0.926844 0.0442678
vn 0.988248 -0.130778 0.0791351
v -0.377983 0.679718 0.0970357
vn 0.342544 -0.899141 0.272412
v -0.322938 0.660897 -0.0478851
vn 0.459266 -0.879572 -0.124205
v 0.0485166 0.898016 0.179061
vn 0.93612 -0.174049 0.305593
v -0.249836 0.759259 0.310838
vn 0.53683 -0.516609 0.66703
v -0.0257102 0.826863 0.29459
vn 0.811362 -0.296183 0.503951
v -0.30455 0.662367 0.240844
vn 0.426302 -0.73642 0.525312
v -0.0654416 0.854315 -0.142302
vn 0.905497 -0.303566 -0.296517
v -0.292064 0.783493 -0.135387
vn 0.631437 -0.657465 -0.411129
v -0.0113116 0.9507 -0.0689478
vn 0.98529 -0.099398 -0.139012
v -0.366094 0.779825 0.233367
vn 0.385164 -0.633304 0.671248
v -0.394156 0.762199 -0.0240786
vn 0.404907 -0.909706 -0.0921128
v 0.000232399 1.0099 0.140648
vn 0.962497 0.0190409 0.270621
v -0.0556496 0.96197 0.260551
vn 0.860298 -0.073629 0.504447
v -0.155935 0.870946 0.325361
vn 0.701013 -0.26294 0.662905
v -0.178814 0.859215 -0.169649
vn 0.824471 -0.36139 -0.435483
v -0.00277421 1.02 0.0204565
vn 0.998349 0.0401472 0.0410733
v -0.125838 0.961168 -0.146944
vn 0.92648 -0.0961532 -0.363854
v -0.441477 0.823389 0.0927226
vn 0.281524 -0.849584 0.44604
v -0.29573 0.884149 0.302555
vn 0.533345 -0.302484 0.789966
v -0.0738586 1.05931 -0.0643923
vn 0.979544 0.136325 -0.148014
v -0.191233 0.991964 0.301044
vn 0.715881 -0.0186305 0.697974
v -0.0980983 1.08128 0.210281
vn 0.872157 0.176379 0.456325
v -0.0576932 1.10773 0.0692267
vn 0.960553 0.233956 0.150339
v -0.262743 0.929536 -0.164606
vn 0.798201 -0.23706 -0.553784
v -0.187241 1.06428 -0.135587
vn 0.901602 0.185313 -0.390862
v -0.238512 1.11288 0.25514
vn 0.683843 0.29521 0.66724
v -0.319487 1.00229 0.284364
vn 0.53592 0.00678456 0.844242
v -0.321989 1.03249 -0.144745
vn 0.768212 0.140201 -0.624654
v -0.40869 0.917097 0.225755
vn 0.35495 -0.32227 0.877584
v -0.472964 0.954878 0.107466
vn 0.225963 -0.377122 0.898176
v -0.273238 1.16236 -0.109286
vn 0.757027 0.542035 -0.364841
v -0.140302 1.16161 -0.0367628
vn 0.908227 0.408053 -0.0928249
v -0.151873 1.18678 0.13584
vn 0.833301 0.447083 0.325157
v -0.407716 1.07873 0.219622
vn 0.367818 0.313809 0.875348
v -0.41699 0.913297 -0.0746831
vn 0.587178 -0.613305 -0.52828
v -0.292049 1.22151 0.181912
vn 0.587229 0.625521 0.513698
v -0.410359 1.08843 -0.0927393
vn 0.573205 0.56548 -0.593017
v -0.475346 1.02569 -0.000991133
vn 0.692109 0.721256 -0.0278236
v -0.480687 1.07974 0.10367
vn 0.146082 0.603141 0.784143
v -0.234995 1.25626 0.0191822
vn 0.7179 0.694205 0.0519648
v -0.380391 1.23013 -0.0474622
vn 0.453644 0.872813 -0.180011
v -0.472475 1.13615 0.00891769
vn 0.197756 0.978155 0.0640701
v -0.437793 1.1984 0.127216
vn 0.255205 0.813932 0.521905
v -0.336547 1.28176 0.0829922
vn 0.486251 0.838215 0.246891
v -0.0177396 0.554085 0.105056
vn 0.725018 -0.670376 0.157938
v -0.130839 0.741166 0.0860408
vn 0.804278 -0.563913 0.187454
v -0.323277 1.12288 0.0682711
vn 0.782603 0.544176 0.302333
v -0.258332 0.957148 -0.0539186
vn 0.961707 -0.170528 -0.214567
v -0.344168 1.02218 -0.0203717
vn 0.981833 0.139749 -0.128354
v -0.209057 1.0611 0.166361
vn 0.854029 0.179345 0.488334
v -0.34783 0.981419 0.0927799
vn 0.84921 -0.103695 0.517773
v -0.202602 1.03604 0.0354151
vn 0.985873 0.119466 0.117401
v -0.0870894 0.939159 0.0704243
vn 0.975528 -0.14374 0.166382
v -0.283004 0.858242 0.0804295
vn 0.799577 -0.522346 0.296363
v -0.175161 0.964445 0.170133
vn 0.88172 -0.0965074 0.461797
v -0.270667 1.07589 -0.0541542
vn 0.926372 0.306567 -0.218751
v -0.166533 0.885489 -0.0474532
vn 0.937339 -0.321876 -0.133386
g leftSphere
usemtl leftSphere

s 1
f 75//75 76//76 66//66
f 77//77 82//82 73//73
f 46//46 43//43 55//55
f 72//72 77//77 73//73
f 43//43 59//59 55//55
f 77//77 86//86 82//82
f 53//53 44//44 49//49
f 8//8 12//12 3//3
f 3//3 12//12 7//7
f 2//2 8//8 3//3
f 74//74 84//84 83//83
f 74//74 68//68 71//71
f 79//79 87//87 86//86
f 2//2 4//4 5//5
f 38//38 47//47 49//49
f 76//76 83//83 79//79
f 50//50 58//58 60//60
f 46//46 34//34 43//43
f 30//30 22//22 18//18
f 75//75 66//66 63//63
f 20//20 25//25 16//16
f 6//6 15//15 20//20
f 52//52 50//50 60//60
f 2//2 3//3 1//1
f 36//36 45//45 51//51
f 66//66 55//55 59//59
f 16//16 26//26 21//21
f 16//16 25//25 27//27
f 50//50 52//52 40//40
f 13//13 10//10 9//9
f 24//24 25//25 20//20
f 44//44 39//39 49//49
f 14//14 19//19 17//17
f 24//24 23//23 33//33
f 31//31 19//19 38//38
f 22//22 15//15 18//18
f 43//43 34//34 40//40
f 31//31 39//39 32//32
f 16//16 8//8 6//6
f 21//21 26//26 29//29
f 57//57 56//56 64//64
f 47//47 62//62 53//53
f 3//3 7//7 1//1
f 29//29 48//48 42//42
f 30//30 45//45 36//36
f 76//76 69//69 65//65
f 28//28 34//34 46//46
f 17//17 11//11 14//14
f 46//46 56//56 48//48
f 84//84 80//80 85//85
f 43//43 52//52 59//59
f 77//77 69//69 79//79
f 56//56 55//55 65//65
f 67//67 51//51 78//78
f 75//75 83//83 76//76
f 17//17 32//32 13//13
f 48//48 28//28 46//46
f 6//6 8//8 2//2
f 79//79 69//69 76//76
f 44//44 45//45 35//35
f 5//5 6//6 2//2
f 16//16 12//12 8//8
f 58//58 41//41 51//51
f 21//21 12//12 16//16
f 48//48 56//56 57//57
f 58//58 51//51 67//67
f 23//23 15//15 22//22
f 27//27 34//34 28//28
f 73//73 81//81 78//78
f 14//14 12//12 21//21
f 10//10 15//15 5//5
f 80//80 84//84 74//74
f 29//29 19//19 21//21
f 70//70 77//77 72//72
f 24//24 34//34 25//25
f 28//28 26//26 27//27
f 49//49 39//39 31//31
f 40//40 33//33 50//50
f 83//83 84//84 87//87
f 5//5 15//15 6//6
f 17//17 19//19 31//31
f 38//38 29//29 42//42
f 49//49 47//47 53//53
f 68//68 67//67 71//71
f 9//9 11//11 13//13
f 42//42 47//47 38//38
f 65//65 66//66 76//76
f 1//1 4//4 2//2
f 85//85 81//81 82//82
f 68//68 60//60 67//67
f 16//16 6//6 20//20
f 79//79 86//86 77//77
f 13//13 11//11 17//17
f 86//86 85//85 82//82
f 39//39 44//44 35//35
f 64//64 56//56 65//65
f 78//78 61//61 73//73
f 79//79 83//83 87//87
f 54//54 61//61 78//78
f 87//87 84//84 86//86
f 73//73 61//61 72//72
f 84//84 85//85 86//86
f 48//48 57//57 42//42
f 59//59 63//63 66//66
f 25//25 34//34 27//27
f 14//14 11//11 7//7
f 28//28 48//48 29//29
f 29//29 26//26 28//28
f 51//51 54//54 78//78
f 70//70 62//62 64//64
f 20//20 23//23 24//24
f 54//54 45//45 44//44
f 32//32 30//30 18//18
f 74//74 75//75 68//68
f 71//71 80//80 74//74
f 65//65 55//55 66//66
f 74//74 83//83 75//75
f 56//56 46//46 55//55
f 53//53 72//72 61//61
f 71//71 78//78 80//80
f 62//62 47//47 57//57
f 71//71 67//67 78//78
f 58//58 67//67 60//60
f 80//80 81//81 85//85
f 13//13 18//18 10//10
f 59//59 52//52 63//63
f 21//21 19//19 14//14
f 44//44 53//53 61//61
f 9//9 4//4 1//1
f 77//77 70//70 69//69
f 37//37 23//23 22//22
f 1//1 7//7 9//9
f 5//5 4//4 10//10
f 62//62 57//57 64//64
f 80//80 78//78 81//81
f 33//33 23//23 37//37
f 40//40 34//34 24//24
f 32//32 18//18 13//13
f 50//50 41//41 58//58
f 75//75 63//63 68//68
f 37//37 41//41 33//33
f 10//10 4//4 9//9
f 7//7 11//11 9//9
f 63//63 52//52 60//60
f 57//57 47//47 42//42
f 49//49 31//31 38//38
f 35//35 32//32 39//39
f 31//31 32//32 17//17
f 73//73 82//82 81//81
f 30//30 32//32 35//35
f 20//20 15//15 23//23
f 27//27 26//26 16//16
f 35//35 45//45 30//30
f 36//36 37//37 22//22
f 7//7 12//12 14//14
f 36//36 41//41 37//37
f 18//18 15//15 10//10
f 70//70 64//64 69//69
f 33//33 41//41 50//50
f 54//54 44//44 61//61
f 24//24 33//33 40//40
f 51//51 45//45 54//54
f 40//40 52//52 43//43
f 38//38 19//19 29//29
f 51//51 41//41 36//36
f 72//72 62//62 70//70
f 22//22 30//30 36//36
f 53//53 62//62 72//72
f 69//69 64//64 65//65
f 63//63 60//60 68//68

## Object rightSphere

v -0.5875 0.25 0
vn 0 0 0
v -0.3375 0.25 0
vn 1 0 0
v -0.363893 0.361804 0
vn 0.894427 0.447214 0
v -0.356335 0.298578 0.0818727
vn 0.924658 0.194311 0.327491
v -0.365269 0.304668 -0.100621
vn 0.888925 0.218673 -0.402486
v -0.403472 0.399769 -0.078758
vn 0.736112 0.599077 -0.315032
v -0.432693 0.446087 0.00919147
vn 0.61923 0.784348 0.0367659
v -0.363941 0.188416 0.0934285
vn 0.894236 -0.246334 0.373714
v -0.410629 0.387968 0.110368
vn 0.707486 0.551874 0.441473
v -0.367473 0.191604 -0.103335
vn 0.880107 -0.233582 -0.413341
v -0.358458 0.149801 -8.75488e-05
vn 0.916168 -0.400795 -0.000350195
v -0.421135 0.251713 -0.186601
vn 0.665458 0.00685229 -0.746404
v -0.444167 0.364414 -0.169897
vn 0.573332 0.457656 -0.67959
v -0.485119 0.455304 -0.0993403
vn 0.409525 0.821214 -0.397361
v -0.409409 0.274129 0.173785
vn 0.712366 0.096514 0.69514
v -0.527304 0.492563 -0.00629535
vn 0.240784 0.970252 -0.0251814
v -0.442748 0.137095 -0.169703
vn 0.579009 -0.45162 -0.678813
v -0.436004 0.146356 0.169726
vn 0.605982 -0.414577 0.678905
v -0.511892 0.464419 0.103961
vn 0.302433 0.857675 0.415846
v -0.414726 0.0800885 0.061474
vn 0.691098 -0.679646 0.245896
v -0.500173 0.374247 0.198587
vn 0.349309 0.496986 0.794347
v -0.413442 0.0814998 -0.0617362
vn 0.696233 -0.674001 -0.246945
v -0.596483 0.483348 -0.0892645
vn -0.035932 0.933391 -0.357058
v -0.502895 0.196054 -0.22898
vn 0.338418 -0.215782 -0.915921
v -0.54919 0.415044 -0.183828
vn 0.153241 0.660177 -0.735312
v -0.518203 0.302872 -0.234313
vn 0.277186 0.211488 -0.937252
v -0.506754 0.236186 0.236198
vn 0.322982 -0.0552575 0.944791
v -0.533178 0.122009 0.207768
vn 0.21729 -0.511964 0.83107
v -0.500781 0.048265 -0.119511
vn 0.346876 -0.80694 -0.478043
v -0.627208 0.494429 0.0343175
vn -0.158833 0.977716 0.13727
v -0.514707 0.0432995 0.120316
vn 0.291174 -0.826802 0.481264
v -0.556411 0.102098 -0.199144
vn 0.124357 -0.591609 -0.796576
v -0.652097 0.431072 -0.159813
vn -0.258388 0.724289 -0.639251
v -0.502034 0.0151782 -0.0073646
vn 0.341866 -0.939287 -0.0294584
v -0.606661 0.322435 0.238508
vn -0.0766425 0.289742 0.954031
v -0.709291 0.458556 -0.0645855
vn -0.487165 0.834224 -0.258342
v -0.620815 0.440442 0.158499
vn -0.133259 0.761769 0.633996
v -0.609796 0.20734 -0.245322
vn -0.0891821 -0.170641 -0.981289
v -0.615078 0.185665 0.240001
vn -0.11031 -0.257341 0.960004
v -0.604107 0.0208233 -0.0985003
vn -0.0664263 -0.916707 -0.394001
v -0.738032 0.440036 0.0610438
vn -0.602127 0.760145 0.244175
v -0.625648 0.0683658 0.167492
vn -0.152591 -0.726537 0.66997
v -0.639455 0.335107 -0.229254
vn -0.207822 0.340429 -0.917016
v -0.70028 0.256923 0.223008
vn -0.451122 0.0276906 0.892033
v -0.798255 0.376885 -0.044525
vn -0.843022 0.507538 -0.1781
v -0.728947 0.364011 0.171739
vn -0.565787 0.456045 0.686955
v -0.682286 0.105617 -0.180746
vn -0.379144 -0.577531 -0.722985
v -0.618059 0.00569375 0.0433655
vn -0.122236 -0.977225 0.173462
v -0.740168 0.370642 -0.156965
vn -0.610673 0.482569 -0.627859
v -0.725921 0.239512 -0.207917
vn -0.553685 -0.0419533 -0.831669
v -0.716083 0.147342 0.188223
vn -0.514331 -0.410633 0.752891
v -0.811335 0.338188 0.0679763
vn -0.89534 0.352752 0.271905
v -0.726307 0.0495782 -0.0553525
vn -0.555226 -0.801687 -0.22141
v -0.728081 0.0603012 0.082167
vn -0.562323 -0.758795 0.328668
v -0.781603 0.249774 0.157556
vn -0.776413 -0.000904782 0.630224
v -0.790415 0.161365 -0.116058
vn -0.811658 -0.354539 -0.464234
v -0.800165 0.278246 -0.128358
vn -0.85066 0.112984 -0.513432
v -0.788956 0.146983 0.106315
vn -0.805824 -0.412069 0.42526
v -0.835034 0.250792 -0.035022
vn -0.990134 0.00316965 -0.140088
v -0.805951 0.128435 0.00096488
vn -0.873805 -0.486261 0.00385952
v -0.827736 0.222041 0.063286
vn -0.960943 -0.111836 0.253144
g rightSphere
usemtl rightSphere

s 1
f 160//160 161//161 159//159
f 159//159 161//161 152//152
f 156//156 160//160 159//159
f 134//134 120//120 131//131
f 153//153 156//156 147//147
f 155//155 158//158 151//151
f 139//139 128//128 127//127
f 116//116 123//123 130//130
f 112//112 117//117 124//124
f 150//150 149//149 143//143
f 126//126 112//112 124//124
f 139//139 127//127 135//135
f 152//152 155//155 146//146
f 120//120 111//111 108//108
f 110//110 105//105 102//102
f 132//132 117//117 129//129
f 138//138 126//126 124//124
f 106//106 105//105 113//113
f 127//127 128//128 118//118
f 137//137 130//130 141//141
f 121//121 115//115 109//109
f 141//141 152//152 146//146
f 131//131 120//120 118//118
f 128//128 139//139 142//142
f 149//149 145//145 136//136
f 122//122 117//117 110//110
f 123//123 116//116 114//114
f 153//153 147//147 140//140
f 129//129 134//134 140//140
f 132//132 129//129 140//140
f 108//108 115//115 118//118
f 148//148 153//153 140//140
f 115//115 127//127 118//118
f 103//103 106//106 107//107
f 160//160 156//156 153//153
f 126//126 125//125 113//113
f 121//121 109//109 119//119
f 136//136 145//145 141//141
f 111//111 122//122 110//110
f 117//117 112//112 110//110
f 134//134 122//122 120//120
f 131//131 128//128 142//142
f 148//148 131//131 142//142
f 128//128 131//131 118//118
f 156//156 159//159 157//157
f 150//150 138//138 147//147
f 133//133 149//149 136//136
f 158//158 154//154 151//151
f 106//106 114//114 107//107
f 148//148 134//134 131//131
f 123//123 114//114 125//125
f 154//154 142//142 151//151
f 160//160 154//154 158//158
f 121//121 127//127 115//115
f 108//108 111//111 102//102
f 109//109 103//103 107//107
f 127//127 121//121 135//135
f 142//142 139//139 151//151
f 104//104 115//115 108//108
f 161//161 160//160 158//158
f 154//154 148//148 142//142
f 138//138 143//143 126//126
f 145//145 149//149 157//157
f 105//105 112//112 113//113
f 156//156 150//150 147//147
f 112//112 105//105 110//110
f 135//135 137//137 146//146
f 123//123 136//136 130//130
f 145//145 159//159 152//152
f 144//144 139//139 135//135
f 149//149 150//150 157//157
f 114//114 116//116 107//107
f 144//144 155//155 151//151
f 123//123 133//133 136//136
f 116//116 119//119 107//107
f 161//161 155//155 152//152
f 149//149 133//133 143//143
f 109//109 104//104 103//103
f 138//138 150//150 143//143
f 133//133 123//123 125//125
f 148//148 154//154 153//153
f 134//134 148//148 140//140
f 132//132 138//138 124//124
f 104//104 108//108 102//102
f 122//122 134//134 129//129
f 137//137 119//119 130//130
f 111//111 110//110 102//102
f 125//125 114//114 113//113
f 144//144 135//135 146//146
f 139//139 144//144 151//151
f 138//138 132//132 147//147
f 103//103 104//104 102//102
f 130//130 136//136 141//141
f 141//141 145//145 152//152
f 137//137 121//121 119//119
f 154//154 160//160 153//153
f 122//122 111//111 120//120
f 112//112 126//126 113//113
f 150//150 156//156 157//157
f 117//117 122//122 129//129
f 115//115 104//104 109//109
f 119//119 109//109 107//107
f 105//105 106//106 103//103
f 119//119 116//116 130//130
f 147//147 132//132 140//140
f 121//121 137//137 135//135
f 105//105 103//103 102//102
f 143//143 133//133 125//125
f 159//159 145//145 157//157
f 114//114 106//106 113//113
f 120//120 108//108 118//118
f 137//137 141//141 146//146
f 155//155 144//144 146//146
f 126//126 143//143 125//125
f 155//155 161//161 158//158
f 117//117 132//132 124//124


## Object floor
v   1.0000 0.0000 -1.0400
v  -0.9900 0.0000 -1.0400
v  -1.0100 0.0000  0.9900
v   1.0000 0.0000  0.9900
# 4 vertices

vn 0.0000 1.0000 -0.0000
# 1 vertex normals

g floor
usemtl floor

s 1
f 162//162 163//162 164//162 
f 164//162 165//162 162//162 
# 2 faces

## Object ceiling 
v   1.0000 1.5900 -1.0400
v   1.0000 1.5900  0.9900
v  -1.0200 1.5900  0.9900
v  -1.0200 1.5900 -1.0400
# 4 vertices

vn 0.0000 -1.0000 -0.0000
# 1 vertex normals

g ceiling
usemtl ceiling

s 1
f 166//163 167//163 168//163 
f 168//163 169//163 166//163 
# 2 faces

## Object backwall 
v   1.0000 1.5900 -1.0400
v  -1.0200 1.5900 -1.0400
v  -0.9900 0.0000 -1.0400
v   1.0000 0.0000 -1.0400
# 4 vertices

vn 0.0000 0.0000 1.0000
# 1 vertex normals

g backWall
usemtl backWall

s 1
f 170//164 171//164 172//164 
f 172//164 173//164 170//164 
# 2 faces

## Object rightwall 
v  1.0000 1.5900 0.9900
v  1.0000 1.5900 -1.0400
v  1.0000 0.0000 -1.0400
v  1.0000 0.0000 0.9900
# 4 vertices

vn -1.0000 0.0000 -0.0000
# 1 vertex normals

g rightWall
usemtl rightWall

s 1
f 174//165 175//165 176//165 
f 176//165 177//165 174//165 
# 2 faces

## Object leftWall 
v  -1.0200 1.5900 -1.0400
v  -1.0200 1.5900 0.9900
v  -1.0100 0.0000 0.9900
v  -0.9900 0.0000 -1.0400
# 4 vertices

vn 0.9999 0.0135 0.0057
vn 1.0000 0.0063 -0.0000
vn 0.9999 0.0116 0.0042
vn 0.9998 0.0189 0.0098
# 4 vertex normals

g leftWall
usemtl leftWall

s 1
f 178//166 179//167 180//168 
f 180//168 181//169 178//166 
# 2 faces

## Object light
v  0.2300 1.5800 -0.2200
v  0.2300 1.5800 0.1600
v  -0.2400 1.5800 0.1600
v  -0.2400 1.5800 -0.2200
# 4 vertices

vn 0.0000 -1.0000 -0.0000
# 1 vertex normals

g light
usemtl light

s 1
f 182//170 183//170 184//170 
f 184//170 185//170 182//170 
# 2 faces
