mtllib CornellBox-Sphere.mtl

## Object leftSphere

v 0.0539754 0.523915 0.0138855
vn 0.758274 -0.651658 0.0190063
v 0.0482388 0.620946 0.00293986
vn 0.822532 -0.568702 0.00441073
v 0.0422546 0.565116 0.0811149
vn 0.774852 -0.621426 0.115909
v 0.0370889 0.556327 -0.060685
vn 0.76806 -0.634471 -0.086782
v 0.0106212 0.632415 -0.0798681
vn 0.805121 -0.579588 -0.125932
v -0.00353804 0.70337 -0.0070298
vn 0.85838 -0.512871 -0.0121545
v 0.00204569 0.472173 0.0769996
vn 0.685371 -0.720567 0.105117
v 0.0173992 0.650295 0.0840239
vn 0.821108 -0.554978 0.133345
v -0.00216478 0.465378 -0.0436753
vn 0.680265 -0.730532 -0.0596799
v -0.035351 0.542613 -0.128746
vn 0.699153 -0.688227 -0.193723
v -0.065531 0.418047 0.021907
vn 0.597968 -0.800953 0.030151
v -0.0234095 0.560033 0.152748
vn 0.71521 -0.660249 0.229227
v -0.101543 0.438059 -0.0868629
vn 0.573874 -0.809331 -0.125104
v -0.0914553 0.451149 0.128114
vn 0.586903 -0.788462 0.184045
v -0.0709254 0.675842 -0.135708
vn 0.773641 -0.584472 -0.244687
v -0.0612934 0.708894 0.133887
vn 0.807544 -0.535849 0.246452
v -0.166344 0.396582 0.031613
vn 0.483387 -0.874208 0.0457996
v -0.142052 0.535863 -0.175108
vn 0.585141 -0.758729 -0.28625
v -0.204183 0.445016 0.155896
vn 0.456554 -0.856544 0.240605
v -0.0831947 0.774538 -0.0230371
vn 0.878526 -0.475221 -0.0485567
v -0.121123 0.552458 0.2027
vn 0.610672 -0.721346 0.326711
v -0.189286 0.650477 -0.20024
vn 0.610765 -0.687051 -0.393608
v -0.156936 0.766329 -0.129644
vn 0.788908 -0.537349 -0.298129
v -0.185124 0.840068 -0.0215652
vn 0.889927 -0.452011 -0.0609492
v -0.132418 0.802011 0.0786201
vn 0.865205 -0.466021 0.185054
v -0.157519 0.660701 0.217792
vn 0.647401 -0.641386 0.411699
v -0.160771 0.761181 0.168088
vn 0.757849 -0.53353 0.375515
v -0.249363 0.725334 0.230471
vn 0.572929 -0.627855 0.526831
v -0.245147 0.564516 0.237148
vn 0.457115 -0.7811 0.425358
v -0.265931 0.5376 -0.199602
vn 0.421459 -0.832589 -0.3594
v -0.281815 0.395843 0.0470626
vn 0.33876 -0.938031 0.0730707
v -0.234336 0.424793 -0.100865
vn 0.414083 -0.896559 -0.157215
v -0.25678 0.830798 -0.121841
vn 0.759208 -0.528162 -0.380327
v -0.240661 0.842205 0.124779
vn 0.790147 -0.480766 0.380174
v -0.34302 0.461616 -0.143418
vn 0.271192 -0.93009 -0.247764
v -0.32054 0.651233 -0.226887
vn 0.396051 -0.769693 -0.500716
v -0.248026 0.74038 -0.191639
vn 0.615452 -0.634127 -0.468083
v -0.323669 0.450215 0.163965
vn 0.293787 -0.916002 0.273183
v -0.348206 0.410031 -0.0481733
vn 0.248401 -0.965444 -0.0788324
v -0.29 0.889725 -0.00695129
vn 0.884976 -0.464715 -0.0292939
v -0.34583 0.771909 -0.20199
vn 0.451503 -0.667991 -0.591551
v -0.362111 0.541501 0.23697
vn 0.258113 -0.858261 0.443582
v -0.354439 0.893542 0.111449
vn 0.686622 -0.50217 0.525714
v -0.458721 0.452833 -0.0865992
vn 0.0743078 -0.984975 -0.15589
v -0.400995 0.545812 -0.201395
vn 0.195428 -0.896533 -0.397537
v -0.343349 0.805573 0.216499
vn 0.47402 -0.588327 0.655116
v -0.441837 0.480379 0.174994
vn 0.105487 -0.942413 0.317379
v -0.344764 0.660324 0.263909
vn 0.33946 -0.742781 0.577099
v -0.408931 0.417667 0.059268
vn 0.153733 -0.983034 0.10005
v -0.364816 0.872944 -0.120695
vn 0.610791 -0.574068 -0.545326
v -0.464974 0.684118 -0.230588
vn 0.0892024 -0.804474 -0.587252
v -0.405646 0.926423 -0.00637121
vn 0.787461 -0.614066 -0.0531732
v -0.519975 0.479024 0.0740847
vn -0.0379331 -0.989327 0.140686
v -0.524071 0.549961 -0.179774
vn -0.0496093 -0.927505 -0.370504
v -0.455204 0.864501 0.19507
vn 0.185336 -0.560606 0.807076
v -0.463866 0.744072 0.262625
vn 0.0980627 -0.694552 0.712728
v -0.464234 0.59922 0.254365
vn 0.0751348 -0.84192 0.534346
v -0.442136 0.818697 -0.191487
vn 0.214332 -0.671557 -0.709276
v -0.457294 0.928396 0.0940301
vn 0.339828 -0.569786 0.748238
v -0.48307 0.901805 -0.118934
vn 0.109114 -0.632868 -0.766533
v -0.60231 0.494841 -0.0767072
vn -0.196337 -0.969424 -0.147205
v -0.565511 0.536 0.18654
vn -0.129889 -0.919967 0.369851
v -0.526659 0.950861 0.00391437
vn -0.475694 -0.876833 0.069848
v -0.579728 0.659042 0.25162
vn -0.184904 -0.790744 0.583554
v -0.578669 0.812075 0.235856
vn -0.252419 -0.602979 0.75677
v -0.561324 0.921728 0.139187
vn -0.358505 -0.45758 0.813692
v -0.550831 0.807118 -0.200959
vn -0.179522 -0.681211 -0.709735
v -0.599805 0.922668 -0.102142
vn -0.614554 -0.47618 -0.628949
v -0.698599 0.719144 0.224627
vn -0.483412 -0.683635 0.546768
v -0.669935 0.589686 0.186004
vn -0.352936 -0.852174 0.38631
v -0.666622 0.82585 -0.176299
vn -0.557977 -0.583189 -0.590384
v -0.660367 0.512304 0.0779244
vn -0.308835 -0.939202 0.150066
v -0.72563 0.551744 -0.0443613
vn -0.447861 -0.889757 -0.0880541
v -0.730095 0.919269 -0.0840025
vn -0.892152 -0.313019 -0.325704
v -0.646158 0.958884 0.0335295
vn -0.939987 -0.264431 0.215639
v -0.685927 0.877175 0.182604
vn -0.645365 -0.426335 0.633832
v -0.782068 0.613479 0.112358
vn -0.573877 -0.78639 0.228597
v -0.648325 0.654463 -0.190319
vn -0.351943 -0.819882 -0.451585
v -0.809311 0.789715 0.171883
vn -0.751435 -0.510862 0.41757
v -0.770091 0.781749 -0.151764
vn -0.712706 -0.575912 -0.400469
v -0.774749 0.653678 -0.119523
vn -0.599964 -0.756255 -0.261
v -0.825125 0.630056 -0.0170214
vn -0.659747 -0.750694 -0.03454
v -0.781237 0.931598 0.071981
vn -0.942951 -0.229342 0.241342
v -0.856062 0.867152 -0.0557491
vn -0.926991 -0.345863 -0.14514
v -0.854766 0.721967 -0.0776202
vn -0.775668 -0.607896 -0.169711
v -0.885688 0.718689 0.0561981
vn -0.802386 -0.585241 0.116915
v -0.87402 0.854875 0.0894421
vn -0.90994 -0.35307 0.217601
v -0.126176 0.598518 0.0209172
vn 0.680954 -0.731335 0.0381026
v -0.339137 0.647562 0.0117598
vn 0.415032 -0.909301 0.0303407
v -0.7497 0.769847 0.0311425
vn -0.732229 -0.674908 0.0913231
v -0.575806 0.770649 -0.0958982
vn -0.291682 -0.882478 -0.36899
v -0.68291 0.740446 -0.0823767
vn -0.557585 -0.791226 -0.251118
v -0.634514 0.751732 0.145106
vn -0.423708 -0.782022 0.457071
v -0.663165 0.652781 0.000629038
vn -0.425301 -0.905051 0.00163963
v -0.603538 0.806119 0.0273521
vn -0.467461 -0.875346 0.123491
v -0.457142 0.802261 0.0763225
vn 0.198188 -0.914414 0.352942
v -0.527741 0.627825 -0.0184788
vn -0.0742391 -0.996014 -0.0494528
v -0.540477 0.715593 0.134746
vn -0.127564 -0.896322 0.424658
v -0.670541 0.836989 -0.0643282
vn -0.697423 -0.66663 -0.263068
v -0.461646 0.780195 -0.0740108
vn 0.163153 -0.93502 -0.314831
g leftSphere
usemtl leftSphere

s 1
f 75//75 76//76 66//66
f 77//77 82//82 73//73
f 46//46 43//43 55//55
f 72//72 77//77 73//73
f 43//43 59//59 55//55
f 77//77 86//86 82//82
f 53//53 44//44 49//49
f 8//8 12//12 3//3
f 3//3 12//12 7//7
f 2//2 8//8 3//3
f 74//74 84//84 83//83
f 74//74 68//68 71//71
f 79//79 87//87 86//86
f 2//2 4//4 5//5
f 38//38 47//47 49//49
f 76//76 83//83 79//79
f 50//50 58//58 60//60
f 46//46 34//34 43//43
f 30//30 22//22 18//18
f 75//75 66//66 63//63
f 20//20 25//25 16//16
f 6//6 15//15 20//20
f 52//52 50//50 60//60
f 2//2 3//3 1//1
f 36//36 45//45 51//51
f 66//66 55//55 59//59
f 16//16 26//26 21//21
f 16//16 25//25 27//27
f 50//50 52//52 40//40
f 13//13 10//10 9//9
f 24//24 25//25 20//20
f 44//44 39//39 49//49
f 14//14 19//19 17//17
f 24//24 23//23 33//33
f 31//31 19//19 38//38
f 22//22 15//15 18//18
f 43//43 34//34 40//40
f 31//31 39//39 32//32
f 16//16 8//8 6//6
f 21//21 26//26 29//29
f 57//57 56//56 64//64
f 47//47 62//62 53//53
f 3//3 7//7 1//1
f 29//29 48//48 42//42
f 30//30 45//45 36//36
f 76//76 69//69 65//65
f 28//28 34//34 46//46
f 17//17 11//11 14//14
f 46//46 56//56 48//48
f 84//84 80//80 85//85
f 43//43 52//52 59//59
f 77//77 69//69 79//79
f 56//56 55//55 65//65
f 67//67 51//51 78//78
f 75//75 83//83 76//76
f 17//17 32//32 13//13
f 48//48 28//28 46//46
f 6//6 8//8 2//2
f 79//79 69//69 76//76
f 44//44 45//45 35//35
f 5//5 6//6 2//2
f 16//16 12//12 8//8
f 58//58 41//41 51//51
f 21//21 12//12 16//16
f 48//48 56//56 57//57
f 58//58 51//51 67//67
f 23//23 15//15 22//22
f 27//27 34//34 28//28
f 73//73 81//81 78//78
f 14//14 12//12 21//21
f 10//10 15//15 5//5
f 80//80 84//84 74//74
f 29//29 19//19 21//21
f 70//70 77//77 72//72
f 24//24 34//34 25//25
f 28//28 26//26 27//27
f 49//49 39//39 31//31
f 40//40 33//33 50//50
f 83//83 84//84 87//87
f 5//5 15//15 6//6
f 17//17 19//19 31//31
f 38//38 29//29 42//42
f 49//49 47//47 53//53
f 68//68 67//67 71//71
f 9//9 11//11 13//13
f 42//42 47//47 38//38
f 65//65 66//66 76//76
f 1//1 4//4 2//2
f 85//85 81//81 82//82
f 68//68 60//60 67//67
f 16//16 6//6 20//20
f 79//79 86//86 77//77
f 13//13 11//11 17//17
f 86//86 85//85 82//82
f 39//39 44//44 35//35
f 64//64 56//56 65//65
f 78//78 61//61 73//73
f 79//79 83//83 87//87
f 54//54 61//61 78//78
f 87//87 84//84 86//86
f 73//73 61//61 72//72
f 84//84 85//85 86//86
f 48//48 57//57 42//42
f 59//59 63//63 66//66
f 25//25 34//34 27//27
f 14//14 11//11 7//7
f 28//28 48//48 29//29
f 29//29 26//26 28//28
f 51//51 54//54 78//78
f 70//70 62//62 64//64
f 20//20 23//23 24//24
f 54//54 45//45 44//44
f 32//32 30//30 18//18
f 74//74 75//75 68//68
f 71//71 80//80 74//74
f 65//65 55//55 66//66
f 74//74 83//83 75//75
f 56//56 46//46 55//55
f 53//53 72//72 61//61
f 71//71 78//78 80//80
f 62//62 47//47 57//57
f 71//71 67//67 78//78
f 58//58 67//67 60//60
f 80//80 81//81 85//85
f 13//13 18//18 10//10
f 59//59 52//52 63//63
f 21//21 19//19 14//14
f 44//44 53//53 61//61
f 9//9 4//4 1//1
f 77//77 70//70 69//69
f 37//37 23//23 22//22
f 1//1 7//7 9//9
f 5//5 4//4 10//10
f 62//62 57//57 64//64
f 80//80 78//78 81//81
f 33//33 23//23 37//37
f 40//40 34//34 24//24
f 32//32 18//18 13//13
f 50//50 41//41 58//58
f 75//75 63//63 68//68
f 37//37 41//41 33//33
f 10//10 4//4 9//9
f 7//7 11//11 9//9
f 63//63 52//52 60//60
f 57//57 47//47 42//42
f 49//49 31//31 38//38
f 35//35 32//32 39//39
f 31//31 32//32 17//17
f 73//73 82//82 81//81
f 30//30 32//32 35//35
f 20//20 15//15 23//23
f 27//27 26//26 16//16
f 35//35 45//45 30//30
f 36//36 37//37 22//22
f 7//7 12//12 14//14
f 36//36 41//41 37//37
f 18//18 15//15 10//10
f 70//70 64//64 69//69
f 33//33 41//41 50//50
f 54//54 44//44 61//61
f 24//24 33//33 40//40
f 51//51 45//45 54//54
f 40//40 52//52 43//43
f 38//38 19//19 29//29
f 51//51 41//41 36//36
f 72//72 62//62 70//70
f 22//22 30//30 36//36
f 53//53 62//62 72//72
f 69//69 64//64 65//65
f 63//63 60//60 68//68

## Object rightSphere

v -0.5875 0.25 0
vn 0 0 0
v -0.3375 0.25 0
vn 1 0 0
v -0.363893 0.361804 0
vn 0.894427 0.447214 0
v -0.356335 0.298578 0.0818727
vn 0.924658 0.194311 0.327491
v -0.365269 0.304668 -0.100621
vn 0.888925 0.218673 -0.402486
v -0.403472 0.399769 -0.078758
vn 0.736112 0.599077 -0.315032
v -0.432693 0.446087 0.00919147
vn 0.61923 0.784348 0.0367659
v -0.363941 0.188416 0.0934285
vn 0.894236 -0.246334 0.373714
v -0.410629 0.387968 0.110368
vn 0.707486 0.551874 0.441473
v -0.367473 0.191604 -0.103335
vn 0.880107 -0.233582 -0.413341
v -0.358458 0.149801 -8.75488e-05
vn 0.916168 -0.400795 -0.000350195
v -0.421135 0.251713 -0.186601
vn 0.665458 0.00685229 -0.746404
v -0.444167 0.364414 -0.169897
vn 0.573332 0.457656 -0.67959
v -0.485119 0.455304 -0.0993403
vn 0.409525 0.821214 -0.397361
v -0.409409 0.274129 0.173785
vn 0.712366 0.096514 0.69514
v -0.527304 0.492563 -0.00629535
vn 0.240784 0.970252 -0.0251814
v -0.442748 0.137095 -0.169703
vn 0.579009 -0.45162 -0.678813
v -0.436004 0.146356 0.169726
vn 0.605982 -0.414577 0.678905
v -0.511892 0.464419 0.103961
vn 0.302433 0.857675 0.415846
v -0.414726 0.0800885 0.061474
vn 0.691098 -0.679646 0.245896
v -0.500173 0.374247 0.198587
vn 0.349309 0.496986 0.794347
v -0.413442 0.0814998 -0.0617362
vn 0.696233 -0.674001 -0.246945
v -0.596483 0.483348 -0.0892645
vn -0.035932 0.933391 -0.357058
v -0.502895 0.196054 -0.22898
vn 0.338418 -0.215782 -0.915921
v -0.54919 0.415044 -0.183828
vn 0.153241 0.660177 -0.735312
v -0.518203 0.302872 -0.234313
vn 0.277186 0.211488 -0.937252
v -0.506754 0.236186 0.236198
vn 0.322982 -0.0552575 0.944791
v -0.533178 0.122009 0.207768
vn 0.21729 -0.511964 0.83107
v -0.500781 0.048265 -0.119511
vn 0.346876 -0.80694 -0.478043
v -0.627208 0.494429 0.0343175
vn -0.158833 0.977716 0.13727
v -0.514707 0.0432995 0.120316
vn 0.291174 -0.826802 0.481264
v -0.556411 0.102098 -0.199144
vn 0.124357 -0.591609 -0.796576
v -0.652097 0.431072 -0.159813
vn -0.258388 0.724289 -0.639251
v -0.502034 0.0151782 -0.0073646
vn 0.341866 -0.939287 -0.0294584
v -0.606661 0.322435 0.238508
vn -0.0766425 0.289742 0.954031
v -0.709291 0.458556 -0.0645855
vn -0.487165 0.834224 -0.258342
v -0.620815 0.440442 0.158499
vn -0.133259 0.761769 0.633996
v -0.609796 0.20734 -0.245322
vn -0.0891821 -0.170641 -0.981289
v -0.615078 0.185665 0.240001
vn -0.11031 -0.257341 0.960004
v -0.604107 0.0208233 -0.0985003
vn -0.0664263 -0.916707 -0.394001
v -0.738032 0.440036 0.0610438
vn -0.602127 0.760145 0.244175
v -0.625648 0.0683658 0.167492
vn -0.152591 -0.726537 0.66997
v -0.639455 0.335107 -0.229254
vn -0.207822 0.340429 -0.917016
v -0.70028 0.256923 0.223008
vn -0.451122 0.0276906 0.892033
v -0.798255 0.376885 -0.044525
vn -0.843022 0.507538 -0.1781
v -0.728947 0.364011 0.171739
vn -0.565787 0.456045 0.686955
v -0.682286 0.105617 -0.180746
vn -0.379144 -0.577531 -0.722985
v -0.618059 0.00569375 0.0433655
vn -0.122236 -0.977225 0.173462
v -0.740168 0.370642 -0.156965
vn -0.610673 0.482569 -0.627859
v -0.725921 0.239512 -0.207917
vn -0.553685 -0.0419533 -0.831669
v -0.716083 0.147342 0.188223
vn -0.514331 -0.410633 0.752891
v -0.811335 0.338188 0.0679763
vn -0.89534 0.352752 0.271905
v -0.726307 0.0495782 -0.0553525
vn -0.555226 -0.801687 -0.22141
v -0.728081 0.0603012 0.082167
vn -0.562323 -0.758795 0.328668
v -0.781603 0.249774 0.157556
vn -0.776413 -0.000904782 0.630224
v -0.790415 0.161365 -0.116058
vn -0.811658 -0.354539 -0.464234
v -0.800165 0.278246 -0.128358
vn -0.85066 0.112984 -0.513432
v -0.788956 0.146983 0.106315
vn -0.805824 -0.412069 0.42526
v -0.835034 0.250792 -0.035022
vn -0.990134 0.00316965 -0.140088
v -0.805951 0.128435 0.00096488
vn -0.873805 -0.486261 0.00385952
v -0.827736 0.222041 0.063286
vn -0.960943 -0.111836 0.253144
g rightSphere
usemtl rightSphere

s 1
f 160//160 161//161 159//159
f 159//159 161//161 152//152
f 156//156 160//160 159//159
f 134//134 120//120 131//131
f 153//153 156//156 147//147
f 155//155 158//158 151//151
f 139//139 128//128 127//127
f 116//116 123//123 130//130
f 112//112 117//117 124//124
f 150//150 149//149 143//143
f 126//126 112//112 124//124
f 139//139 127//127 135//135
f 152//152 155//155 146//146
f 120//120 111//111 108//108
f 110//110 105//105 102//102
f 132//132 117//117 129//129
f 138//138 126//126 124//124
f 106//106 105//105 113//113
f 127//127 128//128 118//118
f 137//137 130//130 141//141
f 121//121 115//115 109//109
f 141//141 152//152 146//146
f 131//131 120//120 118//118
f 128//128 139//139 142//142
f 149//149 145//145 136//136
f 122//122 117//117 110//110
f 123//123 116//116 114//114
f 153//153 147//147 140//140
f 129//129 134//134 140//140
f 132//132 129//129 140//140
f 108//108 115//115 118//118
f 148//148 153//153 140//140
f 115//115 127//127 118//118
f 103//103 106//106 107//107
f 160//160 156//156 153//153
f 126//126 125//125 113//113
f 121//121 109//109 119//119
f 136//136 145//145 141//141
f 111//111 122//122 110//110
f 117//117 112//112 110//110
f 134//134 122//122 120//120
f 131//131 128//128 142//142
f 148//148 131//131 142//142
f 128//128 131//131 118//118
f 156//156 159//159 157//157
f 150//150 138//138 147//147
f 133//133 149//149 136//136
f 158//158 154//154 151//151
f 106//106 114//114 107//107
f 148//148 134//134 131//131
f 123//123 114//114 125//125
f 154//154 142//142 151//151
f 160//160 154//154 158//158
f 121//121 127//127 115//115
f 108//108 111//111 102//102
f 109//109 103//103 107//107
f 127//127 121//121 135//135
f 142//142 139//139 151//151
f 104//104 115//115 108//108
f 161//161 160//160 158//158
f 154//154 148//148 142//142
f 138//138 143//143 126//126
f 145//145 149//149 157//157
f 105//105 112//112 113//113
f 156//156 150//150 147//147
f 112//112 105//105 110//110
f 135//135 137//137 146//146
f 123//123 136//136 130//130
f 145//145 159//159 152//152
f 144//144 139//139 135//135
f 149//149 150//150 157//157
f 114//114 116//116 107//107
f 144//144 155//155 151//151
f 123//123 133//133 136//136
f 116//116 119//119 107//107
f 161//161 155//155 152//152
f 149//149 133//133 143//143
f 109//109 104//104 103//103
f 138//138 150//150 143//143
f 133//133 123//123 125//125
f 148//148 154//154 153//153
f 134//134 148//148 140//140
f 132//132 138//138 124//124
f 104//104 108//108 102//102
f 122//122 134//134 129//129
f 137//137 119//119 130//130
f 111//111 110//110 102//102
f 125//125 114//114 113//113
f 144//144 135//135 146//146
f 139//139 144//144 151//151
f 138//138 132//132 147//147
f 103//103 104//104 102//102
f 130//130 136//136 141//141
f 141//141 145//145 152//152
f 137//137 121//121 119//119
f 154//154 160//160 153//153
f 122//122 111//111 120//120
f 112//112 126//126 113//113
f 150//150 156//156 157//157
f 117//117 122//122 129//129
f 115//115 104//104 109//109
f 119//119 109//109 107//107
f 105//105 106//106 103//103
f 119//119 116//116 130//130
f 147//147 132//132 140//140
f 121//121 137//137 135//135
f 105//105 103//103 102//102
f 143//143 133//133 125//125
f 159//159 145//145 157//157
f 114//114 106//106 113//113
f 120//120 108//108 118//118
f 137//137 141//141 146//146
f 155//155 144//144 146//146
f 126//126 143//143 125//125
f 155//155 161//161 158//158
f 117//117 132//132 124//124


## Object floor
v   1.0000 0.0000 -1.0400
v  -0.9900 0.0000 -1.0400
v  -1.0100 0.0000  0.9900
v   1.0000 0.0000  0.9900
# 4 vertices

vn 0.0000 1.0000 -0.0000
# 1 vertex normals

g floor
usemtl floor

s 1
f 162//162 163//162 164//162 
f 164//162 165//162 162//162 
# 2 faces

## Object ceiling 
v   1.0000 1.5900 -1.0400
v   1.0000 1.5900  0.9900
v  -1.0200 1.5900  0.9900
v  -1.0200 1.5900 -1.0400
# 4 vertices

vn 0.0000 -1.0000 -0.0000
# 1 vertex normals

g ceiling
usemtl ceiling

s 1
f 166//163 167//163 168//163 
f 168//163 169//163 166//163 
# 2 faces

## Object backwall 
v   1.0000 1.5900 -1.0400
v  -1.0200 1.5900 -1.0400
v  -0.9900 0.0000 -1.0400
v   1.0000 0.0000 -1.0400
# 4 vertices

vn 0.0000 0.0000 1.0000
# 1 vertex normals

g backWall
usemtl backWall

s 1
f 170//164 171//164 172//164 
f 172//164 173//164 170//164 
# 2 faces

## Object rightwall 
v  1.0000 1.5900 0.9900
v  1.0000 1.5900 -1.0400
v  1.0000 0.0000 -1.0400
v  1.0000 0.0000 0.9900
# 4 vertices

vn -1.0000 0.0000 -0.0000
# 1 vertex normals

g rightWall
usemtl rightWall

s 1
f 174//165 175//165 176//165 
f 176//165 177//165 174//165 
# 2 faces

## Object leftWall 
v  -1.0200 1.5900 -1.0400
v  -1.0200 1.5900 0.9900
v  -1.0100 0.0000 0.9900
v  -0.9900 0.0000 -1.0400
# 4 vertices

vn 0.9999 0.0135 0.0057
vn 1.0000 0.0063 -0.0000
vn 0.9999 0.0116 0.0042
vn 0.9998 0.0189 0.0098
# 4 vertex normals

g leftWall
usemtl leftWall

s 1
f 178//166 179//167 180//168 
f 180//168 181//169 178//166 
# 2 faces

## Object light
v  0.2300 1.5800 -0.2200
v  0.2300 1.5800 0.1600
v  -0.2400 1.5800 0.1600
v  -0.2400 1.5800 -0.2200
# 4 vertices

vn 0.0000 -1.0000 -0.0000
# 1 vertex normals

g light
usemtl light

s 1
f 182//170 183//170 184//170 
f 184//170 185//170 182//170 
# 2 faces
