mtllib CornellBox-Sphere.mtl

## Object leftSphere

v 0.0765855 0.458626 0.0631186
vn 0.726706 -0.682327 0.0795522
v 0.112549 0.536884 0.0173171
vn 0.797476 -0.602929 0.0225451
v 0.105355 0.516839 0.110684
vn 0.773715 -0.617536 0.141468
v 0.0553738 0.473514 -0.0152975
vn 0.725584 -0.687843 -0.0199859
v 0.0628656 0.543702 -0.0580801
vn 0.774326 -0.627722 -0.0798999
v 0.104233 0.628681 -0.0162649
vn 0.851759 -0.523431 -0.0229279
v 0.0291736 0.461972 0.147218
vn 0.688242 -0.699758 0.191471
v 0.123696 0.600059 0.0843112
vn 0.836398 -0.536335 0.113064
v -0.0130957 0.425655 0.03927
vn 0.645776 -0.761748 0.0520834
v -0.0299758 0.482669 -0.0639446
vn 0.66966 -0.737059 -0.0911041
v -0.0672183 0.438245 0.125
vn 0.601032 -0.780145 0.173595
v 0.0690737 0.568507 0.186692
vn 0.770932 -0.58455 0.252914
v -0.119504 0.443585 0.0210799
vn 0.564196 -0.825049 0.0312571
v -0.0436098 0.508617 0.213429
vn 0.648488 -0.698209 0.303262
v -0.000151038 0.606831 -0.115805
vn 0.773273 -0.608238 -0.179153
v 0.0969737 0.704381 0.118317
vn 0.882334 -0.436928 0.174874
v -0.158492 0.474409 0.152363
vn 0.529429 -0.814808 0.236204
v -0.133736 0.51962 -0.0924991
vn 0.59933 -0.786062 -0.151359
v -0.136374 0.567407 0.252446
vn 0.587496 -0.698923 0.407867
v 0.0647852 0.72449 -0.0478783
vn 0.896168 -0.437164 -0.0759704
v -0.00472325 0.628103 0.247428
vn 0.742596 -0.557605 0.370983
v -0.127211 0.629845 -0.152922
vn 0.68133 -0.676517 -0.279489
v -0.0297375 0.726642 -0.134227
vn 0.839369 -0.487915 -0.239581
v 0.00719601 0.830871 -0.0590362
vn 0.942917 -0.314424 -0.109753
v 0.06194 0.801163 0.0412606
vn 0.940474 -0.332777 0.0690545
v 0.0143741 0.738944 0.225335
vn 0.830601 -0.421548 0.363866
v 0.0428225 0.807951 0.142471
vn 0.915139 -0.323773 0.240191
v -0.0346436 0.841567 0.224007
vn 0.861422 -0.293276 0.414659
v -0.10004 0.709332 0.28875
vn 0.698539 -0.507657 0.504309
v -0.242474 0.577325 -0.103985
vn 0.509193 -0.835732 -0.205605
v -0.253813 0.534799 0.176583
vn 0.443453 -0.83796 0.318077
v -0.240156 0.495947 0.0250474
vn 0.457762 -0.887979 0.0441255
v -0.0819057 0.834146 -0.138514
vn 0.888364 -0.352405 -0.294313
v -0.00181693 0.90161 0.0818237
vn 0.968557 -0.191288 0.15908
v -0.327476 0.570189 -0.0219754
vn 0.372088 -0.926987 -0.047395
v -0.24014 0.692158 -0.167361
vn 0.595684 -0.705674 -0.383647
v -0.132071 0.736693 -0.171896
vn 0.760192 -0.544029 -0.355162
v -0.239409 0.631119 0.26794
vn 0.49623 -0.702443 0.510225
v -0.330976 0.554359 0.0847583
vn 0.349154 -0.920563 0.175086
v -0.0557555 0.930392 -0.0493391
vn 0.982052 -0.153877 -0.10907
v -0.200111 0.81174 -0.183598
vn 0.751879 -0.472005 -0.460315
v -0.220119 0.743149 0.305642
vn 0.574034 -0.526801 0.62687
v -0.0805596 0.998115 0.0668442
vn 0.987529 -0.00443767 0.157378
v -0.420034 0.635024 0.0351258
vn 0.213082 -0.972541 0.0935987
v -0.349477 0.655073 -0.104126
vn 0.385482 -0.883343 -0.266663
v -0.0873667 0.948009 0.194185
vn 0.898992 -0.113271 0.423064
v -0.337751 0.711922 0.270355
vn 0.379895 -0.674514 0.633017
v -0.143712 0.841168 0.289129
vn 0.733774 -0.327114 0.59546
v -0.354846 0.615362 0.184084
vn 0.322245 -0.853902 0.408669
v -0.15241 0.926115 -0.140755
vn 0.909406 -0.193305 -0.368259
v -0.344668 0.794226 -0.173568
vn 0.49978 -0.662078 -0.558456
v -0.13715 1.02111 -0.0482947
vn 0.989614 0.0575832 -0.131716
v -0.449659 0.711908 0.181627
vn 0.146227 -0.836827 0.527577
v -0.447534 0.727579 -0.0807701
vn 0.181576 -0.94281 -0.279534
v -0.165307 1.0456 0.167568
vn 0.887627 0.120942 0.444401
v -0.213403 0.96571 0.269991
vn 0.725136 -0.0867589 0.683118
v -0.284936 0.841387 0.309195
vn 0.526252 -0.388118 0.756587
v -0.256507 0.903735 -0.182446
vn 0.762995 -0.301651 -0.571704
v -0.159761 1.07406 0.0517376
vn 0.966507 0.210393 0.146969
v -0.23823 1.01255 -0.13824
vn 0.883475 0.0423588 -0.46656
v -0.522006 0.753925 0.0335028
vn -0.0882633 -0.986992 0.134377
v -0.421388 0.818896 0.269431
vn 0.23535 -0.54219 0.806623
v -0.228382 1.10593 -0.0350204
vn 0.925003 0.360756 -0.119263
v -0.357646 0.948466 0.29465
vn 0.429723 -0.155565 0.889459
v -0.289549 1.07279 0.232347
vn 0.653922 0.226191 0.721958
v -0.244704 1.13291 0.105473
vn 0.832837 0.433583 0.344077
v -0.354635 0.947626 -0.181075
vn 0.610679 -0.220024 -0.760697
v -0.325471 1.0936 -0.121667
vn 0.75089 0.402687 -0.523457
v -0.439145 1.05566 0.256814
vn 0.225614 0.206343 0.952114
v -0.481932 0.925034 0.258553
vn 0.0669677 -0.277849 0.958288
v -0.440136 1.02771 -0.15901
vn 0.347745 0.160949 -0.923672
v -0.533817 0.830168 0.178731
vn -0.135888 -0.68244 0.718199
v -0.593566 0.867582 0.0527369
vn -0.548773 -0.776645 0.309307
v -0.435919 1.15991 -0.0974153
vn 0.323788 0.808011 -0.492219
v -0.323109 1.18049 -0.000793899
vn 0.699954 0.714181 -0.00314144
v -0.366911 1.16966 0.167428
vn 0.4875 0.621475 0.61328
v -0.582748 0.984508 0.186577
vn -0.40426 -0.0756862 0.911507
v -0.504061 0.874336 -0.120745
vn -0.0232936 -0.720883 -0.692666
v -0.516549 1.15651 0.188131
vn -0.0674709 0.638092 0.766999
v -0.54537 1.04841 -0.11905
vn -0.332899 0.355169 -0.873518
v -0.601377 0.953315 -0.0490743
vn -0.831487 -0.38291 -0.402505
v -0.637684 0.984844 0.0584871
vn -0.915712 -0.100797 0.388988
v -0.44788 1.23532 0.0481031
vn 0.212061 0.957458 0.195716
v -0.565759 1.18396 -0.0509317
vn -0.32572 0.911187 -0.252278
v -0.633301 1.05786 -0.0271324
vn -0.901724 0.391418 -0.183539
v -0.638387 1.10469 0.102344
vn -0.686931 0.519657 0.508019
v -0.561314 1.22021 0.0914332
vn -0.249049 0.894451 0.371392
v -0.0379826 0.617833 0.0644934
vn 0.766132 -0.633722 0.106945
v -0.202906 0.762064 0.0618161
vn 0.77044 -0.617029 0.160305
v -0.499224 1.07569 0.0587707
vn 0.00809287 0.789837 0.613263
v -0.371275 0.956817 -0.0684192
vn 0.846654 -0.284026 -0.450007
v -0.475102 0.989841 -0.0429851
vn 0.491049 -0.200365 -0.847776
v -0.383872 1.03025 0.168586
vn 0.561181 0.146167 0.814685
v -0.482199 0.929874 0.0628068
vn 0.185796 -0.731942 0.655547
v -0.354669 1.03102 0.0386714
vn 0.946454 0.201992 0.251844
v -0.219819 0.965026 0.0772265
vn 0.957144 -0.119476 0.263818
v -0.381492 0.833099 0.0484865
vn 0.563361 -0.793408 0.230494
v -0.320868 0.948114 0.165484
vn 0.718455 -0.2081 0.663715
v -0.417361 1.06745 -0.0554123
vn 0.687492 0.561108 -0.46099
v -0.26535 0.912023 -0.0568956
vn 0.913113 -0.342352 -0.221403
g leftSphere
usemtl leftSphere

s 1
f 75//75 76//76 66//66
f 77//77 82//82 73//73
f 46//46 43//43 55//55
f 72//72 77//77 73//73
f 43//43 59//59 55//55
f 77//77 86//86 82//82
f 53//53 44//44 49//49
f 8//8 12//12 3//3
f 3//3 12//12 7//7
f 2//2 8//8 3//3
f 74//74 84//84 83//83
f 74//74 68//68 71//71
f 79//79 87//87 86//86
f 2//2 4//4 5//5
f 38//38 47//47 49//49
f 76//76 83//83 79//79
f 50//50 58//58 60//60
f 46//46 34//34 43//43
f 30//30 22//22 18//18
f 75//75 66//66 63//63
f 20//20 25//25 16//16
f 6//6 15//15 20//20
f 52//52 50//50 60//60
f 2//2 3//3 1//1
f 36//36 45//45 51//51
f 66//66 55//55 59//59
f 16//16 26//26 21//21
f 16//16 25//25 27//27
f 50//50 52//52 40//40
f 13//13 10//10 9//9
f 24//24 25//25 20//20
f 44//44 39//39 49//49
f 14//14 19//19 17//17
f 24//24 23//23 33//33
f 31//31 19//19 38//38
f 22//22 15//15 18//18
f 43//43 34//34 40//40
f 31//31 39//39 32//32
f 16//16 8//8 6//6
f 21//21 26//26 29//29
f 57//57 56//56 64//64
f 47//47 62//62 53//53
f 3//3 7//7 1//1
f 29//29 48//48 42//42
f 30//30 45//45 36//36
f 76//76 69//69 65//65
f 28//28 34//34 46//46
f 17//17 11//11 14//14
f 46//46 56//56 48//48
f 84//84 80//80 85//85
f 43//43 52//52 59//59
f 77//77 69//69 79//79
f 56//56 55//55 65//65
f 67//67 51//51 78//78
f 75//75 83//83 76//76
f 17//17 32//32 13//13
f 48//48 28//28 46//46
f 6//6 8//8 2//2
f 79//79 69//69 76//76
f 44//44 45//45 35//35
f 5//5 6//6 2//2
f 16//16 12//12 8//8
f 58//58 41//41 51//51
f 21//21 12//12 16//16
f 48//48 56//56 57//57
f 58//58 51//51 67//67
f 23//23 15//15 22//22
f 27//27 34//34 28//28
f 73//73 81//81 78//78
f 14//14 12//12 21//21
f 10//10 15//15 5//5
f 80//80 84//84 74//74
f 29//29 19//19 21//21
f 70//70 77//77 72//72
f 24//24 34//34 25//25
f 28//28 26//26 27//27
f 49//49 39//39 31//31
f 40//40 33//33 50//50
f 83//83 84//84 87//87
f 5//5 15//15 6//6
f 17//17 19//19 31//31
f 38//38 29//29 42//42
f 49//49 47//47 53//53
f 68//68 67//67 71//71
f 9//9 11//11 13//13
f 42//42 47//47 38//38
f 65//65 66//66 76//76
f 1//1 4//4 2//2
f 85//85 81//81 82//82
f 68//68 60//60 67//67
f 16//16 6//6 20//20
f 79//79 86//86 77//77
f 13//13 11//11 17//17
f 86//86 85//85 82//82
f 39//39 44//44 35//35
f 64//64 56//56 65//65
f 78//78 61//61 73//73
f 79//79 83//83 87//87
f 54//54 61//61 78//78
f 87//87 84//84 86//86
f 73//73 61//61 72//72
f 84//84 85//85 86//86
f 48//48 57//57 42//42
f 59//59 63//63 66//66
f 25//25 34//34 27//27
f 14//14 11//11 7//7
f 28//28 48//48 29//29
f 29//29 26//26 28//28
f 51//51 54//54 78//78
f 70//70 62//62 64//64
f 20//20 23//23 24//24
f 54//54 45//45 44//44
f 32//32 30//30 18//18
f 74//74 75//75 68//68
f 71//71 80//80 74//74
f 65//65 55//55 66//66
f 74//74 83//83 75//75
f 56//56 46//46 55//55
f 53//53 72//72 61//61
f 71//71 78//78 80//80
f 62//62 47//47 57//57
f 71//71 67//67 78//78
f 58//58 67//67 60//60
f 80//80 81//81 85//85
f 13//13 18//18 10//10
f 59//59 52//52 63//63
f 21//21 19//19 14//14
f 44//44 53//53 61//61
f 9//9 4//4 1//1
f 77//77 70//70 69//69
f 37//37 23//23 22//22
f 1//1 7//7 9//9
f 5//5 4//4 10//10
f 62//62 57//57 64//64
f 80//80 78//78 81//81
f 33//33 23//23 37//37
f 40//40 34//34 24//24
f 32//32 18//18 13//13
f 50//50 41//41 58//58
f 75//75 63//63 68//68
f 37//37 41//41 33//33
f 10//10 4//4 9//9
f 7//7 11//11 9//9
f 63//63 52//52 60//60
f 57//57 47//47 42//42
f 49//49 31//31 38//38
f 35//35 32//32 39//39
f 31//31 32//32 17//17
f 73//73 82//82 81//81
f 30//30 32//32 35//35
f 20//20 15//15 23//23
f 27//27 26//26 16//16
f 35//35 45//45 30//30
f 36//36 37//37 22//22
f 7//7 12//12 14//14
f 36//36 41//41 37//37
f 18//18 15//15 10//10
f 70//70 64//64 69//69
f 33//33 41//41 50//50
f 54//54 44//44 61//61
f 24//24 33//33 40//40
f 51//51 45//45 54//54
f 40//40 52//52 43//43
f 38//38 19//19 29//29
f 51//51 41//41 36//36
f 72//72 62//62 70//70
f 22//22 30//30 36//36
f 53//53 62//62 72//72
f 69//69 64//64 65//65
f 63//63 60//60 68//68

## Object rightSphere

v -0.5875 0.25 0
vn 0 0 0
v -0.3375 0.25 0
vn 1 0 0
v -0.363893 0.361804 0
vn 0.894427 0.447214 0
v -0.356335 0.298578 0.0818727
vn 0.924658 0.194311 0.327491
v -0.365269 0.304668 -0.100621
vn 0.888925 0.218673 -0.402486
v -0.403472 0.399769 -0.078758
vn 0.736112 0.599077 -0.315032
v -0.432693 0.446087 0.00919147
vn 0.61923 0.784348 0.0367659
v -0.363941 0.188416 0.0934285
vn 0.894236 -0.246334 0.373714
v -0.410629 0.387968 0.110368
vn 0.707486 0.551874 0.441473
v -0.367473 0.191604 -0.103335
vn 0.880107 -0.233582 -0.413341
v -0.358458 0.149801 -8.75488e-05
vn 0.916168 -0.400795 -0.000350195
v -0.421135 0.251713 -0.186601
vn 0.665458 0.00685229 -0.746404
v -0.444167 0.364414 -0.169897
vn 0.573332 0.457656 -0.67959
v -0.485119 0.455304 -0.0993403
vn 0.409525 0.821214 -0.397361
v -0.409409 0.274129 0.173785
vn 0.712366 0.096514 0.69514
v -0.527304 0.492563 -0.00629535
vn 0.240784 0.970252 -0.0251814
v -0.442748 0.137095 -0.169703
vn 0.579009 -0.45162 -0.678813
v -0.436004 0.146356 0.169726
vn 0.605982 -0.414577 0.678905
v -0.511892 0.464419 0.103961
vn 0.302433 0.857675 0.415846
v -0.414726 0.0800885 0.061474
vn 0.691098 -0.679646 0.245896
v -0.500173 0.374247 0.198587
vn 0.349309 0.496986 0.794347
v -0.413442 0.0814998 -0.0617362
vn 0.696233 -0.674001 -0.246945
v -0.596483 0.483348 -0.0892645
vn -0.035932 0.933391 -0.357058
v -0.502895 0.196054 -0.22898
vn 0.338418 -0.215782 -0.915921
v -0.54919 0.415044 -0.183828
vn 0.153241 0.660177 -0.735312
v -0.518203 0.302872 -0.234313
vn 0.277186 0.211488 -0.937252
v -0.506754 0.236186 0.236198
vn 0.322982 -0.0552575 0.944791
v -0.533178 0.122009 0.207768
vn 0.21729 -0.511964 0.83107
v -0.500781 0.048265 -0.119511
vn 0.346876 -0.80694 -0.478043
v -0.627208 0.494429 0.0343175
vn -0.158833 0.977716 0.13727
v -0.514707 0.0432995 0.120316
vn 0.291174 -0.826802 0.481264
v -0.556411 0.102098 -0.199144
vn 0.124357 -0.591609 -0.796576
v -0.652097 0.431072 -0.159813
vn -0.258388 0.724289 -0.639251
v -0.502034 0.0151782 -0.0073646
vn 0.341866 -0.939287 -0.0294584
v -0.606661 0.322435 0.238508
vn -0.0766425 0.289742 0.954031
v -0.709291 0.458556 -0.0645855
vn -0.487165 0.834224 -0.258342
v -0.620815 0.440442 0.158499
vn -0.133259 0.761769 0.633996
v -0.609796 0.20734 -0.245322
vn -0.0891821 -0.170641 -0.981289
v -0.615078 0.185665 0.240001
vn -0.11031 -0.257341 0.960004
v -0.604107 0.0208233 -0.0985003
vn -0.0664263 -0.916707 -0.394001
v -0.738032 0.440036 0.0610438
vn -0.602127 0.760145 0.244175
v -0.625648 0.0683658 0.167492
vn -0.152591 -0.726537 0.66997
v -0.639455 0.335107 -0.229254
vn -0.207822 0.340429 -0.917016
v -0.70028 0.256923 0.223008
vn -0.451122 0.0276906 0.892033
v -0.798255 0.376885 -0.044525
vn -0.843022 0.507538 -0.1781
v -0.728947 0.364011 0.171739
vn -0.565787 0.456045 0.686955
v -0.682286 0.105617 -0.180746
vn -0.379144 -0.577531 -0.722985
v -0.618059 0.00569375 0.0433655
vn -0.122236 -0.977225 0.173462
v -0.740168 0.370642 -0.156965
vn -0.610673 0.482569 -0.627859
v -0.725921 0.239512 -0.207917
vn -0.553685 -0.0419533 -0.831669
v -0.716083 0.147342 0.188223
vn -0.514331 -0.410633 0.752891
v -0.811335 0.338188 0.0679763
vn -0.89534 0.352752 0.271905
v -0.726307 0.0495782 -0.0553525
vn -0.555226 -0.801687 -0.22141
v -0.728081 0.0603012 0.082167
vn -0.562323 -0.758795 0.328668
v -0.781603 0.249774 0.157556
vn -0.776413 -0.000904782 0.630224
v -0.790415 0.161365 -0.116058
vn -0.811658 -0.354539 -0.464234
v -0.800165 0.278246 -0.128358
vn -0.85066 0.112984 -0.513432
v -0.788956 0.146983 0.106315
vn -0.805824 -0.412069 0.42526
v -0.835034 0.250792 -0.035022
vn -0.990134 0.00316965 -0.140088
v -0.805951 0.128435 0.00096488
vn -0.873805 -0.486261 0.00385952
v -0.827736 0.222041 0.063286
vn -0.960943 -0.111836 0.253144
g rightSphere
usemtl rightSphere

s 1
f 160//160 161//161 159//159
f 159//159 161//161 152//152
f 156//156 160//160 159//159
f 134//134 120//120 131//131
f 153//153 156//156 147//147
f 155//155 158//158 151//151
f 139//139 128//128 127//127
f 116//116 123//123 130//130
f 112//112 117//117 124//124
f 150//150 149//149 143//143
f 126//126 112//112 124//124
f 139//139 127//127 135//135
f 152//152 155//155 146//146
f 120//120 111//111 108//108
f 110//110 105//105 102//102
f 132//132 117//117 129//129
f 138//138 126//126 124//124
f 106//106 105//105 113//113
f 127//127 128//128 118//118
f 137//137 130//130 141//141
f 121//121 115//115 109//109
f 141//141 152//152 146//146
f 131//131 120//120 118//118
f 128//128 139//139 142//142
f 149//149 145//145 136//136
f 122//122 117//117 110//110
f 123//123 116//116 114//114
f 153//153 147//147 140//140
f 129//129 134//134 140//140
f 132//132 129//129 140//140
f 108//108 115//115 118//118
f 148//148 153//153 140//140
f 115//115 127//127 118//118
f 103//103 106//106 107//107
f 160//160 156//156 153//153
f 126//126 125//125 113//113
f 121//121 109//109 119//119
f 136//136 145//145 141//141
f 111//111 122//122 110//110
f 117//117 112//112 110//110
f 134//134 122//122 120//120
f 131//131 128//128 142//142
f 148//148 131//131 142//142
f 128//128 131//131 118//118
f 156//156 159//159 157//157
f 150//150 138//138 147//147
f 133//133 149//149 136//136
f 158//158 154//154 151//151
f 106//106 114//114 107//107
f 148//148 134//134 131//131
f 123//123 114//114 125//125
f 154//154 142//142 151//151
f 160//160 154//154 158//158
f 121//121 127//127 115//115
f 108//108 111//111 102//102
f 109//109 103//103 107//107
f 127//127 121//121 135//135
f 142//142 139//139 151//151
f 104//104 115//115 108//108
f 161//161 160//160 158//158
f 154//154 148//148 142//142
f 138//138 143//143 126//126
f 145//145 149//149 157//157
f 105//105 112//112 113//113
f 156//156 150//150 147//147
f 112//112 105//105 110//110
f 135//135 137//137 146//146
f 123//123 136//136 130//130
f 145//145 159//159 152//152
f 144//144 139//139 135//135
f 149//149 150//150 157//157
f 114//114 116//116 107//107
f 144//144 155//155 151//151
f 123//123 133//133 136//136
f 116//116 119//119 107//107
f 161//161 155//155 152//152
f 149//149 133//133 143//143
f 109//109 104//104 103//103
f 138//138 150//150 143//143
f 133//133 123//123 125//125
f 148//148 154//154 153//153
f 134//134 148//148 140//140
f 132//132 138//138 124//124
f 104//104 108//108 102//102
f 122//122 134//134 129//129
f 137//137 119//119 130//130
f 111//111 110//110 102//102
f 125//125 114//114 113//113
f 144//144 135//135 146//146
f 139//139 144//144 151//151
f 138//138 132//132 147//147
f 103//103 104//104 102//102
f 130//130 136//136 141//141
f 141//141 145//145 152//152
f 137//137 121//121 119//119
f 154//154 160//160 153//153
f 122//122 111//111 120//120
f 112//112 126//126 113//113
f 150//150 156//156 157//157
f 117//117 122//122 129//129
f 115//115 104//104 109//109
f 119//119 109//109 107//107
f 105//105 106//106 103//103
f 119//119 116//116 130//130
f 147//147 132//132 140//140
f 121//121 137//137 135//135
f 105//105 103//103 102//102
f 143//143 133//133 125//125
f 159//159 145//145 157//157
f 114//114 106//106 113//113
f 120//120 108//108 118//118
f 137//137 141//141 146//146
f 155//155 144//144 146//146
f 126//126 143//143 125//125
f 155//155 161//161 158//158
f 117//117 132//132 124//124


## Object floor
v   1.0000 0.0000 -1.0400
v  -0.9900 0.0000 -1.0400
v  -1.0100 0.0000  0.9900
v   1.0000 0.0000  0.9900
# 4 vertices

vn 0.0000 1.0000 -0.0000
# 1 vertex normals

g floor
usemtl floor

s 1
f 162//162 163//162 164//162 
f 164//162 165//162 162//162 
# 2 faces

## Object ceiling 
v   1.0000 1.5900 -1.0400
v   1.0000 1.5900  0.9900
v  -1.0200 1.5900  0.9900
v  -1.0200 1.5900 -1.0400
# 4 vertices

vn 0.0000 -1.0000 -0.0000
# 1 vertex normals

g ceiling
usemtl ceiling

s 1
f 166//163 167//163 168//163 
f 168//163 169//163 166//163 
# 2 faces

## Object backwall 
v   1.0000 1.5900 -1.0400
v  -1.0200 1.5900 -1.0400
v  -0.9900 0.0000 -1.0400
v   1.0000 0.0000 -1.0400
# 4 vertices

vn 0.0000 0.0000 1.0000
# 1 vertex normals

g backWall
usemtl backWall

s 1
f 170//164 171//164 172//164 
f 172//164 173//164 170//164 
# 2 faces

## Object rightwall 
v  1.0000 1.5900 0.9900
v  1.0000 1.5900 -1.0400
v  1.0000 0.0000 -1.0400
v  1.0000 0.0000 0.9900
# 4 vertices

vn -1.0000 0.0000 -0.0000
# 1 vertex normals

g rightWall
usemtl rightWall

s 1
f 174//165 175//165 176//165 
f 176//165 177//165 174//165 
# 2 faces

## Object leftWall 
v  -1.0200 1.5900 -1.0400
v  -1.0200 1.5900 0.9900
v  -1.0100 0.0000 0.9900
v  -0.9900 0.0000 -1.0400
# 4 vertices

vn 0.9999 0.0135 0.0057
vn 1.0000 0.0063 -0.0000
vn 0.9999 0.0116 0.0042
vn 0.9998 0.0189 0.0098
# 4 vertex normals

g leftWall
usemtl leftWall

s 1
f 178//166 179//167 180//168 
f 180//168 181//169 178//166 
# 2 faces

## Object light
v  0.2300 1.5800 -0.2200
v  0.2300 1.5800 0.1600
v  -0.2400 1.5800 0.1600
v  -0.2400 1.5800 -0.2200
# 4 vertices

vn 0.0000 -1.0000 -0.0000
# 1 vertex normals

g light
usemtl light

s 1
f 182//170 183//170 184//170 
f 184//170 185//170 182//170 
# 2 faces
