mtllib CornellBox-Sphere.mtl

## Object leftSphere

v 0.0342501 0.321456 0.146579
vn 0.609893 -0.774616 0.167333
v 0.0837138 0.367673 0.0768425
vn 0.675609 -0.731876 0.0889399
v 0.0920964 0.369778 0.17231
vn 0.671516 -0.714756 0.195422
v 0.00155175 0.328813 0.0709547
vn 0.59646 -0.798195 0.0843814
v 0.0234351 0.380262 0.0103328
vn 0.645201 -0.763907 0.0127365
v 0.10165 0.445553 0.022553
vn 0.735085 -0.677414 0.0275549
v 0.0116264 0.359268 0.232761
vn 0.600264 -0.751736 0.273086
v 0.132198 0.43028 0.123057
vn 0.735214 -0.662555 0.143109
v -0.0651816 0.324547 0.145871
vn 0.532575 -0.82731 0.178666
v -0.0843265 0.363132 0.0339704
vn 0.546023 -0.836581 0.044623
v -0.0905859 0.374542 0.231528
vn 0.523163 -0.799231 0.295854
v 0.0949348 0.443221 0.236806
vn 0.701124 -0.656158 0.279074
v -0.160509 0.382177 0.137491
vn 0.472673 -0.860195 0.191429
v -0.0232035 0.442433 0.293965
vn 0.603283 -0.705481 0.371949
v -0.022706 0.45218 -0.0528216
vn 0.655178 -0.751987 -0.0725078
v 0.155001 0.536865 0.133656
vn 0.805407 -0.569483 0.164346
v -0.154292 0.451111 0.259812
vn 0.49473 -0.785495 0.371807
v -0.169958 0.435868 0.00891113
vn 0.504926 -0.863055 0.013633
v -0.0753073 0.540827 0.328878
vn 0.600989 -0.649782 0.465399
v 0.0971085 0.539875 -0.0255462
vn 0.791649 -0.610036 -0.0338693
v 0.0649781 0.53585 0.290386
vn 0.718126 -0.589966 0.3691
v -0.134008 0.521446 -0.0791948
vn 0.602309 -0.787552 -0.13033
v -0.00424498 0.567693 -0.096716
vn 0.745672 -0.650239 -0.145472
v 0.0880536 0.655444 -0.0543677
vn 0.860071 -0.503939 -0.0795167
v 0.146167 0.622621 0.0416781
vn 0.862182 -0.503538 0.0556112
v 0.121031 0.619891 0.23918
vn 0.810322 -0.495967 0.312082
v 0.155013 0.653737 0.139343
vn 0.868839 -0.459299 0.184831
v 0.119531 0.730375 0.219585
vn 0.872031 -0.379515 0.309081
v 0.023159 0.655064 0.323106
vn 0.742033 -0.489247 0.458284
v -0.246107 0.533258 -0.00442049
vn 0.477829 -0.878413 -0.00831942
v -0.210117 0.550466 0.27928
vn 0.480403 -0.744983 0.462832
v -0.248479 0.482549 0.141054
vn 0.424594 -0.873511 0.238115
v -0.0070695 0.683105 -0.12126
vn 0.82372 -0.529552 -0.202634
v 0.141099 0.744668 0.0644474
vn 0.925004 -0.368403 0.0929875
v -0.305956 0.578136 0.0872439
vn 0.410696 -0.892879 0.184652
v -0.212337 0.623135 -0.0941467
vn 0.595127 -0.779671 -0.194774
v -0.0992231 0.614414 -0.123098
vn 0.703603 -0.676934 -0.216111
v -0.137597 0.643827 0.340695
vn 0.59238 -0.582196 0.556896
v -0.291601 0.584519 0.1948
vn 0.413501 -0.824391 0.386518
v 0.0763642 0.770418 -0.0624399
vn 0.924342 -0.368191 -0.100138
v -0.131549 0.707481 -0.144631
vn 0.74861 -0.594333 -0.293857
v -0.0664926 0.739119 0.346506
vn 0.706922 -0.425419 0.565049
v 0.108588 0.859584 0.0361933
vn 0.972769 -0.224441 0.0578514
v -0.349781 0.68504 0.13736
vn 0.400573 -0.839868 0.366283
v -0.310516 0.648559 -0.010455
vn 0.474415 -0.879912 -0.0261763
v 0.11009 0.840516 0.172085
vn 0.933359 -0.24399 0.263268
v -0.192216 0.756823 0.335564
vn 0.596242 -0.471084 0.650058
v 0.0373995 0.7885 0.296542
vn 0.82778 -0.325783 0.456777
v -0.266194 0.665559 0.278331
vn 0.473341 -0.677078 0.563483
v -0.0315003 0.793062 -0.13756
vn 0.88343 -0.390215 -0.259391
v -0.264913 0.756915 -0.112721
vn 0.659508 -0.681947 -0.316225
v 0.042686 0.884429 -0.0734855
vn 0.969601 -0.206486 -0.131294
v -0.311826 0.790009 0.263455
vn 0.487631 -0.544168 0.682713
v -0.361374 0.75957 0.00603443
vn 0.499377 -0.866112 0.0217381
v 0.0762153 0.954471 0.132306
vn 0.97176 -0.0767833 0.223128
v 0.0227959 0.923309 0.256647
vn 0.889983 -0.130555 0.436904
v -0.0835637 0.853012 0.334331
vn 0.75183 -0.26537 0.603598
v -0.142043 0.81217 -0.159418
vn 0.823756 -0.432247 -0.366863
v 0.0677887 0.957054 0.0128763
vn 0.996897 -0.0754019 0.0226076
v -0.0693508 0.906359 -0.145787
vn 0.927724 -0.201726 -0.31406
v -0.390342 0.83388 0.117631
vn 0.474279 -0.718483 0.508765
v -0.222977 0.885721 0.31919
vn 0.632737 -0.26102 0.729049
v 0.00230014 1.00099 -0.0701226
vn 0.990394 0.001955 -0.138262
v -0.106998 0.975209 0.303364
vn 0.79061 -0.0498719 0.610285
v -0.00806651 1.04337 0.204206
vn 0.92054 0.0811601 0.382124
v 0.0296599 1.05476 0.0611739
vn 0.988198 0.102168 0.114133
v -0.209054 0.893818 -0.156937
vn 0.837959 -0.305817 -0.451997
v -0.108355 1.0187 -0.138352
vn 0.941942 0.0449634 -0.33275
v -0.14385 1.09678 0.252266
vn 0.79668 0.216485 0.5643
v -0.235355 1.00177 0.289785
vn 0.674343 0.00450579 0.738404
v -0.245433 1.00569 -0.144594
vn 0.869361 0.0194452 -0.493795
v -0.337617 0.928384 0.240971
vn 0.542593 -0.2393 0.805188
v -0.40147 0.966084 0.116991
vn 0.628901 -0.216482 0.746739
v -0.175111 1.13014 -0.115058
vn 0.88186 0.353253 -0.312308
v -0.0450393 1.11444 -0.0423655
vn 0.965858 0.242958 -0.0899398
v -0.0518245 1.15 0.128831
vn 0.914915 0.306206 0.262998
v -0.317412 1.08335 0.218781
vn 0.614978 0.280723 0.736883
v -0.358397 0.906495 -0.0626702
vn 0.782802 -0.516908 -0.34645
v -0.187575 1.2051 0.173679
vn 0.758102 0.49767 0.421433
v -0.321352 1.07652 -0.0969247
vn 0.822607 0.352326 -0.446301
v -0.395427 1.02831 -0.000631318
vn 0.965244 0.261287 -0.00582726
v -0.392902 1.08706 0.10113
vn 0.625926 0.508801 0.591048
v -0.126061 1.22371 0.0112126
vn 0.857869 0.513224 0.0257232
v -0.271751 1.21469 -0.0570225
vn 0.716645 0.674067 -0.179036
v -0.376872 1.13655 0.00169458
vn 0.669632 0.742635 0.00921604
v -0.336088 1.19812 0.118229
vn 0.579163 0.70004 0.41775
v -0.224126 1.26528 0.0727351
vn 0.708139 0.680941 0.186704
v -0.0137781 0.509007 0.12222
vn 0.692891 -0.69969 0.174169
v -0.0994586 0.70694 0.104232
vn 0.789818 -0.577878 0.205533
v -0.231786 1.1059 0.0641287
vn 0.907948 0.358475 0.217086
v -0.19466 0.927594 -0.0486284
vn 0.96154 -0.228013 -0.153135
v -0.266722 1.00573 -0.0188458
vn 0.996455 0.024455 -0.0805003
v -0.123532 1.0361 0.165521
vn 0.91192 0.087451 0.400942
v -0.274225 0.973131 0.0986764
vn 0.910907 -0.108404 0.398118
v -0.124436 1.00266 0.0349607
vn 0.99567 0.00705283 0.0926854
v -0.0258801 0.89311 0.0716559
vn 0.965083 -0.217577 0.145857
v -0.229717 0.843364 0.0963132
vn 0.826804 -0.479156 0.294626
v -0.102796 0.937112 0.174183
vn 0.906335 -0.143497 0.39745
v -0.186256 1.04653 -0.0563283
vn 0.973943 0.144433 -0.174857
v -0.118352 0.844226 -0.0394732
vn 0.921632 -0.376175 -0.0953227
g leftSphere
usemtl leftSphere

s 1
f 75//75 76//76 66//66
f 77//77 82//82 73//73
f 46//46 43//43 55//55
f 72//72 77//77 73//73
f 43//43 59//59 55//55
f 77//77 86//86 82//82
f 53//53 44//44 49//49
f 8//8 12//12 3//3
f 3//3 12//12 7//7
f 2//2 8//8 3//3
f 74//74 84//84 83//83
f 74//74 68//68 71//71
f 79//79 87//87 86//86
f 2//2 4//4 5//5
f 38//38 47//47 49//49
f 76//76 83//83 79//79
f 50//50 58//58 60//60
f 46//46 34//34 43//43
f 30//30 22//22 18//18
f 75//75 66//66 63//63
f 20//20 25//25 16//16
f 6//6 15//15 20//20
f 52//52 50//50 60//60
f 2//2 3//3 1//1
f 36//36 45//45 51//51
f 66//66 55//55 59//59
f 16//16 26//26 21//21
f 16//16 25//25 27//27
f 50//50 52//52 40//40
f 13//13 10//10 9//9
f 24//24 25//25 20//20
f 44//44 39//39 49//49
f 14//14 19//19 17//17
f 24//24 23//23 33//33
f 31//31 19//19 38//38
f 22//22 15//15 18//18
f 43//43 34//34 40//40
f 31//31 39//39 32//32
f 16//16 8//8 6//6
f 21//21 26//26 29//29
f 57//57 56//56 64//64
f 47//47 62//62 53//53
f 3//3 7//7 1//1
f 29//29 48//48 42//42
f 30//30 45//45 36//36
f 76//76 69//69 65//65
f 28//28 34//34 46//46
f 17//17 11//11 14//14
f 46//46 56//56 48//48
f 84//84 80//80 85//85
f 43//43 52//52 59//59
f 77//77 69//69 79//79
f 56//56 55//55 65//65
f 67//67 51//51 78//78
f 75//75 83//83 76//76
f 17//17 32//32 13//13
f 48//48 28//28 46//46
f 6//6 8//8 2//2
f 79//79 69//69 76//76
f 44//44 45//45 35//35
f 5//5 6//6 2//2
f 16//16 12//12 8//8
f 58//58 41//41 51//51
f 21//21 12//12 16//16
f 48//48 56//56 57//57
f 58//58 51//51 67//67
f 23//23 15//15 22//22
f 27//27 34//34 28//28
f 73//73 81//81 78//78
f 14//14 12//12 21//21
f 10//10 15//15 5//5
f 80//80 84//84 74//74
f 29//29 19//19 21//21
f 70//70 77//77 72//72
f 24//24 34//34 25//25
f 28//28 26//26 27//27
f 49//49 39//39 31//31
f 40//40 33//33 50//50
f 83//83 84//84 87//87
f 5//5 15//15 6//6
f 17//17 19//19 31//31
f 38//38 29//29 42//42
f 49//49 47//47 53//53
f 68//68 67//67 71//71
f 9//9 11//11 13//13
f 42//42 47//47 38//38
f 65//65 66//66 76//76
f 1//1 4//4 2//2
f 85//85 81//81 82//82
f 68//68 60//60 67//67
f 16//16 6//6 20//20
f 79//79 86//86 77//77
f 13//13 11//11 17//17
f 86//86 85//85 82//82
f 39//39 44//44 35//35
f 64//64 56//56 65//65
f 78//78 61//61 73//73
f 79//79 83//83 87//87
f 54//54 61//61 78//78
f 87//87 84//84 86//86
f 73//73 61//61 72//72
f 84//84 85//85 86//86
f 48//48 57//57 42//42
f 59//59 63//63 66//66
f 25//25 34//34 27//27
f 14//14 11//11 7//7
f 28//28 48//48 29//29
f 29//29 26//26 28//28
f 51//51 54//54 78//78
f 70//70 62//62 64//64
f 20//20 23//23 24//24
f 54//54 45//45 44//44
f 32//32 30//30 18//18
f 74//74 75//75 68//68
f 71//71 80//80 74//74
f 65//65 55//55 66//66
f 74//74 83//83 75//75
f 56//56 46//46 55//55
f 53//53 72//72 61//61
f 71//71 78//78 80//80
f 62//62 47//47 57//57
f 71//71 67//67 78//78
f 58//58 67//67 60//60
f 80//80 81//81 85//85
f 13//13 18//18 10//10
f 59//59 52//52 63//63
f 21//21 19//19 14//14
f 44//44 53//53 61//61
f 9//9 4//4 1//1
f 77//77 70//70 69//69
f 37//37 23//23 22//22
f 1//1 7//7 9//9
f 5//5 4//4 10//10
f 62//62 57//57 64//64
f 80//80 78//78 81//81
f 33//33 23//23 37//37
f 40//40 34//34 24//24
f 32//32 18//18 13//13
f 50//50 41//41 58//58
f 75//75 63//63 68//68
f 37//37 41//41 33//33
f 10//10 4//4 9//9
f 7//7 11//11 9//9
f 63//63 52//52 60//60
f 57//57 47//47 42//42
f 49//49 31//31 38//38
f 35//35 32//32 39//39
f 31//31 32//32 17//17
f 73//73 82//82 81//81
f 30//30 32//32 35//35
f 20//20 15//15 23//23
f 27//27 26//26 16//16
f 35//35 45//45 30//30
f 36//36 37//37 22//22
f 7//7 12//12 14//14
f 36//36 41//41 37//37
f 18//18 15//15 10//10
f 70//70 64//64 69//69
f 33//33 41//41 50//50
f 54//54 44//44 61//61
f 24//24 33//33 40//40
f 51//51 45//45 54//54
f 40//40 52//52 43//43
f 38//38 19//19 29//29
f 51//51 41//41 36//36
f 72//72 62//62 70//70
f 22//22 30//30 36//36
f 53//53 62//62 72//72
f 69//69 64//64 65//65
f 63//63 60//60 68//68

## Object rightSphere

v -0.5875 0.25 0
vn 0 0 0
v -0.3375 0.25 0
vn 1 0 0
v -0.363893 0.361804 0
vn 0.894427 0.447214 0
v -0.356335 0.298578 0.0818727
vn 0.924658 0.194311 0.327491
v -0.365269 0.304668 -0.100621
vn 0.888925 0.218673 -0.402486
v -0.403472 0.399769 -0.078758
vn 0.736112 0.599077 -0.315032
v -0.432693 0.446087 0.00919147
vn 0.61923 0.784348 0.0367659
v -0.363941 0.188416 0.0934285
vn 0.894236 -0.246334 0.373714
v -0.410629 0.387968 0.110368
vn 0.707486 0.551874 0.441473
v -0.367473 0.191604 -0.103335
vn 0.880107 -0.233582 -0.413341
v -0.358458 0.149801 -8.75488e-05
vn 0.916168 -0.400795 -0.000350195
v -0.421135 0.251713 -0.186601
vn 0.665458 0.00685229 -0.746404
v -0.444167 0.364414 -0.169897
vn 0.573332 0.457656 -0.67959
v -0.485119 0.455304 -0.0993403
vn 0.409525 0.821214 -0.397361
v -0.409409 0.274129 0.173785
vn 0.712366 0.096514 0.69514
v -0.527304 0.492563 -0.00629535
vn 0.240784 0.970252 -0.0251814
v -0.442748 0.137095 -0.169703
vn 0.579009 -0.45162 -0.678813
v -0.436004 0.146356 0.169726
vn 0.605982 -0.414577 0.678905
v -0.511892 0.464419 0.103961
vn 0.302433 0.857675 0.415846
v -0.414726 0.0800885 0.061474
vn 0.691098 -0.679646 0.245896
v -0.500173 0.374247 0.198587
vn 0.349309 0.496986 0.794347
v -0.413442 0.0814998 -0.0617362
vn 0.696233 -0.674001 -0.246945
v -0.596483 0.483348 -0.0892645
vn -0.035932 0.933391 -0.357058
v -0.502895 0.196054 -0.22898
vn 0.338418 -0.215782 -0.915921
v -0.54919 0.415044 -0.183828
vn 0.153241 0.660177 -0.735312
v -0.518203 0.302872 -0.234313
vn 0.277186 0.211488 -0.937252
v -0.506754 0.236186 0.236198
vn 0.322982 -0.0552575 0.944791
v -0.533178 0.122009 0.207768
vn 0.21729 -0.511964 0.83107
v -0.500781 0.048265 -0.119511
vn 0.346876 -0.80694 -0.478043
v -0.627208 0.494429 0.0343175
vn -0.158833 0.977716 0.13727
v -0.514707 0.0432995 0.120316
vn 0.291174 -0.826802 0.481264
v -0.556411 0.102098 -0.199144
vn 0.124357 -0.591609 -0.796576
v -0.652097 0.431072 -0.159813
vn -0.258388 0.724289 -0.639251
v -0.502034 0.0151782 -0.0073646
vn 0.341866 -0.939287 -0.0294584
v -0.606661 0.322435 0.238508
vn -0.0766425 0.289742 0.954031
v -0.709291 0.458556 -0.0645855
vn -0.487165 0.834224 -0.258342
v -0.620815 0.440442 0.158499
vn -0.133259 0.761769 0.633996
v -0.609796 0.20734 -0.245322
vn -0.0891821 -0.170641 -0.981289
v -0.615078 0.185665 0.240001
vn -0.11031 -0.257341 0.960004
v -0.604107 0.0208233 -0.0985003
vn -0.0664263 -0.916707 -0.394001
v -0.738032 0.440036 0.0610438
vn -0.602127 0.760145 0.244175
v -0.625648 0.0683658 0.167492
vn -0.152591 -0.726537 0.66997
v -0.639455 0.335107 -0.229254
vn -0.207822 0.340429 -0.917016
v -0.70028 0.256923 0.223008
vn -0.451122 0.0276906 0.892033
v -0.798255 0.376885 -0.044525
vn -0.843022 0.507538 -0.1781
v -0.728947 0.364011 0.171739
vn -0.565787 0.456045 0.686955
v -0.682286 0.105617 -0.180746
vn -0.379144 -0.577531 -0.722985
v -0.618059 0.00569375 0.0433655
vn -0.122236 -0.977225 0.173462
v -0.740168 0.370642 -0.156965
vn -0.610673 0.482569 -0.627859
v -0.725921 0.239512 -0.207917
vn -0.553685 -0.0419533 -0.831669
v -0.716083 0.147342 0.188223
vn -0.514331 -0.410633 0.752891
v -0.811335 0.338188 0.0679763
vn -0.89534 0.352752 0.271905
v -0.726307 0.0495782 -0.0553525
vn -0.555226 -0.801687 -0.22141
v -0.728081 0.0603012 0.082167
vn -0.562323 -0.758795 0.328668
v -0.781603 0.249774 0.157556
vn -0.776413 -0.000904782 0.630224
v -0.790415 0.161365 -0.116058
vn -0.811658 -0.354539 -0.464234
v -0.800165 0.278246 -0.128358
vn -0.85066 0.112984 -0.513432
v -0.788956 0.146983 0.106315
vn -0.805824 -0.412069 0.42526
v -0.835034 0.250792 -0.035022
vn -0.990134 0.00316965 -0.140088
v -0.805951 0.128435 0.00096488
vn -0.873805 -0.486261 0.00385952
v -0.827736 0.222041 0.063286
vn -0.960943 -0.111836 0.253144
g rightSphere
usemtl rightSphere

s 1
f 160//160 161//161 159//159
f 159//159 161//161 152//152
f 156//156 160//160 159//159
f 134//134 120//120 131//131
f 153//153 156//156 147//147
f 155//155 158//158 151//151
f 139//139 128//128 127//127
f 116//116 123//123 130//130
f 112//112 117//117 124//124
f 150//150 149//149 143//143
f 126//126 112//112 124//124
f 139//139 127//127 135//135
f 152//152 155//155 146//146
f 120//120 111//111 108//108
f 110//110 105//105 102//102
f 132//132 117//117 129//129
f 138//138 126//126 124//124
f 106//106 105//105 113//113
f 127//127 128//128 118//118
f 137//137 130//130 141//141
f 121//121 115//115 109//109
f 141//141 152//152 146//146
f 131//131 120//120 118//118
f 128//128 139//139 142//142
f 149//149 145//145 136//136
f 122//122 117//117 110//110
f 123//123 116//116 114//114
f 153//153 147//147 140//140
f 129//129 134//134 140//140
f 132//132 129//129 140//140
f 108//108 115//115 118//118
f 148//148 153//153 140//140
f 115//115 127//127 118//118
f 103//103 106//106 107//107
f 160//160 156//156 153//153
f 126//126 125//125 113//113
f 121//121 109//109 119//119
f 136//136 145//145 141//141
f 111//111 122//122 110//110
f 117//117 112//112 110//110
f 134//134 122//122 120//120
f 131//131 128//128 142//142
f 148//148 131//131 142//142
f 128//128 131//131 118//118
f 156//156 159//159 157//157
f 150//150 138//138 147//147
f 133//133 149//149 136//136
f 158//158 154//154 151//151
f 106//106 114//114 107//107
f 148//148 134//134 131//131
f 123//123 114//114 125//125
f 154//154 142//142 151//151
f 160//160 154//154 158//158
f 121//121 127//127 115//115
f 108//108 111//111 102//102
f 109//109 103//103 107//107
f 127//127 121//121 135//135
f 142//142 139//139 151//151
f 104//104 115//115 108//108
f 161//161 160//160 158//158
f 154//154 148//148 142//142
f 138//138 143//143 126//126
f 145//145 149//149 157//157
f 105//105 112//112 113//113
f 156//156 150//150 147//147
f 112//112 105//105 110//110
f 135//135 137//137 146//146
f 123//123 136//136 130//130
f 145//145 159//159 152//152
f 144//144 139//139 135//135
f 149//149 150//150 157//157
f 114//114 116//116 107//107
f 144//144 155//155 151//151
f 123//123 133//133 136//136
f 116//116 119//119 107//107
f 161//161 155//155 152//152
f 149//149 133//133 143//143
f 109//109 104//104 103//103
f 138//138 150//150 143//143
f 133//133 123//123 125//125
f 148//148 154//154 153//153
f 134//134 148//148 140//140
f 132//132 138//138 124//124
f 104//104 108//108 102//102
f 122//122 134//134 129//129
f 137//137 119//119 130//130
f 111//111 110//110 102//102
f 125//125 114//114 113//113
f 144//144 135//135 146//146
f 139//139 144//144 151//151
f 138//138 132//132 147//147
f 103//103 104//104 102//102
f 130//130 136//136 141//141
f 141//141 145//145 152//152
f 137//137 121//121 119//119
f 154//154 160//160 153//153
f 122//122 111//111 120//120
f 112//112 126//126 113//113
f 150//150 156//156 157//157
f 117//117 122//122 129//129
f 115//115 104//104 109//109
f 119//119 109//109 107//107
f 105//105 106//106 103//103
f 119//119 116//116 130//130
f 147//147 132//132 140//140
f 121//121 137//137 135//135
f 105//105 103//103 102//102
f 143//143 133//133 125//125
f 159//159 145//145 157//157
f 114//114 106//106 113//113
f 120//120 108//108 118//118
f 137//137 141//141 146//146
f 155//155 144//144 146//146
f 126//126 143//143 125//125
f 155//155 161//161 158//158
f 117//117 132//132 124//124


## Object floor
v   1.0000 0.0000 -1.0400
v  -0.9900 0.0000 -1.0400
v  -1.0100 0.0000  0.9900
v   1.0000 0.0000  0.9900
# 4 vertices

vn 0.0000 1.0000 -0.0000
# 1 vertex normals

g floor
usemtl floor

s 1
f 162//162 163//162 164//162 
f 164//162 165//162 162//162 
# 2 faces

## Object ceiling 
v   1.0000 1.5900 -1.0400
v   1.0000 1.5900  0.9900
v  -1.0200 1.5900  0.9900
v  -1.0200 1.5900 -1.0400
# 4 vertices

vn 0.0000 -1.0000 -0.0000
# 1 vertex normals

g ceiling
usemtl ceiling

s 1
f 166//163 167//163 168//163 
f 168//163 169//163 166//163 
# 2 faces

## Object backwall 
v   1.0000 1.5900 -1.0400
v  -1.0200 1.5900 -1.0400
v  -0.9900 0.0000 -1.0400
v   1.0000 0.0000 -1.0400
# 4 vertices

vn 0.0000 0.0000 1.0000
# 1 vertex normals

g backWall
usemtl backWall

s 1
f 170//164 171//164 172//164 
f 172//164 173//164 170//164 
# 2 faces

## Object rightwall 
v  1.0000 1.5900 0.9900
v  1.0000 1.5900 -1.0400
v  1.0000 0.0000 -1.0400
v  1.0000 0.0000 0.9900
# 4 vertices

vn -1.0000 0.0000 -0.0000
# 1 vertex normals

g rightWall
usemtl rightWall

s 1
f 174//165 175//165 176//165 
f 176//165 177//165 174//165 
# 2 faces

## Object leftWall 
v  -1.0200 1.5900 -1.0400
v  -1.0200 1.5900 0.9900
v  -1.0100 0.0000 0.9900
v  -0.9900 0.0000 -1.0400
# 4 vertices

vn 0.9999 0.0135 0.0057
vn 1.0000 0.0063 -0.0000
vn 0.9999 0.0116 0.0042
vn 0.9998 0.0189 0.0098
# 4 vertex normals

g leftWall
usemtl leftWall

s 1
f 178//166 179//167 180//168 
f 180//168 181//169 178//166 
# 2 faces

## Object light
v  0.2300 1.5800 -0.2200
v  0.2300 1.5800 0.1600
v  -0.2400 1.5800 0.1600
v  -0.2400 1.5800 -0.2200
# 4 vertices

vn 0.0000 -1.0000 -0.0000
# 1 vertex normals

g light
usemtl light

s 1
f 182//170 183//170 184//170 
f 184//170 185//170 182//170 
# 2 faces
