mtllib CornellBox-Sphere.mtl

## Object leftSphere

v -0.380325 0.746555 -0.00430223
vn 0.426933 -0.904153 -0.015348
v -0.134149 0.711238 -0.00118496
vn 0.784951 -0.619553 -0.00254239
v -0.144239 0.826343 0.00371257
vn 0.898615 -0.438639 0.00937756
v -0.147179 0.756853 0.0823137
vn 0.808622 -0.557262 0.188653
v -0.150972 0.776363 -0.0986937
vn 0.819092 -0.524827 -0.231613
v -0.177229 0.874459 -0.0739779
vn 0.911425 -0.354497 -0.208895
v -0.202272 0.918877 0.0145012
vn 0.963762 -0.262601 0.046941
v -0.172128 0.647753 0.087761
vn 0.670272 -0.720103 0.179411
v -0.188265 0.852355 0.113445
vn 0.858518 -0.406615 0.312427
v -0.169747 0.664197 -0.106942
vn 0.683785 -0.695277 -0.221422
v -0.170074 0.614521 -0.00730556
vn 0.650174 -0.759649 -0.0143968
v -0.211097 0.736322 -0.187223
vn 0.666229 -0.608057 -0.431747
v -0.21959 0.850324 -0.166881
vn 0.781083 -0.416922 -0.464849
v -0.251528 0.941479 -0.0939789
vn 0.913432 -0.215134 -0.345485
v -0.204471 0.735359 0.172026
vn 0.683471 -0.612036 0.397844
v -0.290648 0.978883 -0.00114232
vn 0.994937 -0.100359 -0.00542883
v -0.249943 0.624348 -0.177196
vn 0.515784 -0.774842 -0.365495
v -0.25105 0.613482 0.161289
vn 0.510957 -0.793308 0.331037
v -0.278775 0.943578 0.107695
vn 0.876372 -0.223514 0.42663
v -0.237521 0.549871 0.0493709
vn 0.501486 -0.860008 0.0943271
v -0.278567 0.848464 0.199467
vn 0.6623 -0.453241 0.5966
v -0.232643 0.558179 -0.07371
vn 0.512522 -0.846968 -0.141302
v -0.359184 0.983883 -0.0852822
vn 0.851292 -0.0974363 -0.515566
v -0.298292 0.695059 -0.233565
vn 0.464924 -0.702868 -0.538351
v -0.317268 0.915489 -0.180939
vn 0.675064 -0.312207 -0.668442
v -0.298776 0.802869 -0.234497
vn 0.549004 -0.537837 -0.639786
v -0.307187 0.710337 0.23133
vn 0.461445 -0.693229 0.553626
v -0.351456 0.602692 0.197292
vn 0.317533 -0.849299 0.421739
v -0.323037 0.542484 -0.135546
vn 0.347716 -0.898977 -0.266335
v -0.389517 0.993414 0.037941
vn 0.944286 -0.056287 0.324277
v -0.343142 0.526695 0.105622
vn 0.307755 -0.928624 0.20723
v -0.36727 0.609008 -0.211967
vn 0.285973 -0.842408 -0.456692
v -0.418308 0.944014 -0.15823
vn 0.437631 -0.299924 -0.847658
v -0.332398 0.503936 -0.0253426
vn 0.319713 -0.94628 -0.0483429
v -0.390754 0.812054 0.236756
vn 0.339884 -0.584733 0.736591
v -0.474032 0.974691 -0.0625256
vn 0.359269 -0.350153 -0.865054
v -0.388645 0.934314 0.160572
vn 0.540166 -0.31863 0.778907
v -0.402032 0.722434 -0.250662
vn 0.2534 -0.717937 -0.648348
v -0.421685 0.67734 0.231859
vn 0.193384 -0.796749 0.572533
v -0.43074 0.531286 -0.118817
vn 0.141788 -0.959547 -0.24324
v -0.504816 0.955168 0.0636134
vn -0.0617716 -0.574965 0.815843
v -0.450997 0.567435 0.152472
vn 0.106238 -0.937788 0.330555
v -0.414428 0.851531 -0.230522
vn 0.297914 -0.516885 -0.802544
v -0.492887 0.761898 0.218027
vn 0.022027 -0.737335 0.675168
v -0.570799 0.906424 -0.0439734
vn -0.564988 -0.746757 -0.350917
v -0.504804 0.874063 0.171888
vn -0.0225388 -0.590864 0.806456
v -0.493175 0.631182 -0.195388
vn 0.0163495 -0.883539 -0.468072
v -0.449555 0.51352 0.02316
vn 0.103026 -0.993553 0.0473003
v -0.512209 0.897196 -0.157773
vn -0.0647003 -0.544783 -0.836078
v -0.512778 0.770306 -0.213803
vn -0.0406864 -0.731367 -0.68077
v -0.527269 0.658438 0.177145
vn -0.0706948 -0.885492 0.459244
v -0.589252 0.865124 0.0672006
vn -0.509609 -0.770112 0.3837
v -0.548666 0.576371 -0.0741983
vn -0.112439 -0.978759 -0.171429
v -0.551875 0.581656 0.0644245
vn -0.121647 -0.981009 0.151074
v -0.57349 0.77017 0.151887
vn -0.257751 -0.806087 0.532717
v -0.592476 0.699149 -0.128248
vn -0.272092 -0.885198 -0.377347
v -0.58298 0.814971 -0.13304
vn -0.342144 -0.762909 -0.548551
v -0.598165 0.67399 0.0938778
vn -0.277951 -0.923086 0.265812
v -0.62326 0.788679 -0.0413565
vn -0.49679 -0.851714 -0.166684
v -0.616736 0.663318 -0.0136845
vn -0.32735 -0.944124 -0.038374
v -0.622914 0.754861 0.0553313
vn -0.439364 -0.876265 0.197785
g leftSphere
usemtl leftSphere

s 1
f 60//60 61//61 59//59
f 59//59 61//61 52//52
f 56//56 60//60 59//59
f 34//34 20//20 31//31
f 53//53 56//56 47//47
f 55//55 58//58 51//51
f 39//39 28//28 27//27
f 16//16 23//23 30//30
f 12//12 17//17 24//24
f 50//50 49//49 43//43
f 26//26 12//12 24//24
f 39//39 27//27 35//35
f 52//52 55//55 46//46
f 20//20 11//11 8//8
f 10//10 5//5 2//2
f 32//32 17//17 29//29
f 38//38 26//26 24//24
f 6//6 5//5 13//13
f 27//27 28//28 18//18
f 37//37 30//30 41//41
f 21//21 15//15 9//9
f 41//41 52//52 46//46
f 31//31 20//20 18//18
f 28//28 39//39 42//42
f 49//49 45//45 36//36
f 22//22 17//17 10//10
f 23//23 16//16 14//14
f 53//53 47//47 40//40
f 29//29 34//34 40//40
f 32//32 29//29 40//40
f 8//8 15//15 18//18
f 48//48 53//53 40//40
f 15//15 27//27 18//18
f 3//3 6//6 7//7
f 60//60 56//56 53//53
f 26//26 25//25 13//13
f 21//21 9//9 19//19
f 36//36 45//45 41//41
f 11//11 22//22 10//10
f 17//17 12//12 10//10
f 34//34 22//22 20//20
f 31//31 28//28 42//42
f 48//48 31//31 42//42
f 28//28 31//31 18//18
f 56//56 59//59 57//57
f 50//50 38//38 47//47
f 33//33 49//49 36//36
f 58//58 54//54 51//51
f 6//6 14//14 7//7
f 48//48 34//34 31//31
f 23//23 14//14 25//25
f 54//54 42//42 51//51
f 60//60 54//54 58//58
f 21//21 27//27 15//15
f 8//8 11//11 2//2
f 9//9 3//3 7//7
f 27//27 21//21 35//35
f 42//42 39//39 51//51
f 4//4 15//15 8//8
f 61//61 60//60 58//58
f 54//54 48//48 42//42
f 38//38 43//43 26//26
f 45//45 49//49 57//57
f 5//5 12//12 13//13
f 56//56 50//50 47//47
f 12//12 5//5 10//10
f 35//35 37//37 46//46
f 23//23 36//36 30//30
f 45//45 59//59 52//52
f 44//44 39//39 35//35
f 49//49 50//50 57//57
f 14//14 16//16 7//7
f 44//44 55//55 51//51
f 23//23 33//33 36//36
f 16//16 19//19 7//7
f 61//61 55//55 52//52
f 49//49 33//33 43//43
f 9//9 4//4 3//3
f 38//38 50//50 43//43
f 33//33 23//23 25//25
f 48//48 54//54 53//53
f 34//34 48//48 40//40
f 32//32 38//38 24//24
f 4//4 8//8 2//2
f 22//22 34//34 29//29
f 37//37 19//19 30//30
f 11//11 10//10 2//2
f 25//25 14//14 13//13
f 44//44 35//35 46//46
f 39//39 44//44 51//51
f 38//38 32//32 47//47
f 3//3 4//4 2//2
f 30//30 36//36 41//41
f 41//41 45//45 52//52
f 37//37 21//21 19//19
f 54//54 60//60 53//53
f 22//22 11//11 20//20
f 12//12 26//26 13//13
f 50//50 56//56 57//57
f 17//17 22//22 29//29
f 15//15 4//4 9//9
f 19//19 9//9 7//7
f 5//5 6//6 3//3
f 19//19 16//16 30//30
f 47//47 32//32 40//40
f 21//21 37//37 35//35
f 5//5 3//3 2//2
f 43//43 33//33 25//25
f 59//59 45//45 57//57
f 14//14 6//6 13//13
f 20//20 8//8 18//18
f 37//37 41//41 46//46
f 55//55 44//44 46//46
f 26//26 43//43 25//25
f 55//55 61//61 58//58
f 17//17 32//32 24//24

## Object rightSphere

v -0.5875 0.25 0
vn 0 0 0
v -0.3375 0.25 0
vn 1 0 0
v -0.363893 0.361804 0
vn 0.894427 0.447214 0
v -0.356335 0.298578 0.0818727
vn 0.924658 0.194311 0.327491
v -0.365269 0.304668 -0.100621
vn 0.888925 0.218673 -0.402486
v -0.403472 0.399769 -0.078758
vn 0.736112 0.599077 -0.315032
v -0.432693 0.446087 0.00919147
vn 0.61923 0.784348 0.0367659
v -0.363941 0.188416 0.0934285
vn 0.894236 -0.246334 0.373714
v -0.410629 0.387968 0.110368
vn 0.707486 0.551874 0.441473
v -0.367473 0.191604 -0.103335
vn 0.880107 -0.233582 -0.413341
v -0.358458 0.149801 -8.75488e-05
vn 0.916168 -0.400795 -0.000350195
v -0.421135 0.251713 -0.186601
vn 0.665458 0.00685229 -0.746404
v -0.444167 0.364414 -0.169897
vn 0.573332 0.457656 -0.67959
v -0.485119 0.455304 -0.0993403
vn 0.409525 0.821214 -0.397361
v -0.409409 0.274129 0.173785
vn 0.712366 0.096514 0.69514
v -0.527304 0.492563 -0.00629535
vn 0.240784 0.970252 -0.0251814
v -0.442748 0.137095 -0.169703
vn 0.579009 -0.45162 -0.678813
v -0.436004 0.146356 0.169726
vn 0.605982 -0.414577 0.678905
v -0.511892 0.464419 0.103961
vn 0.302433 0.857675 0.415846
v -0.414726 0.0800885 0.061474
vn 0.691098 -0.679646 0.245896
v -0.500173 0.374247 0.198587
vn 0.349309 0.496986 0.794347
v -0.413442 0.0814998 -0.0617362
vn 0.696233 -0.674001 -0.246945
v -0.596483 0.483348 -0.0892645
vn -0.035932 0.933391 -0.357058
v -0.502895 0.196054 -0.22898
vn 0.338418 -0.215782 -0.915921
v -0.54919 0.415044 -0.183828
vn 0.153241 0.660177 -0.735312
v -0.518203 0.302872 -0.234313
vn 0.277186 0.211488 -0.937252
v -0.506754 0.236186 0.236198
vn 0.322982 -0.0552575 0.944791
v -0.533178 0.122009 0.207768
vn 0.21729 -0.511964 0.83107
v -0.500781 0.048265 -0.119511
vn 0.346876 -0.80694 -0.478043
v -0.627208 0.494429 0.0343175
vn -0.158833 0.977716 0.13727
v -0.514707 0.0432995 0.120316
vn 0.291174 -0.826802 0.481264
v -0.556411 0.102098 -0.199144
vn 0.124357 -0.591609 -0.796576
v -0.652097 0.431072 -0.159813
vn -0.258388 0.724289 -0.639251
v -0.502034 0.0151782 -0.0073646
vn 0.341866 -0.939287 -0.0294584
v -0.606661 0.322435 0.238508
vn -0.0766425 0.289742 0.954031
v -0.709291 0.458556 -0.0645855
vn -0.487165 0.834224 -0.258342
v -0.620815 0.440442 0.158499
vn -0.133259 0.761769 0.633996
v -0.609796 0.20734 -0.245322
vn -0.0891821 -0.170641 -0.981289
v -0.615078 0.185665 0.240001
vn -0.11031 -0.257341 0.960004
v -0.604107 0.0208233 -0.0985003
vn -0.0664263 -0.916707 -0.394001
v -0.738032 0.440036 0.0610438
vn -0.602127 0.760145 0.244175
v -0.625648 0.0683658 0.167492
vn -0.152591 -0.726537 0.66997
v -0.639455 0.335107 -0.229254
vn -0.207822 0.340429 -0.917016
v -0.70028 0.256923 0.223008
vn -0.451122 0.0276906 0.892033
v -0.798255 0.376885 -0.044525
vn -0.843022 0.507538 -0.1781
v -0.728947 0.364011 0.171739
vn -0.565787 0.456045 0.686955
v -0.682286 0.105617 -0.180746
vn -0.379144 -0.577531 -0.722985
v -0.618059 0.00569375 0.0433655
vn -0.122236 -0.977225 0.173462
v -0.740168 0.370642 -0.156965
vn -0.610673 0.482569 -0.627859
v -0.725921 0.239512 -0.207917
vn -0.553685 -0.0419533 -0.831669
v -0.716083 0.147342 0.188223
vn -0.514331 -0.410633 0.752891
v -0.811335 0.338188 0.0679763
vn -0.89534 0.352752 0.271905
v -0.726307 0.0495782 -0.0553525
vn -0.555226 -0.801687 -0.22141
v -0.728081 0.0603012 0.082167
vn -0.562323 -0.758795 0.328668
v -0.781603 0.249774 0.157556
vn -0.776413 -0.000904782 0.630224
v -0.790415 0.161365 -0.116058
vn -0.811658 -0.354539 -0.464234
v -0.800165 0.278246 -0.128358
vn -0.85066 0.112984 -0.513432
v -0.788956 0.146983 0.106315
vn -0.805824 -0.412069 0.42526
v -0.835034 0.250792 -0.035022
vn -0.990134 0.00316965 -0.140088
v -0.805951 0.128435 0.00096488
vn -0.873805 -0.486261 0.00385952
v -0.827736 0.222041 0.063286
vn -0.960943 -0.111836 0.253144
g rightSphere
usemtl rightSphere

s 1
f 121//121 122//122 120//120
f 120//120 122//122 113//113
f 117//117 121//121 120//120
f 95//95 81//81 92//92
f 114//114 117//117 108//108
f 116//116 119//119 112//112
f 100//100 89//89 88//88
f 77//77 84//84 91//91
f 73//73 78//78 85//85
f 111//111 110//110 104//104
f 87//87 73//73 85//85
f 100//100 88//88 96//96
f 113//113 116//116 107//107
f 81//81 72//72 69//69
f 71//71 66//66 63//63
f 93//93 78//78 90//90
f 99//99 87//87 85//85
f 67//67 66//66 74//74
f 88//88 89//89 79//79
f 98//98 91//91 102//102
f 82//82 76//76 70//70
f 102//102 113//113 107//107
f 92//92 81//81 79//79
f 89//89 100//100 103//103
f 110//110 106//106 97//97
f 83//83 78//78 71//71
f 84//84 77//77 75//75
f 114//114 108//108 101//101
f 90//90 95//95 101//101
f 93//93 90//90 101//101
f 69//69 76//76 79//79
f 109//109 114//114 101//101
f 76//76 88//88 79//79
f 64//64 67//67 68//68
f 121//121 117//117 114//114
f 87//87 86//86 74//74
f 82//82 70//70 80//80
f 97//97 106//106 102//102
f 72//72 83//83 71//71
f 78//78 73//73 71//71
f 95//95 83//83 81//81
f 92//92 89//89 103//103
f 109//109 92//92 103//103
f 89//89 92//92 79//79
f 117//117 120//120 118//118
f 111//111 99//99 108//108
f 94//94 110//110 97//97
f 119//119 115//115 112//112
f 67//67 75//75 68//68
f 109//109 95//95 92//92
f 84//84 75//75 86//86
f 115//115 103//103 112//112
f 121//121 115//115 119//119
f 82//82 88//88 76//76
f 69//69 72//72 63//63
f 70//70 64//64 68//68
f 88//88 82//82 96//96
f 103//103 100//100 112//112
f 65//65 76//76 69//69
f 122//122 121//121 119//119
f 115//115 109//109 103//103
f 99//99 104//104 87//87
f 106//106 110//110 118//118
f 66//66 73//73 74//74
f 117//117 111//111 108//108
f 73//73 66//66 71//71
f 96//96 98//98 107//107
f 84//84 97//97 91//91
f 106//106 120//120 113//113
f 105//105 100//100 96//96
f 110//110 111//111 118//118
f 75//75 77//77 68//68
f 105//105 116//116 112//112
f 84//84 94//94 97//97
f 77//77 80//80 68//68
f 122//122 116//116 113//113
f 110//110 94//94 104//104
f 70//70 65//65 64//64
f 99//99 111//111 104//104
f 94//94 84//84 86//86
f 109//109 115//115 114//114
f 95//95 109//109 101//101
f 93//93 99//99 85//85
f 65//65 69//69 63//63
f 83//83 95//95 90//90
f 98//98 80//80 91//91
f 72//72 71//71 63//63
f 86//86 75//75 74//74
f 105//105 96//96 107//107
f 100//100 105//105 112//112
f 99//99 93//93 108//108
f 64//64 65//65 63//63
f 91//91 97//97 102//102
f 102//102 106//106 113//113
f 98//98 82//82 80//80
f 115//115 121//121 114//114
f 83//83 72//72 81//81
f 73//73 87//87 74//74
f 111//111 117//117 118//118
f 78//78 83//83 90//90
f 76//76 65//65 70//70
f 80//80 70//70 68//68
f 66//66 67//67 64//64
f 80//80 77//77 91//91
f 108//108 93//93 101//101
f 82//82 98//98 96//96
f 66//66 64//64 63//63
f 104//104 94//94 86//86
f 120//120 106//106 118//118
f 75//75 67//67 74//74
f 81//81 69//69 79//79
f 98//98 102//102 107//107
f 116//116 105//105 107//107
f 87//87 104//104 86//86
f 116//116 122//122 119//119
f 78//78 93//93 85//85


## Object floor
v   1.0000 0.0000 -1.0400
v  -0.9900 0.0000 -1.0400
v  -1.0100 0.0000  0.9900
v   1.0000 0.0000  0.9900
# 4 vertices

vn 0.0000 1.0000 -0.0000
# 1 vertex normals

g floor
usemtl floor

s 1
f 123//123 124//123 125//123 
f 125//123 126//123 123//123 
# 2 faces

## Object ceiling 
v   1.0000 1.5900 -1.0400
v   1.0000 1.5900  0.9900
v  -1.0200 1.5900  0.9900
v  -1.0200 1.5900 -1.0400
# 4 vertices

vn 0.0000 -1.0000 -0.0000
# 1 vertex normals

g ceiling
usemtl ceiling

s 1
f 127//124 128//124 129//124 
f 129//124 130//124 127//124 
# 2 faces

## Object backwall 
v   1.0000 1.5900 -1.0400
v  -1.0200 1.5900 -1.0400
v  -0.9900 0.0000 -1.0400
v   1.0000 0.0000 -1.0400
# 4 vertices

vn 0.0000 0.0000 1.0000
# 1 vertex normals

g backWall
usemtl backWall

s 1
f 131//125 132//125 133//125 
f 133//125 134//125 131//125 
# 2 faces

## Object rightwall 
v  1.0000 1.5900 0.9900
v  1.0000 1.5900 -1.0400
v  1.0000 0.0000 -1.0400
v  1.0000 0.0000 0.9900
# 4 vertices

vn -1.0000 0.0000 -0.0000
# 1 vertex normals

g rightWall
usemtl rightWall

s 1
f 135//126 136//126 137//126 
f 137//126 138//126 135//126 
# 2 faces

## Object leftWall 
v  -1.0200 1.5900 -1.0400
v  -1.0200 1.5900 0.9900
v  -1.0100 0.0000 0.9900
v  -0.9900 0.0000 -1.0400
# 4 vertices

vn 0.9999 0.0135 0.0057
vn 1.0000 0.0063 -0.0000
vn 0.9999 0.0116 0.0042
vn 0.9998 0.0189 0.0098
# 4 vertex normals

g leftWall
usemtl leftWall

s 1
f 139//127 140//128 141//129 
f 141//129 142//130 139//127 
# 2 faces

## Object light
v  0.2300 1.5800 -0.2200
v  0.2300 1.5800 0.1600
v  -0.2400 1.5800 0.1600
v  -0.2400 1.5800 -0.2200
# 4 vertices

vn 0.0000 -1.0000 -0.0000
# 1 vertex normals

g light
usemtl light

s 1
f 143//131 144//131 145//131 
f 145//131 146//131 143//131 
# 2 faces
