mtllib CornellBox-Sphere.mtl

## Object leftSphere

v 0.0752471 0.513829 0.0290256
vn 0.763197 -0.645018 0.0385091
v 0.0865546 0.606536 -0.000827468
vn 0.83046 -0.557077 -0.00117155
v 0.0783185 0.568288 0.0875303
vn 0.795516 -0.593849 0.120404
v 0.0572124 0.534633 -0.0492763
vn 0.765765 -0.639545 -0.0677194
v 0.0437456 0.610111 -0.0817466
vn 0.806674 -0.57842 -0.121275
v 0.0512116 0.694987 -0.0230125
vn 0.874392 -0.483845 -0.0365049
v 0.0219506 0.486301 0.104552
vn 0.705564 -0.694409 0.141331
v 0.0704625 0.655723 0.075566
vn 0.850713 -0.513409 0.112689
v 0.0040676 0.458123 -0.0117341
vn 0.681016 -0.732097 -0.0158533
v -0.0221886 0.523722 -0.108224
vn 0.699302 -0.697057 -0.158392
v -0.0593068 0.438067 0.0654032
vn 0.614535 -0.7836 0.0912029
v 0.0201999 0.589609 0.163382
vn 0.762266 -0.60136 0.239409
v -0.102066 0.444949 -0.0428087
vn 0.58152 -0.811123 -0.0625584
v -0.0683974 0.494379 0.164338
vn 0.630268 -0.738357 0.239982
v -0.032598 0.659674 -0.139213
vn 0.785948 -0.572266 -0.23409
v 0.00982904 0.736373 0.120619
vn 0.869284 -0.449497 0.205662
v -0.160284 0.44066 0.0837542
vn 0.514909 -0.847793 0.126946
v -0.130676 0.532751 -0.146061
vn 0.602257 -0.761943 -0.238182
v -0.177639 0.514841 0.198671
vn 0.523789 -0.788313 0.322812
v -0.0138568 0.777531 -0.0447766
vn 0.906138 -0.414667 -0.0834606
v -0.0728831 0.610829 0.220126
vn 0.690753 -0.629385 0.355998
v -0.156889 0.651256 -0.189389
vn 0.65403 -0.664768 -0.361009
v -0.0977198 0.767803 -0.141615
vn 0.828433 -0.478173 -0.291633
v -0.0997056 0.862121 -0.0443032
vn 0.94035 -0.323898 -0.104075
v -0.0465004 0.830912 0.0562497
vn 0.930725 -0.347023 0.115442
v -0.087401 0.723892 0.218898
vn 0.760443 -0.508882 0.403441
v -0.0748809 0.812357 0.153914
vn 0.868448 -0.383324 0.314421
v -0.165169 0.806393 0.227966
vn 0.745795 -0.431236 0.507766
v -0.190262 0.651493 0.259891
vn 0.580255 -0.652884 0.486874
v -0.251587 0.559577 -0.164395
vn 0.467203 -0.828327 -0.309186
v -0.271177 0.466183 0.104012
vn 0.387813 -0.904724 0.176282
v -0.234563 0.459936 -0.048756
vn 0.439653 -0.89453 -0.0807566
v -0.179563 0.857158 -0.134692
vn 0.85268 -0.3801 -0.358414
v -0.140506 0.899322 0.104782
vn 0.927124 -0.259647 0.270231
v -0.336092 0.514583 -0.0951416
vn 0.31454 -0.93152 -0.182578
v -0.281789 0.683039 -0.208876
vn 0.498374 -0.723908 -0.477054
v -0.194349 0.756612 -0.191308
vn 0.702583 -0.559463 -0.439749
v -0.294918 0.543855 0.208532
vn 0.378477 -0.841813 0.384845
v -0.342737 0.478763 0.00743913
vn 0.288824 -0.957285 0.0136624
v -0.19006 0.937666 -0.0263545
vn 0.976981 -0.196487 -0.0830736
v -0.281607 0.812191 -0.199839
vn 0.622955 -0.535716 -0.570031
v -0.313803 0.647074 0.265773
vn 0.388364 -0.736124 0.554342
v -0.244216 0.97086 0.0954522
vn 0.931599 -0.106133 0.347649
v -0.447437 0.536621 -0.0423259
vn 0.112249 -0.98956 -0.0903884
v -0.376615 0.60444 -0.167295
vn 0.276118 -0.88521 -0.374383
v -0.245575 0.89666 0.208668
vn 0.737685 -0.299627 0.605017
v -0.41067 0.588114 0.212069
vn 0.189335 -0.872994 0.449481
v -0.271924 0.762798 0.275855
vn 0.531157 -0.552412 0.642428
v -0.392176 0.509625 0.110226
vn 0.209756 -0.953951 0.214428
v -0.275565 0.924912 -0.130129
vn 0.830997 -0.278023 -0.481817
v -0.413578 0.750988 -0.214305
vn 0.254401 -0.733015 -0.630848
v -0.296812 0.999203 -0.0202691
vn 0.995054 -0.00390192 -0.0992619
v -0.509884 0.570116 0.11013
vn -0.022268 -0.968476 0.24811
v -0.492801 0.638557 -0.146998
vn 0.0184477 -0.926164 -0.376669
v -0.347606 0.969957 0.190007
vn 0.620961 -0.122417 0.774223
v -0.37498 0.860549 0.268128
vn 0.382252 -0.426375 0.819809
v -0.405905 0.717009 0.276524
vn 0.231364 -0.695825 0.679925
v -0.364556 0.882597 -0.189955
vn 0.518598 -0.449521 -0.727315
v -0.342231 1.02151 0.0837298
vn 0.876975 0.119574 0.465421
v -0.384763 0.980757 -0.123274
vn 0.678496 -0.113301 -0.725814
v -0.578457 0.617936 -0.0403528
vn -0.200085 -0.974359 -0.10291
v -0.522103 0.660188 0.216859
vn -0.0547483 -0.841706 0.537154
v -0.411355 1.04892 -0.00325507
vn 0.875068 0.482932 -0.0321328
v -0.506105 0.794531 0.270817
vn -0.0179553 -0.604329 0.796532
v -0.478269 0.941825 0.241818
vn 0.087039 -0.233012 0.968571
v -0.445815 1.03817 0.136452
vn 0.357194 0.251592 0.899508
v -0.472325 0.893428 -0.194319
vn 0.123909 -0.47716 -0.870037
v -0.495138 1.02482 -0.104002
vn 0.0454208 0.231917 -0.971675
v -0.614651 0.87257 0.243721
vn -0.384781 -0.427669 0.81795
v -0.61166 0.740476 0.215423
vn -0.314283 -0.730466 0.606338
v -0.581565 0.937119 -0.169054
vn -0.412039 -0.317653 -0.854003
v -0.624008 0.654756 0.113595
vn -0.322916 -0.899014 0.295802
v -0.68417 0.696186 -0.0112368
vn -0.518125 -0.854721 -0.0316124
v -0.624055 1.04649 -0.080878
vn -0.799243 0.299495 -0.52107
v -0.528981 1.07977 0.0311153
vn -0.320611 0.882451 0.344222
v -0.577976 1.01834 0.18761
vn -0.382242 0.0899276 0.919676
v -0.72131 0.775441 0.142128
vn -0.639919 -0.649316 0.410965
v -0.59502 0.764815 -0.169344
vn -0.311554 -0.771126 -0.555247
v -0.715807 0.952304 0.186585
vn -0.74611 -0.1649 0.645079
v -0.691009 0.916155 -0.138652
vn -0.762581 -0.334741 -0.55355
v -0.716591 0.794385 -0.0964493
vn -0.690145 -0.655172 -0.307326
v -0.766573 0.787114 0.0102288
vn -0.781049 -0.62375 0.0299701
v -0.668027 1.07764 0.0747531
vn -0.841732 0.388915 0.374476
v -0.757777 1.01928 -0.0453548
vn -0.98221 0.0734793 -0.172816
v -0.782053 0.876699 -0.0571554
vn -0.900876 -0.393823 -0.182554
v -0.808406 0.886717 0.0777732
vn -0.913436 -0.335522 0.230348
v -0.772403 1.01872 0.101134
vn -0.935535 0.0642998 0.347332
v -0.0851707 0.625076 0.0329053
vn 0.740608 -0.669364 0.0587469
v -0.284121 0.71672 0.0296408
vn 0.604038 -0.792628 0.0829361
v -0.665253 0.912832 0.0452183
vn -0.859673 -0.453462 0.235233
v -0.498654 0.872294 -0.0858675
vn 0.00874704 -0.829822 -0.557959
v -0.609028 0.865171 -0.0682533
vn -0.585087 -0.723545 -0.366273
v -0.548618 0.88605 0.158924
vn -0.241271 -0.565489 0.788676
v -0.600268 0.786086 0.0236996
vn -0.422301 -0.900943 0.0998157
v -0.512461 0.924717 0.035417
vn -0.148122 -0.894886 0.420998
v -0.366679 0.897224 0.0789776
vn 0.716998 -0.552728 0.424741
v -0.472908 0.730827 0.00563602
vn 0.10012 -0.994757 0.0208285
v -0.462464 0.831423 0.148247
vn 0.164916 -0.740653 0.651334
v -0.578488 0.957509 -0.0573106
vn -0.739978 -0.400606 -0.540321
v -0.384306 0.861479 -0.068093
vn 0.599766 -0.718104 -0.352999
g leftSphere
usemtl leftSphere

s 1
f 75//75 76//76 66//66
f 77//77 82//82 73//73
f 46//46 43//43 55//55
f 72//72 77//77 73//73
f 43//43 59//59 55//55
f 77//77 86//86 82//82
f 53//53 44//44 49//49
f 8//8 12//12 3//3
f 3//3 12//12 7//7
f 2//2 8//8 3//3
f 74//74 84//84 83//83
f 74//74 68//68 71//71
f 79//79 87//87 86//86
f 2//2 4//4 5//5
f 38//38 47//47 49//49
f 76//76 83//83 79//79
f 50//50 58//58 60//60
f 46//46 34//34 43//43
f 30//30 22//22 18//18
f 75//75 66//66 63//63
f 20//20 25//25 16//16
f 6//6 15//15 20//20
f 52//52 50//50 60//60
f 2//2 3//3 1//1
f 36//36 45//45 51//51
f 66//66 55//55 59//59
f 16//16 26//26 21//21
f 16//16 25//25 27//27
f 50//50 52//52 40//40
f 13//13 10//10 9//9
f 24//24 25//25 20//20
f 44//44 39//39 49//49
f 14//14 19//19 17//17
f 24//24 23//23 33//33
f 31//31 19//19 38//38
f 22//22 15//15 18//18
f 43//43 34//34 40//40
f 31//31 39//39 32//32
f 16//16 8//8 6//6
f 21//21 26//26 29//29
f 57//57 56//56 64//64
f 47//47 62//62 53//53
f 3//3 7//7 1//1
f 29//29 48//48 42//42
f 30//30 45//45 36//36
f 76//76 69//69 65//65
f 28//28 34//34 46//46
f 17//17 11//11 14//14
f 46//46 56//56 48//48
f 84//84 80//80 85//85
f 43//43 52//52 59//59
f 77//77 69//69 79//79
f 56//56 55//55 65//65
f 67//67 51//51 78//78
f 75//75 83//83 76//76
f 17//17 32//32 13//13
f 48//48 28//28 46//46
f 6//6 8//8 2//2
f 79//79 69//69 76//76
f 44//44 45//45 35//35
f 5//5 6//6 2//2
f 16//16 12//12 8//8
f 58//58 41//41 51//51
f 21//21 12//12 16//16
f 48//48 56//56 57//57
f 58//58 51//51 67//67
f 23//23 15//15 22//22
f 27//27 34//34 28//28
f 73//73 81//81 78//78
f 14//14 12//12 21//21
f 10//10 15//15 5//5
f 80//80 84//84 74//74
f 29//29 19//19 21//21
f 70//70 77//77 72//72
f 24//24 34//34 25//25
f 28//28 26//26 27//27
f 49//49 39//39 31//31
f 40//40 33//33 50//50
f 83//83 84//84 87//87
f 5//5 15//15 6//6
f 17//17 19//19 31//31
f 38//38 29//29 42//42
f 49//49 47//47 53//53
f 68//68 67//67 71//71
f 9//9 11//11 13//13
f 42//42 47//47 38//38
f 65//65 66//66 76//76
f 1//1 4//4 2//2
f 85//85 81//81 82//82
f 68//68 60//60 67//67
f 16//16 6//6 20//20
f 79//79 86//86 77//77
f 13//13 11//11 17//17
f 86//86 85//85 82//82
f 39//39 44//44 35//35
f 64//64 56//56 65//65
f 78//78 61//61 73//73
f 79//79 83//83 87//87
f 54//54 61//61 78//78
f 87//87 84//84 86//86
f 73//73 61//61 72//72
f 84//84 85//85 86//86
f 48//48 57//57 42//42
f 59//59 63//63 66//66
f 25//25 34//34 27//27
f 14//14 11//11 7//7
f 28//28 48//48 29//29
f 29//29 26//26 28//28
f 51//51 54//54 78//78
f 70//70 62//62 64//64
f 20//20 23//23 24//24
f 54//54 45//45 44//44
f 32//32 30//30 18//18
f 74//74 75//75 68//68
f 71//71 80//80 74//74
f 65//65 55//55 66//66
f 74//74 83//83 75//75
f 56//56 46//46 55//55
f 53//53 72//72 61//61
f 71//71 78//78 80//80
f 62//62 47//47 57//57
f 71//71 67//67 78//78
f 58//58 67//67 60//60
f 80//80 81//81 85//85
f 13//13 18//18 10//10
f 59//59 52//52 63//63
f 21//21 19//19 14//14
f 44//44 53//53 61//61
f 9//9 4//4 1//1
f 77//77 70//70 69//69
f 37//37 23//23 22//22
f 1//1 7//7 9//9
f 5//5 4//4 10//10
f 62//62 57//57 64//64
f 80//80 78//78 81//81
f 33//33 23//23 37//37
f 40//40 34//34 24//24
f 32//32 18//18 13//13
f 50//50 41//41 58//58
f 75//75 63//63 68//68
f 37//37 41//41 33//33
f 10//10 4//4 9//9
f 7//7 11//11 9//9
f 63//63 52//52 60//60
f 57//57 47//47 42//42
f 49//49 31//31 38//38
f 35//35 32//32 39//39
f 31//31 32//32 17//17
f 73//73 82//82 81//81
f 30//30 32//32 35//35
f 20//20 15//15 23//23
f 27//27 26//26 16//16
f 35//35 45//45 30//30
f 36//36 37//37 22//22
f 7//7 12//12 14//14
f 36//36 41//41 37//37
f 18//18 15//15 10//10
f 70//70 64//64 69//69
f 33//33 41//41 50//50
f 54//54 44//44 61//61
f 24//24 33//33 40//40
f 51//51 45//45 54//54
f 40//40 52//52 43//43
f 38//38 19//19 29//29
f 51//51 41//41 36//36
f 72//72 62//62 70//70
f 22//22 30//30 36//36
f 53//53 62//62 72//72
f 69//69 64//64 65//65
f 63//63 60//60 68//68

## Object rightSphere

v -0.5875 0.25 0
vn 0 0 0
v -0.3375 0.25 0
vn 1 0 0
v -0.363893 0.361804 0
vn 0.894427 0.447214 0
v -0.356335 0.298578 0.0818727
vn 0.924658 0.194311 0.327491
v -0.365269 0.304668 -0.100621
vn 0.888925 0.218673 -0.402486
v -0.403472 0.399769 -0.078758
vn 0.736112 0.599077 -0.315032
v -0.432693 0.446087 0.00919147
vn 0.61923 0.784348 0.0367659
v -0.363941 0.188416 0.0934285
vn 0.894236 -0.246334 0.373714
v -0.410629 0.387968 0.110368
vn 0.707486 0.551874 0.441473
v -0.367473 0.191604 -0.103335
vn 0.880107 -0.233582 -0.413341
v -0.358458 0.149801 -8.75488e-05
vn 0.916168 -0.400795 -0.000350195
v -0.421135 0.251713 -0.186601
vn 0.665458 0.00685229 -0.746404
v -0.444167 0.364414 -0.169897
vn 0.573332 0.457656 -0.67959
v -0.485119 0.455304 -0.0993403
vn 0.409525 0.821214 -0.397361
v -0.409409 0.274129 0.173785
vn 0.712366 0.096514 0.69514
v -0.527304 0.492563 -0.00629535
vn 0.240784 0.970252 -0.0251814
v -0.442748 0.137095 -0.169703
vn 0.579009 -0.45162 -0.678813
v -0.436004 0.146356 0.169726
vn 0.605982 -0.414577 0.678905
v -0.511892 0.464419 0.103961
vn 0.302433 0.857675 0.415846
v -0.414726 0.0800885 0.061474
vn 0.691098 -0.679646 0.245896
v -0.500173 0.374247 0.198587
vn 0.349309 0.496986 0.794347
v -0.413442 0.0814998 -0.0617362
vn 0.696233 -0.674001 -0.246945
v -0.596483 0.483348 -0.0892645
vn -0.035932 0.933391 -0.357058
v -0.502895 0.196054 -0.22898
vn 0.338418 -0.215782 -0.915921
v -0.54919 0.415044 -0.183828
vn 0.153241 0.660177 -0.735312
v -0.518203 0.302872 -0.234313
vn 0.277186 0.211488 -0.937252
v -0.506754 0.236186 0.236198
vn 0.322982 -0.0552575 0.944791
v -0.533178 0.122009 0.207768
vn 0.21729 -0.511964 0.83107
v -0.500781 0.048265 -0.119511
vn 0.346876 -0.80694 -0.478043
v -0.627208 0.494429 0.0343175
vn -0.158833 0.977716 0.13727
v -0.514707 0.0432995 0.120316
vn 0.291174 -0.826802 0.481264
v -0.556411 0.102098 -0.199144
vn 0.124357 -0.591609 -0.796576
v -0.652097 0.431072 -0.159813
vn -0.258388 0.724289 -0.639251
v -0.502034 0.0151782 -0.0073646
vn 0.341866 -0.939287 -0.0294584
v -0.606661 0.322435 0.238508
vn -0.0766425 0.289742 0.954031
v -0.709291 0.458556 -0.0645855
vn -0.487165 0.834224 -0.258342
v -0.620815 0.440442 0.158499
vn -0.133259 0.761769 0.633996
v -0.609796 0.20734 -0.245322
vn -0.0891821 -0.170641 -0.981289
v -0.615078 0.185665 0.240001
vn -0.11031 -0.257341 0.960004
v -0.604107 0.0208233 -0.0985003
vn -0.0664263 -0.916707 -0.394001
v -0.738032 0.440036 0.0610438
vn -0.602127 0.760145 0.244175
v -0.625648 0.0683658 0.167492
vn -0.152591 -0.726537 0.66997
v -0.639455 0.335107 -0.229254
vn -0.207822 0.340429 -0.917016
v -0.70028 0.256923 0.223008
vn -0.451122 0.0276906 0.892033
v -0.798255 0.376885 -0.044525
vn -0.843022 0.507538 -0.1781
v -0.728947 0.364011 0.171739
vn -0.565787 0.456045 0.686955
v -0.682286 0.105617 -0.180746
vn -0.379144 -0.577531 -0.722985
v -0.618059 0.00569375 0.0433655
vn -0.122236 -0.977225 0.173462
v -0.740168 0.370642 -0.156965
vn -0.610673 0.482569 -0.627859
v -0.725921 0.239512 -0.207917
vn -0.553685 -0.0419533 -0.831669
v -0.716083 0.147342 0.188223
vn -0.514331 -0.410633 0.752891
v -0.811335 0.338188 0.0679763
vn -0.89534 0.352752 0.271905
v -0.726307 0.0495782 -0.0553525
vn -0.555226 -0.801687 -0.22141
v -0.728081 0.0603012 0.082167
vn -0.562323 -0.758795 0.328668
v -0.781603 0.249774 0.157556
vn -0.776413 -0.000904782 0.630224
v -0.790415 0.161365 -0.116058
vn -0.811658 -0.354539 -0.464234
v -0.800165 0.278246 -0.128358
vn -0.85066 0.112984 -0.513432
v -0.788956 0.146983 0.106315
vn -0.805824 -0.412069 0.42526
v -0.835034 0.250792 -0.035022
vn -0.990134 0.00316965 -0.140088
v -0.805951 0.128435 0.00096488
vn -0.873805 -0.486261 0.00385952
v -0.827736 0.222041 0.063286
vn -0.960943 -0.111836 0.253144
g rightSphere
usemtl rightSphere

s 1
f 160//160 161//161 159//159
f 159//159 161//161 152//152
f 156//156 160//160 159//159
f 134//134 120//120 131//131
f 153//153 156//156 147//147
f 155//155 158//158 151//151
f 139//139 128//128 127//127
f 116//116 123//123 130//130
f 112//112 117//117 124//124
f 150//150 149//149 143//143
f 126//126 112//112 124//124
f 139//139 127//127 135//135
f 152//152 155//155 146//146
f 120//120 111//111 108//108
f 110//110 105//105 102//102
f 132//132 117//117 129//129
f 138//138 126//126 124//124
f 106//106 105//105 113//113
f 127//127 128//128 118//118
f 137//137 130//130 141//141
f 121//121 115//115 109//109
f 141//141 152//152 146//146
f 131//131 120//120 118//118
f 128//128 139//139 142//142
f 149//149 145//145 136//136
f 122//122 117//117 110//110
f 123//123 116//116 114//114
f 153//153 147//147 140//140
f 129//129 134//134 140//140
f 132//132 129//129 140//140
f 108//108 115//115 118//118
f 148//148 153//153 140//140
f 115//115 127//127 118//118
f 103//103 106//106 107//107
f 160//160 156//156 153//153
f 126//126 125//125 113//113
f 121//121 109//109 119//119
f 136//136 145//145 141//141
f 111//111 122//122 110//110
f 117//117 112//112 110//110
f 134//134 122//122 120//120
f 131//131 128//128 142//142
f 148//148 131//131 142//142
f 128//128 131//131 118//118
f 156//156 159//159 157//157
f 150//150 138//138 147//147
f 133//133 149//149 136//136
f 158//158 154//154 151//151
f 106//106 114//114 107//107
f 148//148 134//134 131//131
f 123//123 114//114 125//125
f 154//154 142//142 151//151
f 160//160 154//154 158//158
f 121//121 127//127 115//115
f 108//108 111//111 102//102
f 109//109 103//103 107//107
f 127//127 121//121 135//135
f 142//142 139//139 151//151
f 104//104 115//115 108//108
f 161//161 160//160 158//158
f 154//154 148//148 142//142
f 138//138 143//143 126//126
f 145//145 149//149 157//157
f 105//105 112//112 113//113
f 156//156 150//150 147//147
f 112//112 105//105 110//110
f 135//135 137//137 146//146
f 123//123 136//136 130//130
f 145//145 159//159 152//152
f 144//144 139//139 135//135
f 149//149 150//150 157//157
f 114//114 116//116 107//107
f 144//144 155//155 151//151
f 123//123 133//133 136//136
f 116//116 119//119 107//107
f 161//161 155//155 152//152
f 149//149 133//133 143//143
f 109//109 104//104 103//103
f 138//138 150//150 143//143
f 133//133 123//123 125//125
f 148//148 154//154 153//153
f 134//134 148//148 140//140
f 132//132 138//138 124//124
f 104//104 108//108 102//102
f 122//122 134//134 129//129
f 137//137 119//119 130//130
f 111//111 110//110 102//102
f 125//125 114//114 113//113
f 144//144 135//135 146//146
f 139//139 144//144 151//151
f 138//138 132//132 147//147
f 103//103 104//104 102//102
f 130//130 136//136 141//141
f 141//141 145//145 152//152
f 137//137 121//121 119//119
f 154//154 160//160 153//153
f 122//122 111//111 120//120
f 112//112 126//126 113//113
f 150//150 156//156 157//157
f 117//117 122//122 129//129
f 115//115 104//104 109//109
f 119//119 109//109 107//107
f 105//105 106//106 103//103
f 119//119 116//116 130//130
f 147//147 132//132 140//140
f 121//121 137//137 135//135
f 105//105 103//103 102//102
f 143//143 133//133 125//125
f 159//159 145//145 157//157
f 114//114 106//106 113//113
f 120//120 108//108 118//118
f 137//137 141//141 146//146
f 155//155 144//144 146//146
f 126//126 143//143 125//125
f 155//155 161//161 158//158
f 117//117 132//132 124//124


## Object floor
v   1.0000 0.0000 -1.0400
v  -0.9900 0.0000 -1.0400
v  -1.0100 0.0000  0.9900
v   1.0000 0.0000  0.9900
# 4 vertices

vn 0.0000 1.0000 -0.0000
# 1 vertex normals

g floor
usemtl floor

s 1
f 162//162 163//162 164//162 
f 164//162 165//162 162//162 
# 2 faces

## Object ceiling 
v   1.0000 1.5900 -1.0400
v   1.0000 1.5900  0.9900
v  -1.0200 1.5900  0.9900
v  -1.0200 1.5900 -1.0400
# 4 vertices

vn 0.0000 -1.0000 -0.0000
# 1 vertex normals

g ceiling
usemtl ceiling

s 1
f 166//163 167//163 168//163 
f 168//163 169//163 166//163 
# 2 faces

## Object backwall 
v   1.0000 1.5900 -1.0400
v  -1.0200 1.5900 -1.0400
v  -0.9900 0.0000 -1.0400
v   1.0000 0.0000 -1.0400
# 4 vertices

vn 0.0000 0.0000 1.0000
# 1 vertex normals

g backWall
usemtl backWall

s 1
f 170//164 171//164 172//164 
f 172//164 173//164 170//164 
# 2 faces

## Object rightwall 
v  1.0000 1.5900 0.9900
v  1.0000 1.5900 -1.0400
v  1.0000 0.0000 -1.0400
v  1.0000 0.0000 0.9900
# 4 vertices

vn -1.0000 0.0000 -0.0000
# 1 vertex normals

g rightWall
usemtl rightWall

s 1
f 174//165 175//165 176//165 
f 176//165 177//165 174//165 
# 2 faces

## Object leftWall 
v  -1.0200 1.5900 -1.0400
v  -1.0200 1.5900 0.9900
v  -1.0100 0.0000 0.9900
v  -0.9900 0.0000 -1.0400
# 4 vertices

vn 0.9999 0.0135 0.0057
vn 1.0000 0.0063 -0.0000
vn 0.9999 0.0116 0.0042
vn 0.9998 0.0189 0.0098
# 4 vertex normals

g leftWall
usemtl leftWall

s 1
f 178//166 179//167 180//168 
f 180//168 181//169 178//166 
# 2 faces

## Object light
v  0.2300 1.5800 -0.2200
v  0.2300 1.5800 0.1600
v  -0.2400 1.5800 0.1600
v  -0.2400 1.5800 -0.2200
# 4 vertices

vn 0.0000 -1.0000 -0.0000
# 1 vertex normals

g light
usemtl light

s 1
f 182//170 183//170 184//170 
f 184//170 185//170 182//170 
# 2 faces
