mtllib CornellBox-Sphere.mtl

## Object leftSphere

v 0.0390912 0.334555 0.137019
vn 0.621574 -0.76726 0.157983
v 0.0891063 0.384353 0.0698153
vn 0.689052 -0.720096 0.0816599
v 0.0945269 0.384264 0.165805
vn 0.681931 -0.706258 0.190181
v 0.00846362 0.342824 0.0605351
vn 0.610317 -0.788818 0.0726612
v 0.0304015 0.396686 0.00179945
vn 0.660265 -0.751029 0.00224003
v 0.106093 0.464734 0.0180809
vn 0.749357 -0.661789 0.0223548
v 0.0131498 0.369588 0.223838
vn 0.608635 -0.747716 0.265489
v 0.134053 0.447712 0.119275
vn 0.746579 -0.650304 0.140443
v -0.0599269 0.334348 0.133965
vn 0.543879 -0.822669 0.165565
v -0.0773864 0.374975 0.0226212
vn 0.559878 -0.828033 0.0299685
v -0.088642 0.381507 0.220951
vn 0.530809 -0.798093 0.285112
v 0.0933454 0.456834 0.232244
vn 0.708664 -0.648733 0.277381
v -0.156338 0.388592 0.126039
vn 0.48226 -0.857987 0.17687
v -0.0250524 0.450824 0.286474
vn 0.608489 -0.703588 0.367021
v -0.0167585 0.468339 -0.0606244
vn 0.670225 -0.737379 -0.0840822
v 0.152403 0.555937 0.133121
vn 0.815158 -0.554844 0.166331
v -0.154668 0.455375 0.250571
vn 0.499142 -0.787202 0.362175
v -0.165283 0.444316 -0.00108963
vn 0.515975 -0.856602 -0.00167969
v -0.0807633 0.547351 0.322675
vn 0.602132 -0.650121 0.463444
v 0.0988603 0.56065 -0.0278909
vn 0.805718 -0.591109 -0.0375249
v 0.0589798 0.548553 0.286761
vn 0.722547 -0.583548 0.370672
v -0.130921 0.532663 -0.0866812
vn 0.613314 -0.776593 -0.144042
v -0.00244471 0.585407 -0.101132
vn 0.759051 -0.632486 -0.154283
v 0.0846829 0.676836 -0.0547353
vn 0.872287 -0.482128 -0.0816594
v 0.142015 0.644328 0.0425452
vn 0.873271 -0.483786 0.0578702
v 0.11184 0.636592 0.23884
vn 0.815093 -0.484132 0.318183
v 0.146609 0.673914 0.140928
vn 0.876444 -0.441992 0.19102
v 0.105122 0.747975 0.221064
vn 0.874733 -0.364314 0.319559
v 0.0109037 0.666328 0.320348
vn 0.741311 -0.484151 0.464819
v -0.245256 0.538348 -0.0127895
vn 0.482992 -0.875289 -0.0242488
v -0.214299 0.552594 0.27136
vn 0.479218 -0.750452 0.455162
v -0.247295 0.485432 0.132161
vn 0.429545 -0.874657 0.224645
v -0.0107774 0.701343 -0.124141
vn 0.834183 -0.509247 -0.211675
v 0.130157 0.766256 0.0671806
vn 0.932929 -0.346052 0.0994588
v -0.308562 0.579853 0.0799535
vn 0.408551 -0.896644 0.17063
v -0.214695 0.630923 -0.101165
vn 0.5977 -0.7732 -0.211936
v -0.0998823 0.627929 -0.129036
vn 0.712701 -0.662744 -0.229842
v -0.147598 0.647966 0.33451
vn 0.587327 -0.586713 0.557508
v -0.29568 0.585497 0.18727
vn 0.409765 -0.831288 0.37557
v 0.067123 0.791773 -0.0614918
vn 0.9339 -0.342895 -0.101261
v -0.136715 0.720288 -0.149597
vn 0.753265 -0.579979 -0.310187
v -0.0820038 0.74638 0.342884
vn 0.69996 -0.424703 0.57418
v 0.0928206 0.880744 0.0394916
vn 0.978276 -0.196796 0.0651692
v -0.357422 0.685967 0.131553
vn 0.386262 -0.850755 0.356395
v -0.315129 0.651418 -0.0164144
vn 0.46813 -0.882681 -0.0415646
v 0.091828 0.858871 0.174787
vn 0.934912 -0.222941 0.276111
v -0.206543 0.759725 0.330003
vn 0.58371 -0.477928 0.656404
v 0.019246 0.801176 0.296083
vn 0.824291 -0.315628 0.470025
v -0.274851 0.666713 0.27143
vn 0.464006 -0.686866 0.559387
v -0.0406005 0.811111 -0.138942
vn 0.890684 -0.366218 -0.269381
v -0.272843 0.763504 -0.117221
vn 0.652299 -0.679117 -0.336609
v 0.0282249 0.905211 -0.0714034
vn 0.97568 -0.175084 -0.131889
v -0.325751 0.791132 0.257992
vn 0.464791 -0.557133 0.688165
v -0.371356 0.760989 0.000569324
vn 0.473946 -0.880552 0.00209748
v 0.0540575 0.972657 0.135725
vn 0.970168 -0.0478779 0.237658
v -0.000182003 0.936586 0.257822
vn 0.883132 -0.112047 0.455548
v -0.103454 0.86016 0.331897
vn 0.740258 -0.261049 0.619573
v -0.152007 0.825787 -0.162103
vn 0.825456 -0.413242 -0.384517
v 0.0480051 0.97769 0.0167633
vn 0.998706 -0.0406581 0.0305502
v -0.0834599 0.92379 -0.145055
vn 0.930588 -0.17026 -0.324065
v -0.404937 0.834516 0.112137
vn 0.429464 -0.747608 0.506599
v -0.242271 0.888447 0.31513
vn 0.610575 -0.264276 0.746563
v -0.0176517 1.02116 -0.0660759
vn 0.989813 0.0434173 -0.135592
v -0.131258 0.982349 0.302551
vn 0.772551 -0.0369806 0.633875
v -0.035146 1.05686 0.207417
vn 0.907572 0.111016 0.404956
v 0.00420535 1.07359 0.066533
vn 0.981188 0.143201 0.129474
v -0.222183 0.905289 -0.159045
vn 0.832191 -0.283704 -0.476414
v -0.126822 1.03561 -0.13613
vn 0.935694 0.0892882 -0.341327
v -0.173247 1.10421 0.253839
vn 0.765793 0.244222 0.59491
v -0.259699 1.00492 0.287739
vn 0.640946 0.0131158 0.767474
v -0.262733 1.01647 -0.145762
vn 0.85057 0.0590475 -0.522537
v -0.357742 0.929453 0.236897
vn 0.498816 -0.247366 0.830658
v -0.42202 0.967106 0.1123
vn 0.554538 -0.233922 0.798604
v -0.198093 1.14452 -0.112857
vn 0.854702 0.40915 -0.3195
v -0.0698363 1.13331 -0.0367471
vn 0.952019 0.295036 -0.081327
v -0.0825907 1.16454 0.134587
vn 0.891099 0.351267 0.287321
v -0.344224 1.08604 0.21675
vn 0.555457 0.30681 0.772875
v -0.373443 0.909639 -0.0675664
vn 0.746431 -0.532949 -0.398506
v -0.220982 1.21407 0.176257
vn 0.709294 0.544187 0.448066
v -0.342305 1.08318 -0.0992962
vn 0.772736 0.407587 -0.486571
v -0.41638 1.03039 -0.00519035
vn 0.938267 0.340974 -0.0582389
v -0.418201 1.08872 0.0974968
vn 0.52727 0.571869 0.628453
v -0.156443 1.239 0.0161679
vn 0.820289 0.570646 0.0386031
v -0.300017 1.22382 -0.0573379
vn 0.654447 0.732455 -0.187639
v -0.402836 1.13983 -0.00170704
vn 0.570601 0.821166 -0.0100246
v -0.367491 1.20243 0.116501
vn 0.49345 0.753849 0.433841
v -0.257771 1.2752 0.0747886
vn 0.647373 0.735498 0.199877
v -0.0137222 0.521153 0.11595
vn 0.702463 -0.691729 0.167498
v -0.109114 0.716114 0.0981583
vn 0.792922 -0.575871 0.199117
v -0.258331 1.11565 0.0639085
vn 0.877418 0.419882 0.23203
v -0.211209 0.938368 -0.0506478
vn 0.963901 -0.205711 -0.169048
v -0.286876 1.01376 -0.0209502
vn 0.993155 0.0641258 -0.0976274
v -0.149125 1.04613 0.166072
vn 0.897554 0.117997 0.424821
v -0.295358 0.979474 0.0956873
vn 0.902148 -0.0904889 0.42183
v -0.146314 1.01597 0.0353321
vn 0.994045 0.0448807 0.0993018
v -0.0435682 0.907805 0.0712206
vn 0.968936 -0.195716 0.151191
v -0.245146 0.850212 0.0916061
vn 0.823487 -0.483998 0.295999
v -0.123891 0.946872 0.172564
vn 0.901499 -0.127343 0.413621
v -0.207464 1.05922 -0.0557745
vn 0.96344 0.195041 -0.183688
v -0.13162 0.85681 -0.0417776
vn 0.926899 -0.360288 -0.105118
g leftSphere
usemtl leftSphere

s 1
f 75//75 76//76 66//66
f 77//77 82//82 73//73
f 46//46 43//43 55//55
f 72//72 77//77 73//73
f 43//43 59//59 55//55
f 77//77 86//86 82//82
f 53//53 44//44 49//49
f 8//8 12//12 3//3
f 3//3 12//12 7//7
f 2//2 8//8 3//3
f 74//74 84//84 83//83
f 74//74 68//68 71//71
f 79//79 87//87 86//86
f 2//2 4//4 5//5
f 38//38 47//47 49//49
f 76//76 83//83 79//79
f 50//50 58//58 60//60
f 46//46 34//34 43//43
f 30//30 22//22 18//18
f 75//75 66//66 63//63
f 20//20 25//25 16//16
f 6//6 15//15 20//20
f 52//52 50//50 60//60
f 2//2 3//3 1//1
f 36//36 45//45 51//51
f 66//66 55//55 59//59
f 16//16 26//26 21//21
f 16//16 25//25 27//27
f 50//50 52//52 40//40
f 13//13 10//10 9//9
f 24//24 25//25 20//20
f 44//44 39//39 49//49
f 14//14 19//19 17//17
f 24//24 23//23 33//33
f 31//31 19//19 38//38
f 22//22 15//15 18//18
f 43//43 34//34 40//40
f 31//31 39//39 32//32
f 16//16 8//8 6//6
f 21//21 26//26 29//29
f 57//57 56//56 64//64
f 47//47 62//62 53//53
f 3//3 7//7 1//1
f 29//29 48//48 42//42
f 30//30 45//45 36//36
f 76//76 69//69 65//65
f 28//28 34//34 46//46
f 17//17 11//11 14//14
f 46//46 56//56 48//48
f 84//84 80//80 85//85
f 43//43 52//52 59//59
f 77//77 69//69 79//79
f 56//56 55//55 65//65
f 67//67 51//51 78//78
f 75//75 83//83 76//76
f 17//17 32//32 13//13
f 48//48 28//28 46//46
f 6//6 8//8 2//2
f 79//79 69//69 76//76
f 44//44 45//45 35//35
f 5//5 6//6 2//2
f 16//16 12//12 8//8
f 58//58 41//41 51//51
f 21//21 12//12 16//16
f 48//48 56//56 57//57
f 58//58 51//51 67//67
f 23//23 15//15 22//22
f 27//27 34//34 28//28
f 73//73 81//81 78//78
f 14//14 12//12 21//21
f 10//10 15//15 5//5
f 80//80 84//84 74//74
f 29//29 19//19 21//21
f 70//70 77//77 72//72
f 24//24 34//34 25//25
f 28//28 26//26 27//27
f 49//49 39//39 31//31
f 40//40 33//33 50//50
f 83//83 84//84 87//87
f 5//5 15//15 6//6
f 17//17 19//19 31//31
f 38//38 29//29 42//42
f 49//49 47//47 53//53
f 68//68 67//67 71//71
f 9//9 11//11 13//13
f 42//42 47//47 38//38
f 65//65 66//66 76//76
f 1//1 4//4 2//2
f 85//85 81//81 82//82
f 68//68 60//60 67//67
f 16//16 6//6 20//20
f 79//79 86//86 77//77
f 13//13 11//11 17//17
f 86//86 85//85 82//82
f 39//39 44//44 35//35
f 64//64 56//56 65//65
f 78//78 61//61 73//73
f 79//79 83//83 87//87
f 54//54 61//61 78//78
f 87//87 84//84 86//86
f 73//73 61//61 72//72
f 84//84 85//85 86//86
f 48//48 57//57 42//42
f 59//59 63//63 66//66
f 25//25 34//34 27//27
f 14//14 11//11 7//7
f 28//28 48//48 29//29
f 29//29 26//26 28//28
f 51//51 54//54 78//78
f 70//70 62//62 64//64
f 20//20 23//23 24//24
f 54//54 45//45 44//44
f 32//32 30//30 18//18
f 74//74 75//75 68//68
f 71//71 80//80 74//74
f 65//65 55//55 66//66
f 74//74 83//83 75//75
f 56//56 46//46 55//55
f 53//53 72//72 61//61
f 71//71 78//78 80//80
f 62//62 47//47 57//57
f 71//71 67//67 78//78
f 58//58 67//67 60//60
f 80//80 81//81 85//85
f 13//13 18//18 10//10
f 59//59 52//52 63//63
f 21//21 19//19 14//14
f 44//44 53//53 61//61
f 9//9 4//4 1//1
f 77//77 70//70 69//69
f 37//37 23//23 22//22
f 1//1 7//7 9//9
f 5//5 4//4 10//10
f 62//62 57//57 64//64
f 80//80 78//78 81//81
f 33//33 23//23 37//37
f 40//40 34//34 24//24
f 32//32 18//18 13//13
f 50//50 41//41 58//58
f 75//75 63//63 68//68
f 37//37 41//41 33//33
f 10//10 4//4 9//9
f 7//7 11//11 9//9
f 63//63 52//52 60//60
f 57//57 47//47 42//42
f 49//49 31//31 38//38
f 35//35 32//32 39//39
f 31//31 32//32 17//17
f 73//73 82//82 81//81
f 30//30 32//32 35//35
f 20//20 15//15 23//23
f 27//27 26//26 16//16
f 35//35 45//45 30//30
f 36//36 37//37 22//22
f 7//7 12//12 14//14
f 36//36 41//41 37//37
f 18//18 15//15 10//10
f 70//70 64//64 69//69
f 33//33 41//41 50//50
f 54//54 44//44 61//61
f 24//24 33//33 40//40
f 51//51 45//45 54//54
f 40//40 52//52 43//43
f 38//38 19//19 29//29
f 51//51 41//41 36//36
f 72//72 62//62 70//70
f 22//22 30//30 36//36
f 53//53 62//62 72//72
f 69//69 64//64 65//65
f 63//63 60//60 68//68

## Object rightSphere

v -0.5875 0.25 0
vn 0 0 0
v -0.3375 0.25 0
vn 1 0 0
v -0.363893 0.361804 0
vn 0.894427 0.447214 0
v -0.356335 0.298578 0.0818727
vn 0.924658 0.194311 0.327491
v -0.365269 0.304668 -0.100621
vn 0.888925 0.218673 -0.402486
v -0.403472 0.399769 -0.078758
vn 0.736112 0.599077 -0.315032
v -0.432693 0.446087 0.00919147
vn 0.61923 0.784348 0.0367659
v -0.363941 0.188416 0.0934285
vn 0.894236 -0.246334 0.373714
v -0.410629 0.387968 0.110368
vn 0.707486 0.551874 0.441473
v -0.367473 0.191604 -0.103335
vn 0.880107 -0.233582 -0.413341
v -0.358458 0.149801 -8.75488e-05
vn 0.916168 -0.400795 -0.000350195
v -0.421135 0.251713 -0.186601
vn 0.665458 0.00685229 -0.746404
v -0.444167 0.364414 -0.169897
vn 0.573332 0.457656 -0.67959
v -0.485119 0.455304 -0.0993403
vn 0.409525 0.821214 -0.397361
v -0.409409 0.274129 0.173785
vn 0.712366 0.096514 0.69514
v -0.527304 0.492563 -0.00629535
vn 0.240784 0.970252 -0.0251814
v -0.442748 0.137095 -0.169703
vn 0.579009 -0.45162 -0.678813
v -0.436004 0.146356 0.169726
vn 0.605982 -0.414577 0.678905
v -0.511892 0.464419 0.103961
vn 0.302433 0.857675 0.415846
v -0.414726 0.0800885 0.061474
vn 0.691098 -0.679646 0.245896
v -0.500173 0.374247 0.198587
vn 0.349309 0.496986 0.794347
v -0.413442 0.0814998 -0.0617362
vn 0.696233 -0.674001 -0.246945
v -0.596483 0.483348 -0.0892645
vn -0.035932 0.933391 -0.357058
v -0.502895 0.196054 -0.22898
vn 0.338418 -0.215782 -0.915921
v -0.54919 0.415044 -0.183828
vn 0.153241 0.660177 -0.735312
v -0.518203 0.302872 -0.234313
vn 0.277186 0.211488 -0.937252
v -0.506754 0.236186 0.236198
vn 0.322982 -0.0552575 0.944791
v -0.533178 0.122009 0.207768
vn 0.21729 -0.511964 0.83107
v -0.500781 0.048265 -0.119511
vn 0.346876 -0.80694 -0.478043
v -0.627208 0.494429 0.0343175
vn -0.158833 0.977716 0.13727
v -0.514707 0.0432995 0.120316
vn 0.291174 -0.826802 0.481264
v -0.556411 0.102098 -0.199144
vn 0.124357 -0.591609 -0.796576
v -0.652097 0.431072 -0.159813
vn -0.258388 0.724289 -0.639251
v -0.502034 0.0151782 -0.0073646
vn 0.341866 -0.939287 -0.0294584
v -0.606661 0.322435 0.238508
vn -0.0766425 0.289742 0.954031
v -0.709291 0.458556 -0.0645855
vn -0.487165 0.834224 -0.258342
v -0.620815 0.440442 0.158499
vn -0.133259 0.761769 0.633996
v -0.609796 0.20734 -0.245322
vn -0.0891821 -0.170641 -0.981289
v -0.615078 0.185665 0.240001
vn -0.11031 -0.257341 0.960004
v -0.604107 0.0208233 -0.0985003
vn -0.0664263 -0.916707 -0.394001
v -0.738032 0.440036 0.0610438
vn -0.602127 0.760145 0.244175
v -0.625648 0.0683658 0.167492
vn -0.152591 -0.726537 0.66997
v -0.639455 0.335107 -0.229254
vn -0.207822 0.340429 -0.917016
v -0.70028 0.256923 0.223008
vn -0.451122 0.0276906 0.892033
v -0.798255 0.376885 -0.044525
vn -0.843022 0.507538 -0.1781
v -0.728947 0.364011 0.171739
vn -0.565787 0.456045 0.686955
v -0.682286 0.105617 -0.180746
vn -0.379144 -0.577531 -0.722985
v -0.618059 0.00569375 0.0433655
vn -0.122236 -0.977225 0.173462
v -0.740168 0.370642 -0.156965
vn -0.610673 0.482569 -0.627859
v -0.725921 0.239512 -0.207917
vn -0.553685 -0.0419533 -0.831669
v -0.716083 0.147342 0.188223
vn -0.514331 -0.410633 0.752891
v -0.811335 0.338188 0.0679763
vn -0.89534 0.352752 0.271905
v -0.726307 0.0495782 -0.0553525
vn -0.555226 -0.801687 -0.22141
v -0.728081 0.0603012 0.082167
vn -0.562323 -0.758795 0.328668
v -0.781603 0.249774 0.157556
vn -0.776413 -0.000904782 0.630224
v -0.790415 0.161365 -0.116058
vn -0.811658 -0.354539 -0.464234
v -0.800165 0.278246 -0.128358
vn -0.85066 0.112984 -0.513432
v -0.788956 0.146983 0.106315
vn -0.805824 -0.412069 0.42526
v -0.835034 0.250792 -0.035022
vn -0.990134 0.00316965 -0.140088
v -0.805951 0.128435 0.00096488
vn -0.873805 -0.486261 0.00385952
v -0.827736 0.222041 0.063286
vn -0.960943 -0.111836 0.253144
g rightSphere
usemtl rightSphere

s 1
f 160//160 161//161 159//159
f 159//159 161//161 152//152
f 156//156 160//160 159//159
f 134//134 120//120 131//131
f 153//153 156//156 147//147
f 155//155 158//158 151//151
f 139//139 128//128 127//127
f 116//116 123//123 130//130
f 112//112 117//117 124//124
f 150//150 149//149 143//143
f 126//126 112//112 124//124
f 139//139 127//127 135//135
f 152//152 155//155 146//146
f 120//120 111//111 108//108
f 110//110 105//105 102//102
f 132//132 117//117 129//129
f 138//138 126//126 124//124
f 106//106 105//105 113//113
f 127//127 128//128 118//118
f 137//137 130//130 141//141
f 121//121 115//115 109//109
f 141//141 152//152 146//146
f 131//131 120//120 118//118
f 128//128 139//139 142//142
f 149//149 145//145 136//136
f 122//122 117//117 110//110
f 123//123 116//116 114//114
f 153//153 147//147 140//140
f 129//129 134//134 140//140
f 132//132 129//129 140//140
f 108//108 115//115 118//118
f 148//148 153//153 140//140
f 115//115 127//127 118//118
f 103//103 106//106 107//107
f 160//160 156//156 153//153
f 126//126 125//125 113//113
f 121//121 109//109 119//119
f 136//136 145//145 141//141
f 111//111 122//122 110//110
f 117//117 112//112 110//110
f 134//134 122//122 120//120
f 131//131 128//128 142//142
f 148//148 131//131 142//142
f 128//128 131//131 118//118
f 156//156 159//159 157//157
f 150//150 138//138 147//147
f 133//133 149//149 136//136
f 158//158 154//154 151//151
f 106//106 114//114 107//107
f 148//148 134//134 131//131
f 123//123 114//114 125//125
f 154//154 142//142 151//151
f 160//160 154//154 158//158
f 121//121 127//127 115//115
f 108//108 111//111 102//102
f 109//109 103//103 107//107
f 127//127 121//121 135//135
f 142//142 139//139 151//151
f 104//104 115//115 108//108
f 161//161 160//160 158//158
f 154//154 148//148 142//142
f 138//138 143//143 126//126
f 145//145 149//149 157//157
f 105//105 112//112 113//113
f 156//156 150//150 147//147
f 112//112 105//105 110//110
f 135//135 137//137 146//146
f 123//123 136//136 130//130
f 145//145 159//159 152//152
f 144//144 139//139 135//135
f 149//149 150//150 157//157
f 114//114 116//116 107//107
f 144//144 155//155 151//151
f 123//123 133//133 136//136
f 116//116 119//119 107//107
f 161//161 155//155 152//152
f 149//149 133//133 143//143
f 109//109 104//104 103//103
f 138//138 150//150 143//143
f 133//133 123//123 125//125
f 148//148 154//154 153//153
f 134//134 148//148 140//140
f 132//132 138//138 124//124
f 104//104 108//108 102//102
f 122//122 134//134 129//129
f 137//137 119//119 130//130
f 111//111 110//110 102//102
f 125//125 114//114 113//113
f 144//144 135//135 146//146
f 139//139 144//144 151//151
f 138//138 132//132 147//147
f 103//103 104//104 102//102
f 130//130 136//136 141//141
f 141//141 145//145 152//152
f 137//137 121//121 119//119
f 154//154 160//160 153//153
f 122//122 111//111 120//120
f 112//112 126//126 113//113
f 150//150 156//156 157//157
f 117//117 122//122 129//129
f 115//115 104//104 109//109
f 119//119 109//109 107//107
f 105//105 106//106 103//103
f 119//119 116//116 130//130
f 147//147 132//132 140//140
f 121//121 137//137 135//135
f 105//105 103//103 102//102
f 143//143 133//133 125//125
f 159//159 145//145 157//157
f 114//114 106//106 113//113
f 120//120 108//108 118//118
f 137//137 141//141 146//146
f 155//155 144//144 146//146
f 126//126 143//143 125//125
f 155//155 161//161 158//158
f 117//117 132//132 124//124


## Object floor
v   1.0000 0.0000 -1.0400
v  -0.9900 0.0000 -1.0400
v  -1.0100 0.0000  0.9900
v   1.0000 0.0000  0.9900
# 4 vertices

vn 0.0000 1.0000 -0.0000
# 1 vertex normals

g floor
usemtl floor

s 1
f 162//162 163//162 164//162 
f 164//162 165//162 162//162 
# 2 faces

## Object ceiling 
v   1.0000 1.5900 -1.0400
v   1.0000 1.5900  0.9900
v  -1.0200 1.5900  0.9900
v  -1.0200 1.5900 -1.0400
# 4 vertices

vn 0.0000 -1.0000 -0.0000
# 1 vertex normals

g ceiling
usemtl ceiling

s 1
f 166//163 167//163 168//163 
f 168//163 169//163 166//163 
# 2 faces

## Object backwall 
v   1.0000 1.5900 -1.0400
v  -1.0200 1.5900 -1.0400
v  -0.9900 0.0000 -1.0400
v   1.0000 0.0000 -1.0400
# 4 vertices

vn 0.0000 0.0000 1.0000
# 1 vertex normals

g backWall
usemtl backWall

s 1
f 170//164 171//164 172//164 
f 172//164 173//164 170//164 
# 2 faces

## Object rightwall 
v  1.0000 1.5900 0.9900
v  1.0000 1.5900 -1.0400
v  1.0000 0.0000 -1.0400
v  1.0000 0.0000 0.9900
# 4 vertices

vn -1.0000 0.0000 -0.0000
# 1 vertex normals

g rightWall
usemtl rightWall

s 1
f 174//165 175//165 176//165 
f 176//165 177//165 174//165 
# 2 faces

## Object leftWall 
v  -1.0200 1.5900 -1.0400
v  -1.0200 1.5900 0.9900
v  -1.0100 0.0000 0.9900
v  -0.9900 0.0000 -1.0400
# 4 vertices

vn 0.9999 0.0135 0.0057
vn 1.0000 0.0063 -0.0000
vn 0.9999 0.0116 0.0042
vn 0.9998 0.0189 0.0098
# 4 vertex normals

g leftWall
usemtl leftWall

s 1
f 178//166 179//167 180//168 
f 180//168 181//169 178//166 
# 2 faces

## Object light
v  0.2300 1.5800 -0.2200
v  0.2300 1.5800 0.1600
v  -0.2400 1.5800 0.1600
v  -0.2400 1.5800 -0.2200
# 4 vertices

vn 0.0000 -1.0000 -0.0000
# 1 vertex normals

g light
usemtl light

s 1
f 182//170 183//170 184//170 
f 184//170 185//170 182//170 
# 2 faces
