mtllib CornellBox-Sphere.mtl

## Object leftSphere

v 0.0796777 0.502163 0.0392778
vn 0.757629 -0.650664 0.0513354
v 0.098124 0.592327 0.00810615
vn 0.826265 -0.563171 0.0111981
v 0.0869441 0.557285 0.0969067
vn 0.791514 -0.597016 0.130682
v 0.062878 0.523516 -0.0396367
vn 0.762151 -0.645171 -0.0536691
v 0.0556948 0.599821 -0.0721285
vn 0.807015 -0.581166 -0.10475
v 0.0687917 0.683448 -0.014348
vn 0.873582 -0.486178 -0.0220364
v 0.0242471 0.481313 0.116424
vn 0.70217 -0.694723 0.155938
v 0.085358 0.644469 0.0828325
vn 0.848516 -0.515366 0.120071
v 0.00406915 0.452419 -0.00019897
vn 0.677271 -0.735734 -0.000267337
v -0.017511 0.520441 -0.0989412
vn 0.701873 -0.69761 -0.143929
v -0.0608067 0.438639 0.0792812
vn 0.612416 -0.782768 0.11055
v 0.0305186 0.58731 0.17234
vn 0.764572 -0.594761 0.248373
v -0.101575 0.447249 -0.0312536
vn 0.584119 -0.810373 -0.04582
v -0.0647437 0.500239 0.177582
vn 0.634384 -0.7284 0.258825
v -0.016448 0.656552 -0.129354
vn 0.796558 -0.565764 -0.213086
v 0.0289806 0.732149 0.123734
vn 0.873335 -0.442216 0.204282
v -0.161188 0.448621 0.0989989
vn 0.517519 -0.842204 0.151216
v -0.125056 0.538111 -0.137737
vn 0.614006 -0.756387 -0.225557
v -0.17182 0.532309 0.210602
vn 0.53895 -0.768059 0.345858
v 0.00849205 0.772138 -0.0382616
vn 0.910421 -0.407972 -0.0685049
v -0.0612491 0.620199 0.228843
vn 0.703357 -0.608855 0.366856
v -0.142412 0.657429 -0.181843
vn 0.67785 -0.649383 -0.344704
v -0.074711 0.769382 -0.136646
vn 0.845976 -0.458741 -0.271813
v -0.0737446 0.865802 -0.0453307
vn 0.948975 -0.298766 -0.10092
v -0.0224819 0.831009 0.0562271
vn 0.936953 -0.331582 0.110325
v -0.0684876 0.733959 0.221449
vn 0.780042 -0.480921 0.400311
v -0.0513667 0.817949 0.15202
vn 0.884061 -0.358743 0.299565
v -0.140746 0.822415 0.224972
vn 0.781704 -0.386408 0.489518
v -0.176456 0.672923 0.265835
vn 0.608915 -0.615564 0.500304
v -0.244165 0.571266 -0.156328
vn 0.489013 -0.819499 -0.298811
v -0.26865 0.484012 0.116339
vn 0.40073 -0.89376 0.201515
v -0.231112 0.470252 -0.037043
vn 0.451733 -0.88998 -0.0622325
v -0.155671 0.860737 -0.137235
vn 0.869589 -0.351704 -0.346583
v -0.11304 0.909395 0.0979623
vn 0.94537 -0.221354 0.239329
v -0.33062 0.527431 -0.0856517
vn 0.3326 -0.927949 -0.168188
v -0.271125 0.689676 -0.203665
vn 0.524849 -0.711625 -0.467037
v -0.175768 0.760854 -0.18854
vn 0.728908 -0.537624 -0.423857
v -0.286587 0.565391 0.218922
vn 0.401626 -0.817899 0.411994
v -0.338505 0.496084 0.0175549
vn 0.305023 -0.951768 0.0331566
v -0.163877 0.945336 -0.0349344
vn 0.981879 -0.159684 -0.10205
v -0.264555 0.81618 -0.199798
vn 0.65517 -0.511513 -0.555974
v -0.29979 0.670087 0.271164
vn 0.424486 -0.699482 0.574923
v -0.213303 0.986029 0.0847417
vn 0.95794 -0.0466827 0.283148
v -0.442872 0.556866 -0.0300556
vn 0.127573 -0.989556 -0.0671167
v -0.372662 0.614047 -0.156814
vn 0.292314 -0.885984 -0.359978
v -0.214567 0.916304 0.202701
vn 0.792978 -0.232521 0.563134
v -0.40103 0.616307 0.217625
vn 0.218921 -0.848729 0.481387
v -0.249938 0.785659 0.275472
vn 0.582394 -0.4992 0.641573
v -0.385247 0.533858 0.120144
vn 0.231888 -0.941958 0.242782
v -0.251192 0.931665 -0.137457
vn 0.851057 -0.233742 -0.470178
v -0.403051 0.758712 -0.204957
vn 0.29281 -0.728749 -0.619021
v -0.26856 1.01239 -0.031656
vn 0.989384 0.052975 -0.135326
v -0.50206 0.600967 0.119278
vn -0.00494647 -0.9581 0.286392
v -0.490384 0.655894 -0.132717
vn 0.0260644 -0.932694 -0.359726
v -0.312623 0.993978 0.181194
vn 0.718676 -0.0230988 0.694961
v -0.344127 0.889074 0.265352
vn 0.476489 -0.339091 0.811157
v -0.384429 0.745492 0.27913
vn 0.292566 -0.644285 0.706613
v -0.345443 0.889495 -0.191407
vn 0.57308 -0.409741 -0.709713
v -0.30969 1.04111 0.0725266
vn 0.915971 0.197852 0.349073
v -0.360129 0.993127 -0.129803
vn 0.732519 -0.0359973 -0.679794
v -0.575424 0.645467 -0.0259686
vn -0.207552 -0.97561 -0.0714607
v -0.507279 0.695981 0.223352
vn -0.0192928 -0.805743 0.591951
v -0.382036 1.06891 -0.0117633
vn 0.860287 0.502541 -0.0857876
v -0.477308 0.8298 0.274669
vn 0.0700539 -0.525433 0.847946
v -0.441693 0.976231 0.239525
vn 0.23543 -0.0959739 0.967141
v -0.410285 1.06595 0.128933
vn 0.52663 0.387112 0.756839
v -0.452225 0.908113 -0.191428
vn 0.219508 -0.422184 -0.879532
v -0.468139 1.04829 -0.10581
vn 0.264197 0.400446 -0.877407
v -0.582267 0.912755 0.250372
vn -0.296344 -0.314276 0.901893
v -0.590445 0.780697 0.224422
vn -0.276967 -0.67156 0.687238
v -0.557181 0.962578 -0.16392
vn -0.321977 -0.210717 -0.923
v -0.61264 0.690882 0.126372
vn -0.319603 -0.877088 0.358567
v -0.67395 0.732675 0.00306927
vn -0.54538 -0.838134 0.00962297
v -0.595323 1.0781 -0.0787576
vn -0.651776 0.534035 -0.538512
v -0.498192 1.10919 0.0293708
vn 0.0159902 0.965549 0.25973
v -0.541527 1.05494 0.18791
vn -0.207498 0.274517 0.938928
v -0.700203 0.819575 0.155324
vn -0.64361 -0.580028 0.499333
v -0.580336 0.792566 -0.157153
vn -0.294964 -0.761617 -0.577006
v -0.682855 0.995547 0.194261
vn -0.68531 -0.0166903 0.72806
v -0.665608 0.948211 -0.131081
vn -0.761544 -0.238152 -0.602772
v -0.697455 0.830454 -0.0846947
vn -0.721448 -0.619477 -0.309453
v -0.746702 0.828685 0.0229794
vn -0.818985 -0.568722 0.0762855
v -0.638013 1.11511 0.0773806
vn -0.705349 0.588289 0.395472
v -0.729296 1.05397 -0.0416578
vn -0.958531 0.225595 -0.174143
v -0.757812 0.914505 -0.0482987
vn -0.934512 -0.309899 -0.175072
v -0.782906 0.929605 0.0875339
vn -0.929419 -0.231264 0.287571
v -0.743185 1.05922 0.106246
vn -0.894368 0.217778 0.390742
v -0.0734763 0.624546 0.0419051
vn 0.748582 -0.658951 0.0735466
v -0.267992 0.730702 0.0307672
vn 0.650274 -0.75479 0.0862344
v -0.638441 0.950629 0.0538098
vn -0.884486 -0.315428 0.343787
v -0.476034 0.896102 -0.081377
vn 0.178675 -0.774594 -0.606695
v -0.586232 0.896787 -0.0595588
vn -0.586243 -0.70169 -0.404907
v -0.518723 0.920396 0.162886
vn -0.102727 -0.43676 0.893693
v -0.583189 0.818871 0.0333103
vn -0.411658 -0.896307 0.164835
v -0.485553 0.952644 0.0374157
vn 0.232792 -0.763091 0.602909
v -0.338658 0.917621 0.0747859
vn 0.823233 -0.42033 0.381588
v -0.460613 0.755317 0.0123837
vn 0.158727 -0.98606 0.0499055
v -0.436031 0.860924 0.149988
vn 0.298482 -0.648936 0.69985
v -0.552139 0.987785 -0.0529382
vn -0.692417 -0.162211 -0.703027
v -0.362554 0.876664 -0.0687432
vn 0.697516 -0.625913 -0.348862
g leftSphere
usemtl leftSphere

s 1
f 75//75 76//76 66//66
f 77//77 82//82 73//73
f 46//46 43//43 55//55
f 72//72 77//77 73//73
f 43//43 59//59 55//55
f 77//77 86//86 82//82
f 53//53 44//44 49//49
f 8//8 12//12 3//3
f 3//3 12//12 7//7
f 2//2 8//8 3//3
f 74//74 84//84 83//83
f 74//74 68//68 71//71
f 79//79 87//87 86//86
f 2//2 4//4 5//5
f 38//38 47//47 49//49
f 76//76 83//83 79//79
f 50//50 58//58 60//60
f 46//46 34//34 43//43
f 30//30 22//22 18//18
f 75//75 66//66 63//63
f 20//20 25//25 16//16
f 6//6 15//15 20//20
f 52//52 50//50 60//60
f 2//2 3//3 1//1
f 36//36 45//45 51//51
f 66//66 55//55 59//59
f 16//16 26//26 21//21
f 16//16 25//25 27//27
f 50//50 52//52 40//40
f 13//13 10//10 9//9
f 24//24 25//25 20//20
f 44//44 39//39 49//49
f 14//14 19//19 17//17
f 24//24 23//23 33//33
f 31//31 19//19 38//38
f 22//22 15//15 18//18
f 43//43 34//34 40//40
f 31//31 39//39 32//32
f 16//16 8//8 6//6
f 21//21 26//26 29//29
f 57//57 56//56 64//64
f 47//47 62//62 53//53
f 3//3 7//7 1//1
f 29//29 48//48 42//42
f 30//30 45//45 36//36
f 76//76 69//69 65//65
f 28//28 34//34 46//46
f 17//17 11//11 14//14
f 46//46 56//56 48//48
f 84//84 80//80 85//85
f 43//43 52//52 59//59
f 77//77 69//69 79//79
f 56//56 55//55 65//65
f 67//67 51//51 78//78
f 75//75 83//83 76//76
f 17//17 32//32 13//13
f 48//48 28//28 46//46
f 6//6 8//8 2//2
f 79//79 69//69 76//76
f 44//44 45//45 35//35
f 5//5 6//6 2//2
f 16//16 12//12 8//8
f 58//58 41//41 51//51
f 21//21 12//12 16//16
f 48//48 56//56 57//57
f 58//58 51//51 67//67
f 23//23 15//15 22//22
f 27//27 34//34 28//28
f 73//73 81//81 78//78
f 14//14 12//12 21//21
f 10//10 15//15 5//5
f 80//80 84//84 74//74
f 29//29 19//19 21//21
f 70//70 77//77 72//72
f 24//24 34//34 25//25
f 28//28 26//26 27//27
f 49//49 39//39 31//31
f 40//40 33//33 50//50
f 83//83 84//84 87//87
f 5//5 15//15 6//6
f 17//17 19//19 31//31
f 38//38 29//29 42//42
f 49//49 47//47 53//53
f 68//68 67//67 71//71
f 9//9 11//11 13//13
f 42//42 47//47 38//38
f 65//65 66//66 76//76
f 1//1 4//4 2//2
f 85//85 81//81 82//82
f 68//68 60//60 67//67
f 16//16 6//6 20//20
f 79//79 86//86 77//77
f 13//13 11//11 17//17
f 86//86 85//85 82//82
f 39//39 44//44 35//35
f 64//64 56//56 65//65
f 78//78 61//61 73//73
f 79//79 83//83 87//87
f 54//54 61//61 78//78
f 87//87 84//84 86//86
f 73//73 61//61 72//72
f 84//84 85//85 86//86
f 48//48 57//57 42//42
f 59//59 63//63 66//66
f 25//25 34//34 27//27
f 14//14 11//11 7//7
f 28//28 48//48 29//29
f 29//29 26//26 28//28
f 51//51 54//54 78//78
f 70//70 62//62 64//64
f 20//20 23//23 24//24
f 54//54 45//45 44//44
f 32//32 30//30 18//18
f 74//74 75//75 68//68
f 71//71 80//80 74//74
f 65//65 55//55 66//66
f 74//74 83//83 75//75
f 56//56 46//46 55//55
f 53//53 72//72 61//61
f 71//71 78//78 80//80
f 62//62 47//47 57//57
f 71//71 67//67 78//78
f 58//58 67//67 60//60
f 80//80 81//81 85//85
f 13//13 18//18 10//10
f 59//59 52//52 63//63
f 21//21 19//19 14//14
f 44//44 53//53 61//61
f 9//9 4//4 1//1
f 77//77 70//70 69//69
f 37//37 23//23 22//22
f 1//1 7//7 9//9
f 5//5 4//4 10//10
f 62//62 57//57 64//64
f 80//80 78//78 81//81
f 33//33 23//23 37//37
f 40//40 34//34 24//24
f 32//32 18//18 13//13
f 50//50 41//41 58//58
f 75//75 63//63 68//68
f 37//37 41//41 33//33
f 10//10 4//4 9//9
f 7//7 11//11 9//9
f 63//63 52//52 60//60
f 57//57 47//47 42//42
f 49//49 31//31 38//38
f 35//35 32//32 39//39
f 31//31 32//32 17//17
f 73//73 82//82 81//81
f 30//30 32//32 35//35
f 20//20 15//15 23//23
f 27//27 26//26 16//16
f 35//35 45//45 30//30
f 36//36 37//37 22//22
f 7//7 12//12 14//14
f 36//36 41//41 37//37
f 18//18 15//15 10//10
f 70//70 64//64 69//69
f 33//33 41//41 50//50
f 54//54 44//44 61//61
f 24//24 33//33 40//40
f 51//51 45//45 54//54
f 40//40 52//52 43//43
f 38//38 19//19 29//29
f 51//51 41//41 36//36
f 72//72 62//62 70//70
f 22//22 30//30 36//36
f 53//53 62//62 72//72
f 69//69 64//64 65//65
f 63//63 60//60 68//68

## Object rightSphere

v -0.5875 0.25 0
vn 0 0 0
v -0.3375 0.25 0
vn 1 0 0
v -0.363893 0.361804 0
vn 0.894427 0.447214 0
v -0.356335 0.298578 0.0818727
vn 0.924658 0.194311 0.327491
v -0.365269 0.304668 -0.100621
vn 0.888925 0.218673 -0.402486
v -0.403472 0.399769 -0.078758
vn 0.736112 0.599077 -0.315032
v -0.432693 0.446087 0.00919147
vn 0.61923 0.784348 0.0367659
v -0.363941 0.188416 0.0934285
vn 0.894236 -0.246334 0.373714
v -0.410629 0.387968 0.110368
vn 0.707486 0.551874 0.441473
v -0.367473 0.191604 -0.103335
vn 0.880107 -0.233582 -0.413341
v -0.358458 0.149801 -8.75488e-05
vn 0.916168 -0.400795 -0.000350195
v -0.421135 0.251713 -0.186601
vn 0.665458 0.00685229 -0.746404
v -0.444167 0.364414 -0.169897
vn 0.573332 0.457656 -0.67959
v -0.485119 0.455304 -0.0993403
vn 0.409525 0.821214 -0.397361
v -0.409409 0.274129 0.173785
vn 0.712366 0.096514 0.69514
v -0.527304 0.492563 -0.00629535
vn 0.240784 0.970252 -0.0251814
v -0.442748 0.137095 -0.169703
vn 0.579009 -0.45162 -0.678813
v -0.436004 0.146356 0.169726
vn 0.605982 -0.414577 0.678905
v -0.511892 0.464419 0.103961
vn 0.302433 0.857675 0.415846
v -0.414726 0.0800885 0.061474
vn 0.691098 -0.679646 0.245896
v -0.500173 0.374247 0.198587
vn 0.349309 0.496986 0.794347
v -0.413442 0.0814998 -0.0617362
vn 0.696233 -0.674001 -0.246945
v -0.596483 0.483348 -0.0892645
vn -0.035932 0.933391 -0.357058
v -0.502895 0.196054 -0.22898
vn 0.338418 -0.215782 -0.915921
v -0.54919 0.415044 -0.183828
vn 0.153241 0.660177 -0.735312
v -0.518203 0.302872 -0.234313
vn 0.277186 0.211488 -0.937252
v -0.506754 0.236186 0.236198
vn 0.322982 -0.0552575 0.944791
v -0.533178 0.122009 0.207768
vn 0.21729 -0.511964 0.83107
v -0.500781 0.048265 -0.119511
vn 0.346876 -0.80694 -0.478043
v -0.627208 0.494429 0.0343175
vn -0.158833 0.977716 0.13727
v -0.514707 0.0432995 0.120316
vn 0.291174 -0.826802 0.481264
v -0.556411 0.102098 -0.199144
vn 0.124357 -0.591609 -0.796576
v -0.652097 0.431072 -0.159813
vn -0.258388 0.724289 -0.639251
v -0.502034 0.0151782 -0.0073646
vn 0.341866 -0.939287 -0.0294584
v -0.606661 0.322435 0.238508
vn -0.0766425 0.289742 0.954031
v -0.709291 0.458556 -0.0645855
vn -0.487165 0.834224 -0.258342
v -0.620815 0.440442 0.158499
vn -0.133259 0.761769 0.633996
v -0.609796 0.20734 -0.245322
vn -0.0891821 -0.170641 -0.981289
v -0.615078 0.185665 0.240001
vn -0.11031 -0.257341 0.960004
v -0.604107 0.0208233 -0.0985003
vn -0.0664263 -0.916707 -0.394001
v -0.738032 0.440036 0.0610438
vn -0.602127 0.760145 0.244175
v -0.625648 0.0683658 0.167492
vn -0.152591 -0.726537 0.66997
v -0.639455 0.335107 -0.229254
vn -0.207822 0.340429 -0.917016
v -0.70028 0.256923 0.223008
vn -0.451122 0.0276906 0.892033
v -0.798255 0.376885 -0.044525
vn -0.843022 0.507538 -0.1781
v -0.728947 0.364011 0.171739
vn -0.565787 0.456045 0.686955
v -0.682286 0.105617 -0.180746
vn -0.379144 -0.577531 -0.722985
v -0.618059 0.00569375 0.0433655
vn -0.122236 -0.977225 0.173462
v -0.740168 0.370642 -0.156965
vn -0.610673 0.482569 -0.627859
v -0.725921 0.239512 -0.207917
vn -0.553685 -0.0419533 -0.831669
v -0.716083 0.147342 0.188223
vn -0.514331 -0.410633 0.752891
v -0.811335 0.338188 0.0679763
vn -0.89534 0.352752 0.271905
v -0.726307 0.0495782 -0.0553525
vn -0.555226 -0.801687 -0.22141
v -0.728081 0.0603012 0.082167
vn -0.562323 -0.758795 0.328668
v -0.781603 0.249774 0.157556
vn -0.776413 -0.000904782 0.630224
v -0.790415 0.161365 -0.116058
vn -0.811658 -0.354539 -0.464234
v -0.800165 0.278246 -0.128358
vn -0.85066 0.112984 -0.513432
v -0.788956 0.146983 0.106315
vn -0.805824 -0.412069 0.42526
v -0.835034 0.250792 -0.035022
vn -0.990134 0.00316965 -0.140088
v -0.805951 0.128435 0.00096488
vn -0.873805 -0.486261 0.00385952
v -0.827736 0.222041 0.063286
vn -0.960943 -0.111836 0.253144
g rightSphere
usemtl rightSphere

s 1
f 160//160 161//161 159//159
f 159//159 161//161 152//152
f 156//156 160//160 159//159
f 134//134 120//120 131//131
f 153//153 156//156 147//147
f 155//155 158//158 151//151
f 139//139 128//128 127//127
f 116//116 123//123 130//130
f 112//112 117//117 124//124
f 150//150 149//149 143//143
f 126//126 112//112 124//124
f 139//139 127//127 135//135
f 152//152 155//155 146//146
f 120//120 111//111 108//108
f 110//110 105//105 102//102
f 132//132 117//117 129//129
f 138//138 126//126 124//124
f 106//106 105//105 113//113
f 127//127 128//128 118//118
f 137//137 130//130 141//141
f 121//121 115//115 109//109
f 141//141 152//152 146//146
f 131//131 120//120 118//118
f 128//128 139//139 142//142
f 149//149 145//145 136//136
f 122//122 117//117 110//110
f 123//123 116//116 114//114
f 153//153 147//147 140//140
f 129//129 134//134 140//140
f 132//132 129//129 140//140
f 108//108 115//115 118//118
f 148//148 153//153 140//140
f 115//115 127//127 118//118
f 103//103 106//106 107//107
f 160//160 156//156 153//153
f 126//126 125//125 113//113
f 121//121 109//109 119//119
f 136//136 145//145 141//141
f 111//111 122//122 110//110
f 117//117 112//112 110//110
f 134//134 122//122 120//120
f 131//131 128//128 142//142
f 148//148 131//131 142//142
f 128//128 131//131 118//118
f 156//156 159//159 157//157
f 150//150 138//138 147//147
f 133//133 149//149 136//136
f 158//158 154//154 151//151
f 106//106 114//114 107//107
f 148//148 134//134 131//131
f 123//123 114//114 125//125
f 154//154 142//142 151//151
f 160//160 154//154 158//158
f 121//121 127//127 115//115
f 108//108 111//111 102//102
f 109//109 103//103 107//107
f 127//127 121//121 135//135
f 142//142 139//139 151//151
f 104//104 115//115 108//108
f 161//161 160//160 158//158
f 154//154 148//148 142//142
f 138//138 143//143 126//126
f 145//145 149//149 157//157
f 105//105 112//112 113//113
f 156//156 150//150 147//147
f 112//112 105//105 110//110
f 135//135 137//137 146//146
f 123//123 136//136 130//130
f 145//145 159//159 152//152
f 144//144 139//139 135//135
f 149//149 150//150 157//157
f 114//114 116//116 107//107
f 144//144 155//155 151//151
f 123//123 133//133 136//136
f 116//116 119//119 107//107
f 161//161 155//155 152//152
f 149//149 133//133 143//143
f 109//109 104//104 103//103
f 138//138 150//150 143//143
f 133//133 123//123 125//125
f 148//148 154//154 153//153
f 134//134 148//148 140//140
f 132//132 138//138 124//124
f 104//104 108//108 102//102
f 122//122 134//134 129//129
f 137//137 119//119 130//130
f 111//111 110//110 102//102
f 125//125 114//114 113//113
f 144//144 135//135 146//146
f 139//139 144//144 151//151
f 138//138 132//132 147//147
f 103//103 104//104 102//102
f 130//130 136//136 141//141
f 141//141 145//145 152//152
f 137//137 121//121 119//119
f 154//154 160//160 153//153
f 122//122 111//111 120//120
f 112//112 126//126 113//113
f 150//150 156//156 157//157
f 117//117 122//122 129//129
f 115//115 104//104 109//109
f 119//119 109//109 107//107
f 105//105 106//106 103//103
f 119//119 116//116 130//130
f 147//147 132//132 140//140
f 121//121 137//137 135//135
f 105//105 103//103 102//102
f 143//143 133//133 125//125
f 159//159 145//145 157//157
f 114//114 106//106 113//113
f 120//120 108//108 118//118
f 137//137 141//141 146//146
f 155//155 144//144 146//146
f 126//126 143//143 125//125
f 155//155 161//161 158//158
f 117//117 132//132 124//124


## Object floor
v   1.0000 0.0000 -1.0400
v  -0.9900 0.0000 -1.0400
v  -1.0100 0.0000  0.9900
v   1.0000 0.0000  0.9900
# 4 vertices

vn 0.0000 1.0000 -0.0000
# 1 vertex normals

g floor
usemtl floor

s 1
f 162//162 163//162 164//162 
f 164//162 165//162 162//162 
# 2 faces

## Object ceiling 
v   1.0000 1.5900 -1.0400
v   1.0000 1.5900  0.9900
v  -1.0200 1.5900  0.9900
v  -1.0200 1.5900 -1.0400
# 4 vertices

vn 0.0000 -1.0000 -0.0000
# 1 vertex normals

g ceiling
usemtl ceiling

s 1
f 166//163 167//163 168//163 
f 168//163 169//163 166//163 
# 2 faces

## Object backwall 
v   1.0000 1.5900 -1.0400
v  -1.0200 1.5900 -1.0400
v  -0.9900 0.0000 -1.0400
v   1.0000 0.0000 -1.0400
# 4 vertices

vn 0.0000 0.0000 1.0000
# 1 vertex normals

g backWall
usemtl backWall

s 1
f 170//164 171//164 172//164 
f 172//164 173//164 170//164 
# 2 faces

## Object rightwall 
v  1.0000 1.5900 0.9900
v  1.0000 1.5900 -1.0400
v  1.0000 0.0000 -1.0400
v  1.0000 0.0000 0.9900
# 4 vertices

vn -1.0000 0.0000 -0.0000
# 1 vertex normals

g rightWall
usemtl rightWall

s 1
f 174//165 175//165 176//165 
f 176//165 177//165 174//165 
# 2 faces

## Object leftWall 
v  -1.0200 1.5900 -1.0400
v  -1.0200 1.5900 0.9900
v  -1.0100 0.0000 0.9900
v  -0.9900 0.0000 -1.0400
# 4 vertices

vn 0.9999 0.0135 0.0057
vn 1.0000 0.0063 -0.0000
vn 0.9999 0.0116 0.0042
vn 0.9998 0.0189 0.0098
# 4 vertex normals

g leftWall
usemtl leftWall

s 1
f 178//166 179//167 180//168 
f 180//168 181//169 178//166 
# 2 faces

## Object light
v  0.2300 1.5800 -0.2200
v  0.2300 1.5800 0.1600
v  -0.2400 1.5800 0.1600
v  -0.2400 1.5800 -0.2200
# 4 vertices

vn 0.0000 -1.0000 -0.0000
# 1 vertex normals

g light
usemtl light

s 1
f 182//170 183//170 184//170 
f 184//170 185//170 182//170 
# 2 faces
