mtllib CornellBox-Sphere.mtl

## Object leftSphere

v 2.26498e-06 0.719273 -2.30075e-07
vn 0.871966 -0.489567 -4.01233e-07
v -0.034447 0.810466 -8.13009e-08
vn 0.926187 -0.377065 -1.61743e-07
v -0.0238073 0.746697 0.0711269
vn 0.875288 -0.465596 0.130738
v -0.0255031 0.753901 -0.0708143
vn 0.880017 -0.456423 -0.131334
v -0.0731654 0.820751 -0.081586
vn 0.908006 -0.381317 -0.173558
v -0.107982 0.874453 -0.00114608
vn 0.952349 -0.304998 -0.00278422
v -0.0339406 0.647559 0.0552699
vn 0.79407 -0.600488 0.0941687
v -0.0728872 0.819188 0.08314
vn 0.906434 -0.383726 0.176443
v -0.0353385 0.654341 -0.065625
vn 0.797243 -0.593065 -0.112596
v -0.0894485 0.729015 -0.142364
vn 0.801692 -0.529158 -0.277997
v -0.0812095 0.58297 -0.00870389
vn 0.708518 -0.705539 -0.0147254
v -0.0855801 0.713581 0.139759
vn 0.792704 -0.547864 0.267331
v -0.1204 0.60583 -0.11665
vn 0.678427 -0.704467 -0.208478
v -0.116855 0.593323 0.0996868
vn 0.675075 -0.716536 0.175641
v -0.162797 0.846616 -0.133638
vn 0.856243 -0.389482 -0.339339
v -0.165836 0.844091 0.137862
vn 0.848835 -0.396035 0.350193
v -0.169793 0.531721 -0.00815988
vn 0.576225 -0.817167 -0.0142393
v -0.187424 0.700304 -0.194204
vn 0.658622 -0.631482 -0.409203
v -0.221907 0.548638 0.118553
vn 0.511908 -0.830859 0.21823
v -0.204557 0.920743 -0.00956538
vn 0.965377 -0.258978 -0.0312554
v -0.177541 0.669677 0.184518
vn 0.648639 -0.664457 0.371165
v -0.266299 0.800068 -0.205731
vn 0.631592 -0.540327 -0.556002
v -0.271288 0.907514 -0.118319
vn 0.835907 -0.338021 -0.432437
v -0.320897 0.952708 -0.00254179
vn 0.966771 -0.255274 -0.0137202
v -0.260435 0.917937 0.0932184
vn 0.887793 -0.304114 0.345453
v -0.244848 0.75762 0.21156
vn 0.621383 -0.59028 0.515222
v -0.2767 0.858105 0.1754
vn 0.703461 -0.447011 0.552561
v -0.351853 0.787706 0.228795
vn 0.428802 -0.614471 0.662234
v -0.299694 0.636216 0.213503
vn 0.428964 -0.77906 0.457225
v -0.304276 0.672113 -0.225177
vn 0.441507 -0.739636 -0.507946
v -0.27806 0.495332 -0.00212762
vn 0.402562 -0.915384 -0.00385915
v -0.241187 0.558999 -0.141668
vn 0.487775 -0.831137 -0.266995
v -0.385607 0.939234 -0.104214
vn 0.688082 -0.36551 -0.626854
v -0.375696 0.916619 0.140405
vn 0.605695 -0.40629 0.68415
v -0.354503 0.571413 -0.188057
vn 0.296857 -0.874446 -0.383693
v -0.389582 0.770829 -0.238322
vn 0.316764 -0.65744 -0.683691
v -0.349095 0.868036 -0.186239
vn 0.551498 -0.482277 -0.680631
v -0.336113 0.513641 0.116108
vn 0.311454 -0.924288 0.220654
v -0.344166 0.505374 -0.102965
vn 0.29474 -0.935523 -0.194744
v -0.435875 0.966688 0.0166176
vn 0.864834 -0.44926 0.224115
v -0.451144 0.873043 -0.195603
vn 0.205059 -0.532861 -0.820981
v -0.402867 0.571951 0.196101
vn 0.202046 -0.890385 0.407911
v -0.499073 0.931606 0.131979
vn 0.00623737 -0.460099 0.887846
v -0.462412 0.520956 -0.149971
vn 0.0746721 -0.951663 -0.297931
v -0.434074 0.646469 -0.23693
vn 0.153081 -0.82091 -0.550157
v -0.464096 0.833281 0.221786
vn 0.128331 -0.595906 0.792734
v -0.458463 0.498015 0.112143
vn 0.0804928 -0.972777 0.217317
v -0.423106 0.686099 0.244822
vn 0.189654 -0.774216 0.603839
v -0.402899 0.476594 -0.00409201
vn 0.1824 -0.983194 -0.00768665
v -0.500981 0.948342 -0.100158
vn -0.00870792 -0.458367 -0.888721
v -0.535706 0.763023 -0.245581
vn -0.104057 -0.690619 -0.715693
v -0.557269 0.966865 0.0193586
vn -0.830734 -0.480651 0.28081
v -0.529131 0.493042 -0.0048598
vn -0.0573657 -0.998307 -0.00956998
v -0.553054 0.611954 -0.224217
vn -0.117559 -0.85985 -0.496828
v -0.587545 0.855363 0.205111
vn -0.329353 -0.54414 0.771647
v -0.558671 0.725479 0.248203
vn -0.156577 -0.732619 0.662384
v -0.515708 0.586852 0.212008
vn -0.0338071 -0.889189 0.45629
v -0.556723 0.888229 -0.182114
vn -0.256574 -0.50557 -0.823753
v -0.608069 0.933716 0.116613
vn -0.627387 -0.384807 0.676986
v -0.62269 0.94074 -0.0984897
vn -0.729771 -0.352484 -0.585823
v -0.618658 0.521699 -0.140987
vn -0.231496 -0.933141 -0.275058
v -0.590909 0.508441 0.123023
vn -0.176587 -0.954836 0.238967
v -0.680997 0.950595 0.028235
vn -0.953965 -0.260393 0.148816
v -0.64081 0.611192 0.214301
vn -0.302328 -0.834798 0.460119
v -0.687611 0.75934 0.228262
vn -0.492319 -0.631527 0.598995
v -0.706238 0.886615 0.154493
vn -0.732565 -0.402746 0.548765
v -0.655147 0.847791 -0.199955
vn -0.525335 -0.515385 -0.677054
v -0.740531 0.920723 -0.0863983
vn -0.898878 -0.296261 -0.322875
v -0.773047 0.639066 0.193474
vn -0.554748 -0.733309 0.393081
v -0.7072 0.534395 0.132535
vn -0.393482 -0.884208 0.251691
v -0.771 0.824943 -0.18161
vn -0.731983 -0.472838 -0.490536
v -0.675242 0.486274 0.00939086
vn -0.322804 -0.946308 0.0172984
v -0.747786 0.529463 -0.105404
vn -0.457054 -0.867929 -0.194423
v -0.863182 0.871216 -0.0802402
vn -0.922707 -0.327191 -0.20386
v -0.799199 0.913342 0.0496057
vn -0.948571 -0.274738 0.157268
v -0.811923 0.796746 0.179375
vn -0.754787 -0.491831 0.43405
v -0.8193 0.535877 0.0581191
vn -0.563795 -0.819514 0.102622
v -0.700369 0.67688 -0.225169
vn -0.453451 -0.731244 -0.509574
v -0.899942 0.678165 0.144298
vn -0.750011 -0.603537 0.270603
v -0.854991 0.74587 -0.174038
vn -0.755317 -0.540715 -0.370301
v -0.819838 0.621358 -0.16536
vn -0.612126 -0.724668 -0.316477
v -0.861749 0.562239 -0.0716109
vn -0.632002 -0.764801 -0.125109
v -0.920204 0.835421 0.0697646
vn -0.920198 -0.360409 0.152777
v -0.965171 0.774348 -0.0732888
vn -0.890822 -0.432132 -0.140351
v -0.916276 0.647498 -0.118436
vn -0.745767 -0.631515 -0.212181
v -0.947118 0.607893 0.0107402
vn -0.751722 -0.659233 0.018057
v -0.981571 0.729519 0.066463
vn -0.865642 -0.4862 0.11947
v -0.194466 0.735462 0.00993091
vn 0.755777 -0.654369 0.0245654
v -0.4105 0.720238 -0.00270747
vn 0.304689 -0.952407 -0.00921717
v -0.834956 0.706092 0.00735531
vn -0.751559 -0.659459 0.0165035
v -0.668978 0.786622 -0.104573
vn -0.579523 -0.731799 -0.358641
v -0.761337 0.723644 -0.105394
vn -0.662138 -0.700191 -0.267031
v -0.721484 0.70424 0.125394
vn -0.567623 -0.757978 0.321361
v -0.717963 0.634038 -0.0365461
vn -0.509833 -0.856015 -0.0854844
v -0.707889 0.788375 0.0218916
vn -0.698882 -0.71144 0.0735952
v -0.568476 0.819056 0.0783447
vn -0.328061 -0.866888 0.375342
v -0.582103 0.652956 -0.0511752
vn -0.227889 -0.96327 -0.142044
v -0.620475 0.699604 0.113816
vn -0.351153 -0.875578 0.331745
v -0.780189 0.812081 -0.0692411
vn -0.813549 -0.545635 -0.201047
v -0.56484 0.825031 -0.0737486
vn -0.323164 -0.872045 -0.367562
g leftSphere
usemtl leftSphere

s 1
f 75//75 76//76 66//66
f 77//77 82//82 73//73
f 46//46 43//43 55//55
f 72//72 77//77 73//73
f 43//43 59//59 55//55
f 77//77 86//86 82//82
f 53//53 44//44 49//49
f 8//8 12//12 3//3
f 3//3 12//12 7//7
f 2//2 8//8 3//3
f 74//74 84//84 83//83
f 74//74 68//68 71//71
f 79//79 87//87 86//86
f 2//2 4//4 5//5
f 38//38 47//47 49//49
f 76//76 83//83 79//79
f 50//50 58//58 60//60
f 46//46 34//34 43//43
f 30//30 22//22 18//18
f 75//75 66//66 63//63
f 20//20 25//25 16//16
f 6//6 15//15 20//20
f 52//52 50//50 60//60
f 2//2 3//3 1//1
f 36//36 45//45 51//51
f 66//66 55//55 59//59
f 16//16 26//26 21//21
f 16//16 25//25 27//27
f 50//50 52//52 40//40
f 13//13 10//10 9//9
f 24//24 25//25 20//20
f 44//44 39//39 49//49
f 14//14 19//19 17//17
f 24//24 23//23 33//33
f 31//31 19//19 38//38
f 22//22 15//15 18//18
f 43//43 34//34 40//40
f 31//31 39//39 32//32
f 16//16 8//8 6//6
f 21//21 26//26 29//29
f 57//57 56//56 64//64
f 47//47 62//62 53//53
f 3//3 7//7 1//1
f 29//29 48//48 42//42
f 30//30 45//45 36//36
f 76//76 69//69 65//65
f 28//28 34//34 46//46
f 17//17 11//11 14//14
f 46//46 56//56 48//48
f 84//84 80//80 85//85
f 43//43 52//52 59//59
f 77//77 69//69 79//79
f 56//56 55//55 65//65
f 67//67 51//51 78//78
f 75//75 83//83 76//76
f 17//17 32//32 13//13
f 48//48 28//28 46//46
f 6//6 8//8 2//2
f 79//79 69//69 76//76
f 44//44 45//45 35//35
f 5//5 6//6 2//2
f 16//16 12//12 8//8
f 58//58 41//41 51//51
f 21//21 12//12 16//16
f 48//48 56//56 57//57
f 58//58 51//51 67//67
f 23//23 15//15 22//22
f 27//27 34//34 28//28
f 73//73 81//81 78//78
f 14//14 12//12 21//21
f 10//10 15//15 5//5
f 80//80 84//84 74//74
f 29//29 19//19 21//21
f 70//70 77//77 72//72
f 24//24 34//34 25//25
f 28//28 26//26 27//27
f 49//49 39//39 31//31
f 40//40 33//33 50//50
f 83//83 84//84 87//87
f 5//5 15//15 6//6
f 17//17 19//19 31//31
f 38//38 29//29 42//42
f 49//49 47//47 53//53
f 68//68 67//67 71//71
f 9//9 11//11 13//13
f 42//42 47//47 38//38
f 65//65 66//66 76//76
f 1//1 4//4 2//2
f 85//85 81//81 82//82
f 68//68 60//60 67//67
f 16//16 6//6 20//20
f 79//79 86//86 77//77
f 13//13 11//11 17//17
f 86//86 85//85 82//82
f 39//39 44//44 35//35
f 64//64 56//56 65//65
f 78//78 61//61 73//73
f 79//79 83//83 87//87
f 54//54 61//61 78//78
f 87//87 84//84 86//86
f 73//73 61//61 72//72
f 84//84 85//85 86//86
f 48//48 57//57 42//42
f 59//59 63//63 66//66
f 25//25 34//34 27//27
f 14//14 11//11 7//7
f 28//28 48//48 29//29
f 29//29 26//26 28//28
f 51//51 54//54 78//78
f 70//70 62//62 64//64
f 20//20 23//23 24//24
f 54//54 45//45 44//44
f 32//32 30//30 18//18
f 74//74 75//75 68//68
f 71//71 80//80 74//74
f 65//65 55//55 66//66
f 74//74 83//83 75//75
f 56//56 46//46 55//55
f 53//53 72//72 61//61
f 71//71 78//78 80//80
f 62//62 47//47 57//57
f 71//71 67//67 78//78
f 58//58 67//67 60//60
f 80//80 81//81 85//85
f 13//13 18//18 10//10
f 59//59 52//52 63//63
f 21//21 19//19 14//14
f 44//44 53//53 61//61
f 9//9 4//4 1//1
f 77//77 70//70 69//69
f 37//37 23//23 22//22
f 1//1 7//7 9//9
f 5//5 4//4 10//10
f 62//62 57//57 64//64
f 80//80 78//78 81//81
f 33//33 23//23 37//37
f 40//40 34//34 24//24
f 32//32 18//18 13//13
f 50//50 41//41 58//58
f 75//75 63//63 68//68
f 37//37 41//41 33//33
f 10//10 4//4 9//9
f 7//7 11//11 9//9
f 63//63 52//52 60//60
f 57//57 47//47 42//42
f 49//49 31//31 38//38
f 35//35 32//32 39//39
f 31//31 32//32 17//17
f 73//73 82//82 81//81
f 30//30 32//32 35//35
f 20//20 15//15 23//23
f 27//27 26//26 16//16
f 35//35 45//45 30//30
f 36//36 37//37 22//22
f 7//7 12//12 14//14
f 36//36 41//41 37//37
f 18//18 15//15 10//10
f 70//70 64//64 69//69
f 33//33 41//41 50//50
f 54//54 44//44 61//61
f 24//24 33//33 40//40
f 51//51 45//45 54//54
f 40//40 52//52 43//43
f 38//38 19//19 29//29
f 51//51 41//41 36//36
f 72//72 62//62 70//70
f 22//22 30//30 36//36
f 53//53 62//62 72//72
f 69//69 64//64 65//65
f 63//63 60//60 68//68

## Object rightSphere

v -0.5875 0.25 0
vn 0 0 0
v -0.3375 0.25 0
vn 1 0 0
v -0.363893 0.361804 0
vn 0.894427 0.447214 0
v -0.356335 0.298578 0.0818727
vn 0.924658 0.194311 0.327491
v -0.365269 0.304668 -0.100621
vn 0.888925 0.218673 -0.402486
v -0.403472 0.399769 -0.078758
vn 0.736112 0.599077 -0.315032
v -0.432693 0.446087 0.00919147
vn 0.61923 0.784348 0.0367659
v -0.363941 0.188416 0.0934285
vn 0.894236 -0.246334 0.373714
v -0.410629 0.387968 0.110368
vn 0.707486 0.551874 0.441473
v -0.367473 0.191604 -0.103335
vn 0.880107 -0.233582 -0.413341
v -0.358458 0.149801 -8.75488e-05
vn 0.916168 -0.400795 -0.000350195
v -0.421135 0.251713 -0.186601
vn 0.665458 0.00685229 -0.746404
v -0.444167 0.364414 -0.169897
vn 0.573332 0.457656 -0.67959
v -0.485119 0.455304 -0.0993403
vn 0.409525 0.821214 -0.397361
v -0.409409 0.274129 0.173785
vn 0.712366 0.096514 0.69514
v -0.527304 0.492563 -0.00629535
vn 0.240784 0.970252 -0.0251814
v -0.442748 0.137095 -0.169703
vn 0.579009 -0.45162 -0.678813
v -0.436004 0.146356 0.169726
vn 0.605982 -0.414577 0.678905
v -0.511892 0.464419 0.103961
vn 0.302433 0.857675 0.415846
v -0.414726 0.0800885 0.061474
vn 0.691098 -0.679646 0.245896
v -0.500173 0.374247 0.198587
vn 0.349309 0.496986 0.794347
v -0.413442 0.0814998 -0.0617362
vn 0.696233 -0.674001 -0.246945
v -0.596483 0.483348 -0.0892645
vn -0.035932 0.933391 -0.357058
v -0.502895 0.196054 -0.22898
vn 0.338418 -0.215782 -0.915921
v -0.54919 0.415044 -0.183828
vn 0.153241 0.660177 -0.735312
v -0.518203 0.302872 -0.234313
vn 0.277186 0.211488 -0.937252
v -0.506754 0.236186 0.236198
vn 0.322982 -0.0552575 0.944791
v -0.533178 0.122009 0.207768
vn 0.21729 -0.511964 0.83107
v -0.500781 0.048265 -0.119511
vn 0.346876 -0.80694 -0.478043
v -0.627208 0.494429 0.0343175
vn -0.158833 0.977716 0.13727
v -0.514707 0.0432995 0.120316
vn 0.291174 -0.826802 0.481264
v -0.556411 0.102098 -0.199144
vn 0.124357 -0.591609 -0.796576
v -0.652097 0.431072 -0.159813
vn -0.258388 0.724289 -0.639251
v -0.502034 0.0151782 -0.0073646
vn 0.341866 -0.939287 -0.0294584
v -0.606661 0.322435 0.238508
vn -0.0766425 0.289742 0.954031
v -0.709291 0.458556 -0.0645855
vn -0.487165 0.834224 -0.258342
v -0.620815 0.440442 0.158499
vn -0.133259 0.761769 0.633996
v -0.609796 0.20734 -0.245322
vn -0.0891821 -0.170641 -0.981289
v -0.615078 0.185665 0.240001
vn -0.11031 -0.257341 0.960004
v -0.604107 0.0208233 -0.0985003
vn -0.0664263 -0.916707 -0.394001
v -0.738032 0.440036 0.0610438
vn -0.602127 0.760145 0.244175
v -0.625648 0.0683658 0.167492
vn -0.152591 -0.726537 0.66997
v -0.639455 0.335107 -0.229254
vn -0.207822 0.340429 -0.917016
v -0.70028 0.256923 0.223008
vn -0.451122 0.0276906 0.892033
v -0.798255 0.376885 -0.044525
vn -0.843022 0.507538 -0.1781
v -0.728947 0.364011 0.171739
vn -0.565787 0.456045 0.686955
v -0.682286 0.105617 -0.180746
vn -0.379144 -0.577531 -0.722985
v -0.618059 0.00569375 0.0433655
vn -0.122236 -0.977225 0.173462
v -0.740168 0.370642 -0.156965
vn -0.610673 0.482569 -0.627859
v -0.725921 0.239512 -0.207917
vn -0.553685 -0.0419533 -0.831669
v -0.716083 0.147342 0.188223
vn -0.514331 -0.410633 0.752891
v -0.811335 0.338188 0.0679763
vn -0.89534 0.352752 0.271905
v -0.726307 0.0495782 -0.0553525
vn -0.555226 -0.801687 -0.22141
v -0.728081 0.0603012 0.082167
vn -0.562323 -0.758795 0.328668
v -0.781603 0.249774 0.157556
vn -0.776413 -0.000904782 0.630224
v -0.790415 0.161365 -0.116058
vn -0.811658 -0.354539 -0.464234
v -0.800165 0.278246 -0.128358
vn -0.85066 0.112984 -0.513432
v -0.788956 0.146983 0.106315
vn -0.805824 -0.412069 0.42526
v -0.835034 0.250792 -0.035022
vn -0.990134 0.00316965 -0.140088
v -0.805951 0.128435 0.00096488
vn -0.873805 -0.486261 0.00385952
v -0.827736 0.222041 0.063286
vn -0.960943 -0.111836 0.253144
g rightSphere
usemtl rightSphere

s 1
f 160//160 161//161 159//159
f 159//159 161//161 152//152
f 156//156 160//160 159//159
f 134//134 120//120 131//131
f 153//153 156//156 147//147
f 155//155 158//158 151//151
f 139//139 128//128 127//127
f 116//116 123//123 130//130
f 112//112 117//117 124//124
f 150//150 149//149 143//143
f 126//126 112//112 124//124
f 139//139 127//127 135//135
f 152//152 155//155 146//146
f 120//120 111//111 108//108
f 110//110 105//105 102//102
f 132//132 117//117 129//129
f 138//138 126//126 124//124
f 106//106 105//105 113//113
f 127//127 128//128 118//118
f 137//137 130//130 141//141
f 121//121 115//115 109//109
f 141//141 152//152 146//146
f 131//131 120//120 118//118
f 128//128 139//139 142//142
f 149//149 145//145 136//136
f 122//122 117//117 110//110
f 123//123 116//116 114//114
f 153//153 147//147 140//140
f 129//129 134//134 140//140
f 132//132 129//129 140//140
f 108//108 115//115 118//118
f 148//148 153//153 140//140
f 115//115 127//127 118//118
f 103//103 106//106 107//107
f 160//160 156//156 153//153
f 126//126 125//125 113//113
f 121//121 109//109 119//119
f 136//136 145//145 141//141
f 111//111 122//122 110//110
f 117//117 112//112 110//110
f 134//134 122//122 120//120
f 131//131 128//128 142//142
f 148//148 131//131 142//142
f 128//128 131//131 118//118
f 156//156 159//159 157//157
f 150//150 138//138 147//147
f 133//133 149//149 136//136
f 158//158 154//154 151//151
f 106//106 114//114 107//107
f 148//148 134//134 131//131
f 123//123 114//114 125//125
f 154//154 142//142 151//151
f 160//160 154//154 158//158
f 121//121 127//127 115//115
f 108//108 111//111 102//102
f 109//109 103//103 107//107
f 127//127 121//121 135//135
f 142//142 139//139 151//151
f 104//104 115//115 108//108
f 161//161 160//160 158//158
f 154//154 148//148 142//142
f 138//138 143//143 126//126
f 145//145 149//149 157//157
f 105//105 112//112 113//113
f 156//156 150//150 147//147
f 112//112 105//105 110//110
f 135//135 137//137 146//146
f 123//123 136//136 130//130
f 145//145 159//159 152//152
f 144//144 139//139 135//135
f 149//149 150//150 157//157
f 114//114 116//116 107//107
f 144//144 155//155 151//151
f 123//123 133//133 136//136
f 116//116 119//119 107//107
f 161//161 155//155 152//152
f 149//149 133//133 143//143
f 109//109 104//104 103//103
f 138//138 150//150 143//143
f 133//133 123//123 125//125
f 148//148 154//154 153//153
f 134//134 148//148 140//140
f 132//132 138//138 124//124
f 104//104 108//108 102//102
f 122//122 134//134 129//129
f 137//137 119//119 130//130
f 111//111 110//110 102//102
f 125//125 114//114 113//113
f 144//144 135//135 146//146
f 139//139 144//144 151//151
f 138//138 132//132 147//147
f 103//103 104//104 102//102
f 130//130 136//136 141//141
f 141//141 145//145 152//152
f 137//137 121//121 119//119
f 154//154 160//160 153//153
f 122//122 111//111 120//120
f 112//112 126//126 113//113
f 150//150 156//156 157//157
f 117//117 122//122 129//129
f 115//115 104//104 109//109
f 119//119 109//109 107//107
f 105//105 106//106 103//103
f 119//119 116//116 130//130
f 147//147 132//132 140//140
f 121//121 137//137 135//135
f 105//105 103//103 102//102
f 143//143 133//133 125//125
f 159//159 145//145 157//157
f 114//114 106//106 113//113
f 120//120 108//108 118//118
f 137//137 141//141 146//146
f 155//155 144//144 146//146
f 126//126 143//143 125//125
f 155//155 161//161 158//158
f 117//117 132//132 124//124


## Object floor
v   1.0000 0.0000 -1.0400
v  -0.9900 0.0000 -1.0400
v  -1.0100 0.0000  0.9900
v   1.0000 0.0000  0.9900
# 4 vertices

vn 0.0000 1.0000 -0.0000
# 1 vertex normals

g floor
usemtl floor

s 1
f 162//162 163//162 164//162 
f 164//162 165//162 162//162 
# 2 faces

## Object ceiling 
v   1.0000 1.5900 -1.0400
v   1.0000 1.5900  0.9900
v  -1.0200 1.5900  0.9900
v  -1.0200 1.5900 -1.0400
# 4 vertices

vn 0.0000 -1.0000 -0.0000
# 1 vertex normals

g ceiling
usemtl ceiling

s 1
f 166//163 167//163 168//163 
f 168//163 169//163 166//163 
# 2 faces

## Object backwall 
v   1.0000 1.5900 -1.0400
v  -1.0200 1.5900 -1.0400
v  -0.9900 0.0000 -1.0400
v   1.0000 0.0000 -1.0400
# 4 vertices

vn 0.0000 0.0000 1.0000
# 1 vertex normals

g backWall
usemtl backWall

s 1
f 170//164 171//164 172//164 
f 172//164 173//164 170//164 
# 2 faces

## Object rightwall 
v  1.0000 1.5900 0.9900
v  1.0000 1.5900 -1.0400
v  1.0000 0.0000 -1.0400
v  1.0000 0.0000 0.9900
# 4 vertices

vn -1.0000 0.0000 -0.0000
# 1 vertex normals

g rightWall
usemtl rightWall

s 1
f 174//165 175//165 176//165 
f 176//165 177//165 174//165 
# 2 faces

## Object leftWall 
v  -1.0200 1.5900 -1.0400
v  -1.0200 1.5900 0.9900
v  -1.0100 0.0000 0.9900
v  -0.9900 0.0000 -1.0400
# 4 vertices

vn 0.9999 0.0135 0.0057
vn 1.0000 0.0063 -0.0000
vn 0.9999 0.0116 0.0042
vn 0.9998 0.0189 0.0098
# 4 vertex normals

g leftWall
usemtl leftWall

s 1
f 178//166 179//167 180//168 
f 180//168 181//169 178//166 
# 2 faces

## Object light
v  0.2300 1.5800 -0.2200
v  0.2300 1.5800 0.1600
v  -0.2400 1.5800 0.1600
v  -0.2400 1.5800 -0.2200
# 4 vertices

vn 0.0000 -1.0000 -0.0000
# 1 vertex normals

g light
usemtl light

s 1
f 182//170 183//170 184//170 
f 184//170 185//170 182//170 
# 2 faces
