mtllib CornellBox-Sphere.mtl

## Object leftSphere

v 0.0246462 0.305564 0.157818
vn 0.593133 -0.785086 0.178419
v 0.0757418 0.347265 0.0864464
vn 0.658253 -0.74628 0.0988354
v 0.0855046 0.351204 0.182017
vn 0.655893 -0.726794 0.203899
v -0.00841245 0.313081 0.0822832
vn 0.579226 -0.809381 0.0969523
v 0.0153673 0.361868 0.0201544
vn 0.628113 -0.777734 0.0245635
v 0.097331 0.422805 0.0297766
vn 0.718662 -0.694436 0.0358249
v 0.00546837 0.346518 0.243342
vn 0.5869 -0.75876 0.282545
v 0.128604 0.40824 0.130739
vn 0.719915 -0.677719 0.14973
v -0.0738274 0.314004 0.157827
vn 0.517907 -0.833658 0.1918
v -0.0920812 0.351065 0.0453834
vn 0.531257 -0.845147 0.0591055
v -0.0953383 0.366641 0.242369
vn 0.51242 -0.802017 0.30691
v 0.0934662 0.426321 0.244966
vn 0.689277 -0.666295 0.284514
v -0.165231 0.375428 0.148653
vn 0.462352 -0.862601 0.205306
v -0.0240016 0.432544 0.302859
vn 0.594857 -0.709151 0.378484
v -0.0279005 0.434741 -0.0442577
vn 0.639872 -0.766137 -0.0599857
v 0.157849 0.514282 0.138254
vn 0.793222 -0.585669 0.166704
v -0.154835 0.445659 0.268864
vn 0.488763 -0.784961 0.380719
v -0.173702 0.426706 0.0192191
vn 0.494444 -0.868721 0.029123
v -0.0715669 0.532911 0.335417
vn 0.597453 -0.651358 0.467742
v 0.0965645 0.516261 -0.0211153
vn 0.776438 -0.629594 -0.0274819
v 0.0687766 0.521991 0.296693
vn 0.710956 -0.597499 0.370858
v -0.136188 0.508375 -0.0714629
vn 0.590833 -0.798403 -0.116056
v -0.00513762 0.547803 -0.0915782
vn 0.73142 -0.66836 -0.135355
v 0.0922119 0.631534 -0.0528752
vn 0.846641 -0.526768 -0.0755917
v 0.151226 0.598103 0.0433438
vn 0.849629 -0.524339 0.056549
v 0.128557 0.601866 0.242532
vn 0.803196 -0.508752 0.309918
v 0.163273 0.631316 0.140727
vn 0.859393 -0.477698 0.182338
v 0.131884 0.711343 0.219887
vn 0.867182 -0.396146 0.301767
v 0.0320891 0.64285 0.326751
vn 0.739697 -0.496501 0.454241
v -0.245626 0.526366 0.00371782
vn 0.473137 -0.880962 0.00691516
v -0.206092 0.546435 0.285971
vn 0.480667 -0.741774 0.467686
v -0.247868 0.478331 0.149637
vn 0.421333 -0.871751 0.250056
v -0.00257596 0.663086 -0.118528
vn 0.8123 -0.550185 -0.193558
v 0.152332 0.720763 0.0631014
vn 0.915702 -0.391975 0.0885776
v -0.301828 0.574472 0.0944048
vn 0.413886 -0.888721 0.197166
v -0.209039 0.613468 -0.0880161
vn 0.591692 -0.786043 -0.178988
v -0.0976839 0.598917 -0.117768
vn 0.693447 -0.691322 -0.20299
v -0.129492 0.637476 0.345733
vn 0.594638 -0.581824 0.554875
v -0.286379 0.58163 0.201476
vn 0.417933 -0.81851 0.394174
v 0.0861772 0.747337 -0.0630397
vn 0.913878 -0.393914 -0.0982818
v -0.125679 0.693294 -0.140863
vn 0.742684 -0.60853 -0.279484
v -0.0538239 0.729731 0.349534
vn 0.710554 -0.430415 0.556647
v 0.124982 0.837039 0.0329032
vn 0.966394 -0.251982 0.0508774
v -0.340673 0.682394 0.14327
vn 0.415861 -0.828987 0.373952
v -0.304307 0.6435 -0.00426035
vn 0.481171 -0.876564 -0.0104754
v 0.127766 0.820251 0.169458
vn 0.930544 -0.266443 0.25119
v -0.179045 0.751498 0.339236
vn 0.606715 -0.469754 0.641271
v 0.0529143 0.773928 0.297217
vn 0.828704 -0.338835 0.445467
v -0.257295 0.662424 0.283607
vn 0.482242 -0.670745 0.56351
v -0.0218586 0.774172 -0.136643
vn 0.875463 -0.413484 -0.25019
v -0.256264 0.748719 -0.107863
vn 0.665379 -0.685978 -0.294458
v 0.0576771 0.863216 -0.0758649
vn 0.962845 -0.236162 -0.130983
v -0.297762 0.787434 0.268137
vn 0.508813 -0.534799 0.67461
v -0.350955 0.755616 0.0124629
vn 0.520192 -0.852941 0.0434975
v 0.0982854 0.935061 0.12817
vn 0.972353 -0.10554 0.208306
v 0.0452276 0.90739 0.25456
vn 0.895562 -0.152116 0.418127
v -0.0649813 0.843132 0.335483
vn 0.761438 -0.274574 0.587215
v -0.132175 0.798059 -0.156731
vn 0.821169 -0.450834 -0.349902
v 0.0872533 0.93627 0.0084939
vn 0.99406 -0.107878 0.0143779
v -0.0561796 0.888817 -0.145899
vn 0.924175 -0.231519 -0.303809
v -0.375666 0.832127 0.124533
vn 0.511232 -0.690251 0.512051
v -0.203183 0.880451 0.321606
vn 0.654247 -0.263512 0.708888
v 0.0204775 0.980957 -0.0738072
vn 0.989446 -0.0362013 -0.14031
v -0.0811057 0.964839 0.30297
vn 0.808412 -0.0678553 0.584693
v 0.0194042 1.02754 0.200266
vn 0.931908 0.049407 0.359314
v 0.0538325 1.03568 0.055593
vn 0.992962 0.0639749 0.0996723
v -0.197202 0.881715 -0.153587
vn 0.842188 -0.328993 -0.42718
v -0.0928452 1.00108 -0.139614
vn 0.94593 0.0024998 -0.324361
v -0.111496 1.08718 0.24982
vn 0.826518 0.185478 0.531475
v -0.207883 0.996852 0.291964
vn 0.707272 -0.00762193 0.706901
v -0.231277 0.993711 -0.141106
vn 0.885172 -0.0207163 -0.464802
v -0.315837 0.926915 0.246146
vn 0.582826 -0.231293 0.778985
v -0.380956 0.965453 0.125028
vn 0.676156 -0.196226 0.710147
v -0.155905 1.11392 -0.117283
vn 0.903217 0.299036 -0.307857
v -0.0226761 1.0948 -0.0490557
vn 0.975898 0.193816 -0.100295
v -0.0208413 1.13428 0.121825
vn 0.935283 0.262108 0.237793
v -0.28649 1.08154 0.223308
vn 0.668193 0.255182 0.698856
v -0.345015 0.900861 -0.0558673
vn 0.806054 -0.51561 -0.290558
v -0.150641 1.19638 0.169453
vn 0.8029 0.451321 0.389438
v -0.303819 1.06801 -0.0914097
vn 0.864747 0.299772 -0.402925
v -0.375868 1.02565 0.00809659
vn 0.977322 0.201935 0.0637467
v -0.365785 1.0867 0.108988
vn 0.693923 0.448272 0.563492
v -0.095974 1.20762 0.0030786
vn 0.889414 0.457052 0.00677716
v -0.245846 1.20368 -0.0575461
vn 0.768435 0.61582 -0.173991
v -0.351614 1.13303 0.00856923
vn 0.743897 0.666912 0.0429596
v -0.301194 1.19573 0.121329
vn 0.653471 0.643373 0.398807
v -0.188206 1.25553 0.0676869
vn 0.762765 0.625116 0.165588
v -0.0115208 0.495601 0.129591
vn 0.684126 -0.706422 0.181495
v -0.0889405 0.695962 0.107995
vn 0.786623 -0.581821 0.206664
v -0.205188 1.0967 0.0650744
vn 0.929959 0.305023 0.205272
v -0.179429 0.915865 -0.0457214
vn 0.958167 -0.251476 -0.136659
v -0.248693 0.996699 -0.0148829
vn 0.998165 -0.0131113 -0.0591133
v -0.0970664 1.02435 0.16418
vn 0.924628 0.0558699 0.376751
v -0.254005 0.966655 0.10284
vn 0.915489 -0.124095 0.382727
v -0.103873 0.988969 0.0347147
vn 0.995799 -0.027731 0.087267
v -0.00731802 0.87737 0.0705756
vn 0.961151 -0.239233 0.137683
v -0.214642 0.835639 0.100355
vn 0.828902 -0.477434 0.291509
v -0.0807842 0.92514 0.174021
vn 0.911276 -0.162728 0.37828
v -0.167649 1.03304 -0.0556946
vn 0.981541 0.0975838 -0.164484
v -0.104793 0.830604 -0.0375393
vn 0.915644 -0.39247 -0.0869737
g leftSphere
usemtl leftSphere

s 1
f 75//75 76//76 66//66
f 77//77 82//82 73//73
f 46//46 43//43 55//55
f 72//72 77//77 73//73
f 43//43 59//59 55//55
f 77//77 86//86 82//82
f 53//53 44//44 49//49
f 8//8 12//12 3//3
f 3//3 12//12 7//7
f 2//2 8//8 3//3
f 74//74 84//84 83//83
f 74//74 68//68 71//71
f 79//79 87//87 86//86
f 2//2 4//4 5//5
f 38//38 47//47 49//49
f 76//76 83//83 79//79
f 50//50 58//58 60//60
f 46//46 34//34 43//43
f 30//30 22//22 18//18
f 75//75 66//66 63//63
f 20//20 25//25 16//16
f 6//6 15//15 20//20
f 52//52 50//50 60//60
f 2//2 3//3 1//1
f 36//36 45//45 51//51
f 66//66 55//55 59//59
f 16//16 26//26 21//21
f 16//16 25//25 27//27
f 50//50 52//52 40//40
f 13//13 10//10 9//9
f 24//24 25//25 20//20
f 44//44 39//39 49//49
f 14//14 19//19 17//17
f 24//24 23//23 33//33
f 31//31 19//19 38//38
f 22//22 15//15 18//18
f 43//43 34//34 40//40
f 31//31 39//39 32//32
f 16//16 8//8 6//6
f 21//21 26//26 29//29
f 57//57 56//56 64//64
f 47//47 62//62 53//53
f 3//3 7//7 1//1
f 29//29 48//48 42//42
f 30//30 45//45 36//36
f 76//76 69//69 65//65
f 28//28 34//34 46//46
f 17//17 11//11 14//14
f 46//46 56//56 48//48
f 84//84 80//80 85//85
f 43//43 52//52 59//59
f 77//77 69//69 79//79
f 56//56 55//55 65//65
f 67//67 51//51 78//78
f 75//75 83//83 76//76
f 17//17 32//32 13//13
f 48//48 28//28 46//46
f 6//6 8//8 2//2
f 79//79 69//69 76//76
f 44//44 45//45 35//35
f 5//5 6//6 2//2
f 16//16 12//12 8//8
f 58//58 41//41 51//51
f 21//21 12//12 16//16
f 48//48 56//56 57//57
f 58//58 51//51 67//67
f 23//23 15//15 22//22
f 27//27 34//34 28//28
f 73//73 81//81 78//78
f 14//14 12//12 21//21
f 10//10 15//15 5//5
f 80//80 84//84 74//74
f 29//29 19//19 21//21
f 70//70 77//77 72//72
f 24//24 34//34 25//25
f 28//28 26//26 27//27
f 49//49 39//39 31//31
f 40//40 33//33 50//50
f 83//83 84//84 87//87
f 5//5 15//15 6//6
f 17//17 19//19 31//31
f 38//38 29//29 42//42
f 49//49 47//47 53//53
f 68//68 67//67 71//71
f 9//9 11//11 13//13
f 42//42 47//47 38//38
f 65//65 66//66 76//76
f 1//1 4//4 2//2
f 85//85 81//81 82//82
f 68//68 60//60 67//67
f 16//16 6//6 20//20
f 79//79 86//86 77//77
f 13//13 11//11 17//17
f 86//86 85//85 82//82
f 39//39 44//44 35//35
f 64//64 56//56 65//65
f 78//78 61//61 73//73
f 79//79 83//83 87//87
f 54//54 61//61 78//78
f 87//87 84//84 86//86
f 73//73 61//61 72//72
f 84//84 85//85 86//86
f 48//48 57//57 42//42
f 59//59 63//63 66//66
f 25//25 34//34 27//27
f 14//14 11//11 7//7
f 28//28 48//48 29//29
f 29//29 26//26 28//28
f 51//51 54//54 78//78
f 70//70 62//62 64//64
f 20//20 23//23 24//24
f 54//54 45//45 44//44
f 32//32 30//30 18//18
f 74//74 75//75 68//68
f 71//71 80//80 74//74
f 65//65 55//55 66//66
f 74//74 83//83 75//75
f 56//56 46//46 55//55
f 53//53 72//72 61//61
f 71//71 78//78 80//80
f 62//62 47//47 57//57
f 71//71 67//67 78//78
f 58//58 67//67 60//60
f 80//80 81//81 85//85
f 13//13 18//18 10//10
f 59//59 52//52 63//63
f 21//21 19//19 14//14
f 44//44 53//53 61//61
f 9//9 4//4 1//1
f 77//77 70//70 69//69
f 37//37 23//23 22//22
f 1//1 7//7 9//9
f 5//5 4//4 10//10
f 62//62 57//57 64//64
f 80//80 78//78 81//81
f 33//33 23//23 37//37
f 40//40 34//34 24//24
f 32//32 18//18 13//13
f 50//50 41//41 58//58
f 75//75 63//63 68//68
f 37//37 41//41 33//33
f 10//10 4//4 9//9
f 7//7 11//11 9//9
f 63//63 52//52 60//60
f 57//57 47//47 42//42
f 49//49 31//31 38//38
f 35//35 32//32 39//39
f 31//31 32//32 17//17
f 73//73 82//82 81//81
f 30//30 32//32 35//35
f 20//20 15//15 23//23
f 27//27 26//26 16//16
f 35//35 45//45 30//30
f 36//36 37//37 22//22
f 7//7 12//12 14//14
f 36//36 41//41 37//37
f 18//18 15//15 10//10
f 70//70 64//64 69//69
f 33//33 41//41 50//50
f 54//54 44//44 61//61
f 24//24 33//33 40//40
f 51//51 45//45 54//54
f 40//40 52//52 43//43
f 38//38 19//19 29//29
f 51//51 41//41 36//36
f 72//72 62//62 70//70
f 22//22 30//30 36//36
f 53//53 62//62 72//72
f 69//69 64//64 65//65
f 63//63 60//60 68//68

## Object rightSphere

v -0.5875 0.25 0
vn 0 0 0
v -0.3375 0.25 0
vn 1 0 0
v -0.363893 0.361804 0
vn 0.894427 0.447214 0
v -0.356335 0.298578 0.0818727
vn 0.924658 0.194311 0.327491
v -0.365269 0.304668 -0.100621
vn 0.888925 0.218673 -0.402486
v -0.403472 0.399769 -0.078758
vn 0.736112 0.599077 -0.315032
v -0.432693 0.446087 0.00919147
vn 0.61923 0.784348 0.0367659
v -0.363941 0.188416 0.0934285
vn 0.894236 -0.246334 0.373714
v -0.410629 0.387968 0.110368
vn 0.707486 0.551874 0.441473
v -0.367473 0.191604 -0.103335
vn 0.880107 -0.233582 -0.413341
v -0.358458 0.149801 -8.75488e-05
vn 0.916168 -0.400795 -0.000350195
v -0.421135 0.251713 -0.186601
vn 0.665458 0.00685229 -0.746404
v -0.444167 0.364414 -0.169897
vn 0.573332 0.457656 -0.67959
v -0.485119 0.455304 -0.0993403
vn 0.409525 0.821214 -0.397361
v -0.409409 0.274129 0.173785
vn 0.712366 0.096514 0.69514
v -0.527304 0.492563 -0.00629535
vn 0.240784 0.970252 -0.0251814
v -0.442748 0.137095 -0.169703
vn 0.579009 -0.45162 -0.678813
v -0.436004 0.146356 0.169726
vn 0.605982 -0.414577 0.678905
v -0.511892 0.464419 0.103961
vn 0.302433 0.857675 0.415846
v -0.414726 0.0800885 0.061474
vn 0.691098 -0.679646 0.245896
v -0.500173 0.374247 0.198587
vn 0.349309 0.496986 0.794347
v -0.413442 0.0814998 -0.0617362
vn 0.696233 -0.674001 -0.246945
v -0.596483 0.483348 -0.0892645
vn -0.035932 0.933391 -0.357058
v -0.502895 0.196054 -0.22898
vn 0.338418 -0.215782 -0.915921
v -0.54919 0.415044 -0.183828
vn 0.153241 0.660177 -0.735312
v -0.518203 0.302872 -0.234313
vn 0.277186 0.211488 -0.937252
v -0.506754 0.236186 0.236198
vn 0.322982 -0.0552575 0.944791
v -0.533178 0.122009 0.207768
vn 0.21729 -0.511964 0.83107
v -0.500781 0.048265 -0.119511
vn 0.346876 -0.80694 -0.478043
v -0.627208 0.494429 0.0343175
vn -0.158833 0.977716 0.13727
v -0.514707 0.0432995 0.120316
vn 0.291174 -0.826802 0.481264
v -0.556411 0.102098 -0.199144
vn 0.124357 -0.591609 -0.796576
v -0.652097 0.431072 -0.159813
vn -0.258388 0.724289 -0.639251
v -0.502034 0.0151782 -0.0073646
vn 0.341866 -0.939287 -0.0294584
v -0.606661 0.322435 0.238508
vn -0.0766425 0.289742 0.954031
v -0.709291 0.458556 -0.0645855
vn -0.487165 0.834224 -0.258342
v -0.620815 0.440442 0.158499
vn -0.133259 0.761769 0.633996
v -0.609796 0.20734 -0.245322
vn -0.0891821 -0.170641 -0.981289
v -0.615078 0.185665 0.240001
vn -0.11031 -0.257341 0.960004
v -0.604107 0.0208233 -0.0985003
vn -0.0664263 -0.916707 -0.394001
v -0.738032 0.440036 0.0610438
vn -0.602127 0.760145 0.244175
v -0.625648 0.0683658 0.167492
vn -0.152591 -0.726537 0.66997
v -0.639455 0.335107 -0.229254
vn -0.207822 0.340429 -0.917016
v -0.70028 0.256923 0.223008
vn -0.451122 0.0276906 0.892033
v -0.798255 0.376885 -0.044525
vn -0.843022 0.507538 -0.1781
v -0.728947 0.364011 0.171739
vn -0.565787 0.456045 0.686955
v -0.682286 0.105617 -0.180746
vn -0.379144 -0.577531 -0.722985
v -0.618059 0.00569375 0.0433655
vn -0.122236 -0.977225 0.173462
v -0.740168 0.370642 -0.156965
vn -0.610673 0.482569 -0.627859
v -0.725921 0.239512 -0.207917
vn -0.553685 -0.0419533 -0.831669
v -0.716083 0.147342 0.188223
vn -0.514331 -0.410633 0.752891
v -0.811335 0.338188 0.0679763
vn -0.89534 0.352752 0.271905
v -0.726307 0.0495782 -0.0553525
vn -0.555226 -0.801687 -0.22141
v -0.728081 0.0603012 0.082167
vn -0.562323 -0.758795 0.328668
v -0.781603 0.249774 0.157556
vn -0.776413 -0.000904782 0.630224
v -0.790415 0.161365 -0.116058
vn -0.811658 -0.354539 -0.464234
v -0.800165 0.278246 -0.128358
vn -0.85066 0.112984 -0.513432
v -0.788956 0.146983 0.106315
vn -0.805824 -0.412069 0.42526
v -0.835034 0.250792 -0.035022
vn -0.990134 0.00316965 -0.140088
v -0.805951 0.128435 0.00096488
vn -0.873805 -0.486261 0.00385952
v -0.827736 0.222041 0.063286
vn -0.960943 -0.111836 0.253144
g rightSphere
usemtl rightSphere

s 1
f 160//160 161//161 159//159
f 159//159 161//161 152//152
f 156//156 160//160 159//159
f 134//134 120//120 131//131
f 153//153 156//156 147//147
f 155//155 158//158 151//151
f 139//139 128//128 127//127
f 116//116 123//123 130//130
f 112//112 117//117 124//124
f 150//150 149//149 143//143
f 126//126 112//112 124//124
f 139//139 127//127 135//135
f 152//152 155//155 146//146
f 120//120 111//111 108//108
f 110//110 105//105 102//102
f 132//132 117//117 129//129
f 138//138 126//126 124//124
f 106//106 105//105 113//113
f 127//127 128//128 118//118
f 137//137 130//130 141//141
f 121//121 115//115 109//109
f 141//141 152//152 146//146
f 131//131 120//120 118//118
f 128//128 139//139 142//142
f 149//149 145//145 136//136
f 122//122 117//117 110//110
f 123//123 116//116 114//114
f 153//153 147//147 140//140
f 129//129 134//134 140//140
f 132//132 129//129 140//140
f 108//108 115//115 118//118
f 148//148 153//153 140//140
f 115//115 127//127 118//118
f 103//103 106//106 107//107
f 160//160 156//156 153//153
f 126//126 125//125 113//113
f 121//121 109//109 119//119
f 136//136 145//145 141//141
f 111//111 122//122 110//110
f 117//117 112//112 110//110
f 134//134 122//122 120//120
f 131//131 128//128 142//142
f 148//148 131//131 142//142
f 128//128 131//131 118//118
f 156//156 159//159 157//157
f 150//150 138//138 147//147
f 133//133 149//149 136//136
f 158//158 154//154 151//151
f 106//106 114//114 107//107
f 148//148 134//134 131//131
f 123//123 114//114 125//125
f 154//154 142//142 151//151
f 160//160 154//154 158//158
f 121//121 127//127 115//115
f 108//108 111//111 102//102
f 109//109 103//103 107//107
f 127//127 121//121 135//135
f 142//142 139//139 151//151
f 104//104 115//115 108//108
f 161//161 160//160 158//158
f 154//154 148//148 142//142
f 138//138 143//143 126//126
f 145//145 149//149 157//157
f 105//105 112//112 113//113
f 156//156 150//150 147//147
f 112//112 105//105 110//110
f 135//135 137//137 146//146
f 123//123 136//136 130//130
f 145//145 159//159 152//152
f 144//144 139//139 135//135
f 149//149 150//150 157//157
f 114//114 116//116 107//107
f 144//144 155//155 151//151
f 123//123 133//133 136//136
f 116//116 119//119 107//107
f 161//161 155//155 152//152
f 149//149 133//133 143//143
f 109//109 104//104 103//103
f 138//138 150//150 143//143
f 133//133 123//123 125//125
f 148//148 154//154 153//153
f 134//134 148//148 140//140
f 132//132 138//138 124//124
f 104//104 108//108 102//102
f 122//122 134//134 129//129
f 137//137 119//119 130//130
f 111//111 110//110 102//102
f 125//125 114//114 113//113
f 144//144 135//135 146//146
f 139//139 144//144 151//151
f 138//138 132//132 147//147
f 103//103 104//104 102//102
f 130//130 136//136 141//141
f 141//141 145//145 152//152
f 137//137 121//121 119//119
f 154//154 160//160 153//153
f 122//122 111//111 120//120
f 112//112 126//126 113//113
f 150//150 156//156 157//157
f 117//117 122//122 129//129
f 115//115 104//104 109//109
f 119//119 109//109 107//107
f 105//105 106//106 103//103
f 119//119 116//116 130//130
f 147//147 132//132 140//140
f 121//121 137//137 135//135
f 105//105 103//103 102//102
f 143//143 133//133 125//125
f 159//159 145//145 157//157
f 114//114 106//106 113//113
f 120//120 108//108 118//118
f 137//137 141//141 146//146
f 155//155 144//144 146//146
f 126//126 143//143 125//125
f 155//155 161//161 158//158
f 117//117 132//132 124//124


## Object floor
v   1.0000 0.0000 -1.0400
v  -0.9900 0.0000 -1.0400
v  -1.0100 0.0000  0.9900
v   1.0000 0.0000  0.9900
# 4 vertices

vn 0.0000 1.0000 -0.0000
# 1 vertex normals

g floor
usemtl floor

s 1
f 162//162 163//162 164//162 
f 164//162 165//162 162//162 
# 2 faces

## Object ceiling 
v   1.0000 1.5900 -1.0400
v   1.0000 1.5900  0.9900
v  -1.0200 1.5900  0.9900
v  -1.0200 1.5900 -1.0400
# 4 vertices

vn 0.0000 -1.0000 -0.0000
# 1 vertex normals

g ceiling
usemtl ceiling

s 1
f 166//163 167//163 168//163 
f 168//163 169//163 166//163 
# 2 faces

## Object backwall 
v   1.0000 1.5900 -1.0400
v  -1.0200 1.5900 -1.0400
v  -0.9900 0.0000 -1.0400
v   1.0000 0.0000 -1.0400
# 4 vertices

vn 0.0000 0.0000 1.0000
# 1 vertex normals

g backWall
usemtl backWall

s 1
f 170//164 171//164 172//164 
f 172//164 173//164 170//164 
# 2 faces

## Object rightwall 
v  1.0000 1.5900 0.9900
v  1.0000 1.5900 -1.0400
v  1.0000 0.0000 -1.0400
v  1.0000 0.0000 0.9900
# 4 vertices

vn -1.0000 0.0000 -0.0000
# 1 vertex normals

g rightWall
usemtl rightWall

s 1
f 174//165 175//165 176//165 
f 176//165 177//165 174//165 
# 2 faces

## Object leftWall 
v  -1.0200 1.5900 -1.0400
v  -1.0200 1.5900 0.9900
v  -1.0100 0.0000 0.9900
v  -0.9900 0.0000 -1.0400
# 4 vertices

vn 0.9999 0.0135 0.0057
vn 1.0000 0.0063 -0.0000
vn 0.9999 0.0116 0.0042
vn 0.9998 0.0189 0.0098
# 4 vertex normals

g leftWall
usemtl leftWall

s 1
f 178//166 179//167 180//168 
f 180//168 181//169 178//166 
# 2 faces

## Object light
v  0.2300 1.5800 -0.2200
v  0.2300 1.5800 0.1600
v  -0.2400 1.5800 0.1600
v  -0.2400 1.5800 -0.2200
# 4 vertices

vn 0.0000 -1.0000 -0.0000
# 1 vertex normals

g light
usemtl light

s 1
f 182//170 183//170 184//170 
f 184//170 185//170 182//170 
# 2 faces
