mtllib CornellBox-Sphere.mtl

## Object leftSphere

v 0.0549394 0.386781 0.124033
vn 0.663574 -0.733262 0.148313
v 0.103399 0.445732 0.063335
vn 0.734263 -0.674476 0.0770709
v 0.0995612 0.442285 0.159627
vn 0.718669 -0.66851 0.191338
v 0.0311513 0.394146 0.0446227
vn 0.658219 -0.750793 0.0552978
v 0.0502679 0.453269 -0.0104813
vn 0.709318 -0.704759 -0.0135109
v 0.112842 0.529583 0.014505
vn 0.793109 -0.60879 0.0187716
v 0.0152873 0.413639 0.208061
vn 0.637846 -0.725825 0.257547
v 0.134048 0.512026 0.118036
vn 0.78399 -0.603373 0.145949
v -0.0423485 0.372871 0.109349
vn 0.583722 -0.799885 0.139471
v -0.0538713 0.416453 -0.00266787
vn 0.607349 -0.794427 -0.00363198
v -0.0870364 0.410965 0.192637
vn 0.554521 -0.790947 0.25867
v 0.0816455 0.510364 0.227147
vn 0.733007 -0.617055 0.286258
v -0.144346 0.413988 0.0894257
vn 0.51447 -0.847695 0.129359
v -0.0408585 0.484374 0.267333
vn 0.620151 -0.696443 0.36108
v -0.000781924 0.521951 -0.0762639
vn 0.717898 -0.687456 -0.109671
v 0.136561 0.619933 0.134499
vn 0.844814 -0.504407 0.178501
v -0.166381 0.472545 0.214469
vn 0.505537 -0.799259 0.324987
v -0.147246 0.476236 -0.0364089
vn 0.55769 -0.828051 -0.0575611
v -0.112213 0.568345 0.298363
vn 0.594331 -0.661564 0.457278
v 0.0956151 0.62588 -0.0308416
vn 0.845994 -0.531389 -0.0438066
v 0.0305176 0.592168 0.279893
vn 0.731407 -0.562264 0.385879
v -0.119339 0.574396 -0.114611
vn 0.653619 -0.73079 -0.196795
v -0.000911027 0.643061 -0.113301
vn 0.799866 -0.57205 -0.181583
v 0.0678696 0.741439 -0.0565716
vn 0.906384 -0.412693 -0.0902946
v 0.121564 0.710315 0.0445098
vn 0.904491 -0.421546 0.06477
v 0.0773551 0.688182 0.238541
vn 0.82693 -0.446608 0.341656
v 0.115197 0.734825 0.144
vn 0.897814 -0.386995 0.210153
v 0.0590288 0.797845 0.223156
vn 0.880411 -0.318373 0.351447
v -0.034043 0.698484 0.311541
vn 0.732104 -0.473736 0.489488
v -0.238232 0.560981 -0.0550159
vn 0.509188 -0.853976 -0.107016
v -0.239667 0.558725 0.230969
vn 0.463227 -0.785187 0.410977
v -0.248231 0.497747 0.0847792
vn 0.443112 -0.883962 0.149211
v -0.0261994 0.759063 -0.13195
vn 0.865112 -0.439927 -0.240928
v 0.0924441 0.828454 0.0712676
vn 0.954194 -0.276293 0.114784
v -0.315447 0.586635 0.0317543
vn 0.406679 -0.910887 0.0699734
v -0.216176 0.663359 -0.131453
vn 0.617647 -0.732585 -0.286063
v -0.101286 0.676094 -0.147898
vn 0.745864 -0.605923 -0.276668
v -0.191141 0.656389 0.308884
vn 0.555739 -0.61827 0.555785
v -0.314819 0.585379 0.139936
vn 0.389717 -0.872578 0.294497
v 0.0328057 0.853953 -0.060798
vn 0.958637 -0.262771 -0.109389
v -0.152669 0.764174 -0.166451
vn 0.769082 -0.52218 -0.368567
v -0.137131 0.761989 0.330136
vn 0.665492 -0.436506 0.605461
v 0.0399598 0.938938 0.0446616
vn 0.990327 -0.111992 0.0819127
v -0.383349 0.679014 0.0874029
vn 0.330895 -0.910516 0.247929
v -0.324959 0.663799 -0.0573966
vn 0.456598 -0.876985 -0.14972
v 0.0353342 0.909066 0.179871
vn 0.935868 -0.158971 0.31445
v -0.261208 0.757361 0.307163
vn 0.520784 -0.529174 0.669895
v -0.0381033 0.833849 0.294582
vn 0.806835 -0.290231 0.514571
v -0.313144 0.660826 0.233298
vn 0.413319 -0.750242 0.516047
v -0.0738638 0.864505 -0.144537
vn 0.906792 -0.288325 -0.307566
v -0.297477 0.787007 -0.142272
vn 0.620226 -0.652288 -0.435706
v -0.02404 0.961147 -0.0697872
vn 0.98621 -0.0805047 -0.144602
v -0.376486 0.775855 0.227321
vn 0.360832 -0.654814 0.664092
v -0.400324 0.761364 -0.0318766
vn 0.382525 -0.915811 -0.122333
v -0.0163536 1.01878 0.140966
vn 0.959386 0.0372445 0.279627
v -0.0711032 0.967409 0.261075
vn 0.852399 -0.0647725 0.518865
v -0.169595 0.871794 0.324538
vn 0.687554 -0.266789 0.675347
v -0.187171 0.866393 -0.173386
vn 0.819341 -0.349934 -0.454122
v -0.0189282 1.02975 0.0204162
vn 0.997199 0.0616717 0.0423201
v -0.138658 0.968973 -0.148872
vn 0.921702 -0.0791424 -0.379739
v -0.451716 0.818563 0.0865427
vn 0.233555 -0.87762 0.418612
v -0.309193 0.8798 0.300092
vn 0.508303 -0.32021 0.799434
v -0.0908628 1.06709 -0.064731
vn 0.97501 0.159875 -0.15426
v -0.207348 0.990674 0.300957
vn 0.696974 -0.0222116 0.716753
v -0.116962 1.08467 0.211174
vn 0.859769 0.190054 0.474002
v -0.0772849 1.11451 0.0699236
vn 0.953142 0.258189 0.157664
v -0.274 0.933959 -0.167944
vn 0.781437 -0.228349 -0.5807
v -0.204065 1.0702 -0.13583
vn 0.888428 0.210748 -0.407775
v -0.257925 1.10918 0.257022
vn 0.655023 0.295415 0.695467
v -0.335518 0.995916 0.283908
vn 0.501259 -0.0124452 0.865208
v -0.337347 1.03455 -0.145802
vn 0.735484 0.156212 -0.659289
v -0.42273 0.91012 0.222845
vn 0.306132 -0.356091 0.882883
v -0.487608 0.947205 0.104476
vn 0.105272 -0.448511 0.887556
v -0.293609 1.16542 -0.106773
vn 0.723578 0.579923 -0.37433
v -0.160732 1.16724 -0.0348816
vn 0.893154 0.440276 -0.0918291
v -0.174048 1.18832 0.138927
vn 0.812319 0.469324 0.346227
v -0.425559 1.07019 0.220939
vn 0.305739 0.288285 0.907422
v -0.428144 0.91045 -0.0797997
vn 0.513906 -0.640454 -0.570719
v -0.315054 1.217 0.186334
vn 0.542986 0.637096 0.54706
v -0.427806 1.08621 -0.0924383
vn 0.495956 0.592251 -0.635033
v -0.490967 1.0188 -0.00279632
vn 0.429328 0.893316 -0.132903
v -0.49851 1.07037 0.104054
vn 0.0118601 0.560143 0.828311
v -0.259018 1.25729 0.0242451
vn 0.681987 0.728139 0.0686145
v -0.403437 1.22761 -0.0428591
vn 0.384812 0.907055 -0.170798
v -0.492018 1.12865 0.0105372
vn 0.0617222 0.994762 0.0814776
v -0.460065 1.1893 0.13082
vn 0.170994 0.810548 0.560154
v -0.361704 1.27751 0.0890076
vn 0.428713 0.860275 0.27592
v -0.0219408 0.564702 0.101908
vn 0.730385 -0.665054 0.155697
v -0.138909 0.747434 0.083373
vn 0.805158 -0.56317 0.185905
v -0.342562 1.11999 0.0700846
vn 0.74974 0.571401 0.333752
v -0.271637 0.959544 -0.0564261
vn 0.956757 -0.169495 -0.236405
v -0.359793 1.02076 -0.0216896
vn 0.977832 0.144787 -0.151267
v -0.226686 1.06045 0.166839
vn 0.838728 0.185494 0.511983
v -0.363144 0.978398 0.0911012
vn 0.825338 -0.130274 0.549405
v -0.219075 1.03831 0.0346877
vn 0.983498 0.134108 0.121439
v -0.100497 0.945523 0.0692127
vn 0.976547 -0.133165 0.169184
v -0.294217 0.85932 0.0769042
vn 0.788841 -0.539278 0.294802
v -0.189585 0.965893 0.169159
vn 0.874026 -0.096034 0.476294
v -0.288059 1.07774 -0.053978
vn 0.913096 0.334925 -0.232551
v -0.177428 0.890927 -0.0503683
vn 0.937113 -0.316872 -0.146327
g leftSphere
usemtl leftSphere

s 1
f 75//75 76//76 66//66
f 77//77 82//82 73//73
f 46//46 43//43 55//55
f 72//72 77//77 73//73
f 43//43 59//59 55//55
f 77//77 86//86 82//82
f 53//53 44//44 49//49
f 8//8 12//12 3//3
f 3//3 12//12 7//7
f 2//2 8//8 3//3
f 74//74 84//84 83//83
f 74//74 68//68 71//71
f 79//79 87//87 86//86
f 2//2 4//4 5//5
f 38//38 47//47 49//49
f 76//76 83//83 79//79
f 50//50 58//58 60//60
f 46//46 34//34 43//43
f 30//30 22//22 18//18
f 75//75 66//66 63//63
f 20//20 25//25 16//16
f 6//6 15//15 20//20
f 52//52 50//50 60//60
f 2//2 3//3 1//1
f 36//36 45//45 51//51
f 66//66 55//55 59//59
f 16//16 26//26 21//21
f 16//16 25//25 27//27
f 50//50 52//52 40//40
f 13//13 10//10 9//9
f 24//24 25//25 20//20
f 44//44 39//39 49//49
f 14//14 19//19 17//17
f 24//24 23//23 33//33
f 31//31 19//19 38//38
f 22//22 15//15 18//18
f 43//43 34//34 40//40
f 31//31 39//39 32//32
f 16//16 8//8 6//6
f 21//21 26//26 29//29
f 57//57 56//56 64//64
f 47//47 62//62 53//53
f 3//3 7//7 1//1
f 29//29 48//48 42//42
f 30//30 45//45 36//36
f 76//76 69//69 65//65
f 28//28 34//34 46//46
f 17//17 11//11 14//14
f 46//46 56//56 48//48
f 84//84 80//80 85//85
f 43//43 52//52 59//59
f 77//77 69//69 79//79
f 56//56 55//55 65//65
f 67//67 51//51 78//78
f 75//75 83//83 76//76
f 17//17 32//32 13//13
f 48//48 28//28 46//46
f 6//6 8//8 2//2
f 79//79 69//69 76//76
f 44//44 45//45 35//35
f 5//5 6//6 2//2
f 16//16 12//12 8//8
f 58//58 41//41 51//51
f 21//21 12//12 16//16
f 48//48 56//56 57//57
f 58//58 51//51 67//67
f 23//23 15//15 22//22
f 27//27 34//34 28//28
f 73//73 81//81 78//78
f 14//14 12//12 21//21
f 10//10 15//15 5//5
f 80//80 84//84 74//74
f 29//29 19//19 21//21
f 70//70 77//77 72//72
f 24//24 34//34 25//25
f 28//28 26//26 27//27
f 49//49 39//39 31//31
f 40//40 33//33 50//50
f 83//83 84//84 87//87
f 5//5 15//15 6//6
f 17//17 19//19 31//31
f 38//38 29//29 42//42
f 49//49 47//47 53//53
f 68//68 67//67 71//71
f 9//9 11//11 13//13
f 42//42 47//47 38//38
f 65//65 66//66 76//76
f 1//1 4//4 2//2
f 85//85 81//81 82//82
f 68//68 60//60 67//67
f 16//16 6//6 20//20
f 79//79 86//86 77//77
f 13//13 11//11 17//17
f 86//86 85//85 82//82
f 39//39 44//44 35//35
f 64//64 56//56 65//65
f 78//78 61//61 73//73
f 79//79 83//83 87//87
f 54//54 61//61 78//78
f 87//87 84//84 86//86
f 73//73 61//61 72//72
f 84//84 85//85 86//86
f 48//48 57//57 42//42
f 59//59 63//63 66//66
f 25//25 34//34 27//27
f 14//14 11//11 7//7
f 28//28 48//48 29//29
f 29//29 26//26 28//28
f 51//51 54//54 78//78
f 70//70 62//62 64//64
f 20//20 23//23 24//24
f 54//54 45//45 44//44
f 32//32 30//30 18//18
f 74//74 75//75 68//68
f 71//71 80//80 74//74
f 65//65 55//55 66//66
f 74//74 83//83 75//75
f 56//56 46//46 55//55
f 53//53 72//72 61//61
f 71//71 78//78 80//80
f 62//62 47//47 57//57
f 71//71 67//67 78//78
f 58//58 67//67 60//60
f 80//80 81//81 85//85
f 13//13 18//18 10//10
f 59//59 52//52 63//63
f 21//21 19//19 14//14
f 44//44 53//53 61//61
f 9//9 4//4 1//1
f 77//77 70//70 69//69
f 37//37 23//23 22//22
f 1//1 7//7 9//9
f 5//5 4//4 10//10
f 62//62 57//57 64//64
f 80//80 78//78 81//81
f 33//33 23//23 37//37
f 40//40 34//34 24//24
f 32//32 18//18 13//13
f 50//50 41//41 58//58
f 75//75 63//63 68//68
f 37//37 41//41 33//33
f 10//10 4//4 9//9
f 7//7 11//11 9//9
f 63//63 52//52 60//60
f 57//57 47//47 42//42
f 49//49 31//31 38//38
f 35//35 32//32 39//39
f 31//31 32//32 17//17
f 73//73 82//82 81//81
f 30//30 32//32 35//35
f 20//20 15//15 23//23
f 27//27 26//26 16//16
f 35//35 45//45 30//30
f 36//36 37//37 22//22
f 7//7 12//12 14//14
f 36//36 41//41 37//37
f 18//18 15//15 10//10
f 70//70 64//64 69//69
f 33//33 41//41 50//50
f 54//54 44//44 61//61
f 24//24 33//33 40//40
f 51//51 45//45 54//54
f 40//40 52//52 43//43
f 38//38 19//19 29//29
f 51//51 41//41 36//36
f 72//72 62//62 70//70
f 22//22 30//30 36//36
f 53//53 62//62 72//72
f 69//69 64//64 65//65
f 63//63 60//60 68//68

## Object rightSphere

v -0.5875 0.25 0
vn 0 0 0
v -0.3375 0.25 0
vn 1 0 0
v -0.363893 0.361804 0
vn 0.894427 0.447214 0
v -0.356335 0.298578 0.0818727
vn 0.924658 0.194311 0.327491
v -0.365269 0.304668 -0.100621
vn 0.888925 0.218673 -0.402486
v -0.403472 0.399769 -0.078758
vn 0.736112 0.599077 -0.315032
v -0.432693 0.446087 0.00919147
vn 0.61923 0.784348 0.0367659
v -0.363941 0.188416 0.0934285
vn 0.894236 -0.246334 0.373714
v -0.410629 0.387968 0.110368
vn 0.707486 0.551874 0.441473
v -0.367473 0.191604 -0.103335
vn 0.880107 -0.233582 -0.413341
v -0.358458 0.149801 -8.75488e-05
vn 0.916168 -0.400795 -0.000350195
v -0.421135 0.251713 -0.186601
vn 0.665458 0.00685229 -0.746404
v -0.444167 0.364414 -0.169897
vn 0.573332 0.457656 -0.67959
v -0.485119 0.455304 -0.0993403
vn 0.409525 0.821214 -0.397361
v -0.409409 0.274129 0.173785
vn 0.712366 0.096514 0.69514
v -0.527304 0.492563 -0.00629535
vn 0.240784 0.970252 -0.0251814
v -0.442748 0.137095 -0.169703
vn 0.579009 -0.45162 -0.678813
v -0.436004 0.146356 0.169726
vn 0.605982 -0.414577 0.678905
v -0.511892 0.464419 0.103961
vn 0.302433 0.857675 0.415846
v -0.414726 0.0800885 0.061474
vn 0.691098 -0.679646 0.245896
v -0.500173 0.374247 0.198587
vn 0.349309 0.496986 0.794347
v -0.413442 0.0814998 -0.0617362
vn 0.696233 -0.674001 -0.246945
v -0.596483 0.483348 -0.0892645
vn -0.035932 0.933391 -0.357058
v -0.502895 0.196054 -0.22898
vn 0.338418 -0.215782 -0.915921
v -0.54919 0.415044 -0.183828
vn 0.153241 0.660177 -0.735312
v -0.518203 0.302872 -0.234313
vn 0.277186 0.211488 -0.937252
v -0.506754 0.236186 0.236198
vn 0.322982 -0.0552575 0.944791
v -0.533178 0.122009 0.207768
vn 0.21729 -0.511964 0.83107
v -0.500781 0.048265 -0.119511
vn 0.346876 -0.80694 -0.478043
v -0.627208 0.494429 0.0343175
vn -0.158833 0.977716 0.13727
v -0.514707 0.0432995 0.120316
vn 0.291174 -0.826802 0.481264
v -0.556411 0.102098 -0.199144
vn 0.124357 -0.591609 -0.796576
v -0.652097 0.431072 -0.159813
vn -0.258388 0.724289 -0.639251
v -0.502034 0.0151782 -0.0073646
vn 0.341866 -0.939287 -0.0294584
v -0.606661 0.322435 0.238508
vn -0.0766425 0.289742 0.954031
v -0.709291 0.458556 -0.0645855
vn -0.487165 0.834224 -0.258342
v -0.620815 0.440442 0.158499
vn -0.133259 0.761769 0.633996
v -0.609796 0.20734 -0.245322
vn -0.0891821 -0.170641 -0.981289
v -0.615078 0.185665 0.240001
vn -0.11031 -0.257341 0.960004
v -0.604107 0.0208233 -0.0985003
vn -0.0664263 -0.916707 -0.394001
v -0.738032 0.440036 0.0610438
vn -0.602127 0.760145 0.244175
v -0.625648 0.0683658 0.167492
vn -0.152591 -0.726537 0.66997
v -0.639455 0.335107 -0.229254
vn -0.207822 0.340429 -0.917016
v -0.70028 0.256923 0.223008
vn -0.451122 0.0276906 0.892033
v -0.798255 0.376885 -0.044525
vn -0.843022 0.507538 -0.1781
v -0.728947 0.364011 0.171739
vn -0.565787 0.456045 0.686955
v -0.682286 0.105617 -0.180746
vn -0.379144 -0.577531 -0.722985
v -0.618059 0.00569375 0.0433655
vn -0.122236 -0.977225 0.173462
v -0.740168 0.370642 -0.156965
vn -0.610673 0.482569 -0.627859
v -0.725921 0.239512 -0.207917
vn -0.553685 -0.0419533 -0.831669
v -0.716083 0.147342 0.188223
vn -0.514331 -0.410633 0.752891
v -0.811335 0.338188 0.0679763
vn -0.89534 0.352752 0.271905
v -0.726307 0.0495782 -0.0553525
vn -0.555226 -0.801687 -0.22141
v -0.728081 0.0603012 0.082167
vn -0.562323 -0.758795 0.328668
v -0.781603 0.249774 0.157556
vn -0.776413 -0.000904782 0.630224
v -0.790415 0.161365 -0.116058
vn -0.811658 -0.354539 -0.464234
v -0.800165 0.278246 -0.128358
vn -0.85066 0.112984 -0.513432
v -0.788956 0.146983 0.106315
vn -0.805824 -0.412069 0.42526
v -0.835034 0.250792 -0.035022
vn -0.990134 0.00316965 -0.140088
v -0.805951 0.128435 0.00096488
vn -0.873805 -0.486261 0.00385952
v -0.827736 0.222041 0.063286
vn -0.960943 -0.111836 0.253144
g rightSphere
usemtl rightSphere

s 1
f 160//160 161//161 159//159
f 159//159 161//161 152//152
f 156//156 160//160 159//159
f 134//134 120//120 131//131
f 153//153 156//156 147//147
f 155//155 158//158 151//151
f 139//139 128//128 127//127
f 116//116 123//123 130//130
f 112//112 117//117 124//124
f 150//150 149//149 143//143
f 126//126 112//112 124//124
f 139//139 127//127 135//135
f 152//152 155//155 146//146
f 120//120 111//111 108//108
f 110//110 105//105 102//102
f 132//132 117//117 129//129
f 138//138 126//126 124//124
f 106//106 105//105 113//113
f 127//127 128//128 118//118
f 137//137 130//130 141//141
f 121//121 115//115 109//109
f 141//141 152//152 146//146
f 131//131 120//120 118//118
f 128//128 139//139 142//142
f 149//149 145//145 136//136
f 122//122 117//117 110//110
f 123//123 116//116 114//114
f 153//153 147//147 140//140
f 129//129 134//134 140//140
f 132//132 129//129 140//140
f 108//108 115//115 118//118
f 148//148 153//153 140//140
f 115//115 127//127 118//118
f 103//103 106//106 107//107
f 160//160 156//156 153//153
f 126//126 125//125 113//113
f 121//121 109//109 119//119
f 136//136 145//145 141//141
f 111//111 122//122 110//110
f 117//117 112//112 110//110
f 134//134 122//122 120//120
f 131//131 128//128 142//142
f 148//148 131//131 142//142
f 128//128 131//131 118//118
f 156//156 159//159 157//157
f 150//150 138//138 147//147
f 133//133 149//149 136//136
f 158//158 154//154 151//151
f 106//106 114//114 107//107
f 148//148 134//134 131//131
f 123//123 114//114 125//125
f 154//154 142//142 151//151
f 160//160 154//154 158//158
f 121//121 127//127 115//115
f 108//108 111//111 102//102
f 109//109 103//103 107//107
f 127//127 121//121 135//135
f 142//142 139//139 151//151
f 104//104 115//115 108//108
f 161//161 160//160 158//158
f 154//154 148//148 142//142
f 138//138 143//143 126//126
f 145//145 149//149 157//157
f 105//105 112//112 113//113
f 156//156 150//150 147//147
f 112//112 105//105 110//110
f 135//135 137//137 146//146
f 123//123 136//136 130//130
f 145//145 159//159 152//152
f 144//144 139//139 135//135
f 149//149 150//150 157//157
f 114//114 116//116 107//107
f 144//144 155//155 151//151
f 123//123 133//133 136//136
f 116//116 119//119 107//107
f 161//161 155//155 152//152
f 149//149 133//133 143//143
f 109//109 104//104 103//103
f 138//138 150//150 143//143
f 133//133 123//123 125//125
f 148//148 154//154 153//153
f 134//134 148//148 140//140
f 132//132 138//138 124//124
f 104//104 108//108 102//102
f 122//122 134//134 129//129
f 137//137 119//119 130//130
f 111//111 110//110 102//102
f 125//125 114//114 113//113
f 144//144 135//135 146//146
f 139//139 144//144 151//151
f 138//138 132//132 147//147
f 103//103 104//104 102//102
f 130//130 136//136 141//141
f 141//141 145//145 152//152
f 137//137 121//121 119//119
f 154//154 160//160 153//153
f 122//122 111//111 120//120
f 112//112 126//126 113//113
f 150//150 156//156 157//157
f 117//117 122//122 129//129
f 115//115 104//104 109//109
f 119//119 109//109 107//107
f 105//105 106//106 103//103
f 119//119 116//116 130//130
f 147//147 132//132 140//140
f 121//121 137//137 135//135
f 105//105 103//103 102//102
f 143//143 133//133 125//125
f 159//159 145//145 157//157
f 114//114 106//106 113//113
f 120//120 108//108 118//118
f 137//137 141//141 146//146
f 155//155 144//144 146//146
f 126//126 143//143 125//125
f 155//155 161//161 158//158
f 117//117 132//132 124//124


## Object floor
v   1.0000 0.0000 -1.0400
v  -0.9900 0.0000 -1.0400
v  -1.0100 0.0000  0.9900
v   1.0000 0.0000  0.9900
# 4 vertices

vn 0.0000 1.0000 -0.0000
# 1 vertex normals

g floor
usemtl floor

s 1
f 162//162 163//162 164//162 
f 164//162 165//162 162//162 
# 2 faces

## Object ceiling 
v   1.0000 1.5900 -1.0400
v   1.0000 1.5900  0.9900
v  -1.0200 1.5900  0.9900
v  -1.0200 1.5900 -1.0400
# 4 vertices

vn 0.0000 -1.0000 -0.0000
# 1 vertex normals

g ceiling
usemtl ceiling

s 1
f 166//163 167//163 168//163 
f 168//163 169//163 166//163 
# 2 faces

## Object backwall 
v   1.0000 1.5900 -1.0400
v  -1.0200 1.5900 -1.0400
v  -0.9900 0.0000 -1.0400
v   1.0000 0.0000 -1.0400
# 4 vertices

vn 0.0000 0.0000 1.0000
# 1 vertex normals

g backWall
usemtl backWall

s 1
f 170//164 171//164 172//164 
f 172//164 173//164 170//164 
# 2 faces

## Object rightwall 
v  1.0000 1.5900 0.9900
v  1.0000 1.5900 -1.0400
v  1.0000 0.0000 -1.0400
v  1.0000 0.0000 0.9900
# 4 vertices

vn -1.0000 0.0000 -0.0000
# 1 vertex normals

g rightWall
usemtl rightWall

s 1
f 174//165 175//165 176//165 
f 176//165 177//165 174//165 
# 2 faces

## Object leftWall 
v  -1.0200 1.5900 -1.0400
v  -1.0200 1.5900 0.9900
v  -1.0100 0.0000 0.9900
v  -0.9900 0.0000 -1.0400
# 4 vertices

vn 0.9999 0.0135 0.0057
vn 1.0000 0.0063 -0.0000
vn 0.9999 0.0116 0.0042
vn 0.9998 0.0189 0.0098
# 4 vertex normals

g leftWall
usemtl leftWall

s 1
f 178//166 179//167 180//168 
f 180//168 181//169 178//166 
# 2 faces

## Object light
v  0.2300 1.5800 -0.2200
v  0.2300 1.5800 0.1600
v  -0.2400 1.5800 0.1600
v  -0.2400 1.5800 -0.2200
# 4 vertices

vn 0.0000 -1.0000 -0.0000
# 1 vertex normals

g light
usemtl light

s 1
f 182//170 183//170 184//170 
f 184//170 185//170 182//170 
# 2 faces
