mtllib CornellBox-Sphere.mtl

## Object leftSphere

v 0.000642717 0.673236 2.0781e-05
vn 0.837413 -0.546571 3.47598e-05
v -0.0337344 0.76457 1.71882e-05
vn 0.892661 -0.450729 3.29067e-05
v -0.0231012 0.70071 0.0712375
vn 0.840317 -0.527362 0.125524
v -0.0248374 0.70795 -0.0708612
vn 0.845151 -0.519456 -0.126038
v -0.0724558 0.774935 -0.0816586
vn 0.872509 -0.459301 -0.166644
v -0.10719 0.828763 -0.00111971
vn 0.916682 -0.399608 -0.00261302
v -0.0332274 0.601551 0.0553534
vn 0.757502 -0.646623 0.0898303
v -0.0721071 0.773372 0.0833029
vn 0.870911 -0.461267 0.16955
v -0.0345784 0.608403 -0.0656267
vn 0.760769 -0.640096 -0.107272
v -0.0885747 0.683274 -0.142462
vn 0.764153 -0.588266 -0.264599
v -0.0804021 0.537111 -0.00868025
vn 0.671547 -0.740832 -0.0138923
v -0.0847282 0.667697 0.139983
vn 0.755076 -0.604216 0.254527
v -0.119208 0.560229 -0.116797
vn 0.641787 -0.741188 -0.196849
v -0.115962 0.547497 0.0998375
vn 0.638106 -0.751866 0.165887
v -0.161954 0.801056 -0.133781
vn 0.815692 -0.480044 -0.322808
v -0.164926 0.798531 0.138167
vn 0.808042 -0.48585 0.333194
v -0.16904 0.486513 -0.00823358
vn 0.541705 -0.84046 -0.0134765
v -0.18607 0.655215 -0.194633
vn 0.621295 -0.682361 -0.385196
v -0.220912 0.503556 0.118746
vn 0.479728 -0.853345 0.204114
v -0.20366 0.875364 -0.00954111
vn 0.921384 -0.38752 -0.0296653
v -0.176377 0.624082 0.184981
vn 0.611301 -0.710084 0.349416
v -0.265155 0.755243 -0.206335
vn 0.591504 -0.616471 -0.519698
v -0.270305 0.862533 -0.118705
vn 0.784404 -0.469446 -0.405377
v -0.319923 0.908261 -0.00239859
vn 0.890972 -0.453903 -0.0118676
v -0.259489 0.872791 0.093574
vn 0.835916 -0.442125 0.325224
v -0.243639 0.712445 0.212253
vn 0.582849 -0.65377 0.482567
v -0.275652 0.813041 0.176018
vn 0.65795 -0.548297 0.51621
v -0.35065 0.7432 0.229987
vn 0.397532 -0.683536 0.612166
v -0.298203 0.591552 0.214509
vn 0.400745 -0.811132 0.425991
v -0.302536 0.628554 -0.226119
vn 0.413458 -0.777747 -0.473457
v -0.277355 0.452217 -0.00259432
vn 0.37653 -0.926394 -0.00438744
v -0.239513 0.514885 -0.142399
vn 0.458006 -0.852961 -0.250375
v -0.38488 0.895097 -0.104551
vn 0.613694 -0.559229 -0.557353
v -0.374813 0.872323 0.141305
vn 0.549295 -0.560223 0.62002
v -0.352423 0.530497 -0.190077
vn 0.279724 -0.889917 -0.36028
v -0.388274 0.727636 -0.239205
vn 0.294542 -0.718032 -0.630614
v -0.348167 0.823751 -0.186778
vn 0.508937 -0.590778 -0.62607
v -0.33533 0.471344 0.116106
vn 0.291065 -0.934433 0.205224
v -0.343253 0.465226 -0.104474
vn 0.276459 -0.943195 -0.184263
v -0.435465 0.922592 0.0169367
vn 0.631495 -0.757461 0.165732
v -0.450597 0.829029 -0.19625
vn 0.18648 -0.645355 -0.740772
v -0.401438 0.530277 0.197486
vn 0.189909 -0.905064 0.380517
v -0.49883 0.887068 0.132753
vn 0.00671141 -0.647938 0.761663
v -0.460317 0.487151 -0.152131
vn 0.073979 -0.956082 -0.28361
v -0.432592 0.60578 -0.239451
vn 0.144607 -0.845705 -0.513684
v -0.463476 0.789129 0.222821
vn 0.118221 -0.682542 0.721221
v -0.457126 0.462272 0.110892
vn 0.0778515 -0.976418 0.201361
v -0.421676 0.643464 0.246571
vn 0.177802 -0.80937 0.559738
v -0.404438 0.442809 -0.00574721
vn 0.16903 -0.985559 -0.0101657
v -0.500699 0.904416 -0.100487
vn -0.00504 -0.689201 -0.724553
v -0.535444 0.720948 -0.247893
vn -0.0945337 -0.744265 -0.66116
v -0.55739 0.922229 0.0196937
vn -0.581817 -0.788434 0.199653
v -0.519523 0.490506 -0.00600251
vn -0.0382869 -0.999197 -0.0117719
v -0.552586 0.572254 -0.225436
vn -0.108121 -0.879471 -0.46351
v -0.587398 0.811475 0.206308
vn -0.298471 -0.643827 0.704558
v -0.558729 0.683246 0.249747
vn -0.144076 -0.777077 0.612693
v -0.514098 0.547731 0.214394
vn -0.0281565 -0.903255 0.42818
v -0.556789 0.845222 -0.183015
vn -0.230545 -0.62835 -0.742984
v -0.608225 0.889333 0.117304
vn -0.557239 -0.569812 0.603986
v -0.623168 0.897325 -0.0987534
vn -0.654032 -0.545215 -0.524389
v -0.61514 0.48466 -0.137808
vn -0.210982 -0.944309 -0.25252
v -0.587763 0.476428 0.122499
vn -0.161084 -0.960989 0.22484
v -0.681451 0.905409 0.028623
vn -0.878194 -0.457804 0.138531
v -0.63994 0.571444 0.216796
vn -0.279743 -0.856694 0.433381
v -0.688503 0.716567 0.229444
vn -0.459201 -0.690454 0.558934
v -0.706879 0.842167 0.155082
vn -0.682949 -0.521037 0.511958
v -0.656089 0.804482 -0.201239
vn -0.486147 -0.608951 -0.626769
v -0.741697 0.876441 -0.0866936
vn -0.84819 -0.433607 -0.304235
v -0.77434 0.597196 0.195812
vn -0.522333 -0.766925 0.372819
v -0.707143 0.500711 0.13664
vn -0.371519 -0.895497 0.245069
v -0.772403 0.780557 -0.182794
vn -0.690187 -0.556003 -0.463145
v -0.678013 0.482876 0.00871558
vn -0.325451 -0.945425 0.0159341
v -0.746375 0.489876 -0.104813
vn -0.427647 -0.885449 -0.181929
v -0.864371 0.825919 -0.0803916
vn -0.884945 -0.422789 -0.195247
v -0.800335 0.868344 0.0498505
vn -0.905464 -0.396922 0.150292
v -0.813132 0.75194 0.179757
vn -0.714812 -0.566268 0.410347
v -0.819042 0.493584 0.0598986
vn -0.530388 -0.841886 0.0995778
v -0.701303 0.631952 -0.226523
vn -0.422236 -0.771986 -0.475136
v -0.901346 0.632748 0.144677
vn -0.712966 -0.6524 0.257009
v -0.856848 0.700579 -0.174927
vn -0.717157 -0.601746 -0.351551
v -0.821278 0.575776 -0.16665
vn -0.576143 -0.760755 -0.298851
v -0.861537 0.515702 -0.0712963
vn -0.594093 -0.795819 -0.117157
v -0.921275 0.789723 0.0698838
vn -0.885038 -0.441761 0.146816
v -0.966399 0.728371 -0.073505
vn -0.856228 -0.498663 -0.134942
v -0.917175 0.600939 -0.118675
vn -0.70782 -0.677087 -0.201355
v -0.947898 0.561524 0.0106723
vn -0.71448 -0.699449 0.0170242
v -0.9826 0.683422 0.0666193
vn -0.830635 -0.544883 0.114663
v -0.19338 0.690051 0.0101372
vn 0.703089 -0.710722 0.0232449
v -0.408439 0.678381 -0.00228045
vn 0.273801 -0.961762 -0.00681939
v -0.836919 0.66086 0.00694842
vn -0.704706 -0.70935 0.0145334
v -0.670054 0.744291 -0.105954
vn -0.523473 -0.787145 -0.326158
v -0.763784 0.6812 -0.107274
vn -0.617095 -0.745798 -0.250955
v -0.722574 0.662413 0.126704
vn -0.525258 -0.796679 0.299011
v -0.72107 0.597995 -0.038247
vn -0.480198 -0.873217 -0.0830783
v -0.709235 0.745395 0.0219654
vn -0.633506 -0.770875 0.0665052
v -0.56801 0.775635 0.0791071
vn -0.274861 -0.906772 0.319712
v -0.581986 0.618503 -0.0525198
vn -0.208232 -0.968941 -0.133392
v -0.620811 0.659044 0.11456
vn -0.318399 -0.89859 0.301924
v -0.781656 0.767877 -0.0696462
vn -0.758023 -0.624714 -0.18744
v -0.564629 0.783144 -0.0744669
vn -0.271299 -0.910319 -0.312597
g leftSphere
usemtl leftSphere

s 1
f 75//75 76//76 66//66
f 77//77 82//82 73//73
f 46//46 43//43 55//55
f 72//72 77//77 73//73
f 43//43 59//59 55//55
f 77//77 86//86 82//82
f 53//53 44//44 49//49
f 8//8 12//12 3//3
f 3//3 12//12 7//7
f 2//2 8//8 3//3
f 74//74 84//84 83//83
f 74//74 68//68 71//71
f 79//79 87//87 86//86
f 2//2 4//4 5//5
f 38//38 47//47 49//49
f 76//76 83//83 79//79
f 50//50 58//58 60//60
f 46//46 34//34 43//43
f 30//30 22//22 18//18
f 75//75 66//66 63//63
f 20//20 25//25 16//16
f 6//6 15//15 20//20
f 52//52 50//50 60//60
f 2//2 3//3 1//1
f 36//36 45//45 51//51
f 66//66 55//55 59//59
f 16//16 26//26 21//21
f 16//16 25//25 27//27
f 50//50 52//52 40//40
f 13//13 10//10 9//9
f 24//24 25//25 20//20
f 44//44 39//39 49//49
f 14//14 19//19 17//17
f 24//24 23//23 33//33
f 31//31 19//19 38//38
f 22//22 15//15 18//18
f 43//43 34//34 40//40
f 31//31 39//39 32//32
f 16//16 8//8 6//6
f 21//21 26//26 29//29
f 57//57 56//56 64//64
f 47//47 62//62 53//53
f 3//3 7//7 1//1
f 29//29 48//48 42//42
f 30//30 45//45 36//36
f 76//76 69//69 65//65
f 28//28 34//34 46//46
f 17//17 11//11 14//14
f 46//46 56//56 48//48
f 84//84 80//80 85//85
f 43//43 52//52 59//59
f 77//77 69//69 79//79
f 56//56 55//55 65//65
f 67//67 51//51 78//78
f 75//75 83//83 76//76
f 17//17 32//32 13//13
f 48//48 28//28 46//46
f 6//6 8//8 2//2
f 79//79 69//69 76//76
f 44//44 45//45 35//35
f 5//5 6//6 2//2
f 16//16 12//12 8//8
f 58//58 41//41 51//51
f 21//21 12//12 16//16
f 48//48 56//56 57//57
f 58//58 51//51 67//67
f 23//23 15//15 22//22
f 27//27 34//34 28//28
f 73//73 81//81 78//78
f 14//14 12//12 21//21
f 10//10 15//15 5//5
f 80//80 84//84 74//74
f 29//29 19//19 21//21
f 70//70 77//77 72//72
f 24//24 34//34 25//25
f 28//28 26//26 27//27
f 49//49 39//39 31//31
f 40//40 33//33 50//50
f 83//83 84//84 87//87
f 5//5 15//15 6//6
f 17//17 19//19 31//31
f 38//38 29//29 42//42
f 49//49 47//47 53//53
f 68//68 67//67 71//71
f 9//9 11//11 13//13
f 42//42 47//47 38//38
f 65//65 66//66 76//76
f 1//1 4//4 2//2
f 85//85 81//81 82//82
f 68//68 60//60 67//67
f 16//16 6//6 20//20
f 79//79 86//86 77//77
f 13//13 11//11 17//17
f 86//86 85//85 82//82
f 39//39 44//44 35//35
f 64//64 56//56 65//65
f 78//78 61//61 73//73
f 79//79 83//83 87//87
f 54//54 61//61 78//78
f 87//87 84//84 86//86
f 73//73 61//61 72//72
f 84//84 85//85 86//86
f 48//48 57//57 42//42
f 59//59 63//63 66//66
f 25//25 34//34 27//27
f 14//14 11//11 7//7
f 28//28 48//48 29//29
f 29//29 26//26 28//28
f 51//51 54//54 78//78
f 70//70 62//62 64//64
f 20//20 23//23 24//24
f 54//54 45//45 44//44
f 32//32 30//30 18//18
f 74//74 75//75 68//68
f 71//71 80//80 74//74
f 65//65 55//55 66//66
f 74//74 83//83 75//75
f 56//56 46//46 55//55
f 53//53 72//72 61//61
f 71//71 78//78 80//80
f 62//62 47//47 57//57
f 71//71 67//67 78//78
f 58//58 67//67 60//60
f 80//80 81//81 85//85
f 13//13 18//18 10//10
f 59//59 52//52 63//63
f 21//21 19//19 14//14
f 44//44 53//53 61//61
f 9//9 4//4 1//1
f 77//77 70//70 69//69
f 37//37 23//23 22//22
f 1//1 7//7 9//9
f 5//5 4//4 10//10
f 62//62 57//57 64//64
f 80//80 78//78 81//81
f 33//33 23//23 37//37
f 40//40 34//34 24//24
f 32//32 18//18 13//13
f 50//50 41//41 58//58
f 75//75 63//63 68//68
f 37//37 41//41 33//33
f 10//10 4//4 9//9
f 7//7 11//11 9//9
f 63//63 52//52 60//60
f 57//57 47//47 42//42
f 49//49 31//31 38//38
f 35//35 32//32 39//39
f 31//31 32//32 17//17
f 73//73 82//82 81//81
f 30//30 32//32 35//35
f 20//20 15//15 23//23
f 27//27 26//26 16//16
f 35//35 45//45 30//30
f 36//36 37//37 22//22
f 7//7 12//12 14//14
f 36//36 41//41 37//37
f 18//18 15//15 10//10
f 70//70 64//64 69//69
f 33//33 41//41 50//50
f 54//54 44//44 61//61
f 24//24 33//33 40//40
f 51//51 45//45 54//54
f 40//40 52//52 43//43
f 38//38 19//19 29//29
f 51//51 41//41 36//36
f 72//72 62//62 70//70
f 22//22 30//30 36//36
f 53//53 62//62 72//72
f 69//69 64//64 65//65
f 63//63 60//60 68//68

## Object rightSphere

v -0.5875 0.25 0
vn 0 0 0
v -0.3375 0.25 0
vn 1 0 0
v -0.363893 0.361804 0
vn 0.894427 0.447214 0
v -0.356335 0.298578 0.0818727
vn 0.924658 0.194311 0.327491
v -0.365269 0.304668 -0.100621
vn 0.888925 0.218673 -0.402486
v -0.403472 0.399769 -0.078758
vn 0.736112 0.599077 -0.315032
v -0.432693 0.446087 0.00919147
vn 0.61923 0.784348 0.0367659
v -0.363941 0.188416 0.0934285
vn 0.894236 -0.246334 0.373714
v -0.410629 0.387968 0.110368
vn 0.707486 0.551874 0.441473
v -0.367473 0.191604 -0.103335
vn 0.880107 -0.233582 -0.413341
v -0.358458 0.149801 -8.75488e-05
vn 0.916168 -0.400795 -0.000350195
v -0.421135 0.251713 -0.186601
vn 0.665458 0.00685229 -0.746404
v -0.444167 0.364414 -0.169897
vn 0.573332 0.457656 -0.67959
v -0.485119 0.455304 -0.0993403
vn 0.409525 0.821214 -0.397361
v -0.409409 0.274129 0.173785
vn 0.712366 0.096514 0.69514
v -0.527304 0.492563 -0.00629535
vn 0.240784 0.970252 -0.0251814
v -0.442748 0.137095 -0.169703
vn 0.579009 -0.45162 -0.678813
v -0.436004 0.146356 0.169726
vn 0.605982 -0.414577 0.678905
v -0.511892 0.464419 0.103961
vn 0.302433 0.857675 0.415846
v -0.414726 0.0800885 0.061474
vn 0.691098 -0.679646 0.245896
v -0.500173 0.374247 0.198587
vn 0.349309 0.496986 0.794347
v -0.413442 0.0814998 -0.0617362
vn 0.696233 -0.674001 -0.246945
v -0.596483 0.483348 -0.0892645
vn -0.035932 0.933391 -0.357058
v -0.502895 0.196054 -0.22898
vn 0.338418 -0.215782 -0.915921
v -0.54919 0.415044 -0.183828
vn 0.153241 0.660177 -0.735312
v -0.518203 0.302872 -0.234313
vn 0.277186 0.211488 -0.937252
v -0.506754 0.236186 0.236198
vn 0.322982 -0.0552575 0.944791
v -0.533178 0.122009 0.207768
vn 0.21729 -0.511964 0.83107
v -0.500781 0.048265 -0.119511
vn 0.346876 -0.80694 -0.478043
v -0.627208 0.494429 0.0343175
vn -0.158833 0.977716 0.13727
v -0.514707 0.0432995 0.120316
vn 0.291174 -0.826802 0.481264
v -0.556411 0.102098 -0.199144
vn 0.124357 -0.591609 -0.796576
v -0.652097 0.431072 -0.159813
vn -0.258388 0.724289 -0.639251
v -0.502034 0.0151782 -0.0073646
vn 0.341866 -0.939287 -0.0294584
v -0.606661 0.322435 0.238508
vn -0.0766425 0.289742 0.954031
v -0.709291 0.458556 -0.0645855
vn -0.487165 0.834224 -0.258342
v -0.620815 0.440442 0.158499
vn -0.133259 0.761769 0.633996
v -0.609796 0.20734 -0.245322
vn -0.0891821 -0.170641 -0.981289
v -0.615078 0.185665 0.240001
vn -0.11031 -0.257341 0.960004
v -0.604107 0.0208233 -0.0985003
vn -0.0664263 -0.916707 -0.394001
v -0.738032 0.440036 0.0610438
vn -0.602127 0.760145 0.244175
v -0.625648 0.0683658 0.167492
vn -0.152591 -0.726537 0.66997
v -0.639455 0.335107 -0.229254
vn -0.207822 0.340429 -0.917016
v -0.70028 0.256923 0.223008
vn -0.451122 0.0276906 0.892033
v -0.798255 0.376885 -0.044525
vn -0.843022 0.507538 -0.1781
v -0.728947 0.364011 0.171739
vn -0.565787 0.456045 0.686955
v -0.682286 0.105617 -0.180746
vn -0.379144 -0.577531 -0.722985
v -0.618059 0.00569375 0.0433655
vn -0.122236 -0.977225 0.173462
v -0.740168 0.370642 -0.156965
vn -0.610673 0.482569 -0.627859
v -0.725921 0.239512 -0.207917
vn -0.553685 -0.0419533 -0.831669
v -0.716083 0.147342 0.188223
vn -0.514331 -0.410633 0.752891
v -0.811335 0.338188 0.0679763
vn -0.89534 0.352752 0.271905
v -0.726307 0.0495782 -0.0553525
vn -0.555226 -0.801687 -0.22141
v -0.728081 0.0603012 0.082167
vn -0.562323 -0.758795 0.328668
v -0.781603 0.249774 0.157556
vn -0.776413 -0.000904782 0.630224
v -0.790415 0.161365 -0.116058
vn -0.811658 -0.354539 -0.464234
v -0.800165 0.278246 -0.128358
vn -0.85066 0.112984 -0.513432
v -0.788956 0.146983 0.106315
vn -0.805824 -0.412069 0.42526
v -0.835034 0.250792 -0.035022
vn -0.990134 0.00316965 -0.140088
v -0.805951 0.128435 0.00096488
vn -0.873805 -0.486261 0.00385952
v -0.827736 0.222041 0.063286
vn -0.960943 -0.111836 0.253144
g rightSphere
usemtl rightSphere

s 1
f 160//160 161//161 159//159
f 159//159 161//161 152//152
f 156//156 160//160 159//159
f 134//134 120//120 131//131
f 153//153 156//156 147//147
f 155//155 158//158 151//151
f 139//139 128//128 127//127
f 116//116 123//123 130//130
f 112//112 117//117 124//124
f 150//150 149//149 143//143
f 126//126 112//112 124//124
f 139//139 127//127 135//135
f 152//152 155//155 146//146
f 120//120 111//111 108//108
f 110//110 105//105 102//102
f 132//132 117//117 129//129
f 138//138 126//126 124//124
f 106//106 105//105 113//113
f 127//127 128//128 118//118
f 137//137 130//130 141//141
f 121//121 115//115 109//109
f 141//141 152//152 146//146
f 131//131 120//120 118//118
f 128//128 139//139 142//142
f 149//149 145//145 136//136
f 122//122 117//117 110//110
f 123//123 116//116 114//114
f 153//153 147//147 140//140
f 129//129 134//134 140//140
f 132//132 129//129 140//140
f 108//108 115//115 118//118
f 148//148 153//153 140//140
f 115//115 127//127 118//118
f 103//103 106//106 107//107
f 160//160 156//156 153//153
f 126//126 125//125 113//113
f 121//121 109//109 119//119
f 136//136 145//145 141//141
f 111//111 122//122 110//110
f 117//117 112//112 110//110
f 134//134 122//122 120//120
f 131//131 128//128 142//142
f 148//148 131//131 142//142
f 128//128 131//131 118//118
f 156//156 159//159 157//157
f 150//150 138//138 147//147
f 133//133 149//149 136//136
f 158//158 154//154 151//151
f 106//106 114//114 107//107
f 148//148 134//134 131//131
f 123//123 114//114 125//125
f 154//154 142//142 151//151
f 160//160 154//154 158//158
f 121//121 127//127 115//115
f 108//108 111//111 102//102
f 109//109 103//103 107//107
f 127//127 121//121 135//135
f 142//142 139//139 151//151
f 104//104 115//115 108//108
f 161//161 160//160 158//158
f 154//154 148//148 142//142
f 138//138 143//143 126//126
f 145//145 149//149 157//157
f 105//105 112//112 113//113
f 156//156 150//150 147//147
f 112//112 105//105 110//110
f 135//135 137//137 146//146
f 123//123 136//136 130//130
f 145//145 159//159 152//152
f 144//144 139//139 135//135
f 149//149 150//150 157//157
f 114//114 116//116 107//107
f 144//144 155//155 151//151
f 123//123 133//133 136//136
f 116//116 119//119 107//107
f 161//161 155//155 152//152
f 149//149 133//133 143//143
f 109//109 104//104 103//103
f 138//138 150//150 143//143
f 133//133 123//123 125//125
f 148//148 154//154 153//153
f 134//134 148//148 140//140
f 132//132 138//138 124//124
f 104//104 108//108 102//102
f 122//122 134//134 129//129
f 137//137 119//119 130//130
f 111//111 110//110 102//102
f 125//125 114//114 113//113
f 144//144 135//135 146//146
f 139//139 144//144 151//151
f 138//138 132//132 147//147
f 103//103 104//104 102//102
f 130//130 136//136 141//141
f 141//141 145//145 152//152
f 137//137 121//121 119//119
f 154//154 160//160 153//153
f 122//122 111//111 120//120
f 112//112 126//126 113//113
f 150//150 156//156 157//157
f 117//117 122//122 129//129
f 115//115 104//104 109//109
f 119//119 109//109 107//107
f 105//105 106//106 103//103
f 119//119 116//116 130//130
f 147//147 132//132 140//140
f 121//121 137//137 135//135
f 105//105 103//103 102//102
f 143//143 133//133 125//125
f 159//159 145//145 157//157
f 114//114 106//106 113//113
f 120//120 108//108 118//118
f 137//137 141//141 146//146
f 155//155 144//144 146//146
f 126//126 143//143 125//125
f 155//155 161//161 158//158
f 117//117 132//132 124//124


## Object floor
v   1.0000 0.0000 -1.0400
v  -0.9900 0.0000 -1.0400
v  -1.0100 0.0000  0.9900
v   1.0000 0.0000  0.9900
# 4 vertices

vn 0.0000 1.0000 -0.0000
# 1 vertex normals

g floor
usemtl floor

s 1
f 162//162 163//162 164//162 
f 164//162 165//162 162//162 
# 2 faces

## Object ceiling 
v   1.0000 1.5900 -1.0400
v   1.0000 1.5900  0.9900
v  -1.0200 1.5900  0.9900
v  -1.0200 1.5900 -1.0400
# 4 vertices

vn 0.0000 -1.0000 -0.0000
# 1 vertex normals

g ceiling
usemtl ceiling

s 1
f 166//163 167//163 168//163 
f 168//163 169//163 166//163 
# 2 faces

## Object backwall 
v   1.0000 1.5900 -1.0400
v  -1.0200 1.5900 -1.0400
v  -0.9900 0.0000 -1.0400
v   1.0000 0.0000 -1.0400
# 4 vertices

vn 0.0000 0.0000 1.0000
# 1 vertex normals

g backWall
usemtl backWall

s 1
f 170//164 171//164 172//164 
f 172//164 173//164 170//164 
# 2 faces

## Object rightwall 
v  1.0000 1.5900 0.9900
v  1.0000 1.5900 -1.0400
v  1.0000 0.0000 -1.0400
v  1.0000 0.0000 0.9900
# 4 vertices

vn -1.0000 0.0000 -0.0000
# 1 vertex normals

g rightWall
usemtl rightWall

s 1
f 174//165 175//165 176//165 
f 176//165 177//165 174//165 
# 2 faces

## Object leftWall 
v  -1.0200 1.5900 -1.0400
v  -1.0200 1.5900 0.9900
v  -1.0100 0.0000 0.9900
v  -0.9900 0.0000 -1.0400
# 4 vertices

vn 0.9999 0.0135 0.0057
vn 1.0000 0.0063 -0.0000
vn 0.9999 0.0116 0.0042
vn 0.9998 0.0189 0.0098
# 4 vertex normals

g leftWall
usemtl leftWall

s 1
f 178//166 179//167 180//168 
f 180//168 181//169 178//166 
# 2 faces

## Object light
v  0.2300 1.5800 -0.2200
v  0.2300 1.5800 0.1600
v  -0.2400 1.5800 0.1600
v  -0.2400 1.5800 -0.2200
# 4 vertices

vn 0.0000 -1.0000 -0.0000
# 1 vertex normals

g light
usemtl light

s 1
f 182//170 183//170 184//170 
f 184//170 185//170 182//170 
# 2 faces
