mtllib CornellBox-Sphere.mtl

## Object leftSphere

v 0.0326527 0.318472 0.148751
vn 0.606886 -0.776509 0.169481
v 0.0822626 0.363815 0.0786033
vn 0.672366 -0.734633 0.0907669
v 0.0910918 0.366361 0.174032
vn 0.668776 -0.716915 0.196904
v -0.000293404 0.325761 0.0732266
vn 0.593182 -0.800362 0.0869244
v 0.0218011 0.376674 0.012255
vn 0.641825 -0.766703 0.0150738
v 0.100729 0.44118 0.0238033
vn 0.731878 -0.680819 0.0289999
v 0.0107662 0.356918 0.234788
vn 0.597986 -0.752896 0.274881
v 0.131621 0.426183 0.124311
vn 0.732433 -0.665404 0.144152
v -0.0666924 0.322499 0.148353
vn 0.529855 -0.828459 0.181408
v -0.0859075 0.360719 0.0363562
vn 0.54304 -0.838352 0.0476775
v -0.0913103 0.373061 0.23374
vn 0.521263 -0.799629 0.298123
v 0.0949014 0.440115 0.238185
vn 0.699105 -0.657955 0.279905
v -0.161433 0.380872 0.139839
vn 0.470641 -0.860645 0.194389
v -0.0231383 0.440596 0.295662
vn 0.601867 -0.706047 0.373167
v -0.0239301 0.44874 -0.0511168
vn 0.652002 -0.754978 -0.070007
v 0.155613 0.532589 0.134255
vn 0.803164 -0.572606 0.164471
v -0.154336 0.450133 0.261646
vn 0.493656 -0.785287 0.373668
v -0.170828 0.434097 0.0110187
vn 0.50273 -0.86428 0.0168284
v -0.0744604 0.539349 0.330142
vn 0.600438 -0.649981 0.465832
v 0.0968378 0.535252 -0.0248398
vn 0.78858 -0.614055 -0.0328199
v 0.0659192 0.533197 0.291467
vn 0.716915 -0.591353 0.369235
v -0.134627 0.518974 -0.0776461
vn 0.59993 -0.789829 -0.127492
v -0.00461203 0.563822 -0.0957097
vn 0.742768 -0.65399 -0.143504
v 0.0887685 0.650749 -0.0541713
vn 0.857386 -0.508592 -0.0788862
v 0.147123 0.617834 0.0417557
vn 0.859732 -0.507725 0.0554744
v 0.122715 0.616379 0.239609
vn 0.809095 -0.49844 0.311325
v 0.156746 0.649368 0.139338
vn 0.867092 -0.462934 0.183966
v 0.122246 0.726635 0.219457
vn 0.871251 -0.382758 0.307277
v 0.0252165 0.652693 0.323786
vn 0.741796 -0.490523 0.457303
v -0.246168 0.532034 -0.0027872
vn 0.476786 -0.879004 -0.00523534
v -0.209349 0.549798 0.280674
vn 0.480472 -0.744224 0.463979
v -0.248518 0.481812 0.142762
vn 0.423787 -0.873228 0.240576
v -0.00626981 0.679205 -0.120653
vn 0.821474 -0.533743 -0.200744
v 0.143378 0.739972 0.0640017
vn 0.923222 -0.373131 0.09184
v -0.30526 0.57753 0.0886072
vn 0.411229 -0.892121 0.18711
v -0.211771 0.621404 -0.0928639
vn 0.594528 -0.780926 -0.19155
v -0.0990452 0.611481 -0.121938
vn 0.701617 -0.679856 -0.213375
v -0.135869 0.642714 0.341783
vn 0.592997 -0.58185 0.556602
v -0.290674 0.584056 0.196141
vn 0.414286 -0.82321 0.388191
v 0.0783104 0.765866 -0.0625882
vn 0.922287 -0.373395 -0.0998154
v -0.130423 0.704786 -0.143751
vn 0.74757 -0.597151 -0.290776
v -0.0637562 0.737402 0.347162
vn 0.707879 -0.426109 0.563328
v 0.111927 0.855152 0.0354608
vn 0.971566 -0.229978 0.0563016
v -0.348079 0.684527 0.138433
vn 0.403489 -0.837866 0.367665
v -0.309382 0.647732 -0.00933564
vn 0.475779 -0.879256 -0.0233016
v 0.113795 0.836567 0.171451
vn 0.932942 -0.248411 0.260598
v -0.189548 0.755931 0.336454
vn 0.598407 -0.47045 0.648526
v 0.0407721 0.78569 0.296628
vn 0.828191 -0.328215 0.454284
v -0.264486 0.665045 0.279497
vn 0.475055 -0.675636 0.563773
v -0.0295699 0.789332 -0.137311
vn 0.881909 -0.394936 -0.257415
v -0.263217 0.755473 -0.111836
vn 0.660882 -0.682497 -0.312144
v 0.0457245 0.880193 -0.0739483
vn 0.968295 -0.212577 -0.131209
v -0.309103 0.789497 0.264419
vn 0.491796 -0.542306 0.681205
v -0.35927 0.758963 0.00718029
vn 0.504039 -0.863298 0.0257169
v 0.0807693 0.950642 0.131517
vn 0.971972 -0.0826052 0.220106
v 0.0274553 0.920266 0.256286
vn 0.891245 -0.134727 0.433048
v -0.079736 0.851239 0.334661
vn 0.753905 -0.266861 0.600344
v -0.139994 0.809397 -0.158873
vn 0.823369 -0.435928 -0.363359
v 0.0718098 0.952881 0.0120173
vn 0.996404 -0.0821061 0.0209407
v -0.0665728 0.902829 -0.145859
vn 0.927075 -0.207842 -0.311984
v -0.38739 0.833466 0.118874
vn 0.482168 -0.713055 0.508986
v -0.219109 0.884827 0.319803
vn 0.637011 -0.261192 0.725256
v 0.00615162 0.996904 -0.0709056
vn 0.990312 -0.00605732 -0.138731
v -0.101859 0.973361 0.303422
vn 0.794234 -0.0531405 0.605283
v -0.002428 1.04032 0.203523
vn 0.922973 0.0747892 0.377527
v 0.0347238 1.05089 0.0600735
vn 0.989334 0.0941521 0.111147
v -0.206534 0.891427 -0.156346
vn 0.838973 -0.310392 -0.446968
v -0.10502 1.01509 -0.13871
vn 0.942898 0.0360191 -0.331128
v -0.137387 1.09503 0.251845
vn 0.802947 0.21043 0.557669
v -0.23003 1.00093 0.290229
vn 0.681089 0.00234864 0.732197
v -0.242384 1.00329 -0.144068
vn 0.872737 0.0111476 -0.488064
v -0.333378 0.928048 0.241877
vn 0.551004 -0.237938 0.799863
v -0.397352 0.965817 0.11834
vn 0.640183 -0.213188 0.738049
v -0.170976 1.12685 -0.1156
vn 0.886631 0.341829 -0.311511
v -0.0403121 1.11038 -0.0437429
vn 0.968226 0.232485 -0.0921343
v -0.0454412 1.14685 0.127435
vn 0.919419 0.297035 0.257758
v -0.311445 1.08291 0.219563
vn 0.626314 0.275384 0.729311
v -0.355566 0.905563 -0.0614396
vn 0.788488 -0.515546 -0.335408
v -0.180188 1.20329 0.172922
vn 0.767771 0.488049 0.415133
v -0.317628 1.07489 -0.0960399
vn 0.83161 0.341518 -0.437938
v -0.391439 1.0278 0.000853199
vn 0.968711 0.248073 0.00761326
v -0.387575 1.08684 0.102486
vn 0.641807 0.495764 0.585066
v -0.119854 1.22035 0.00965219
vn 0.864954 0.50137 0.0219618
v -0.266327 1.21248 -0.0570469
vn 0.728076 0.662051 -0.177746
v -0.371751 1.13583 0.0029323
vn 0.686441 0.727016 0.0156948
v -0.329214 1.19747 0.118887
vn 0.59534 0.688347 0.414426
v -0.216873 1.26319 0.0719141
vn 0.720064 0.66937 0.182896
v -0.013469 0.506458 0.12364
vn 0.691118 -0.701077 0.175631
v -0.0973635 0.704923 0.105236
vn 0.789239 -0.578403 0.206282
v -0.226392 1.10391 0.0642864
vn 0.913084 0.346773 0.214536
v -0.19146 0.925271 -0.048071
vn 0.960945 -0.232742 -0.149717
v -0.262951 1.00393 -0.0181857
vn 0.996934 0.0165406 -0.0764818
v -0.118157 1.03386 0.165351
vn 0.914633 0.0811042 0.396066
v -0.270085 0.971764 0.0994223
vn 0.912082 -0.112011 0.394412
v -0.12016 0.999878 0.0349382
vn 0.995796 -0.000320428 0.0915945
v -0.0221391 0.890059 0.0715711
vn 0.964322 -0.221862 0.14443
v -0.22662 0.841821 0.0972083
vn 0.827261 -0.478656 0.294157
v -0.0983574 0.934887 0.174331
vn 0.90734 -0.147094 0.393825
v -0.18233 1.04377 -0.0563127
vn 0.975711 0.134432 -0.172962
v -0.115586 0.841583 -0.0390377
vn 0.920521 -0.379346 -0.0934798
g leftSphere
usemtl leftSphere

s 1
f 75//75 76//76 66//66
f 77//77 82//82 73//73
f 46//46 43//43 55//55
f 72//72 77//77 73//73
f 43//43 59//59 55//55
f 77//77 86//86 82//82
f 53//53 44//44 49//49
f 8//8 12//12 3//3
f 3//3 12//12 7//7
f 2//2 8//8 3//3
f 74//74 84//84 83//83
f 74//74 68//68 71//71
f 79//79 87//87 86//86
f 2//2 4//4 5//5
f 38//38 47//47 49//49
f 76//76 83//83 79//79
f 50//50 58//58 60//60
f 46//46 34//34 43//43
f 30//30 22//22 18//18
f 75//75 66//66 63//63
f 20//20 25//25 16//16
f 6//6 15//15 20//20
f 52//52 50//50 60//60
f 2//2 3//3 1//1
f 36//36 45//45 51//51
f 66//66 55//55 59//59
f 16//16 26//26 21//21
f 16//16 25//25 27//27
f 50//50 52//52 40//40
f 13//13 10//10 9//9
f 24//24 25//25 20//20
f 44//44 39//39 49//49
f 14//14 19//19 17//17
f 24//24 23//23 33//33
f 31//31 19//19 38//38
f 22//22 15//15 18//18
f 43//43 34//34 40//40
f 31//31 39//39 32//32
f 16//16 8//8 6//6
f 21//21 26//26 29//29
f 57//57 56//56 64//64
f 47//47 62//62 53//53
f 3//3 7//7 1//1
f 29//29 48//48 42//42
f 30//30 45//45 36//36
f 76//76 69//69 65//65
f 28//28 34//34 46//46
f 17//17 11//11 14//14
f 46//46 56//56 48//48
f 84//84 80//80 85//85
f 43//43 52//52 59//59
f 77//77 69//69 79//79
f 56//56 55//55 65//65
f 67//67 51//51 78//78
f 75//75 83//83 76//76
f 17//17 32//32 13//13
f 48//48 28//28 46//46
f 6//6 8//8 2//2
f 79//79 69//69 76//76
f 44//44 45//45 35//35
f 5//5 6//6 2//2
f 16//16 12//12 8//8
f 58//58 41//41 51//51
f 21//21 12//12 16//16
f 48//48 56//56 57//57
f 58//58 51//51 67//67
f 23//23 15//15 22//22
f 27//27 34//34 28//28
f 73//73 81//81 78//78
f 14//14 12//12 21//21
f 10//10 15//15 5//5
f 80//80 84//84 74//74
f 29//29 19//19 21//21
f 70//70 77//77 72//72
f 24//24 34//34 25//25
f 28//28 26//26 27//27
f 49//49 39//39 31//31
f 40//40 33//33 50//50
f 83//83 84//84 87//87
f 5//5 15//15 6//6
f 17//17 19//19 31//31
f 38//38 29//29 42//42
f 49//49 47//47 53//53
f 68//68 67//67 71//71
f 9//9 11//11 13//13
f 42//42 47//47 38//38
f 65//65 66//66 76//76
f 1//1 4//4 2//2
f 85//85 81//81 82//82
f 68//68 60//60 67//67
f 16//16 6//6 20//20
f 79//79 86//86 77//77
f 13//13 11//11 17//17
f 86//86 85//85 82//82
f 39//39 44//44 35//35
f 64//64 56//56 65//65
f 78//78 61//61 73//73
f 79//79 83//83 87//87
f 54//54 61//61 78//78
f 87//87 84//84 86//86
f 73//73 61//61 72//72
f 84//84 85//85 86//86
f 48//48 57//57 42//42
f 59//59 63//63 66//66
f 25//25 34//34 27//27
f 14//14 11//11 7//7
f 28//28 48//48 29//29
f 29//29 26//26 28//28
f 51//51 54//54 78//78
f 70//70 62//62 64//64
f 20//20 23//23 24//24
f 54//54 45//45 44//44
f 32//32 30//30 18//18
f 74//74 75//75 68//68
f 71//71 80//80 74//74
f 65//65 55//55 66//66
f 74//74 83//83 75//75
f 56//56 46//46 55//55
f 53//53 72//72 61//61
f 71//71 78//78 80//80
f 62//62 47//47 57//57
f 71//71 67//67 78//78
f 58//58 67//67 60//60
f 80//80 81//81 85//85
f 13//13 18//18 10//10
f 59//59 52//52 63//63
f 21//21 19//19 14//14
f 44//44 53//53 61//61
f 9//9 4//4 1//1
f 77//77 70//70 69//69
f 37//37 23//23 22//22
f 1//1 7//7 9//9
f 5//5 4//4 10//10
f 62//62 57//57 64//64
f 80//80 78//78 81//81
f 33//33 23//23 37//37
f 40//40 34//34 24//24
f 32//32 18//18 13//13
f 50//50 41//41 58//58
f 75//75 63//63 68//68
f 37//37 41//41 33//33
f 10//10 4//4 9//9
f 7//7 11//11 9//9
f 63//63 52//52 60//60
f 57//57 47//47 42//42
f 49//49 31//31 38//38
f 35//35 32//32 39//39
f 31//31 32//32 17//17
f 73//73 82//82 81//81
f 30//30 32//32 35//35
f 20//20 15//15 23//23
f 27//27 26//26 16//16
f 35//35 45//45 30//30
f 36//36 37//37 22//22
f 7//7 12//12 14//14
f 36//36 41//41 37//37
f 18//18 15//15 10//10
f 70//70 64//64 69//69
f 33//33 41//41 50//50
f 54//54 44//44 61//61
f 24//24 33//33 40//40
f 51//51 45//45 54//54
f 40//40 52//52 43//43
f 38//38 19//19 29//29
f 51//51 41//41 36//36
f 72//72 62//62 70//70
f 22//22 30//30 36//36
f 53//53 62//62 72//72
f 69//69 64//64 65//65
f 63//63 60//60 68//68

## Object rightSphere

v -0.5875 0.25 0
vn 0 0 0
v -0.3375 0.25 0
vn 1 0 0
v -0.363893 0.361804 0
vn 0.894427 0.447214 0
v -0.356335 0.298578 0.0818727
vn 0.924658 0.194311 0.327491
v -0.365269 0.304668 -0.100621
vn 0.888925 0.218673 -0.402486
v -0.403472 0.399769 -0.078758
vn 0.736112 0.599077 -0.315032
v -0.432693 0.446087 0.00919147
vn 0.61923 0.784348 0.0367659
v -0.363941 0.188416 0.0934285
vn 0.894236 -0.246334 0.373714
v -0.410629 0.387968 0.110368
vn 0.707486 0.551874 0.441473
v -0.367473 0.191604 -0.103335
vn 0.880107 -0.233582 -0.413341
v -0.358458 0.149801 -8.75488e-05
vn 0.916168 -0.400795 -0.000350195
v -0.421135 0.251713 -0.186601
vn 0.665458 0.00685229 -0.746404
v -0.444167 0.364414 -0.169897
vn 0.573332 0.457656 -0.67959
v -0.485119 0.455304 -0.0993403
vn 0.409525 0.821214 -0.397361
v -0.409409 0.274129 0.173785
vn 0.712366 0.096514 0.69514
v -0.527304 0.492563 -0.00629535
vn 0.240784 0.970252 -0.0251814
v -0.442748 0.137095 -0.169703
vn 0.579009 -0.45162 -0.678813
v -0.436004 0.146356 0.169726
vn 0.605982 -0.414577 0.678905
v -0.511892 0.464419 0.103961
vn 0.302433 0.857675 0.415846
v -0.414726 0.0800885 0.061474
vn 0.691098 -0.679646 0.245896
v -0.500173 0.374247 0.198587
vn 0.349309 0.496986 0.794347
v -0.413442 0.0814998 -0.0617362
vn 0.696233 -0.674001 -0.246945
v -0.596483 0.483348 -0.0892645
vn -0.035932 0.933391 -0.357058
v -0.502895 0.196054 -0.22898
vn 0.338418 -0.215782 -0.915921
v -0.54919 0.415044 -0.183828
vn 0.153241 0.660177 -0.735312
v -0.518203 0.302872 -0.234313
vn 0.277186 0.211488 -0.937252
v -0.506754 0.236186 0.236198
vn 0.322982 -0.0552575 0.944791
v -0.533178 0.122009 0.207768
vn 0.21729 -0.511964 0.83107
v -0.500781 0.048265 -0.119511
vn 0.346876 -0.80694 -0.478043
v -0.627208 0.494429 0.0343175
vn -0.158833 0.977716 0.13727
v -0.514707 0.0432995 0.120316
vn 0.291174 -0.826802 0.481264
v -0.556411 0.102098 -0.199144
vn 0.124357 -0.591609 -0.796576
v -0.652097 0.431072 -0.159813
vn -0.258388 0.724289 -0.639251
v -0.502034 0.0151782 -0.0073646
vn 0.341866 -0.939287 -0.0294584
v -0.606661 0.322435 0.238508
vn -0.0766425 0.289742 0.954031
v -0.709291 0.458556 -0.0645855
vn -0.487165 0.834224 -0.258342
v -0.620815 0.440442 0.158499
vn -0.133259 0.761769 0.633996
v -0.609796 0.20734 -0.245322
vn -0.0891821 -0.170641 -0.981289
v -0.615078 0.185665 0.240001
vn -0.11031 -0.257341 0.960004
v -0.604107 0.0208233 -0.0985003
vn -0.0664263 -0.916707 -0.394001
v -0.738032 0.440036 0.0610438
vn -0.602127 0.760145 0.244175
v -0.625648 0.0683658 0.167492
vn -0.152591 -0.726537 0.66997
v -0.639455 0.335107 -0.229254
vn -0.207822 0.340429 -0.917016
v -0.70028 0.256923 0.223008
vn -0.451122 0.0276906 0.892033
v -0.798255 0.376885 -0.044525
vn -0.843022 0.507538 -0.1781
v -0.728947 0.364011 0.171739
vn -0.565787 0.456045 0.686955
v -0.682286 0.105617 -0.180746
vn -0.379144 -0.577531 -0.722985
v -0.618059 0.00569375 0.0433655
vn -0.122236 -0.977225 0.173462
v -0.740168 0.370642 -0.156965
vn -0.610673 0.482569 -0.627859
v -0.725921 0.239512 -0.207917
vn -0.553685 -0.0419533 -0.831669
v -0.716083 0.147342 0.188223
vn -0.514331 -0.410633 0.752891
v -0.811335 0.338188 0.0679763
vn -0.89534 0.352752 0.271905
v -0.726307 0.0495782 -0.0553525
vn -0.555226 -0.801687 -0.22141
v -0.728081 0.0603012 0.082167
vn -0.562323 -0.758795 0.328668
v -0.781603 0.249774 0.157556
vn -0.776413 -0.000904782 0.630224
v -0.790415 0.161365 -0.116058
vn -0.811658 -0.354539 -0.464234
v -0.800165 0.278246 -0.128358
vn -0.85066 0.112984 -0.513432
v -0.788956 0.146983 0.106315
vn -0.805824 -0.412069 0.42526
v -0.835034 0.250792 -0.035022
vn -0.990134 0.00316965 -0.140088
v -0.805951 0.128435 0.00096488
vn -0.873805 -0.486261 0.00385952
v -0.827736 0.222041 0.063286
vn -0.960943 -0.111836 0.253144
g rightSphere
usemtl rightSphere

s 1
f 160//160 161//161 159//159
f 159//159 161//161 152//152
f 156//156 160//160 159//159
f 134//134 120//120 131//131
f 153//153 156//156 147//147
f 155//155 158//158 151//151
f 139//139 128//128 127//127
f 116//116 123//123 130//130
f 112//112 117//117 124//124
f 150//150 149//149 143//143
f 126//126 112//112 124//124
f 139//139 127//127 135//135
f 152//152 155//155 146//146
f 120//120 111//111 108//108
f 110//110 105//105 102//102
f 132//132 117//117 129//129
f 138//138 126//126 124//124
f 106//106 105//105 113//113
f 127//127 128//128 118//118
f 137//137 130//130 141//141
f 121//121 115//115 109//109
f 141//141 152//152 146//146
f 131//131 120//120 118//118
f 128//128 139//139 142//142
f 149//149 145//145 136//136
f 122//122 117//117 110//110
f 123//123 116//116 114//114
f 153//153 147//147 140//140
f 129//129 134//134 140//140
f 132//132 129//129 140//140
f 108//108 115//115 118//118
f 148//148 153//153 140//140
f 115//115 127//127 118//118
f 103//103 106//106 107//107
f 160//160 156//156 153//153
f 126//126 125//125 113//113
f 121//121 109//109 119//119
f 136//136 145//145 141//141
f 111//111 122//122 110//110
f 117//117 112//112 110//110
f 134//134 122//122 120//120
f 131//131 128//128 142//142
f 148//148 131//131 142//142
f 128//128 131//131 118//118
f 156//156 159//159 157//157
f 150//150 138//138 147//147
f 133//133 149//149 136//136
f 158//158 154//154 151//151
f 106//106 114//114 107//107
f 148//148 134//134 131//131
f 123//123 114//114 125//125
f 154//154 142//142 151//151
f 160//160 154//154 158//158
f 121//121 127//127 115//115
f 108//108 111//111 102//102
f 109//109 103//103 107//107
f 127//127 121//121 135//135
f 142//142 139//139 151//151
f 104//104 115//115 108//108
f 161//161 160//160 158//158
f 154//154 148//148 142//142
f 138//138 143//143 126//126
f 145//145 149//149 157//157
f 105//105 112//112 113//113
f 156//156 150//150 147//147
f 112//112 105//105 110//110
f 135//135 137//137 146//146
f 123//123 136//136 130//130
f 145//145 159//159 152//152
f 144//144 139//139 135//135
f 149//149 150//150 157//157
f 114//114 116//116 107//107
f 144//144 155//155 151//151
f 123//123 133//133 136//136
f 116//116 119//119 107//107
f 161//161 155//155 152//152
f 149//149 133//133 143//143
f 109//109 104//104 103//103
f 138//138 150//150 143//143
f 133//133 123//123 125//125
f 148//148 154//154 153//153
f 134//134 148//148 140//140
f 132//132 138//138 124//124
f 104//104 108//108 102//102
f 122//122 134//134 129//129
f 137//137 119//119 130//130
f 111//111 110//110 102//102
f 125//125 114//114 113//113
f 144//144 135//135 146//146
f 139//139 144//144 151//151
f 138//138 132//132 147//147
f 103//103 104//104 102//102
f 130//130 136//136 141//141
f 141//141 145//145 152//152
f 137//137 121//121 119//119
f 154//154 160//160 153//153
f 122//122 111//111 120//120
f 112//112 126//126 113//113
f 150//150 156//156 157//157
f 117//117 122//122 129//129
f 115//115 104//104 109//109
f 119//119 109//109 107//107
f 105//105 106//106 103//103
f 119//119 116//116 130//130
f 147//147 132//132 140//140
f 121//121 137//137 135//135
f 105//105 103//103 102//102
f 143//143 133//133 125//125
f 159//159 145//145 157//157
f 114//114 106//106 113//113
f 120//120 108//108 118//118
f 137//137 141//141 146//146
f 155//155 144//144 146//146
f 126//126 143//143 125//125
f 155//155 161//161 158//158
f 117//117 132//132 124//124


## Object floor
v   1.0000 0.0000 -1.0400
v  -0.9900 0.0000 -1.0400
v  -1.0100 0.0000  0.9900
v   1.0000 0.0000  0.9900
# 4 vertices

vn 0.0000 1.0000 -0.0000
# 1 vertex normals

g floor
usemtl floor

s 1
f 162//162 163//162 164//162 
f 164//162 165//162 162//162 
# 2 faces

## Object ceiling 
v   1.0000 1.5900 -1.0400
v   1.0000 1.5900  0.9900
v  -1.0200 1.5900  0.9900
v  -1.0200 1.5900 -1.0400
# 4 vertices

vn 0.0000 -1.0000 -0.0000
# 1 vertex normals

g ceiling
usemtl ceiling

s 1
f 166//163 167//163 168//163 
f 168//163 169//163 166//163 
# 2 faces

## Object backwall 
v   1.0000 1.5900 -1.0400
v  -1.0200 1.5900 -1.0400
v  -0.9900 0.0000 -1.0400
v   1.0000 0.0000 -1.0400
# 4 vertices

vn 0.0000 0.0000 1.0000
# 1 vertex normals

g backWall
usemtl backWall

s 1
f 170//164 171//164 172//164 
f 172//164 173//164 170//164 
# 2 faces

## Object rightwall 
v  1.0000 1.5900 0.9900
v  1.0000 1.5900 -1.0400
v  1.0000 0.0000 -1.0400
v  1.0000 0.0000 0.9900
# 4 vertices

vn -1.0000 0.0000 -0.0000
# 1 vertex normals

g rightWall
usemtl rightWall

s 1
f 174//165 175//165 176//165 
f 176//165 177//165 174//165 
# 2 faces

## Object leftWall 
v  -1.0200 1.5900 -1.0400
v  -1.0200 1.5900 0.9900
v  -1.0100 0.0000 0.9900
v  -0.9900 0.0000 -1.0400
# 4 vertices

vn 0.9999 0.0135 0.0057
vn 1.0000 0.0063 -0.0000
vn 0.9999 0.0116 0.0042
vn 0.9998 0.0189 0.0098
# 4 vertex normals

g leftWall
usemtl leftWall

s 1
f 178//166 179//167 180//168 
f 180//168 181//169 178//166 
# 2 faces

## Object light
v  0.2300 1.5800 -0.2200
v  0.2300 1.5800 0.1600
v  -0.2400 1.5800 0.1600
v  -0.2400 1.5800 -0.2200
# 4 vertices

vn 0.0000 -1.0000 -0.0000
# 1 vertex normals

g light
usemtl light

s 1
f 182//170 183//170 184//170 
f 184//170 185//170 182//170 
# 2 faces
