mtllib CornellBox-Sphere.mtl

## Object leftSphere

v 0.0770956 0.465822 0.0574139
vn 0.73192 -0.677489 0.072817
v 0.112068 0.546903 0.0151856
vn 0.803577 -0.594867 0.0199371
v 0.103385 0.522587 0.107398
vn 0.776685 -0.614532 0.138244
v 0.0570818 0.483171 -0.0204088
vn 0.732832 -0.67988 -0.0268474
v 0.063764 0.555157 -0.0604832
vn 0.782272 -0.617258 -0.0839257
v 0.102299 0.63983 -0.0147596
vn 0.858062 -0.513115 -0.0210272
v 0.0277231 0.464862 0.140825
vn 0.690146 -0.699843 0.184168
v 0.12025 0.607217 0.0847939
vn 0.839265 -0.531479 0.114735
v -0.0113429 0.431484 0.0319
vn 0.651245 -0.757675 0.0425139
v -0.0275693 0.491106 -0.0694158
vn 0.676989 -0.729241 -0.0994721
v -0.0676837 0.440089 0.117415
vn 0.602896 -0.780836 0.163743
v 0.0641782 0.570309 0.184493
vn 0.769913 -0.586383 0.251771
v -0.117938 0.446685 0.0137535
vn 0.568083 -0.822717 0.0204499
v -0.047476 0.508201 0.207794
vn 0.64658 -0.702697 0.296902
v 0.000600457 0.617957 -0.117153
vn 0.781537 -0.596445 -0.1829
v 0.090509 0.70949 0.121747
vn 0.882321 -0.434072 0.181911
v -0.160294 0.473737 0.145434
vn 0.528278 -0.818395 0.226166
v -0.131602 0.525045 -0.0980545
vn 0.604896 -0.779859 -0.161002
v -0.14168 0.564853 0.248097
vn 0.581809 -0.706555 0.402838
v 0.0612632 0.735376 -0.0443619
vn 0.902205 -0.425371 -0.0713098
v -0.0113736 0.627676 0.245346
vn 0.73867 -0.562853 0.370896
v -0.126626 0.636801 -0.155993
vn 0.686675 -0.667962 -0.286888
v -0.0317401 0.736678 -0.13301
vn 0.846087 -0.475791 -0.240332
v 0.00120139 0.839681 -0.0547928
vn 0.947338 -0.303025 -0.103566
v 0.0550436 0.808499 0.0462347
vn 0.9424 -0.325147 0.0785011
v 0.00568813 0.740015 0.226682
vn 0.826119 -0.424725 0.370319
v 0.0339763 0.811925 0.146511
vn 0.913123 -0.321616 0.25054
v -0.0453613 0.841887 0.226088
vn 0.854905 -0.297317 0.425136
v -0.108645 0.706679 0.286745
vn 0.690296 -0.517377 0.505779
v -0.241989 0.578777 -0.109868
vn 0.50987 -0.832402 -0.217116
v -0.25768 0.530878 0.170344
vn 0.436764 -0.845558 0.307033
v -0.240199 0.494915 0.0183547
vn 0.457169 -0.888793 0.0322986
v -0.0876274 0.841035 -0.137706
vn 0.89083 -0.343406 -0.297479
v -0.0115786 0.90617 0.0864199
vn 0.967545 -0.185874 0.171195
v -0.328742 0.566693 -0.0275292
vn 0.366928 -0.928378 -0.0589824
v -0.242713 0.693753 -0.17171
vn 0.591085 -0.703564 -0.394482
v -0.134703 0.742973 -0.173777
vn 0.762189 -0.536284 -0.362585
v -0.245829 0.626138 0.262815
vn 0.486059 -0.714948 0.50259
v -0.333623 0.549817 0.0792243
vn 0.34203 -0.925467 0.162866
v -0.06468 0.935659 -0.0467853
vn 0.983709 -0.145394 -0.105723
v -0.20627 0.814464 -0.186126
vn 0.745249 -0.47074 -0.472237
v -0.228557 0.738266 0.301885
vn 0.561956 -0.541856 0.624978
v -0.0916819 1.00026 0.0693109
vn 0.985897 0.000633007 0.167353
v -0.423862 0.628224 0.0309627
vn 0.199968 -0.976422 0.0813196
v -0.352824 0.650867 -0.108757
vn 0.373366 -0.885706 -0.275903
v -0.0989735 0.947774 0.195709
vn 0.8926 -0.116243 0.435607
v -0.344637 0.705102 0.266945
vn 0.363815 -0.690565 0.625107
v -0.154591 0.838104 0.287621
vn 0.722994 -0.338874 0.602033
v -0.36015 0.609102 0.179679
vn 0.309145 -0.864101 0.39719
v -0.161275 0.929331 -0.140765
vn 0.90676 -0.189181 -0.376824
v -0.351825 0.790419 -0.176516
vn 0.475668 -0.672792 -0.566648
v -0.147982 1.02302 -0.0468842
vn 0.989172 0.0646728 -0.131745
v -0.456116 0.703262 0.178813
vn 0.125662 -0.849721 0.512039
v -0.453094 0.720255 -0.0847152
vn 0.158451 -0.944987 -0.286171
v -0.177555 1.04419 0.16809
vn 0.88027 0.120628 0.458883
v -0.225519 0.961755 0.268398
vn 0.711463 -0.0991334 0.695696
v -0.294482 0.835629 0.306131
vn 0.509088 -0.407164 0.758318
v -0.265477 0.903352 -0.184084
vn 0.748284 -0.308371 -0.587349
v -0.171309 1.07442 0.0528657
vn 0.963528 0.218167 0.154971
v -0.248633 1.0119 -0.138446
vn 0.875178 0.0414277 -0.482024
v -0.528301 0.743948 0.0296697
vn -0.109139 -0.98742 0.114416
v -0.429518 0.81017 0.267197
vn 0.210231 -0.566222 0.796992
v -0.239796 1.10532 -0.0341371
vn 0.920167 0.372451 -0.12072
v -0.36859 0.941718 0.292518
vn 0.403182 -0.178815 0.89748
v -0.302465 1.06826 0.231903
vn 0.632753 0.218651 0.742843
v -0.257268 1.13087 0.106443
vn 0.821167 0.442736 0.360097
v -0.364245 0.94415 -0.182734
vn 0.579175 -0.238273 -0.779604
v -0.336545 1.09066 -0.121626
vn 0.732981 0.406537 -0.545405
v -0.452517 1.04626 0.256587
vn 0.179171 0.174567 0.968207
v -0.492134 0.914432 0.256735
vn 0.0290536 -0.31606 0.948294
v -0.45051 1.02264 -0.160083
vn 0.2927 0.133892 -0.946784
v -0.541901 0.819018 0.175899
vn -0.163784 -0.707422 0.687553
v -0.601125 0.855911 0.0492531
vn -0.553218 -0.788257 0.269445
v -0.448639 1.15439 -0.0964436
vn 0.271549 0.816246 -0.509905
v -0.336602 1.17733 0.000293547
vn 0.677617 0.735414 0.00121735
v -0.381743 1.16333 0.168394
vn 0.450138 0.621701 0.640986
v -0.593907 0.970379 0.184642
vn -0.448764 -0.141551 0.882369
v -0.512477 0.86662 -0.123236
vn -0.0685439 -0.732759 -0.677027
v -0.532165 1.14384 0.18973
vn -0.133878 0.5987 0.789706
v -0.555784 1.04059 -0.119762
vn -0.403616 0.293652 -0.866524
v -0.610167 0.94284 -0.0514726
vn -0.81992 -0.425414 -0.383085
v -0.647767 0.970992 0.056197
vn -0.91934 -0.180473 0.349634
v -0.46472 1.22677 0.0506735
vn 0.150108 0.964874 0.215606
v -0.579773 1.17432 -0.0496918
vn -0.402812 0.880218 -0.250917
v -0.64447 1.04594 -0.0279973
vn -0.937131 0.298001 -0.181609
v -0.651853 1.08924 0.102298
vn -0.745527 0.438122 0.502233
v -0.578256 1.20704 0.0939488
vn -0.325459 0.861052 0.390725
v -0.0415756 0.622183 0.0622991
vn 0.767481 -0.63253 0.104299
v -0.209941 0.761143 0.0576572
vn 0.76302 -0.628329 0.151671
v -0.511358 1.06601 0.0586279
vn -0.127603 0.741557 0.658643
v -0.38112 0.952126 -0.0701222
vn 0.813761 -0.327706 -0.480002
v -0.484848 0.982485 -0.0444115
vn 0.302514 -0.349684 -0.886683
v -0.39602 1.02381 0.167706
vn 0.523152 0.119805 0.843776
v -0.49124 0.921172 0.0608094
vn 0.0876529 -0.788739 0.608447
v -0.365345 1.02674 0.0377718
vn 0.945701 0.187823 0.265276
v -0.230194 0.963804 0.0759912
vn 0.954624 -0.12807 0.268871
v -0.389995 0.826813 0.0458798
vn 0.523239 -0.82377 0.218228
v -0.331881 0.943415 0.163304
vn 0.69727 -0.234687 0.677301
v -0.42831 1.06189 -0.0558802
vn 0.651941 0.562792 -0.508171
v -0.275049 0.909917 -0.0585851
vn 0.902334 -0.361343 -0.234999
g leftSphere
usemtl leftSphere

s 1
f 75//75 76//76 66//66
f 77//77 82//82 73//73
f 46//46 43//43 55//55
f 72//72 77//77 73//73
f 43//43 59//59 55//55
f 77//77 86//86 82//82
f 53//53 44//44 49//49
f 8//8 12//12 3//3
f 3//3 12//12 7//7
f 2//2 8//8 3//3
f 74//74 84//84 83//83
f 74//74 68//68 71//71
f 79//79 87//87 86//86
f 2//2 4//4 5//5
f 38//38 47//47 49//49
f 76//76 83//83 79//79
f 50//50 58//58 60//60
f 46//46 34//34 43//43
f 30//30 22//22 18//18
f 75//75 66//66 63//63
f 20//20 25//25 16//16
f 6//6 15//15 20//20
f 52//52 50//50 60//60
f 2//2 3//3 1//1
f 36//36 45//45 51//51
f 66//66 55//55 59//59
f 16//16 26//26 21//21
f 16//16 25//25 27//27
f 50//50 52//52 40//40
f 13//13 10//10 9//9
f 24//24 25//25 20//20
f 44//44 39//39 49//49
f 14//14 19//19 17//17
f 24//24 23//23 33//33
f 31//31 19//19 38//38
f 22//22 15//15 18//18
f 43//43 34//34 40//40
f 31//31 39//39 32//32
f 16//16 8//8 6//6
f 21//21 26//26 29//29
f 57//57 56//56 64//64
f 47//47 62//62 53//53
f 3//3 7//7 1//1
f 29//29 48//48 42//42
f 30//30 45//45 36//36
f 76//76 69//69 65//65
f 28//28 34//34 46//46
f 17//17 11//11 14//14
f 46//46 56//56 48//48
f 84//84 80//80 85//85
f 43//43 52//52 59//59
f 77//77 69//69 79//79
f 56//56 55//55 65//65
f 67//67 51//51 78//78
f 75//75 83//83 76//76
f 17//17 32//32 13//13
f 48//48 28//28 46//46
f 6//6 8//8 2//2
f 79//79 69//69 76//76
f 44//44 45//45 35//35
f 5//5 6//6 2//2
f 16//16 12//12 8//8
f 58//58 41//41 51//51
f 21//21 12//12 16//16
f 48//48 56//56 57//57
f 58//58 51//51 67//67
f 23//23 15//15 22//22
f 27//27 34//34 28//28
f 73//73 81//81 78//78
f 14//14 12//12 21//21
f 10//10 15//15 5//5
f 80//80 84//84 74//74
f 29//29 19//19 21//21
f 70//70 77//77 72//72
f 24//24 34//34 25//25
f 28//28 26//26 27//27
f 49//49 39//39 31//31
f 40//40 33//33 50//50
f 83//83 84//84 87//87
f 5//5 15//15 6//6
f 17//17 19//19 31//31
f 38//38 29//29 42//42
f 49//49 47//47 53//53
f 68//68 67//67 71//71
f 9//9 11//11 13//13
f 42//42 47//47 38//38
f 65//65 66//66 76//76
f 1//1 4//4 2//2
f 85//85 81//81 82//82
f 68//68 60//60 67//67
f 16//16 6//6 20//20
f 79//79 86//86 77//77
f 13//13 11//11 17//17
f 86//86 85//85 82//82
f 39//39 44//44 35//35
f 64//64 56//56 65//65
f 78//78 61//61 73//73
f 79//79 83//83 87//87
f 54//54 61//61 78//78
f 87//87 84//84 86//86
f 73//73 61//61 72//72
f 84//84 85//85 86//86
f 48//48 57//57 42//42
f 59//59 63//63 66//66
f 25//25 34//34 27//27
f 14//14 11//11 7//7
f 28//28 48//48 29//29
f 29//29 26//26 28//28
f 51//51 54//54 78//78
f 70//70 62//62 64//64
f 20//20 23//23 24//24
f 54//54 45//45 44//44
f 32//32 30//30 18//18
f 74//74 75//75 68//68
f 71//71 80//80 74//74
f 65//65 55//55 66//66
f 74//74 83//83 75//75
f 56//56 46//46 55//55
f 53//53 72//72 61//61
f 71//71 78//78 80//80
f 62//62 47//47 57//57
f 71//71 67//67 78//78
f 58//58 67//67 60//60
f 80//80 81//81 85//85
f 13//13 18//18 10//10
f 59//59 52//52 63//63
f 21//21 19//19 14//14
f 44//44 53//53 61//61
f 9//9 4//4 1//1
f 77//77 70//70 69//69
f 37//37 23//23 22//22
f 1//1 7//7 9//9
f 5//5 4//4 10//10
f 62//62 57//57 64//64
f 80//80 78//78 81//81
f 33//33 23//23 37//37
f 40//40 34//34 24//24
f 32//32 18//18 13//13
f 50//50 41//41 58//58
f 75//75 63//63 68//68
f 37//37 41//41 33//33
f 10//10 4//4 9//9
f 7//7 11//11 9//9
f 63//63 52//52 60//60
f 57//57 47//47 42//42
f 49//49 31//31 38//38
f 35//35 32//32 39//39
f 31//31 32//32 17//17
f 73//73 82//82 81//81
f 30//30 32//32 35//35
f 20//20 15//15 23//23
f 27//27 26//26 16//16
f 35//35 45//45 30//30
f 36//36 37//37 22//22
f 7//7 12//12 14//14
f 36//36 41//41 37//37
f 18//18 15//15 10//10
f 70//70 64//64 69//69
f 33//33 41//41 50//50
f 54//54 44//44 61//61
f 24//24 33//33 40//40
f 51//51 45//45 54//54
f 40//40 52//52 43//43
f 38//38 19//19 29//29
f 51//51 41//41 36//36
f 72//72 62//62 70//70
f 22//22 30//30 36//36
f 53//53 62//62 72//72
f 69//69 64//64 65//65
f 63//63 60//60 68//68

## Object rightSphere

v -0.5875 0.25 0
vn 0 0 0
v -0.3375 0.25 0
vn 1 0 0
v -0.363893 0.361804 0
vn 0.894427 0.447214 0
v -0.356335 0.298578 0.0818727
vn 0.924658 0.194311 0.327491
v -0.365269 0.304668 -0.100621
vn 0.888925 0.218673 -0.402486
v -0.403472 0.399769 -0.078758
vn 0.736112 0.599077 -0.315032
v -0.432693 0.446087 0.00919147
vn 0.61923 0.784348 0.0367659
v -0.363941 0.188416 0.0934285
vn 0.894236 -0.246334 0.373714
v -0.410629 0.387968 0.110368
vn 0.707486 0.551874 0.441473
v -0.367473 0.191604 -0.103335
vn 0.880107 -0.233582 -0.413341
v -0.358458 0.149801 -8.75488e-05
vn 0.916168 -0.400795 -0.000350195
v -0.421135 0.251713 -0.186601
vn 0.665458 0.00685229 -0.746404
v -0.444167 0.364414 -0.169897
vn 0.573332 0.457656 -0.67959
v -0.485119 0.455304 -0.0993403
vn 0.409525 0.821214 -0.397361
v -0.409409 0.274129 0.173785
vn 0.712366 0.096514 0.69514
v -0.527304 0.492563 -0.00629535
vn 0.240784 0.970252 -0.0251814
v -0.442748 0.137095 -0.169703
vn 0.579009 -0.45162 -0.678813
v -0.436004 0.146356 0.169726
vn 0.605982 -0.414577 0.678905
v -0.511892 0.464419 0.103961
vn 0.302433 0.857675 0.415846
v -0.414726 0.0800885 0.061474
vn 0.691098 -0.679646 0.245896
v -0.500173 0.374247 0.198587
vn 0.349309 0.496986 0.794347
v -0.413442 0.0814998 -0.0617362
vn 0.696233 -0.674001 -0.246945
v -0.596483 0.483348 -0.0892645
vn -0.035932 0.933391 -0.357058
v -0.502895 0.196054 -0.22898
vn 0.338418 -0.215782 -0.915921
v -0.54919 0.415044 -0.183828
vn 0.153241 0.660177 -0.735312
v -0.518203 0.302872 -0.234313
vn 0.277186 0.211488 -0.937252
v -0.506754 0.236186 0.236198
vn 0.322982 -0.0552575 0.944791
v -0.533178 0.122009 0.207768
vn 0.21729 -0.511964 0.83107
v -0.500781 0.048265 -0.119511
vn 0.346876 -0.80694 -0.478043
v -0.627208 0.494429 0.0343175
vn -0.158833 0.977716 0.13727
v -0.514707 0.0432995 0.120316
vn 0.291174 -0.826802 0.481264
v -0.556411 0.102098 -0.199144
vn 0.124357 -0.591609 -0.796576
v -0.652097 0.431072 -0.159813
vn -0.258388 0.724289 -0.639251
v -0.502034 0.0151782 -0.0073646
vn 0.341866 -0.939287 -0.0294584
v -0.606661 0.322435 0.238508
vn -0.0766425 0.289742 0.954031
v -0.709291 0.458556 -0.0645855
vn -0.487165 0.834224 -0.258342
v -0.620815 0.440442 0.158499
vn -0.133259 0.761769 0.633996
v -0.609796 0.20734 -0.245322
vn -0.0891821 -0.170641 -0.981289
v -0.615078 0.185665 0.240001
vn -0.11031 -0.257341 0.960004
v -0.604107 0.0208233 -0.0985003
vn -0.0664263 -0.916707 -0.394001
v -0.738032 0.440036 0.0610438
vn -0.602127 0.760145 0.244175
v -0.625648 0.0683658 0.167492
vn -0.152591 -0.726537 0.66997
v -0.639455 0.335107 -0.229254
vn -0.207822 0.340429 -0.917016
v -0.70028 0.256923 0.223008
vn -0.451122 0.0276906 0.892033
v -0.798255 0.376885 -0.044525
vn -0.843022 0.507538 -0.1781
v -0.728947 0.364011 0.171739
vn -0.565787 0.456045 0.686955
v -0.682286 0.105617 -0.180746
vn -0.379144 -0.577531 -0.722985
v -0.618059 0.00569375 0.0433655
vn -0.122236 -0.977225 0.173462
v -0.740168 0.370642 -0.156965
vn -0.610673 0.482569 -0.627859
v -0.725921 0.239512 -0.207917
vn -0.553685 -0.0419533 -0.831669
v -0.716083 0.147342 0.188223
vn -0.514331 -0.410633 0.752891
v -0.811335 0.338188 0.0679763
vn -0.89534 0.352752 0.271905
v -0.726307 0.0495782 -0.0553525
vn -0.555226 -0.801687 -0.22141
v -0.728081 0.0603012 0.082167
vn -0.562323 -0.758795 0.328668
v -0.781603 0.249774 0.157556
vn -0.776413 -0.000904782 0.630224
v -0.790415 0.161365 -0.116058
vn -0.811658 -0.354539 -0.464234
v -0.800165 0.278246 -0.128358
vn -0.85066 0.112984 -0.513432
v -0.788956 0.146983 0.106315
vn -0.805824 -0.412069 0.42526
v -0.835034 0.250792 -0.035022
vn -0.990134 0.00316965 -0.140088
v -0.805951 0.128435 0.00096488
vn -0.873805 -0.486261 0.00385952
v -0.827736 0.222041 0.063286
vn -0.960943 -0.111836 0.253144
g rightSphere
usemtl rightSphere

s 1
f 160//160 161//161 159//159
f 159//159 161//161 152//152
f 156//156 160//160 159//159
f 134//134 120//120 131//131
f 153//153 156//156 147//147
f 155//155 158//158 151//151
f 139//139 128//128 127//127
f 116//116 123//123 130//130
f 112//112 117//117 124//124
f 150//150 149//149 143//143
f 126//126 112//112 124//124
f 139//139 127//127 135//135
f 152//152 155//155 146//146
f 120//120 111//111 108//108
f 110//110 105//105 102//102
f 132//132 117//117 129//129
f 138//138 126//126 124//124
f 106//106 105//105 113//113
f 127//127 128//128 118//118
f 137//137 130//130 141//141
f 121//121 115//115 109//109
f 141//141 152//152 146//146
f 131//131 120//120 118//118
f 128//128 139//139 142//142
f 149//149 145//145 136//136
f 122//122 117//117 110//110
f 123//123 116//116 114//114
f 153//153 147//147 140//140
f 129//129 134//134 140//140
f 132//132 129//129 140//140
f 108//108 115//115 118//118
f 148//148 153//153 140//140
f 115//115 127//127 118//118
f 103//103 106//106 107//107
f 160//160 156//156 153//153
f 126//126 125//125 113//113
f 121//121 109//109 119//119
f 136//136 145//145 141//141
f 111//111 122//122 110//110
f 117//117 112//112 110//110
f 134//134 122//122 120//120
f 131//131 128//128 142//142
f 148//148 131//131 142//142
f 128//128 131//131 118//118
f 156//156 159//159 157//157
f 150//150 138//138 147//147
f 133//133 149//149 136//136
f 158//158 154//154 151//151
f 106//106 114//114 107//107
f 148//148 134//134 131//131
f 123//123 114//114 125//125
f 154//154 142//142 151//151
f 160//160 154//154 158//158
f 121//121 127//127 115//115
f 108//108 111//111 102//102
f 109//109 103//103 107//107
f 127//127 121//121 135//135
f 142//142 139//139 151//151
f 104//104 115//115 108//108
f 161//161 160//160 158//158
f 154//154 148//148 142//142
f 138//138 143//143 126//126
f 145//145 149//149 157//157
f 105//105 112//112 113//113
f 156//156 150//150 147//147
f 112//112 105//105 110//110
f 135//135 137//137 146//146
f 123//123 136//136 130//130
f 145//145 159//159 152//152
f 144//144 139//139 135//135
f 149//149 150//150 157//157
f 114//114 116//116 107//107
f 144//144 155//155 151//151
f 123//123 133//133 136//136
f 116//116 119//119 107//107
f 161//161 155//155 152//152
f 149//149 133//133 143//143
f 109//109 104//104 103//103
f 138//138 150//150 143//143
f 133//133 123//123 125//125
f 148//148 154//154 153//153
f 134//134 148//148 140//140
f 132//132 138//138 124//124
f 104//104 108//108 102//102
f 122//122 134//134 129//129
f 137//137 119//119 130//130
f 111//111 110//110 102//102
f 125//125 114//114 113//113
f 144//144 135//135 146//146
f 139//139 144//144 151//151
f 138//138 132//132 147//147
f 103//103 104//104 102//102
f 130//130 136//136 141//141
f 141//141 145//145 152//152
f 137//137 121//121 119//119
f 154//154 160//160 153//153
f 122//122 111//111 120//120
f 112//112 126//126 113//113
f 150//150 156//156 157//157
f 117//117 122//122 129//129
f 115//115 104//104 109//109
f 119//119 109//109 107//107
f 105//105 106//106 103//103
f 119//119 116//116 130//130
f 147//147 132//132 140//140
f 121//121 137//137 135//135
f 105//105 103//103 102//102
f 143//143 133//133 125//125
f 159//159 145//145 157//157
f 114//114 106//106 113//113
f 120//120 108//108 118//118
f 137//137 141//141 146//146
f 155//155 144//144 146//146
f 126//126 143//143 125//125
f 155//155 161//161 158//158
f 117//117 132//132 124//124


## Object floor
v   1.0000 0.0000 -1.0400
v  -0.9900 0.0000 -1.0400
v  -1.0100 0.0000  0.9900
v   1.0000 0.0000  0.9900
# 4 vertices

vn 0.0000 1.0000 -0.0000
# 1 vertex normals

g floor
usemtl floor

s 1
f 162//162 163//162 164//162 
f 164//162 165//162 162//162 
# 2 faces

## Object ceiling 
v   1.0000 1.5900 -1.0400
v   1.0000 1.5900  0.9900
v  -1.0200 1.5900  0.9900
v  -1.0200 1.5900 -1.0400
# 4 vertices

vn 0.0000 -1.0000 -0.0000
# 1 vertex normals

g ceiling
usemtl ceiling

s 1
f 166//163 167//163 168//163 
f 168//163 169//163 166//163 
# 2 faces

## Object backwall 
v   1.0000 1.5900 -1.0400
v  -1.0200 1.5900 -1.0400
v  -0.9900 0.0000 -1.0400
v   1.0000 0.0000 -1.0400
# 4 vertices

vn 0.0000 0.0000 1.0000
# 1 vertex normals

g backWall
usemtl backWall

s 1
f 170//164 171//164 172//164 
f 172//164 173//164 170//164 
# 2 faces

## Object rightwall 
v  1.0000 1.5900 0.9900
v  1.0000 1.5900 -1.0400
v  1.0000 0.0000 -1.0400
v  1.0000 0.0000 0.9900
# 4 vertices

vn -1.0000 0.0000 -0.0000
# 1 vertex normals

g rightWall
usemtl rightWall

s 1
f 174//165 175//165 176//165 
f 176//165 177//165 174//165 
# 2 faces

## Object leftWall 
v  -1.0200 1.5900 -1.0400
v  -1.0200 1.5900 0.9900
v  -1.0100 0.0000 0.9900
v  -0.9900 0.0000 -1.0400
# 4 vertices

vn 0.9999 0.0135 0.0057
vn 1.0000 0.0063 -0.0000
vn 0.9999 0.0116 0.0042
vn 0.9998 0.0189 0.0098
# 4 vertex normals

g leftWall
usemtl leftWall

s 1
f 178//166 179//167 180//168 
f 180//168 181//169 178//166 
# 2 faces

## Object light
v  0.2300 1.5800 -0.2200
v  0.2300 1.5800 0.1600
v  -0.2400 1.5800 0.1600
v  -0.2400 1.5800 -0.2200
# 4 vertices

vn 0.0000 -1.0000 -0.0000
# 1 vertex normals

g light
usemtl light

s 1
f 182//170 183//170 184//170 
f 184//170 185//170 182//170 
# 2 faces
