mtllib CornellBox-Sphere.mtl

## Object leftSphere

v 0.0767714 0.463187 0.0591041
vn 0.729958 -0.679386 0.0748018
v 0.112244 0.543383 0.0158103
vn 0.801438 -0.59772 0.0206959
v 0.103961 0.520374 0.108357
vn 0.775488 -0.615842 0.139131
v 0.0564499 0.479877 -0.0188942
vn 0.730326 -0.682648 -0.0247982
v 0.063572 0.551326 -0.059753
vn 0.779668 -0.620713 -0.0826647
v 0.103153 0.636085 -0.0152632
vn 0.856022 -0.516485 -0.0216622
v 0.0280598 0.463663 0.142766
vn 0.689296 -0.700101 0.186358
v 0.121465 0.604649 0.0845933
vn 0.838229 -0.533248 0.114099
v -0.0120437 0.429491 0.0340848
vn 0.649315 -0.759166 0.0453561
v -0.0283808 0.488402 -0.0677438
vn 0.674605 -0.731791 -0.0969009
v -0.0675699 0.439404 0.119731
vn 0.602227 -0.780717 0.166744
v 0.0658515 0.569476 0.185137
vn 0.770159 -0.58597 0.251982
v -0.118478 0.44576 0.0160591
vn 0.566854 -0.823473 0.0238601
v -0.0461921 0.508254 0.209566
vn 0.647193 -0.701297 0.29887
v 0.000533462 0.614295 -0.116719
vn 0.778928 -0.600233 -0.181638
v 0.0928383 0.707799 0.120591
vn 0.882399 -0.43492 0.179492
v -0.159599 0.473929 0.147633
vn 0.528775 -0.817193 0.229331
v -0.132351 0.52331 -0.0961743
vn 0.60307 -0.781933 -0.157759
v -0.139839 0.565655 0.249535
vn 0.583768 -0.704008 0.40446
v 0.0626642 0.731819 -0.0456037
vn 0.900301 -0.429108 -0.072969
v -0.00897515 0.627758 0.245976
vn 0.740102 -0.561065 0.370749
v -0.126749 0.63444 -0.154897
vn 0.684957 -0.670845 -0.284255
v -0.0309109 0.733341 -0.133487
vn 0.843912 -0.479731 -0.24015
v 0.00331879 0.836798 -0.0563259
vn 0.945899 -0.306709 -0.105855
v 0.0575275 0.806147 0.04448
vn 0.941863 -0.327487 0.0751425
v 0.00877702 0.739706 0.226218
vn 0.827765 -0.423491 0.36805
v 0.0371315 0.810705 0.145108
vn 0.913944 -0.322091 0.246906
v -0.0416051 0.841859 0.225346
vn 0.857277 -0.29575 0.421436
v -0.105633 0.707496 0.28736
vn 0.693196 -0.514148 0.505105
v -0.242252 0.578247 -0.107792
vn 0.50949 -0.833678 -0.213072
v -0.256342 0.532079 0.172466
vn 0.438996 -0.843048 0.31073
v -0.240271 0.495248 0.0206606
vn 0.457243 -0.888598 0.0363722
v -0.0856361 0.838758 -0.13801
vn 0.890039 -0.346342 -0.296441
v -0.0082154 0.904652 0.0847813
vn 0.967954 -0.187669 0.166871
v -0.328466 0.567847 -0.0255635
vn 0.368372 -0.928056 -0.054898
v -0.241764 0.693189 -0.17022
vn 0.592757 -0.704255 -0.390723
v -0.1337 0.740848 -0.173155
vn 0.761609 -0.538828 -0.360023
v -0.243672 0.627782 0.264542
vn 0.489482 -0.710784 0.505167
v -0.332813 0.551307 0.0812002
vn 0.344243 -0.923874 0.167194
v -0.0617086 0.933931 -0.0476875
vn 0.983155 -0.148203 -0.10697
v -0.204111 0.813558 -0.185274
vn 0.74762 -0.471081 -0.468131
v -0.225654 0.739957 0.303107
vn 0.566219 -0.536699 0.62558
v -0.0878908 0.999586 0.0684353
vn 0.98649 -0.000991134 0.163818
v -0.422608 0.630595 0.0324812
vn 0.204298 -0.975146 0.0857432
v -0.351708 0.652281 -0.107187
vn 0.377408 -0.884955 -0.272795
v -0.0950451 0.94794 0.195171
vn 0.894854 -0.11504 0.43128
v -0.342281 0.707442 0.268195
vn 0.369299 -0.685026 0.627979
v -0.15082 0.839148 0.288116
vn 0.726812 -0.334809 0.599706
v -0.358415 0.61117 0.181282
vn 0.313399 -0.860677 0.401269
v -0.158296 0.928298 -0.140773
vn 0.907685 -0.190466 -0.373941
v -0.349331 0.791765 -0.175499
vn 0.484112 -0.669076 -0.563892
v -0.144376 1.02244 -0.0473659
vn 0.989313 0.0624194 -0.131768
v -0.453927 0.706281 0.17991
vn 0.132581 -0.845218 0.517715
v -0.451217 0.722732 -0.0834279
vn 0.166139 -0.944282 -0.284127
v -0.173497 1.04475 0.167899
vn 0.882773 0.120995 0.453951
v -0.221496 0.963176 0.268953
vn 0.716102 -0.0946825 0.691544
v -0.291239 0.837729 0.307148
vn 0.515101 -0.40039 0.757865
v -0.26245 0.903525 -0.183533
vn 0.75338 -0.305967 -0.582068
v -0.167512 1.07436 0.0524814
vn 0.964514 0.215719 0.152243
v -0.245173 1.01217 -0.138437
vn 0.877933 0.0419308 -0.476944
v -0.526209 0.7472 0.0310131
vn -0.102361 -0.987345 0.121126
v -0.426747 0.813211 0.267968
vn 0.218824 -0.557982 0.800483
v -0.23605 1.1055 -0.0344659
vn 0.921823 0.368448 -0.120369
v -0.36509 0.944107 0.293208
vn 0.411862 -0.170634 0.895128
v -0.298281 1.06986 0.232002
vn 0.639825 0.221599 0.735879
v -0.253208 1.13166 0.106097
vn 0.824944 0.440105 0.354648
v -0.361037 0.945407 -0.182187
vn 0.589955 -0.231771 -0.773457
v -0.33282 1.0918 -0.121622
vn 0.739066 0.40583 -0.537665
v -0.448285 1.04955 0.256569
vn 0.194141 0.186016 0.963176
v -0.488842 0.918024 0.25733
vn 0.0412796 -0.303275 0.952009
v -0.44701 1.02452 -0.159662
vn 0.3117 0.144245 -0.939168
v -0.539345 0.822772 0.176961
vn -0.155196 -0.699066 0.698012
v -0.598693 0.859764 0.050337
vn -0.552229 -0.784674 0.281656
v -0.444208 1.15656 -0.0966659
vn 0.290174 0.814268 -0.502759
v -0.332007 1.17847 6.4412e-05
vn 0.68542 0.728148 0.000262804
v -0.376986 1.16564 0.168111
vn 0.462215 0.622383 0.631662
v -0.590266 0.975264 0.185156
vn -0.435086 -0.11923 0.89246
v -0.509539 0.869291 -0.122384
vn -0.0531987 -0.728938 -0.68251
v -0.527221 1.14832 0.189054
vn -0.112562 0.613317 0.781775
v -0.552255 1.04346 -0.119526
vn -0.380037 0.316101 -0.869283
v -0.607189 0.946451 -0.0507248
vn -0.823801 -0.411548 -0.389846
v -0.644414 0.975755 0.0568422
vn -0.919364 -0.154346 0.361866
v -0.458983 1.22995 0.0499275
vn 0.171724 0.962714 0.209029
v -0.574925 1.17791 -0.0500965
vn -0.375673 0.892063 -0.251184
v -0.640712 1.05013 -0.0278025
vn -0.926101 0.32993 -0.182983
v -0.647456 1.0946 0.1021
vn -0.727189 0.466551 0.503513
v -0.572636 1.21178 0.093032
vn -0.299589 0.873506 0.38371
v -0.0402044 0.620879 0.0630454
vn 0.767265 -0.632643 0.105204
v -0.207607 0.76142 0.0591153
vn 0.765467 -0.624587 0.15476
v -0.507333 1.06947 0.0585786
vn -0.0804347 0.762002 0.64256
v -0.377822 0.953805 -0.069537
vn 0.825662 -0.312179 -0.469922
v -0.481594 0.98509 -0.0439218
vn 0.368849 -0.298792 -0.880156
v -0.392087 1.02609 0.167957
vn 0.535989 0.129589 0.83422
v -0.488366 0.924098 0.0614787
vn 0.11827 -0.77162 0.624991
v -0.361839 1.0282 0.0380917
vn 0.945899 0.193039 0.26079
v -0.226707 0.964252 0.0764509
vn 0.955478 -0.124981 0.267285
v -0.387229 0.828961 0.0467895
vn 0.536636 -0.813908 0.222654
v -0.328262 0.94509 0.164023
vn 0.704575 -0.225275 0.672923
v -0.424619 1.06393 -0.0556963
vn 0.664411 0.563527 -0.490912
v -0.271803 0.91069 -0.0579958
vn 0.906188 -0.354659 -0.230306
g leftSphere
usemtl leftSphere

s 1
f 75//75 76//76 66//66
f 77//77 82//82 73//73
f 46//46 43//43 55//55
f 72//72 77//77 73//73
f 43//43 59//59 55//55
f 77//77 86//86 82//82
f 53//53 44//44 49//49
f 8//8 12//12 3//3
f 3//3 12//12 7//7
f 2//2 8//8 3//3
f 74//74 84//84 83//83
f 74//74 68//68 71//71
f 79//79 87//87 86//86
f 2//2 4//4 5//5
f 38//38 47//47 49//49
f 76//76 83//83 79//79
f 50//50 58//58 60//60
f 46//46 34//34 43//43
f 30//30 22//22 18//18
f 75//75 66//66 63//63
f 20//20 25//25 16//16
f 6//6 15//15 20//20
f 52//52 50//50 60//60
f 2//2 3//3 1//1
f 36//36 45//45 51//51
f 66//66 55//55 59//59
f 16//16 26//26 21//21
f 16//16 25//25 27//27
f 50//50 52//52 40//40
f 13//13 10//10 9//9
f 24//24 25//25 20//20
f 44//44 39//39 49//49
f 14//14 19//19 17//17
f 24//24 23//23 33//33
f 31//31 19//19 38//38
f 22//22 15//15 18//18
f 43//43 34//34 40//40
f 31//31 39//39 32//32
f 16//16 8//8 6//6
f 21//21 26//26 29//29
f 57//57 56//56 64//64
f 47//47 62//62 53//53
f 3//3 7//7 1//1
f 29//29 48//48 42//42
f 30//30 45//45 36//36
f 76//76 69//69 65//65
f 28//28 34//34 46//46
f 17//17 11//11 14//14
f 46//46 56//56 48//48
f 84//84 80//80 85//85
f 43//43 52//52 59//59
f 77//77 69//69 79//79
f 56//56 55//55 65//65
f 67//67 51//51 78//78
f 75//75 83//83 76//76
f 17//17 32//32 13//13
f 48//48 28//28 46//46
f 6//6 8//8 2//2
f 79//79 69//69 76//76
f 44//44 45//45 35//35
f 5//5 6//6 2//2
f 16//16 12//12 8//8
f 58//58 41//41 51//51
f 21//21 12//12 16//16
f 48//48 56//56 57//57
f 58//58 51//51 67//67
f 23//23 15//15 22//22
f 27//27 34//34 28//28
f 73//73 81//81 78//78
f 14//14 12//12 21//21
f 10//10 15//15 5//5
f 80//80 84//84 74//74
f 29//29 19//19 21//21
f 70//70 77//77 72//72
f 24//24 34//34 25//25
f 28//28 26//26 27//27
f 49//49 39//39 31//31
f 40//40 33//33 50//50
f 83//83 84//84 87//87
f 5//5 15//15 6//6
f 17//17 19//19 31//31
f 38//38 29//29 42//42
f 49//49 47//47 53//53
f 68//68 67//67 71//71
f 9//9 11//11 13//13
f 42//42 47//47 38//38
f 65//65 66//66 76//76
f 1//1 4//4 2//2
f 85//85 81//81 82//82
f 68//68 60//60 67//67
f 16//16 6//6 20//20
f 79//79 86//86 77//77
f 13//13 11//11 17//17
f 86//86 85//85 82//82
f 39//39 44//44 35//35
f 64//64 56//56 65//65
f 78//78 61//61 73//73
f 79//79 83//83 87//87
f 54//54 61//61 78//78
f 87//87 84//84 86//86
f 73//73 61//61 72//72
f 84//84 85//85 86//86
f 48//48 57//57 42//42
f 59//59 63//63 66//66
f 25//25 34//34 27//27
f 14//14 11//11 7//7
f 28//28 48//48 29//29
f 29//29 26//26 28//28
f 51//51 54//54 78//78
f 70//70 62//62 64//64
f 20//20 23//23 24//24
f 54//54 45//45 44//44
f 32//32 30//30 18//18
f 74//74 75//75 68//68
f 71//71 80//80 74//74
f 65//65 55//55 66//66
f 74//74 83//83 75//75
f 56//56 46//46 55//55
f 53//53 72//72 61//61
f 71//71 78//78 80//80
f 62//62 47//47 57//57
f 71//71 67//67 78//78
f 58//58 67//67 60//60
f 80//80 81//81 85//85
f 13//13 18//18 10//10
f 59//59 52//52 63//63
f 21//21 19//19 14//14
f 44//44 53//53 61//61
f 9//9 4//4 1//1
f 77//77 70//70 69//69
f 37//37 23//23 22//22
f 1//1 7//7 9//9
f 5//5 4//4 10//10
f 62//62 57//57 64//64
f 80//80 78//78 81//81
f 33//33 23//23 37//37
f 40//40 34//34 24//24
f 32//32 18//18 13//13
f 50//50 41//41 58//58
f 75//75 63//63 68//68
f 37//37 41//41 33//33
f 10//10 4//4 9//9
f 7//7 11//11 9//9
f 63//63 52//52 60//60
f 57//57 47//47 42//42
f 49//49 31//31 38//38
f 35//35 32//32 39//39
f 31//31 32//32 17//17
f 73//73 82//82 81//81
f 30//30 32//32 35//35
f 20//20 15//15 23//23
f 27//27 26//26 16//16
f 35//35 45//45 30//30
f 36//36 37//37 22//22
f 7//7 12//12 14//14
f 36//36 41//41 37//37
f 18//18 15//15 10//10
f 70//70 64//64 69//69
f 33//33 41//41 50//50
f 54//54 44//44 61//61
f 24//24 33//33 40//40
f 51//51 45//45 54//54
f 40//40 52//52 43//43
f 38//38 19//19 29//29
f 51//51 41//41 36//36
f 72//72 62//62 70//70
f 22//22 30//30 36//36
f 53//53 62//62 72//72
f 69//69 64//64 65//65
f 63//63 60//60 68//68

## Object rightSphere

v -0.5875 0.25 0
vn 0 0 0
v -0.3375 0.25 0
vn 1 0 0
v -0.363893 0.361804 0
vn 0.894427 0.447214 0
v -0.356335 0.298578 0.0818727
vn 0.924658 0.194311 0.327491
v -0.365269 0.304668 -0.100621
vn 0.888925 0.218673 -0.402486
v -0.403472 0.399769 -0.078758
vn 0.736112 0.599077 -0.315032
v -0.432693 0.446087 0.00919147
vn 0.61923 0.784348 0.0367659
v -0.363941 0.188416 0.0934285
vn 0.894236 -0.246334 0.373714
v -0.410629 0.387968 0.110368
vn 0.707486 0.551874 0.441473
v -0.367473 0.191604 -0.103335
vn 0.880107 -0.233582 -0.413341
v -0.358458 0.149801 -8.75488e-05
vn 0.916168 -0.400795 -0.000350195
v -0.421135 0.251713 -0.186601
vn 0.665458 0.00685229 -0.746404
v -0.444167 0.364414 -0.169897
vn 0.573332 0.457656 -0.67959
v -0.485119 0.455304 -0.0993403
vn 0.409525 0.821214 -0.397361
v -0.409409 0.274129 0.173785
vn 0.712366 0.096514 0.69514
v -0.527304 0.492563 -0.00629535
vn 0.240784 0.970252 -0.0251814
v -0.442748 0.137095 -0.169703
vn 0.579009 -0.45162 -0.678813
v -0.436004 0.146356 0.169726
vn 0.605982 -0.414577 0.678905
v -0.511892 0.464419 0.103961
vn 0.302433 0.857675 0.415846
v -0.414726 0.0800885 0.061474
vn 0.691098 -0.679646 0.245896
v -0.500173 0.374247 0.198587
vn 0.349309 0.496986 0.794347
v -0.413442 0.0814998 -0.0617362
vn 0.696233 -0.674001 -0.246945
v -0.596483 0.483348 -0.0892645
vn -0.035932 0.933391 -0.357058
v -0.502895 0.196054 -0.22898
vn 0.338418 -0.215782 -0.915921
v -0.54919 0.415044 -0.183828
vn 0.153241 0.660177 -0.735312
v -0.518203 0.302872 -0.234313
vn 0.277186 0.211488 -0.937252
v -0.506754 0.236186 0.236198
vn 0.322982 -0.0552575 0.944791
v -0.533178 0.122009 0.207768
vn 0.21729 -0.511964 0.83107
v -0.500781 0.048265 -0.119511
vn 0.346876 -0.80694 -0.478043
v -0.627208 0.494429 0.0343175
vn -0.158833 0.977716 0.13727
v -0.514707 0.0432995 0.120316
vn 0.291174 -0.826802 0.481264
v -0.556411 0.102098 -0.199144
vn 0.124357 -0.591609 -0.796576
v -0.652097 0.431072 -0.159813
vn -0.258388 0.724289 -0.639251
v -0.502034 0.0151782 -0.0073646
vn 0.341866 -0.939287 -0.0294584
v -0.606661 0.322435 0.238508
vn -0.0766425 0.289742 0.954031
v -0.709291 0.458556 -0.0645855
vn -0.487165 0.834224 -0.258342
v -0.620815 0.440442 0.158499
vn -0.133259 0.761769 0.633996
v -0.609796 0.20734 -0.245322
vn -0.0891821 -0.170641 -0.981289
v -0.615078 0.185665 0.240001
vn -0.11031 -0.257341 0.960004
v -0.604107 0.0208233 -0.0985003
vn -0.0664263 -0.916707 -0.394001
v -0.738032 0.440036 0.0610438
vn -0.602127 0.760145 0.244175
v -0.625648 0.0683658 0.167492
vn -0.152591 -0.726537 0.66997
v -0.639455 0.335107 -0.229254
vn -0.207822 0.340429 -0.917016
v -0.70028 0.256923 0.223008
vn -0.451122 0.0276906 0.892033
v -0.798255 0.376885 -0.044525
vn -0.843022 0.507538 -0.1781
v -0.728947 0.364011 0.171739
vn -0.565787 0.456045 0.686955
v -0.682286 0.105617 -0.180746
vn -0.379144 -0.577531 -0.722985
v -0.618059 0.00569375 0.0433655
vn -0.122236 -0.977225 0.173462
v -0.740168 0.370642 -0.156965
vn -0.610673 0.482569 -0.627859
v -0.725921 0.239512 -0.207917
vn -0.553685 -0.0419533 -0.831669
v -0.716083 0.147342 0.188223
vn -0.514331 -0.410633 0.752891
v -0.811335 0.338188 0.0679763
vn -0.89534 0.352752 0.271905
v -0.726307 0.0495782 -0.0553525
vn -0.555226 -0.801687 -0.22141
v -0.728081 0.0603012 0.082167
vn -0.562323 -0.758795 0.328668
v -0.781603 0.249774 0.157556
vn -0.776413 -0.000904782 0.630224
v -0.790415 0.161365 -0.116058
vn -0.811658 -0.354539 -0.464234
v -0.800165 0.278246 -0.128358
vn -0.85066 0.112984 -0.513432
v -0.788956 0.146983 0.106315
vn -0.805824 -0.412069 0.42526
v -0.835034 0.250792 -0.035022
vn -0.990134 0.00316965 -0.140088
v -0.805951 0.128435 0.00096488
vn -0.873805 -0.486261 0.00385952
v -0.827736 0.222041 0.063286
vn -0.960943 -0.111836 0.253144
g rightSphere
usemtl rightSphere

s 1
f 160//160 161//161 159//159
f 159//159 161//161 152//152
f 156//156 160//160 159//159
f 134//134 120//120 131//131
f 153//153 156//156 147//147
f 155//155 158//158 151//151
f 139//139 128//128 127//127
f 116//116 123//123 130//130
f 112//112 117//117 124//124
f 150//150 149//149 143//143
f 126//126 112//112 124//124
f 139//139 127//127 135//135
f 152//152 155//155 146//146
f 120//120 111//111 108//108
f 110//110 105//105 102//102
f 132//132 117//117 129//129
f 138//138 126//126 124//124
f 106//106 105//105 113//113
f 127//127 128//128 118//118
f 137//137 130//130 141//141
f 121//121 115//115 109//109
f 141//141 152//152 146//146
f 131//131 120//120 118//118
f 128//128 139//139 142//142
f 149//149 145//145 136//136
f 122//122 117//117 110//110
f 123//123 116//116 114//114
f 153//153 147//147 140//140
f 129//129 134//134 140//140
f 132//132 129//129 140//140
f 108//108 115//115 118//118
f 148//148 153//153 140//140
f 115//115 127//127 118//118
f 103//103 106//106 107//107
f 160//160 156//156 153//153
f 126//126 125//125 113//113
f 121//121 109//109 119//119
f 136//136 145//145 141//141
f 111//111 122//122 110//110
f 117//117 112//112 110//110
f 134//134 122//122 120//120
f 131//131 128//128 142//142
f 148//148 131//131 142//142
f 128//128 131//131 118//118
f 156//156 159//159 157//157
f 150//150 138//138 147//147
f 133//133 149//149 136//136
f 158//158 154//154 151//151
f 106//106 114//114 107//107
f 148//148 134//134 131//131
f 123//123 114//114 125//125
f 154//154 142//142 151//151
f 160//160 154//154 158//158
f 121//121 127//127 115//115
f 108//108 111//111 102//102
f 109//109 103//103 107//107
f 127//127 121//121 135//135
f 142//142 139//139 151//151
f 104//104 115//115 108//108
f 161//161 160//160 158//158
f 154//154 148//148 142//142
f 138//138 143//143 126//126
f 145//145 149//149 157//157
f 105//105 112//112 113//113
f 156//156 150//150 147//147
f 112//112 105//105 110//110
f 135//135 137//137 146//146
f 123//123 136//136 130//130
f 145//145 159//159 152//152
f 144//144 139//139 135//135
f 149//149 150//150 157//157
f 114//114 116//116 107//107
f 144//144 155//155 151//151
f 123//123 133//133 136//136
f 116//116 119//119 107//107
f 161//161 155//155 152//152
f 149//149 133//133 143//143
f 109//109 104//104 103//103
f 138//138 150//150 143//143
f 133//133 123//123 125//125
f 148//148 154//154 153//153
f 134//134 148//148 140//140
f 132//132 138//138 124//124
f 104//104 108//108 102//102
f 122//122 134//134 129//129
f 137//137 119//119 130//130
f 111//111 110//110 102//102
f 125//125 114//114 113//113
f 144//144 135//135 146//146
f 139//139 144//144 151//151
f 138//138 132//132 147//147
f 103//103 104//104 102//102
f 130//130 136//136 141//141
f 141//141 145//145 152//152
f 137//137 121//121 119//119
f 154//154 160//160 153//153
f 122//122 111//111 120//120
f 112//112 126//126 113//113
f 150//150 156//156 157//157
f 117//117 122//122 129//129
f 115//115 104//104 109//109
f 119//119 109//109 107//107
f 105//105 106//106 103//103
f 119//119 116//116 130//130
f 147//147 132//132 140//140
f 121//121 137//137 135//135
f 105//105 103//103 102//102
f 143//143 133//133 125//125
f 159//159 145//145 157//157
f 114//114 106//106 113//113
f 120//120 108//108 118//118
f 137//137 141//141 146//146
f 155//155 144//144 146//146
f 126//126 143//143 125//125
f 155//155 161//161 158//158
f 117//117 132//132 124//124


## Object floor
v   1.0000 0.0000 -1.0400
v  -0.9900 0.0000 -1.0400
v  -1.0100 0.0000  0.9900
v   1.0000 0.0000  0.9900
# 4 vertices

vn 0.0000 1.0000 -0.0000
# 1 vertex normals

g floor
usemtl floor

s 1
f 162//162 163//162 164//162 
f 164//162 165//162 162//162 
# 2 faces

## Object ceiling 
v   1.0000 1.5900 -1.0400
v   1.0000 1.5900  0.9900
v  -1.0200 1.5900  0.9900
v  -1.0200 1.5900 -1.0400
# 4 vertices

vn 0.0000 -1.0000 -0.0000
# 1 vertex normals

g ceiling
usemtl ceiling

s 1
f 166//163 167//163 168//163 
f 168//163 169//163 166//163 
# 2 faces

## Object backwall 
v   1.0000 1.5900 -1.0400
v  -1.0200 1.5900 -1.0400
v  -0.9900 0.0000 -1.0400
v   1.0000 0.0000 -1.0400
# 4 vertices

vn 0.0000 0.0000 1.0000
# 1 vertex normals

g backWall
usemtl backWall

s 1
f 170//164 171//164 172//164 
f 172//164 173//164 170//164 
# 2 faces

## Object rightwall 
v  1.0000 1.5900 0.9900
v  1.0000 1.5900 -1.0400
v  1.0000 0.0000 -1.0400
v  1.0000 0.0000 0.9900
# 4 vertices

vn -1.0000 0.0000 -0.0000
# 1 vertex normals

g rightWall
usemtl rightWall

s 1
f 174//165 175//165 176//165 
f 176//165 177//165 174//165 
# 2 faces

## Object leftWall 
v  -1.0200 1.5900 -1.0400
v  -1.0200 1.5900 0.9900
v  -1.0100 0.0000 0.9900
v  -0.9900 0.0000 -1.0400
# 4 vertices

vn 0.9999 0.0135 0.0057
vn 1.0000 0.0063 -0.0000
vn 0.9999 0.0116 0.0042
vn 0.9998 0.0189 0.0098
# 4 vertex normals

g leftWall
usemtl leftWall

s 1
f 178//166 179//167 180//168 
f 180//168 181//169 178//166 
# 2 faces

## Object light
v  0.2300 1.5800 -0.2200
v  0.2300 1.5800 0.1600
v  -0.2400 1.5800 0.1600
v  -0.2400 1.5800 -0.2200
# 4 vertices

vn 0.0000 -1.0000 -0.0000
# 1 vertex normals

g light
usemtl light

s 1
f 182//170 183//170 184//170 
f 184//170 185//170 182//170 
# 2 faces
