mtllib CornellBox-Sphere.mtl

## Object leftSphere

v 0.06982 0.521169 0.0218646
vn 0.765254 -0.643058 0.0293637
v 0.0783008 0.613854 -0.00826031
vn 0.831585 -0.555271 -0.0118782
v 0.0724643 0.575464 0.0796799
vn 0.798256 -0.591982 0.111107
v 0.0499948 0.540904 -0.0553102
vn 0.765417 -0.638915 -0.0769742
v 0.0345601 0.61563 -0.0871213
vn 0.804888 -0.578746 -0.131179
v 0.0399961 0.700987 -0.0285992
vn 0.873896 -0.483904 -0.0462832
v 0.0179476 0.491412 0.0977127
vn 0.707146 -0.694368 0.133406
v 0.0618162 0.66229 0.0684541
vn 0.85244 -0.512405 0.103865
v -0.000698358 0.463125 -0.0165133
vn 0.680846 -0.732081 -0.0225175
v -0.0292684 0.527486 -0.112325
vn 0.695969 -0.698605 -0.16607
v -0.0631194 0.43919 0.0596903
vn 0.612395 -0.786112 0.0836705
v 0.0144479 0.593277 0.156572
vn 0.763008 -0.603235 0.232221
v -0.105467 0.445795 -0.0476025
vn 0.578531 -0.812668 -0.0698028
v -0.072154 0.492925 0.157303
vn 0.627477 -0.743674 0.2307
v -0.0420992 0.662778 -0.142327
vn 0.781114 -0.575252 -0.242789
v -0.00157905 0.739304 0.116358
vn 0.867738 -0.453865 0.202576
v -0.164722 0.434797 0.0760548
vn 0.506806 -0.85436 0.114964
v -0.136405 0.533543 -0.150382
vn 0.595819 -0.764377 -0.246428
v -0.182692 0.504834 0.189876
vn 0.513442 -0.801236 0.307242
v -0.0271988 0.781218 -0.0470413
vn 0.903868 -0.418252 -0.0899302
v -0.0797724 0.605879 0.215298
vn 0.683251 -0.640805 0.350054
v -0.164718 0.651277 -0.192185
vn 0.64411 -0.669932 -0.369207
v -0.108769 0.768541 -0.14301
vn 0.820989 -0.485712 -0.300102
v -0.115323 0.861521 -0.0447751
vn 0.935299 -0.336696 -0.108866
v -0.0618161 0.831213 0.0549712
vn 0.926834 -0.357013 0.116274
v -0.097806 0.717384 0.216606
vn 0.74873 -0.526122 0.403237
v -0.0890121 0.80834 0.152854
vn 0.858821 -0.400502 0.319412
v -0.178461 0.794707 0.228112
vn 0.723395 -0.461867 0.513204
v -0.198942 0.638067 0.256549
vn 0.561526 -0.675069 0.478509
v -0.256248 0.556228 -0.169392
vn 0.456555 -0.8312 -0.317276
v -0.276076 0.454 0.0942379
vn 0.374698 -0.913638 0.157691
v -0.237164 0.45467 -0.0571726
vn 0.432254 -0.896837 -0.0940247
v -0.192265 0.854083 -0.133752
vn 0.841037 -0.398791 -0.365544
v -0.157828 0.892794 0.105761
vn 0.915277 -0.286765 0.282901
v -0.338408 0.507375 -0.105395
vn 0.305436 -0.93114 -0.199214
v -0.287543 0.679672 -0.211834
vn 0.484081 -0.729865 -0.482663
v -0.203339 0.754834 -0.19194
vn 0.689807 -0.570068 -0.446305
v -0.300297 0.526441 0.20354
vn 0.361269 -0.856683 0.36821
v -0.345776 0.4687 -0.00415614
vn 0.278762 -0.960331 -0.00751226
v -0.207303 0.932169 -0.0235947
vn 0.971192 -0.225069 -0.0782893
v -0.29057 0.807187 -0.199011
vn 0.602959 -0.555118 -0.572961
v -0.322251 0.626546 0.26368
vn 0.362384 -0.761375 0.537575
v -0.262952 0.96021 0.0996481
vn 0.911018 -0.15292 0.382965
v -0.448331 0.525798 -0.0533456
vn 0.107648 -0.987957 -0.111141
v -0.379626 0.597929 -0.17524
vn 0.264664 -0.884024 -0.385297
v -0.261932 0.882816 0.212345
vn 0.700507 -0.344811 0.624816
v -0.418423 0.569588 0.205643
vn 0.168568 -0.889391 0.424934
v -0.284163 0.745507 0.275335
vn 0.498905 -0.588258 0.636433
v -0.394975 0.494436 0.101669
vn 0.199563 -0.960652 0.193188
v -0.28808 0.918122 -0.127468
vn 0.813501 -0.314306 -0.489314
v -0.418701 0.74356 -0.215718
vn 0.235768 -0.743678 -0.625585
v -0.31398 0.989297 -0.0163299
vn 0.994536 -0.0572251 -0.0873065
v -0.513881 0.55078 0.100356
vn -0.0301424 -0.9755 0.217926
v -0.496299 0.626732 -0.153315
vn 0.00917196 -0.924974 -0.379919
v -0.366467 0.953904 0.193118
vn 0.558084 -0.192651 0.807111
v -0.391464 0.841138 0.26902
vn 0.328162 -0.480322 0.813388
v -0.415424 0.695338 0.275943
vn 0.201533 -0.725969 0.657536
v -0.374215 0.874551 -0.188374
vn 0.48579 -0.484493 -0.727513
v -0.36139 1.00845 0.0867418
vn 0.846564 0.0516113 0.529779
v -0.397743 0.970003 -0.122227
vn 0.630595 -0.184984 -0.753745
v -0.581117 0.598955 -0.048141
vn -0.196892 -0.973437 -0.11685
v -0.531128 0.638073 0.210947
vn -0.0741015 -0.861587 0.502172
v -0.429232 1.0348 -0.00328763
vn 0.896591 0.440897 -0.0416521
v -0.519937 0.772467 0.268763
vn -0.0565268 -0.645104 0.762001
v -0.496133 0.923459 0.24075
vn 0.0153047 -0.302949 0.952884
v -0.464919 1.02287 0.135715
vn 0.247 0.161044 0.95554
v -0.481484 0.881629 -0.193679
vn 0.0813026 -0.519761 -0.850434
v -0.509957 1.0092 -0.105896
vn -0.093262 0.0861907 -0.991904
v -0.62929 0.851183 0.239785
vn -0.416505 -0.479408 0.772459
v -0.623248 0.716345 0.210264
vn -0.329558 -0.758476 0.562233
v -0.59285 0.917786 -0.170281
vn -0.440767 -0.390275 -0.808338
v -0.628216 0.630862 0.105445
vn -0.31678 -0.912019 0.260521
v -0.689087 0.672357 -0.0165609
vn -0.499369 -0.865285 -0.0437363
v -0.639478 1.02466 -0.086448
vn -0.840542 0.148606 -0.520966
v -0.546336 1.06319 0.0261615
vn -0.560908 0.764911 0.316691
v -0.595136 1.00054 0.182544
vn -0.462165 0.00262785 0.88679
v -0.731655 0.750168 0.137757
vn -0.630351 -0.679814 0.374848
v -0.598492 0.749003 -0.172214
vn -0.307851 -0.784526 -0.53828
v -0.729703 0.932171 0.182077
vn -0.763491 -0.225452 0.605189
v -0.702196 0.890275 -0.141225
vn -0.749043 -0.406479 -0.523172
v -0.723372 0.769254 -0.0993106
vn -0.664488 -0.686424 -0.295429
v -0.774153 0.760759 0.00715771
vn -0.753306 -0.657376 0.0196677
v -0.684912 1.05773 0.0665531
vn -0.902766 0.28185 0.324921
v -0.772169 0.990775 -0.051732
vn -0.981867 -0.0332804 -0.186627
v -0.792111 0.847712 -0.0604031
vn -0.87219 -0.454706 -0.180353
v -0.819358 0.860609 0.0741795
vn -0.896416 -0.39126 0.208217
v -0.787562 0.99557 0.093625
vn -0.950769 -0.0146465 0.309554
v -0.0942996 0.626271 0.0300251
vn 0.734406 -0.676531 0.0543519
v -0.294735 0.707286 0.0301691
vn 0.572114 -0.815852 0.0840874
v -0.677098 0.891449 0.043164
vn -0.834753 -0.511658 0.203454
v -0.507878 0.85862 -0.0851493
vn -0.0476796 -0.855658 -0.515341
v -0.61859 0.845806 -0.0700983
vn -0.573539 -0.745734 -0.339018
v -0.563114 0.866305 0.156756
vn -0.292904 -0.620463 0.727484
v -0.609322 0.766039 0.0194131
vn -0.422139 -0.903426 0.0749624
v -0.526018 0.907443 0.0352986
vn -0.254034 -0.903706 0.344649
v -0.381906 0.883198 0.0820185
vn 0.637498 -0.630527 0.442755
v -0.480821 0.716628 0.00235443
vn 0.0675258 -0.997683 0.00828939
v -0.476593 0.813361 0.148011
vn 0.0977946 -0.77977 0.618381
v -0.591387 0.938686 -0.0592394
vn -0.731206 -0.490586 -0.473987
v -0.394352 0.851034 -0.0660267
vn 0.54403 -0.767092 -0.34
g leftSphere
usemtl leftSphere

s 1
f 75//75 76//76 66//66
f 77//77 82//82 73//73
f 46//46 43//43 55//55
f 72//72 77//77 73//73
f 43//43 59//59 55//55
f 77//77 86//86 82//82
f 53//53 44//44 49//49
f 8//8 12//12 3//3
f 3//3 12//12 7//7
f 2//2 8//8 3//3
f 74//74 84//84 83//83
f 74//74 68//68 71//71
f 79//79 87//87 86//86
f 2//2 4//4 5//5
f 38//38 47//47 49//49
f 76//76 83//83 79//79
f 50//50 58//58 60//60
f 46//46 34//34 43//43
f 30//30 22//22 18//18
f 75//75 66//66 63//63
f 20//20 25//25 16//16
f 6//6 15//15 20//20
f 52//52 50//50 60//60
f 2//2 3//3 1//1
f 36//36 45//45 51//51
f 66//66 55//55 59//59
f 16//16 26//26 21//21
f 16//16 25//25 27//27
f 50//50 52//52 40//40
f 13//13 10//10 9//9
f 24//24 25//25 20//20
f 44//44 39//39 49//49
f 14//14 19//19 17//17
f 24//24 23//23 33//33
f 31//31 19//19 38//38
f 22//22 15//15 18//18
f 43//43 34//34 40//40
f 31//31 39//39 32//32
f 16//16 8//8 6//6
f 21//21 26//26 29//29
f 57//57 56//56 64//64
f 47//47 62//62 53//53
f 3//3 7//7 1//1
f 29//29 48//48 42//42
f 30//30 45//45 36//36
f 76//76 69//69 65//65
f 28//28 34//34 46//46
f 17//17 11//11 14//14
f 46//46 56//56 48//48
f 84//84 80//80 85//85
f 43//43 52//52 59//59
f 77//77 69//69 79//79
f 56//56 55//55 65//65
f 67//67 51//51 78//78
f 75//75 83//83 76//76
f 17//17 32//32 13//13
f 48//48 28//28 46//46
f 6//6 8//8 2//2
f 79//79 69//69 76//76
f 44//44 45//45 35//35
f 5//5 6//6 2//2
f 16//16 12//12 8//8
f 58//58 41//41 51//51
f 21//21 12//12 16//16
f 48//48 56//56 57//57
f 58//58 51//51 67//67
f 23//23 15//15 22//22
f 27//27 34//34 28//28
f 73//73 81//81 78//78
f 14//14 12//12 21//21
f 10//10 15//15 5//5
f 80//80 84//84 74//74
f 29//29 19//19 21//21
f 70//70 77//77 72//72
f 24//24 34//34 25//25
f 28//28 26//26 27//27
f 49//49 39//39 31//31
f 40//40 33//33 50//50
f 83//83 84//84 87//87
f 5//5 15//15 6//6
f 17//17 19//19 31//31
f 38//38 29//29 42//42
f 49//49 47//47 53//53
f 68//68 67//67 71//71
f 9//9 11//11 13//13
f 42//42 47//47 38//38
f 65//65 66//66 76//76
f 1//1 4//4 2//2
f 85//85 81//81 82//82
f 68//68 60//60 67//67
f 16//16 6//6 20//20
f 79//79 86//86 77//77
f 13//13 11//11 17//17
f 86//86 85//85 82//82
f 39//39 44//44 35//35
f 64//64 56//56 65//65
f 78//78 61//61 73//73
f 79//79 83//83 87//87
f 54//54 61//61 78//78
f 87//87 84//84 86//86
f 73//73 61//61 72//72
f 84//84 85//85 86//86
f 48//48 57//57 42//42
f 59//59 63//63 66//66
f 25//25 34//34 27//27
f 14//14 11//11 7//7
f 28//28 48//48 29//29
f 29//29 26//26 28//28
f 51//51 54//54 78//78
f 70//70 62//62 64//64
f 20//20 23//23 24//24
f 54//54 45//45 44//44
f 32//32 30//30 18//18
f 74//74 75//75 68//68
f 71//71 80//80 74//74
f 65//65 55//55 66//66
f 74//74 83//83 75//75
f 56//56 46//46 55//55
f 53//53 72//72 61//61
f 71//71 78//78 80//80
f 62//62 47//47 57//57
f 71//71 67//67 78//78
f 58//58 67//67 60//60
f 80//80 81//81 85//85
f 13//13 18//18 10//10
f 59//59 52//52 63//63
f 21//21 19//19 14//14
f 44//44 53//53 61//61
f 9//9 4//4 1//1
f 77//77 70//70 69//69
f 37//37 23//23 22//22
f 1//1 7//7 9//9
f 5//5 4//4 10//10
f 62//62 57//57 64//64
f 80//80 78//78 81//81
f 33//33 23//23 37//37
f 40//40 34//34 24//24
f 32//32 18//18 13//13
f 50//50 41//41 58//58
f 75//75 63//63 68//68
f 37//37 41//41 33//33
f 10//10 4//4 9//9
f 7//7 11//11 9//9
f 63//63 52//52 60//60
f 57//57 47//47 42//42
f 49//49 31//31 38//38
f 35//35 32//32 39//39
f 31//31 32//32 17//17
f 73//73 82//82 81//81
f 30//30 32//32 35//35
f 20//20 15//15 23//23
f 27//27 26//26 16//16
f 35//35 45//45 30//30
f 36//36 37//37 22//22
f 7//7 12//12 14//14
f 36//36 41//41 37//37
f 18//18 15//15 10//10
f 70//70 64//64 69//69
f 33//33 41//41 50//50
f 54//54 44//44 61//61
f 24//24 33//33 40//40
f 51//51 45//45 54//54
f 40//40 52//52 43//43
f 38//38 19//19 29//29
f 51//51 41//41 36//36
f 72//72 62//62 70//70
f 22//22 30//30 36//36
f 53//53 62//62 72//72
f 69//69 64//64 65//65
f 63//63 60//60 68//68

## Object rightSphere

v -0.5875 0.25 0
vn 0 0 0
v -0.3375 0.25 0
vn 1 0 0
v -0.363893 0.361804 0
vn 0.894427 0.447214 0
v -0.356335 0.298578 0.0818727
vn 0.924658 0.194311 0.327491
v -0.365269 0.304668 -0.100621
vn 0.888925 0.218673 -0.402486
v -0.403472 0.399769 -0.078758
vn 0.736112 0.599077 -0.315032
v -0.432693 0.446087 0.00919147
vn 0.61923 0.784348 0.0367659
v -0.363941 0.188416 0.0934285
vn 0.894236 -0.246334 0.373714
v -0.410629 0.387968 0.110368
vn 0.707486 0.551874 0.441473
v -0.367473 0.191604 -0.103335
vn 0.880107 -0.233582 -0.413341
v -0.358458 0.149801 -8.75488e-05
vn 0.916168 -0.400795 -0.000350195
v -0.421135 0.251713 -0.186601
vn 0.665458 0.00685229 -0.746404
v -0.444167 0.364414 -0.169897
vn 0.573332 0.457656 -0.67959
v -0.485119 0.455304 -0.0993403
vn 0.409525 0.821214 -0.397361
v -0.409409 0.274129 0.173785
vn 0.712366 0.096514 0.69514
v -0.527304 0.492563 -0.00629535
vn 0.240784 0.970252 -0.0251814
v -0.442748 0.137095 -0.169703
vn 0.579009 -0.45162 -0.678813
v -0.436004 0.146356 0.169726
vn 0.605982 -0.414577 0.678905
v -0.511892 0.464419 0.103961
vn 0.302433 0.857675 0.415846
v -0.414726 0.0800885 0.061474
vn 0.691098 -0.679646 0.245896
v -0.500173 0.374247 0.198587
vn 0.349309 0.496986 0.794347
v -0.413442 0.0814998 -0.0617362
vn 0.696233 -0.674001 -0.246945
v -0.596483 0.483348 -0.0892645
vn -0.035932 0.933391 -0.357058
v -0.502895 0.196054 -0.22898
vn 0.338418 -0.215782 -0.915921
v -0.54919 0.415044 -0.183828
vn 0.153241 0.660177 -0.735312
v -0.518203 0.302872 -0.234313
vn 0.277186 0.211488 -0.937252
v -0.506754 0.236186 0.236198
vn 0.322982 -0.0552575 0.944791
v -0.533178 0.122009 0.207768
vn 0.21729 -0.511964 0.83107
v -0.500781 0.048265 -0.119511
vn 0.346876 -0.80694 -0.478043
v -0.627208 0.494429 0.0343175
vn -0.158833 0.977716 0.13727
v -0.514707 0.0432995 0.120316
vn 0.291174 -0.826802 0.481264
v -0.556411 0.102098 -0.199144
vn 0.124357 -0.591609 -0.796576
v -0.652097 0.431072 -0.159813
vn -0.258388 0.724289 -0.639251
v -0.502034 0.0151782 -0.0073646
vn 0.341866 -0.939287 -0.0294584
v -0.606661 0.322435 0.238508
vn -0.0766425 0.289742 0.954031
v -0.709291 0.458556 -0.0645855
vn -0.487165 0.834224 -0.258342
v -0.620815 0.440442 0.158499
vn -0.133259 0.761769 0.633996
v -0.609796 0.20734 -0.245322
vn -0.0891821 -0.170641 -0.981289
v -0.615078 0.185665 0.240001
vn -0.11031 -0.257341 0.960004
v -0.604107 0.0208233 -0.0985003
vn -0.0664263 -0.916707 -0.394001
v -0.738032 0.440036 0.0610438
vn -0.602127 0.760145 0.244175
v -0.625648 0.0683658 0.167492
vn -0.152591 -0.726537 0.66997
v -0.639455 0.335107 -0.229254
vn -0.207822 0.340429 -0.917016
v -0.70028 0.256923 0.223008
vn -0.451122 0.0276906 0.892033
v -0.798255 0.376885 -0.044525
vn -0.843022 0.507538 -0.1781
v -0.728947 0.364011 0.171739
vn -0.565787 0.456045 0.686955
v -0.682286 0.105617 -0.180746
vn -0.379144 -0.577531 -0.722985
v -0.618059 0.00569375 0.0433655
vn -0.122236 -0.977225 0.173462
v -0.740168 0.370642 -0.156965
vn -0.610673 0.482569 -0.627859
v -0.725921 0.239512 -0.207917
vn -0.553685 -0.0419533 -0.831669
v -0.716083 0.147342 0.188223
vn -0.514331 -0.410633 0.752891
v -0.811335 0.338188 0.0679763
vn -0.89534 0.352752 0.271905
v -0.726307 0.0495782 -0.0553525
vn -0.555226 -0.801687 -0.22141
v -0.728081 0.0603012 0.082167
vn -0.562323 -0.758795 0.328668
v -0.781603 0.249774 0.157556
vn -0.776413 -0.000904782 0.630224
v -0.790415 0.161365 -0.116058
vn -0.811658 -0.354539 -0.464234
v -0.800165 0.278246 -0.128358
vn -0.85066 0.112984 -0.513432
v -0.788956 0.146983 0.106315
vn -0.805824 -0.412069 0.42526
v -0.835034 0.250792 -0.035022
vn -0.990134 0.00316965 -0.140088
v -0.805951 0.128435 0.00096488
vn -0.873805 -0.486261 0.00385952
v -0.827736 0.222041 0.063286
vn -0.960943 -0.111836 0.253144
g rightSphere
usemtl rightSphere

s 1
f 160//160 161//161 159//159
f 159//159 161//161 152//152
f 156//156 160//160 159//159
f 134//134 120//120 131//131
f 153//153 156//156 147//147
f 155//155 158//158 151//151
f 139//139 128//128 127//127
f 116//116 123//123 130//130
f 112//112 117//117 124//124
f 150//150 149//149 143//143
f 126//126 112//112 124//124
f 139//139 127//127 135//135
f 152//152 155//155 146//146
f 120//120 111//111 108//108
f 110//110 105//105 102//102
f 132//132 117//117 129//129
f 138//138 126//126 124//124
f 106//106 105//105 113//113
f 127//127 128//128 118//118
f 137//137 130//130 141//141
f 121//121 115//115 109//109
f 141//141 152//152 146//146
f 131//131 120//120 118//118
f 128//128 139//139 142//142
f 149//149 145//145 136//136
f 122//122 117//117 110//110
f 123//123 116//116 114//114
f 153//153 147//147 140//140
f 129//129 134//134 140//140
f 132//132 129//129 140//140
f 108//108 115//115 118//118
f 148//148 153//153 140//140
f 115//115 127//127 118//118
f 103//103 106//106 107//107
f 160//160 156//156 153//153
f 126//126 125//125 113//113
f 121//121 109//109 119//119
f 136//136 145//145 141//141
f 111//111 122//122 110//110
f 117//117 112//112 110//110
f 134//134 122//122 120//120
f 131//131 128//128 142//142
f 148//148 131//131 142//142
f 128//128 131//131 118//118
f 156//156 159//159 157//157
f 150//150 138//138 147//147
f 133//133 149//149 136//136
f 158//158 154//154 151//151
f 106//106 114//114 107//107
f 148//148 134//134 131//131
f 123//123 114//114 125//125
f 154//154 142//142 151//151
f 160//160 154//154 158//158
f 121//121 127//127 115//115
f 108//108 111//111 102//102
f 109//109 103//103 107//107
f 127//127 121//121 135//135
f 142//142 139//139 151//151
f 104//104 115//115 108//108
f 161//161 160//160 158//158
f 154//154 148//148 142//142
f 138//138 143//143 126//126
f 145//145 149//149 157//157
f 105//105 112//112 113//113
f 156//156 150//150 147//147
f 112//112 105//105 110//110
f 135//135 137//137 146//146
f 123//123 136//136 130//130
f 145//145 159//159 152//152
f 144//144 139//139 135//135
f 149//149 150//150 157//157
f 114//114 116//116 107//107
f 144//144 155//155 151//151
f 123//123 133//133 136//136
f 116//116 119//119 107//107
f 161//161 155//155 152//152
f 149//149 133//133 143//143
f 109//109 104//104 103//103
f 138//138 150//150 143//143
f 133//133 123//123 125//125
f 148//148 154//154 153//153
f 134//134 148//148 140//140
f 132//132 138//138 124//124
f 104//104 108//108 102//102
f 122//122 134//134 129//129
f 137//137 119//119 130//130
f 111//111 110//110 102//102
f 125//125 114//114 113//113
f 144//144 135//135 146//146
f 139//139 144//144 151//151
f 138//138 132//132 147//147
f 103//103 104//104 102//102
f 130//130 136//136 141//141
f 141//141 145//145 152//152
f 137//137 121//121 119//119
f 154//154 160//160 153//153
f 122//122 111//111 120//120
f 112//112 126//126 113//113
f 150//150 156//156 157//157
f 117//117 122//122 129//129
f 115//115 104//104 109//109
f 119//119 109//109 107//107
f 105//105 106//106 103//103
f 119//119 116//116 130//130
f 147//147 132//132 140//140
f 121//121 137//137 135//135
f 105//105 103//103 102//102
f 143//143 133//133 125//125
f 159//159 145//145 157//157
f 114//114 106//106 113//113
f 120//120 108//108 118//118
f 137//137 141//141 146//146
f 155//155 144//144 146//146
f 126//126 143//143 125//125
f 155//155 161//161 158//158
f 117//117 132//132 124//124


## Object floor
v   1.0000 0.0000 -1.0400
v  -0.9900 0.0000 -1.0400
v  -1.0100 0.0000  0.9900
v   1.0000 0.0000  0.9900
# 4 vertices

vn 0.0000 1.0000 -0.0000
# 1 vertex normals

g floor
usemtl floor

s 1
f 162//162 163//162 164//162 
f 164//162 165//162 162//162 
# 2 faces

## Object ceiling 
v   1.0000 1.5900 -1.0400
v   1.0000 1.5900  0.9900
v  -1.0200 1.5900  0.9900
v  -1.0200 1.5900 -1.0400
# 4 vertices

vn 0.0000 -1.0000 -0.0000
# 1 vertex normals

g ceiling
usemtl ceiling

s 1
f 166//163 167//163 168//163 
f 168//163 169//163 166//163 
# 2 faces

## Object backwall 
v   1.0000 1.5900 -1.0400
v  -1.0200 1.5900 -1.0400
v  -0.9900 0.0000 -1.0400
v   1.0000 0.0000 -1.0400
# 4 vertices

vn 0.0000 0.0000 1.0000
# 1 vertex normals

g backWall
usemtl backWall

s 1
f 170//164 171//164 172//164 
f 172//164 173//164 170//164 
# 2 faces

## Object rightwall 
v  1.0000 1.5900 0.9900
v  1.0000 1.5900 -1.0400
v  1.0000 0.0000 -1.0400
v  1.0000 0.0000 0.9900
# 4 vertices

vn -1.0000 0.0000 -0.0000
# 1 vertex normals

g rightWall
usemtl rightWall

s 1
f 174//165 175//165 176//165 
f 176//165 177//165 174//165 
# 2 faces

## Object leftWall 
v  -1.0200 1.5900 -1.0400
v  -1.0200 1.5900 0.9900
v  -1.0100 0.0000 0.9900
v  -0.9900 0.0000 -1.0400
# 4 vertices

vn 0.9999 0.0135 0.0057
vn 1.0000 0.0063 -0.0000
vn 0.9999 0.0116 0.0042
vn 0.9998 0.0189 0.0098
# 4 vertex normals

g leftWall
usemtl leftWall

s 1
f 178//166 179//167 180//168 
f 180//168 181//169 178//166 
# 2 faces

## Object light
v  0.2300 1.5800 -0.2200
v  0.2300 1.5800 0.1600
v  -0.2400 1.5800 0.1600
v  -0.2400 1.5800 -0.2200
# 4 vertices

vn 0.0000 -1.0000 -0.0000
# 1 vertex normals

g light
usemtl light

s 1
f 182//170 183//170 184//170 
f 184//170 185//170 182//170 
# 2 faces
