mtllib CornellBox-Sphere.mtl

## Object leftSphere

v 0.0480939 0.518015 0.0145433
vn 0.750794 -0.660236 0.0199218
v 0.0390975 0.614637 0.00130126
vn 0.813523 -0.58153 0.00196366
v 0.034904 0.560833 0.0808554
vn 0.76766 -0.630265 0.116039
v 0.0303152 0.548005 -0.0607105
vn 0.758197 -0.646222 -0.0867985
v 0.00183034 0.623412 -0.081348
vn 0.793196 -0.595237 -0.128579
v -0.0153492 0.6957 -0.00980892
vn 0.846778 -0.53167 -0.0171381
v -0.00153139 0.466345 0.078724
vn 0.678672 -0.726578 0.107184
v 0.00686818 0.645312 0.0819634
vn 0.812225 -0.568366 0.131341
v -0.00573638 0.456387 -0.0418308
vn 0.671637 -0.738696 -0.0568424
v -0.0405712 0.531908 -0.128742
vn 0.687355 -0.700317 -0.192612
v -0.066957 0.408658 0.0234981
vn 0.590521 -0.806386 0.0320433
v -0.0305834 0.55527 0.152803
vn 0.70648 -0.669327 0.229972
v -0.103014 0.426832 -0.0866774
vn 0.565032 -0.815793 -0.123368
v -0.0936392 0.442552 0.128932
vn 0.57904 -0.79433 0.18372
v -0.0798128 0.665362 -0.1374
vn 0.757841 -0.603545 -0.247812
v -0.0748222 0.701831 0.131631
vn 0.79364 -0.556565 0.245703
v -0.166297 0.384528 0.0301469
vn 0.476197 -0.878286 0.0430199
v -0.145233 0.524546 -0.176804
vn 0.573118 -0.768085 -0.285624
v -0.205569 0.430645 0.153508
vn 0.446714 -0.86383 0.232903
v -0.0976583 0.764707 -0.0255149
vn 0.861933 -0.504067 -0.0546604
v -0.128276 0.543021 0.202475
vn 0.596763 -0.733631 0.325052
v -0.19551 0.639481 -0.203175
vn 0.592649 -0.701701 -0.395452
v -0.169322 0.75512 -0.13218
vn 0.765126 -0.566607 -0.30584
v -0.20237 0.827334 -0.0240398
vn 0.862876 -0.500587 -0.0696952
v -0.149459 0.790819 0.0763522
vn 0.844088 -0.503699 0.183853
v -0.169766 0.648792 0.216716
vn 0.62479 -0.664472 0.410019
v -0.176995 0.74884 0.166411
vn 0.731263 -0.568611 0.376744
v -0.26457 0.707981 0.229287
vn 0.535518 -0.664238 0.521545
v -0.252985 0.547084 0.235153
vn 0.435681 -0.798847 0.41476
v -0.26783 0.525824 -0.203767
vn 0.410252 -0.837883 -0.360062
v -0.280226 0.381799 0.0419909
vn 0.334283 -0.940306 0.0638696
v -0.234043 0.412823 -0.104923
vn 0.407233 -0.899083 -0.160658
v -0.273067 0.818072 -0.123248
vn 0.718393 -0.575922 -0.390161
v -0.259725 0.825925 0.123013
vn 0.748065 -0.541959 0.382986
v -0.344275 0.450837 -0.149361
vn 0.263925 -0.930733 -0.25314
v -0.325703 0.640575 -0.230567
vn 0.377902 -0.779286 -0.499904
v -0.25848 0.729269 -0.193833
vn 0.587158 -0.658172 -0.471227
v -0.325304 0.431228 0.158116
vn 0.283759 -0.923861 0.256829
v -0.348223 0.399204 -0.0552928
vn 0.243962 -0.965704 -0.0888761
v -0.310477 0.874024 -0.00746304
vn 0.832358 -0.553268 -0.0327767
v -0.358457 0.75963 -0.203495
vn 0.40993 -0.696148 -0.589352
v -0.369792 0.51562 0.230437
vn 0.235894 -0.877535 0.417475
v -0.376142 0.871865 0.112369
vn 0.587895 -0.608196 0.533364
v -0.461909 0.444148 -0.0950553
vn 0.0673932 -0.98345 -0.168178
v -0.403203 0.535633 -0.207721
vn 0.186926 -0.896745 -0.401132
v -0.362757 0.78094 0.21606
vn 0.407365 -0.650214 0.641308
v -0.44958 0.455876 0.163184
vn 0.0884087 -0.954102 0.286137
v -0.356903 0.634968 0.261284
vn 0.303709 -0.774747 0.554551
v -0.404724 0.412864 0.0506752
vn 0.1596 -0.983525 0.0848873
v -0.38437 0.857686 -0.12044
vn 0.527069 -0.648697 -0.54899
v -0.472713 0.670717 -0.234867
vn 0.0673117 -0.812279 -0.579372
v -0.429122 0.906255 -0.00462331
vn 0.602628 -0.797053 -0.0393091
v -0.518046 0.482025 0.0619719
vn -0.0345717 -0.992325 0.118724
v -0.52888 0.537047 -0.18746
vn -0.0577245 -0.925349 -0.374696
v -0.476208 0.834869 0.196349
vn 0.0923413 -0.640893 0.762056
v -0.480977 0.711522 0.260151
vn 0.0489114 -0.741739 0.668903
v -0.473156 0.568184 0.250435
vn 0.0536983 -0.863799 0.500967
v -0.45856 0.803778 -0.192039
vn 0.149244 -0.706681 -0.691613
v -0.481234 0.902578 0.0966189
vn 0.135505 -0.70348 0.697678
v -0.50568 0.882975 -0.117191
vn -0.034276 -0.706192 -0.707191
v -0.610005 0.483333 -0.0868869
vn -0.205483 -0.965109 -0.1623
v -0.573877 0.512268 0.181158
vn -0.140582 -0.928116 0.344729
v -0.553461 0.925589 0.00687261
vn -0.581845 -0.809853 0.0747978
v -0.592934 0.626379 0.247232
vn -0.203112 -0.816567 0.540337
v -0.598132 0.778492 0.235895
vn -0.290205 -0.655067 0.697616
v -0.585932 0.891211 0.142031
vn -0.43296 -0.548126 0.715614
v -0.567669 0.788957 -0.202161
vn -0.225578 -0.703526 -0.673918
v -0.626616 0.897261 -0.101333
vn -0.659537 -0.535159 -0.52784
v -0.714627 0.682965 0.223712
vn -0.484025 -0.714973 0.504513
v -0.681957 0.557085 0.179623
vn -0.35579 -0.866056 0.351227
v -0.687939 0.800001 -0.178217
vn -0.574325 -0.611181 -0.544618
v -0.662094 0.480781 0.0663146
vn -0.295814 -0.947549 0.121021
v -0.734516 0.525941 -0.0517498
vn -0.4413 -0.89206 -0.0973801
v -0.759676 0.884559 -0.0842039
vn -0.876122 -0.389486 -0.284096
v -0.67639 0.927487 0.0347281
vn -0.909933 -0.374068 0.17915
v -0.7101 0.841256 0.18416
vn -0.653833 -0.494014 0.573108
v -0.795012 0.576768 0.108762
vn -0.559536 -0.802724 0.206284
v -0.65851 0.634933 -0.197768
vn -0.356665 -0.821441 -0.445
v -0.82906 0.748957 0.174035
vn -0.73289 -0.55913 0.387616
v -0.790697 0.748895 -0.153998
vn -0.702417 -0.60675 -0.372109
v -0.786853 0.623333 -0.125263
vn -0.585715 -0.769103 -0.255771
v -0.837557 0.593734 -0.0215307
vn -0.638538 -0.768512 -0.0407284
v -0.812547 0.892104 0.0721489
vn -0.923529 -0.318816 0.213189
v -0.8841 0.822083 -0.0554833
vn -0.899688 -0.41674 -0.12996
v -0.8717 0.681409 -0.0799365
vn -0.749342 -0.642274 -0.161151
v -0.903179 0.673846 0.0558604
vn -0.772988 -0.625315 0.107098
v -0.900126 0.807766 0.0912764
vn -0.8829 -0.424175 0.201406
v -0.134081 0.587841 0.0202104
vn 0.663467 -0.747307 0.0366446
v -0.347742 0.631634 0.00881479
vn 0.381896 -0.923941 0.0221094
v -0.770013 0.736144 0.0314526
vn -0.712745 -0.696492 0.0830245
v -0.593064 0.749717 -0.0985626
vn -0.326961 -0.879312 -0.346277
v -0.700348 0.714195 -0.0857648
vn -0.557428 -0.795194 -0.238623
v -0.652321 0.720355 0.143929
vn -0.435882 -0.800232 0.411869
v -0.677451 0.628411 -0.00362972
vn -0.430913 -0.90235 -0.00881425
v -0.623754 0.780219 0.0268968
vn -0.487878 -0.866448 0.106036
v -0.474569 0.777935 0.0757155
vn 0.107763 -0.940984 0.320838
v -0.539259 0.612581 -0.0243798
vn -0.100621 -0.992961 -0.0624859
v -0.555801 0.68809 0.131453
vn -0.162662 -0.909233 0.383193
v -0.693759 0.808195 -0.0651635
vn -0.691211 -0.684243 -0.232463
v -0.477616 0.762097 -0.0757257
vn 0.0892993 -0.949085 -0.302098
g leftSphere
usemtl leftSphere

s 1
f 75//75 76//76 66//66
f 77//77 82//82 73//73
f 46//46 43//43 55//55
f 72//72 77//77 73//73
f 43//43 59//59 55//55
f 77//77 86//86 82//82
f 53//53 44//44 49//49
f 8//8 12//12 3//3
f 3//3 12//12 7//7
f 2//2 8//8 3//3
f 74//74 84//84 83//83
f 74//74 68//68 71//71
f 79//79 87//87 86//86
f 2//2 4//4 5//5
f 38//38 47//47 49//49
f 76//76 83//83 79//79
f 50//50 58//58 60//60
f 46//46 34//34 43//43
f 30//30 22//22 18//18
f 75//75 66//66 63//63
f 20//20 25//25 16//16
f 6//6 15//15 20//20
f 52//52 50//50 60//60
f 2//2 3//3 1//1
f 36//36 45//45 51//51
f 66//66 55//55 59//59
f 16//16 26//26 21//21
f 16//16 25//25 27//27
f 50//50 52//52 40//40
f 13//13 10//10 9//9
f 24//24 25//25 20//20
f 44//44 39//39 49//49
f 14//14 19//19 17//17
f 24//24 23//23 33//33
f 31//31 19//19 38//38
f 22//22 15//15 18//18
f 43//43 34//34 40//40
f 31//31 39//39 32//32
f 16//16 8//8 6//6
f 21//21 26//26 29//29
f 57//57 56//56 64//64
f 47//47 62//62 53//53
f 3//3 7//7 1//1
f 29//29 48//48 42//42
f 30//30 45//45 36//36
f 76//76 69//69 65//65
f 28//28 34//34 46//46
f 17//17 11//11 14//14
f 46//46 56//56 48//48
f 84//84 80//80 85//85
f 43//43 52//52 59//59
f 77//77 69//69 79//79
f 56//56 55//55 65//65
f 67//67 51//51 78//78
f 75//75 83//83 76//76
f 17//17 32//32 13//13
f 48//48 28//28 46//46
f 6//6 8//8 2//2
f 79//79 69//69 76//76
f 44//44 45//45 35//35
f 5//5 6//6 2//2
f 16//16 12//12 8//8
f 58//58 41//41 51//51
f 21//21 12//12 16//16
f 48//48 56//56 57//57
f 58//58 51//51 67//67
f 23//23 15//15 22//22
f 27//27 34//34 28//28
f 73//73 81//81 78//78
f 14//14 12//12 21//21
f 10//10 15//15 5//5
f 80//80 84//84 74//74
f 29//29 19//19 21//21
f 70//70 77//77 72//72
f 24//24 34//34 25//25
f 28//28 26//26 27//27
f 49//49 39//39 31//31
f 40//40 33//33 50//50
f 83//83 84//84 87//87
f 5//5 15//15 6//6
f 17//17 19//19 31//31
f 38//38 29//29 42//42
f 49//49 47//47 53//53
f 68//68 67//67 71//71
f 9//9 11//11 13//13
f 42//42 47//47 38//38
f 65//65 66//66 76//76
f 1//1 4//4 2//2
f 85//85 81//81 82//82
f 68//68 60//60 67//67
f 16//16 6//6 20//20
f 79//79 86//86 77//77
f 13//13 11//11 17//17
f 86//86 85//85 82//82
f 39//39 44//44 35//35
f 64//64 56//56 65//65
f 78//78 61//61 73//73
f 79//79 83//83 87//87
f 54//54 61//61 78//78
f 87//87 84//84 86//86
f 73//73 61//61 72//72
f 84//84 85//85 86//86
f 48//48 57//57 42//42
f 59//59 63//63 66//66
f 25//25 34//34 27//27
f 14//14 11//11 7//7
f 28//28 48//48 29//29
f 29//29 26//26 28//28
f 51//51 54//54 78//78
f 70//70 62//62 64//64
f 20//20 23//23 24//24
f 54//54 45//45 44//44
f 32//32 30//30 18//18
f 74//74 75//75 68//68
f 71//71 80//80 74//74
f 65//65 55//55 66//66
f 74//74 83//83 75//75
f 56//56 46//46 55//55
f 53//53 72//72 61//61
f 71//71 78//78 80//80
f 62//62 47//47 57//57
f 71//71 67//67 78//78
f 58//58 67//67 60//60
f 80//80 81//81 85//85
f 13//13 18//18 10//10
f 59//59 52//52 63//63
f 21//21 19//19 14//14
f 44//44 53//53 61//61
f 9//9 4//4 1//1
f 77//77 70//70 69//69
f 37//37 23//23 22//22
f 1//1 7//7 9//9
f 5//5 4//4 10//10
f 62//62 57//57 64//64
f 80//80 78//78 81//81
f 33//33 23//23 37//37
f 40//40 34//34 24//24
f 32//32 18//18 13//13
f 50//50 41//41 58//58
f 75//75 63//63 68//68
f 37//37 41//41 33//33
f 10//10 4//4 9//9
f 7//7 11//11 9//9
f 63//63 52//52 60//60
f 57//57 47//47 42//42
f 49//49 31//31 38//38
f 35//35 32//32 39//39
f 31//31 32//32 17//17
f 73//73 82//82 81//81
f 30//30 32//32 35//35
f 20//20 15//15 23//23
f 27//27 26//26 16//16
f 35//35 45//45 30//30
f 36//36 37//37 22//22
f 7//7 12//12 14//14
f 36//36 41//41 37//37
f 18//18 15//15 10//10
f 70//70 64//64 69//69
f 33//33 41//41 50//50
f 54//54 44//44 61//61
f 24//24 33//33 40//40
f 51//51 45//45 54//54
f 40//40 52//52 43//43
f 38//38 19//19 29//29
f 51//51 41//41 36//36
f 72//72 62//62 70//70
f 22//22 30//30 36//36
f 53//53 62//62 72//72
f 69//69 64//64 65//65
f 63//63 60//60 68//68

## Object rightSphere

v -0.5875 0.25 0
vn 0 0 0
v -0.3375 0.25 0
vn 1 0 0
v -0.363893 0.361804 0
vn 0.894427 0.447214 0
v -0.356335 0.298578 0.0818727
vn 0.924658 0.194311 0.327491
v -0.365269 0.304668 -0.100621
vn 0.888925 0.218673 -0.402486
v -0.403472 0.399769 -0.078758
vn 0.736112 0.599077 -0.315032
v -0.432693 0.446087 0.00919147
vn 0.61923 0.784348 0.0367659
v -0.363941 0.188416 0.0934285
vn 0.894236 -0.246334 0.373714
v -0.410629 0.387968 0.110368
vn 0.707486 0.551874 0.441473
v -0.367473 0.191604 -0.103335
vn 0.880107 -0.233582 -0.413341
v -0.358458 0.149801 -8.75488e-05
vn 0.916168 -0.400795 -0.000350195
v -0.421135 0.251713 -0.186601
vn 0.665458 0.00685229 -0.746404
v -0.444167 0.364414 -0.169897
vn 0.573332 0.457656 -0.67959
v -0.485119 0.455304 -0.0993403
vn 0.409525 0.821214 -0.397361
v -0.409409 0.274129 0.173785
vn 0.712366 0.096514 0.69514
v -0.527304 0.492563 -0.00629535
vn 0.240784 0.970252 -0.0251814
v -0.442748 0.137095 -0.169703
vn 0.579009 -0.45162 -0.678813
v -0.436004 0.146356 0.169726
vn 0.605982 -0.414577 0.678905
v -0.511892 0.464419 0.103961
vn 0.302433 0.857675 0.415846
v -0.414726 0.0800885 0.061474
vn 0.691098 -0.679646 0.245896
v -0.500173 0.374247 0.198587
vn 0.349309 0.496986 0.794347
v -0.413442 0.0814998 -0.0617362
vn 0.696233 -0.674001 -0.246945
v -0.596483 0.483348 -0.0892645
vn -0.035932 0.933391 -0.357058
v -0.502895 0.196054 -0.22898
vn 0.338418 -0.215782 -0.915921
v -0.54919 0.415044 -0.183828
vn 0.153241 0.660177 -0.735312
v -0.518203 0.302872 -0.234313
vn 0.277186 0.211488 -0.937252
v -0.506754 0.236186 0.236198
vn 0.322982 -0.0552575 0.944791
v -0.533178 0.122009 0.207768
vn 0.21729 -0.511964 0.83107
v -0.500781 0.048265 -0.119511
vn 0.346876 -0.80694 -0.478043
v -0.627208 0.494429 0.0343175
vn -0.158833 0.977716 0.13727
v -0.514707 0.0432995 0.120316
vn 0.291174 -0.826802 0.481264
v -0.556411 0.102098 -0.199144
vn 0.124357 -0.591609 -0.796576
v -0.652097 0.431072 -0.159813
vn -0.258388 0.724289 -0.639251
v -0.502034 0.0151782 -0.0073646
vn 0.341866 -0.939287 -0.0294584
v -0.606661 0.322435 0.238508
vn -0.0766425 0.289742 0.954031
v -0.709291 0.458556 -0.0645855
vn -0.487165 0.834224 -0.258342
v -0.620815 0.440442 0.158499
vn -0.133259 0.761769 0.633996
v -0.609796 0.20734 -0.245322
vn -0.0891821 -0.170641 -0.981289
v -0.615078 0.185665 0.240001
vn -0.11031 -0.257341 0.960004
v -0.604107 0.0208233 -0.0985003
vn -0.0664263 -0.916707 -0.394001
v -0.738032 0.440036 0.0610438
vn -0.602127 0.760145 0.244175
v -0.625648 0.0683658 0.167492
vn -0.152591 -0.726537 0.66997
v -0.639455 0.335107 -0.229254
vn -0.207822 0.340429 -0.917016
v -0.70028 0.256923 0.223008
vn -0.451122 0.0276906 0.892033
v -0.798255 0.376885 -0.044525
vn -0.843022 0.507538 -0.1781
v -0.728947 0.364011 0.171739
vn -0.565787 0.456045 0.686955
v -0.682286 0.105617 -0.180746
vn -0.379144 -0.577531 -0.722985
v -0.618059 0.00569375 0.0433655
vn -0.122236 -0.977225 0.173462
v -0.740168 0.370642 -0.156965
vn -0.610673 0.482569 -0.627859
v -0.725921 0.239512 -0.207917
vn -0.553685 -0.0419533 -0.831669
v -0.716083 0.147342 0.188223
vn -0.514331 -0.410633 0.752891
v -0.811335 0.338188 0.0679763
vn -0.89534 0.352752 0.271905
v -0.726307 0.0495782 -0.0553525
vn -0.555226 -0.801687 -0.22141
v -0.728081 0.0603012 0.082167
vn -0.562323 -0.758795 0.328668
v -0.781603 0.249774 0.157556
vn -0.776413 -0.000904782 0.630224
v -0.790415 0.161365 -0.116058
vn -0.811658 -0.354539 -0.464234
v -0.800165 0.278246 -0.128358
vn -0.85066 0.112984 -0.513432
v -0.788956 0.146983 0.106315
vn -0.805824 -0.412069 0.42526
v -0.835034 0.250792 -0.035022
vn -0.990134 0.00316965 -0.140088
v -0.805951 0.128435 0.00096488
vn -0.873805 -0.486261 0.00385952
v -0.827736 0.222041 0.063286
vn -0.960943 -0.111836 0.253144
g rightSphere
usemtl rightSphere

s 1
f 160//160 161//161 159//159
f 159//159 161//161 152//152
f 156//156 160//160 159//159
f 134//134 120//120 131//131
f 153//153 156//156 147//147
f 155//155 158//158 151//151
f 139//139 128//128 127//127
f 116//116 123//123 130//130
f 112//112 117//117 124//124
f 150//150 149//149 143//143
f 126//126 112//112 124//124
f 139//139 127//127 135//135
f 152//152 155//155 146//146
f 120//120 111//111 108//108
f 110//110 105//105 102//102
f 132//132 117//117 129//129
f 138//138 126//126 124//124
f 106//106 105//105 113//113
f 127//127 128//128 118//118
f 137//137 130//130 141//141
f 121//121 115//115 109//109
f 141//141 152//152 146//146
f 131//131 120//120 118//118
f 128//128 139//139 142//142
f 149//149 145//145 136//136
f 122//122 117//117 110//110
f 123//123 116//116 114//114
f 153//153 147//147 140//140
f 129//129 134//134 140//140
f 132//132 129//129 140//140
f 108//108 115//115 118//118
f 148//148 153//153 140//140
f 115//115 127//127 118//118
f 103//103 106//106 107//107
f 160//160 156//156 153//153
f 126//126 125//125 113//113
f 121//121 109//109 119//119
f 136//136 145//145 141//141
f 111//111 122//122 110//110
f 117//117 112//112 110//110
f 134//134 122//122 120//120
f 131//131 128//128 142//142
f 148//148 131//131 142//142
f 128//128 131//131 118//118
f 156//156 159//159 157//157
f 150//150 138//138 147//147
f 133//133 149//149 136//136
f 158//158 154//154 151//151
f 106//106 114//114 107//107
f 148//148 134//134 131//131
f 123//123 114//114 125//125
f 154//154 142//142 151//151
f 160//160 154//154 158//158
f 121//121 127//127 115//115
f 108//108 111//111 102//102
f 109//109 103//103 107//107
f 127//127 121//121 135//135
f 142//142 139//139 151//151
f 104//104 115//115 108//108
f 161//161 160//160 158//158
f 154//154 148//148 142//142
f 138//138 143//143 126//126
f 145//145 149//149 157//157
f 105//105 112//112 113//113
f 156//156 150//150 147//147
f 112//112 105//105 110//110
f 135//135 137//137 146//146
f 123//123 136//136 130//130
f 145//145 159//159 152//152
f 144//144 139//139 135//135
f 149//149 150//150 157//157
f 114//114 116//116 107//107
f 144//144 155//155 151//151
f 123//123 133//133 136//136
f 116//116 119//119 107//107
f 161//161 155//155 152//152
f 149//149 133//133 143//143
f 109//109 104//104 103//103
f 138//138 150//150 143//143
f 133//133 123//123 125//125
f 148//148 154//154 153//153
f 134//134 148//148 140//140
f 132//132 138//138 124//124
f 104//104 108//108 102//102
f 122//122 134//134 129//129
f 137//137 119//119 130//130
f 111//111 110//110 102//102
f 125//125 114//114 113//113
f 144//144 135//135 146//146
f 139//139 144//144 151//151
f 138//138 132//132 147//147
f 103//103 104//104 102//102
f 130//130 136//136 141//141
f 141//141 145//145 152//152
f 137//137 121//121 119//119
f 154//154 160//160 153//153
f 122//122 111//111 120//120
f 112//112 126//126 113//113
f 150//150 156//156 157//157
f 117//117 122//122 129//129
f 115//115 104//104 109//109
f 119//119 109//109 107//107
f 105//105 106//106 103//103
f 119//119 116//116 130//130
f 147//147 132//132 140//140
f 121//121 137//137 135//135
f 105//105 103//103 102//102
f 143//143 133//133 125//125
f 159//159 145//145 157//157
f 114//114 106//106 113//113
f 120//120 108//108 118//118
f 137//137 141//141 146//146
f 155//155 144//144 146//146
f 126//126 143//143 125//125
f 155//155 161//161 158//158
f 117//117 132//132 124//124


## Object floor
v   1.0000 0.0000 -1.0400
v  -0.9900 0.0000 -1.0400
v  -1.0100 0.0000  0.9900
v   1.0000 0.0000  0.9900
# 4 vertices

vn 0.0000 1.0000 -0.0000
# 1 vertex normals

g floor
usemtl floor

s 1
f 162//162 163//162 164//162 
f 164//162 165//162 162//162 
# 2 faces

## Object ceiling 
v   1.0000 1.5900 -1.0400
v   1.0000 1.5900  0.9900
v  -1.0200 1.5900  0.9900
v  -1.0200 1.5900 -1.0400
# 4 vertices

vn 0.0000 -1.0000 -0.0000
# 1 vertex normals

g ceiling
usemtl ceiling

s 1
f 166//163 167//163 168//163 
f 168//163 169//163 166//163 
# 2 faces

## Object backwall 
v   1.0000 1.5900 -1.0400
v  -1.0200 1.5900 -1.0400
v  -0.9900 0.0000 -1.0400
v   1.0000 0.0000 -1.0400
# 4 vertices

vn 0.0000 0.0000 1.0000
# 1 vertex normals

g backWall
usemtl backWall

s 1
f 170//164 171//164 172//164 
f 172//164 173//164 170//164 
# 2 faces

## Object rightwall 
v  1.0000 1.5900 0.9900
v  1.0000 1.5900 -1.0400
v  1.0000 0.0000 -1.0400
v  1.0000 0.0000 0.9900
# 4 vertices

vn -1.0000 0.0000 -0.0000
# 1 vertex normals

g rightWall
usemtl rightWall

s 1
f 174//165 175//165 176//165 
f 176//165 177//165 174//165 
# 2 faces

## Object leftWall 
v  -1.0200 1.5900 -1.0400
v  -1.0200 1.5900 0.9900
v  -1.0100 0.0000 0.9900
v  -0.9900 0.0000 -1.0400
# 4 vertices

vn 0.9999 0.0135 0.0057
vn 1.0000 0.0063 -0.0000
vn 0.9999 0.0116 0.0042
vn 0.9998 0.0189 0.0098
# 4 vertex normals

g leftWall
usemtl leftWall

s 1
f 178//166 179//167 180//168 
f 180//168 181//169 178//166 
# 2 faces

## Object light
v  0.2300 1.5800 -0.2200
v  0.2300 1.5800 0.1600
v  -0.2400 1.5800 0.1600
v  -0.2400 1.5800 -0.2200
# 4 vertices

vn 0.0000 -1.0000 -0.0000
# 1 vertex normals

g light
usemtl light

s 1
f 182//170 183//170 184//170 
f 184//170 185//170 182//170 
# 2 faces
