mtllib CornellBox-Sphere.mtl

## Object leftSphere

v 0.0800099 0.488684 0.055156
vn 0.74823 -0.659613 0.0711528
v 0.107995 0.572931 0.0158716
vn 0.818113 -0.574661 0.0213567
v 0.0979034 0.54602 0.107679
vn 0.788367 -0.598597 0.14198
v 0.0615909 0.505638 -0.0240906
vn 0.750217 -0.660408 -0.0321821
v 0.0622849 0.578686 -0.0625969
vn 0.797115 -0.597271 -0.0887397
v 0.0905985 0.663433 -0.012373
vn 0.86868 -0.495039 -0.0181988
v 0.0269489 0.480192 0.136153
vn 0.700167 -0.690679 0.18091
v 0.107184 0.630562 0.0874497
vn 0.8479 -0.5159 0.122119
v -0.00369251 0.4458 0.0235861
vn 0.666791 -0.74457 0.031688
v -0.021584 0.506824 -0.0785842
vn 0.691775 -0.713117 -0.11363
v -0.0652967 0.446198 0.106373
vn 0.610517 -0.777785 0.149394
v 0.0504064 0.585987 0.183796
vn 0.772137 -0.580797 0.257838
v -0.111729 0.451764 -0.00126044
vn 0.577955 -0.816067 -0.00187621
v -0.0560796 0.512587 0.199684
vn 0.64444 -0.707578 0.289882
v -0.00417367 0.637873 -0.120952
vn 0.792324 -0.578675 -0.19328
v 0.0677228 0.724648 0.12669
vn 0.88215 -0.427853 0.196856
v -0.162974 0.470819 0.129957
vn 0.52602 -0.825931 0.202833
v -0.12742 0.534115 -0.112877
vn 0.613675 -0.767357 -0.185919
v -0.156787 0.55959 0.236657
vn 0.565952 -0.726229 0.390243
v 0.0447885 0.754764 -0.0394977
vn 0.909884 -0.409584 -0.0659674
v -0.0326802 0.631096 0.242937
vn 0.726739 -0.57369 0.377797
v -0.129637 0.650147 -0.166006
vn 0.691182 -0.652907 -0.309806
v -0.0433572 0.755 -0.132958
vn 0.853537 -0.457944 -0.24852
v -0.0191205 0.855419 -0.0476135
vn 0.953376 -0.286642 -0.0943969
v 0.0309162 0.822443 0.0547113
vn 0.943872 -0.315665 0.0972668
v -0.0221526 0.7429 0.229539
vn 0.811046 -0.436373 0.389594
v 0.00547153 0.819419 0.154171
vn 0.905114 -0.323355 0.276063
v -0.0773751 0.840314 0.230645
vn 0.833159 -0.314803 0.454691
v -0.135235 0.700837 0.282759
vn 0.663204 -0.543929 0.514104
v -0.240538 0.581801 -0.127878
vn 0.510259 -0.82243 -0.251485
v -0.264068 0.521788 0.151591
vn 0.425582 -0.862616 0.273446
v -0.238063 0.492097 -0.00206416
vn 0.458355 -0.888762 -0.003612
v -0.104769 0.854267 -0.136919
vn 0.892298 -0.329015 -0.309118
v -0.040988 0.913316 0.0962735
vn 0.962404 -0.18175 0.201855
v -0.328824 0.559002 -0.0483134
vn 0.35998 -0.927411 -0.101602
v -0.250975 0.697426 -0.183151
vn 0.575699 -0.699495 -0.423411
v -0.145565 0.755233 -0.179154
vn 0.759759 -0.524678 -0.384031
v -0.262699 0.613478 0.249173
vn 0.45856 -0.746914 0.4815
v -0.336018 0.537992 0.0573445
vn 0.332224 -0.936018 0.116179
v -0.0892386 0.945787 -0.0409186
vn 0.986603 -0.130212 -0.0982818
v -0.222308 0.819777 -0.1913
vn 0.726284 -0.471359 -0.500332
v -0.253913 0.723682 0.2944
vn 0.520439 -0.584374 0.622615
v -0.123478 1.00267 0.0758534
vn 0.980281 0.00695762 0.197486
v -0.430652 0.609512 0.0120461
vn 0.174777 -0.98414 0.0303596
v -0.359304 0.642514 -0.124637
vn 0.348353 -0.88511 -0.308593
v -0.132461 0.944748 0.201106
vn 0.869732 -0.130747 0.475889
v -0.363958 0.684098 0.252454
vn 0.318857 -0.740415 0.591706
v -0.185384 0.827992 0.287464
vn 0.684586 -0.37428 0.625505
v -0.369335 0.591339 0.159734
vn 0.285412 -0.892638 0.348908
v -0.18341 0.935505 -0.140794
vn 0.898289 -0.182996 -0.399486
v -0.367841 0.783527 -0.186831
vn 0.419537 -0.687189 -0.593093
v -0.177418 1.02614 -0.0435904
vn 0.987813 0.0800494 -0.133483
v -0.470425 0.677428 0.16173
vn 0.0816853 -0.890947 0.4467
v -0.464732 0.703783 -0.0970631
vn 0.112425 -0.944259 -0.309411
v -0.212492 1.03703 0.171219
vn 0.853971 0.109985 0.508564
v -0.257708 0.946976 0.270522
vn 0.660171 -0.144475 0.73709
v -0.32205 0.81512 0.300749
vn 0.450114 -0.467645 0.760727
v -0.286449 0.902547 -0.188499
vn 0.709347 -0.323706 -0.626132
v -0.205811 1.07179 0.056058
vn 0.955263 0.233107 0.182026
v -0.277305 1.01008 -0.139894
vn 0.846163 0.0382945 -0.531547
v -0.542431 0.719861 0.0176601
vn -0.149465 -0.986808 0.0622089
v -0.451869 0.782233 0.256808
vn 0.141507 -0.640244 0.755026
v -0.275188 1.10105 -0.0331057
vn 0.903985 0.406312 -0.13312
v -0.395653 0.916302 0.290323
vn 0.326434 -0.261835 0.908231
v -0.334965 1.04957 0.233678
vn 0.568416 0.170718 0.804835
v -0.294355 1.12025 0.108506
vn 0.785593 0.459377 0.414507
v -0.388527 0.934412 -0.187385
vn 0.489588 -0.288065 -0.822996
v -0.372146 1.07982 -0.121993
vn 0.659358 0.411633 -0.629131
v -0.479419 1.01741 0.256563
vn 0.079777 0.0675014 0.994525
v -0.514331 0.884003 0.252234
vn -0.0515525 -0.417259 0.907324
v -0.480919 1.00359 -0.162454
vn 0.116626 0.021929 -0.992934
v -0.559789 0.788833 0.166659
vn -0.216962 -0.766278 0.604769
v -0.620543 0.824805 0.0433484
vn -0.555415 -0.80723 0.199733
v -0.491255 1.13122 -0.0954774
vn 0.0538085 0.807425 -0.587511
v -0.379419 1.16265 0.000746172
vn 0.595546 0.803313 0.00368532
v -0.418049 1.14072 0.169951
vn 0.348175 0.597843 0.722052
v -0.618103 0.933985 0.18439
vn -0.5164 -0.288648 0.806234
v -0.533836 0.844916 -0.130879
vn -0.164468 -0.753818 -0.636167
v -0.564391 1.10988 0.192785
vn -0.278685 0.475554 0.834376
v -0.588128 1.01133 -0.120711
vn -0.587962 0.0756144 -0.805346
v -0.63597 0.910849 -0.0543662
vn -0.793109 -0.520015 -0.317117
v -0.673526 0.933578 0.0561626
vn -0.893973 -0.342193 0.289339
v -0.509634 1.19875 0.0531415
vn -0.046776 0.965006 0.258021
v -0.622755 1.13758 -0.0453577
vn -0.6465 0.724551 -0.23888
v -0.676214 1.00805 -0.0262416
vn -0.988085 0.0451303 -0.147145
v -0.683162 1.04851 0.106907
vn -0.841906 0.222978 0.491401
v -0.618849 1.16958 0.0988626
vn -0.517934 0.739004 0.430834
v -0.0553092 0.62841 0.0560825
vn 0.763791 -0.638235 0.096326
v -0.227456 0.75875 0.0485485
vn 0.742214 -0.656992 0.132211
v -0.541954 1.03522 0.0597104
vn -0.517762 0.434639 0.736893
v -0.406296 0.937611 -0.0745579
vn 0.693978 -0.462054 -0.552178
v -0.51221 0.958261 -0.0477354
vn -0.18909 -0.646366 -0.739227
v -0.423356 1.00067 0.166702
vn 0.417726 0.00364735 0.908566
v -0.513479 0.895736 0.0556711
vn -0.113304 -0.876449 0.467974
v -0.394522 1.01024 0.0359162
vn 0.942657 0.091482 0.320982
v -0.257894 0.956787 0.0744321
vn 0.942234 -0.168175 0.289676
v -0.408324 0.810194 0.0364638
vn 0.428557 -0.88729 0.170458
v -0.356982 0.925227 0.160247
vn 0.628846 -0.328774 0.7046
v -0.461474 1.04122 -0.056975
vn 0.480483 0.514023 -0.710575
v -0.297868 0.904699 -0.0634291
vn 0.870138 -0.41025 -0.273049
g leftSphere
usemtl leftSphere

s 1
f 75//75 76//76 66//66
f 77//77 82//82 73//73
f 46//46 43//43 55//55
f 72//72 77//77 73//73
f 43//43 59//59 55//55
f 77//77 86//86 82//82
f 53//53 44//44 49//49
f 8//8 12//12 3//3
f 3//3 12//12 7//7
f 2//2 8//8 3//3
f 74//74 84//84 83//83
f 74//74 68//68 71//71
f 79//79 87//87 86//86
f 2//2 4//4 5//5
f 38//38 47//47 49//49
f 76//76 83//83 79//79
f 50//50 58//58 60//60
f 46//46 34//34 43//43
f 30//30 22//22 18//18
f 75//75 66//66 63//63
f 20//20 25//25 16//16
f 6//6 15//15 20//20
f 52//52 50//50 60//60
f 2//2 3//3 1//1
f 36//36 45//45 51//51
f 66//66 55//55 59//59
f 16//16 26//26 21//21
f 16//16 25//25 27//27
f 50//50 52//52 40//40
f 13//13 10//10 9//9
f 24//24 25//25 20//20
f 44//44 39//39 49//49
f 14//14 19//19 17//17
f 24//24 23//23 33//33
f 31//31 19//19 38//38
f 22//22 15//15 18//18
f 43//43 34//34 40//40
f 31//31 39//39 32//32
f 16//16 8//8 6//6
f 21//21 26//26 29//29
f 57//57 56//56 64//64
f 47//47 62//62 53//53
f 3//3 7//7 1//1
f 29//29 48//48 42//42
f 30//30 45//45 36//36
f 76//76 69//69 65//65
f 28//28 34//34 46//46
f 17//17 11//11 14//14
f 46//46 56//56 48//48
f 84//84 80//80 85//85
f 43//43 52//52 59//59
f 77//77 69//69 79//79
f 56//56 55//55 65//65
f 67//67 51//51 78//78
f 75//75 83//83 76//76
f 17//17 32//32 13//13
f 48//48 28//28 46//46
f 6//6 8//8 2//2
f 79//79 69//69 76//76
f 44//44 45//45 35//35
f 5//5 6//6 2//2
f 16//16 12//12 8//8
f 58//58 41//41 51//51
f 21//21 12//12 16//16
f 48//48 56//56 57//57
f 58//58 51//51 67//67
f 23//23 15//15 22//22
f 27//27 34//34 28//28
f 73//73 81//81 78//78
f 14//14 12//12 21//21
f 10//10 15//15 5//5
f 80//80 84//84 74//74
f 29//29 19//19 21//21
f 70//70 77//77 72//72
f 24//24 34//34 25//25
f 28//28 26//26 27//27
f 49//49 39//39 31//31
f 40//40 33//33 50//50
f 83//83 84//84 87//87
f 5//5 15//15 6//6
f 17//17 19//19 31//31
f 38//38 29//29 42//42
f 49//49 47//47 53//53
f 68//68 67//67 71//71
f 9//9 11//11 13//13
f 42//42 47//47 38//38
f 65//65 66//66 76//76
f 1//1 4//4 2//2
f 85//85 81//81 82//82
f 68//68 60//60 67//67
f 16//16 6//6 20//20
f 79//79 86//86 77//77
f 13//13 11//11 17//17
f 86//86 85//85 82//82
f 39//39 44//44 35//35
f 64//64 56//56 65//65
f 78//78 61//61 73//73
f 79//79 83//83 87//87
f 54//54 61//61 78//78
f 87//87 84//84 86//86
f 73//73 61//61 72//72
f 84//84 85//85 86//86
f 48//48 57//57 42//42
f 59//59 63//63 66//66
f 25//25 34//34 27//27
f 14//14 11//11 7//7
f 28//28 48//48 29//29
f 29//29 26//26 28//28
f 51//51 54//54 78//78
f 70//70 62//62 64//64
f 20//20 23//23 24//24
f 54//54 45//45 44//44
f 32//32 30//30 18//18
f 74//74 75//75 68//68
f 71//71 80//80 74//74
f 65//65 55//55 66//66
f 74//74 83//83 75//75
f 56//56 46//46 55//55
f 53//53 72//72 61//61
f 71//71 78//78 80//80
f 62//62 47//47 57//57
f 71//71 67//67 78//78
f 58//58 67//67 60//60
f 80//80 81//81 85//85
f 13//13 18//18 10//10
f 59//59 52//52 63//63
f 21//21 19//19 14//14
f 44//44 53//53 61//61
f 9//9 4//4 1//1
f 77//77 70//70 69//69
f 37//37 23//23 22//22
f 1//1 7//7 9//9
f 5//5 4//4 10//10
f 62//62 57//57 64//64
f 80//80 78//78 81//81
f 33//33 23//23 37//37
f 40//40 34//34 24//24
f 32//32 18//18 13//13
f 50//50 41//41 58//58
f 75//75 63//63 68//68
f 37//37 41//41 33//33
f 10//10 4//4 9//9
f 7//7 11//11 9//9
f 63//63 52//52 60//60
f 57//57 47//47 42//42
f 49//49 31//31 38//38
f 35//35 32//32 39//39
f 31//31 32//32 17//17
f 73//73 82//82 81//81
f 30//30 32//32 35//35
f 20//20 15//15 23//23
f 27//27 26//26 16//16
f 35//35 45//45 30//30
f 36//36 37//37 22//22
f 7//7 12//12 14//14
f 36//36 41//41 37//37
f 18//18 15//15 10//10
f 70//70 64//64 69//69
f 33//33 41//41 50//50
f 54//54 44//44 61//61
f 24//24 33//33 40//40
f 51//51 45//45 54//54
f 40//40 52//52 43//43
f 38//38 19//19 29//29
f 51//51 41//41 36//36
f 72//72 62//62 70//70
f 22//22 30//30 36//36
f 53//53 62//62 72//72
f 69//69 64//64 65//65
f 63//63 60//60 68//68

## Object rightSphere

v -0.5875 0.25 0
vn 0 0 0
v -0.3375 0.25 0
vn 1 0 0
v -0.363893 0.361804 0
vn 0.894427 0.447214 0
v -0.356335 0.298578 0.0818727
vn 0.924658 0.194311 0.327491
v -0.365269 0.304668 -0.100621
vn 0.888925 0.218673 -0.402486
v -0.403472 0.399769 -0.078758
vn 0.736112 0.599077 -0.315032
v -0.432693 0.446087 0.00919147
vn 0.61923 0.784348 0.0367659
v -0.363941 0.188416 0.0934285
vn 0.894236 -0.246334 0.373714
v -0.410629 0.387968 0.110368
vn 0.707486 0.551874 0.441473
v -0.367473 0.191604 -0.103335
vn 0.880107 -0.233582 -0.413341
v -0.358458 0.149801 -8.75488e-05
vn 0.916168 -0.400795 -0.000350195
v -0.421135 0.251713 -0.186601
vn 0.665458 0.00685229 -0.746404
v -0.444167 0.364414 -0.169897
vn 0.573332 0.457656 -0.67959
v -0.485119 0.455304 -0.0993403
vn 0.409525 0.821214 -0.397361
v -0.409409 0.274129 0.173785
vn 0.712366 0.096514 0.69514
v -0.527304 0.492563 -0.00629535
vn 0.240784 0.970252 -0.0251814
v -0.442748 0.137095 -0.169703
vn 0.579009 -0.45162 -0.678813
v -0.436004 0.146356 0.169726
vn 0.605982 -0.414577 0.678905
v -0.511892 0.464419 0.103961
vn 0.302433 0.857675 0.415846
v -0.414726 0.0800885 0.061474
vn 0.691098 -0.679646 0.245896
v -0.500173 0.374247 0.198587
vn 0.349309 0.496986 0.794347
v -0.413442 0.0814998 -0.0617362
vn 0.696233 -0.674001 -0.246945
v -0.596483 0.483348 -0.0892645
vn -0.035932 0.933391 -0.357058
v -0.502895 0.196054 -0.22898
vn 0.338418 -0.215782 -0.915921
v -0.54919 0.415044 -0.183828
vn 0.153241 0.660177 -0.735312
v -0.518203 0.302872 -0.234313
vn 0.277186 0.211488 -0.937252
v -0.506754 0.236186 0.236198
vn 0.322982 -0.0552575 0.944791
v -0.533178 0.122009 0.207768
vn 0.21729 -0.511964 0.83107
v -0.500781 0.048265 -0.119511
vn 0.346876 -0.80694 -0.478043
v -0.627208 0.494429 0.0343175
vn -0.158833 0.977716 0.13727
v -0.514707 0.0432995 0.120316
vn 0.291174 -0.826802 0.481264
v -0.556411 0.102098 -0.199144
vn 0.124357 -0.591609 -0.796576
v -0.652097 0.431072 -0.159813
vn -0.258388 0.724289 -0.639251
v -0.502034 0.0151782 -0.0073646
vn 0.341866 -0.939287 -0.0294584
v -0.606661 0.322435 0.238508
vn -0.0766425 0.289742 0.954031
v -0.709291 0.458556 -0.0645855
vn -0.487165 0.834224 -0.258342
v -0.620815 0.440442 0.158499
vn -0.133259 0.761769 0.633996
v -0.609796 0.20734 -0.245322
vn -0.0891821 -0.170641 -0.981289
v -0.615078 0.185665 0.240001
vn -0.11031 -0.257341 0.960004
v -0.604107 0.0208233 -0.0985003
vn -0.0664263 -0.916707 -0.394001
v -0.738032 0.440036 0.0610438
vn -0.602127 0.760145 0.244175
v -0.625648 0.0683658 0.167492
vn -0.152591 -0.726537 0.66997
v -0.639455 0.335107 -0.229254
vn -0.207822 0.340429 -0.917016
v -0.70028 0.256923 0.223008
vn -0.451122 0.0276906 0.892033
v -0.798255 0.376885 -0.044525
vn -0.843022 0.507538 -0.1781
v -0.728947 0.364011 0.171739
vn -0.565787 0.456045 0.686955
v -0.682286 0.105617 -0.180746
vn -0.379144 -0.577531 -0.722985
v -0.618059 0.00569375 0.0433655
vn -0.122236 -0.977225 0.173462
v -0.740168 0.370642 -0.156965
vn -0.610673 0.482569 -0.627859
v -0.725921 0.239512 -0.207917
vn -0.553685 -0.0419533 -0.831669
v -0.716083 0.147342 0.188223
vn -0.514331 -0.410633 0.752891
v -0.811335 0.338188 0.0679763
vn -0.89534 0.352752 0.271905
v -0.726307 0.0495782 -0.0553525
vn -0.555226 -0.801687 -0.22141
v -0.728081 0.0603012 0.082167
vn -0.562323 -0.758795 0.328668
v -0.781603 0.249774 0.157556
vn -0.776413 -0.000904782 0.630224
v -0.790415 0.161365 -0.116058
vn -0.811658 -0.354539 -0.464234
v -0.800165 0.278246 -0.128358
vn -0.85066 0.112984 -0.513432
v -0.788956 0.146983 0.106315
vn -0.805824 -0.412069 0.42526
v -0.835034 0.250792 -0.035022
vn -0.990134 0.00316965 -0.140088
v -0.805951 0.128435 0.00096488
vn -0.873805 -0.486261 0.00385952
v -0.827736 0.222041 0.063286
vn -0.960943 -0.111836 0.253144
g rightSphere
usemtl rightSphere

s 1
f 160//160 161//161 159//159
f 159//159 161//161 152//152
f 156//156 160//160 159//159
f 134//134 120//120 131//131
f 153//153 156//156 147//147
f 155//155 158//158 151//151
f 139//139 128//128 127//127
f 116//116 123//123 130//130
f 112//112 117//117 124//124
f 150//150 149//149 143//143
f 126//126 112//112 124//124
f 139//139 127//127 135//135
f 152//152 155//155 146//146
f 120//120 111//111 108//108
f 110//110 105//105 102//102
f 132//132 117//117 129//129
f 138//138 126//126 124//124
f 106//106 105//105 113//113
f 127//127 128//128 118//118
f 137//137 130//130 141//141
f 121//121 115//115 109//109
f 141//141 152//152 146//146
f 131//131 120//120 118//118
f 128//128 139//139 142//142
f 149//149 145//145 136//136
f 122//122 117//117 110//110
f 123//123 116//116 114//114
f 153//153 147//147 140//140
f 129//129 134//134 140//140
f 132//132 129//129 140//140
f 108//108 115//115 118//118
f 148//148 153//153 140//140
f 115//115 127//127 118//118
f 103//103 106//106 107//107
f 160//160 156//156 153//153
f 126//126 125//125 113//113
f 121//121 109//109 119//119
f 136//136 145//145 141//141
f 111//111 122//122 110//110
f 117//117 112//112 110//110
f 134//134 122//122 120//120
f 131//131 128//128 142//142
f 148//148 131//131 142//142
f 128//128 131//131 118//118
f 156//156 159//159 157//157
f 150//150 138//138 147//147
f 133//133 149//149 136//136
f 158//158 154//154 151//151
f 106//106 114//114 107//107
f 148//148 134//134 131//131
f 123//123 114//114 125//125
f 154//154 142//142 151//151
f 160//160 154//154 158//158
f 121//121 127//127 115//115
f 108//108 111//111 102//102
f 109//109 103//103 107//107
f 127//127 121//121 135//135
f 142//142 139//139 151//151
f 104//104 115//115 108//108
f 161//161 160//160 158//158
f 154//154 148//148 142//142
f 138//138 143//143 126//126
f 145//145 149//149 157//157
f 105//105 112//112 113//113
f 156//156 150//150 147//147
f 112//112 105//105 110//110
f 135//135 137//137 146//146
f 123//123 136//136 130//130
f 145//145 159//159 152//152
f 144//144 139//139 135//135
f 149//149 150//150 157//157
f 114//114 116//116 107//107
f 144//144 155//155 151//151
f 123//123 133//133 136//136
f 116//116 119//119 107//107
f 161//161 155//155 152//152
f 149//149 133//133 143//143
f 109//109 104//104 103//103
f 138//138 150//150 143//143
f 133//133 123//123 125//125
f 148//148 154//154 153//153
f 134//134 148//148 140//140
f 132//132 138//138 124//124
f 104//104 108//108 102//102
f 122//122 134//134 129//129
f 137//137 119//119 130//130
f 111//111 110//110 102//102
f 125//125 114//114 113//113
f 144//144 135//135 146//146
f 139//139 144//144 151//151
f 138//138 132//132 147//147
f 103//103 104//104 102//102
f 130//130 136//136 141//141
f 141//141 145//145 152//152
f 137//137 121//121 119//119
f 154//154 160//160 153//153
f 122//122 111//111 120//120
f 112//112 126//126 113//113
f 150//150 156//156 157//157
f 117//117 122//122 129//129
f 115//115 104//104 109//109
f 119//119 109//109 107//107
f 105//105 106//106 103//103
f 119//119 116//116 130//130
f 147//147 132//132 140//140
f 121//121 137//137 135//135
f 105//105 103//103 102//102
f 143//143 133//133 125//125
f 159//159 145//145 157//157
f 114//114 106//106 113//113
f 120//120 108//108 118//118
f 137//137 141//141 146//146
f 155//155 144//144 146//146
f 126//126 143//143 125//125
f 155//155 161//161 158//158
f 117//117 132//132 124//124


## Object floor
v   1.0000 0.0000 -1.0400
v  -0.9900 0.0000 -1.0400
v  -1.0100 0.0000  0.9900
v   1.0000 0.0000  0.9900
# 4 vertices

vn 0.0000 1.0000 -0.0000
# 1 vertex normals

g floor
usemtl floor

s 1
f 162//162 163//162 164//162 
f 164//162 165//162 162//162 
# 2 faces

## Object ceiling 
v   1.0000 1.5900 -1.0400
v   1.0000 1.5900  0.9900
v  -1.0200 1.5900  0.9900
v  -1.0200 1.5900 -1.0400
# 4 vertices

vn 0.0000 -1.0000 -0.0000
# 1 vertex normals

g ceiling
usemtl ceiling

s 1
f 166//163 167//163 168//163 
f 168//163 169//163 166//163 
# 2 faces

## Object backwall 
v   1.0000 1.5900 -1.0400
v  -1.0200 1.5900 -1.0400
v  -0.9900 0.0000 -1.0400
v   1.0000 0.0000 -1.0400
# 4 vertices

vn 0.0000 0.0000 1.0000
# 1 vertex normals

g backWall
usemtl backWall

s 1
f 170//164 171//164 172//164 
f 172//164 173//164 170//164 
# 2 faces

## Object rightwall 
v  1.0000 1.5900 0.9900
v  1.0000 1.5900 -1.0400
v  1.0000 0.0000 -1.0400
v  1.0000 0.0000 0.9900
# 4 vertices

vn -1.0000 0.0000 -0.0000
# 1 vertex normals

g rightWall
usemtl rightWall

s 1
f 174//165 175//165 176//165 
f 176//165 177//165 174//165 
# 2 faces

## Object leftWall 
v  -1.0200 1.5900 -1.0400
v  -1.0200 1.5900 0.9900
v  -1.0100 0.0000 0.9900
v  -0.9900 0.0000 -1.0400
# 4 vertices

vn 0.9999 0.0135 0.0057
vn 1.0000 0.0063 -0.0000
vn 0.9999 0.0116 0.0042
vn 0.9998 0.0189 0.0098
# 4 vertex normals

g leftWall
usemtl leftWall

s 1
f 178//166 179//167 180//168 
f 180//168 181//169 178//166 
# 2 faces

## Object light
v  0.2300 1.5800 -0.2200
v  0.2300 1.5800 0.1600
v  -0.2400 1.5800 0.1600
v  -0.2400 1.5800 -0.2200
# 4 vertices

vn 0.0000 -1.0000 -0.0000
# 1 vertex normals

g light
usemtl light

s 1
f 182//170 183//170 184//170 
f 184//170 185//170 182//170 
# 2 faces
