mtllib CornellBox-Sphere.mtl

## Object leftSphere

v -0.486628 0.668538 0.00288551
vn 0.0403095 -0.999149 0.00869799
v -0.236072 0.674662 0.00127577
vn 0.63 -0.776589 0.00304529
v -0.268975 0.782376 -0.000135202
vn 0.727905 -0.685678 -0.000425988
v -0.259023 0.726071 0.0802358
vn 0.645087 -0.7333 0.214789
v -0.266551 0.723794 -0.100677
vn 0.62187 -0.735767 -0.268188
v -0.307865 0.817406 -0.0829124
vn 0.691818 -0.657465 -0.298542
v -0.335962 0.866288 -0.00260845
vn 0.775056 -0.631772 -0.0123246
v -0.261918 0.617358 0.0995146
vn 0.515865 -0.82909 0.215623
v -0.317742 0.813791 0.104323
vn 0.64937 -0.663448 0.371693
v -0.268149 0.610892 -0.0976917
vn 0.500369 -0.83975 -0.210833
v -0.258329 0.577786 0.00690222
vn 0.496718 -0.867796 0.0141865
v -0.32111 0.663577 -0.183904
vn 0.422821 -0.795163 -0.434672
v -0.347257 0.773406 -0.174548
vn 0.471055 -0.698811 -0.538303
v -0.393501 0.868599 -0.108328
vn 0.530224 -0.654203 -0.539334
v -0.309323 0.70412 0.172833
vn 0.486248 -0.754526 0.440743
v -0.433437 0.908635 -0.0156207
vn 0.583298 -0.800641 -0.136886
v -0.341815 0.554828 -0.161427
vn 0.31684 -0.891666 -0.323334
v -0.33001 0.573527 0.178218
vn 0.345172 -0.865968 0.361878
v -0.417281 0.886096 0.0937038
vn 0.489155 -0.673563 0.554112
v -0.310398 0.507935 0.0718161
vn 0.356263 -0.92459 0.134943
v -0.403444 0.80432 0.193553
vn 0.331034 -0.670875 0.663584
v -0.309723 0.505398 -0.0518
vn 0.357351 -0.92889 -0.0972834
v -0.502318 0.891718 -0.0971462
vn -0.0159329 -0.744249 -0.667712
v -0.404504 0.605014 -0.223579
vn 0.205895 -0.851609 -0.482047
v -0.456509 0.823611 -0.190428
vn 0.165248 -0.670204 -0.723547
v -0.418931 0.708671 -0.233231
vn 0.212282 -0.762857 -0.610726
v -0.406479 0.666794 0.237365
vn 0.222849 -0.79399 0.565613
v -0.427127 0.55516 0.212291
vn 0.146255 -0.892791 0.426067
v -0.394137 0.468345 -0.107747
vn 0.191539 -0.96193 -0.194947
v -0.535157 0.908241 0.0227052
vn -0.348602 -0.909831 0.225132
v -0.408012 0.474977 0.135075
vn 0.167291 -0.954814 0.24565
v -0.452498 0.511669 -0.187988
vn 0.0904075 -0.929416 -0.357788
v -0.55747 0.836974 -0.164931
vn -0.24054 -0.682347 -0.690321
v -0.394172 0.443447 0.00680022
vn 0.186788 -0.982327 0.0120025
v -0.506173 0.750571 0.234631
vn -0.0180236 -0.728264 0.685059
v -0.616289 0.870082 -0.0729015
vn -0.615325 -0.687441 -0.385746
v -0.524075 0.863663 0.151703
vn -0.117224 -0.663828 0.738642
v -0.509082 0.615091 -0.236433
vn -0.020102 -0.851915 -0.523294
v -0.509219 0.615215 0.248939
vn -0.0201123 -0.83944 0.54308
v -0.491627 0.465195 -0.0836627
vn 0.0154665 -0.987866 -0.154538
v -0.642068 0.85122 0.055459
vn -0.666798 -0.698302 0.260298
v -0.514922 0.497154 0.181794
vn -0.0278971 -0.940062 0.339861
v -0.540956 0.738424 -0.231452
vn -0.116461 -0.743818 -0.658157
v -0.59514 0.679089 0.22798
vn -0.234925 -0.792408 0.562938
v -0.702012 0.787131 -0.0428135
vn -0.681156 -0.717765 -0.144361
v -0.629906 0.786288 0.173594
vn -0.426706 -0.701986 0.570209
v -0.577741 0.52084 -0.168489
vn -0.151296 -0.932517 -0.327904
v -0.496228 0.473444 0.0651324
vn 0.00710888 -0.992411 0.122756
v -0.644278 0.773886 -0.155027
vn -0.465709 -0.729868 -0.500408
v -0.625356 0.649131 -0.200052
vn -0.296421 -0.829674 -0.473049
v -0.611502 0.570675 0.196597
vn -0.229814 -0.884872 0.4052
v -0.710338 0.75081 0.0722639
vn -0.629745 -0.746064 0.216355
v -0.6133 0.49478 -0.0437847
vn -0.218045 -0.972294 -0.0842635
v -0.617433 0.488306 0.092257
vn -0.220307 -0.959953 0.173077
v -0.675775 0.668893 0.161487
vn -0.430638 -0.811188 0.395632
v -0.68782 0.570492 -0.107589
vn -0.390505 -0.89301 -0.223694
v -0.701002 0.683517 -0.123166
vn -0.509343 -0.801973 -0.312104
v -0.684619 0.563815 0.115178
vn -0.378744 -0.894831 0.236286
v -0.732775 0.664287 -0.0286536
vn -0.568406 -0.819768 -0.0699684
v -0.701572 0.547949 0.0140625
vn -0.407088 -0.912947 0.0284002
v -0.721622 0.63669 0.0677534
vn -0.514288 -0.843082 0.157226
g leftSphere
usemtl leftSphere

s 1
f 60//60 61//61 59//59
f 59//59 61//61 52//52
f 56//56 60//60 59//59
f 34//34 20//20 31//31
f 53//53 56//56 47//47
f 55//55 58//58 51//51
f 39//39 28//28 27//27
f 16//16 23//23 30//30
f 12//12 17//17 24//24
f 50//50 49//49 43//43
f 26//26 12//12 24//24
f 39//39 27//27 35//35
f 52//52 55//55 46//46
f 20//20 11//11 8//8
f 10//10 5//5 2//2
f 32//32 17//17 29//29
f 38//38 26//26 24//24
f 6//6 5//5 13//13
f 27//27 28//28 18//18
f 37//37 30//30 41//41
f 21//21 15//15 9//9
f 41//41 52//52 46//46
f 31//31 20//20 18//18
f 28//28 39//39 42//42
f 49//49 45//45 36//36
f 22//22 17//17 10//10
f 23//23 16//16 14//14
f 53//53 47//47 40//40
f 29//29 34//34 40//40
f 32//32 29//29 40//40
f 8//8 15//15 18//18
f 48//48 53//53 40//40
f 15//15 27//27 18//18
f 3//3 6//6 7//7
f 60//60 56//56 53//53
f 26//26 25//25 13//13
f 21//21 9//9 19//19
f 36//36 45//45 41//41
f 11//11 22//22 10//10
f 17//17 12//12 10//10
f 34//34 22//22 20//20
f 31//31 28//28 42//42
f 48//48 31//31 42//42
f 28//28 31//31 18//18
f 56//56 59//59 57//57
f 50//50 38//38 47//47
f 33//33 49//49 36//36
f 58//58 54//54 51//51
f 6//6 14//14 7//7
f 48//48 34//34 31//31
f 23//23 14//14 25//25
f 54//54 42//42 51//51
f 60//60 54//54 58//58
f 21//21 27//27 15//15
f 8//8 11//11 2//2
f 9//9 3//3 7//7
f 27//27 21//21 35//35
f 42//42 39//39 51//51
f 4//4 15//15 8//8
f 61//61 60//60 58//58
f 54//54 48//48 42//42
f 38//38 43//43 26//26
f 45//45 49//49 57//57
f 5//5 12//12 13//13
f 56//56 50//50 47//47
f 12//12 5//5 10//10
f 35//35 37//37 46//46
f 23//23 36//36 30//30
f 45//45 59//59 52//52
f 44//44 39//39 35//35
f 49//49 50//50 57//57
f 14//14 16//16 7//7
f 44//44 55//55 51//51
f 23//23 33//33 36//36
f 16//16 19//19 7//7
f 61//61 55//55 52//52
f 49//49 33//33 43//43
f 9//9 4//4 3//3
f 38//38 50//50 43//43
f 33//33 23//23 25//25
f 48//48 54//54 53//53
f 34//34 48//48 40//40
f 32//32 38//38 24//24
f 4//4 8//8 2//2
f 22//22 34//34 29//29
f 37//37 19//19 30//30
f 11//11 10//10 2//2
f 25//25 14//14 13//13
f 44//44 35//35 46//46
f 39//39 44//44 51//51
f 38//38 32//32 47//47
f 3//3 4//4 2//2
f 30//30 36//36 41//41
f 41//41 45//45 52//52
f 37//37 21//21 19//19
f 54//54 60//60 53//53
f 22//22 11//11 20//20
f 12//12 26//26 13//13
f 50//50 56//56 57//57
f 17//17 22//22 29//29
f 15//15 4//4 9//9
f 19//19 9//9 7//7
f 5//5 6//6 3//3
f 19//19 16//16 30//30
f 47//47 32//32 40//40
f 21//21 37//37 35//35
f 5//5 3//3 2//2
f 43//43 33//33 25//25
f 59//59 45//45 57//57
f 14//14 6//6 13//13
f 20//20 8//8 18//18
f 37//37 41//41 46//46
f 55//55 44//44 46//46
f 26//26 43//43 25//25
f 55//55 61//61 58//58
f 17//17 32//32 24//24

## Object rightSphere

v -0.5875 0.25 0
vn 0 0 0
v -0.3375 0.25 0
vn 1 0 0
v -0.363893 0.361804 0
vn 0.894427 0.447214 0
v -0.356335 0.298578 0.0818727
vn 0.924658 0.194311 0.327491
v -0.365269 0.304668 -0.100621
vn 0.888925 0.218673 -0.402486
v -0.403472 0.399769 -0.078758
vn 0.736112 0.599077 -0.315032
v -0.432693 0.446087 0.00919147
vn 0.61923 0.784348 0.0367659
v -0.363941 0.188416 0.0934285
vn 0.894236 -0.246334 0.373714
v -0.410629 0.387968 0.110368
vn 0.707486 0.551874 0.441473
v -0.367473 0.191604 -0.103335
vn 0.880107 -0.233582 -0.413341
v -0.358458 0.149801 -8.75488e-05
vn 0.916168 -0.400795 -0.000350195
v -0.421135 0.251713 -0.186601
vn 0.665458 0.00685229 -0.746404
v -0.444167 0.364414 -0.169897
vn 0.573332 0.457656 -0.67959
v -0.485119 0.455304 -0.0993403
vn 0.409525 0.821214 -0.397361
v -0.409409 0.274129 0.173785
vn 0.712366 0.096514 0.69514
v -0.527304 0.492563 -0.00629535
vn 0.240784 0.970252 -0.0251814
v -0.442748 0.137095 -0.169703
vn 0.579009 -0.45162 -0.678813
v -0.436004 0.146356 0.169726
vn 0.605982 -0.414577 0.678905
v -0.511892 0.464419 0.103961
vn 0.302433 0.857675 0.415846
v -0.414726 0.0800885 0.061474
vn 0.691098 -0.679646 0.245896
v -0.500173 0.374247 0.198587
vn 0.349309 0.496986 0.794347
v -0.413442 0.0814998 -0.0617362
vn 0.696233 -0.674001 -0.246945
v -0.596483 0.483348 -0.0892645
vn -0.035932 0.933391 -0.357058
v -0.502895 0.196054 -0.22898
vn 0.338418 -0.215782 -0.915921
v -0.54919 0.415044 -0.183828
vn 0.153241 0.660177 -0.735312
v -0.518203 0.302872 -0.234313
vn 0.277186 0.211488 -0.937252
v -0.506754 0.236186 0.236198
vn 0.322982 -0.0552575 0.944791
v -0.533178 0.122009 0.207768
vn 0.21729 -0.511964 0.83107
v -0.500781 0.048265 -0.119511
vn 0.346876 -0.80694 -0.478043
v -0.627208 0.494429 0.0343175
vn -0.158833 0.977716 0.13727
v -0.514707 0.0432995 0.120316
vn 0.291174 -0.826802 0.481264
v -0.556411 0.102098 -0.199144
vn 0.124357 -0.591609 -0.796576
v -0.652097 0.431072 -0.159813
vn -0.258388 0.724289 -0.639251
v -0.502034 0.0151782 -0.0073646
vn 0.341866 -0.939287 -0.0294584
v -0.606661 0.322435 0.238508
vn -0.0766425 0.289742 0.954031
v -0.709291 0.458556 -0.0645855
vn -0.487165 0.834224 -0.258342
v -0.620815 0.440442 0.158499
vn -0.133259 0.761769 0.633996
v -0.609796 0.20734 -0.245322
vn -0.0891821 -0.170641 -0.981289
v -0.615078 0.185665 0.240001
vn -0.11031 -0.257341 0.960004
v -0.604107 0.0208233 -0.0985003
vn -0.0664263 -0.916707 -0.394001
v -0.738032 0.440036 0.0610438
vn -0.602127 0.760145 0.244175
v -0.625648 0.0683658 0.167492
vn -0.152591 -0.726537 0.66997
v -0.639455 0.335107 -0.229254
vn -0.207822 0.340429 -0.917016
v -0.70028 0.256923 0.223008
vn -0.451122 0.0276906 0.892033
v -0.798255 0.376885 -0.044525
vn -0.843022 0.507538 -0.1781
v -0.728947 0.364011 0.171739
vn -0.565787 0.456045 0.686955
v -0.682286 0.105617 -0.180746
vn -0.379144 -0.577531 -0.722985
v -0.618059 0.00569375 0.0433655
vn -0.122236 -0.977225 0.173462
v -0.740168 0.370642 -0.156965
vn -0.610673 0.482569 -0.627859
v -0.725921 0.239512 -0.207917
vn -0.553685 -0.0419533 -0.831669
v -0.716083 0.147342 0.188223
vn -0.514331 -0.410633 0.752891
v -0.811335 0.338188 0.0679763
vn -0.89534 0.352752 0.271905
v -0.726307 0.0495782 -0.0553525
vn -0.555226 -0.801687 -0.22141
v -0.728081 0.0603012 0.082167
vn -0.562323 -0.758795 0.328668
v -0.781603 0.249774 0.157556
vn -0.776413 -0.000904782 0.630224
v -0.790415 0.161365 -0.116058
vn -0.811658 -0.354539 -0.464234
v -0.800165 0.278246 -0.128358
vn -0.85066 0.112984 -0.513432
v -0.788956 0.146983 0.106315
vn -0.805824 -0.412069 0.42526
v -0.835034 0.250792 -0.035022
vn -0.990134 0.00316965 -0.140088
v -0.805951 0.128435 0.00096488
vn -0.873805 -0.486261 0.00385952
v -0.827736 0.222041 0.063286
vn -0.960943 -0.111836 0.253144
g rightSphere
usemtl rightSphere

s 1
f 121//121 122//122 120//120
f 120//120 122//122 113//113
f 117//117 121//121 120//120
f 95//95 81//81 92//92
f 114//114 117//117 108//108
f 116//116 119//119 112//112
f 100//100 89//89 88//88
f 77//77 84//84 91//91
f 73//73 78//78 85//85
f 111//111 110//110 104//104
f 87//87 73//73 85//85
f 100//100 88//88 96//96
f 113//113 116//116 107//107
f 81//81 72//72 69//69
f 71//71 66//66 63//63
f 93//93 78//78 90//90
f 99//99 87//87 85//85
f 67//67 66//66 74//74
f 88//88 89//89 79//79
f 98//98 91//91 102//102
f 82//82 76//76 70//70
f 102//102 113//113 107//107
f 92//92 81//81 79//79
f 89//89 100//100 103//103
f 110//110 106//106 97//97
f 83//83 78//78 71//71
f 84//84 77//77 75//75
f 114//114 108//108 101//101
f 90//90 95//95 101//101
f 93//93 90//90 101//101
f 69//69 76//76 79//79
f 109//109 114//114 101//101
f 76//76 88//88 79//79
f 64//64 67//67 68//68
f 121//121 117//117 114//114
f 87//87 86//86 74//74
f 82//82 70//70 80//80
f 97//97 106//106 102//102
f 72//72 83//83 71//71
f 78//78 73//73 71//71
f 95//95 83//83 81//81
f 92//92 89//89 103//103
f 109//109 92//92 103//103
f 89//89 92//92 79//79
f 117//117 120//120 118//118
f 111//111 99//99 108//108
f 94//94 110//110 97//97
f 119//119 115//115 112//112
f 67//67 75//75 68//68
f 109//109 95//95 92//92
f 84//84 75//75 86//86
f 115//115 103//103 112//112
f 121//121 115//115 119//119
f 82//82 88//88 76//76
f 69//69 72//72 63//63
f 70//70 64//64 68//68
f 88//88 82//82 96//96
f 103//103 100//100 112//112
f 65//65 76//76 69//69
f 122//122 121//121 119//119
f 115//115 109//109 103//103
f 99//99 104//104 87//87
f 106//106 110//110 118//118
f 66//66 73//73 74//74
f 117//117 111//111 108//108
f 73//73 66//66 71//71
f 96//96 98//98 107//107
f 84//84 97//97 91//91
f 106//106 120//120 113//113
f 105//105 100//100 96//96
f 110//110 111//111 118//118
f 75//75 77//77 68//68
f 105//105 116//116 112//112
f 84//84 94//94 97//97
f 77//77 80//80 68//68
f 122//122 116//116 113//113
f 110//110 94//94 104//104
f 70//70 65//65 64//64
f 99//99 111//111 104//104
f 94//94 84//84 86//86
f 109//109 115//115 114//114
f 95//95 109//109 101//101
f 93//93 99//99 85//85
f 65//65 69//69 63//63
f 83//83 95//95 90//90
f 98//98 80//80 91//91
f 72//72 71//71 63//63
f 86//86 75//75 74//74
f 105//105 96//96 107//107
f 100//100 105//105 112//112
f 99//99 93//93 108//108
f 64//64 65//65 63//63
f 91//91 97//97 102//102
f 102//102 106//106 113//113
f 98//98 82//82 80//80
f 115//115 121//121 114//114
f 83//83 72//72 81//81
f 73//73 87//87 74//74
f 111//111 117//117 118//118
f 78//78 83//83 90//90
f 76//76 65//65 70//70
f 80//80 70//70 68//68
f 66//66 67//67 64//64
f 80//80 77//77 91//91
f 108//108 93//93 101//101
f 82//82 98//98 96//96
f 66//66 64//64 63//63
f 104//104 94//94 86//86
f 120//120 106//106 118//118
f 75//75 67//67 74//74
f 81//81 69//69 79//79
f 98//98 102//102 107//107
f 116//116 105//105 107//107
f 87//87 104//104 86//86
f 116//116 122//122 119//119
f 78//78 93//93 85//85


## Object floor
v   1.0000 0.0000 -1.0400
v  -0.9900 0.0000 -1.0400
v  -1.0100 0.0000  0.9900
v   1.0000 0.0000  0.9900
# 4 vertices

vn 0.0000 1.0000 -0.0000
# 1 vertex normals

g floor
usemtl floor

s 1
f 123//123 124//123 125//123 
f 125//123 126//123 123//123 
# 2 faces

## Object ceiling 
v   1.0000 1.5900 -1.0400
v   1.0000 1.5900  0.9900
v  -1.0200 1.5900  0.9900
v  -1.0200 1.5900 -1.0400
# 4 vertices

vn 0.0000 -1.0000 -0.0000
# 1 vertex normals

g ceiling
usemtl ceiling

s 1
f 127//124 128//124 129//124 
f 129//124 130//124 127//124 
# 2 faces

## Object backwall 
v   1.0000 1.5900 -1.0400
v  -1.0200 1.5900 -1.0400
v  -0.9900 0.0000 -1.0400
v   1.0000 0.0000 -1.0400
# 4 vertices

vn 0.0000 0.0000 1.0000
# 1 vertex normals

g backWall
usemtl backWall

s 1
f 131//125 132//125 133//125 
f 133//125 134//125 131//125 
# 2 faces

## Object rightwall 
v  1.0000 1.5900 0.9900
v  1.0000 1.5900 -1.0400
v  1.0000 0.0000 -1.0400
v  1.0000 0.0000 0.9900
# 4 vertices

vn -1.0000 0.0000 -0.0000
# 1 vertex normals

g rightWall
usemtl rightWall

s 1
f 135//126 136//126 137//126 
f 137//126 138//126 135//126 
# 2 faces

## Object leftWall 
v  -1.0200 1.5900 -1.0400
v  -1.0200 1.5900 0.9900
v  -1.0100 0.0000 0.9900
v  -0.9900 0.0000 -1.0400
# 4 vertices

vn 0.9999 0.0135 0.0057
vn 1.0000 0.0063 -0.0000
vn 0.9999 0.0116 0.0042
vn 0.9998 0.0189 0.0098
# 4 vertex normals

g leftWall
usemtl leftWall

s 1
f 139//127 140//128 141//129 
f 141//129 142//130 139//127 
# 2 faces

## Object light
v  0.2300 1.5800 -0.2200
v  0.2300 1.5800 0.1600
v  -0.2400 1.5800 0.1600
v  -0.2400 1.5800 -0.2200
# 4 vertices

vn 0.0000 -1.0000 -0.0000
# 1 vertex normals

g light
usemtl light

s 1
f 143//131 144//131 145//131 
f 145//131 146//131 143//131 
# 2 faces
