mtllib CornellBox-Sphere.mtl

## Object leftSphere

v 0.079039 0.498441 0.0580322
vn 0.753707 -0.652855 0.0755377
v 0.104249 0.583667 0.0191925
vn 0.823179 -0.567179 0.0261463
v 0.0921703 0.556333 0.110877
vn 0.791462 -0.592981 0.148192
v 0.0624601 0.51437 -0.0219502
vn 0.75658 -0.653234 -0.0295258
v 0.0605909 0.586684 -0.061266
vn 0.801789 -0.591148 -0.0876261
v 0.0833055 0.672929 -0.0116648
vn 0.872106 -0.489007 -0.0174401
v 0.0236596 0.487126 0.136155
vn 0.70241 -0.687943 0.182631
v 0.0985938 0.641175 0.089927
vn 0.85067 -0.509931 0.127796
v -0.000837237 0.451934 0.0227171
vn 0.673037 -0.738975 0.0306302
v -0.0194267 0.511899 -0.079724
vn 0.696886 -0.707802 -0.115609
v -0.0648749 0.448652 0.101404
vn 0.613156 -0.776931 0.142894
v 0.0403445 0.59353 0.184597
vn 0.770926 -0.579922 0.26337
v -0.108041 0.45283 -0.00812985
vn 0.5823 -0.812884 -0.0120778
v -0.0624127 0.513799 0.195402
vn 0.640981 -0.712192 0.286226
v -0.00780424 0.641878 -0.1232
vn 0.792539 -0.576652 -0.198379
v 0.05471 0.73365 0.125997
vn 0.883143 -0.424051 0.200598
v -0.163784 0.466714 0.118907
vn 0.524077 -0.831258 0.185346
v -0.126269 0.535733 -0.119115
vn 0.614903 -0.763863 -0.195981
v -0.165181 0.552187 0.227901
vn 0.554517 -0.741653 0.377442
v 0.0332919 0.761648 -0.0422126
vn 0.910588 -0.406982 -0.0720775
v -0.045041 0.633317 0.240638
vn 0.719938 -0.580248 0.380791
v -0.133814 0.650568 -0.173401
vn 0.684415 -0.653101 -0.324092
v -0.0529029 0.757143 -0.138081
vn 0.848057 -0.460653 -0.261913
v -0.0357001 0.858618 -0.0515836
vn 0.951274 -0.289669 -0.105686
v 0.0144792 0.828765 0.0519497
vn 0.944501 -0.31436 0.0953713
v -0.0377546 0.745849 0.228132
vn 0.804291 -0.442213 0.396941
v -0.0123025 0.824391 0.152423
vn 0.902648 -0.325023 0.28211
v -0.0972153 0.83938 0.23093
vn 0.819857 -0.326936 0.470051
v -0.150406 0.694254 0.279623
vn 0.644874 -0.56399 0.515804
v -0.242333 0.579189 -0.139357
vn 0.502537 -0.820723 -0.271793
v -0.267796 0.509787 0.137176
vn 0.415017 -0.876157 0.245175
v -0.236988 0.48623 -0.0165688
vn 0.455498 -0.889774 -0.0286948
v -0.118425 0.856734 -0.139487
vn 0.885753 -0.332565 -0.323792
v -0.062243 0.91538 0.0943841
vn 0.960539 -0.185675 0.2071
v -0.329425 0.553264 -0.0642205
vn 0.353533 -0.925904 -0.133103
v -0.253313 0.698819 -0.192093
vn 0.568241 -0.693765 -0.442484
v -0.152596 0.757163 -0.184315
vn 0.751628 -0.52539 -0.398775
v -0.273831 0.597497 0.238081
vn 0.435388 -0.774841 0.458321
v -0.337947 0.526811 0.0404313
vn 0.322942 -0.942983 0.0805725
v -0.110353 0.94774 -0.0412055
vn 0.985726 -0.132207 -0.104241
v -0.229996 0.822936 -0.196421
vn 0.71442 -0.468503 -0.519721
v -0.270399 0.706897 0.288703
vn 0.487329 -0.62211 0.612772
v -0.148514 1.00176 0.0785677
vn 0.975904 0.00488307 0.218144
v -0.43247 0.597994 -0.00765659
vn 0.165632 -0.986009 -0.0187795
v -0.359698 0.640648 -0.140521
vn 0.341728 -0.87526 -0.34226
v -0.155775 0.9404 0.204059
vn 0.850825 -0.147313 0.504376
v -0.377378 0.662695 0.241568
vn 0.283436 -0.779667 0.558375
v -0.206297 0.817229 0.287346
vn 0.653102 -0.406424 0.638966
v -0.37684 0.573542 0.143436
vn 0.264017 -0.914194 0.307481
v -0.200276 0.938396 -0.141651
vn 0.888897 -0.182701 -0.420099
v -0.371938 0.783104 -0.196442
vn 0.400913 -0.679018 -0.614982
v -0.202254 1.02623 -0.0412303
vn 0.986798 0.086935 -0.136647
v -0.479106 0.655422 0.146318
vn 0.0557255 -0.919023 0.390244
v -0.468177 0.6947 -0.112886
vn 0.097302 -0.933486 -0.345161
v -0.240498 1.02922 0.17528
vn 0.825093 0.0929103 0.557305
v -0.282415 0.933392 0.272282
vn 0.613177 -0.187709 0.76732
v -0.341382 0.795415 0.297671
vn 0.402083 -0.518606 0.754571
v -0.300326 0.904465 -0.191351
vn 0.682424 -0.326508 -0.65398
v -0.235199 1.0672 0.0596778
vn 0.946943 0.240322 0.213411
v -0.300571 1.00953 -0.139155
vn 0.819464 0.0391457 -0.571792
v -0.549021 0.698702 0.00372589
vn -0.160574 -0.986948 0.0122047
v -0.466942 0.757593 0.247953
vn 0.0949026 -0.69591 0.71183
v -0.306908 1.09342 -0.030036
vn 0.89149 0.431295 -0.138674
v -0.417867 0.895619 0.288036
vn 0.258943 -0.329085 0.908103
v -0.364372 1.03419 0.234588
vn 0.496584 0.125179 0.858914
v -0.326825 1.10831 0.110919
vn 0.745068 0.465981 0.477216
v -0.40665 0.930542 -0.191161
vn 0.417134 -0.310374 -0.854206
v -0.402929 1.07085 -0.121392
vn 0.568275 0.41477 -0.710654
v -0.505996 0.993701 0.256077
vn -0.0234003 -0.0245836 0.999424
v -0.533766 0.857049 0.248731
vn -0.116893 -0.494875 0.861066
v -0.508321 0.990197 -0.163469
vn -0.050749 -0.0597862 -0.99692
v -0.572407 0.761128 0.157964
vn -0.245124 -0.808666 0.534764
v -0.634549 0.796813 0.0380446
vn -0.545507 -0.82379 0.154246
v -0.524933 1.11384 -0.0942202
vn -0.166371 0.759632 -0.628713
v -0.412659 1.14818 0.00222485
vn 0.507747 0.861409 0.0129339
v -0.449776 1.12261 0.171404
vn 0.231826 0.565953 0.791173
v -0.637862 0.905638 0.183587
vn -0.555398 -0.380152 0.739607
v -0.546305 0.829235 -0.137545
vn -0.20662 -0.761984 -0.61375
v -0.592674 1.08606 0.194327
vn -0.399703 0.371178 0.838131
v -0.61693 0.98905 -0.118397
vn -0.701167 -0.0656619 -0.709967
v -0.655304 0.884633 -0.0537796
vn -0.773421 -0.574534 -0.267825
v -0.692835 0.904751 0.0577463
vn -0.865922 -0.427713 0.259308
v -0.542279 1.17969 0.0546794
vn -0.219603 0.933333 0.284015
v -0.65512 1.11466 -0.0422576
vn -0.785527 0.58065 -0.213992
v -0.701222 0.980601 -0.0218173
vn -0.989638 -0.0954077 -0.107301
v -0.706963 1.02084 0.110224
vn -0.879165 0.0885149 0.468223
v -0.649255 1.14557 0.101702
vn -0.643423 0.627525 0.438428
v -0.0626093 0.632894 0.052631
vn 0.762732 -0.640169 0.0917792
v -0.239655 0.753537 0.045494
vn 0.720425 -0.682011 0.125891
v -0.56698 1.01441 0.0597078
vn -0.737022 0.158584 0.657001
v -0.426339 0.927157 -0.0783815
vn 0.567033 -0.560733 -0.603368
v -0.534779 0.939783 -0.0497082
vn -0.406873 -0.70447 -0.581529
v -0.448961 0.981568 0.166241
vn 0.291863 -0.105404 0.950634
v -0.532502 0.874185 0.0520817
vn -0.232169 -0.898717 0.372029
v -0.420275 0.994079 0.0353874
vn 0.911907 -0.0677252 0.40477
v -0.279727 0.949362 0.0757992
vn 0.924001 -0.212417 0.317963
v -0.421533 0.796823 0.0292187
vn 0.357069 -0.924566 0.132961
v -0.378043 0.910042 0.159192
vn 0.554877 -0.40929 0.724288
v -0.489649 1.02511 -0.0574757
vn 0.162839 0.394942 -0.904159
v -0.314388 0.900748 -0.0662566
vn 0.841152 -0.449785 -0.30026
g leftSphere
usemtl leftSphere

s 1
f 75//75 76//76 66//66
f 77//77 82//82 73//73
f 46//46 43//43 55//55
f 72//72 77//77 73//73
f 43//43 59//59 55//55
f 77//77 86//86 82//82
f 53//53 44//44 49//49
f 8//8 12//12 3//3
f 3//3 12//12 7//7
f 2//2 8//8 3//3
f 74//74 84//84 83//83
f 74//74 68//68 71//71
f 79//79 87//87 86//86
f 2//2 4//4 5//5
f 38//38 47//47 49//49
f 76//76 83//83 79//79
f 50//50 58//58 60//60
f 46//46 34//34 43//43
f 30//30 22//22 18//18
f 75//75 66//66 63//63
f 20//20 25//25 16//16
f 6//6 15//15 20//20
f 52//52 50//50 60//60
f 2//2 3//3 1//1
f 36//36 45//45 51//51
f 66//66 55//55 59//59
f 16//16 26//26 21//21
f 16//16 25//25 27//27
f 50//50 52//52 40//40
f 13//13 10//10 9//9
f 24//24 25//25 20//20
f 44//44 39//39 49//49
f 14//14 19//19 17//17
f 24//24 23//23 33//33
f 31//31 19//19 38//38
f 22//22 15//15 18//18
f 43//43 34//34 40//40
f 31//31 39//39 32//32
f 16//16 8//8 6//6
f 21//21 26//26 29//29
f 57//57 56//56 64//64
f 47//47 62//62 53//53
f 3//3 7//7 1//1
f 29//29 48//48 42//42
f 30//30 45//45 36//36
f 76//76 69//69 65//65
f 28//28 34//34 46//46
f 17//17 11//11 14//14
f 46//46 56//56 48//48
f 84//84 80//80 85//85
f 43//43 52//52 59//59
f 77//77 69//69 79//79
f 56//56 55//55 65//65
f 67//67 51//51 78//78
f 75//75 83//83 76//76
f 17//17 32//32 13//13
f 48//48 28//28 46//46
f 6//6 8//8 2//2
f 79//79 69//69 76//76
f 44//44 45//45 35//35
f 5//5 6//6 2//2
f 16//16 12//12 8//8
f 58//58 41//41 51//51
f 21//21 12//12 16//16
f 48//48 56//56 57//57
f 58//58 51//51 67//67
f 23//23 15//15 22//22
f 27//27 34//34 28//28
f 73//73 81//81 78//78
f 14//14 12//12 21//21
f 10//10 15//15 5//5
f 80//80 84//84 74//74
f 29//29 19//19 21//21
f 70//70 77//77 72//72
f 24//24 34//34 25//25
f 28//28 26//26 27//27
f 49//49 39//39 31//31
f 40//40 33//33 50//50
f 83//83 84//84 87//87
f 5//5 15//15 6//6
f 17//17 19//19 31//31
f 38//38 29//29 42//42
f 49//49 47//47 53//53
f 68//68 67//67 71//71
f 9//9 11//11 13//13
f 42//42 47//47 38//38
f 65//65 66//66 76//76
f 1//1 4//4 2//2
f 85//85 81//81 82//82
f 68//68 60//60 67//67
f 16//16 6//6 20//20
f 79//79 86//86 77//77
f 13//13 11//11 17//17
f 86//86 85//85 82//82
f 39//39 44//44 35//35
f 64//64 56//56 65//65
f 78//78 61//61 73//73
f 79//79 83//83 87//87
f 54//54 61//61 78//78
f 87//87 84//84 86//86
f 73//73 61//61 72//72
f 84//84 85//85 86//86
f 48//48 57//57 42//42
f 59//59 63//63 66//66
f 25//25 34//34 27//27
f 14//14 11//11 7//7
f 28//28 48//48 29//29
f 29//29 26//26 28//28
f 51//51 54//54 78//78
f 70//70 62//62 64//64
f 20//20 23//23 24//24
f 54//54 45//45 44//44
f 32//32 30//30 18//18
f 74//74 75//75 68//68
f 71//71 80//80 74//74
f 65//65 55//55 66//66
f 74//74 83//83 75//75
f 56//56 46//46 55//55
f 53//53 72//72 61//61
f 71//71 78//78 80//80
f 62//62 47//47 57//57
f 71//71 67//67 78//78
f 58//58 67//67 60//60
f 80//80 81//81 85//85
f 13//13 18//18 10//10
f 59//59 52//52 63//63
f 21//21 19//19 14//14
f 44//44 53//53 61//61
f 9//9 4//4 1//1
f 77//77 70//70 69//69
f 37//37 23//23 22//22
f 1//1 7//7 9//9
f 5//5 4//4 10//10
f 62//62 57//57 64//64
f 80//80 78//78 81//81
f 33//33 23//23 37//37
f 40//40 34//34 24//24
f 32//32 18//18 13//13
f 50//50 41//41 58//58
f 75//75 63//63 68//68
f 37//37 41//41 33//33
f 10//10 4//4 9//9
f 7//7 11//11 9//9
f 63//63 52//52 60//60
f 57//57 47//47 42//42
f 49//49 31//31 38//38
f 35//35 32//32 39//39
f 31//31 32//32 17//17
f 73//73 82//82 81//81
f 30//30 32//32 35//35
f 20//20 15//15 23//23
f 27//27 26//26 16//16
f 35//35 45//45 30//30
f 36//36 37//37 22//22
f 7//7 12//12 14//14
f 36//36 41//41 37//37
f 18//18 15//15 10//10
f 70//70 64//64 69//69
f 33//33 41//41 50//50
f 54//54 44//44 61//61
f 24//24 33//33 40//40
f 51//51 45//45 54//54
f 40//40 52//52 43//43
f 38//38 19//19 29//29
f 51//51 41//41 36//36
f 72//72 62//62 70//70
f 22//22 30//30 36//36
f 53//53 62//62 72//72
f 69//69 64//64 65//65
f 63//63 60//60 68//68

## Object rightSphere

v -0.5875 0.25 0
vn 0 0 0
v -0.3375 0.25 0
vn 1 0 0
v -0.363893 0.361804 0
vn 0.894427 0.447214 0
v -0.356335 0.298578 0.0818727
vn 0.924658 0.194311 0.327491
v -0.365269 0.304668 -0.100621
vn 0.888925 0.218673 -0.402486
v -0.403472 0.399769 -0.078758
vn 0.736112 0.599077 -0.315032
v -0.432693 0.446087 0.00919147
vn 0.61923 0.784348 0.0367659
v -0.363941 0.188416 0.0934285
vn 0.894236 -0.246334 0.373714
v -0.410629 0.387968 0.110368
vn 0.707486 0.551874 0.441473
v -0.367473 0.191604 -0.103335
vn 0.880107 -0.233582 -0.413341
v -0.358458 0.149801 -8.75488e-05
vn 0.916168 -0.400795 -0.000350195
v -0.421135 0.251713 -0.186601
vn 0.665458 0.00685229 -0.746404
v -0.444167 0.364414 -0.169897
vn 0.573332 0.457656 -0.67959
v -0.485119 0.455304 -0.0993403
vn 0.409525 0.821214 -0.397361
v -0.409409 0.274129 0.173785
vn 0.712366 0.096514 0.69514
v -0.527304 0.492563 -0.00629535
vn 0.240784 0.970252 -0.0251814
v -0.442748 0.137095 -0.169703
vn 0.579009 -0.45162 -0.678813
v -0.436004 0.146356 0.169726
vn 0.605982 -0.414577 0.678905
v -0.511892 0.464419 0.103961
vn 0.302433 0.857675 0.415846
v -0.414726 0.0800885 0.061474
vn 0.691098 -0.679646 0.245896
v -0.500173 0.374247 0.198587
vn 0.349309 0.496986 0.794347
v -0.413442 0.0814998 -0.0617362
vn 0.696233 -0.674001 -0.246945
v -0.596483 0.483348 -0.0892645
vn -0.035932 0.933391 -0.357058
v -0.502895 0.196054 -0.22898
vn 0.338418 -0.215782 -0.915921
v -0.54919 0.415044 -0.183828
vn 0.153241 0.660177 -0.735312
v -0.518203 0.302872 -0.234313
vn 0.277186 0.211488 -0.937252
v -0.506754 0.236186 0.236198
vn 0.322982 -0.0552575 0.944791
v -0.533178 0.122009 0.207768
vn 0.21729 -0.511964 0.83107
v -0.500781 0.048265 -0.119511
vn 0.346876 -0.80694 -0.478043
v -0.627208 0.494429 0.0343175
vn -0.158833 0.977716 0.13727
v -0.514707 0.0432995 0.120316
vn 0.291174 -0.826802 0.481264
v -0.556411 0.102098 -0.199144
vn 0.124357 -0.591609 -0.796576
v -0.652097 0.431072 -0.159813
vn -0.258388 0.724289 -0.639251
v -0.502034 0.0151782 -0.0073646
vn 0.341866 -0.939287 -0.0294584
v -0.606661 0.322435 0.238508
vn -0.0766425 0.289742 0.954031
v -0.709291 0.458556 -0.0645855
vn -0.487165 0.834224 -0.258342
v -0.620815 0.440442 0.158499
vn -0.133259 0.761769 0.633996
v -0.609796 0.20734 -0.245322
vn -0.0891821 -0.170641 -0.981289
v -0.615078 0.185665 0.240001
vn -0.11031 -0.257341 0.960004
v -0.604107 0.0208233 -0.0985003
vn -0.0664263 -0.916707 -0.394001
v -0.738032 0.440036 0.0610438
vn -0.602127 0.760145 0.244175
v -0.625648 0.0683658 0.167492
vn -0.152591 -0.726537 0.66997
v -0.639455 0.335107 -0.229254
vn -0.207822 0.340429 -0.917016
v -0.70028 0.256923 0.223008
vn -0.451122 0.0276906 0.892033
v -0.798255 0.376885 -0.044525
vn -0.843022 0.507538 -0.1781
v -0.728947 0.364011 0.171739
vn -0.565787 0.456045 0.686955
v -0.682286 0.105617 -0.180746
vn -0.379144 -0.577531 -0.722985
v -0.618059 0.00569375 0.0433655
vn -0.122236 -0.977225 0.173462
v -0.740168 0.370642 -0.156965
vn -0.610673 0.482569 -0.627859
v -0.725921 0.239512 -0.207917
vn -0.553685 -0.0419533 -0.831669
v -0.716083 0.147342 0.188223
vn -0.514331 -0.410633 0.752891
v -0.811335 0.338188 0.0679763
vn -0.89534 0.352752 0.271905
v -0.726307 0.0495782 -0.0553525
vn -0.555226 -0.801687 -0.22141
v -0.728081 0.0603012 0.082167
vn -0.562323 -0.758795 0.328668
v -0.781603 0.249774 0.157556
vn -0.776413 -0.000904782 0.630224
v -0.790415 0.161365 -0.116058
vn -0.811658 -0.354539 -0.464234
v -0.800165 0.278246 -0.128358
vn -0.85066 0.112984 -0.513432
v -0.788956 0.146983 0.106315
vn -0.805824 -0.412069 0.42526
v -0.835034 0.250792 -0.035022
vn -0.990134 0.00316965 -0.140088
v -0.805951 0.128435 0.00096488
vn -0.873805 -0.486261 0.00385952
v -0.827736 0.222041 0.063286
vn -0.960943 -0.111836 0.253144
g rightSphere
usemtl rightSphere

s 1
f 160//160 161//161 159//159
f 159//159 161//161 152//152
f 156//156 160//160 159//159
f 134//134 120//120 131//131
f 153//153 156//156 147//147
f 155//155 158//158 151//151
f 139//139 128//128 127//127
f 116//116 123//123 130//130
f 112//112 117//117 124//124
f 150//150 149//149 143//143
f 126//126 112//112 124//124
f 139//139 127//127 135//135
f 152//152 155//155 146//146
f 120//120 111//111 108//108
f 110//110 105//105 102//102
f 132//132 117//117 129//129
f 138//138 126//126 124//124
f 106//106 105//105 113//113
f 127//127 128//128 118//118
f 137//137 130//130 141//141
f 121//121 115//115 109//109
f 141//141 152//152 146//146
f 131//131 120//120 118//118
f 128//128 139//139 142//142
f 149//149 145//145 136//136
f 122//122 117//117 110//110
f 123//123 116//116 114//114
f 153//153 147//147 140//140
f 129//129 134//134 140//140
f 132//132 129//129 140//140
f 108//108 115//115 118//118
f 148//148 153//153 140//140
f 115//115 127//127 118//118
f 103//103 106//106 107//107
f 160//160 156//156 153//153
f 126//126 125//125 113//113
f 121//121 109//109 119//119
f 136//136 145//145 141//141
f 111//111 122//122 110//110
f 117//117 112//112 110//110
f 134//134 122//122 120//120
f 131//131 128//128 142//142
f 148//148 131//131 142//142
f 128//128 131//131 118//118
f 156//156 159//159 157//157
f 150//150 138//138 147//147
f 133//133 149//149 136//136
f 158//158 154//154 151//151
f 106//106 114//114 107//107
f 148//148 134//134 131//131
f 123//123 114//114 125//125
f 154//154 142//142 151//151
f 160//160 154//154 158//158
f 121//121 127//127 115//115
f 108//108 111//111 102//102
f 109//109 103//103 107//107
f 127//127 121//121 135//135
f 142//142 139//139 151//151
f 104//104 115//115 108//108
f 161//161 160//160 158//158
f 154//154 148//148 142//142
f 138//138 143//143 126//126
f 145//145 149//149 157//157
f 105//105 112//112 113//113
f 156//156 150//150 147//147
f 112//112 105//105 110//110
f 135//135 137//137 146//146
f 123//123 136//136 130//130
f 145//145 159//159 152//152
f 144//144 139//139 135//135
f 149//149 150//150 157//157
f 114//114 116//116 107//107
f 144//144 155//155 151//151
f 123//123 133//133 136//136
f 116//116 119//119 107//107
f 161//161 155//155 152//152
f 149//149 133//133 143//143
f 109//109 104//104 103//103
f 138//138 150//150 143//143
f 133//133 123//123 125//125
f 148//148 154//154 153//153
f 134//134 148//148 140//140
f 132//132 138//138 124//124
f 104//104 108//108 102//102
f 122//122 134//134 129//129
f 137//137 119//119 130//130
f 111//111 110//110 102//102
f 125//125 114//114 113//113
f 144//144 135//135 146//146
f 139//139 144//144 151//151
f 138//138 132//132 147//147
f 103//103 104//104 102//102
f 130//130 136//136 141//141
f 141//141 145//145 152//152
f 137//137 121//121 119//119
f 154//154 160//160 153//153
f 122//122 111//111 120//120
f 112//112 126//126 113//113
f 150//150 156//156 157//157
f 117//117 122//122 129//129
f 115//115 104//104 109//109
f 119//119 109//109 107//107
f 105//105 106//106 103//103
f 119//119 116//116 130//130
f 147//147 132//132 140//140
f 121//121 137//137 135//135
f 105//105 103//103 102//102
f 143//143 133//133 125//125
f 159//159 145//145 157//157
f 114//114 106//106 113//113
f 120//120 108//108 118//118
f 137//137 141//141 146//146
f 155//155 144//144 146//146
f 126//126 143//143 125//125
f 155//155 161//161 158//158
f 117//117 132//132 124//124


## Object floor
v   1.0000 0.0000 -1.0400
v  -0.9900 0.0000 -1.0400
v  -1.0100 0.0000  0.9900
v   1.0000 0.0000  0.9900
# 4 vertices

vn 0.0000 1.0000 -0.0000
# 1 vertex normals

g floor
usemtl floor

s 1
f 162//162 163//162 164//162 
f 164//162 165//162 162//162 
# 2 faces

## Object ceiling 
v   1.0000 1.5900 -1.0400
v   1.0000 1.5900  0.9900
v  -1.0200 1.5900  0.9900
v  -1.0200 1.5900 -1.0400
# 4 vertices

vn 0.0000 -1.0000 -0.0000
# 1 vertex normals

g ceiling
usemtl ceiling

s 1
f 166//163 167//163 168//163 
f 168//163 169//163 166//163 
# 2 faces

## Object backwall 
v   1.0000 1.5900 -1.0400
v  -1.0200 1.5900 -1.0400
v  -0.9900 0.0000 -1.0400
v   1.0000 0.0000 -1.0400
# 4 vertices

vn 0.0000 0.0000 1.0000
# 1 vertex normals

g backWall
usemtl backWall

s 1
f 170//164 171//164 172//164 
f 172//164 173//164 170//164 
# 2 faces

## Object rightwall 
v  1.0000 1.5900 0.9900
v  1.0000 1.5900 -1.0400
v  1.0000 0.0000 -1.0400
v  1.0000 0.0000 0.9900
# 4 vertices

vn -1.0000 0.0000 -0.0000
# 1 vertex normals

g rightWall
usemtl rightWall

s 1
f 174//165 175//165 176//165 
f 176//165 177//165 174//165 
# 2 faces

## Object leftWall 
v  -1.0200 1.5900 -1.0400
v  -1.0200 1.5900 0.9900
v  -1.0100 0.0000 0.9900
v  -0.9900 0.0000 -1.0400
# 4 vertices

vn 0.9999 0.0135 0.0057
vn 1.0000 0.0063 -0.0000
vn 0.9999 0.0116 0.0042
vn 0.9998 0.0189 0.0098
# 4 vertex normals

g leftWall
usemtl leftWall

s 1
f 178//166 179//167 180//168 
f 180//168 181//169 178//166 
# 2 faces

## Object light
v  0.2300 1.5800 -0.2200
v  0.2300 1.5800 0.1600
v  -0.2400 1.5800 0.1600
v  -0.2400 1.5800 -0.2200
# 4 vertices

vn 0.0000 -1.0000 -0.0000
# 1 vertex normals

g light
usemtl light

s 1
f 182//170 183//170 184//170 
f 184//170 185//170 182//170 
# 2 faces
