mtllib CornellBox-Sphere.mtl

## Object leftSphere

v 0.0770785 0.499805 0.0457337
vn 0.754298 -0.653805 0.0597784
v 0.0986788 0.589334 0.0115146
vn 0.824533 -0.565592 0.0158585
v 0.0875104 0.556591 0.101065
vn 0.790766 -0.596812 0.13603
v 0.0608419 0.519442 -0.0329735
vn 0.75861 -0.650016 -0.0446009
v 0.0564426 0.595321 -0.0679788
vn 0.804822 -0.585316 -0.0983224
v 0.0732198 0.681166 -0.0135428
vn 0.873726 -0.485981 -0.0206425
v 0.0221456 0.482683 0.123516
vn 0.700561 -0.694083 0.165721
v 0.0892149 0.644218 0.0847586
vn 0.849628 -0.513025 0.122219
v -0.000226796 0.451085 0.00853203
vn 0.673188 -0.739382 0.0114925
v -0.0183944 0.516582 -0.091033
vn 0.69958 -0.702212 -0.132234
v -0.0642685 0.441698 0.0871732
vn 0.610648 -0.782422 0.122167
v 0.0337019 0.589206 0.176353
vn 0.766596 -0.590054 0.25331
v -0.105382 0.448801 -0.0228951
vn 0.58179 -0.812638 -0.0337545
v -0.0654701 0.504026 0.183731
vn 0.634798 -0.72456 0.26841
v -0.0122644 0.652809 -0.126253
vn 0.797141 -0.567439 -0.206345
v 0.0373239 0.734986 0.124372
vn 0.878128 -0.433103 0.203256
v -0.163547 0.454815 0.104076
vn 0.518382 -0.83998 0.160353
v -0.122727 0.537497 -0.13066
vn 0.617472 -0.756966 -0.213848
v -0.17121 0.53674 0.214562
vn 0.541443 -0.762885 0.353336
v 0.0165684 0.770778 -0.0397212
vn 0.911801 -0.404602 -0.0701123
v -0.0560209 0.624288 0.232131
vn 0.708973 -0.59996 0.370682
v -0.136136 0.656226 -0.177853
vn 0.684941 -0.647124 -0.334793
v -0.0669291 0.767103 -0.136221
vn 0.848755 -0.456444 -0.266973
v -0.0623733 0.86477 -0.0484025
vn 0.950135 -0.293599 -0.105087
v -0.0112782 0.832428 0.0534911
vn 0.94091 -0.322617 0.102984
v -0.0591654 0.73891 0.221821
vn 0.78959 -0.467646 0.397309
v -0.0398576 0.822037 0.150029
vn 0.892328 -0.345114 0.290942
v -0.128382 0.828063 0.222701
vn 0.797277 -0.368876 0.477786
v -0.168207 0.677709 0.26674
vn 0.621388 -0.603591 0.499555
v -0.24007 0.574236 -0.151721
vn 0.498523 -0.816579 -0.290989
v -0.269895 0.491706 0.119946
vn 0.403198 -0.890651 0.210173
v -0.232923 0.476582 -0.0324693
vn 0.453815 -0.889387 -0.0551715
v -0.14527 0.860046 -0.137914
vn 0.874769 -0.345129 -0.340097
v -0.098952 0.912009 0.0933202
vn 0.952475 -0.208977 0.221632
v -0.329281 0.536241 -0.0813608
vn 0.340868 -0.925969 -0.16245
v -0.263558 0.693045 -0.199943
vn 0.542287 -0.704012 -0.458577
v -0.167592 0.760365 -0.186331
vn 0.73843 -0.53234 -0.413926
v -0.284365 0.574923 0.222311
vn 0.410001 -0.808226 0.422694
v -0.339233 0.505423 0.0219718
vn 0.308862 -0.95017 0.0422117
v -0.149083 0.946727 -0.03839
vn 0.982939 -0.149221 -0.107533
v -0.254869 0.818256 -0.198003
vn 0.673872 -0.499618 -0.544315
v -0.290674 0.6818 0.273816
vn 0.446241 -0.678336 0.58372
v -0.19685 0.991046 0.0799915
vn 0.966511 -0.0285461 0.255031
v -0.439762 0.569236 -0.0271337
vn 0.138224 -0.988442 -0.0622618
v -0.366815 0.623016 -0.154367
vn 0.310757 -0.879603 -0.360179
v -0.199498 0.923732 0.198241
vn 0.8166 -0.207255 0.538712
v -0.394444 0.628824 0.223902
vn 0.236596 -0.831962 0.501858
v -0.23676 0.795463 0.275834
vn 0.60839 -0.472717 0.637496
v -0.384594 0.544211 0.124586
vn 0.237265 -0.937069 0.25614
v -0.237803 0.93355 -0.138541
vn 0.862768 -0.218656 -0.455875
v -0.394405 0.76723 -0.202552
vn 0.323783 -0.713739 -0.621081
v -0.250873 1.01682 -0.03552
vn 0.987783 0.0667087 -0.140836
v -0.496133 0.614816 0.124885
vn 0.00954913 -0.951208 0.308401
v -0.482491 0.66848 -0.12936
vn 0.0491429 -0.930465 -0.363071
v -0.294234 1.00491 0.17761
vn 0.756875 0.0180601 0.65331
v -0.328448 0.901185 0.264435
vn 0.51933 -0.299137 0.800508
v -0.373069 0.759853 0.282448
vn 0.323913 -0.612831 0.720777
v -0.333457 0.894193 -0.190608
vn 0.607065 -0.385676 -0.694785
v -0.290019 1.0497 0.0671923
vn 0.929112 0.219908 0.297308
v -0.343951 0.998143 -0.132742
vn 0.761668 -0.00906345 -0.647905
v -0.566799 0.661736 -0.0194512
vn -0.193426 -0.979497 -0.056324
v -0.496178 0.711107 0.228784
vn 0.0103714 -0.783903 0.620797
v -0.361328 1.07804 -0.0186828
vn 0.865537 0.487081 -0.116611
v -0.463699 0.847334 0.277288
vn 0.113936 -0.47916 0.870301
v -0.421869 0.992622 0.237232
vn 0.312681 -0.029525 0.949399
v -0.387784 1.08132 0.123125
vn 0.605335 0.438667 0.664184
v -0.440373 0.915399 -0.189659
vn 0.275971 -0.391556 -0.877795
v -0.450585 1.05528 -0.110776
vn 0.370701 0.414697 -0.831028
v -0.563229 0.936745 0.253093
vn -0.235551 -0.235647 0.942861
v -0.57645 0.801332 0.230797
vn -0.24349 -0.632749 0.735079
v -0.544498 0.970747 -0.1624
vn -0.260362 -0.171164 -0.950218
v -0.602283 0.710466 0.133888
vn -0.305333 -0.864309 0.399677
v -0.66339 0.750558 0.0119905
vn -0.547495 -0.835844 0.0401785
v -0.577788 1.08821 -0.0826985
vn -0.541046 0.613526 -0.5752
v -0.475156 1.12385 0.0201371
vn 0.194224 0.968243 0.157425
v -0.518058 1.07784 0.183558
vn -0.0901999 0.388836 0.916881
v -0.685424 0.842539 0.164547
vn -0.631368 -0.536154 0.560279
v -0.571185 0.803796 -0.150781
vn -0.276462 -0.762003 -0.585594
v -0.660565 1.02308 0.197196
vn -0.62882 0.0903919 0.772279
v -0.653662 0.959117 -0.12606
vn -0.757274 -0.201477 -0.621243
v -0.68762 0.844968 -0.0752536
vn -0.736477 -0.608557 -0.295398
v -0.734225 0.848777 0.0342691
vn -0.833842 -0.538354 0.121998
v -0.613741 1.13534 0.0706187
vn -0.597476 0.710924 0.370958
v -0.711919 1.07028 -0.0402858
vn -0.934077 0.309791 -0.177568
v -0.74467 0.931709 -0.0386066
vn -0.95225 -0.265787 -0.150256
v -0.764828 0.955075 0.0974992
vn -0.926753 -0.157214 0.341193
v -0.71998 1.08524 0.106991
vn -0.849194 0.329068 0.413018
v -0.0697571 0.628836 0.0469921
vn 0.754603 -0.650985 0.0824195
v -0.260455 0.737272 0.0345533
vn 0.670593 -0.735492 0.0967299
v -0.621416 0.969255 0.0582904
vn -0.878883 -0.222553 0.421942
v -0.463371 0.905796 -0.0784284
vn 0.286312 -0.736347 -0.61304
v -0.573565 0.909496 -0.0551597
vn -0.570196 -0.701489 -0.42754
v -0.501666 0.93884 0.164347
vn -0.00949987 -0.348756 0.937166
v -0.570363 0.835497 0.0394162
vn -0.384057 -0.897894 0.215143
v -0.469068 0.967305 0.0382417
vn 0.523736 -0.553581 0.647494
v -0.324792 0.927351 0.0741468
vn 0.860338 -0.356733 0.364088
v -0.449719 0.767306 0.0172697
vn 0.210655 -0.974879 0.072352
v -0.422383 0.874365 0.15175
vn 0.366556 -0.593328 0.716658
v -0.536227 0.999284 -0.0528984
vn -0.565005 -0.0111671 -0.825012
v -0.350209 0.883853 -0.0673082
vn 0.744706 -0.577439 -0.334631
g leftSphere
usemtl leftSphere

s 1
f 75//75 76//76 66//66
f 77//77 82//82 73//73
f 46//46 43//43 55//55
f 72//72 77//77 73//73
f 43//43 59//59 55//55
f 77//77 86//86 82//82
f 53//53 44//44 49//49
f 8//8 12//12 3//3
f 3//3 12//12 7//7
f 2//2 8//8 3//3
f 74//74 84//84 83//83
f 74//74 68//68 71//71
f 79//79 87//87 86//86
f 2//2 4//4 5//5
f 38//38 47//47 49//49
f 76//76 83//83 79//79
f 50//50 58//58 60//60
f 46//46 34//34 43//43
f 30//30 22//22 18//18
f 75//75 66//66 63//63
f 20//20 25//25 16//16
f 6//6 15//15 20//20
f 52//52 50//50 60//60
f 2//2 3//3 1//1
f 36//36 45//45 51//51
f 66//66 55//55 59//59
f 16//16 26//26 21//21
f 16//16 25//25 27//27
f 50//50 52//52 40//40
f 13//13 10//10 9//9
f 24//24 25//25 20//20
f 44//44 39//39 49//49
f 14//14 19//19 17//17
f 24//24 23//23 33//33
f 31//31 19//19 38//38
f 22//22 15//15 18//18
f 43//43 34//34 40//40
f 31//31 39//39 32//32
f 16//16 8//8 6//6
f 21//21 26//26 29//29
f 57//57 56//56 64//64
f 47//47 62//62 53//53
f 3//3 7//7 1//1
f 29//29 48//48 42//42
f 30//30 45//45 36//36
f 76//76 69//69 65//65
f 28//28 34//34 46//46
f 17//17 11//11 14//14
f 46//46 56//56 48//48
f 84//84 80//80 85//85
f 43//43 52//52 59//59
f 77//77 69//69 79//79
f 56//56 55//55 65//65
f 67//67 51//51 78//78
f 75//75 83//83 76//76
f 17//17 32//32 13//13
f 48//48 28//28 46//46
f 6//6 8//8 2//2
f 79//79 69//69 76//76
f 44//44 45//45 35//35
f 5//5 6//6 2//2
f 16//16 12//12 8//8
f 58//58 41//41 51//51
f 21//21 12//12 16//16
f 48//48 56//56 57//57
f 58//58 51//51 67//67
f 23//23 15//15 22//22
f 27//27 34//34 28//28
f 73//73 81//81 78//78
f 14//14 12//12 21//21
f 10//10 15//15 5//5
f 80//80 84//84 74//74
f 29//29 19//19 21//21
f 70//70 77//77 72//72
f 24//24 34//34 25//25
f 28//28 26//26 27//27
f 49//49 39//39 31//31
f 40//40 33//33 50//50
f 83//83 84//84 87//87
f 5//5 15//15 6//6
f 17//17 19//19 31//31
f 38//38 29//29 42//42
f 49//49 47//47 53//53
f 68//68 67//67 71//71
f 9//9 11//11 13//13
f 42//42 47//47 38//38
f 65//65 66//66 76//76
f 1//1 4//4 2//2
f 85//85 81//81 82//82
f 68//68 60//60 67//67
f 16//16 6//6 20//20
f 79//79 86//86 77//77
f 13//13 11//11 17//17
f 86//86 85//85 82//82
f 39//39 44//44 35//35
f 64//64 56//56 65//65
f 78//78 61//61 73//73
f 79//79 83//83 87//87
f 54//54 61//61 78//78
f 87//87 84//84 86//86
f 73//73 61//61 72//72
f 84//84 85//85 86//86
f 48//48 57//57 42//42
f 59//59 63//63 66//66
f 25//25 34//34 27//27
f 14//14 11//11 7//7
f 28//28 48//48 29//29
f 29//29 26//26 28//28
f 51//51 54//54 78//78
f 70//70 62//62 64//64
f 20//20 23//23 24//24
f 54//54 45//45 44//44
f 32//32 30//30 18//18
f 74//74 75//75 68//68
f 71//71 80//80 74//74
f 65//65 55//55 66//66
f 74//74 83//83 75//75
f 56//56 46//46 55//55
f 53//53 72//72 61//61
f 71//71 78//78 80//80
f 62//62 47//47 57//57
f 71//71 67//67 78//78
f 58//58 67//67 60//60
f 80//80 81//81 85//85
f 13//13 18//18 10//10
f 59//59 52//52 63//63
f 21//21 19//19 14//14
f 44//44 53//53 61//61
f 9//9 4//4 1//1
f 77//77 70//70 69//69
f 37//37 23//23 22//22
f 1//1 7//7 9//9
f 5//5 4//4 10//10
f 62//62 57//57 64//64
f 80//80 78//78 81//81
f 33//33 23//23 37//37
f 40//40 34//34 24//24
f 32//32 18//18 13//13
f 50//50 41//41 58//58
f 75//75 63//63 68//68
f 37//37 41//41 33//33
f 10//10 4//4 9//9
f 7//7 11//11 9//9
f 63//63 52//52 60//60
f 57//57 47//47 42//42
f 49//49 31//31 38//38
f 35//35 32//32 39//39
f 31//31 32//32 17//17
f 73//73 82//82 81//81
f 30//30 32//32 35//35
f 20//20 15//15 23//23
f 27//27 26//26 16//16
f 35//35 45//45 30//30
f 36//36 37//37 22//22
f 7//7 12//12 14//14
f 36//36 41//41 37//37
f 18//18 15//15 10//10
f 70//70 64//64 69//69
f 33//33 41//41 50//50
f 54//54 44//44 61//61
f 24//24 33//33 40//40
f 51//51 45//45 54//54
f 40//40 52//52 43//43
f 38//38 19//19 29//29
f 51//51 41//41 36//36
f 72//72 62//62 70//70
f 22//22 30//30 36//36
f 53//53 62//62 72//72
f 69//69 64//64 65//65
f 63//63 60//60 68//68

## Object rightSphere

v -0.5875 0.25 0
vn 0 0 0
v -0.3375 0.25 0
vn 1 0 0
v -0.363893 0.361804 0
vn 0.894427 0.447214 0
v -0.356335 0.298578 0.0818727
vn 0.924658 0.194311 0.327491
v -0.365269 0.304668 -0.100621
vn 0.888925 0.218673 -0.402486
v -0.403472 0.399769 -0.078758
vn 0.736112 0.599077 -0.315032
v -0.432693 0.446087 0.00919147
vn 0.61923 0.784348 0.0367659
v -0.363941 0.188416 0.0934285
vn 0.894236 -0.246334 0.373714
v -0.410629 0.387968 0.110368
vn 0.707486 0.551874 0.441473
v -0.367473 0.191604 -0.103335
vn 0.880107 -0.233582 -0.413341
v -0.358458 0.149801 -8.75488e-05
vn 0.916168 -0.400795 -0.000350195
v -0.421135 0.251713 -0.186601
vn 0.665458 0.00685229 -0.746404
v -0.444167 0.364414 -0.169897
vn 0.573332 0.457656 -0.67959
v -0.485119 0.455304 -0.0993403
vn 0.409525 0.821214 -0.397361
v -0.409409 0.274129 0.173785
vn 0.712366 0.096514 0.69514
v -0.527304 0.492563 -0.00629535
vn 0.240784 0.970252 -0.0251814
v -0.442748 0.137095 -0.169703
vn 0.579009 -0.45162 -0.678813
v -0.436004 0.146356 0.169726
vn 0.605982 -0.414577 0.678905
v -0.511892 0.464419 0.103961
vn 0.302433 0.857675 0.415846
v -0.414726 0.0800885 0.061474
vn 0.691098 -0.679646 0.245896
v -0.500173 0.374247 0.198587
vn 0.349309 0.496986 0.794347
v -0.413442 0.0814998 -0.0617362
vn 0.696233 -0.674001 -0.246945
v -0.596483 0.483348 -0.0892645
vn -0.035932 0.933391 -0.357058
v -0.502895 0.196054 -0.22898
vn 0.338418 -0.215782 -0.915921
v -0.54919 0.415044 -0.183828
vn 0.153241 0.660177 -0.735312
v -0.518203 0.302872 -0.234313
vn 0.277186 0.211488 -0.937252
v -0.506754 0.236186 0.236198
vn 0.322982 -0.0552575 0.944791
v -0.533178 0.122009 0.207768
vn 0.21729 -0.511964 0.83107
v -0.500781 0.048265 -0.119511
vn 0.346876 -0.80694 -0.478043
v -0.627208 0.494429 0.0343175
vn -0.158833 0.977716 0.13727
v -0.514707 0.0432995 0.120316
vn 0.291174 -0.826802 0.481264
v -0.556411 0.102098 -0.199144
vn 0.124357 -0.591609 -0.796576
v -0.652097 0.431072 -0.159813
vn -0.258388 0.724289 -0.639251
v -0.502034 0.0151782 -0.0073646
vn 0.341866 -0.939287 -0.0294584
v -0.606661 0.322435 0.238508
vn -0.0766425 0.289742 0.954031
v -0.709291 0.458556 -0.0645855
vn -0.487165 0.834224 -0.258342
v -0.620815 0.440442 0.158499
vn -0.133259 0.761769 0.633996
v -0.609796 0.20734 -0.245322
vn -0.0891821 -0.170641 -0.981289
v -0.615078 0.185665 0.240001
vn -0.11031 -0.257341 0.960004
v -0.604107 0.0208233 -0.0985003
vn -0.0664263 -0.916707 -0.394001
v -0.738032 0.440036 0.0610438
vn -0.602127 0.760145 0.244175
v -0.625648 0.0683658 0.167492
vn -0.152591 -0.726537 0.66997
v -0.639455 0.335107 -0.229254
vn -0.207822 0.340429 -0.917016
v -0.70028 0.256923 0.223008
vn -0.451122 0.0276906 0.892033
v -0.798255 0.376885 -0.044525
vn -0.843022 0.507538 -0.1781
v -0.728947 0.364011 0.171739
vn -0.565787 0.456045 0.686955
v -0.682286 0.105617 -0.180746
vn -0.379144 -0.577531 -0.722985
v -0.618059 0.00569375 0.0433655
vn -0.122236 -0.977225 0.173462
v -0.740168 0.370642 -0.156965
vn -0.610673 0.482569 -0.627859
v -0.725921 0.239512 -0.207917
vn -0.553685 -0.0419533 -0.831669
v -0.716083 0.147342 0.188223
vn -0.514331 -0.410633 0.752891
v -0.811335 0.338188 0.0679763
vn -0.89534 0.352752 0.271905
v -0.726307 0.0495782 -0.0553525
vn -0.555226 -0.801687 -0.22141
v -0.728081 0.0603012 0.082167
vn -0.562323 -0.758795 0.328668
v -0.781603 0.249774 0.157556
vn -0.776413 -0.000904782 0.630224
v -0.790415 0.161365 -0.116058
vn -0.811658 -0.354539 -0.464234
v -0.800165 0.278246 -0.128358
vn -0.85066 0.112984 -0.513432
v -0.788956 0.146983 0.106315
vn -0.805824 -0.412069 0.42526
v -0.835034 0.250792 -0.035022
vn -0.990134 0.00316965 -0.140088
v -0.805951 0.128435 0.00096488
vn -0.873805 -0.486261 0.00385952
v -0.827736 0.222041 0.063286
vn -0.960943 -0.111836 0.253144
g rightSphere
usemtl rightSphere

s 1
f 160//160 161//161 159//159
f 159//159 161//161 152//152
f 156//156 160//160 159//159
f 134//134 120//120 131//131
f 153//153 156//156 147//147
f 155//155 158//158 151//151
f 139//139 128//128 127//127
f 116//116 123//123 130//130
f 112//112 117//117 124//124
f 150//150 149//149 143//143
f 126//126 112//112 124//124
f 139//139 127//127 135//135
f 152//152 155//155 146//146
f 120//120 111//111 108//108
f 110//110 105//105 102//102
f 132//132 117//117 129//129
f 138//138 126//126 124//124
f 106//106 105//105 113//113
f 127//127 128//128 118//118
f 137//137 130//130 141//141
f 121//121 115//115 109//109
f 141//141 152//152 146//146
f 131//131 120//120 118//118
f 128//128 139//139 142//142
f 149//149 145//145 136//136
f 122//122 117//117 110//110
f 123//123 116//116 114//114
f 153//153 147//147 140//140
f 129//129 134//134 140//140
f 132//132 129//129 140//140
f 108//108 115//115 118//118
f 148//148 153//153 140//140
f 115//115 127//127 118//118
f 103//103 106//106 107//107
f 160//160 156//156 153//153
f 126//126 125//125 113//113
f 121//121 109//109 119//119
f 136//136 145//145 141//141
f 111//111 122//122 110//110
f 117//117 112//112 110//110
f 134//134 122//122 120//120
f 131//131 128//128 142//142
f 148//148 131//131 142//142
f 128//128 131//131 118//118
f 156//156 159//159 157//157
f 150//150 138//138 147//147
f 133//133 149//149 136//136
f 158//158 154//154 151//151
f 106//106 114//114 107//107
f 148//148 134//134 131//131
f 123//123 114//114 125//125
f 154//154 142//142 151//151
f 160//160 154//154 158//158
f 121//121 127//127 115//115
f 108//108 111//111 102//102
f 109//109 103//103 107//107
f 127//127 121//121 135//135
f 142//142 139//139 151//151
f 104//104 115//115 108//108
f 161//161 160//160 158//158
f 154//154 148//148 142//142
f 138//138 143//143 126//126
f 145//145 149//149 157//157
f 105//105 112//112 113//113
f 156//156 150//150 147//147
f 112//112 105//105 110//110
f 135//135 137//137 146//146
f 123//123 136//136 130//130
f 145//145 159//159 152//152
f 144//144 139//139 135//135
f 149//149 150//150 157//157
f 114//114 116//116 107//107
f 144//144 155//155 151//151
f 123//123 133//133 136//136
f 116//116 119//119 107//107
f 161//161 155//155 152//152
f 149//149 133//133 143//143
f 109//109 104//104 103//103
f 138//138 150//150 143//143
f 133//133 123//123 125//125
f 148//148 154//154 153//153
f 134//134 148//148 140//140
f 132//132 138//138 124//124
f 104//104 108//108 102//102
f 122//122 134//134 129//129
f 137//137 119//119 130//130
f 111//111 110//110 102//102
f 125//125 114//114 113//113
f 144//144 135//135 146//146
f 139//139 144//144 151//151
f 138//138 132//132 147//147
f 103//103 104//104 102//102
f 130//130 136//136 141//141
f 141//141 145//145 152//152
f 137//137 121//121 119//119
f 154//154 160//160 153//153
f 122//122 111//111 120//120
f 112//112 126//126 113//113
f 150//150 156//156 157//157
f 117//117 122//122 129//129
f 115//115 104//104 109//109
f 119//119 109//109 107//107
f 105//105 106//106 103//103
f 119//119 116//116 130//130
f 147//147 132//132 140//140
f 121//121 137//137 135//135
f 105//105 103//103 102//102
f 143//143 133//133 125//125
f 159//159 145//145 157//157
f 114//114 106//106 113//113
f 120//120 108//108 118//118
f 137//137 141//141 146//146
f 155//155 144//144 146//146
f 126//126 143//143 125//125
f 155//155 161//161 158//158
f 117//117 132//132 124//124


## Object floor
v   1.0000 0.0000 -1.0400
v  -0.9900 0.0000 -1.0400
v  -1.0100 0.0000  0.9900
v   1.0000 0.0000  0.9900
# 4 vertices

vn 0.0000 1.0000 -0.0000
# 1 vertex normals

g floor
usemtl floor

s 1
f 162//162 163//162 164//162 
f 164//162 165//162 162//162 
# 2 faces

## Object ceiling 
v   1.0000 1.5900 -1.0400
v   1.0000 1.5900  0.9900
v  -1.0200 1.5900  0.9900
v  -1.0200 1.5900 -1.0400
# 4 vertices

vn 0.0000 -1.0000 -0.0000
# 1 vertex normals

g ceiling
usemtl ceiling

s 1
f 166//163 167//163 168//163 
f 168//163 169//163 166//163 
# 2 faces

## Object backwall 
v   1.0000 1.5900 -1.0400
v  -1.0200 1.5900 -1.0400
v  -0.9900 0.0000 -1.0400
v   1.0000 0.0000 -1.0400
# 4 vertices

vn 0.0000 0.0000 1.0000
# 1 vertex normals

g backWall
usemtl backWall

s 1
f 170//164 171//164 172//164 
f 172//164 173//164 170//164 
# 2 faces

## Object rightwall 
v  1.0000 1.5900 0.9900
v  1.0000 1.5900 -1.0400
v  1.0000 0.0000 -1.0400
v  1.0000 0.0000 0.9900
# 4 vertices

vn -1.0000 0.0000 -0.0000
# 1 vertex normals

g rightWall
usemtl rightWall

s 1
f 174//165 175//165 176//165 
f 176//165 177//165 174//165 
# 2 faces

## Object leftWall 
v  -1.0200 1.5900 -1.0400
v  -1.0200 1.5900 0.9900
v  -1.0100 0.0000 0.9900
v  -0.9900 0.0000 -1.0400
# 4 vertices

vn 0.9999 0.0135 0.0057
vn 1.0000 0.0063 -0.0000
vn 0.9999 0.0116 0.0042
vn 0.9998 0.0189 0.0098
# 4 vertex normals

g leftWall
usemtl leftWall

s 1
f 178//166 179//167 180//168 
f 180//168 181//169 178//166 
# 2 faces

## Object light
v  0.2300 1.5800 -0.2200
v  0.2300 1.5800 0.1600
v  -0.2400 1.5800 0.1600
v  -0.2400 1.5800 -0.2200
# 4 vertices

vn 0.0000 -1.0000 -0.0000
# 1 vertex normals

g light
usemtl light

s 1
f 182//170 183//170 184//170 
f 184//170 185//170 182//170 
# 2 faces
