mtllib CornellBox-Sphere.mtl

## Object leftSphere

v 0.000142813 0.690996 -2.25513e-06
vn 0.850728 -0.525606 -3.8359e-06
v -0.0342745 0.782255 -8.33481e-07
vn 0.90588 -0.423535 -1.6212e-06
v -0.0236436 0.718442 0.0711719
vn 0.853834 -0.504672 0.12757
v -0.0253637 0.725651 -0.0708513
vn 0.858633 -0.496307 -0.128172
v -0.0730106 0.792546 -0.0816311
vn 0.886449 -0.430684 -0.16947
v -0.107786 0.846304 -0.00114483
vn 0.931062 -0.364852 -0.00271767
v -0.0337729 0.619285 0.0552998
vn 0.771314 -0.629845 0.0914865
v -0.0726985 0.790996 0.0832036
vn 0.884866 -0.432811 0.1723
v -0.035173 0.626084 -0.0656444
vn 0.774511 -0.623032 -0.109379
v -0.0892708 0.7008 -0.142409
vn 0.778293 -0.566956 -0.269852
v -0.0809479 0.55474 -0.00870286
vn 0.685282 -0.728139 -0.0142319
v -0.0853849 0.685341 0.139843
vn 0.769295 -0.583832 0.259471
v -0.120035 0.577656 -0.116708
vn 0.655142 -0.728214 -0.201231
v -0.116563 0.565091 0.099748
vn 0.651749 -0.73924 0.169547
v -0.162602 0.818453 -0.133716
vn 0.831431 -0.447377 -0.329508
v -0.165602 0.815954 0.137974
vn 0.823901 -0.45346 0.339944
v -0.169341 0.503666 -0.00818039
vn 0.554381 -0.83215 -0.0137152
v -0.187051 0.67226 -0.194355
vn 0.634687 -0.664684 -0.394167
v -0.221375 0.520637 0.118652
vn 0.491395 -0.845424 0.20926
v -0.204299 0.892691 -0.00957584
vn 0.939581 -0.340971 -0.0304269
v -0.177205 0.641501 0.184687
vn 0.624901 -0.694022 0.357537
v -0.265999 0.772079 -0.205979
vn 0.605945 -0.590199 -0.533381
v -0.270995 0.879577 -0.118538
vn 0.80466 -0.423135 -0.416509
v -0.320563 0.925049 -0.00250709
vn 0.922661 -0.385396 -0.0128914
v -0.260152 0.889958 0.0933572
vn 0.856863 -0.393127 0.333521
v -0.244503 0.729579 0.211822
vn 0.596807 -0.631669 0.494789
v -0.276399 0.830106 0.175641
vn 0.67507 -0.512924 0.530273
v -0.351485 0.759875 0.229292
vn 0.408322 -0.660195 0.630409
v -0.299079 0.608371 0.213974
vn 0.410533 -0.800198 0.437203
v -0.303575 0.644708 -0.225546
vn 0.422947 -0.765023 -0.48565
v -0.277324 0.468358 -0.00226452
vn 0.386325 -0.922354 -0.00392876
v -0.240338 0.531349 -0.141913
vn 0.468489 -0.845553 -0.256042
v -0.385395 0.911594 -0.104384
vn 0.64221 -0.495396 -0.584935
v -0.375405 0.888977 0.14079
vn 0.57065 -0.50849 0.644822
v -0.352845 0.545512 -0.189495
vn 0.286334 -0.884341 -0.36872
v -0.389083 0.743484 -0.238612
vn 0.301835 -0.698048 -0.649326
v -0.348833 0.840255 -0.18646
vn 0.524276 -0.554025 -0.646677
v -0.335374 0.48704 0.11647
vn 0.298682 -0.930664 0.211313
v -0.343213 0.480072 -0.104086
vn 0.283552 -0.9403 -0.188241
v -0.435778 0.939108 0.0167241
vn 0.713048 -0.676079 0.185686
v -0.450982 0.84527 -0.195818
vn 0.192727 -0.608359 -0.769906
v -0.40184 0.545551 0.197171
vn 0.194372 -0.89988 0.39043
v -0.499063 0.90372 0.132253
vn 0.00572619 -0.588549 0.808441
v -0.460695 0.499857 -0.152321
vn 0.0749665 -0.953927 -0.290523
v -0.433411 0.620584 -0.238245
vn 0.147017 -0.83768 -0.526002
v -0.463948 0.805491 0.222153
vn 0.121197 -0.653889 0.746821
v -0.457666 0.475763 0.111982
vn 0.078727 -0.974902 0.208248
v -0.422461 0.659094 0.245673
vn 0.181464 -0.797816 0.574944
v -0.402828 0.455697 -0.0050363
vn 0.17574 -0.984395 -0.00910835
v -0.500905 0.920702 -0.100308
vn -0.00707468 -0.620146 -0.784454
v -0.535533 0.736076 -0.246595
vn -0.0979026 -0.727178 -0.679432
v -0.55737 0.938894 0.0194799
vn -0.666697 -0.710119 0.226377
v -0.522094 0.491233 -0.0053501
vn -0.0433842 -0.999003 -0.0105053
v -0.553371 0.586316 -0.224947
vn -0.112621 -0.87293 -0.474669
v -0.587346 0.827569 0.205615
vn -0.309513 -0.611015 0.728603
v -0.5589 0.698438 0.248743
vn -0.14899 -0.76282 0.629212
v -0.514786 0.561949 0.214073
vn -0.0303128 -0.898041 0.438867
v -0.55673 0.860941 -0.182553
vn -0.239984 -0.588256 -0.772245
v -0.608089 0.905836 0.116914
vn -0.584315 -0.509038 0.632025
v -0.622787 0.913338 -0.098636
vn -0.683036 -0.482082 -0.548688
v -0.61637 0.497162 -0.139435
vn -0.217665 -0.940533 -0.260806
v -0.588816 0.488549 0.123195
vn -0.16647 -0.958629 0.230909
v -0.681066 0.922344 0.0284087
vn -0.909634 -0.390126 0.142718
v -0.640908 0.585324 0.215573
vn -0.288661 -0.849498 0.441619
v -0.688071 0.732001 0.228689
vn -0.470925 -0.671062 0.572631
v -0.706434 0.858774 0.154709
vn -0.701919 -0.480197 0.526042
v -0.655575 0.820406 -0.200513
vn -0.500391 -0.577645 -0.64493
v -0.740988 0.893086 -0.086504
vn -0.868524 -0.385319 -0.311762
v -0.773614 0.611645 0.1941
vn -0.533168 -0.756754 0.378226
v -0.707092 0.511164 0.134965
vn -0.378056 -0.892395 0.246385
v -0.771536 0.797032 -0.182043
vn -0.705664 -0.52747 -0.47309
v -0.676654 0.483396 0.00883533
vn -0.323515 -0.946085 0.0161806
v -0.747377 0.502871 -0.10534
vn -0.437695 -0.879594 -0.186383
v -0.863441 0.843072 -0.0802554
vn -0.89977 -0.388505 -0.198688
v -0.799536 0.88536 0.0496858
vn -0.922927 -0.353227 0.153091
v -0.812184 0.768665 0.179505
vn -0.729376 -0.540484 0.41939
v -0.819659 0.508229 0.0584972
vn -0.542308 -0.834298 0.0992416
v -0.700953 0.648513 -0.225842
vn -0.433457 -0.758161 -0.487142
v -0.900197 0.649932 0.144359
vn -0.726378 -0.63539 0.262019
v -0.8554 0.717721 -0.174207
vn -0.731055 -0.580646 -0.358343
v -0.820311 0.59298 -0.165786
vn -0.588992 -0.748435 -0.304849
v -0.861713 0.533544 -0.0715916
vn -0.608335 -0.784494 -0.120404
v -0.92039 0.80721 0.0698083
vn -0.898793 -0.412184 0.14925
v -0.965375 0.746091 -0.0733249
vn -0.869564 -0.474434 -0.137009
v -0.916427 0.619089 -0.118471
vn -0.722132 -0.660544 -0.205443
v -0.947232 0.579518 0.0107314
vn -0.728448 -0.684878 0.0174792
v -0.981733 0.701225 0.0664991
vn -0.844036 -0.523477 0.116512
v -0.194065 0.707406 0.0100074
vn 0.722486 -0.690981 0.0236331
v -0.40943 0.693864 -0.00241858
vn 0.283686 -0.958887 -0.00757554
v -0.835482 0.677941 0.00727377
vn -0.721304 -0.692442 0.015639
v -0.669684 0.759948 -0.10514
vn -0.543502 -0.768891 -0.336767
v -0.762195 0.696456 -0.10604
vn -0.63197 -0.731634 -0.255588
v -0.721927 0.677139 0.125768
vn -0.53935 -0.784651 0.305655
v -0.719797 0.609707 -0.037466
vn -0.48899 -0.868298 -0.0833519
v -0.70852 0.761065 0.0220142
vn -0.655946 -0.751625 0.0692506
v -0.568137 0.791577 0.0787523
vn -0.292445 -0.894555 0.338006
v -0.582736 0.630784 -0.0520855
vn -0.216621 -0.966684 -0.136371
v -0.621051 0.673802 0.114066
vn -0.330601 -0.890874 0.311523
v -0.780634 0.784254 -0.0693319
vn -0.778014 -0.598122 -0.192212
v -0.564713 0.798479 -0.0740114
vn -0.288607 -0.898752 -0.330078
g leftSphere
usemtl leftSphere

s 1
f 75//75 76//76 66//66
f 77//77 82//82 73//73
f 46//46 43//43 55//55
f 72//72 77//77 73//73
f 43//43 59//59 55//55
f 77//77 86//86 82//82
f 53//53 44//44 49//49
f 8//8 12//12 3//3
f 3//3 12//12 7//7
f 2//2 8//8 3//3
f 74//74 84//84 83//83
f 74//74 68//68 71//71
f 79//79 87//87 86//86
f 2//2 4//4 5//5
f 38//38 47//47 49//49
f 76//76 83//83 79//79
f 50//50 58//58 60//60
f 46//46 34//34 43//43
f 30//30 22//22 18//18
f 75//75 66//66 63//63
f 20//20 25//25 16//16
f 6//6 15//15 20//20
f 52//52 50//50 60//60
f 2//2 3//3 1//1
f 36//36 45//45 51//51
f 66//66 55//55 59//59
f 16//16 26//26 21//21
f 16//16 25//25 27//27
f 50//50 52//52 40//40
f 13//13 10//10 9//9
f 24//24 25//25 20//20
f 44//44 39//39 49//49
f 14//14 19//19 17//17
f 24//24 23//23 33//33
f 31//31 19//19 38//38
f 22//22 15//15 18//18
f 43//43 34//34 40//40
f 31//31 39//39 32//32
f 16//16 8//8 6//6
f 21//21 26//26 29//29
f 57//57 56//56 64//64
f 47//47 62//62 53//53
f 3//3 7//7 1//1
f 29//29 48//48 42//42
f 30//30 45//45 36//36
f 76//76 69//69 65//65
f 28//28 34//34 46//46
f 17//17 11//11 14//14
f 46//46 56//56 48//48
f 84//84 80//80 85//85
f 43//43 52//52 59//59
f 77//77 69//69 79//79
f 56//56 55//55 65//65
f 67//67 51//51 78//78
f 75//75 83//83 76//76
f 17//17 32//32 13//13
f 48//48 28//28 46//46
f 6//6 8//8 2//2
f 79//79 69//69 76//76
f 44//44 45//45 35//35
f 5//5 6//6 2//2
f 16//16 12//12 8//8
f 58//58 41//41 51//51
f 21//21 12//12 16//16
f 48//48 56//56 57//57
f 58//58 51//51 67//67
f 23//23 15//15 22//22
f 27//27 34//34 28//28
f 73//73 81//81 78//78
f 14//14 12//12 21//21
f 10//10 15//15 5//5
f 80//80 84//84 74//74
f 29//29 19//19 21//21
f 70//70 77//77 72//72
f 24//24 34//34 25//25
f 28//28 26//26 27//27
f 49//49 39//39 31//31
f 40//40 33//33 50//50
f 83//83 84//84 87//87
f 5//5 15//15 6//6
f 17//17 19//19 31//31
f 38//38 29//29 42//42
f 49//49 47//47 53//53
f 68//68 67//67 71//71
f 9//9 11//11 13//13
f 42//42 47//47 38//38
f 65//65 66//66 76//76
f 1//1 4//4 2//2
f 85//85 81//81 82//82
f 68//68 60//60 67//67
f 16//16 6//6 20//20
f 79//79 86//86 77//77
f 13//13 11//11 17//17
f 86//86 85//85 82//82
f 39//39 44//44 35//35
f 64//64 56//56 65//65
f 78//78 61//61 73//73
f 79//79 83//83 87//87
f 54//54 61//61 78//78
f 87//87 84//84 86//86
f 73//73 61//61 72//72
f 84//84 85//85 86//86
f 48//48 57//57 42//42
f 59//59 63//63 66//66
f 25//25 34//34 27//27
f 14//14 11//11 7//7
f 28//28 48//48 29//29
f 29//29 26//26 28//28
f 51//51 54//54 78//78
f 70//70 62//62 64//64
f 20//20 23//23 24//24
f 54//54 45//45 44//44
f 32//32 30//30 18//18
f 74//74 75//75 68//68
f 71//71 80//80 74//74
f 65//65 55//55 66//66
f 74//74 83//83 75//75
f 56//56 46//46 55//55
f 53//53 72//72 61//61
f 71//71 78//78 80//80
f 62//62 47//47 57//57
f 71//71 67//67 78//78
f 58//58 67//67 60//60
f 80//80 81//81 85//85
f 13//13 18//18 10//10
f 59//59 52//52 63//63
f 21//21 19//19 14//14
f 44//44 53//53 61//61
f 9//9 4//4 1//1
f 77//77 70//70 69//69
f 37//37 23//23 22//22
f 1//1 7//7 9//9
f 5//5 4//4 10//10
f 62//62 57//57 64//64
f 80//80 78//78 81//81
f 33//33 23//23 37//37
f 40//40 34//34 24//24
f 32//32 18//18 13//13
f 50//50 41//41 58//58
f 75//75 63//63 68//68
f 37//37 41//41 33//33
f 10//10 4//4 9//9
f 7//7 11//11 9//9
f 63//63 52//52 60//60
f 57//57 47//47 42//42
f 49//49 31//31 38//38
f 35//35 32//32 39//39
f 31//31 32//32 17//17
f 73//73 82//82 81//81
f 30//30 32//32 35//35
f 20//20 15//15 23//23
f 27//27 26//26 16//16
f 35//35 45//45 30//30
f 36//36 37//37 22//22
f 7//7 12//12 14//14
f 36//36 41//41 37//37
f 18//18 15//15 10//10
f 70//70 64//64 69//69
f 33//33 41//41 50//50
f 54//54 44//44 61//61
f 24//24 33//33 40//40
f 51//51 45//45 54//54
f 40//40 52//52 43//43
f 38//38 19//19 29//29
f 51//51 41//41 36//36
f 72//72 62//62 70//70
f 22//22 30//30 36//36
f 53//53 62//62 72//72
f 69//69 64//64 65//65
f 63//63 60//60 68//68

## Object rightSphere

v -0.5875 0.25 0
vn 0 0 0
v -0.3375 0.25 0
vn 1 0 0
v -0.363893 0.361804 0
vn 0.894427 0.447214 0
v -0.356335 0.298578 0.0818727
vn 0.924658 0.194311 0.327491
v -0.365269 0.304668 -0.100621
vn 0.888925 0.218673 -0.402486
v -0.403472 0.399769 -0.078758
vn 0.736112 0.599077 -0.315032
v -0.432693 0.446087 0.00919147
vn 0.61923 0.784348 0.0367659
v -0.363941 0.188416 0.0934285
vn 0.894236 -0.246334 0.373714
v -0.410629 0.387968 0.110368
vn 0.707486 0.551874 0.441473
v -0.367473 0.191604 -0.103335
vn 0.880107 -0.233582 -0.413341
v -0.358458 0.149801 -8.75488e-05
vn 0.916168 -0.400795 -0.000350195
v -0.421135 0.251713 -0.186601
vn 0.665458 0.00685229 -0.746404
v -0.444167 0.364414 -0.169897
vn 0.573332 0.457656 -0.67959
v -0.485119 0.455304 -0.0993403
vn 0.409525 0.821214 -0.397361
v -0.409409 0.274129 0.173785
vn 0.712366 0.096514 0.69514
v -0.527304 0.492563 -0.00629535
vn 0.240784 0.970252 -0.0251814
v -0.442748 0.137095 -0.169703
vn 0.579009 -0.45162 -0.678813
v -0.436004 0.146356 0.169726
vn 0.605982 -0.414577 0.678905
v -0.511892 0.464419 0.103961
vn 0.302433 0.857675 0.415846
v -0.414726 0.0800885 0.061474
vn 0.691098 -0.679646 0.245896
v -0.500173 0.374247 0.198587
vn 0.349309 0.496986 0.794347
v -0.413442 0.0814998 -0.0617362
vn 0.696233 -0.674001 -0.246945
v -0.596483 0.483348 -0.0892645
vn -0.035932 0.933391 -0.357058
v -0.502895 0.196054 -0.22898
vn 0.338418 -0.215782 -0.915921
v -0.54919 0.415044 -0.183828
vn 0.153241 0.660177 -0.735312
v -0.518203 0.302872 -0.234313
vn 0.277186 0.211488 -0.937252
v -0.506754 0.236186 0.236198
vn 0.322982 -0.0552575 0.944791
v -0.533178 0.122009 0.207768
vn 0.21729 -0.511964 0.83107
v -0.500781 0.048265 -0.119511
vn 0.346876 -0.80694 -0.478043
v -0.627208 0.494429 0.0343175
vn -0.158833 0.977716 0.13727
v -0.514707 0.0432995 0.120316
vn 0.291174 -0.826802 0.481264
v -0.556411 0.102098 -0.199144
vn 0.124357 -0.591609 -0.796576
v -0.652097 0.431072 -0.159813
vn -0.258388 0.724289 -0.639251
v -0.502034 0.0151782 -0.0073646
vn 0.341866 -0.939287 -0.0294584
v -0.606661 0.322435 0.238508
vn -0.0766425 0.289742 0.954031
v -0.709291 0.458556 -0.0645855
vn -0.487165 0.834224 -0.258342
v -0.620815 0.440442 0.158499
vn -0.133259 0.761769 0.633996
v -0.609796 0.20734 -0.245322
vn -0.0891821 -0.170641 -0.981289
v -0.615078 0.185665 0.240001
vn -0.11031 -0.257341 0.960004
v -0.604107 0.0208233 -0.0985003
vn -0.0664263 -0.916707 -0.394001
v -0.738032 0.440036 0.0610438
vn -0.602127 0.760145 0.244175
v -0.625648 0.0683658 0.167492
vn -0.152591 -0.726537 0.66997
v -0.639455 0.335107 -0.229254
vn -0.207822 0.340429 -0.917016
v -0.70028 0.256923 0.223008
vn -0.451122 0.0276906 0.892033
v -0.798255 0.376885 -0.044525
vn -0.843022 0.507538 -0.1781
v -0.728947 0.364011 0.171739
vn -0.565787 0.456045 0.686955
v -0.682286 0.105617 -0.180746
vn -0.379144 -0.577531 -0.722985
v -0.618059 0.00569375 0.0433655
vn -0.122236 -0.977225 0.173462
v -0.740168 0.370642 -0.156965
vn -0.610673 0.482569 -0.627859
v -0.725921 0.239512 -0.207917
vn -0.553685 -0.0419533 -0.831669
v -0.716083 0.147342 0.188223
vn -0.514331 -0.410633 0.752891
v -0.811335 0.338188 0.0679763
vn -0.89534 0.352752 0.271905
v -0.726307 0.0495782 -0.0553525
vn -0.555226 -0.801687 -0.22141
v -0.728081 0.0603012 0.082167
vn -0.562323 -0.758795 0.328668
v -0.781603 0.249774 0.157556
vn -0.776413 -0.000904782 0.630224
v -0.790415 0.161365 -0.116058
vn -0.811658 -0.354539 -0.464234
v -0.800165 0.278246 -0.128358
vn -0.85066 0.112984 -0.513432
v -0.788956 0.146983 0.106315
vn -0.805824 -0.412069 0.42526
v -0.835034 0.250792 -0.035022
vn -0.990134 0.00316965 -0.140088
v -0.805951 0.128435 0.00096488
vn -0.873805 -0.486261 0.00385952
v -0.827736 0.222041 0.063286
vn -0.960943 -0.111836 0.253144
g rightSphere
usemtl rightSphere

s 1
f 160//160 161//161 159//159
f 159//159 161//161 152//152
f 156//156 160//160 159//159
f 134//134 120//120 131//131
f 153//153 156//156 147//147
f 155//155 158//158 151//151
f 139//139 128//128 127//127
f 116//116 123//123 130//130
f 112//112 117//117 124//124
f 150//150 149//149 143//143
f 126//126 112//112 124//124
f 139//139 127//127 135//135
f 152//152 155//155 146//146
f 120//120 111//111 108//108
f 110//110 105//105 102//102
f 132//132 117//117 129//129
f 138//138 126//126 124//124
f 106//106 105//105 113//113
f 127//127 128//128 118//118
f 137//137 130//130 141//141
f 121//121 115//115 109//109
f 141//141 152//152 146//146
f 131//131 120//120 118//118
f 128//128 139//139 142//142
f 149//149 145//145 136//136
f 122//122 117//117 110//110
f 123//123 116//116 114//114
f 153//153 147//147 140//140
f 129//129 134//134 140//140
f 132//132 129//129 140//140
f 108//108 115//115 118//118
f 148//148 153//153 140//140
f 115//115 127//127 118//118
f 103//103 106//106 107//107
f 160//160 156//156 153//153
f 126//126 125//125 113//113
f 121//121 109//109 119//119
f 136//136 145//145 141//141
f 111//111 122//122 110//110
f 117//117 112//112 110//110
f 134//134 122//122 120//120
f 131//131 128//128 142//142
f 148//148 131//131 142//142
f 128//128 131//131 118//118
f 156//156 159//159 157//157
f 150//150 138//138 147//147
f 133//133 149//149 136//136
f 158//158 154//154 151//151
f 106//106 114//114 107//107
f 148//148 134//134 131//131
f 123//123 114//114 125//125
f 154//154 142//142 151//151
f 160//160 154//154 158//158
f 121//121 127//127 115//115
f 108//108 111//111 102//102
f 109//109 103//103 107//107
f 127//127 121//121 135//135
f 142//142 139//139 151//151
f 104//104 115//115 108//108
f 161//161 160//160 158//158
f 154//154 148//148 142//142
f 138//138 143//143 126//126
f 145//145 149//149 157//157
f 105//105 112//112 113//113
f 156//156 150//150 147//147
f 112//112 105//105 110//110
f 135//135 137//137 146//146
f 123//123 136//136 130//130
f 145//145 159//159 152//152
f 144//144 139//139 135//135
f 149//149 150//150 157//157
f 114//114 116//116 107//107
f 144//144 155//155 151//151
f 123//123 133//133 136//136
f 116//116 119//119 107//107
f 161//161 155//155 152//152
f 149//149 133//133 143//143
f 109//109 104//104 103//103
f 138//138 150//150 143//143
f 133//133 123//123 125//125
f 148//148 154//154 153//153
f 134//134 148//148 140//140
f 132//132 138//138 124//124
f 104//104 108//108 102//102
f 122//122 134//134 129//129
f 137//137 119//119 130//130
f 111//111 110//110 102//102
f 125//125 114//114 113//113
f 144//144 135//135 146//146
f 139//139 144//144 151//151
f 138//138 132//132 147//147
f 103//103 104//104 102//102
f 130//130 136//136 141//141
f 141//141 145//145 152//152
f 137//137 121//121 119//119
f 154//154 160//160 153//153
f 122//122 111//111 120//120
f 112//112 126//126 113//113
f 150//150 156//156 157//157
f 117//117 122//122 129//129
f 115//115 104//104 109//109
f 119//119 109//109 107//107
f 105//105 106//106 103//103
f 119//119 116//116 130//130
f 147//147 132//132 140//140
f 121//121 137//137 135//135
f 105//105 103//103 102//102
f 143//143 133//133 125//125
f 159//159 145//145 157//157
f 114//114 106//106 113//113
f 120//120 108//108 118//118
f 137//137 141//141 146//146
f 155//155 144//144 146//146
f 126//126 143//143 125//125
f 155//155 161//161 158//158
f 117//117 132//132 124//124


## Object floor
v   1.0000 0.0000 -1.0400
v  -0.9900 0.0000 -1.0400
v  -1.0100 0.0000  0.9900
v   1.0000 0.0000  0.9900
# 4 vertices

vn 0.0000 1.0000 -0.0000
# 1 vertex normals

g floor
usemtl floor

s 1
f 162//162 163//162 164//162 
f 164//162 165//162 162//162 
# 2 faces

## Object ceiling 
v   1.0000 1.5900 -1.0400
v   1.0000 1.5900  0.9900
v  -1.0200 1.5900  0.9900
v  -1.0200 1.5900 -1.0400
# 4 vertices

vn 0.0000 -1.0000 -0.0000
# 1 vertex normals

g ceiling
usemtl ceiling

s 1
f 166//163 167//163 168//163 
f 168//163 169//163 166//163 
# 2 faces

## Object backwall 
v   1.0000 1.5900 -1.0400
v  -1.0200 1.5900 -1.0400
v  -0.9900 0.0000 -1.0400
v   1.0000 0.0000 -1.0400
# 4 vertices

vn 0.0000 0.0000 1.0000
# 1 vertex normals

g backWall
usemtl backWall

s 1
f 170//164 171//164 172//164 
f 172//164 173//164 170//164 
# 2 faces

## Object rightwall 
v  1.0000 1.5900 0.9900
v  1.0000 1.5900 -1.0400
v  1.0000 0.0000 -1.0400
v  1.0000 0.0000 0.9900
# 4 vertices

vn -1.0000 0.0000 -0.0000
# 1 vertex normals

g rightWall
usemtl rightWall

s 1
f 174//165 175//165 176//165 
f 176//165 177//165 174//165 
# 2 faces

## Object leftWall 
v  -1.0200 1.5900 -1.0400
v  -1.0200 1.5900 0.9900
v  -1.0100 0.0000 0.9900
v  -0.9900 0.0000 -1.0400
# 4 vertices

vn 0.9999 0.0135 0.0057
vn 1.0000 0.0063 -0.0000
vn 0.9999 0.0116 0.0042
vn 0.9998 0.0189 0.0098
# 4 vertex normals

g leftWall
usemtl leftWall

s 1
f 178//166 179//167 180//168 
f 180//168 181//169 178//166 
# 2 faces

## Object light
v  0.2300 1.5800 -0.2200
v  0.2300 1.5800 0.1600
v  -0.2400 1.5800 0.1600
v  -0.2400 1.5800 -0.2200
# 4 vertices

vn 0.0000 -1.0000 -0.0000
# 1 vertex normals

g light
usemtl light

s 1
f 182//170 183//170 184//170 
f 184//170 185//170 182//170 
# 2 faces
